G04 #@! TF.GenerationSoftware,KiCad,Pcbnew,(5.0.2)-1*
G04 #@! TF.CreationDate,2019-03-24T20:45:22+01:00*
G04 #@! TF.ProjectId,TaggerKeypadDisplay,54616767-6572-44b6-9579-706164446973,rev?*
G04 #@! TF.SameCoordinates,Original*
G04 #@! TF.FileFunction,Soldermask,Bot*
G04 #@! TF.FilePolarity,Negative*
%FSLAX46Y46*%
G04 Gerber Fmt 4.6, Leading zero omitted, Abs format (unit mm)*
G04 Created by KiCad (PCBNEW (5.0.2)-1) date 24.03.2019 20:45:22*
%MOMM*%
%LPD*%
G01*
G04 APERTURE LIST*
%ADD10C,0.100000*%
G04 APERTURE END LIST*
D10*
G36*
X66335734Y-85893232D02*
X66545202Y-85979996D01*
X66733723Y-86105962D01*
X66894038Y-86266277D01*
X67020004Y-86454798D01*
X67106768Y-86664266D01*
X67151000Y-86886635D01*
X67151000Y-87113365D01*
X67106768Y-87335734D01*
X67020004Y-87545202D01*
X66894038Y-87733723D01*
X66733723Y-87894038D01*
X66545202Y-88020004D01*
X66335734Y-88106768D01*
X66113365Y-88151000D01*
X65886635Y-88151000D01*
X65664266Y-88106768D01*
X65454798Y-88020004D01*
X65266277Y-87894038D01*
X65105962Y-87733723D01*
X64979996Y-87545202D01*
X64893232Y-87335734D01*
X64849000Y-87113365D01*
X64849000Y-86886635D01*
X64893232Y-86664266D01*
X64979996Y-86454798D01*
X65105962Y-86266277D01*
X65266277Y-86105962D01*
X65454798Y-85979996D01*
X65664266Y-85893232D01*
X65886635Y-85849000D01*
X66113365Y-85849000D01*
X66335734Y-85893232D01*
X66335734Y-85893232D01*
G37*
G36*
X32335734Y-85893232D02*
X32545202Y-85979996D01*
X32733723Y-86105962D01*
X32894038Y-86266277D01*
X33020004Y-86454798D01*
X33106768Y-86664266D01*
X33151000Y-86886635D01*
X33151000Y-87113365D01*
X33106768Y-87335734D01*
X33020004Y-87545202D01*
X32894038Y-87733723D01*
X32733723Y-87894038D01*
X32545202Y-88020004D01*
X32335734Y-88106768D01*
X32113365Y-88151000D01*
X31886635Y-88151000D01*
X31664266Y-88106768D01*
X31454798Y-88020004D01*
X31266277Y-87894038D01*
X31105962Y-87733723D01*
X30979996Y-87545202D01*
X30893232Y-87335734D01*
X30849000Y-87113365D01*
X30849000Y-86886635D01*
X30893232Y-86664266D01*
X30979996Y-86454798D01*
X31105962Y-86266277D01*
X31266277Y-86105962D01*
X31454798Y-85979996D01*
X31664266Y-85893232D01*
X31886635Y-85849000D01*
X32113365Y-85849000D01*
X32335734Y-85893232D01*
X32335734Y-85893232D01*
G37*
G36*
X54051000Y-87801000D02*
X51949000Y-87801000D01*
X51949000Y-86699000D01*
X54051000Y-86699000D01*
X54051000Y-87801000D01*
X54051000Y-87801000D01*
G37*
G36*
X46051000Y-87801000D02*
X43949000Y-87801000D01*
X43949000Y-86699000D01*
X46051000Y-86699000D01*
X46051000Y-87801000D01*
X46051000Y-87801000D01*
G37*
G36*
X46051000Y-83301000D02*
X43949000Y-83301000D01*
X43949000Y-82199000D01*
X46051000Y-82199000D01*
X46051000Y-83301000D01*
X46051000Y-83301000D01*
G37*
G36*
X54051000Y-83301000D02*
X51949000Y-83301000D01*
X51949000Y-82199000D01*
X54051000Y-82199000D01*
X54051000Y-83301000D01*
X54051000Y-83301000D01*
G37*
G36*
X63051000Y-78801000D02*
X60949000Y-78801000D01*
X60949000Y-77699000D01*
X63051000Y-77699000D01*
X63051000Y-78801000D01*
X63051000Y-78801000D01*
G37*
G36*
X55051000Y-78801000D02*
X52949000Y-78801000D01*
X52949000Y-77699000D01*
X55051000Y-77699000D01*
X55051000Y-78801000D01*
X55051000Y-78801000D01*
G37*
G36*
X45051000Y-78801000D02*
X42949000Y-78801000D01*
X42949000Y-77699000D01*
X45051000Y-77699000D01*
X45051000Y-78801000D01*
X45051000Y-78801000D01*
G37*
G36*
X37051000Y-78801000D02*
X34949000Y-78801000D01*
X34949000Y-77699000D01*
X37051000Y-77699000D01*
X37051000Y-78801000D01*
X37051000Y-78801000D01*
G37*
G36*
X63051000Y-74301000D02*
X60949000Y-74301000D01*
X60949000Y-73199000D01*
X63051000Y-73199000D01*
X63051000Y-74301000D01*
X63051000Y-74301000D01*
G37*
G36*
X55051000Y-74301000D02*
X52949000Y-74301000D01*
X52949000Y-73199000D01*
X55051000Y-73199000D01*
X55051000Y-74301000D01*
X55051000Y-74301000D01*
G37*
G36*
X37051000Y-74301000D02*
X34949000Y-74301000D01*
X34949000Y-73199000D01*
X37051000Y-73199000D01*
X37051000Y-74301000D01*
X37051000Y-74301000D01*
G37*
G36*
X45051000Y-74301000D02*
X42949000Y-74301000D01*
X42949000Y-73199000D01*
X45051000Y-73199000D01*
X45051000Y-74301000D01*
X45051000Y-74301000D01*
G37*
G36*
X54127617Y-70583420D02*
X54209426Y-70608237D01*
X54250332Y-70620645D01*
X54272544Y-70632518D01*
X54363425Y-70681095D01*
X54363427Y-70681096D01*
X54363426Y-70681096D01*
X54436965Y-70741447D01*
X54462553Y-70762447D01*
X54543905Y-70861574D01*
X54543906Y-70861576D01*
X54604355Y-70974667D01*
X54616763Y-71015573D01*
X54641580Y-71097382D01*
X54651000Y-71193027D01*
X54651000Y-71806973D01*
X54641580Y-71902618D01*
X54616763Y-71984427D01*
X54604355Y-72025333D01*
X54550819Y-72125491D01*
X54543905Y-72138426D01*
X54462553Y-72237553D01*
X54363426Y-72318905D01*
X54363424Y-72318906D01*
X54250333Y-72379355D01*
X54209427Y-72391763D01*
X54127618Y-72416580D01*
X54000000Y-72429149D01*
X53872383Y-72416580D01*
X53790574Y-72391763D01*
X53749668Y-72379355D01*
X53636577Y-72318906D01*
X53636575Y-72318905D01*
X53537448Y-72237553D01*
X53456095Y-72138426D01*
X53415795Y-72063030D01*
X53395645Y-72025333D01*
X53383237Y-71984427D01*
X53358420Y-71902618D01*
X53349000Y-71806973D01*
X53349000Y-71193028D01*
X53358420Y-71097383D01*
X53395645Y-70974669D01*
X53395645Y-70974668D01*
X53427957Y-70914218D01*
X53456095Y-70861575D01*
X53537447Y-70762447D01*
X53636574Y-70681095D01*
X53671400Y-70662480D01*
X53749667Y-70620645D01*
X53790573Y-70608237D01*
X53872382Y-70583420D01*
X54000000Y-70570851D01*
X54127617Y-70583420D01*
X54127617Y-70583420D01*
G37*
G36*
X52127617Y-70583420D02*
X52209426Y-70608237D01*
X52250332Y-70620645D01*
X52272544Y-70632518D01*
X52363425Y-70681095D01*
X52363427Y-70681096D01*
X52363426Y-70681096D01*
X52436965Y-70741447D01*
X52462553Y-70762447D01*
X52543905Y-70861574D01*
X52543906Y-70861576D01*
X52604355Y-70974667D01*
X52616763Y-71015573D01*
X52641580Y-71097382D01*
X52651000Y-71193027D01*
X52651000Y-71806973D01*
X52641580Y-71902618D01*
X52616763Y-71984427D01*
X52604355Y-72025333D01*
X52550819Y-72125491D01*
X52543905Y-72138426D01*
X52462553Y-72237553D01*
X52363426Y-72318905D01*
X52363424Y-72318906D01*
X52250333Y-72379355D01*
X52209427Y-72391763D01*
X52127618Y-72416580D01*
X52000000Y-72429149D01*
X51872383Y-72416580D01*
X51790574Y-72391763D01*
X51749668Y-72379355D01*
X51636577Y-72318906D01*
X51636575Y-72318905D01*
X51537448Y-72237553D01*
X51456095Y-72138426D01*
X51415795Y-72063030D01*
X51395645Y-72025333D01*
X51383237Y-71984427D01*
X51358420Y-71902618D01*
X51349000Y-71806973D01*
X51349000Y-71193028D01*
X51358420Y-71097383D01*
X51395645Y-70974669D01*
X51395645Y-70974668D01*
X51427957Y-70914218D01*
X51456095Y-70861575D01*
X51537447Y-70762447D01*
X51636574Y-70681095D01*
X51671400Y-70662480D01*
X51749667Y-70620645D01*
X51790573Y-70608237D01*
X51872382Y-70583420D01*
X52000000Y-70570851D01*
X52127617Y-70583420D01*
X52127617Y-70583420D01*
G37*
G36*
X50127617Y-70583420D02*
X50209426Y-70608237D01*
X50250332Y-70620645D01*
X50272544Y-70632518D01*
X50363425Y-70681095D01*
X50363427Y-70681096D01*
X50363426Y-70681096D01*
X50436965Y-70741447D01*
X50462553Y-70762447D01*
X50543905Y-70861574D01*
X50543906Y-70861576D01*
X50604355Y-70974667D01*
X50616763Y-71015573D01*
X50641580Y-71097382D01*
X50651000Y-71193027D01*
X50651000Y-71806973D01*
X50641580Y-71902618D01*
X50616763Y-71984427D01*
X50604355Y-72025333D01*
X50550819Y-72125491D01*
X50543905Y-72138426D01*
X50462553Y-72237553D01*
X50363426Y-72318905D01*
X50363424Y-72318906D01*
X50250333Y-72379355D01*
X50209427Y-72391763D01*
X50127618Y-72416580D01*
X50000000Y-72429149D01*
X49872383Y-72416580D01*
X49790574Y-72391763D01*
X49749668Y-72379355D01*
X49636577Y-72318906D01*
X49636575Y-72318905D01*
X49537448Y-72237553D01*
X49456095Y-72138426D01*
X49415795Y-72063030D01*
X49395645Y-72025333D01*
X49383237Y-71984427D01*
X49358420Y-71902618D01*
X49349000Y-71806973D01*
X49349000Y-71193028D01*
X49358420Y-71097383D01*
X49395645Y-70974669D01*
X49395645Y-70974668D01*
X49427957Y-70914218D01*
X49456095Y-70861575D01*
X49537447Y-70762447D01*
X49636574Y-70681095D01*
X49671400Y-70662480D01*
X49749667Y-70620645D01*
X49790573Y-70608237D01*
X49872382Y-70583420D01*
X50000000Y-70570851D01*
X50127617Y-70583420D01*
X50127617Y-70583420D01*
G37*
G36*
X46127617Y-70583420D02*
X46209426Y-70608237D01*
X46250332Y-70620645D01*
X46272544Y-70632518D01*
X46363425Y-70681095D01*
X46363427Y-70681096D01*
X46363426Y-70681096D01*
X46436965Y-70741447D01*
X46462553Y-70762447D01*
X46543905Y-70861574D01*
X46543906Y-70861576D01*
X46604355Y-70974667D01*
X46616763Y-71015573D01*
X46641580Y-71097382D01*
X46651000Y-71193027D01*
X46651000Y-71806973D01*
X46641580Y-71902618D01*
X46616763Y-71984427D01*
X46604355Y-72025333D01*
X46550819Y-72125491D01*
X46543905Y-72138426D01*
X46462553Y-72237553D01*
X46363426Y-72318905D01*
X46363424Y-72318906D01*
X46250333Y-72379355D01*
X46209427Y-72391763D01*
X46127618Y-72416580D01*
X46000000Y-72429149D01*
X45872383Y-72416580D01*
X45790574Y-72391763D01*
X45749668Y-72379355D01*
X45636577Y-72318906D01*
X45636575Y-72318905D01*
X45537448Y-72237553D01*
X45456095Y-72138426D01*
X45415795Y-72063030D01*
X45395645Y-72025333D01*
X45383237Y-71984427D01*
X45358420Y-71902618D01*
X45349000Y-71806973D01*
X45349000Y-71193028D01*
X45358420Y-71097383D01*
X45395645Y-70974669D01*
X45395645Y-70974668D01*
X45427957Y-70914218D01*
X45456095Y-70861575D01*
X45537447Y-70762447D01*
X45636574Y-70681095D01*
X45671400Y-70662480D01*
X45749667Y-70620645D01*
X45790573Y-70608237D01*
X45872382Y-70583420D01*
X46000000Y-70570851D01*
X46127617Y-70583420D01*
X46127617Y-70583420D01*
G37*
G36*
X56127617Y-70583420D02*
X56209426Y-70608237D01*
X56250332Y-70620645D01*
X56272544Y-70632518D01*
X56363425Y-70681095D01*
X56363427Y-70681096D01*
X56363426Y-70681096D01*
X56436965Y-70741447D01*
X56462553Y-70762447D01*
X56543905Y-70861574D01*
X56543906Y-70861576D01*
X56604355Y-70974667D01*
X56616763Y-71015573D01*
X56641580Y-71097382D01*
X56651000Y-71193027D01*
X56651000Y-71806973D01*
X56641580Y-71902618D01*
X56616763Y-71984427D01*
X56604355Y-72025333D01*
X56550819Y-72125491D01*
X56543905Y-72138426D01*
X56462553Y-72237553D01*
X56363426Y-72318905D01*
X56363424Y-72318906D01*
X56250333Y-72379355D01*
X56209427Y-72391763D01*
X56127618Y-72416580D01*
X56000000Y-72429149D01*
X55872383Y-72416580D01*
X55790574Y-72391763D01*
X55749668Y-72379355D01*
X55636577Y-72318906D01*
X55636575Y-72318905D01*
X55537448Y-72237553D01*
X55456095Y-72138426D01*
X55415795Y-72063030D01*
X55395645Y-72025333D01*
X55383237Y-71984427D01*
X55358420Y-71902618D01*
X55349000Y-71806973D01*
X55349000Y-71193028D01*
X55358420Y-71097383D01*
X55395645Y-70974669D01*
X55395645Y-70974668D01*
X55427957Y-70914218D01*
X55456095Y-70861575D01*
X55537447Y-70762447D01*
X55636574Y-70681095D01*
X55671400Y-70662480D01*
X55749667Y-70620645D01*
X55790573Y-70608237D01*
X55872382Y-70583420D01*
X56000000Y-70570851D01*
X56127617Y-70583420D01*
X56127617Y-70583420D01*
G37*
G36*
X44127617Y-70583420D02*
X44209426Y-70608237D01*
X44250332Y-70620645D01*
X44272544Y-70632518D01*
X44363425Y-70681095D01*
X44363427Y-70681096D01*
X44363426Y-70681096D01*
X44436965Y-70741447D01*
X44462553Y-70762447D01*
X44543905Y-70861574D01*
X44543906Y-70861576D01*
X44604355Y-70974667D01*
X44616763Y-71015573D01*
X44641580Y-71097382D01*
X44651000Y-71193027D01*
X44651000Y-71806973D01*
X44641580Y-71902618D01*
X44616763Y-71984427D01*
X44604355Y-72025333D01*
X44550819Y-72125491D01*
X44543905Y-72138426D01*
X44462553Y-72237553D01*
X44363426Y-72318905D01*
X44363424Y-72318906D01*
X44250333Y-72379355D01*
X44209427Y-72391763D01*
X44127618Y-72416580D01*
X44000000Y-72429149D01*
X43872383Y-72416580D01*
X43790574Y-72391763D01*
X43749668Y-72379355D01*
X43636577Y-72318906D01*
X43636575Y-72318905D01*
X43537448Y-72237553D01*
X43456095Y-72138426D01*
X43415795Y-72063030D01*
X43395645Y-72025333D01*
X43383237Y-71984427D01*
X43358420Y-71902618D01*
X43349000Y-71806973D01*
X43349000Y-71193028D01*
X43358420Y-71097383D01*
X43395645Y-70974669D01*
X43395645Y-70974668D01*
X43427957Y-70914218D01*
X43456095Y-70861575D01*
X43537447Y-70762447D01*
X43636574Y-70681095D01*
X43671400Y-70662480D01*
X43749667Y-70620645D01*
X43790573Y-70608237D01*
X43872382Y-70583420D01*
X44000000Y-70570851D01*
X44127617Y-70583420D01*
X44127617Y-70583420D01*
G37*
G36*
X48127617Y-70583420D02*
X48209426Y-70608237D01*
X48250332Y-70620645D01*
X48272544Y-70632518D01*
X48363425Y-70681095D01*
X48363427Y-70681096D01*
X48363426Y-70681096D01*
X48436965Y-70741447D01*
X48462553Y-70762447D01*
X48543905Y-70861574D01*
X48543906Y-70861576D01*
X48604355Y-70974667D01*
X48616763Y-71015573D01*
X48641580Y-71097382D01*
X48651000Y-71193027D01*
X48651000Y-71806973D01*
X48641580Y-71902618D01*
X48616763Y-71984427D01*
X48604355Y-72025333D01*
X48550819Y-72125491D01*
X48543905Y-72138426D01*
X48462553Y-72237553D01*
X48363426Y-72318905D01*
X48363424Y-72318906D01*
X48250333Y-72379355D01*
X48209427Y-72391763D01*
X48127618Y-72416580D01*
X48000000Y-72429149D01*
X47872383Y-72416580D01*
X47790574Y-72391763D01*
X47749668Y-72379355D01*
X47636577Y-72318906D01*
X47636575Y-72318905D01*
X47537448Y-72237553D01*
X47456095Y-72138426D01*
X47415795Y-72063030D01*
X47395645Y-72025333D01*
X47383237Y-71984427D01*
X47358420Y-71902618D01*
X47349000Y-71806973D01*
X47349000Y-71193028D01*
X47358420Y-71097383D01*
X47395645Y-70974669D01*
X47395645Y-70974668D01*
X47427957Y-70914218D01*
X47456095Y-70861575D01*
X47537447Y-70762447D01*
X47636574Y-70681095D01*
X47671400Y-70662480D01*
X47749667Y-70620645D01*
X47790573Y-70608237D01*
X47872382Y-70583420D01*
X48000000Y-70570851D01*
X48127617Y-70583420D01*
X48127617Y-70583420D01*
G37*
G36*
X42491242Y-70578404D02*
X42528339Y-70589657D01*
X42562520Y-70607927D01*
X42592482Y-70632518D01*
X42617073Y-70662480D01*
X42635343Y-70696661D01*
X42646596Y-70733758D01*
X42651000Y-70778473D01*
X42651000Y-72221527D01*
X42646596Y-72266242D01*
X42635343Y-72303339D01*
X42617073Y-72337520D01*
X42592482Y-72367482D01*
X42562520Y-72392073D01*
X42528339Y-72410343D01*
X42491242Y-72421596D01*
X42446527Y-72426000D01*
X41553473Y-72426000D01*
X41508758Y-72421596D01*
X41471661Y-72410343D01*
X41437480Y-72392073D01*
X41407518Y-72367482D01*
X41382927Y-72337520D01*
X41364657Y-72303339D01*
X41353404Y-72266242D01*
X41349000Y-72221527D01*
X41349000Y-70778473D01*
X41353404Y-70733758D01*
X41364657Y-70696661D01*
X41382927Y-70662480D01*
X41407518Y-70632518D01*
X41437480Y-70607927D01*
X41471661Y-70589657D01*
X41508758Y-70578404D01*
X41553473Y-70574000D01*
X42446527Y-70574000D01*
X42491242Y-70578404D01*
X42491242Y-70578404D01*
G37*
G36*
X54051000Y-69801000D02*
X51949000Y-69801000D01*
X51949000Y-68699000D01*
X54051000Y-68699000D01*
X54051000Y-69801000D01*
X54051000Y-69801000D01*
G37*
G36*
X46051000Y-69801000D02*
X43949000Y-69801000D01*
X43949000Y-68699000D01*
X46051000Y-68699000D01*
X46051000Y-69801000D01*
X46051000Y-69801000D01*
G37*
G36*
X46051000Y-65301000D02*
X43949000Y-65301000D01*
X43949000Y-64199000D01*
X46051000Y-64199000D01*
X46051000Y-65301000D01*
X46051000Y-65301000D01*
G37*
G36*
X54051000Y-65301000D02*
X51949000Y-65301000D01*
X51949000Y-64199000D01*
X54051000Y-64199000D01*
X54051000Y-65301000D01*
X54051000Y-65301000D01*
G37*
G36*
X42051000Y-64801000D02*
X39949000Y-64801000D01*
X39949000Y-63699000D01*
X42051000Y-63699000D01*
X42051000Y-64801000D01*
X42051000Y-64801000D01*
G37*
G36*
X34051000Y-64801000D02*
X31949000Y-64801000D01*
X31949000Y-63699000D01*
X34051000Y-63699000D01*
X34051000Y-64801000D01*
X34051000Y-64801000D01*
G37*
G36*
X58051000Y-64801000D02*
X55949000Y-64801000D01*
X55949000Y-63699000D01*
X58051000Y-63699000D01*
X58051000Y-64801000D01*
X58051000Y-64801000D01*
G37*
G36*
X66051000Y-64801000D02*
X63949000Y-64801000D01*
X63949000Y-63699000D01*
X66051000Y-63699000D01*
X66051000Y-64801000D01*
X66051000Y-64801000D01*
G37*
G36*
X49127617Y-59583420D02*
X49209426Y-59608237D01*
X49250332Y-59620645D01*
X49272544Y-59632518D01*
X49363425Y-59681095D01*
X49363427Y-59681096D01*
X49363426Y-59681096D01*
X49436965Y-59741447D01*
X49462553Y-59762447D01*
X49543905Y-59861574D01*
X49543906Y-59861576D01*
X49604355Y-59974667D01*
X49616763Y-60015573D01*
X49641580Y-60097382D01*
X49651000Y-60193027D01*
X49651000Y-60806973D01*
X49641580Y-60902618D01*
X49616763Y-60984427D01*
X49604355Y-61025333D01*
X49550819Y-61125491D01*
X49543905Y-61138426D01*
X49462553Y-61237553D01*
X49363426Y-61318905D01*
X49363424Y-61318906D01*
X49250333Y-61379355D01*
X49209427Y-61391763D01*
X49127618Y-61416580D01*
X49000000Y-61429149D01*
X48872383Y-61416580D01*
X48790574Y-61391763D01*
X48749668Y-61379355D01*
X48636577Y-61318906D01*
X48636575Y-61318905D01*
X48537448Y-61237553D01*
X48456095Y-61138426D01*
X48415795Y-61063030D01*
X48395645Y-61025333D01*
X48383237Y-60984427D01*
X48358420Y-60902618D01*
X48349000Y-60806973D01*
X48349000Y-60193028D01*
X48358420Y-60097383D01*
X48395645Y-59974669D01*
X48395645Y-59974668D01*
X48427957Y-59914218D01*
X48456095Y-59861575D01*
X48537447Y-59762447D01*
X48636574Y-59681095D01*
X48671400Y-59662480D01*
X48749667Y-59620645D01*
X48790573Y-59608237D01*
X48872382Y-59583420D01*
X49000000Y-59570851D01*
X49127617Y-59583420D01*
X49127617Y-59583420D01*
G37*
G36*
X47127617Y-59583420D02*
X47209426Y-59608237D01*
X47250332Y-59620645D01*
X47272544Y-59632518D01*
X47363425Y-59681095D01*
X47363427Y-59681096D01*
X47363426Y-59681096D01*
X47436965Y-59741447D01*
X47462553Y-59762447D01*
X47543905Y-59861574D01*
X47543906Y-59861576D01*
X47604355Y-59974667D01*
X47616763Y-60015573D01*
X47641580Y-60097382D01*
X47651000Y-60193027D01*
X47651000Y-60806973D01*
X47641580Y-60902618D01*
X47616763Y-60984427D01*
X47604355Y-61025333D01*
X47550819Y-61125491D01*
X47543905Y-61138426D01*
X47462553Y-61237553D01*
X47363426Y-61318905D01*
X47363424Y-61318906D01*
X47250333Y-61379355D01*
X47209427Y-61391763D01*
X47127618Y-61416580D01*
X47000000Y-61429149D01*
X46872383Y-61416580D01*
X46790574Y-61391763D01*
X46749668Y-61379355D01*
X46636577Y-61318906D01*
X46636575Y-61318905D01*
X46537448Y-61237553D01*
X46456095Y-61138426D01*
X46415795Y-61063030D01*
X46395645Y-61025333D01*
X46383237Y-60984427D01*
X46358420Y-60902618D01*
X46349000Y-60806973D01*
X46349000Y-60193028D01*
X46358420Y-60097383D01*
X46395645Y-59974669D01*
X46395645Y-59974668D01*
X46427957Y-59914218D01*
X46456095Y-59861575D01*
X46537447Y-59762447D01*
X46636574Y-59681095D01*
X46671400Y-59662480D01*
X46749667Y-59620645D01*
X46790573Y-59608237D01*
X46872382Y-59583420D01*
X47000000Y-59570851D01*
X47127617Y-59583420D01*
X47127617Y-59583420D01*
G37*
G36*
X51127617Y-59583420D02*
X51209426Y-59608237D01*
X51250332Y-59620645D01*
X51272544Y-59632518D01*
X51363425Y-59681095D01*
X51363427Y-59681096D01*
X51363426Y-59681096D01*
X51436965Y-59741447D01*
X51462553Y-59762447D01*
X51543905Y-59861574D01*
X51543906Y-59861576D01*
X51604355Y-59974667D01*
X51616763Y-60015573D01*
X51641580Y-60097382D01*
X51651000Y-60193027D01*
X51651000Y-60806973D01*
X51641580Y-60902618D01*
X51616763Y-60984427D01*
X51604355Y-61025333D01*
X51550819Y-61125491D01*
X51543905Y-61138426D01*
X51462553Y-61237553D01*
X51363426Y-61318905D01*
X51363424Y-61318906D01*
X51250333Y-61379355D01*
X51209427Y-61391763D01*
X51127618Y-61416580D01*
X51000000Y-61429149D01*
X50872383Y-61416580D01*
X50790574Y-61391763D01*
X50749668Y-61379355D01*
X50636577Y-61318906D01*
X50636575Y-61318905D01*
X50537448Y-61237553D01*
X50456095Y-61138426D01*
X50415795Y-61063030D01*
X50395645Y-61025333D01*
X50383237Y-60984427D01*
X50358420Y-60902618D01*
X50349000Y-60806973D01*
X50349000Y-60193028D01*
X50358420Y-60097383D01*
X50395645Y-59974669D01*
X50395645Y-59974668D01*
X50427957Y-59914218D01*
X50456095Y-59861575D01*
X50537447Y-59762447D01*
X50636574Y-59681095D01*
X50671400Y-59662480D01*
X50749667Y-59620645D01*
X50790573Y-59608237D01*
X50872382Y-59583420D01*
X51000000Y-59570851D01*
X51127617Y-59583420D01*
X51127617Y-59583420D01*
G37*
G36*
X53127617Y-59583420D02*
X53209426Y-59608237D01*
X53250332Y-59620645D01*
X53272544Y-59632518D01*
X53363425Y-59681095D01*
X53363427Y-59681096D01*
X53363426Y-59681096D01*
X53436965Y-59741447D01*
X53462553Y-59762447D01*
X53543905Y-59861574D01*
X53543906Y-59861576D01*
X53604355Y-59974667D01*
X53616763Y-60015573D01*
X53641580Y-60097382D01*
X53651000Y-60193027D01*
X53651000Y-60806973D01*
X53641580Y-60902618D01*
X53616763Y-60984427D01*
X53604355Y-61025333D01*
X53550819Y-61125491D01*
X53543905Y-61138426D01*
X53462553Y-61237553D01*
X53363426Y-61318905D01*
X53363424Y-61318906D01*
X53250333Y-61379355D01*
X53209427Y-61391763D01*
X53127618Y-61416580D01*
X53000000Y-61429149D01*
X52872383Y-61416580D01*
X52790574Y-61391763D01*
X52749668Y-61379355D01*
X52636577Y-61318906D01*
X52636575Y-61318905D01*
X52537448Y-61237553D01*
X52456095Y-61138426D01*
X52415795Y-61063030D01*
X52395645Y-61025333D01*
X52383237Y-60984427D01*
X52358420Y-60902618D01*
X52349000Y-60806973D01*
X52349000Y-60193028D01*
X52358420Y-60097383D01*
X52395645Y-59974669D01*
X52395645Y-59974668D01*
X52427957Y-59914218D01*
X52456095Y-59861575D01*
X52537447Y-59762447D01*
X52636574Y-59681095D01*
X52671400Y-59662480D01*
X52749667Y-59620645D01*
X52790573Y-59608237D01*
X52872382Y-59583420D01*
X53000000Y-59570851D01*
X53127617Y-59583420D01*
X53127617Y-59583420D01*
G37*
G36*
X45491242Y-59578404D02*
X45528339Y-59589657D01*
X45562520Y-59607927D01*
X45592482Y-59632518D01*
X45617073Y-59662480D01*
X45635343Y-59696661D01*
X45646596Y-59733758D01*
X45651000Y-59778473D01*
X45651000Y-61221527D01*
X45646596Y-61266242D01*
X45635343Y-61303339D01*
X45617073Y-61337520D01*
X45592482Y-61367482D01*
X45562520Y-61392073D01*
X45528339Y-61410343D01*
X45491242Y-61421596D01*
X45446527Y-61426000D01*
X44553473Y-61426000D01*
X44508758Y-61421596D01*
X44471661Y-61410343D01*
X44437480Y-61392073D01*
X44407518Y-61367482D01*
X44382927Y-61337520D01*
X44364657Y-61303339D01*
X44353404Y-61266242D01*
X44349000Y-61221527D01*
X44349000Y-59778473D01*
X44353404Y-59733758D01*
X44364657Y-59696661D01*
X44382927Y-59662480D01*
X44407518Y-59632518D01*
X44437480Y-59607927D01*
X44471661Y-59589657D01*
X44508758Y-59578404D01*
X44553473Y-59574000D01*
X45446527Y-59574000D01*
X45491242Y-59578404D01*
X45491242Y-59578404D01*
G37*
G36*
X66051000Y-60301000D02*
X63949000Y-60301000D01*
X63949000Y-59199000D01*
X66051000Y-59199000D01*
X66051000Y-60301000D01*
X66051000Y-60301000D01*
G37*
G36*
X58051000Y-60301000D02*
X55949000Y-60301000D01*
X55949000Y-59199000D01*
X58051000Y-59199000D01*
X58051000Y-60301000D01*
X58051000Y-60301000D01*
G37*
G36*
X34051000Y-60301000D02*
X31949000Y-60301000D01*
X31949000Y-59199000D01*
X34051000Y-59199000D01*
X34051000Y-60301000D01*
X34051000Y-60301000D01*
G37*
G36*
X42051000Y-60301000D02*
X39949000Y-60301000D01*
X39949000Y-59199000D01*
X42051000Y-59199000D01*
X42051000Y-60301000D01*
X42051000Y-60301000D01*
G37*
G36*
X32335734Y-30893232D02*
X32545202Y-30979996D01*
X32733723Y-31105962D01*
X32894038Y-31266277D01*
X33020004Y-31454798D01*
X33106768Y-31664266D01*
X33151000Y-31886635D01*
X33151000Y-32113365D01*
X33106768Y-32335734D01*
X33020004Y-32545202D01*
X32894038Y-32733723D01*
X32733723Y-32894038D01*
X32545202Y-33020004D01*
X32335734Y-33106768D01*
X32113365Y-33151000D01*
X31886635Y-33151000D01*
X31664266Y-33106768D01*
X31454798Y-33020004D01*
X31266277Y-32894038D01*
X31105962Y-32733723D01*
X30979996Y-32545202D01*
X30893232Y-32335734D01*
X30849000Y-32113365D01*
X30849000Y-31886635D01*
X30893232Y-31664266D01*
X30979996Y-31454798D01*
X31105962Y-31266277D01*
X31266277Y-31105962D01*
X31454798Y-30979996D01*
X31664266Y-30893232D01*
X31886635Y-30849000D01*
X32113365Y-30849000D01*
X32335734Y-30893232D01*
X32335734Y-30893232D01*
G37*
G36*
X66335734Y-30893232D02*
X66545202Y-30979996D01*
X66733723Y-31105962D01*
X66894038Y-31266277D01*
X67020004Y-31454798D01*
X67106768Y-31664266D01*
X67151000Y-31886635D01*
X67151000Y-32113365D01*
X67106768Y-32335734D01*
X67020004Y-32545202D01*
X66894038Y-32733723D01*
X66733723Y-32894038D01*
X66545202Y-33020004D01*
X66335734Y-33106768D01*
X66113365Y-33151000D01*
X65886635Y-33151000D01*
X65664266Y-33106768D01*
X65454798Y-33020004D01*
X65266277Y-32894038D01*
X65105962Y-32733723D01*
X64979996Y-32545202D01*
X64893232Y-32335734D01*
X64849000Y-32113365D01*
X64849000Y-31886635D01*
X64893232Y-31664266D01*
X64979996Y-31454798D01*
X65105962Y-31266277D01*
X65266277Y-31105962D01*
X65454798Y-30979996D01*
X65664266Y-30893232D01*
X65886635Y-30849000D01*
X66113365Y-30849000D01*
X66335734Y-30893232D01*
X66335734Y-30893232D01*
G37*
M02*
