G04 #@! TF.GenerationSoftware,KiCad,Pcbnew,(5.0.2)-1*
G04 #@! TF.CreationDate,2019-03-24T20:45:22+01:00*
G04 #@! TF.ProjectId,TaggerKeypadDisplay,54616767-6572-44b6-9579-706164446973,rev?*
G04 #@! TF.SameCoordinates,Original*
G04 #@! TF.FileFunction,Legend,Top*
G04 #@! TF.FilePolarity,Positive*
%FSLAX46Y46*%
G04 Gerber Fmt 4.6, Leading zero omitted, Abs format (unit mm)*
G04 Created by KiCad (PCBNEW (5.0.2)-1) date 24.03.2019 20:45:22*
%MOMM*%
%LPD*%
G01*
G04 APERTURE LIST*
%ADD10C,0.100000*%
%ADD11C,0.200000*%
%ADD12C,0.010000*%
%ADD13C,0.120000*%
%ADD14C,0.140000*%
%ADD15C,0.150000*%
%ADD16C,0.050000*%
G04 APERTURE END LIST*
D10*
X44303095Y-85852380D02*
X44303095Y-84852380D01*
X44874523Y-85852380D02*
X44445952Y-85280952D01*
X44874523Y-84852380D02*
X44303095Y-85423809D01*
X45684047Y-85804761D02*
X45588809Y-85852380D01*
X45398333Y-85852380D01*
X45303095Y-85804761D01*
X45255476Y-85709523D01*
X45255476Y-85328571D01*
X45303095Y-85233333D01*
X45398333Y-85185714D01*
X45588809Y-85185714D01*
X45684047Y-85233333D01*
X45731666Y-85328571D01*
X45731666Y-85423809D01*
X45255476Y-85519047D01*
X46065000Y-85185714D02*
X46303095Y-85852380D01*
X46541190Y-85185714D02*
X46303095Y-85852380D01*
X46207857Y-86090476D01*
X46160238Y-86138095D01*
X46065000Y-86185714D01*
X46922142Y-85185714D02*
X46922142Y-86185714D01*
X46922142Y-85233333D02*
X47017380Y-85185714D01*
X47207857Y-85185714D01*
X47303095Y-85233333D01*
X47350714Y-85280952D01*
X47398333Y-85376190D01*
X47398333Y-85661904D01*
X47350714Y-85757142D01*
X47303095Y-85804761D01*
X47207857Y-85852380D01*
X47017380Y-85852380D01*
X46922142Y-85804761D01*
X48255476Y-85852380D02*
X48255476Y-85328571D01*
X48207857Y-85233333D01*
X48112619Y-85185714D01*
X47922142Y-85185714D01*
X47826904Y-85233333D01*
X48255476Y-85804761D02*
X48160238Y-85852380D01*
X47922142Y-85852380D01*
X47826904Y-85804761D01*
X47779285Y-85709523D01*
X47779285Y-85614285D01*
X47826904Y-85519047D01*
X47922142Y-85471428D01*
X48160238Y-85471428D01*
X48255476Y-85423809D01*
X49160238Y-85852380D02*
X49160238Y-84852380D01*
X49160238Y-85804761D02*
X49065000Y-85852380D01*
X48874523Y-85852380D01*
X48779285Y-85804761D01*
X48731666Y-85757142D01*
X48684047Y-85661904D01*
X48684047Y-85376190D01*
X48731666Y-85280952D01*
X48779285Y-85233333D01*
X48874523Y-85185714D01*
X49065000Y-85185714D01*
X49160238Y-85233333D01*
X50255476Y-84852380D02*
X50588809Y-85852380D01*
X50922142Y-84852380D01*
X51207857Y-84947619D02*
X51255476Y-84900000D01*
X51350714Y-84852380D01*
X51588809Y-84852380D01*
X51684047Y-84900000D01*
X51731666Y-84947619D01*
X51779285Y-85042857D01*
X51779285Y-85138095D01*
X51731666Y-85280952D01*
X51160238Y-85852380D01*
X51779285Y-85852380D01*
X52922142Y-84804761D02*
X52065000Y-86090476D01*
X53445952Y-84852380D02*
X53541190Y-84852380D01*
X53636428Y-84900000D01*
X53684047Y-84947619D01*
X53731666Y-85042857D01*
X53779285Y-85233333D01*
X53779285Y-85471428D01*
X53731666Y-85661904D01*
X53684047Y-85757142D01*
X53636428Y-85804761D01*
X53541190Y-85852380D01*
X53445952Y-85852380D01*
X53350714Y-85804761D01*
X53303095Y-85757142D01*
X53255476Y-85661904D01*
X53207857Y-85471428D01*
X53207857Y-85233333D01*
X53255476Y-85042857D01*
X53303095Y-84947619D01*
X53350714Y-84900000D01*
X53445952Y-84852380D01*
X54112619Y-84852380D02*
X54731666Y-84852380D01*
X54398333Y-85233333D01*
X54541190Y-85233333D01*
X54636428Y-85280952D01*
X54684047Y-85328571D01*
X54731666Y-85423809D01*
X54731666Y-85661904D01*
X54684047Y-85757142D01*
X54636428Y-85804761D01*
X54541190Y-85852380D01*
X54255476Y-85852380D01*
X54160238Y-85804761D01*
X54112619Y-85757142D01*
X55160238Y-85757142D02*
X55207857Y-85804761D01*
X55160238Y-85852380D01*
X55112619Y-85804761D01*
X55160238Y-85757142D01*
X55160238Y-85852380D01*
X56160238Y-85852380D02*
X55588809Y-85852380D01*
X55874523Y-85852380D02*
X55874523Y-84852380D01*
X55779285Y-84995238D01*
X55684047Y-85090476D01*
X55588809Y-85138095D01*
X56636428Y-85852380D02*
X56826904Y-85852380D01*
X56922142Y-85804761D01*
X56969761Y-85757142D01*
X57065000Y-85614285D01*
X57112619Y-85423809D01*
X57112619Y-85042857D01*
X57065000Y-84947619D01*
X57017380Y-84900000D01*
X56922142Y-84852380D01*
X56731666Y-84852380D01*
X56636428Y-84900000D01*
X56588809Y-84947619D01*
X56541190Y-85042857D01*
X56541190Y-85280952D01*
X56588809Y-85376190D01*
X56636428Y-85423809D01*
X56731666Y-85471428D01*
X56922142Y-85471428D01*
X57017380Y-85423809D01*
X57065000Y-85376190D01*
X57112619Y-85280952D01*
X58255476Y-84804761D02*
X57398333Y-86090476D01*
X59112619Y-85852380D02*
X58541190Y-85852380D01*
X58826904Y-85852380D02*
X58826904Y-84852380D01*
X58731666Y-84995238D01*
X58636428Y-85090476D01*
X58541190Y-85138095D01*
X59731666Y-84852380D02*
X59826904Y-84852380D01*
X59922142Y-84900000D01*
X59969761Y-84947619D01*
X60017380Y-85042857D01*
X60064999Y-85233333D01*
X60064999Y-85471428D01*
X60017380Y-85661904D01*
X59969761Y-85757142D01*
X59922142Y-85804761D01*
X59826904Y-85852380D01*
X59731666Y-85852380D01*
X59636428Y-85804761D01*
X59588809Y-85757142D01*
X59541190Y-85661904D01*
X59493571Y-85471428D01*
X59493571Y-85233333D01*
X59541190Y-85042857D01*
X59588809Y-84947619D01*
X59636428Y-84900000D01*
X59731666Y-84852380D01*
X44207857Y-86785714D02*
X44398333Y-87452380D01*
X44588809Y-86976190D01*
X44779285Y-87452380D01*
X44969761Y-86785714D01*
X45255476Y-86785714D02*
X45445952Y-87452380D01*
X45636428Y-86976190D01*
X45826904Y-87452380D01*
X46017380Y-86785714D01*
X46303095Y-86785714D02*
X46493571Y-87452380D01*
X46684047Y-86976190D01*
X46874523Y-87452380D01*
X47065000Y-86785714D01*
X47445952Y-87357142D02*
X47493571Y-87404761D01*
X47445952Y-87452380D01*
X47398333Y-87404761D01*
X47445952Y-87357142D01*
X47445952Y-87452380D01*
X47922142Y-87452380D02*
X47922142Y-86785714D01*
X47922142Y-86452380D02*
X47874523Y-86500000D01*
X47922142Y-86547619D01*
X47969761Y-86500000D01*
X47922142Y-86452380D01*
X47922142Y-86547619D01*
X48398333Y-86785714D02*
X48398333Y-87452380D01*
X48398333Y-86880952D02*
X48445952Y-86833333D01*
X48541190Y-86785714D01*
X48684047Y-86785714D01*
X48779285Y-86833333D01*
X48826904Y-86928571D01*
X48826904Y-87452380D01*
X49160238Y-86785714D02*
X49541190Y-86785714D01*
X49303095Y-87452380D02*
X49303095Y-86595238D01*
X49350714Y-86500000D01*
X49445952Y-86452380D01*
X49541190Y-86452380D01*
X49874523Y-87452380D02*
X49874523Y-86785714D01*
X49874523Y-86452380D02*
X49826904Y-86500000D01*
X49874523Y-86547619D01*
X49922142Y-86500000D01*
X49874523Y-86452380D01*
X49874523Y-86547619D01*
X50350714Y-86785714D02*
X50350714Y-87452380D01*
X50350714Y-86880952D02*
X50398333Y-86833333D01*
X50493571Y-86785714D01*
X50636428Y-86785714D01*
X50731666Y-86833333D01*
X50779285Y-86928571D01*
X50779285Y-87452380D01*
X51255476Y-87452380D02*
X51255476Y-86785714D01*
X51255476Y-86452380D02*
X51207857Y-86500000D01*
X51255476Y-86547619D01*
X51303095Y-86500000D01*
X51255476Y-86452380D01*
X51255476Y-86547619D01*
X51588809Y-86785714D02*
X51969761Y-86785714D01*
X51731666Y-86452380D02*
X51731666Y-87309523D01*
X51779285Y-87404761D01*
X51874523Y-87452380D01*
X51969761Y-87452380D01*
X52731666Y-87452380D02*
X52731666Y-86928571D01*
X52684047Y-86833333D01*
X52588809Y-86785714D01*
X52398333Y-86785714D01*
X52303095Y-86833333D01*
X52731666Y-87404761D02*
X52636428Y-87452380D01*
X52398333Y-87452380D01*
X52303095Y-87404761D01*
X52255476Y-87309523D01*
X52255476Y-87214285D01*
X52303095Y-87119047D01*
X52398333Y-87071428D01*
X52636428Y-87071428D01*
X52731666Y-87023809D01*
X53636428Y-86785714D02*
X53636428Y-87595238D01*
X53588809Y-87690476D01*
X53541190Y-87738095D01*
X53445952Y-87785714D01*
X53303095Y-87785714D01*
X53207857Y-87738095D01*
X53636428Y-87404761D02*
X53541190Y-87452380D01*
X53350714Y-87452380D01*
X53255476Y-87404761D01*
X53207857Y-87357142D01*
X53160238Y-87261904D01*
X53160238Y-86976190D01*
X53207857Y-86880952D01*
X53255476Y-86833333D01*
X53350714Y-86785714D01*
X53541190Y-86785714D01*
X53636428Y-86833333D01*
X54112619Y-87357142D02*
X54160238Y-87404761D01*
X54112619Y-87452380D01*
X54065000Y-87404761D01*
X54112619Y-87357142D01*
X54112619Y-87452380D01*
X54588809Y-87452380D02*
X54588809Y-86785714D01*
X54588809Y-86452380D02*
X54541190Y-86500000D01*
X54588809Y-86547619D01*
X54636428Y-86500000D01*
X54588809Y-86452380D01*
X54588809Y-86547619D01*
X55207857Y-87452380D02*
X55112619Y-87404761D01*
X55065000Y-87357142D01*
X55017380Y-87261904D01*
X55017380Y-86976190D01*
X55065000Y-86880952D01*
X55112619Y-86833333D01*
X55207857Y-86785714D01*
X55350714Y-86785714D01*
X55445952Y-86833333D01*
X55493571Y-86880952D01*
X55541190Y-86976190D01*
X55541190Y-87261904D01*
X55493571Y-87357142D01*
X55445952Y-87404761D01*
X55350714Y-87452380D01*
X55207857Y-87452380D01*
D11*
X43244285Y-84578571D02*
X43244285Y-82435714D01*
X44315714Y-84078571D02*
X44315714Y-82578571D01*
X45030000Y-84078571D02*
X45030000Y-82578571D01*
X45887142Y-84078571D01*
X45887142Y-82578571D01*
X47101428Y-83292857D02*
X46601428Y-83292857D01*
X46601428Y-84078571D02*
X46601428Y-82578571D01*
X47315714Y-82578571D01*
X47887142Y-84078571D02*
X47887142Y-82578571D01*
X48601428Y-84078571D02*
X48601428Y-82578571D01*
X49458571Y-84078571D01*
X49458571Y-82578571D01*
X50172857Y-84078571D02*
X50172857Y-82578571D01*
X50672857Y-82578571D02*
X51530000Y-82578571D01*
X51101428Y-84078571D02*
X51101428Y-82578571D01*
X51958571Y-83650000D02*
X52672857Y-83650000D01*
X51815714Y-84078571D02*
X52315714Y-82578571D01*
X52815714Y-84078571D01*
X54101428Y-82650000D02*
X53958571Y-82578571D01*
X53744285Y-82578571D01*
X53530000Y-82650000D01*
X53387142Y-82792857D01*
X53315714Y-82935714D01*
X53244285Y-83221428D01*
X53244285Y-83435714D01*
X53315714Y-83721428D01*
X53387142Y-83864285D01*
X53530000Y-84007142D01*
X53744285Y-84078571D01*
X53887142Y-84078571D01*
X54101428Y-84007142D01*
X54172857Y-83935714D01*
X54172857Y-83435714D01*
X53887142Y-83435714D01*
X30000000Y-89000000D02*
X30000000Y-62000000D01*
X49000000Y-89000000D02*
X30000000Y-89000000D01*
X68000000Y-89000000D02*
X49000000Y-89000000D01*
X68000000Y-63000000D02*
X68000000Y-89000000D01*
X30000000Y-35000000D02*
X30000000Y-62000000D01*
X68000000Y-36000000D02*
X68000000Y-63000000D01*
X42000000Y-34000000D02*
X42000000Y-33000000D01*
X56000000Y-34000000D02*
X42000000Y-34000000D01*
X56000000Y-30000000D02*
X56000000Y-34000000D01*
X42000000Y-30000000D02*
X30000000Y-30000000D01*
X68000000Y-30000000D02*
X56000000Y-30000000D01*
X56000000Y-33000000D02*
X56000000Y-30000000D01*
X42000000Y-30000000D02*
X42000000Y-33000000D01*
X30000000Y-30000000D02*
X30000000Y-35000000D01*
X68000000Y-30000000D02*
X68000000Y-36000000D01*
D12*
G04 #@! TO.C,G\002A\002A\002A*
G36*
X39492594Y-82698829D02*
X39662514Y-83016858D01*
X39564688Y-83207543D01*
X39466861Y-83398227D01*
X39276536Y-83067313D01*
X39086211Y-82736400D01*
X38137312Y-82736400D01*
X37901856Y-83141632D01*
X37798269Y-83325487D01*
X37717916Y-83478715D01*
X37672433Y-83578608D01*
X37666400Y-83601199D01*
X37690428Y-83666815D01*
X37754778Y-83796942D01*
X37847850Y-83968765D01*
X37899446Y-84059566D01*
X38132492Y-84463600D01*
X39114200Y-84461292D01*
X39190400Y-84312677D01*
X39238679Y-84223440D01*
X39328352Y-84062272D01*
X39450293Y-83845392D01*
X39595380Y-83589021D01*
X39754489Y-83309377D01*
X39774600Y-83274135D01*
X40282600Y-82384208D01*
X41705000Y-82383666D01*
X42049661Y-82994813D01*
X42394323Y-83605961D01*
X42049661Y-84212146D01*
X41705000Y-84818331D01*
X40993800Y-84818697D01*
X40282600Y-84819064D01*
X39936176Y-84176540D01*
X40031441Y-84015270D01*
X40113919Y-83898907D01*
X40176297Y-83853969D01*
X40205629Y-83888687D01*
X40206400Y-83904036D01*
X40231318Y-83971519D01*
X40295800Y-84094482D01*
X40363157Y-84208836D01*
X40519914Y-84463600D01*
X41472940Y-84463600D01*
X41702352Y-84069900D01*
X41804844Y-83885604D01*
X41883310Y-83728478D01*
X41925842Y-83623091D01*
X41930122Y-83600000D01*
X41905120Y-83523308D01*
X41839898Y-83384898D01*
X41746707Y-83210048D01*
X41708526Y-83142800D01*
X41488573Y-82761800D01*
X41005889Y-82747332D01*
X40523206Y-82732865D01*
X40073458Y-83509332D01*
X39920374Y-83773460D01*
X39778880Y-84017286D01*
X39659388Y-84222893D01*
X39572307Y-84372366D01*
X39533735Y-84438200D01*
X39452416Y-84580394D01*
X39385125Y-84704900D01*
X39357485Y-84750032D01*
X39317492Y-84781382D01*
X39248196Y-84801443D01*
X39132647Y-84812707D01*
X38953895Y-84817669D01*
X38694990Y-84818821D01*
X38610745Y-84818803D01*
X38327772Y-84817930D01*
X38129520Y-84814008D01*
X37999112Y-84804537D01*
X37919670Y-84787016D01*
X37874319Y-84758942D01*
X37846179Y-84717815D01*
X37839516Y-84704503D01*
X37791896Y-84615244D01*
X37705840Y-84461596D01*
X37594447Y-84266727D01*
X37494767Y-84094791D01*
X37205502Y-83598982D01*
X37435951Y-83219355D01*
X37539334Y-83046122D01*
X37618715Y-82907540D01*
X37661945Y-82825062D01*
X37666400Y-82812375D01*
X37692075Y-82757510D01*
X37757277Y-82649146D01*
X37800150Y-82582910D01*
X37933901Y-82380800D01*
X38628287Y-82380800D01*
X39322674Y-82380799D01*
X39492594Y-82698829D01*
X39492594Y-82698829D01*
G37*
X39492594Y-82698829D02*
X39662514Y-83016858D01*
X39564688Y-83207543D01*
X39466861Y-83398227D01*
X39276536Y-83067313D01*
X39086211Y-82736400D01*
X38137312Y-82736400D01*
X37901856Y-83141632D01*
X37798269Y-83325487D01*
X37717916Y-83478715D01*
X37672433Y-83578608D01*
X37666400Y-83601199D01*
X37690428Y-83666815D01*
X37754778Y-83796942D01*
X37847850Y-83968765D01*
X37899446Y-84059566D01*
X38132492Y-84463600D01*
X39114200Y-84461292D01*
X39190400Y-84312677D01*
X39238679Y-84223440D01*
X39328352Y-84062272D01*
X39450293Y-83845392D01*
X39595380Y-83589021D01*
X39754489Y-83309377D01*
X39774600Y-83274135D01*
X40282600Y-82384208D01*
X41705000Y-82383666D01*
X42049661Y-82994813D01*
X42394323Y-83605961D01*
X42049661Y-84212146D01*
X41705000Y-84818331D01*
X40993800Y-84818697D01*
X40282600Y-84819064D01*
X39936176Y-84176540D01*
X40031441Y-84015270D01*
X40113919Y-83898907D01*
X40176297Y-83853969D01*
X40205629Y-83888687D01*
X40206400Y-83904036D01*
X40231318Y-83971519D01*
X40295800Y-84094482D01*
X40363157Y-84208836D01*
X40519914Y-84463600D01*
X41472940Y-84463600D01*
X41702352Y-84069900D01*
X41804844Y-83885604D01*
X41883310Y-83728478D01*
X41925842Y-83623091D01*
X41930122Y-83600000D01*
X41905120Y-83523308D01*
X41839898Y-83384898D01*
X41746707Y-83210048D01*
X41708526Y-83142800D01*
X41488573Y-82761800D01*
X41005889Y-82747332D01*
X40523206Y-82732865D01*
X40073458Y-83509332D01*
X39920374Y-83773460D01*
X39778880Y-84017286D01*
X39659388Y-84222893D01*
X39572307Y-84372366D01*
X39533735Y-84438200D01*
X39452416Y-84580394D01*
X39385125Y-84704900D01*
X39357485Y-84750032D01*
X39317492Y-84781382D01*
X39248196Y-84801443D01*
X39132647Y-84812707D01*
X38953895Y-84817669D01*
X38694990Y-84818821D01*
X38610745Y-84818803D01*
X38327772Y-84817930D01*
X38129520Y-84814008D01*
X37999112Y-84804537D01*
X37919670Y-84787016D01*
X37874319Y-84758942D01*
X37846179Y-84717815D01*
X37839516Y-84704503D01*
X37791896Y-84615244D01*
X37705840Y-84461596D01*
X37594447Y-84266727D01*
X37494767Y-84094791D01*
X37205502Y-83598982D01*
X37435951Y-83219355D01*
X37539334Y-83046122D01*
X37618715Y-82907540D01*
X37661945Y-82825062D01*
X37666400Y-82812375D01*
X37692075Y-82757510D01*
X37757277Y-82649146D01*
X37800150Y-82582910D01*
X37933901Y-82380800D01*
X38628287Y-82380800D01*
X39322674Y-82380799D01*
X39492594Y-82698829D01*
D13*
G04 #@! TO.C,C1*
X62960000Y-51008578D02*
X62960000Y-50491422D01*
X61540000Y-51008578D02*
X61540000Y-50491422D01*
G04 #@! TO.C,C2*
X60991422Y-57790000D02*
X61508578Y-57790000D01*
X60991422Y-59210000D02*
X61508578Y-59210000D01*
G04 #@! TO.C,C3*
X38741422Y-48710000D02*
X39258578Y-48710000D01*
X38741422Y-47290000D02*
X39258578Y-47290000D01*
G04 #@! TO.C,C4*
X42741422Y-47290000D02*
X43258578Y-47290000D01*
X42741422Y-48710000D02*
X43258578Y-48710000D01*
G04 #@! TO.C,C5*
X46741422Y-48710000D02*
X47258578Y-48710000D01*
X46741422Y-47290000D02*
X47258578Y-47290000D01*
G04 #@! TO.C,C6*
X50741422Y-47290000D02*
X51258578Y-47290000D01*
X50741422Y-48710000D02*
X51258578Y-48710000D01*
G04 #@! TO.C,C7*
X54741422Y-48710000D02*
X55258578Y-48710000D01*
X54741422Y-47290000D02*
X55258578Y-47290000D01*
G04 #@! TO.C,C8*
X58741422Y-47290000D02*
X59258578Y-47290000D01*
X58741422Y-48710000D02*
X59258578Y-48710000D01*
G04 #@! TO.C,J1*
X39940000Y-69690000D02*
X39940000Y-74410000D01*
X39940000Y-74410000D02*
X58060000Y-74410000D01*
X58060000Y-74410000D02*
X58060000Y-69690000D01*
X58060000Y-69690000D02*
X39940000Y-69690000D01*
X41700000Y-69690000D02*
X41700000Y-69490000D01*
X41700000Y-69490000D02*
X41400000Y-69490000D01*
X41400000Y-69490000D02*
X41400000Y-69690000D01*
X41700000Y-69590000D02*
X41400000Y-69590000D01*
X42500000Y-69690000D02*
X42500000Y-70300000D01*
X42500000Y-70300000D02*
X40550000Y-70300000D01*
X40550000Y-70300000D02*
X40550000Y-73800000D01*
X40550000Y-73800000D02*
X57450000Y-73800000D01*
X57450000Y-73800000D02*
X57450000Y-70300000D01*
X57450000Y-70300000D02*
X55500000Y-70300000D01*
X55500000Y-70300000D02*
X55500000Y-69690000D01*
X39940000Y-71000000D02*
X40550000Y-71000000D01*
X39940000Y-72300000D02*
X40550000Y-72300000D01*
X58060000Y-71000000D02*
X57450000Y-71000000D01*
X58060000Y-72300000D02*
X57450000Y-72300000D01*
X42900000Y-73800000D02*
X42900000Y-73300000D01*
X42900000Y-73300000D02*
X43100000Y-73300000D01*
X43100000Y-73300000D02*
X43100000Y-73800000D01*
X43000000Y-73800000D02*
X43000000Y-73300000D01*
X44900000Y-73800000D02*
X44900000Y-73300000D01*
X44900000Y-73300000D02*
X45100000Y-73300000D01*
X45100000Y-73300000D02*
X45100000Y-73800000D01*
X45000000Y-73800000D02*
X45000000Y-73300000D01*
X46900000Y-73800000D02*
X46900000Y-73300000D01*
X46900000Y-73300000D02*
X47100000Y-73300000D01*
X47100000Y-73300000D02*
X47100000Y-73800000D01*
X47000000Y-73800000D02*
X47000000Y-73300000D01*
X48900000Y-73800000D02*
X48900000Y-73300000D01*
X48900000Y-73300000D02*
X49100000Y-73300000D01*
X49100000Y-73300000D02*
X49100000Y-73800000D01*
X49000000Y-73800000D02*
X49000000Y-73300000D01*
X50900000Y-73800000D02*
X50900000Y-73300000D01*
X50900000Y-73300000D02*
X51100000Y-73300000D01*
X51100000Y-73300000D02*
X51100000Y-73800000D01*
X51000000Y-73800000D02*
X51000000Y-73300000D01*
X52900000Y-73800000D02*
X52900000Y-73300000D01*
X52900000Y-73300000D02*
X53100000Y-73300000D01*
X53100000Y-73300000D02*
X53100000Y-73800000D01*
X53000000Y-73800000D02*
X53000000Y-73300000D01*
X54900000Y-73800000D02*
X54900000Y-73300000D01*
X54900000Y-73300000D02*
X55100000Y-73300000D01*
X55100000Y-73300000D02*
X55100000Y-73800000D01*
X55000000Y-73800000D02*
X55000000Y-73300000D01*
X40890000Y-69390000D02*
X39640000Y-69390000D01*
X39640000Y-69390000D02*
X39640000Y-70640000D01*
G04 #@! TO.C,J2*
X42940000Y-58690000D02*
X42940000Y-63410000D01*
X42940000Y-63410000D02*
X55060000Y-63410000D01*
X55060000Y-63410000D02*
X55060000Y-58690000D01*
X55060000Y-58690000D02*
X42940000Y-58690000D01*
X44700000Y-58690000D02*
X44700000Y-58490000D01*
X44700000Y-58490000D02*
X44400000Y-58490000D01*
X44400000Y-58490000D02*
X44400000Y-58690000D01*
X44700000Y-58590000D02*
X44400000Y-58590000D01*
X45500000Y-58690000D02*
X45500000Y-59300000D01*
X45500000Y-59300000D02*
X43550000Y-59300000D01*
X43550000Y-59300000D02*
X43550000Y-62800000D01*
X43550000Y-62800000D02*
X54450000Y-62800000D01*
X54450000Y-62800000D02*
X54450000Y-59300000D01*
X54450000Y-59300000D02*
X52500000Y-59300000D01*
X52500000Y-59300000D02*
X52500000Y-58690000D01*
X42940000Y-60000000D02*
X43550000Y-60000000D01*
X42940000Y-61300000D02*
X43550000Y-61300000D01*
X55060000Y-60000000D02*
X54450000Y-60000000D01*
X55060000Y-61300000D02*
X54450000Y-61300000D01*
X45900000Y-62800000D02*
X45900000Y-62300000D01*
X45900000Y-62300000D02*
X46100000Y-62300000D01*
X46100000Y-62300000D02*
X46100000Y-62800000D01*
X46000000Y-62800000D02*
X46000000Y-62300000D01*
X47900000Y-62800000D02*
X47900000Y-62300000D01*
X47900000Y-62300000D02*
X48100000Y-62300000D01*
X48100000Y-62300000D02*
X48100000Y-62800000D01*
X48000000Y-62800000D02*
X48000000Y-62300000D01*
X49900000Y-62800000D02*
X49900000Y-62300000D01*
X49900000Y-62300000D02*
X50100000Y-62300000D01*
X50100000Y-62300000D02*
X50100000Y-62800000D01*
X50000000Y-62800000D02*
X50000000Y-62300000D01*
X51900000Y-62800000D02*
X51900000Y-62300000D01*
X51900000Y-62300000D02*
X52100000Y-62300000D01*
X52100000Y-62300000D02*
X52100000Y-62800000D01*
X52000000Y-62800000D02*
X52000000Y-62300000D01*
X43890000Y-58390000D02*
X42640000Y-58390000D01*
X42640000Y-58390000D02*
X42640000Y-59640000D01*
G04 #@! TO.C,JP1*
X59850000Y-69500000D02*
X59850000Y-67500000D01*
X62650000Y-69500000D02*
X59850000Y-69500000D01*
X62650000Y-67500000D02*
X62650000Y-69500000D01*
X59850000Y-67500000D02*
X62650000Y-67500000D01*
G04 #@! TO.C,JP2*
X63250000Y-45600000D02*
X63250000Y-48400000D01*
X63250000Y-48400000D02*
X61250000Y-48400000D01*
X61250000Y-48400000D02*
X61250000Y-45600000D01*
X61250000Y-45600000D02*
X63250000Y-45600000D01*
G04 #@! TO.C,Q1*
X45420000Y-57010000D02*
X46350000Y-57010000D01*
X48580000Y-57010000D02*
X47650000Y-57010000D01*
X48580000Y-57010000D02*
X48580000Y-54850000D01*
X45420000Y-57010000D02*
X45420000Y-55550000D01*
G04 #@! TO.C,Q2*
X41420000Y-57010000D02*
X41420000Y-55550000D01*
X44580000Y-57010000D02*
X44580000Y-54850000D01*
X44580000Y-57010000D02*
X43650000Y-57010000D01*
X41420000Y-57010000D02*
X42350000Y-57010000D01*
G04 #@! TO.C,RN1*
X50680000Y-76500000D02*
X50680000Y-75500000D01*
X47320000Y-76500000D02*
X47320000Y-75500000D01*
G04 #@! TO.C,RN2*
X54070000Y-76500000D02*
X54070000Y-75500000D01*
X57430000Y-76500000D02*
X57430000Y-75500000D01*
G04 #@! TO.C,RN3*
X41570000Y-51500000D02*
X41570000Y-52500000D01*
X44930000Y-51500000D02*
X44930000Y-52500000D01*
G04 #@! TO.C,RN4*
X55930000Y-51500000D02*
X55930000Y-52500000D01*
X52570000Y-51500000D02*
X52570000Y-52500000D01*
D14*
G04 #@! TO.C,U1*
X62470000Y-56100000D02*
G75*
G03X62470000Y-56100000I-70000J0D01*
G01*
D13*
G04 #@! TO.C,D1*
X54290000Y-55250000D02*
X54290000Y-57935000D01*
X54290000Y-57935000D02*
X56210000Y-57935000D01*
X56210000Y-57935000D02*
X56210000Y-55250000D01*
G04 #@! TO.C,D2*
X51210000Y-57935000D02*
X51210000Y-55250000D01*
X49290000Y-57935000D02*
X51210000Y-57935000D01*
X49290000Y-55250000D02*
X49290000Y-57935000D01*
G04 #@! TO.C,D3*
X51790000Y-55250000D02*
X51790000Y-57935000D01*
X51790000Y-57935000D02*
X53710000Y-57935000D01*
X53710000Y-57935000D02*
X53710000Y-55250000D01*
G04 #@! TO.C,C1*
D15*
X64033333Y-51107142D02*
X63985714Y-51154761D01*
X63842857Y-51202380D01*
X63747619Y-51202380D01*
X63604761Y-51154761D01*
X63509523Y-51059523D01*
X63461904Y-50964285D01*
X63414285Y-50773809D01*
X63414285Y-50630952D01*
X63461904Y-50440476D01*
X63509523Y-50345238D01*
X63604761Y-50250000D01*
X63747619Y-50202380D01*
X63842857Y-50202380D01*
X63985714Y-50250000D01*
X64033333Y-50297619D01*
X64985714Y-51202380D02*
X64414285Y-51202380D01*
X64700000Y-51202380D02*
X64700000Y-50202380D01*
X64604761Y-50345238D01*
X64509523Y-50440476D01*
X64414285Y-50488095D01*
G04 #@! TO.C,C2*
X63833333Y-58957142D02*
X63785714Y-59004761D01*
X63642857Y-59052380D01*
X63547619Y-59052380D01*
X63404761Y-59004761D01*
X63309523Y-58909523D01*
X63261904Y-58814285D01*
X63214285Y-58623809D01*
X63214285Y-58480952D01*
X63261904Y-58290476D01*
X63309523Y-58195238D01*
X63404761Y-58100000D01*
X63547619Y-58052380D01*
X63642857Y-58052380D01*
X63785714Y-58100000D01*
X63833333Y-58147619D01*
X64214285Y-58147619D02*
X64261904Y-58100000D01*
X64357142Y-58052380D01*
X64595238Y-58052380D01*
X64690476Y-58100000D01*
X64738095Y-58147619D01*
X64785714Y-58242857D01*
X64785714Y-58338095D01*
X64738095Y-58480952D01*
X64166666Y-59052380D01*
X64785714Y-59052380D01*
G04 #@! TO.C,C3*
X38833333Y-46707142D02*
X38785714Y-46754761D01*
X38642857Y-46802380D01*
X38547619Y-46802380D01*
X38404761Y-46754761D01*
X38309523Y-46659523D01*
X38261904Y-46564285D01*
X38214285Y-46373809D01*
X38214285Y-46230952D01*
X38261904Y-46040476D01*
X38309523Y-45945238D01*
X38404761Y-45850000D01*
X38547619Y-45802380D01*
X38642857Y-45802380D01*
X38785714Y-45850000D01*
X38833333Y-45897619D01*
X39166666Y-45802380D02*
X39785714Y-45802380D01*
X39452380Y-46183333D01*
X39595238Y-46183333D01*
X39690476Y-46230952D01*
X39738095Y-46278571D01*
X39785714Y-46373809D01*
X39785714Y-46611904D01*
X39738095Y-46707142D01*
X39690476Y-46754761D01*
X39595238Y-46802380D01*
X39309523Y-46802380D01*
X39214285Y-46754761D01*
X39166666Y-46707142D01*
G04 #@! TO.C,C4*
X42833333Y-46707142D02*
X42785714Y-46754761D01*
X42642857Y-46802380D01*
X42547619Y-46802380D01*
X42404761Y-46754761D01*
X42309523Y-46659523D01*
X42261904Y-46564285D01*
X42214285Y-46373809D01*
X42214285Y-46230952D01*
X42261904Y-46040476D01*
X42309523Y-45945238D01*
X42404761Y-45850000D01*
X42547619Y-45802380D01*
X42642857Y-45802380D01*
X42785714Y-45850000D01*
X42833333Y-45897619D01*
X43690476Y-46135714D02*
X43690476Y-46802380D01*
X43452380Y-45754761D02*
X43214285Y-46469047D01*
X43833333Y-46469047D01*
G04 #@! TO.C,C5*
X46833333Y-46707142D02*
X46785714Y-46754761D01*
X46642857Y-46802380D01*
X46547619Y-46802380D01*
X46404761Y-46754761D01*
X46309523Y-46659523D01*
X46261904Y-46564285D01*
X46214285Y-46373809D01*
X46214285Y-46230952D01*
X46261904Y-46040476D01*
X46309523Y-45945238D01*
X46404761Y-45850000D01*
X46547619Y-45802380D01*
X46642857Y-45802380D01*
X46785714Y-45850000D01*
X46833333Y-45897619D01*
X47738095Y-45802380D02*
X47261904Y-45802380D01*
X47214285Y-46278571D01*
X47261904Y-46230952D01*
X47357142Y-46183333D01*
X47595238Y-46183333D01*
X47690476Y-46230952D01*
X47738095Y-46278571D01*
X47785714Y-46373809D01*
X47785714Y-46611904D01*
X47738095Y-46707142D01*
X47690476Y-46754761D01*
X47595238Y-46802380D01*
X47357142Y-46802380D01*
X47261904Y-46754761D01*
X47214285Y-46707142D01*
G04 #@! TO.C,C6*
X50833333Y-46707142D02*
X50785714Y-46754761D01*
X50642857Y-46802380D01*
X50547619Y-46802380D01*
X50404761Y-46754761D01*
X50309523Y-46659523D01*
X50261904Y-46564285D01*
X50214285Y-46373809D01*
X50214285Y-46230952D01*
X50261904Y-46040476D01*
X50309523Y-45945238D01*
X50404761Y-45850000D01*
X50547619Y-45802380D01*
X50642857Y-45802380D01*
X50785714Y-45850000D01*
X50833333Y-45897619D01*
X51690476Y-45802380D02*
X51500000Y-45802380D01*
X51404761Y-45850000D01*
X51357142Y-45897619D01*
X51261904Y-46040476D01*
X51214285Y-46230952D01*
X51214285Y-46611904D01*
X51261904Y-46707142D01*
X51309523Y-46754761D01*
X51404761Y-46802380D01*
X51595238Y-46802380D01*
X51690476Y-46754761D01*
X51738095Y-46707142D01*
X51785714Y-46611904D01*
X51785714Y-46373809D01*
X51738095Y-46278571D01*
X51690476Y-46230952D01*
X51595238Y-46183333D01*
X51404761Y-46183333D01*
X51309523Y-46230952D01*
X51261904Y-46278571D01*
X51214285Y-46373809D01*
G04 #@! TO.C,C7*
X54833333Y-46707142D02*
X54785714Y-46754761D01*
X54642857Y-46802380D01*
X54547619Y-46802380D01*
X54404761Y-46754761D01*
X54309523Y-46659523D01*
X54261904Y-46564285D01*
X54214285Y-46373809D01*
X54214285Y-46230952D01*
X54261904Y-46040476D01*
X54309523Y-45945238D01*
X54404761Y-45850000D01*
X54547619Y-45802380D01*
X54642857Y-45802380D01*
X54785714Y-45850000D01*
X54833333Y-45897619D01*
X55166666Y-45802380D02*
X55833333Y-45802380D01*
X55404761Y-46802380D01*
G04 #@! TO.C,C8*
X58833333Y-46707142D02*
X58785714Y-46754761D01*
X58642857Y-46802380D01*
X58547619Y-46802380D01*
X58404761Y-46754761D01*
X58309523Y-46659523D01*
X58261904Y-46564285D01*
X58214285Y-46373809D01*
X58214285Y-46230952D01*
X58261904Y-46040476D01*
X58309523Y-45945238D01*
X58404761Y-45850000D01*
X58547619Y-45802380D01*
X58642857Y-45802380D01*
X58785714Y-45850000D01*
X58833333Y-45897619D01*
X59404761Y-46230952D02*
X59309523Y-46183333D01*
X59261904Y-46135714D01*
X59214285Y-46040476D01*
X59214285Y-45992857D01*
X59261904Y-45897619D01*
X59309523Y-45850000D01*
X59404761Y-45802380D01*
X59595238Y-45802380D01*
X59690476Y-45850000D01*
X59738095Y-45897619D01*
X59785714Y-45992857D01*
X59785714Y-46040476D01*
X59738095Y-46135714D01*
X59690476Y-46183333D01*
X59595238Y-46230952D01*
X59404761Y-46230952D01*
X59309523Y-46278571D01*
X59261904Y-46326190D01*
X59214285Y-46421428D01*
X59214285Y-46611904D01*
X59261904Y-46707142D01*
X59309523Y-46754761D01*
X59404761Y-46802380D01*
X59595238Y-46802380D01*
X59690476Y-46754761D01*
X59738095Y-46707142D01*
X59785714Y-46611904D01*
X59785714Y-46421428D01*
X59738095Y-46326190D01*
X59690476Y-46278571D01*
X59595238Y-46230952D01*
G04 #@! TO.C,J1*
X48666666Y-68052380D02*
X48666666Y-68766666D01*
X48619047Y-68909523D01*
X48523809Y-69004761D01*
X48380952Y-69052380D01*
X48285714Y-69052380D01*
X49666666Y-69052380D02*
X49095238Y-69052380D01*
X49380952Y-69052380D02*
X49380952Y-68052380D01*
X49285714Y-68195238D01*
X49190476Y-68290476D01*
X49095238Y-68338095D01*
G04 #@! TO.C,J2*
X48666666Y-64052380D02*
X48666666Y-64766666D01*
X48619047Y-64909523D01*
X48523809Y-65004761D01*
X48380952Y-65052380D01*
X48285714Y-65052380D01*
X49095238Y-64147619D02*
X49142857Y-64100000D01*
X49238095Y-64052380D01*
X49476190Y-64052380D01*
X49571428Y-64100000D01*
X49619047Y-64147619D01*
X49666666Y-64242857D01*
X49666666Y-64338095D01*
X49619047Y-64480952D01*
X49047619Y-65052380D01*
X49666666Y-65052380D01*
G04 #@! TO.C,JP1*
X60416666Y-66152380D02*
X60416666Y-66866666D01*
X60369047Y-67009523D01*
X60273809Y-67104761D01*
X60130952Y-67152380D01*
X60035714Y-67152380D01*
X60892857Y-67152380D02*
X60892857Y-66152380D01*
X61273809Y-66152380D01*
X61369047Y-66200000D01*
X61416666Y-66247619D01*
X61464285Y-66342857D01*
X61464285Y-66485714D01*
X61416666Y-66580952D01*
X61369047Y-66628571D01*
X61273809Y-66676190D01*
X60892857Y-66676190D01*
X62416666Y-67152380D02*
X61845238Y-67152380D01*
X62130952Y-67152380D02*
X62130952Y-66152380D01*
X62035714Y-66295238D01*
X61940476Y-66390476D01*
X61845238Y-66438095D01*
G04 #@! TO.C,JP2*
X63652380Y-47833333D02*
X64366666Y-47833333D01*
X64509523Y-47880952D01*
X64604761Y-47976190D01*
X64652380Y-48119047D01*
X64652380Y-48214285D01*
X64652380Y-47357142D02*
X63652380Y-47357142D01*
X63652380Y-46976190D01*
X63700000Y-46880952D01*
X63747619Y-46833333D01*
X63842857Y-46785714D01*
X63985714Y-46785714D01*
X64080952Y-46833333D01*
X64128571Y-46880952D01*
X64176190Y-46976190D01*
X64176190Y-47357142D01*
X63747619Y-46404761D02*
X63700000Y-46357142D01*
X63652380Y-46261904D01*
X63652380Y-46023809D01*
X63700000Y-45928571D01*
X63747619Y-45880952D01*
X63842857Y-45833333D01*
X63938095Y-45833333D01*
X64080952Y-45880952D01*
X64652380Y-46452380D01*
X64652380Y-45833333D01*
G04 #@! TO.C,Q1*
X46904761Y-54347619D02*
X46809523Y-54300000D01*
X46714285Y-54204761D01*
X46571428Y-54061904D01*
X46476190Y-54014285D01*
X46380952Y-54014285D01*
X46428571Y-54252380D02*
X46333333Y-54204761D01*
X46238095Y-54109523D01*
X46190476Y-53919047D01*
X46190476Y-53585714D01*
X46238095Y-53395238D01*
X46333333Y-53300000D01*
X46428571Y-53252380D01*
X46619047Y-53252380D01*
X46714285Y-53300000D01*
X46809523Y-53395238D01*
X46857142Y-53585714D01*
X46857142Y-53919047D01*
X46809523Y-54109523D01*
X46714285Y-54204761D01*
X46619047Y-54252380D01*
X46428571Y-54252380D01*
X47809523Y-54252380D02*
X47238095Y-54252380D01*
X47523809Y-54252380D02*
X47523809Y-53252380D01*
X47428571Y-53395238D01*
X47333333Y-53490476D01*
X47238095Y-53538095D01*
G04 #@! TO.C,Q2*
X40104761Y-56747619D02*
X40009523Y-56700000D01*
X39914285Y-56604761D01*
X39771428Y-56461904D01*
X39676190Y-56414285D01*
X39580952Y-56414285D01*
X39628571Y-56652380D02*
X39533333Y-56604761D01*
X39438095Y-56509523D01*
X39390476Y-56319047D01*
X39390476Y-55985714D01*
X39438095Y-55795238D01*
X39533333Y-55700000D01*
X39628571Y-55652380D01*
X39819047Y-55652380D01*
X39914285Y-55700000D01*
X40009523Y-55795238D01*
X40057142Y-55985714D01*
X40057142Y-56319047D01*
X40009523Y-56509523D01*
X39914285Y-56604761D01*
X39819047Y-56652380D01*
X39628571Y-56652380D01*
X40438095Y-55747619D02*
X40485714Y-55700000D01*
X40580952Y-55652380D01*
X40819047Y-55652380D01*
X40914285Y-55700000D01*
X40961904Y-55747619D01*
X41009523Y-55842857D01*
X41009523Y-55938095D01*
X40961904Y-56080952D01*
X40390476Y-56652380D01*
X41009523Y-56652380D01*
G04 #@! TO.C,RN1*
X48509523Y-78852380D02*
X48176190Y-78376190D01*
X47938095Y-78852380D02*
X47938095Y-77852380D01*
X48319047Y-77852380D01*
X48414285Y-77900000D01*
X48461904Y-77947619D01*
X48509523Y-78042857D01*
X48509523Y-78185714D01*
X48461904Y-78280952D01*
X48414285Y-78328571D01*
X48319047Y-78376190D01*
X47938095Y-78376190D01*
X48938095Y-78852380D02*
X48938095Y-77852380D01*
X49509523Y-78852380D01*
X49509523Y-77852380D01*
X50509523Y-78852380D02*
X49938095Y-78852380D01*
X50223809Y-78852380D02*
X50223809Y-77852380D01*
X50128571Y-77995238D01*
X50033333Y-78090476D01*
X49938095Y-78138095D01*
G04 #@! TO.C,RN2*
X55309523Y-78852380D02*
X54976190Y-78376190D01*
X54738095Y-78852380D02*
X54738095Y-77852380D01*
X55119047Y-77852380D01*
X55214285Y-77900000D01*
X55261904Y-77947619D01*
X55309523Y-78042857D01*
X55309523Y-78185714D01*
X55261904Y-78280952D01*
X55214285Y-78328571D01*
X55119047Y-78376190D01*
X54738095Y-78376190D01*
X55738095Y-78852380D02*
X55738095Y-77852380D01*
X56309523Y-78852380D01*
X56309523Y-77852380D01*
X56738095Y-77947619D02*
X56785714Y-77900000D01*
X56880952Y-77852380D01*
X57119047Y-77852380D01*
X57214285Y-77900000D01*
X57261904Y-77947619D01*
X57309523Y-78042857D01*
X57309523Y-78138095D01*
X57261904Y-78280952D01*
X56690476Y-78852380D01*
X57309523Y-78852380D01*
G04 #@! TO.C,RN3*
X42709523Y-50252380D02*
X42376190Y-49776190D01*
X42138095Y-50252380D02*
X42138095Y-49252380D01*
X42519047Y-49252380D01*
X42614285Y-49300000D01*
X42661904Y-49347619D01*
X42709523Y-49442857D01*
X42709523Y-49585714D01*
X42661904Y-49680952D01*
X42614285Y-49728571D01*
X42519047Y-49776190D01*
X42138095Y-49776190D01*
X43138095Y-50252380D02*
X43138095Y-49252380D01*
X43709523Y-50252380D01*
X43709523Y-49252380D01*
X44090476Y-49252380D02*
X44709523Y-49252380D01*
X44376190Y-49633333D01*
X44519047Y-49633333D01*
X44614285Y-49680952D01*
X44661904Y-49728571D01*
X44709523Y-49823809D01*
X44709523Y-50061904D01*
X44661904Y-50157142D01*
X44614285Y-50204761D01*
X44519047Y-50252380D01*
X44233333Y-50252380D01*
X44138095Y-50204761D01*
X44090476Y-50157142D01*
G04 #@! TO.C,RN4*
X53709523Y-50252380D02*
X53376190Y-49776190D01*
X53138095Y-50252380D02*
X53138095Y-49252380D01*
X53519047Y-49252380D01*
X53614285Y-49300000D01*
X53661904Y-49347619D01*
X53709523Y-49442857D01*
X53709523Y-49585714D01*
X53661904Y-49680952D01*
X53614285Y-49728571D01*
X53519047Y-49776190D01*
X53138095Y-49776190D01*
X54138095Y-50252380D02*
X54138095Y-49252380D01*
X54709523Y-50252380D01*
X54709523Y-49252380D01*
X55614285Y-49585714D02*
X55614285Y-50252380D01*
X55376190Y-49204761D02*
X55138095Y-49919047D01*
X55757142Y-49919047D01*
G04 #@! TO.C,U1*
X63238095Y-54052380D02*
X63238095Y-54861904D01*
X63285714Y-54957142D01*
X63333333Y-55004761D01*
X63428571Y-55052380D01*
X63619047Y-55052380D01*
X63714285Y-55004761D01*
X63761904Y-54957142D01*
X63809523Y-54861904D01*
X63809523Y-54052380D01*
X64809523Y-55052380D02*
X64238095Y-55052380D01*
X64523809Y-55052380D02*
X64523809Y-54052380D01*
X64428571Y-54195238D01*
X64333333Y-54290476D01*
X64238095Y-54338095D01*
G04 #@! TO.C,U2*
X48238095Y-41852380D02*
X48238095Y-42661904D01*
X48285714Y-42757142D01*
X48333333Y-42804761D01*
X48428571Y-42852380D01*
X48619047Y-42852380D01*
X48714285Y-42804761D01*
X48761904Y-42757142D01*
X48809523Y-42661904D01*
X48809523Y-41852380D01*
X49238095Y-41947619D02*
X49285714Y-41900000D01*
X49380952Y-41852380D01*
X49619047Y-41852380D01*
X49714285Y-41900000D01*
X49761904Y-41947619D01*
X49809523Y-42042857D01*
X49809523Y-42138095D01*
X49761904Y-42280952D01*
X49190476Y-42852380D01*
X49809523Y-42852380D01*
D16*
X38285714Y-44452380D02*
X37714285Y-44452380D01*
X38000000Y-44452380D02*
X38000000Y-43452380D01*
X37904761Y-43595238D01*
X37809523Y-43690476D01*
X37714285Y-43738095D01*
X59590476Y-43452380D02*
X60209523Y-43452380D01*
X59876190Y-43833333D01*
X60019047Y-43833333D01*
X60114285Y-43880952D01*
X60161904Y-43928571D01*
X60209523Y-44023809D01*
X60209523Y-44261904D01*
X60161904Y-44357142D01*
X60114285Y-44404761D01*
X60019047Y-44452380D01*
X59733333Y-44452380D01*
X59638095Y-44404761D01*
X59590476Y-44357142D01*
X60828571Y-43452380D02*
X60923809Y-43452380D01*
X61019047Y-43500000D01*
X61066666Y-43547619D01*
X61114285Y-43642857D01*
X61161904Y-43833333D01*
X61161904Y-44071428D01*
X61114285Y-44261904D01*
X61066666Y-44357142D01*
X61019047Y-44404761D01*
X60923809Y-44452380D01*
X60828571Y-44452380D01*
X60733333Y-44404761D01*
X60685714Y-44357142D01*
X60638095Y-44261904D01*
X60590476Y-44071428D01*
X60590476Y-43833333D01*
X60638095Y-43642857D01*
X60685714Y-43547619D01*
X60733333Y-43500000D01*
X60828571Y-43452380D01*
G04 #@! TO.C,D1*
D15*
X56461904Y-56702380D02*
X56461904Y-55702380D01*
X56700000Y-55702380D01*
X56842857Y-55750000D01*
X56938095Y-55845238D01*
X56985714Y-55940476D01*
X57033333Y-56130952D01*
X57033333Y-56273809D01*
X56985714Y-56464285D01*
X56938095Y-56559523D01*
X56842857Y-56654761D01*
X56700000Y-56702380D01*
X56461904Y-56702380D01*
X57985714Y-56702380D02*
X57414285Y-56702380D01*
X57700000Y-56702380D02*
X57700000Y-55702380D01*
X57604761Y-55845238D01*
X57509523Y-55940476D01*
X57414285Y-55988095D01*
G04 #@! TO.C,D2*
X48461904Y-54252380D02*
X48461904Y-53252380D01*
X48700000Y-53252380D01*
X48842857Y-53300000D01*
X48938095Y-53395238D01*
X48985714Y-53490476D01*
X49033333Y-53680952D01*
X49033333Y-53823809D01*
X48985714Y-54014285D01*
X48938095Y-54109523D01*
X48842857Y-54204761D01*
X48700000Y-54252380D01*
X48461904Y-54252380D01*
X49414285Y-53347619D02*
X49461904Y-53300000D01*
X49557142Y-53252380D01*
X49795238Y-53252380D01*
X49890476Y-53300000D01*
X49938095Y-53347619D01*
X49985714Y-53442857D01*
X49985714Y-53538095D01*
X49938095Y-53680952D01*
X49366666Y-54252380D01*
X49985714Y-54252380D01*
G04 #@! TO.C,D3*
X50661904Y-54252380D02*
X50661904Y-53252380D01*
X50900000Y-53252380D01*
X51042857Y-53300000D01*
X51138095Y-53395238D01*
X51185714Y-53490476D01*
X51233333Y-53680952D01*
X51233333Y-53823809D01*
X51185714Y-54014285D01*
X51138095Y-54109523D01*
X51042857Y-54204761D01*
X50900000Y-54252380D01*
X50661904Y-54252380D01*
X51566666Y-53252380D02*
X52185714Y-53252380D01*
X51852380Y-53633333D01*
X51995238Y-53633333D01*
X52090476Y-53680952D01*
X52138095Y-53728571D01*
X52185714Y-53823809D01*
X52185714Y-54061904D01*
X52138095Y-54157142D01*
X52090476Y-54204761D01*
X51995238Y-54252380D01*
X51709523Y-54252380D01*
X51614285Y-54204761D01*
X51566666Y-54157142D01*
G04 #@! TD*
M02*
