G04 #@! TF.GenerationSoftware,KiCad,Pcbnew,(5.0.2)-1*
G04 #@! TF.CreationDate,2019-03-24T20:45:22+01:00*
G04 #@! TF.ProjectId,TaggerKeypadDisplay,54616767-6572-44b6-9579-706164446973,rev?*
G04 #@! TF.SameCoordinates,Original*
G04 #@! TF.FileFunction,Copper,L1,Top*
G04 #@! TF.FilePolarity,Positive*
%FSLAX46Y46*%
G04 Gerber Fmt 4.6, Leading zero omitted, Abs format (unit mm)*
G04 Created by KiCad (PCBNEW (5.0.2)-1) date 24.03.2019 20:45:22*
%MOMM*%
%LPD*%
G01*
G04 APERTURE LIST*
G04 #@! TA.AperFunction,NonConductor*
%ADD10C,0.200000*%
G04 #@! TD*
G04 #@! TA.AperFunction,Conductor*
%ADD11C,0.100000*%
G04 #@! TD*
G04 #@! TA.AperFunction,SMDPad,CuDef*
%ADD12C,0.975000*%
G04 #@! TD*
G04 #@! TA.AperFunction,ComponentPad*
%ADD13C,1.200000*%
G04 #@! TD*
G04 #@! TA.AperFunction,ComponentPad*
%ADD14O,1.200000X1.750000*%
G04 #@! TD*
G04 #@! TA.AperFunction,SMDPad,CuDef*
%ADD15R,1.000000X1.500000*%
G04 #@! TD*
G04 #@! TA.AperFunction,SMDPad,CuDef*
%ADD16R,1.500000X1.000000*%
G04 #@! TD*
G04 #@! TA.AperFunction,SMDPad,CuDef*
%ADD17R,0.800000X0.900000*%
G04 #@! TD*
G04 #@! TA.AperFunction,SMDPad,CuDef*
%ADD18R,0.500000X0.800000*%
G04 #@! TD*
G04 #@! TA.AperFunction,SMDPad,CuDef*
%ADD19R,0.400000X0.800000*%
G04 #@! TD*
G04 #@! TA.AperFunction,SMDPad,CuDef*
%ADD20R,1.170000X0.670000*%
G04 #@! TD*
G04 #@! TA.AperFunction,SMDPad,CuDef*
%ADD21R,0.350000X1.600000*%
G04 #@! TD*
G04 #@! TA.AperFunction,ViaPad*
%ADD22C,0.600000*%
G04 #@! TD*
G04 #@! TA.AperFunction,Conductor*
%ADD23C,0.400000*%
G04 #@! TD*
G04 #@! TA.AperFunction,Conductor*
%ADD24C,0.200000*%
G04 #@! TD*
G04 #@! TA.AperFunction,Conductor*
%ADD25C,0.254000*%
G04 #@! TD*
G04 APERTURE END LIST*
D10*
X40157142Y-82178571D02*
X40157142Y-80035714D01*
X41228571Y-81678571D02*
X41228571Y-80178571D01*
X41942857Y-80678571D02*
X41942857Y-81678571D01*
X41942857Y-80821428D02*
X42014285Y-80750000D01*
X42157142Y-80678571D01*
X42371428Y-80678571D01*
X42514285Y-80750000D01*
X42585714Y-80892857D01*
X42585714Y-81678571D01*
X43085714Y-80678571D02*
X43657142Y-80678571D01*
X43300000Y-81678571D02*
X43300000Y-80392857D01*
X43371428Y-80250000D01*
X43514285Y-80178571D01*
X43657142Y-80178571D01*
X44157142Y-81678571D02*
X44157142Y-80678571D01*
X44157142Y-80178571D02*
X44085714Y-80250000D01*
X44157142Y-80321428D01*
X44228571Y-80250000D01*
X44157142Y-80178571D01*
X44157142Y-80321428D01*
X44871428Y-80678571D02*
X44871428Y-81678571D01*
X44871428Y-80821428D02*
X44942857Y-80750000D01*
X45085714Y-80678571D01*
X45300000Y-80678571D01*
X45442857Y-80750000D01*
X45514285Y-80892857D01*
X45514285Y-81678571D01*
X46228571Y-81678571D02*
X46228571Y-80678571D01*
X46228571Y-80178571D02*
X46157142Y-80250000D01*
X46228571Y-80321428D01*
X46300000Y-80250000D01*
X46228571Y-80178571D01*
X46228571Y-80321428D01*
X46728571Y-80678571D02*
X47300000Y-80678571D01*
X46942857Y-80178571D02*
X46942857Y-81464285D01*
X47014285Y-81607142D01*
X47157142Y-81678571D01*
X47300000Y-81678571D01*
X48442857Y-81678571D02*
X48442857Y-80892857D01*
X48371428Y-80750000D01*
X48228571Y-80678571D01*
X47942857Y-80678571D01*
X47800000Y-80750000D01*
X48442857Y-81607142D02*
X48300000Y-81678571D01*
X47942857Y-81678571D01*
X47800000Y-81607142D01*
X47728571Y-81464285D01*
X47728571Y-81321428D01*
X47800000Y-81178571D01*
X47942857Y-81107142D01*
X48300000Y-81107142D01*
X48442857Y-81035714D01*
X49800000Y-80678571D02*
X49800000Y-81892857D01*
X49728571Y-82035714D01*
X49657142Y-82107142D01*
X49514285Y-82178571D01*
X49300000Y-82178571D01*
X49157142Y-82107142D01*
X49800000Y-81607142D02*
X49657142Y-81678571D01*
X49371428Y-81678571D01*
X49228571Y-81607142D01*
X49157142Y-81535714D01*
X49085714Y-81392857D01*
X49085714Y-80964285D01*
X49157142Y-80821428D01*
X49228571Y-80750000D01*
X49371428Y-80678571D01*
X49657142Y-80678571D01*
X49800000Y-80750000D01*
D11*
G04 #@! TO.N,GND*
G04 #@! TO.C,C1*
G36*
X62730142Y-49326174D02*
X62753803Y-49329684D01*
X62777007Y-49335496D01*
X62799529Y-49343554D01*
X62821153Y-49353782D01*
X62841670Y-49366079D01*
X62860883Y-49380329D01*
X62878607Y-49396393D01*
X62894671Y-49414117D01*
X62908921Y-49433330D01*
X62921218Y-49453847D01*
X62931446Y-49475471D01*
X62939504Y-49497993D01*
X62945316Y-49521197D01*
X62948826Y-49544858D01*
X62950000Y-49568750D01*
X62950000Y-50056250D01*
X62948826Y-50080142D01*
X62945316Y-50103803D01*
X62939504Y-50127007D01*
X62931446Y-50149529D01*
X62921218Y-50171153D01*
X62908921Y-50191670D01*
X62894671Y-50210883D01*
X62878607Y-50228607D01*
X62860883Y-50244671D01*
X62841670Y-50258921D01*
X62821153Y-50271218D01*
X62799529Y-50281446D01*
X62777007Y-50289504D01*
X62753803Y-50295316D01*
X62730142Y-50298826D01*
X62706250Y-50300000D01*
X61793750Y-50300000D01*
X61769858Y-50298826D01*
X61746197Y-50295316D01*
X61722993Y-50289504D01*
X61700471Y-50281446D01*
X61678847Y-50271218D01*
X61658330Y-50258921D01*
X61639117Y-50244671D01*
X61621393Y-50228607D01*
X61605329Y-50210883D01*
X61591079Y-50191670D01*
X61578782Y-50171153D01*
X61568554Y-50149529D01*
X61560496Y-50127007D01*
X61554684Y-50103803D01*
X61551174Y-50080142D01*
X61550000Y-50056250D01*
X61550000Y-49568750D01*
X61551174Y-49544858D01*
X61554684Y-49521197D01*
X61560496Y-49497993D01*
X61568554Y-49475471D01*
X61578782Y-49453847D01*
X61591079Y-49433330D01*
X61605329Y-49414117D01*
X61621393Y-49396393D01*
X61639117Y-49380329D01*
X61658330Y-49366079D01*
X61678847Y-49353782D01*
X61700471Y-49343554D01*
X61722993Y-49335496D01*
X61746197Y-49329684D01*
X61769858Y-49326174D01*
X61793750Y-49325000D01*
X62706250Y-49325000D01*
X62730142Y-49326174D01*
X62730142Y-49326174D01*
G37*
D12*
G04 #@! TD*
G04 #@! TO.P,C1,2*
G04 #@! TO.N,GND*
X62250000Y-49812500D03*
D11*
G04 #@! TO.N,+5V*
G04 #@! TO.C,C1*
G36*
X62730142Y-51201174D02*
X62753803Y-51204684D01*
X62777007Y-51210496D01*
X62799529Y-51218554D01*
X62821153Y-51228782D01*
X62841670Y-51241079D01*
X62860883Y-51255329D01*
X62878607Y-51271393D01*
X62894671Y-51289117D01*
X62908921Y-51308330D01*
X62921218Y-51328847D01*
X62931446Y-51350471D01*
X62939504Y-51372993D01*
X62945316Y-51396197D01*
X62948826Y-51419858D01*
X62950000Y-51443750D01*
X62950000Y-51931250D01*
X62948826Y-51955142D01*
X62945316Y-51978803D01*
X62939504Y-52002007D01*
X62931446Y-52024529D01*
X62921218Y-52046153D01*
X62908921Y-52066670D01*
X62894671Y-52085883D01*
X62878607Y-52103607D01*
X62860883Y-52119671D01*
X62841670Y-52133921D01*
X62821153Y-52146218D01*
X62799529Y-52156446D01*
X62777007Y-52164504D01*
X62753803Y-52170316D01*
X62730142Y-52173826D01*
X62706250Y-52175000D01*
X61793750Y-52175000D01*
X61769858Y-52173826D01*
X61746197Y-52170316D01*
X61722993Y-52164504D01*
X61700471Y-52156446D01*
X61678847Y-52146218D01*
X61658330Y-52133921D01*
X61639117Y-52119671D01*
X61621393Y-52103607D01*
X61605329Y-52085883D01*
X61591079Y-52066670D01*
X61578782Y-52046153D01*
X61568554Y-52024529D01*
X61560496Y-52002007D01*
X61554684Y-51978803D01*
X61551174Y-51955142D01*
X61550000Y-51931250D01*
X61550000Y-51443750D01*
X61551174Y-51419858D01*
X61554684Y-51396197D01*
X61560496Y-51372993D01*
X61568554Y-51350471D01*
X61578782Y-51328847D01*
X61591079Y-51308330D01*
X61605329Y-51289117D01*
X61621393Y-51271393D01*
X61639117Y-51255329D01*
X61658330Y-51241079D01*
X61678847Y-51228782D01*
X61700471Y-51218554D01*
X61722993Y-51210496D01*
X61746197Y-51204684D01*
X61769858Y-51201174D01*
X61793750Y-51200000D01*
X62706250Y-51200000D01*
X62730142Y-51201174D01*
X62730142Y-51201174D01*
G37*
D12*
G04 #@! TD*
G04 #@! TO.P,C1,1*
G04 #@! TO.N,+5V*
X62250000Y-51687500D03*
D11*
G04 #@! TO.N,+3V3*
G04 #@! TO.C,C2*
G36*
X60580142Y-57801174D02*
X60603803Y-57804684D01*
X60627007Y-57810496D01*
X60649529Y-57818554D01*
X60671153Y-57828782D01*
X60691670Y-57841079D01*
X60710883Y-57855329D01*
X60728607Y-57871393D01*
X60744671Y-57889117D01*
X60758921Y-57908330D01*
X60771218Y-57928847D01*
X60781446Y-57950471D01*
X60789504Y-57972993D01*
X60795316Y-57996197D01*
X60798826Y-58019858D01*
X60800000Y-58043750D01*
X60800000Y-58956250D01*
X60798826Y-58980142D01*
X60795316Y-59003803D01*
X60789504Y-59027007D01*
X60781446Y-59049529D01*
X60771218Y-59071153D01*
X60758921Y-59091670D01*
X60744671Y-59110883D01*
X60728607Y-59128607D01*
X60710883Y-59144671D01*
X60691670Y-59158921D01*
X60671153Y-59171218D01*
X60649529Y-59181446D01*
X60627007Y-59189504D01*
X60603803Y-59195316D01*
X60580142Y-59198826D01*
X60556250Y-59200000D01*
X60068750Y-59200000D01*
X60044858Y-59198826D01*
X60021197Y-59195316D01*
X59997993Y-59189504D01*
X59975471Y-59181446D01*
X59953847Y-59171218D01*
X59933330Y-59158921D01*
X59914117Y-59144671D01*
X59896393Y-59128607D01*
X59880329Y-59110883D01*
X59866079Y-59091670D01*
X59853782Y-59071153D01*
X59843554Y-59049529D01*
X59835496Y-59027007D01*
X59829684Y-59003803D01*
X59826174Y-58980142D01*
X59825000Y-58956250D01*
X59825000Y-58043750D01*
X59826174Y-58019858D01*
X59829684Y-57996197D01*
X59835496Y-57972993D01*
X59843554Y-57950471D01*
X59853782Y-57928847D01*
X59866079Y-57908330D01*
X59880329Y-57889117D01*
X59896393Y-57871393D01*
X59914117Y-57855329D01*
X59933330Y-57841079D01*
X59953847Y-57828782D01*
X59975471Y-57818554D01*
X59997993Y-57810496D01*
X60021197Y-57804684D01*
X60044858Y-57801174D01*
X60068750Y-57800000D01*
X60556250Y-57800000D01*
X60580142Y-57801174D01*
X60580142Y-57801174D01*
G37*
D12*
G04 #@! TD*
G04 #@! TO.P,C2,1*
G04 #@! TO.N,+3V3*
X60312500Y-58500000D03*
D11*
G04 #@! TO.N,GND*
G04 #@! TO.C,C2*
G36*
X62455142Y-57801174D02*
X62478803Y-57804684D01*
X62502007Y-57810496D01*
X62524529Y-57818554D01*
X62546153Y-57828782D01*
X62566670Y-57841079D01*
X62585883Y-57855329D01*
X62603607Y-57871393D01*
X62619671Y-57889117D01*
X62633921Y-57908330D01*
X62646218Y-57928847D01*
X62656446Y-57950471D01*
X62664504Y-57972993D01*
X62670316Y-57996197D01*
X62673826Y-58019858D01*
X62675000Y-58043750D01*
X62675000Y-58956250D01*
X62673826Y-58980142D01*
X62670316Y-59003803D01*
X62664504Y-59027007D01*
X62656446Y-59049529D01*
X62646218Y-59071153D01*
X62633921Y-59091670D01*
X62619671Y-59110883D01*
X62603607Y-59128607D01*
X62585883Y-59144671D01*
X62566670Y-59158921D01*
X62546153Y-59171218D01*
X62524529Y-59181446D01*
X62502007Y-59189504D01*
X62478803Y-59195316D01*
X62455142Y-59198826D01*
X62431250Y-59200000D01*
X61943750Y-59200000D01*
X61919858Y-59198826D01*
X61896197Y-59195316D01*
X61872993Y-59189504D01*
X61850471Y-59181446D01*
X61828847Y-59171218D01*
X61808330Y-59158921D01*
X61789117Y-59144671D01*
X61771393Y-59128607D01*
X61755329Y-59110883D01*
X61741079Y-59091670D01*
X61728782Y-59071153D01*
X61718554Y-59049529D01*
X61710496Y-59027007D01*
X61704684Y-59003803D01*
X61701174Y-58980142D01*
X61700000Y-58956250D01*
X61700000Y-58043750D01*
X61701174Y-58019858D01*
X61704684Y-57996197D01*
X61710496Y-57972993D01*
X61718554Y-57950471D01*
X61728782Y-57928847D01*
X61741079Y-57908330D01*
X61755329Y-57889117D01*
X61771393Y-57871393D01*
X61789117Y-57855329D01*
X61808330Y-57841079D01*
X61828847Y-57828782D01*
X61850471Y-57818554D01*
X61872993Y-57810496D01*
X61896197Y-57804684D01*
X61919858Y-57801174D01*
X61943750Y-57800000D01*
X62431250Y-57800000D01*
X62455142Y-57801174D01*
X62455142Y-57801174D01*
G37*
D12*
G04 #@! TD*
G04 #@! TO.P,C2,2*
G04 #@! TO.N,GND*
X62187500Y-58500000D03*
D11*
G04 #@! TO.N,Net-(C3-Pad2)*
G04 #@! TO.C,C3*
G36*
X40205142Y-47301174D02*
X40228803Y-47304684D01*
X40252007Y-47310496D01*
X40274529Y-47318554D01*
X40296153Y-47328782D01*
X40316670Y-47341079D01*
X40335883Y-47355329D01*
X40353607Y-47371393D01*
X40369671Y-47389117D01*
X40383921Y-47408330D01*
X40396218Y-47428847D01*
X40406446Y-47450471D01*
X40414504Y-47472993D01*
X40420316Y-47496197D01*
X40423826Y-47519858D01*
X40425000Y-47543750D01*
X40425000Y-48456250D01*
X40423826Y-48480142D01*
X40420316Y-48503803D01*
X40414504Y-48527007D01*
X40406446Y-48549529D01*
X40396218Y-48571153D01*
X40383921Y-48591670D01*
X40369671Y-48610883D01*
X40353607Y-48628607D01*
X40335883Y-48644671D01*
X40316670Y-48658921D01*
X40296153Y-48671218D01*
X40274529Y-48681446D01*
X40252007Y-48689504D01*
X40228803Y-48695316D01*
X40205142Y-48698826D01*
X40181250Y-48700000D01*
X39693750Y-48700000D01*
X39669858Y-48698826D01*
X39646197Y-48695316D01*
X39622993Y-48689504D01*
X39600471Y-48681446D01*
X39578847Y-48671218D01*
X39558330Y-48658921D01*
X39539117Y-48644671D01*
X39521393Y-48628607D01*
X39505329Y-48610883D01*
X39491079Y-48591670D01*
X39478782Y-48571153D01*
X39468554Y-48549529D01*
X39460496Y-48527007D01*
X39454684Y-48503803D01*
X39451174Y-48480142D01*
X39450000Y-48456250D01*
X39450000Y-47543750D01*
X39451174Y-47519858D01*
X39454684Y-47496197D01*
X39460496Y-47472993D01*
X39468554Y-47450471D01*
X39478782Y-47428847D01*
X39491079Y-47408330D01*
X39505329Y-47389117D01*
X39521393Y-47371393D01*
X39539117Y-47355329D01*
X39558330Y-47341079D01*
X39578847Y-47328782D01*
X39600471Y-47318554D01*
X39622993Y-47310496D01*
X39646197Y-47304684D01*
X39669858Y-47301174D01*
X39693750Y-47300000D01*
X40181250Y-47300000D01*
X40205142Y-47301174D01*
X40205142Y-47301174D01*
G37*
D12*
G04 #@! TD*
G04 #@! TO.P,C3,2*
G04 #@! TO.N,Net-(C3-Pad2)*
X39937500Y-48000000D03*
D11*
G04 #@! TO.N,Net-(C3-Pad1)*
G04 #@! TO.C,C3*
G36*
X38330142Y-47301174D02*
X38353803Y-47304684D01*
X38377007Y-47310496D01*
X38399529Y-47318554D01*
X38421153Y-47328782D01*
X38441670Y-47341079D01*
X38460883Y-47355329D01*
X38478607Y-47371393D01*
X38494671Y-47389117D01*
X38508921Y-47408330D01*
X38521218Y-47428847D01*
X38531446Y-47450471D01*
X38539504Y-47472993D01*
X38545316Y-47496197D01*
X38548826Y-47519858D01*
X38550000Y-47543750D01*
X38550000Y-48456250D01*
X38548826Y-48480142D01*
X38545316Y-48503803D01*
X38539504Y-48527007D01*
X38531446Y-48549529D01*
X38521218Y-48571153D01*
X38508921Y-48591670D01*
X38494671Y-48610883D01*
X38478607Y-48628607D01*
X38460883Y-48644671D01*
X38441670Y-48658921D01*
X38421153Y-48671218D01*
X38399529Y-48681446D01*
X38377007Y-48689504D01*
X38353803Y-48695316D01*
X38330142Y-48698826D01*
X38306250Y-48700000D01*
X37818750Y-48700000D01*
X37794858Y-48698826D01*
X37771197Y-48695316D01*
X37747993Y-48689504D01*
X37725471Y-48681446D01*
X37703847Y-48671218D01*
X37683330Y-48658921D01*
X37664117Y-48644671D01*
X37646393Y-48628607D01*
X37630329Y-48610883D01*
X37616079Y-48591670D01*
X37603782Y-48571153D01*
X37593554Y-48549529D01*
X37585496Y-48527007D01*
X37579684Y-48503803D01*
X37576174Y-48480142D01*
X37575000Y-48456250D01*
X37575000Y-47543750D01*
X37576174Y-47519858D01*
X37579684Y-47496197D01*
X37585496Y-47472993D01*
X37593554Y-47450471D01*
X37603782Y-47428847D01*
X37616079Y-47408330D01*
X37630329Y-47389117D01*
X37646393Y-47371393D01*
X37664117Y-47355329D01*
X37683330Y-47341079D01*
X37703847Y-47328782D01*
X37725471Y-47318554D01*
X37747993Y-47310496D01*
X37771197Y-47304684D01*
X37794858Y-47301174D01*
X37818750Y-47300000D01*
X38306250Y-47300000D01*
X38330142Y-47301174D01*
X38330142Y-47301174D01*
G37*
D12*
G04 #@! TD*
G04 #@! TO.P,C3,1*
G04 #@! TO.N,Net-(C3-Pad1)*
X38062500Y-48000000D03*
D11*
G04 #@! TO.N,Net-(C4-Pad1)*
G04 #@! TO.C,C4*
G36*
X42330142Y-47301174D02*
X42353803Y-47304684D01*
X42377007Y-47310496D01*
X42399529Y-47318554D01*
X42421153Y-47328782D01*
X42441670Y-47341079D01*
X42460883Y-47355329D01*
X42478607Y-47371393D01*
X42494671Y-47389117D01*
X42508921Y-47408330D01*
X42521218Y-47428847D01*
X42531446Y-47450471D01*
X42539504Y-47472993D01*
X42545316Y-47496197D01*
X42548826Y-47519858D01*
X42550000Y-47543750D01*
X42550000Y-48456250D01*
X42548826Y-48480142D01*
X42545316Y-48503803D01*
X42539504Y-48527007D01*
X42531446Y-48549529D01*
X42521218Y-48571153D01*
X42508921Y-48591670D01*
X42494671Y-48610883D01*
X42478607Y-48628607D01*
X42460883Y-48644671D01*
X42441670Y-48658921D01*
X42421153Y-48671218D01*
X42399529Y-48681446D01*
X42377007Y-48689504D01*
X42353803Y-48695316D01*
X42330142Y-48698826D01*
X42306250Y-48700000D01*
X41818750Y-48700000D01*
X41794858Y-48698826D01*
X41771197Y-48695316D01*
X41747993Y-48689504D01*
X41725471Y-48681446D01*
X41703847Y-48671218D01*
X41683330Y-48658921D01*
X41664117Y-48644671D01*
X41646393Y-48628607D01*
X41630329Y-48610883D01*
X41616079Y-48591670D01*
X41603782Y-48571153D01*
X41593554Y-48549529D01*
X41585496Y-48527007D01*
X41579684Y-48503803D01*
X41576174Y-48480142D01*
X41575000Y-48456250D01*
X41575000Y-47543750D01*
X41576174Y-47519858D01*
X41579684Y-47496197D01*
X41585496Y-47472993D01*
X41593554Y-47450471D01*
X41603782Y-47428847D01*
X41616079Y-47408330D01*
X41630329Y-47389117D01*
X41646393Y-47371393D01*
X41664117Y-47355329D01*
X41683330Y-47341079D01*
X41703847Y-47328782D01*
X41725471Y-47318554D01*
X41747993Y-47310496D01*
X41771197Y-47304684D01*
X41794858Y-47301174D01*
X41818750Y-47300000D01*
X42306250Y-47300000D01*
X42330142Y-47301174D01*
X42330142Y-47301174D01*
G37*
D12*
G04 #@! TD*
G04 #@! TO.P,C4,1*
G04 #@! TO.N,Net-(C4-Pad1)*
X42062500Y-48000000D03*
D11*
G04 #@! TO.N,Net-(C4-Pad2)*
G04 #@! TO.C,C4*
G36*
X44205142Y-47301174D02*
X44228803Y-47304684D01*
X44252007Y-47310496D01*
X44274529Y-47318554D01*
X44296153Y-47328782D01*
X44316670Y-47341079D01*
X44335883Y-47355329D01*
X44353607Y-47371393D01*
X44369671Y-47389117D01*
X44383921Y-47408330D01*
X44396218Y-47428847D01*
X44406446Y-47450471D01*
X44414504Y-47472993D01*
X44420316Y-47496197D01*
X44423826Y-47519858D01*
X44425000Y-47543750D01*
X44425000Y-48456250D01*
X44423826Y-48480142D01*
X44420316Y-48503803D01*
X44414504Y-48527007D01*
X44406446Y-48549529D01*
X44396218Y-48571153D01*
X44383921Y-48591670D01*
X44369671Y-48610883D01*
X44353607Y-48628607D01*
X44335883Y-48644671D01*
X44316670Y-48658921D01*
X44296153Y-48671218D01*
X44274529Y-48681446D01*
X44252007Y-48689504D01*
X44228803Y-48695316D01*
X44205142Y-48698826D01*
X44181250Y-48700000D01*
X43693750Y-48700000D01*
X43669858Y-48698826D01*
X43646197Y-48695316D01*
X43622993Y-48689504D01*
X43600471Y-48681446D01*
X43578847Y-48671218D01*
X43558330Y-48658921D01*
X43539117Y-48644671D01*
X43521393Y-48628607D01*
X43505329Y-48610883D01*
X43491079Y-48591670D01*
X43478782Y-48571153D01*
X43468554Y-48549529D01*
X43460496Y-48527007D01*
X43454684Y-48503803D01*
X43451174Y-48480142D01*
X43450000Y-48456250D01*
X43450000Y-47543750D01*
X43451174Y-47519858D01*
X43454684Y-47496197D01*
X43460496Y-47472993D01*
X43468554Y-47450471D01*
X43478782Y-47428847D01*
X43491079Y-47408330D01*
X43505329Y-47389117D01*
X43521393Y-47371393D01*
X43539117Y-47355329D01*
X43558330Y-47341079D01*
X43578847Y-47328782D01*
X43600471Y-47318554D01*
X43622993Y-47310496D01*
X43646197Y-47304684D01*
X43669858Y-47301174D01*
X43693750Y-47300000D01*
X44181250Y-47300000D01*
X44205142Y-47301174D01*
X44205142Y-47301174D01*
G37*
D12*
G04 #@! TD*
G04 #@! TO.P,C4,2*
G04 #@! TO.N,Net-(C4-Pad2)*
X43937500Y-48000000D03*
D11*
G04 #@! TO.N,GND*
G04 #@! TO.C,C5*
G36*
X48205142Y-47301174D02*
X48228803Y-47304684D01*
X48252007Y-47310496D01*
X48274529Y-47318554D01*
X48296153Y-47328782D01*
X48316670Y-47341079D01*
X48335883Y-47355329D01*
X48353607Y-47371393D01*
X48369671Y-47389117D01*
X48383921Y-47408330D01*
X48396218Y-47428847D01*
X48406446Y-47450471D01*
X48414504Y-47472993D01*
X48420316Y-47496197D01*
X48423826Y-47519858D01*
X48425000Y-47543750D01*
X48425000Y-48456250D01*
X48423826Y-48480142D01*
X48420316Y-48503803D01*
X48414504Y-48527007D01*
X48406446Y-48549529D01*
X48396218Y-48571153D01*
X48383921Y-48591670D01*
X48369671Y-48610883D01*
X48353607Y-48628607D01*
X48335883Y-48644671D01*
X48316670Y-48658921D01*
X48296153Y-48671218D01*
X48274529Y-48681446D01*
X48252007Y-48689504D01*
X48228803Y-48695316D01*
X48205142Y-48698826D01*
X48181250Y-48700000D01*
X47693750Y-48700000D01*
X47669858Y-48698826D01*
X47646197Y-48695316D01*
X47622993Y-48689504D01*
X47600471Y-48681446D01*
X47578847Y-48671218D01*
X47558330Y-48658921D01*
X47539117Y-48644671D01*
X47521393Y-48628607D01*
X47505329Y-48610883D01*
X47491079Y-48591670D01*
X47478782Y-48571153D01*
X47468554Y-48549529D01*
X47460496Y-48527007D01*
X47454684Y-48503803D01*
X47451174Y-48480142D01*
X47450000Y-48456250D01*
X47450000Y-47543750D01*
X47451174Y-47519858D01*
X47454684Y-47496197D01*
X47460496Y-47472993D01*
X47468554Y-47450471D01*
X47478782Y-47428847D01*
X47491079Y-47408330D01*
X47505329Y-47389117D01*
X47521393Y-47371393D01*
X47539117Y-47355329D01*
X47558330Y-47341079D01*
X47578847Y-47328782D01*
X47600471Y-47318554D01*
X47622993Y-47310496D01*
X47646197Y-47304684D01*
X47669858Y-47301174D01*
X47693750Y-47300000D01*
X48181250Y-47300000D01*
X48205142Y-47301174D01*
X48205142Y-47301174D01*
G37*
D12*
G04 #@! TD*
G04 #@! TO.P,C5,2*
G04 #@! TO.N,GND*
X47937500Y-48000000D03*
D11*
G04 #@! TO.N,+3V3*
G04 #@! TO.C,C5*
G36*
X46330142Y-47301174D02*
X46353803Y-47304684D01*
X46377007Y-47310496D01*
X46399529Y-47318554D01*
X46421153Y-47328782D01*
X46441670Y-47341079D01*
X46460883Y-47355329D01*
X46478607Y-47371393D01*
X46494671Y-47389117D01*
X46508921Y-47408330D01*
X46521218Y-47428847D01*
X46531446Y-47450471D01*
X46539504Y-47472993D01*
X46545316Y-47496197D01*
X46548826Y-47519858D01*
X46550000Y-47543750D01*
X46550000Y-48456250D01*
X46548826Y-48480142D01*
X46545316Y-48503803D01*
X46539504Y-48527007D01*
X46531446Y-48549529D01*
X46521218Y-48571153D01*
X46508921Y-48591670D01*
X46494671Y-48610883D01*
X46478607Y-48628607D01*
X46460883Y-48644671D01*
X46441670Y-48658921D01*
X46421153Y-48671218D01*
X46399529Y-48681446D01*
X46377007Y-48689504D01*
X46353803Y-48695316D01*
X46330142Y-48698826D01*
X46306250Y-48700000D01*
X45818750Y-48700000D01*
X45794858Y-48698826D01*
X45771197Y-48695316D01*
X45747993Y-48689504D01*
X45725471Y-48681446D01*
X45703847Y-48671218D01*
X45683330Y-48658921D01*
X45664117Y-48644671D01*
X45646393Y-48628607D01*
X45630329Y-48610883D01*
X45616079Y-48591670D01*
X45603782Y-48571153D01*
X45593554Y-48549529D01*
X45585496Y-48527007D01*
X45579684Y-48503803D01*
X45576174Y-48480142D01*
X45575000Y-48456250D01*
X45575000Y-47543750D01*
X45576174Y-47519858D01*
X45579684Y-47496197D01*
X45585496Y-47472993D01*
X45593554Y-47450471D01*
X45603782Y-47428847D01*
X45616079Y-47408330D01*
X45630329Y-47389117D01*
X45646393Y-47371393D01*
X45664117Y-47355329D01*
X45683330Y-47341079D01*
X45703847Y-47328782D01*
X45725471Y-47318554D01*
X45747993Y-47310496D01*
X45771197Y-47304684D01*
X45794858Y-47301174D01*
X45818750Y-47300000D01*
X46306250Y-47300000D01*
X46330142Y-47301174D01*
X46330142Y-47301174D01*
G37*
D12*
G04 #@! TD*
G04 #@! TO.P,C5,1*
G04 #@! TO.N,+3V3*
X46062500Y-48000000D03*
D11*
G04 #@! TO.N,+3V3*
G04 #@! TO.C,C6*
G36*
X50330142Y-47301174D02*
X50353803Y-47304684D01*
X50377007Y-47310496D01*
X50399529Y-47318554D01*
X50421153Y-47328782D01*
X50441670Y-47341079D01*
X50460883Y-47355329D01*
X50478607Y-47371393D01*
X50494671Y-47389117D01*
X50508921Y-47408330D01*
X50521218Y-47428847D01*
X50531446Y-47450471D01*
X50539504Y-47472993D01*
X50545316Y-47496197D01*
X50548826Y-47519858D01*
X50550000Y-47543750D01*
X50550000Y-48456250D01*
X50548826Y-48480142D01*
X50545316Y-48503803D01*
X50539504Y-48527007D01*
X50531446Y-48549529D01*
X50521218Y-48571153D01*
X50508921Y-48591670D01*
X50494671Y-48610883D01*
X50478607Y-48628607D01*
X50460883Y-48644671D01*
X50441670Y-48658921D01*
X50421153Y-48671218D01*
X50399529Y-48681446D01*
X50377007Y-48689504D01*
X50353803Y-48695316D01*
X50330142Y-48698826D01*
X50306250Y-48700000D01*
X49818750Y-48700000D01*
X49794858Y-48698826D01*
X49771197Y-48695316D01*
X49747993Y-48689504D01*
X49725471Y-48681446D01*
X49703847Y-48671218D01*
X49683330Y-48658921D01*
X49664117Y-48644671D01*
X49646393Y-48628607D01*
X49630329Y-48610883D01*
X49616079Y-48591670D01*
X49603782Y-48571153D01*
X49593554Y-48549529D01*
X49585496Y-48527007D01*
X49579684Y-48503803D01*
X49576174Y-48480142D01*
X49575000Y-48456250D01*
X49575000Y-47543750D01*
X49576174Y-47519858D01*
X49579684Y-47496197D01*
X49585496Y-47472993D01*
X49593554Y-47450471D01*
X49603782Y-47428847D01*
X49616079Y-47408330D01*
X49630329Y-47389117D01*
X49646393Y-47371393D01*
X49664117Y-47355329D01*
X49683330Y-47341079D01*
X49703847Y-47328782D01*
X49725471Y-47318554D01*
X49747993Y-47310496D01*
X49771197Y-47304684D01*
X49794858Y-47301174D01*
X49818750Y-47300000D01*
X50306250Y-47300000D01*
X50330142Y-47301174D01*
X50330142Y-47301174D01*
G37*
D12*
G04 #@! TD*
G04 #@! TO.P,C6,1*
G04 #@! TO.N,+3V3*
X50062500Y-48000000D03*
D11*
G04 #@! TO.N,GND*
G04 #@! TO.C,C6*
G36*
X52205142Y-47301174D02*
X52228803Y-47304684D01*
X52252007Y-47310496D01*
X52274529Y-47318554D01*
X52296153Y-47328782D01*
X52316670Y-47341079D01*
X52335883Y-47355329D01*
X52353607Y-47371393D01*
X52369671Y-47389117D01*
X52383921Y-47408330D01*
X52396218Y-47428847D01*
X52406446Y-47450471D01*
X52414504Y-47472993D01*
X52420316Y-47496197D01*
X52423826Y-47519858D01*
X52425000Y-47543750D01*
X52425000Y-48456250D01*
X52423826Y-48480142D01*
X52420316Y-48503803D01*
X52414504Y-48527007D01*
X52406446Y-48549529D01*
X52396218Y-48571153D01*
X52383921Y-48591670D01*
X52369671Y-48610883D01*
X52353607Y-48628607D01*
X52335883Y-48644671D01*
X52316670Y-48658921D01*
X52296153Y-48671218D01*
X52274529Y-48681446D01*
X52252007Y-48689504D01*
X52228803Y-48695316D01*
X52205142Y-48698826D01*
X52181250Y-48700000D01*
X51693750Y-48700000D01*
X51669858Y-48698826D01*
X51646197Y-48695316D01*
X51622993Y-48689504D01*
X51600471Y-48681446D01*
X51578847Y-48671218D01*
X51558330Y-48658921D01*
X51539117Y-48644671D01*
X51521393Y-48628607D01*
X51505329Y-48610883D01*
X51491079Y-48591670D01*
X51478782Y-48571153D01*
X51468554Y-48549529D01*
X51460496Y-48527007D01*
X51454684Y-48503803D01*
X51451174Y-48480142D01*
X51450000Y-48456250D01*
X51450000Y-47543750D01*
X51451174Y-47519858D01*
X51454684Y-47496197D01*
X51460496Y-47472993D01*
X51468554Y-47450471D01*
X51478782Y-47428847D01*
X51491079Y-47408330D01*
X51505329Y-47389117D01*
X51521393Y-47371393D01*
X51539117Y-47355329D01*
X51558330Y-47341079D01*
X51578847Y-47328782D01*
X51600471Y-47318554D01*
X51622993Y-47310496D01*
X51646197Y-47304684D01*
X51669858Y-47301174D01*
X51693750Y-47300000D01*
X52181250Y-47300000D01*
X52205142Y-47301174D01*
X52205142Y-47301174D01*
G37*
D12*
G04 #@! TD*
G04 #@! TO.P,C6,2*
G04 #@! TO.N,GND*
X51937500Y-48000000D03*
D11*
G04 #@! TO.N,GND*
G04 #@! TO.C,C7*
G36*
X56205142Y-47301174D02*
X56228803Y-47304684D01*
X56252007Y-47310496D01*
X56274529Y-47318554D01*
X56296153Y-47328782D01*
X56316670Y-47341079D01*
X56335883Y-47355329D01*
X56353607Y-47371393D01*
X56369671Y-47389117D01*
X56383921Y-47408330D01*
X56396218Y-47428847D01*
X56406446Y-47450471D01*
X56414504Y-47472993D01*
X56420316Y-47496197D01*
X56423826Y-47519858D01*
X56425000Y-47543750D01*
X56425000Y-48456250D01*
X56423826Y-48480142D01*
X56420316Y-48503803D01*
X56414504Y-48527007D01*
X56406446Y-48549529D01*
X56396218Y-48571153D01*
X56383921Y-48591670D01*
X56369671Y-48610883D01*
X56353607Y-48628607D01*
X56335883Y-48644671D01*
X56316670Y-48658921D01*
X56296153Y-48671218D01*
X56274529Y-48681446D01*
X56252007Y-48689504D01*
X56228803Y-48695316D01*
X56205142Y-48698826D01*
X56181250Y-48700000D01*
X55693750Y-48700000D01*
X55669858Y-48698826D01*
X55646197Y-48695316D01*
X55622993Y-48689504D01*
X55600471Y-48681446D01*
X55578847Y-48671218D01*
X55558330Y-48658921D01*
X55539117Y-48644671D01*
X55521393Y-48628607D01*
X55505329Y-48610883D01*
X55491079Y-48591670D01*
X55478782Y-48571153D01*
X55468554Y-48549529D01*
X55460496Y-48527007D01*
X55454684Y-48503803D01*
X55451174Y-48480142D01*
X55450000Y-48456250D01*
X55450000Y-47543750D01*
X55451174Y-47519858D01*
X55454684Y-47496197D01*
X55460496Y-47472993D01*
X55468554Y-47450471D01*
X55478782Y-47428847D01*
X55491079Y-47408330D01*
X55505329Y-47389117D01*
X55521393Y-47371393D01*
X55539117Y-47355329D01*
X55558330Y-47341079D01*
X55578847Y-47328782D01*
X55600471Y-47318554D01*
X55622993Y-47310496D01*
X55646197Y-47304684D01*
X55669858Y-47301174D01*
X55693750Y-47300000D01*
X56181250Y-47300000D01*
X56205142Y-47301174D01*
X56205142Y-47301174D01*
G37*
D12*
G04 #@! TD*
G04 #@! TO.P,C7,2*
G04 #@! TO.N,GND*
X55937500Y-48000000D03*
D11*
G04 #@! TO.N,Net-(C7-Pad1)*
G04 #@! TO.C,C7*
G36*
X54330142Y-47301174D02*
X54353803Y-47304684D01*
X54377007Y-47310496D01*
X54399529Y-47318554D01*
X54421153Y-47328782D01*
X54441670Y-47341079D01*
X54460883Y-47355329D01*
X54478607Y-47371393D01*
X54494671Y-47389117D01*
X54508921Y-47408330D01*
X54521218Y-47428847D01*
X54531446Y-47450471D01*
X54539504Y-47472993D01*
X54545316Y-47496197D01*
X54548826Y-47519858D01*
X54550000Y-47543750D01*
X54550000Y-48456250D01*
X54548826Y-48480142D01*
X54545316Y-48503803D01*
X54539504Y-48527007D01*
X54531446Y-48549529D01*
X54521218Y-48571153D01*
X54508921Y-48591670D01*
X54494671Y-48610883D01*
X54478607Y-48628607D01*
X54460883Y-48644671D01*
X54441670Y-48658921D01*
X54421153Y-48671218D01*
X54399529Y-48681446D01*
X54377007Y-48689504D01*
X54353803Y-48695316D01*
X54330142Y-48698826D01*
X54306250Y-48700000D01*
X53818750Y-48700000D01*
X53794858Y-48698826D01*
X53771197Y-48695316D01*
X53747993Y-48689504D01*
X53725471Y-48681446D01*
X53703847Y-48671218D01*
X53683330Y-48658921D01*
X53664117Y-48644671D01*
X53646393Y-48628607D01*
X53630329Y-48610883D01*
X53616079Y-48591670D01*
X53603782Y-48571153D01*
X53593554Y-48549529D01*
X53585496Y-48527007D01*
X53579684Y-48503803D01*
X53576174Y-48480142D01*
X53575000Y-48456250D01*
X53575000Y-47543750D01*
X53576174Y-47519858D01*
X53579684Y-47496197D01*
X53585496Y-47472993D01*
X53593554Y-47450471D01*
X53603782Y-47428847D01*
X53616079Y-47408330D01*
X53630329Y-47389117D01*
X53646393Y-47371393D01*
X53664117Y-47355329D01*
X53683330Y-47341079D01*
X53703847Y-47328782D01*
X53725471Y-47318554D01*
X53747993Y-47310496D01*
X53771197Y-47304684D01*
X53794858Y-47301174D01*
X53818750Y-47300000D01*
X54306250Y-47300000D01*
X54330142Y-47301174D01*
X54330142Y-47301174D01*
G37*
D12*
G04 #@! TD*
G04 #@! TO.P,C7,1*
G04 #@! TO.N,Net-(C7-Pad1)*
X54062500Y-48000000D03*
D11*
G04 #@! TO.N,Net-(C8-Pad1)*
G04 #@! TO.C,C8*
G36*
X58330142Y-47301174D02*
X58353803Y-47304684D01*
X58377007Y-47310496D01*
X58399529Y-47318554D01*
X58421153Y-47328782D01*
X58441670Y-47341079D01*
X58460883Y-47355329D01*
X58478607Y-47371393D01*
X58494671Y-47389117D01*
X58508921Y-47408330D01*
X58521218Y-47428847D01*
X58531446Y-47450471D01*
X58539504Y-47472993D01*
X58545316Y-47496197D01*
X58548826Y-47519858D01*
X58550000Y-47543750D01*
X58550000Y-48456250D01*
X58548826Y-48480142D01*
X58545316Y-48503803D01*
X58539504Y-48527007D01*
X58531446Y-48549529D01*
X58521218Y-48571153D01*
X58508921Y-48591670D01*
X58494671Y-48610883D01*
X58478607Y-48628607D01*
X58460883Y-48644671D01*
X58441670Y-48658921D01*
X58421153Y-48671218D01*
X58399529Y-48681446D01*
X58377007Y-48689504D01*
X58353803Y-48695316D01*
X58330142Y-48698826D01*
X58306250Y-48700000D01*
X57818750Y-48700000D01*
X57794858Y-48698826D01*
X57771197Y-48695316D01*
X57747993Y-48689504D01*
X57725471Y-48681446D01*
X57703847Y-48671218D01*
X57683330Y-48658921D01*
X57664117Y-48644671D01*
X57646393Y-48628607D01*
X57630329Y-48610883D01*
X57616079Y-48591670D01*
X57603782Y-48571153D01*
X57593554Y-48549529D01*
X57585496Y-48527007D01*
X57579684Y-48503803D01*
X57576174Y-48480142D01*
X57575000Y-48456250D01*
X57575000Y-47543750D01*
X57576174Y-47519858D01*
X57579684Y-47496197D01*
X57585496Y-47472993D01*
X57593554Y-47450471D01*
X57603782Y-47428847D01*
X57616079Y-47408330D01*
X57630329Y-47389117D01*
X57646393Y-47371393D01*
X57664117Y-47355329D01*
X57683330Y-47341079D01*
X57703847Y-47328782D01*
X57725471Y-47318554D01*
X57747993Y-47310496D01*
X57771197Y-47304684D01*
X57794858Y-47301174D01*
X57818750Y-47300000D01*
X58306250Y-47300000D01*
X58330142Y-47301174D01*
X58330142Y-47301174D01*
G37*
D12*
G04 #@! TD*
G04 #@! TO.P,C8,1*
G04 #@! TO.N,Net-(C8-Pad1)*
X58062500Y-48000000D03*
D11*
G04 #@! TO.N,GND*
G04 #@! TO.C,C8*
G36*
X60205142Y-47301174D02*
X60228803Y-47304684D01*
X60252007Y-47310496D01*
X60274529Y-47318554D01*
X60296153Y-47328782D01*
X60316670Y-47341079D01*
X60335883Y-47355329D01*
X60353607Y-47371393D01*
X60369671Y-47389117D01*
X60383921Y-47408330D01*
X60396218Y-47428847D01*
X60406446Y-47450471D01*
X60414504Y-47472993D01*
X60420316Y-47496197D01*
X60423826Y-47519858D01*
X60425000Y-47543750D01*
X60425000Y-48456250D01*
X60423826Y-48480142D01*
X60420316Y-48503803D01*
X60414504Y-48527007D01*
X60406446Y-48549529D01*
X60396218Y-48571153D01*
X60383921Y-48591670D01*
X60369671Y-48610883D01*
X60353607Y-48628607D01*
X60335883Y-48644671D01*
X60316670Y-48658921D01*
X60296153Y-48671218D01*
X60274529Y-48681446D01*
X60252007Y-48689504D01*
X60228803Y-48695316D01*
X60205142Y-48698826D01*
X60181250Y-48700000D01*
X59693750Y-48700000D01*
X59669858Y-48698826D01*
X59646197Y-48695316D01*
X59622993Y-48689504D01*
X59600471Y-48681446D01*
X59578847Y-48671218D01*
X59558330Y-48658921D01*
X59539117Y-48644671D01*
X59521393Y-48628607D01*
X59505329Y-48610883D01*
X59491079Y-48591670D01*
X59478782Y-48571153D01*
X59468554Y-48549529D01*
X59460496Y-48527007D01*
X59454684Y-48503803D01*
X59451174Y-48480142D01*
X59450000Y-48456250D01*
X59450000Y-47543750D01*
X59451174Y-47519858D01*
X59454684Y-47496197D01*
X59460496Y-47472993D01*
X59468554Y-47450471D01*
X59478782Y-47428847D01*
X59491079Y-47408330D01*
X59505329Y-47389117D01*
X59521393Y-47371393D01*
X59539117Y-47355329D01*
X59558330Y-47341079D01*
X59578847Y-47328782D01*
X59600471Y-47318554D01*
X59622993Y-47310496D01*
X59646197Y-47304684D01*
X59669858Y-47301174D01*
X59693750Y-47300000D01*
X60181250Y-47300000D01*
X60205142Y-47301174D01*
X60205142Y-47301174D01*
G37*
D12*
G04 #@! TD*
G04 #@! TO.P,C8,2*
G04 #@! TO.N,GND*
X59937500Y-48000000D03*
D11*
G04 #@! TO.N,+5V*
G04 #@! TO.C,J1*
G36*
X42374505Y-70626204D02*
X42398773Y-70629804D01*
X42422572Y-70635765D01*
X42445671Y-70644030D01*
X42467850Y-70654520D01*
X42488893Y-70667132D01*
X42508599Y-70681747D01*
X42526777Y-70698223D01*
X42543253Y-70716401D01*
X42557868Y-70736107D01*
X42570480Y-70757150D01*
X42580970Y-70779329D01*
X42589235Y-70802428D01*
X42595196Y-70826227D01*
X42598796Y-70850495D01*
X42600000Y-70874999D01*
X42600000Y-72125001D01*
X42598796Y-72149505D01*
X42595196Y-72173773D01*
X42589235Y-72197572D01*
X42580970Y-72220671D01*
X42570480Y-72242850D01*
X42557868Y-72263893D01*
X42543253Y-72283599D01*
X42526777Y-72301777D01*
X42508599Y-72318253D01*
X42488893Y-72332868D01*
X42467850Y-72345480D01*
X42445671Y-72355970D01*
X42422572Y-72364235D01*
X42398773Y-72370196D01*
X42374505Y-72373796D01*
X42350001Y-72375000D01*
X41649999Y-72375000D01*
X41625495Y-72373796D01*
X41601227Y-72370196D01*
X41577428Y-72364235D01*
X41554329Y-72355970D01*
X41532150Y-72345480D01*
X41511107Y-72332868D01*
X41491401Y-72318253D01*
X41473223Y-72301777D01*
X41456747Y-72283599D01*
X41442132Y-72263893D01*
X41429520Y-72242850D01*
X41419030Y-72220671D01*
X41410765Y-72197572D01*
X41404804Y-72173773D01*
X41401204Y-72149505D01*
X41400000Y-72125001D01*
X41400000Y-70874999D01*
X41401204Y-70850495D01*
X41404804Y-70826227D01*
X41410765Y-70802428D01*
X41419030Y-70779329D01*
X41429520Y-70757150D01*
X41442132Y-70736107D01*
X41456747Y-70716401D01*
X41473223Y-70698223D01*
X41491401Y-70681747D01*
X41511107Y-70667132D01*
X41532150Y-70654520D01*
X41554329Y-70644030D01*
X41577428Y-70635765D01*
X41601227Y-70629804D01*
X41625495Y-70626204D01*
X41649999Y-70625000D01*
X42350001Y-70625000D01*
X42374505Y-70626204D01*
X42374505Y-70626204D01*
G37*
D13*
G04 #@! TD*
G04 #@! TO.P,J1,1*
G04 #@! TO.N,+5V*
X42000000Y-71500000D03*
D14*
G04 #@! TO.P,J1,2*
G04 #@! TO.N,GND*
X44000000Y-71500000D03*
G04 #@! TO.P,J1,3*
G04 #@! TO.N,key_up*
X46000000Y-71500000D03*
G04 #@! TO.P,J1,4*
G04 #@! TO.N,key_down*
X48000000Y-71500000D03*
G04 #@! TO.P,J1,5*
G04 #@! TO.N,key_left*
X50000000Y-71500000D03*
G04 #@! TO.P,J1,6*
G04 #@! TO.N,key_right*
X52000000Y-71500000D03*
G04 #@! TO.P,J1,7*
G04 #@! TO.N,key_back*
X54000000Y-71500000D03*
G04 #@! TO.P,J1,8*
G04 #@! TO.N,key_enter*
X56000000Y-71500000D03*
G04 #@! TD*
D11*
G04 #@! TO.N,SCK_5V*
G04 #@! TO.C,J2*
G36*
X45374505Y-59626204D02*
X45398773Y-59629804D01*
X45422572Y-59635765D01*
X45445671Y-59644030D01*
X45467850Y-59654520D01*
X45488893Y-59667132D01*
X45508599Y-59681747D01*
X45526777Y-59698223D01*
X45543253Y-59716401D01*
X45557868Y-59736107D01*
X45570480Y-59757150D01*
X45580970Y-59779329D01*
X45589235Y-59802428D01*
X45595196Y-59826227D01*
X45598796Y-59850495D01*
X45600000Y-59874999D01*
X45600000Y-61125001D01*
X45598796Y-61149505D01*
X45595196Y-61173773D01*
X45589235Y-61197572D01*
X45580970Y-61220671D01*
X45570480Y-61242850D01*
X45557868Y-61263893D01*
X45543253Y-61283599D01*
X45526777Y-61301777D01*
X45508599Y-61318253D01*
X45488893Y-61332868D01*
X45467850Y-61345480D01*
X45445671Y-61355970D01*
X45422572Y-61364235D01*
X45398773Y-61370196D01*
X45374505Y-61373796D01*
X45350001Y-61375000D01*
X44649999Y-61375000D01*
X44625495Y-61373796D01*
X44601227Y-61370196D01*
X44577428Y-61364235D01*
X44554329Y-61355970D01*
X44532150Y-61345480D01*
X44511107Y-61332868D01*
X44491401Y-61318253D01*
X44473223Y-61301777D01*
X44456747Y-61283599D01*
X44442132Y-61263893D01*
X44429520Y-61242850D01*
X44419030Y-61220671D01*
X44410765Y-61197572D01*
X44404804Y-61173773D01*
X44401204Y-61149505D01*
X44400000Y-61125001D01*
X44400000Y-59874999D01*
X44401204Y-59850495D01*
X44404804Y-59826227D01*
X44410765Y-59802428D01*
X44419030Y-59779329D01*
X44429520Y-59757150D01*
X44442132Y-59736107D01*
X44456747Y-59716401D01*
X44473223Y-59698223D01*
X44491401Y-59681747D01*
X44511107Y-59667132D01*
X44532150Y-59654520D01*
X44554329Y-59644030D01*
X44577428Y-59635765D01*
X44601227Y-59629804D01*
X44625495Y-59626204D01*
X44649999Y-59625000D01*
X45350001Y-59625000D01*
X45374505Y-59626204D01*
X45374505Y-59626204D01*
G37*
D13*
G04 #@! TD*
G04 #@! TO.P,J2,1*
G04 #@! TO.N,SCK_5V*
X45000000Y-60500000D03*
D14*
G04 #@! TO.P,J2,2*
G04 #@! TO.N,MOSI_5V*
X47000000Y-60500000D03*
G04 #@! TO.P,J2,3*
G04 #@! TO.N,display_reset_5V*
X49000000Y-60500000D03*
G04 #@! TO.P,J2,4*
G04 #@! TO.N,display_dc_5V*
X51000000Y-60500000D03*
G04 #@! TO.P,J2,5*
G04 #@! TO.N,display_cs_5V*
X53000000Y-60500000D03*
G04 #@! TD*
D15*
G04 #@! TO.P,JP1,2*
G04 #@! TO.N,+3V3*
X61900000Y-68500000D03*
G04 #@! TO.P,JP1,1*
G04 #@! TO.N,display_SJ2*
X60600000Y-68500000D03*
G04 #@! TD*
D16*
G04 #@! TO.P,JP2,1*
G04 #@! TO.N,Net-(JP2-Pad1)*
X62250000Y-46350000D03*
G04 #@! TO.P,JP2,2*
G04 #@! TO.N,D1-MOSI-SDA_3.3V*
X62250000Y-47650000D03*
G04 #@! TD*
D17*
G04 #@! TO.P,Q1,1*
G04 #@! TO.N,+3V3*
X47950000Y-55250000D03*
G04 #@! TO.P,Q1,2*
G04 #@! TO.N,D1-MOSI-SDA_3.3V*
X46050000Y-55250000D03*
G04 #@! TO.P,Q1,3*
G04 #@! TO.N,MOSI_5V*
X47000000Y-57250000D03*
G04 #@! TD*
G04 #@! TO.P,Q2,3*
G04 #@! TO.N,SCK_5V*
X43000000Y-57250000D03*
G04 #@! TO.P,Q2,2*
G04 #@! TO.N,D0-SCLK-SCK_3.3V*
X42050000Y-55250000D03*
G04 #@! TO.P,Q2,1*
G04 #@! TO.N,+3V3*
X43950000Y-55250000D03*
G04 #@! TD*
D18*
G04 #@! TO.P,RN1,5*
G04 #@! TO.N,GND*
X47800000Y-76900000D03*
D19*
G04 #@! TO.P,RN1,6*
X48600000Y-76900000D03*
D18*
G04 #@! TO.P,RN1,8*
X50200000Y-76900000D03*
D19*
G04 #@! TO.P,RN1,7*
X49400000Y-76900000D03*
D18*
G04 #@! TO.P,RN1,4*
G04 #@! TO.N,key_up*
X47800000Y-75100000D03*
D19*
G04 #@! TO.P,RN1,2*
G04 #@! TO.N,key_left*
X49400000Y-75100000D03*
G04 #@! TO.P,RN1,3*
G04 #@! TO.N,key_down*
X48600000Y-75100000D03*
D18*
G04 #@! TO.P,RN1,1*
G04 #@! TO.N,key_right*
X50200000Y-75100000D03*
G04 #@! TD*
G04 #@! TO.P,RN2,1*
G04 #@! TO.N,display_SJ2*
X56950000Y-75100000D03*
D19*
G04 #@! TO.P,RN2,3*
G04 #@! TO.N,key_enter*
X55350000Y-75100000D03*
G04 #@! TO.P,RN2,2*
G04 #@! TO.N,Display_IREF*
X56150000Y-75100000D03*
D18*
G04 #@! TO.P,RN2,4*
G04 #@! TO.N,key_back*
X54550000Y-75100000D03*
D19*
G04 #@! TO.P,RN2,7*
G04 #@! TO.N,GND*
X56150000Y-76900000D03*
D18*
G04 #@! TO.P,RN2,8*
X56950000Y-76900000D03*
D19*
G04 #@! TO.P,RN2,6*
X55350000Y-76900000D03*
D18*
G04 #@! TO.P,RN2,5*
X54550000Y-76900000D03*
G04 #@! TD*
G04 #@! TO.P,RN3,5*
G04 #@! TO.N,+5V*
X44450000Y-51100000D03*
D19*
G04 #@! TO.P,RN3,6*
X43650000Y-51100000D03*
D18*
G04 #@! TO.P,RN3,8*
G04 #@! TO.N,+3V3*
X42050000Y-51100000D03*
D19*
G04 #@! TO.P,RN3,7*
X42850000Y-51100000D03*
D18*
G04 #@! TO.P,RN3,4*
G04 #@! TO.N,SCK_5V*
X44450000Y-52900000D03*
D19*
G04 #@! TO.P,RN3,2*
G04 #@! TO.N,D0-SCLK-SCK_3.3V*
X42850000Y-52900000D03*
G04 #@! TO.P,RN3,3*
G04 #@! TO.N,MOSI_5V*
X43650000Y-52900000D03*
D18*
G04 #@! TO.P,RN3,1*
G04 #@! TO.N,D1-MOSI-SDA_3.3V*
X42050000Y-52900000D03*
G04 #@! TD*
G04 #@! TO.P,RN4,1*
G04 #@! TO.N,CS_3.3V*
X53050000Y-52900000D03*
D19*
G04 #@! TO.P,RN4,3*
G04 #@! TO.N,DC-SA0_3.3V*
X54650000Y-52900000D03*
G04 #@! TO.P,RN4,2*
G04 #@! TO.N,RST_3.3V*
X53850000Y-52900000D03*
D18*
G04 #@! TO.P,RN4,4*
G04 #@! TO.N,N/C*
X55450000Y-52900000D03*
D19*
G04 #@! TO.P,RN4,7*
G04 #@! TO.N,+3V3*
X53850000Y-51100000D03*
D18*
G04 #@! TO.P,RN4,8*
X53050000Y-51100000D03*
D19*
G04 #@! TO.P,RN4,6*
X54650000Y-51100000D03*
D18*
G04 #@! TO.P,RN4,5*
G04 #@! TO.N,N/C*
X55450000Y-51100000D03*
G04 #@! TD*
D20*
G04 #@! TO.P,U1,1*
G04 #@! TO.N,+5V*
X62220000Y-55440000D03*
G04 #@! TO.P,U1,2*
G04 #@! TO.N,GND*
X62220000Y-54500000D03*
G04 #@! TO.P,U1,3*
G04 #@! TO.N,+5V*
X62220000Y-53560000D03*
G04 #@! TO.P,U1,4*
G04 #@! TO.N,N/C*
X59780000Y-53560000D03*
G04 #@! TO.P,U1,5*
G04 #@! TO.N,+3V3*
X59780000Y-55440000D03*
G04 #@! TD*
D21*
G04 #@! TO.P,U2,1*
G04 #@! TO.N,GND*
X38850000Y-44000000D03*
G04 #@! TO.P,U2,2*
G04 #@! TO.N,Net-(C3-Pad1)*
X39550000Y-44000000D03*
G04 #@! TO.P,U2,3*
G04 #@! TO.N,Net-(C3-Pad2)*
X40250000Y-44000000D03*
G04 #@! TO.P,U2,4*
G04 #@! TO.N,Net-(C4-Pad1)*
X40950000Y-44000000D03*
G04 #@! TO.P,U2,5*
G04 #@! TO.N,Net-(C4-Pad2)*
X41650000Y-44000000D03*
G04 #@! TO.P,U2,6*
G04 #@! TO.N,+3V3*
X42350000Y-44000000D03*
G04 #@! TO.P,U2,7*
G04 #@! TO.N,N/C*
X43050000Y-44000000D03*
G04 #@! TO.P,U2,8*
G04 #@! TO.N,GND*
X43750000Y-44000000D03*
G04 #@! TO.P,U2,9*
G04 #@! TO.N,+3V3*
X44450000Y-44000000D03*
G04 #@! TO.P,U2,10*
G04 #@! TO.N,GND*
X45150000Y-44000000D03*
G04 #@! TO.P,U2,11*
G04 #@! TO.N,display_SJ2*
X45850000Y-44000000D03*
G04 #@! TO.P,U2,12*
G04 #@! TO.N,GND*
X46550000Y-44000000D03*
G04 #@! TO.P,U2,13*
G04 #@! TO.N,CS_3.3V*
X47250000Y-44000000D03*
G04 #@! TO.P,U2,14*
G04 #@! TO.N,RST_3.3V*
X47950000Y-44000000D03*
G04 #@! TO.P,U2,15*
G04 #@! TO.N,DC-SA0_3.3V*
X48650000Y-44000000D03*
G04 #@! TO.P,U2,16*
G04 #@! TO.N,N/C*
X49350000Y-44000000D03*
G04 #@! TO.P,U2,17*
X50050000Y-44000000D03*
G04 #@! TO.P,U2,18*
G04 #@! TO.N,D0-SCLK-SCK_3.3V*
X50750000Y-44000000D03*
G04 #@! TO.P,U2,19*
G04 #@! TO.N,D1-MOSI-SDA_3.3V*
X51450000Y-44000000D03*
G04 #@! TO.P,U2,20*
G04 #@! TO.N,Net-(JP2-Pad1)*
X52150000Y-44000000D03*
G04 #@! TO.P,U2,21*
G04 #@! TO.N,N/C*
X52850000Y-44000000D03*
G04 #@! TO.P,U2,22*
X53550000Y-44000000D03*
G04 #@! TO.P,U2,23*
X54250000Y-44000000D03*
G04 #@! TO.P,U2,24*
X54950000Y-44000000D03*
G04 #@! TO.P,U2,25*
X55650000Y-44000000D03*
G04 #@! TO.P,U2,26*
G04 #@! TO.N,Display_IREF*
X56350000Y-44000000D03*
G04 #@! TO.P,U2,27*
G04 #@! TO.N,Net-(C7-Pad1)*
X57050000Y-44000000D03*
G04 #@! TO.P,U2,28*
G04 #@! TO.N,Net-(C8-Pad1)*
X57750000Y-44000000D03*
G04 #@! TO.P,U2,29*
G04 #@! TO.N,GND*
X58450000Y-44000000D03*
G04 #@! TO.P,U2,30*
X59150000Y-44000000D03*
G04 #@! TD*
D11*
G04 #@! TO.N,display_cs_5V*
G04 #@! TO.C,D1*
G36*
X55730142Y-56701174D02*
X55753803Y-56704684D01*
X55777007Y-56710496D01*
X55799529Y-56718554D01*
X55821153Y-56728782D01*
X55841670Y-56741079D01*
X55860883Y-56755329D01*
X55878607Y-56771393D01*
X55894671Y-56789117D01*
X55908921Y-56808330D01*
X55921218Y-56828847D01*
X55931446Y-56850471D01*
X55939504Y-56872993D01*
X55945316Y-56896197D01*
X55948826Y-56919858D01*
X55950000Y-56943750D01*
X55950000Y-57431250D01*
X55948826Y-57455142D01*
X55945316Y-57478803D01*
X55939504Y-57502007D01*
X55931446Y-57524529D01*
X55921218Y-57546153D01*
X55908921Y-57566670D01*
X55894671Y-57585883D01*
X55878607Y-57603607D01*
X55860883Y-57619671D01*
X55841670Y-57633921D01*
X55821153Y-57646218D01*
X55799529Y-57656446D01*
X55777007Y-57664504D01*
X55753803Y-57670316D01*
X55730142Y-57673826D01*
X55706250Y-57675000D01*
X54793750Y-57675000D01*
X54769858Y-57673826D01*
X54746197Y-57670316D01*
X54722993Y-57664504D01*
X54700471Y-57656446D01*
X54678847Y-57646218D01*
X54658330Y-57633921D01*
X54639117Y-57619671D01*
X54621393Y-57603607D01*
X54605329Y-57585883D01*
X54591079Y-57566670D01*
X54578782Y-57546153D01*
X54568554Y-57524529D01*
X54560496Y-57502007D01*
X54554684Y-57478803D01*
X54551174Y-57455142D01*
X54550000Y-57431250D01*
X54550000Y-56943750D01*
X54551174Y-56919858D01*
X54554684Y-56896197D01*
X54560496Y-56872993D01*
X54568554Y-56850471D01*
X54578782Y-56828847D01*
X54591079Y-56808330D01*
X54605329Y-56789117D01*
X54621393Y-56771393D01*
X54639117Y-56755329D01*
X54658330Y-56741079D01*
X54678847Y-56728782D01*
X54700471Y-56718554D01*
X54722993Y-56710496D01*
X54746197Y-56704684D01*
X54769858Y-56701174D01*
X54793750Y-56700000D01*
X55706250Y-56700000D01*
X55730142Y-56701174D01*
X55730142Y-56701174D01*
G37*
D12*
G04 #@! TD*
G04 #@! TO.P,D1,1*
G04 #@! TO.N,display_cs_5V*
X55250000Y-57187500D03*
D11*
G04 #@! TO.N,CS_3.3V*
G04 #@! TO.C,D1*
G36*
X55730142Y-54826174D02*
X55753803Y-54829684D01*
X55777007Y-54835496D01*
X55799529Y-54843554D01*
X55821153Y-54853782D01*
X55841670Y-54866079D01*
X55860883Y-54880329D01*
X55878607Y-54896393D01*
X55894671Y-54914117D01*
X55908921Y-54933330D01*
X55921218Y-54953847D01*
X55931446Y-54975471D01*
X55939504Y-54997993D01*
X55945316Y-55021197D01*
X55948826Y-55044858D01*
X55950000Y-55068750D01*
X55950000Y-55556250D01*
X55948826Y-55580142D01*
X55945316Y-55603803D01*
X55939504Y-55627007D01*
X55931446Y-55649529D01*
X55921218Y-55671153D01*
X55908921Y-55691670D01*
X55894671Y-55710883D01*
X55878607Y-55728607D01*
X55860883Y-55744671D01*
X55841670Y-55758921D01*
X55821153Y-55771218D01*
X55799529Y-55781446D01*
X55777007Y-55789504D01*
X55753803Y-55795316D01*
X55730142Y-55798826D01*
X55706250Y-55800000D01*
X54793750Y-55800000D01*
X54769858Y-55798826D01*
X54746197Y-55795316D01*
X54722993Y-55789504D01*
X54700471Y-55781446D01*
X54678847Y-55771218D01*
X54658330Y-55758921D01*
X54639117Y-55744671D01*
X54621393Y-55728607D01*
X54605329Y-55710883D01*
X54591079Y-55691670D01*
X54578782Y-55671153D01*
X54568554Y-55649529D01*
X54560496Y-55627007D01*
X54554684Y-55603803D01*
X54551174Y-55580142D01*
X54550000Y-55556250D01*
X54550000Y-55068750D01*
X54551174Y-55044858D01*
X54554684Y-55021197D01*
X54560496Y-54997993D01*
X54568554Y-54975471D01*
X54578782Y-54953847D01*
X54591079Y-54933330D01*
X54605329Y-54914117D01*
X54621393Y-54896393D01*
X54639117Y-54880329D01*
X54658330Y-54866079D01*
X54678847Y-54853782D01*
X54700471Y-54843554D01*
X54722993Y-54835496D01*
X54746197Y-54829684D01*
X54769858Y-54826174D01*
X54793750Y-54825000D01*
X55706250Y-54825000D01*
X55730142Y-54826174D01*
X55730142Y-54826174D01*
G37*
D12*
G04 #@! TD*
G04 #@! TO.P,D1,2*
G04 #@! TO.N,CS_3.3V*
X55250000Y-55312500D03*
D11*
G04 #@! TO.N,RST_3.3V*
G04 #@! TO.C,D2*
G36*
X50730142Y-54826174D02*
X50753803Y-54829684D01*
X50777007Y-54835496D01*
X50799529Y-54843554D01*
X50821153Y-54853782D01*
X50841670Y-54866079D01*
X50860883Y-54880329D01*
X50878607Y-54896393D01*
X50894671Y-54914117D01*
X50908921Y-54933330D01*
X50921218Y-54953847D01*
X50931446Y-54975471D01*
X50939504Y-54997993D01*
X50945316Y-55021197D01*
X50948826Y-55044858D01*
X50950000Y-55068750D01*
X50950000Y-55556250D01*
X50948826Y-55580142D01*
X50945316Y-55603803D01*
X50939504Y-55627007D01*
X50931446Y-55649529D01*
X50921218Y-55671153D01*
X50908921Y-55691670D01*
X50894671Y-55710883D01*
X50878607Y-55728607D01*
X50860883Y-55744671D01*
X50841670Y-55758921D01*
X50821153Y-55771218D01*
X50799529Y-55781446D01*
X50777007Y-55789504D01*
X50753803Y-55795316D01*
X50730142Y-55798826D01*
X50706250Y-55800000D01*
X49793750Y-55800000D01*
X49769858Y-55798826D01*
X49746197Y-55795316D01*
X49722993Y-55789504D01*
X49700471Y-55781446D01*
X49678847Y-55771218D01*
X49658330Y-55758921D01*
X49639117Y-55744671D01*
X49621393Y-55728607D01*
X49605329Y-55710883D01*
X49591079Y-55691670D01*
X49578782Y-55671153D01*
X49568554Y-55649529D01*
X49560496Y-55627007D01*
X49554684Y-55603803D01*
X49551174Y-55580142D01*
X49550000Y-55556250D01*
X49550000Y-55068750D01*
X49551174Y-55044858D01*
X49554684Y-55021197D01*
X49560496Y-54997993D01*
X49568554Y-54975471D01*
X49578782Y-54953847D01*
X49591079Y-54933330D01*
X49605329Y-54914117D01*
X49621393Y-54896393D01*
X49639117Y-54880329D01*
X49658330Y-54866079D01*
X49678847Y-54853782D01*
X49700471Y-54843554D01*
X49722993Y-54835496D01*
X49746197Y-54829684D01*
X49769858Y-54826174D01*
X49793750Y-54825000D01*
X50706250Y-54825000D01*
X50730142Y-54826174D01*
X50730142Y-54826174D01*
G37*
D12*
G04 #@! TD*
G04 #@! TO.P,D2,2*
G04 #@! TO.N,RST_3.3V*
X50250000Y-55312500D03*
D11*
G04 #@! TO.N,display_reset_5V*
G04 #@! TO.C,D2*
G36*
X50730142Y-56701174D02*
X50753803Y-56704684D01*
X50777007Y-56710496D01*
X50799529Y-56718554D01*
X50821153Y-56728782D01*
X50841670Y-56741079D01*
X50860883Y-56755329D01*
X50878607Y-56771393D01*
X50894671Y-56789117D01*
X50908921Y-56808330D01*
X50921218Y-56828847D01*
X50931446Y-56850471D01*
X50939504Y-56872993D01*
X50945316Y-56896197D01*
X50948826Y-56919858D01*
X50950000Y-56943750D01*
X50950000Y-57431250D01*
X50948826Y-57455142D01*
X50945316Y-57478803D01*
X50939504Y-57502007D01*
X50931446Y-57524529D01*
X50921218Y-57546153D01*
X50908921Y-57566670D01*
X50894671Y-57585883D01*
X50878607Y-57603607D01*
X50860883Y-57619671D01*
X50841670Y-57633921D01*
X50821153Y-57646218D01*
X50799529Y-57656446D01*
X50777007Y-57664504D01*
X50753803Y-57670316D01*
X50730142Y-57673826D01*
X50706250Y-57675000D01*
X49793750Y-57675000D01*
X49769858Y-57673826D01*
X49746197Y-57670316D01*
X49722993Y-57664504D01*
X49700471Y-57656446D01*
X49678847Y-57646218D01*
X49658330Y-57633921D01*
X49639117Y-57619671D01*
X49621393Y-57603607D01*
X49605329Y-57585883D01*
X49591079Y-57566670D01*
X49578782Y-57546153D01*
X49568554Y-57524529D01*
X49560496Y-57502007D01*
X49554684Y-57478803D01*
X49551174Y-57455142D01*
X49550000Y-57431250D01*
X49550000Y-56943750D01*
X49551174Y-56919858D01*
X49554684Y-56896197D01*
X49560496Y-56872993D01*
X49568554Y-56850471D01*
X49578782Y-56828847D01*
X49591079Y-56808330D01*
X49605329Y-56789117D01*
X49621393Y-56771393D01*
X49639117Y-56755329D01*
X49658330Y-56741079D01*
X49678847Y-56728782D01*
X49700471Y-56718554D01*
X49722993Y-56710496D01*
X49746197Y-56704684D01*
X49769858Y-56701174D01*
X49793750Y-56700000D01*
X50706250Y-56700000D01*
X50730142Y-56701174D01*
X50730142Y-56701174D01*
G37*
D12*
G04 #@! TD*
G04 #@! TO.P,D2,1*
G04 #@! TO.N,display_reset_5V*
X50250000Y-57187500D03*
D11*
G04 #@! TO.N,display_dc_5V*
G04 #@! TO.C,D3*
G36*
X53230142Y-56701174D02*
X53253803Y-56704684D01*
X53277007Y-56710496D01*
X53299529Y-56718554D01*
X53321153Y-56728782D01*
X53341670Y-56741079D01*
X53360883Y-56755329D01*
X53378607Y-56771393D01*
X53394671Y-56789117D01*
X53408921Y-56808330D01*
X53421218Y-56828847D01*
X53431446Y-56850471D01*
X53439504Y-56872993D01*
X53445316Y-56896197D01*
X53448826Y-56919858D01*
X53450000Y-56943750D01*
X53450000Y-57431250D01*
X53448826Y-57455142D01*
X53445316Y-57478803D01*
X53439504Y-57502007D01*
X53431446Y-57524529D01*
X53421218Y-57546153D01*
X53408921Y-57566670D01*
X53394671Y-57585883D01*
X53378607Y-57603607D01*
X53360883Y-57619671D01*
X53341670Y-57633921D01*
X53321153Y-57646218D01*
X53299529Y-57656446D01*
X53277007Y-57664504D01*
X53253803Y-57670316D01*
X53230142Y-57673826D01*
X53206250Y-57675000D01*
X52293750Y-57675000D01*
X52269858Y-57673826D01*
X52246197Y-57670316D01*
X52222993Y-57664504D01*
X52200471Y-57656446D01*
X52178847Y-57646218D01*
X52158330Y-57633921D01*
X52139117Y-57619671D01*
X52121393Y-57603607D01*
X52105329Y-57585883D01*
X52091079Y-57566670D01*
X52078782Y-57546153D01*
X52068554Y-57524529D01*
X52060496Y-57502007D01*
X52054684Y-57478803D01*
X52051174Y-57455142D01*
X52050000Y-57431250D01*
X52050000Y-56943750D01*
X52051174Y-56919858D01*
X52054684Y-56896197D01*
X52060496Y-56872993D01*
X52068554Y-56850471D01*
X52078782Y-56828847D01*
X52091079Y-56808330D01*
X52105329Y-56789117D01*
X52121393Y-56771393D01*
X52139117Y-56755329D01*
X52158330Y-56741079D01*
X52178847Y-56728782D01*
X52200471Y-56718554D01*
X52222993Y-56710496D01*
X52246197Y-56704684D01*
X52269858Y-56701174D01*
X52293750Y-56700000D01*
X53206250Y-56700000D01*
X53230142Y-56701174D01*
X53230142Y-56701174D01*
G37*
D12*
G04 #@! TD*
G04 #@! TO.P,D3,1*
G04 #@! TO.N,display_dc_5V*
X52750000Y-57187500D03*
D11*
G04 #@! TO.N,DC-SA0_3.3V*
G04 #@! TO.C,D3*
G36*
X53230142Y-54826174D02*
X53253803Y-54829684D01*
X53277007Y-54835496D01*
X53299529Y-54843554D01*
X53321153Y-54853782D01*
X53341670Y-54866079D01*
X53360883Y-54880329D01*
X53378607Y-54896393D01*
X53394671Y-54914117D01*
X53408921Y-54933330D01*
X53421218Y-54953847D01*
X53431446Y-54975471D01*
X53439504Y-54997993D01*
X53445316Y-55021197D01*
X53448826Y-55044858D01*
X53450000Y-55068750D01*
X53450000Y-55556250D01*
X53448826Y-55580142D01*
X53445316Y-55603803D01*
X53439504Y-55627007D01*
X53431446Y-55649529D01*
X53421218Y-55671153D01*
X53408921Y-55691670D01*
X53394671Y-55710883D01*
X53378607Y-55728607D01*
X53360883Y-55744671D01*
X53341670Y-55758921D01*
X53321153Y-55771218D01*
X53299529Y-55781446D01*
X53277007Y-55789504D01*
X53253803Y-55795316D01*
X53230142Y-55798826D01*
X53206250Y-55800000D01*
X52293750Y-55800000D01*
X52269858Y-55798826D01*
X52246197Y-55795316D01*
X52222993Y-55789504D01*
X52200471Y-55781446D01*
X52178847Y-55771218D01*
X52158330Y-55758921D01*
X52139117Y-55744671D01*
X52121393Y-55728607D01*
X52105329Y-55710883D01*
X52091079Y-55691670D01*
X52078782Y-55671153D01*
X52068554Y-55649529D01*
X52060496Y-55627007D01*
X52054684Y-55603803D01*
X52051174Y-55580142D01*
X52050000Y-55556250D01*
X52050000Y-55068750D01*
X52051174Y-55044858D01*
X52054684Y-55021197D01*
X52060496Y-54997993D01*
X52068554Y-54975471D01*
X52078782Y-54953847D01*
X52091079Y-54933330D01*
X52105329Y-54914117D01*
X52121393Y-54896393D01*
X52139117Y-54880329D01*
X52158330Y-54866079D01*
X52178847Y-54853782D01*
X52200471Y-54843554D01*
X52222993Y-54835496D01*
X52246197Y-54829684D01*
X52269858Y-54826174D01*
X52293750Y-54825000D01*
X53206250Y-54825000D01*
X53230142Y-54826174D01*
X53230142Y-54826174D01*
G37*
D12*
G04 #@! TD*
G04 #@! TO.P,D3,2*
G04 #@! TO.N,DC-SA0_3.3V*
X52750000Y-55312500D03*
D22*
G04 #@! TO.N,GND*
X38750000Y-45250000D03*
X43750000Y-45250000D03*
X45250000Y-45250000D03*
X60750000Y-51312500D03*
X45350000Y-75600000D03*
X51477711Y-47100000D03*
G04 #@! TO.N,+5V*
X57000000Y-53000000D03*
X47250000Y-51500000D03*
X65000000Y-58200000D03*
X44000000Y-76600000D03*
G04 #@! TO.N,+3V3*
X54650000Y-50300000D03*
X50000000Y-49250000D03*
X43000000Y-52000000D03*
X43750000Y-54500000D03*
G04 #@! TO.N,CS_3.3V*
X52500000Y-53000000D03*
X50750000Y-53000000D03*
X55250000Y-54000000D03*
G04 #@! TO.N,SCK_5V*
X44750000Y-56500000D03*
X45386348Y-54375160D03*
G04 #@! TO.N,display_SJ2*
X55500000Y-65250000D03*
X53500000Y-67750000D03*
G04 #@! TO.N,D1-MOSI-SDA_3.3V*
X46250000Y-56250000D03*
X42220371Y-56474603D03*
X40500000Y-50000000D03*
X51450000Y-43000000D03*
G04 #@! TO.N,D0-SCLK-SCK_3.3V*
X50500000Y-42750000D03*
X42850000Y-53800000D03*
G04 #@! TO.N,Display_IREF*
X55906985Y-45306985D03*
X60000000Y-63800000D03*
X64300000Y-62000000D03*
G04 #@! TD*
D23*
G04 #@! TO.N,GND*
X47800000Y-76900000D02*
X46650000Y-76900000D01*
X44000000Y-74250000D02*
X44000000Y-71500000D01*
X46650000Y-76900000D02*
X45350000Y-75600000D01*
X56950000Y-76900000D02*
X52500000Y-76900000D01*
X50200000Y-76900000D02*
X49750000Y-76900000D01*
X49750000Y-76900000D02*
X47800000Y-76900000D01*
X46550000Y-46612500D02*
X47937500Y-48000000D01*
X46550000Y-44000000D02*
X46550000Y-46612500D01*
X59150000Y-47212500D02*
X59937500Y-48000000D01*
X59150000Y-44000000D02*
X59150000Y-47212500D01*
X58450000Y-44000000D02*
X59150000Y-44000000D01*
X38850000Y-44000000D02*
X38850000Y-45150000D01*
X38850000Y-45150000D02*
X38750000Y-45250000D01*
X43750000Y-44000000D02*
X43750000Y-45250000D01*
X45150000Y-44000000D02*
X45150000Y-45150000D01*
X45150000Y-45150000D02*
X45250000Y-45250000D01*
X46550000Y-45200000D02*
X46550000Y-44000000D01*
X46500000Y-45250000D02*
X46550000Y-45200000D01*
X45250000Y-45250000D02*
X46500000Y-45250000D01*
X60437500Y-48000000D02*
X62250000Y-49812500D01*
X59937500Y-48000000D02*
X60437500Y-48000000D01*
X59381263Y-48556237D02*
X59937500Y-48000000D01*
X58837490Y-49100010D02*
X59381263Y-48556237D01*
X57037510Y-49100010D02*
X58837490Y-49100010D01*
X55937500Y-48000000D02*
X57037510Y-49100010D01*
X52500000Y-76900000D02*
X49750000Y-76900000D01*
X61235000Y-54500000D02*
X61000000Y-54735000D01*
X61000000Y-57312500D02*
X62187500Y-58500000D01*
X61000000Y-54735000D02*
X61000000Y-57312500D01*
X62250000Y-49812500D02*
X60750000Y-51312500D01*
X61235000Y-54500000D02*
X62220000Y-54500000D01*
X60765001Y-54030001D02*
X61235000Y-54500000D01*
X60765001Y-51327501D02*
X60765001Y-54030001D01*
X60750000Y-51312500D02*
X60765001Y-51327501D01*
X60750000Y-51312500D02*
X60750000Y-51312500D01*
X45350000Y-75600000D02*
X44000000Y-74250000D01*
X51937500Y-48000000D02*
X51937500Y-47559789D01*
X51937500Y-47559789D02*
X51477711Y-47100000D01*
G04 #@! TO.N,+5V*
X43650000Y-51100000D02*
X44450000Y-51100000D01*
X42000000Y-74600000D02*
X42000000Y-71500000D01*
X44000000Y-76600000D02*
X42000000Y-74600000D01*
G04 #@! TO.N,+3V3*
X44450000Y-46387500D02*
X46062500Y-48000000D01*
X44450000Y-44000000D02*
X44450000Y-46387500D01*
X53050000Y-51100000D02*
X54650000Y-51100000D01*
X54650000Y-50300000D02*
X54650000Y-50300000D01*
X54650000Y-51100000D02*
X54650000Y-50300000D01*
X59530000Y-55440000D02*
X59780000Y-55440000D01*
X58795000Y-54705000D02*
X59530000Y-55440000D01*
X58794999Y-53074997D02*
X58795000Y-54705000D01*
X55970002Y-50250000D02*
X58794999Y-53074997D01*
X54700000Y-50250000D02*
X55970002Y-50250000D01*
X42050000Y-51100000D02*
X42850000Y-51100000D01*
X42850000Y-50697916D02*
X42850000Y-51100000D01*
X45547916Y-48000000D02*
X42850000Y-50697916D01*
X46062500Y-48000000D02*
X45547916Y-48000000D01*
X54650000Y-50300000D02*
X54700000Y-50250000D01*
X50000000Y-48062500D02*
X50062500Y-48000000D01*
X50000000Y-49250000D02*
X50000000Y-48062500D01*
X60312500Y-55972500D02*
X59780000Y-55440000D01*
X60312500Y-58500000D02*
X60312500Y-55972500D01*
X61900000Y-60087500D02*
X60312500Y-58500000D01*
X61900000Y-68500000D02*
X61900000Y-60087500D01*
X42850000Y-51100000D02*
X42850000Y-51850000D01*
X42850000Y-51850000D02*
X43000000Y-52000000D01*
X43750000Y-55050000D02*
X43950000Y-55250000D01*
X43750000Y-54500000D02*
X43750000Y-55050000D01*
X43537500Y-46387500D02*
X44450000Y-46387500D01*
X42350000Y-45200000D02*
X43537500Y-46387500D01*
X42350000Y-44000000D02*
X42350000Y-45200000D01*
X43424264Y-52000000D02*
X43000000Y-52000000D01*
X45550000Y-52000000D02*
X43424264Y-52000000D01*
X47950000Y-54400000D02*
X45550000Y-52000000D01*
X47950000Y-55250000D02*
X47950000Y-54400000D01*
D24*
G04 #@! TO.N,Net-(C3-Pad2)*
X40250000Y-47687500D02*
X39937500Y-48000000D01*
X40250000Y-44000000D02*
X40250000Y-47687500D01*
G04 #@! TO.N,Net-(C3-Pad1)*
X39550000Y-46512500D02*
X38062500Y-48000000D01*
X39550000Y-44000000D02*
X39550000Y-46512500D01*
G04 #@! TO.N,Net-(C4-Pad1)*
X40950000Y-46887500D02*
X42062500Y-48000000D01*
X40950000Y-44000000D02*
X40950000Y-46887500D01*
G04 #@! TO.N,Net-(C4-Pad2)*
X41650000Y-45712500D02*
X43937500Y-48000000D01*
X41650000Y-44000000D02*
X41650000Y-45712500D01*
G04 #@! TO.N,Net-(C7-Pad1)*
X57050000Y-45012500D02*
X54062500Y-48000000D01*
X57050000Y-44000000D02*
X57050000Y-45012500D01*
G04 #@! TO.N,Net-(C8-Pad1)*
X57750000Y-47687500D02*
X58062500Y-48000000D01*
X57750000Y-44000000D02*
X57750000Y-47687500D01*
G04 #@! TO.N,display_cs_5V*
X53800000Y-60500000D02*
X53000000Y-60500000D01*
X55250000Y-59050000D02*
X53800000Y-60500000D01*
X55250000Y-57187500D02*
X55250000Y-59050000D01*
G04 #@! TO.N,CS_3.3V*
X53050000Y-52900000D02*
X52600000Y-52900000D01*
X52600000Y-52900000D02*
X52500000Y-53000000D01*
X47250000Y-45000000D02*
X48750000Y-46500000D01*
X47250000Y-44000000D02*
X47250000Y-45000000D01*
X48750000Y-51000000D02*
X50750000Y-53000000D01*
X48750000Y-46500000D02*
X48750000Y-51000000D01*
X55250000Y-55312500D02*
X55250000Y-54000000D01*
G04 #@! TO.N,RST_3.3V*
X53850000Y-53500000D02*
X53850000Y-52900000D01*
X53350000Y-54000000D02*
X53850000Y-53500000D01*
X51899999Y-53649999D02*
X52250000Y-54000000D01*
X52250000Y-54000000D02*
X53350000Y-54000000D01*
X51899999Y-50494301D02*
X51899999Y-53649999D01*
X47950000Y-44000000D02*
X47950000Y-45000000D01*
X47950000Y-45000000D02*
X49450000Y-46500000D01*
X51906494Y-46500000D02*
X52750000Y-47343506D01*
X49450000Y-46500000D02*
X51906494Y-46500000D01*
X52750000Y-47343506D02*
X52750000Y-49644300D01*
X52750000Y-49644300D02*
X51899999Y-50494301D01*
X50806237Y-54743761D02*
X51899999Y-53649999D01*
X50806237Y-54756263D02*
X50806237Y-54743761D01*
X50250000Y-55312500D02*
X50806237Y-54756263D01*
G04 #@! TO.N,display_reset_5V*
X49000000Y-58437500D02*
X49000000Y-60500000D01*
X50250000Y-57187500D02*
X49000000Y-58437500D01*
G04 #@! TO.N,display_dc_5V*
X51000000Y-58937500D02*
X52750000Y-57187500D01*
X51000000Y-60500000D02*
X51000000Y-58937500D01*
G04 #@! TO.N,DC-SA0_3.3V*
X54650000Y-52300000D02*
X54650000Y-52900000D01*
X54150001Y-51800001D02*
X54650000Y-52300000D01*
X52559999Y-51800001D02*
X54150001Y-51800001D01*
X52499999Y-51740001D02*
X52559999Y-51800001D01*
X52499999Y-50459999D02*
X52499999Y-51740001D01*
X48650000Y-45000000D02*
X49650000Y-46000000D01*
X48650000Y-44000000D02*
X48650000Y-45000000D01*
X49650000Y-46000000D02*
X52500000Y-46000000D01*
X52500000Y-46000000D02*
X53250000Y-46750000D01*
X53250000Y-46750000D02*
X53250000Y-49709998D01*
X53250000Y-49709998D02*
X52499999Y-50459999D01*
X53306237Y-54756263D02*
X52750000Y-55312500D01*
X54350001Y-53712499D02*
X53306237Y-54756263D01*
X54350001Y-53149999D02*
X54350001Y-53712499D01*
X54600000Y-52900000D02*
X54350001Y-53149999D01*
X54650000Y-52900000D02*
X54600000Y-52900000D01*
G04 #@! TO.N,key_up*
X47350000Y-75100000D02*
X47800000Y-75100000D01*
X46000000Y-73750000D02*
X47350000Y-75100000D01*
X46000000Y-71500000D02*
X46000000Y-73750000D01*
G04 #@! TO.N,key_down*
X48600000Y-74500000D02*
X48600000Y-75100000D01*
X48600000Y-73175000D02*
X48600000Y-74500000D01*
X48000000Y-72575000D02*
X48600000Y-73175000D01*
X48000000Y-71500000D02*
X48000000Y-72575000D01*
G04 #@! TO.N,key_left*
X49400000Y-74500000D02*
X49400000Y-75100000D01*
X49400000Y-73175000D02*
X49400000Y-74500000D01*
X50000000Y-72575000D02*
X49400000Y-73175000D01*
X50000000Y-71500000D02*
X50000000Y-72575000D01*
G04 #@! TO.N,key_right*
X50650000Y-75100000D02*
X50200000Y-75100000D01*
X52000000Y-73750000D02*
X50650000Y-75100000D01*
X52000000Y-71500000D02*
X52000000Y-73750000D01*
G04 #@! TO.N,key_back*
X54100000Y-75100000D02*
X54550000Y-75100000D01*
X54000000Y-75000000D02*
X54100000Y-75100000D01*
X54000000Y-71500000D02*
X54000000Y-75000000D01*
G04 #@! TO.N,key_enter*
X55350000Y-74500000D02*
X55350000Y-75100000D01*
X55350000Y-73225000D02*
X55350000Y-74500000D01*
X56000000Y-72575000D02*
X55350000Y-73225000D01*
X56000000Y-71500000D02*
X56000000Y-72575000D01*
G04 #@! TO.N,SCK_5V*
X43000000Y-58500000D02*
X45000000Y-60500000D01*
X43000000Y-57250000D02*
X43000000Y-58500000D01*
X43000000Y-57250000D02*
X44000000Y-57250000D01*
X44000000Y-57250000D02*
X44750000Y-56500000D01*
X44900000Y-52900000D02*
X44450000Y-52900000D01*
X45386348Y-53386348D02*
X44900000Y-52900000D01*
X45386348Y-54375160D02*
X45386348Y-53386348D01*
G04 #@! TO.N,MOSI_5V*
X47000000Y-57250000D02*
X47000000Y-60500000D01*
X43650000Y-53500000D02*
X43650000Y-52900000D01*
X44650001Y-54500001D02*
X43650000Y-53500000D01*
X44650001Y-55500001D02*
X44650001Y-54500001D01*
X46400000Y-57250000D02*
X44650001Y-55500001D01*
X47000000Y-57250000D02*
X46400000Y-57250000D01*
G04 #@! TO.N,display_SJ2*
X59900000Y-68500000D02*
X60600000Y-68500000D01*
X56950000Y-71450000D02*
X59900000Y-68500000D01*
X56950000Y-75100000D02*
X56950000Y-71450000D01*
X60600000Y-68500000D02*
X58750000Y-68500000D01*
X58750000Y-68500000D02*
X55500000Y-65250000D01*
X45850000Y-43000000D02*
X45850000Y-44000000D01*
X53500000Y-67750000D02*
X53200001Y-67450001D01*
X53200001Y-67450001D02*
X43950001Y-67450001D01*
X43950001Y-67450001D02*
X34250000Y-57750000D01*
X45749999Y-42899999D02*
X45850000Y-43000000D01*
X34250000Y-57750000D02*
X34250000Y-47084998D01*
X34250000Y-47084998D02*
X38434999Y-42899999D01*
X38434999Y-42899999D02*
X45749999Y-42899999D01*
G04 #@! TO.N,Net-(JP2-Pad1)*
X62250000Y-45650000D02*
X62250000Y-46350000D01*
X62250000Y-45584998D02*
X62250000Y-45650000D01*
X59565001Y-42899999D02*
X62250000Y-45584998D01*
X52250001Y-42899999D02*
X59565001Y-42899999D01*
X52150000Y-43000000D02*
X52250001Y-42899999D01*
X52150000Y-44000000D02*
X52150000Y-43000000D01*
G04 #@! TO.N,D1-MOSI-SDA_3.3V*
X63200000Y-47650000D02*
X62250000Y-47650000D01*
X63300001Y-47549999D02*
X63200000Y-47650000D01*
X60189991Y-42499989D02*
X63300001Y-45609999D01*
X63300001Y-45609999D02*
X63300001Y-47549999D01*
X51950011Y-42499989D02*
X60189991Y-42499989D01*
X51450000Y-43000000D02*
X51950011Y-42499989D01*
X51450000Y-44000000D02*
X51450000Y-43000000D01*
X46050000Y-55250000D02*
X46050000Y-56050000D01*
X46050000Y-56050000D02*
X46250000Y-56250000D01*
X42050000Y-53500000D02*
X42050000Y-52900000D01*
X41349999Y-54200001D02*
X42050000Y-53500000D01*
X41349999Y-56028495D02*
X41349999Y-54200001D01*
X41796107Y-56474603D02*
X41349999Y-56028495D01*
X42220371Y-56474603D02*
X41796107Y-56474603D01*
X40500000Y-50750000D02*
X40500000Y-50000000D01*
X42050000Y-52900000D02*
X42050000Y-52300000D01*
X42050000Y-52300000D02*
X40500000Y-50750000D01*
G04 #@! TO.N,D0-SCLK-SCK_3.3V*
X42850000Y-53500000D02*
X42850000Y-52900000D01*
X42850000Y-53800000D02*
X42850000Y-53500000D01*
X42050000Y-54600000D02*
X42850000Y-53800000D01*
X42050000Y-55250000D02*
X42050000Y-54600000D01*
X50750000Y-44000000D02*
X50750000Y-43000000D01*
X50750000Y-43000000D02*
X50500000Y-42750000D01*
X42800002Y-52949998D02*
X42850000Y-52900000D01*
X42800002Y-53250000D02*
X42800002Y-52949998D01*
G04 #@! TO.N,Display_IREF*
X56350000Y-44000000D02*
X56350000Y-44863970D01*
X56350000Y-44863970D02*
X55906985Y-45306985D01*
X56150000Y-75700000D02*
X56150000Y-75100000D01*
X56049999Y-75800001D02*
X56150000Y-75700000D01*
X60199999Y-75800001D02*
X56049999Y-75800001D01*
X64300000Y-71700000D02*
X60199999Y-75800001D01*
X64300000Y-62000000D02*
X64300000Y-71700000D01*
G04 #@! TD*
D25*
G04 #@! TO.N,+5V*
G36*
X41873000Y-34000000D02*
X41882667Y-34048601D01*
X41910197Y-34089803D01*
X41951399Y-34117333D01*
X42000000Y-34127000D01*
X56000000Y-34127000D01*
X56048601Y-34117333D01*
X56089803Y-34089803D01*
X56117333Y-34048601D01*
X56127000Y-34000000D01*
X56127000Y-31654887D01*
X64265000Y-31654887D01*
X64265000Y-32345113D01*
X64529138Y-32982799D01*
X65017201Y-33470862D01*
X65654887Y-33735000D01*
X66345113Y-33735000D01*
X66982799Y-33470862D01*
X67470862Y-32982799D01*
X67735000Y-32345113D01*
X67735000Y-31654887D01*
X67470862Y-31017201D01*
X66982799Y-30529138D01*
X66345113Y-30265000D01*
X65654887Y-30265000D01*
X65017201Y-30529138D01*
X64529138Y-31017201D01*
X64265000Y-31654887D01*
X56127000Y-31654887D01*
X56127000Y-30127000D01*
X67873000Y-30127000D01*
X67873000Y-88873000D01*
X30127000Y-88873000D01*
X30127000Y-86654887D01*
X30265000Y-86654887D01*
X30265000Y-87345113D01*
X30529138Y-87982799D01*
X31017201Y-88470862D01*
X31654887Y-88735000D01*
X32345113Y-88735000D01*
X32982799Y-88470862D01*
X33470862Y-87982799D01*
X33735000Y-87345113D01*
X33735000Y-86654887D01*
X64265000Y-86654887D01*
X64265000Y-87345113D01*
X64529138Y-87982799D01*
X65017201Y-88470862D01*
X65654887Y-88735000D01*
X66345113Y-88735000D01*
X66982799Y-88470862D01*
X67470862Y-87982799D01*
X67735000Y-87345113D01*
X67735000Y-86654887D01*
X67470862Y-86017201D01*
X66982799Y-85529138D01*
X66345113Y-85265000D01*
X65654887Y-85265000D01*
X65017201Y-85529138D01*
X64529138Y-86017201D01*
X64265000Y-86654887D01*
X33735000Y-86654887D01*
X33470862Y-86017201D01*
X32982799Y-85529138D01*
X32345113Y-85265000D01*
X31654887Y-85265000D01*
X31017201Y-85529138D01*
X30529138Y-86017201D01*
X30265000Y-86654887D01*
X30127000Y-86654887D01*
X30127000Y-79235000D01*
X38707857Y-79235000D01*
X38707857Y-82955000D01*
X50892143Y-82955000D01*
X50892143Y-79235000D01*
X38707857Y-79235000D01*
X30127000Y-79235000D01*
X30127000Y-71785750D01*
X40765000Y-71785750D01*
X40765000Y-72501310D01*
X40861673Y-72734699D01*
X41040302Y-72913327D01*
X41273691Y-73010000D01*
X41714250Y-73010000D01*
X41873000Y-72851250D01*
X41873000Y-71627000D01*
X40923750Y-71627000D01*
X40765000Y-71785750D01*
X30127000Y-71785750D01*
X30127000Y-70498690D01*
X40765000Y-70498690D01*
X40765000Y-71214250D01*
X40923750Y-71373000D01*
X41873000Y-71373000D01*
X41873000Y-70148750D01*
X41714250Y-69990000D01*
X41273691Y-69990000D01*
X41040302Y-70086673D01*
X40861673Y-70265301D01*
X40765000Y-70498690D01*
X30127000Y-70498690D01*
X30127000Y-47084998D01*
X33500602Y-47084998D01*
X33515001Y-47157387D01*
X33515000Y-57677616D01*
X33500602Y-57750000D01*
X33515000Y-57822384D01*
X33515000Y-57822387D01*
X33557646Y-58036782D01*
X33720095Y-58279905D01*
X33781465Y-58320911D01*
X43379091Y-67918538D01*
X43420096Y-67979906D01*
X43663218Y-68142355D01*
X43877613Y-68185001D01*
X43877617Y-68185001D01*
X43950001Y-68199399D01*
X44022385Y-68185001D01*
X52668146Y-68185001D01*
X52707345Y-68279635D01*
X52970365Y-68542655D01*
X53314017Y-68685000D01*
X53685983Y-68685000D01*
X54029635Y-68542655D01*
X54292655Y-68279635D01*
X54435000Y-67935983D01*
X54435000Y-67564017D01*
X54292655Y-67220365D01*
X54029635Y-66957345D01*
X53685983Y-66815000D01*
X53572619Y-66815000D01*
X53486784Y-66757647D01*
X53272389Y-66715001D01*
X53272385Y-66715001D01*
X53200001Y-66700603D01*
X53127617Y-66715001D01*
X44254448Y-66715001D01*
X41153464Y-63614017D01*
X59065000Y-63614017D01*
X59065000Y-63985983D01*
X59207345Y-64329635D01*
X59470365Y-64592655D01*
X59814017Y-64735000D01*
X60185983Y-64735000D01*
X60529635Y-64592655D01*
X60792655Y-64329635D01*
X60935000Y-63985983D01*
X60935000Y-63614017D01*
X60792655Y-63270365D01*
X60529635Y-63007345D01*
X60185983Y-62865000D01*
X59814017Y-62865000D01*
X59470365Y-63007345D01*
X59207345Y-63270365D01*
X59065000Y-63614017D01*
X41153464Y-63614017D01*
X34985000Y-57445554D01*
X34985000Y-47389444D01*
X38015000Y-44359444D01*
X38015001Y-44662709D01*
X37957345Y-44720365D01*
X37815000Y-45064017D01*
X37815000Y-45435983D01*
X37957345Y-45779635D01*
X38220365Y-46042655D01*
X38564017Y-46185000D01*
X38815001Y-46185000D01*
X38815001Y-46208052D01*
X38359835Y-46663219D01*
X38306250Y-46652560D01*
X37818750Y-46652560D01*
X37477706Y-46720398D01*
X37188584Y-46913584D01*
X36995398Y-47202706D01*
X36927560Y-47543750D01*
X36927560Y-48456250D01*
X36995398Y-48797294D01*
X37188584Y-49086416D01*
X37477706Y-49279602D01*
X37818750Y-49347440D01*
X38306250Y-49347440D01*
X38647294Y-49279602D01*
X38936416Y-49086416D01*
X39000000Y-48991256D01*
X39063584Y-49086416D01*
X39352706Y-49279602D01*
X39693750Y-49347440D01*
X39830270Y-49347440D01*
X39707345Y-49470365D01*
X39565000Y-49814017D01*
X39565000Y-50185983D01*
X39707345Y-50529635D01*
X39765000Y-50587290D01*
X39765000Y-50677616D01*
X39750602Y-50750000D01*
X39765000Y-50822384D01*
X39765000Y-50822387D01*
X39807646Y-51036782D01*
X39970095Y-51279905D01*
X40031465Y-51320911D01*
X41162182Y-52451628D01*
X41152560Y-52500000D01*
X41152560Y-53300000D01*
X41162182Y-53348372D01*
X40881462Y-53629092D01*
X40820095Y-53670096D01*
X40779091Y-53731463D01*
X40779090Y-53731464D01*
X40657645Y-53913219D01*
X40600601Y-54200001D01*
X40615000Y-54272390D01*
X40614999Y-55956110D01*
X40600601Y-56028495D01*
X40614999Y-56100879D01*
X40614999Y-56100882D01*
X40657645Y-56315277D01*
X40820094Y-56558400D01*
X40881464Y-56599406D01*
X41225196Y-56943138D01*
X41266202Y-57004508D01*
X41509324Y-57166957D01*
X41610575Y-57187097D01*
X41690736Y-57267258D01*
X41952560Y-57375709D01*
X41952560Y-57700000D01*
X42001843Y-57947765D01*
X42142191Y-58157809D01*
X42265001Y-58239868D01*
X42265001Y-58427611D01*
X42250602Y-58500000D01*
X42307646Y-58786782D01*
X42307647Y-58786783D01*
X42470096Y-59029905D01*
X42531463Y-59070909D01*
X43752560Y-60292007D01*
X43752560Y-61125001D01*
X43820873Y-61468436D01*
X44015414Y-61759586D01*
X44306564Y-61954127D01*
X44649999Y-62022440D01*
X45350001Y-62022440D01*
X45693436Y-61954127D01*
X45984586Y-61759586D01*
X46078573Y-61618926D01*
X46109616Y-61665385D01*
X46518128Y-61938344D01*
X47000000Y-62034195D01*
X47481873Y-61938344D01*
X47890385Y-61665385D01*
X48000000Y-61501334D01*
X48109616Y-61665385D01*
X48518128Y-61938344D01*
X49000000Y-62034195D01*
X49481873Y-61938344D01*
X49890385Y-61665385D01*
X50000000Y-61501334D01*
X50109616Y-61665385D01*
X50518128Y-61938344D01*
X51000000Y-62034195D01*
X51481873Y-61938344D01*
X51890385Y-61665385D01*
X52000000Y-61501334D01*
X52109616Y-61665385D01*
X52518128Y-61938344D01*
X53000000Y-62034195D01*
X53481873Y-61938344D01*
X53890385Y-61665385D01*
X54163344Y-61256872D01*
X54189880Y-61123467D01*
X54329905Y-61029905D01*
X54370911Y-60968535D01*
X55718537Y-59620910D01*
X55779905Y-59579905D01*
X55942354Y-59336783D01*
X55985000Y-59122388D01*
X55999399Y-59050000D01*
X55985000Y-58977612D01*
X55985000Y-58266993D01*
X56047294Y-58254602D01*
X56336416Y-58061416D01*
X56529602Y-57772294D01*
X56597440Y-57431250D01*
X56597440Y-56943750D01*
X56529602Y-56602706D01*
X56336416Y-56313584D01*
X56241256Y-56250000D01*
X56336416Y-56186416D01*
X56529602Y-55897294D01*
X56597440Y-55556250D01*
X56597440Y-55068750D01*
X56529602Y-54727706D01*
X56336416Y-54438584D01*
X56135873Y-54304585D01*
X56185000Y-54185983D01*
X56185000Y-53814017D01*
X56160222Y-53754198D01*
X56298157Y-53547765D01*
X56347440Y-53300000D01*
X56347440Y-52500000D01*
X56298157Y-52252235D01*
X56157809Y-52042191D01*
X56094666Y-52000000D01*
X56157809Y-51957809D01*
X56293648Y-51754513D01*
X57959999Y-53420865D01*
X57960001Y-54622763D01*
X57943643Y-54705000D01*
X58008448Y-55030800D01*
X58035249Y-55070910D01*
X58193000Y-55307001D01*
X58262718Y-55353585D01*
X58547560Y-55638427D01*
X58547560Y-55775000D01*
X58596843Y-56022765D01*
X58737191Y-56232809D01*
X58947235Y-56373157D01*
X59195000Y-56422440D01*
X59477501Y-56422440D01*
X59477500Y-57387581D01*
X59438584Y-57413584D01*
X59245398Y-57702706D01*
X59177560Y-58043750D01*
X59177560Y-58956250D01*
X59245398Y-59297294D01*
X59438584Y-59586416D01*
X59727706Y-59779602D01*
X60068750Y-59847440D01*
X60479073Y-59847440D01*
X61065001Y-60433369D01*
X61065000Y-67102560D01*
X60100000Y-67102560D01*
X59852235Y-67151843D01*
X59642191Y-67292191D01*
X59501843Y-67502235D01*
X59452560Y-67750000D01*
X59452560Y-67765000D01*
X59054447Y-67765000D01*
X56435000Y-65145554D01*
X56435000Y-65064017D01*
X56292655Y-64720365D01*
X56029635Y-64457345D01*
X55685983Y-64315000D01*
X55314017Y-64315000D01*
X54970365Y-64457345D01*
X54707345Y-64720365D01*
X54565000Y-65064017D01*
X54565000Y-65435983D01*
X54707345Y-65779635D01*
X54970365Y-66042655D01*
X55314017Y-66185000D01*
X55395554Y-66185000D01*
X58179091Y-68968537D01*
X58220095Y-69029905D01*
X58286367Y-69074186D01*
X56944680Y-70415874D01*
X56890385Y-70334615D01*
X56481872Y-70061656D01*
X56000000Y-69965805D01*
X55518127Y-70061656D01*
X55109615Y-70334615D01*
X55000000Y-70498666D01*
X54890385Y-70334615D01*
X54481872Y-70061656D01*
X54000000Y-69965805D01*
X53518127Y-70061656D01*
X53109615Y-70334615D01*
X53000000Y-70498666D01*
X52890385Y-70334615D01*
X52481872Y-70061656D01*
X52000000Y-69965805D01*
X51518127Y-70061656D01*
X51109615Y-70334615D01*
X51000000Y-70498666D01*
X50890385Y-70334615D01*
X50481872Y-70061656D01*
X50000000Y-69965805D01*
X49518127Y-70061656D01*
X49109615Y-70334615D01*
X49000000Y-70498666D01*
X48890385Y-70334615D01*
X48481872Y-70061656D01*
X48000000Y-69965805D01*
X47518127Y-70061656D01*
X47109615Y-70334615D01*
X47000000Y-70498666D01*
X46890385Y-70334615D01*
X46481872Y-70061656D01*
X46000000Y-69965805D01*
X45518127Y-70061656D01*
X45109615Y-70334615D01*
X45000000Y-70498666D01*
X44890385Y-70334615D01*
X44481872Y-70061656D01*
X44000000Y-69965805D01*
X43518127Y-70061656D01*
X43154590Y-70304564D01*
X43138327Y-70265301D01*
X42959698Y-70086673D01*
X42726309Y-69990000D01*
X42285750Y-69990000D01*
X42127000Y-70148750D01*
X42127000Y-71373000D01*
X42147000Y-71373000D01*
X42147000Y-71627000D01*
X42127000Y-71627000D01*
X42127000Y-72851250D01*
X42285750Y-73010000D01*
X42726309Y-73010000D01*
X42959698Y-72913327D01*
X43138327Y-72734699D01*
X43154590Y-72695436D01*
X43165001Y-72702392D01*
X43165000Y-74167767D01*
X43148643Y-74250000D01*
X43165000Y-74332233D01*
X43165000Y-74332236D01*
X43213448Y-74575800D01*
X43397999Y-74852001D01*
X43467720Y-74898587D01*
X44457345Y-75888214D01*
X44557345Y-76129635D01*
X44820365Y-76392655D01*
X45061788Y-76492656D01*
X46001415Y-77432282D01*
X46047999Y-77502001D01*
X46324199Y-77686552D01*
X46567763Y-77735000D01*
X46650000Y-77751358D01*
X46732237Y-77735000D01*
X47076950Y-77735000D01*
X47092191Y-77757809D01*
X47302235Y-77898157D01*
X47550000Y-77947440D01*
X48050000Y-77947440D01*
X48225000Y-77912631D01*
X48400000Y-77947440D01*
X48800000Y-77947440D01*
X49000000Y-77907658D01*
X49200000Y-77947440D01*
X49600000Y-77947440D01*
X49775000Y-77912631D01*
X49950000Y-77947440D01*
X50450000Y-77947440D01*
X50697765Y-77898157D01*
X50907809Y-77757809D01*
X50923050Y-77735000D01*
X53826950Y-77735000D01*
X53842191Y-77757809D01*
X54052235Y-77898157D01*
X54300000Y-77947440D01*
X54800000Y-77947440D01*
X54975000Y-77912631D01*
X55150000Y-77947440D01*
X55550000Y-77947440D01*
X55750000Y-77907658D01*
X55950000Y-77947440D01*
X56350000Y-77947440D01*
X56525000Y-77912631D01*
X56700000Y-77947440D01*
X57200000Y-77947440D01*
X57447765Y-77898157D01*
X57657809Y-77757809D01*
X57798157Y-77547765D01*
X57847440Y-77300000D01*
X57847440Y-76535001D01*
X60127615Y-76535001D01*
X60199999Y-76549399D01*
X60272383Y-76535001D01*
X60272387Y-76535001D01*
X60486782Y-76492355D01*
X60729904Y-76329906D01*
X60770910Y-76268536D01*
X64768538Y-72270909D01*
X64829905Y-72229905D01*
X64992354Y-71986783D01*
X65035000Y-71772388D01*
X65035000Y-71772385D01*
X65049398Y-71700001D01*
X65035000Y-71627617D01*
X65035000Y-62587290D01*
X65092655Y-62529635D01*
X65235000Y-62185983D01*
X65235000Y-61814017D01*
X65092655Y-61470365D01*
X64829635Y-61207345D01*
X64485983Y-61065000D01*
X64114017Y-61065000D01*
X63770365Y-61207345D01*
X63507345Y-61470365D01*
X63365000Y-61814017D01*
X63365000Y-62185983D01*
X63507345Y-62529635D01*
X63565000Y-62587290D01*
X63565001Y-71395552D01*
X59895553Y-75065001D01*
X57847440Y-75065001D01*
X57847440Y-74700000D01*
X57798157Y-74452235D01*
X57685000Y-74282885D01*
X57685000Y-71754446D01*
X59695810Y-69743637D01*
X59852235Y-69848157D01*
X60100000Y-69897440D01*
X61100000Y-69897440D01*
X61250000Y-69867603D01*
X61400000Y-69897440D01*
X62400000Y-69897440D01*
X62647765Y-69848157D01*
X62857809Y-69707809D01*
X62998157Y-69497765D01*
X63047440Y-69250000D01*
X63047440Y-67750000D01*
X62998157Y-67502235D01*
X62857809Y-67292191D01*
X62735000Y-67210132D01*
X62735000Y-60169732D01*
X62751357Y-60087499D01*
X62735000Y-60005266D01*
X62735000Y-60005263D01*
X62693241Y-59795327D01*
X62772294Y-59779602D01*
X63061416Y-59586416D01*
X63254602Y-59297294D01*
X63322440Y-58956250D01*
X63322440Y-58043750D01*
X63254602Y-57702706D01*
X63061416Y-57413584D01*
X62772294Y-57220398D01*
X62431250Y-57152560D01*
X62020927Y-57152560D01*
X61835000Y-56966633D01*
X61835000Y-56410000D01*
X61934250Y-56410000D01*
X62093000Y-56251250D01*
X62093000Y-55567000D01*
X62347000Y-55567000D01*
X62347000Y-56251250D01*
X62505750Y-56410000D01*
X62931310Y-56410000D01*
X63164699Y-56313327D01*
X63343327Y-56134698D01*
X63440000Y-55901309D01*
X63440000Y-55725750D01*
X63281250Y-55567000D01*
X62347000Y-55567000D01*
X62093000Y-55567000D01*
X62073000Y-55567000D01*
X62073000Y-55482440D01*
X62805000Y-55482440D01*
X63052765Y-55433157D01*
X63232591Y-55313000D01*
X63281250Y-55313000D01*
X63440000Y-55154250D01*
X63440000Y-54978691D01*
X63429095Y-54952364D01*
X63452440Y-54835000D01*
X63452440Y-54165000D01*
X63429095Y-54047636D01*
X63440000Y-54021309D01*
X63440000Y-53845750D01*
X63281250Y-53687000D01*
X63232591Y-53687000D01*
X63052765Y-53566843D01*
X62805000Y-53517560D01*
X62073000Y-53517560D01*
X62073000Y-53433000D01*
X62093000Y-53433000D01*
X62093000Y-52748750D01*
X62347000Y-52748750D01*
X62347000Y-53433000D01*
X63281250Y-53433000D01*
X63440000Y-53274250D01*
X63440000Y-53098691D01*
X63343327Y-52865302D01*
X63226016Y-52747990D01*
X63309699Y-52713327D01*
X63488327Y-52534698D01*
X63585000Y-52301309D01*
X63585000Y-51973250D01*
X63426250Y-51814500D01*
X62377000Y-51814500D01*
X62377000Y-52651250D01*
X62410750Y-52685000D01*
X62347000Y-52748750D01*
X62093000Y-52748750D01*
X62059250Y-52715000D01*
X62123000Y-52651250D01*
X62123000Y-51814500D01*
X62103000Y-51814500D01*
X62103000Y-51560500D01*
X62123000Y-51560500D01*
X62123000Y-51540500D01*
X62377000Y-51540500D01*
X62377000Y-51560500D01*
X63426250Y-51560500D01*
X63585000Y-51401750D01*
X63585000Y-51073691D01*
X63488327Y-50840302D01*
X63335233Y-50687207D01*
X63336416Y-50686416D01*
X63529602Y-50397294D01*
X63597440Y-50056250D01*
X63597440Y-49568750D01*
X63529602Y-49227706D01*
X63336416Y-48938584D01*
X63096464Y-48778252D01*
X63247765Y-48748157D01*
X63457809Y-48607809D01*
X63598157Y-48397765D01*
X63627940Y-48248036D01*
X63729905Y-48179905D01*
X63769960Y-48119959D01*
X63829906Y-48079904D01*
X63992355Y-47836782D01*
X64035001Y-47622387D01*
X64049400Y-47549999D01*
X64035001Y-47477611D01*
X64035001Y-45682382D01*
X64049399Y-45609998D01*
X64035001Y-45537612D01*
X64035001Y-45537611D01*
X63992355Y-45323216D01*
X63829906Y-45080094D01*
X63768539Y-45039090D01*
X60760902Y-42031454D01*
X60719896Y-41970084D01*
X60476774Y-41807635D01*
X60262379Y-41764989D01*
X60262375Y-41764989D01*
X60189991Y-41750591D01*
X60117607Y-41764989D01*
X52022394Y-41764989D01*
X51950010Y-41750591D01*
X51877626Y-41764989D01*
X51877623Y-41764989D01*
X51663228Y-41807635D01*
X51420106Y-41970084D01*
X51379101Y-42031452D01*
X51345553Y-42065000D01*
X51264017Y-42065000D01*
X51174407Y-42102117D01*
X51029635Y-41957345D01*
X50685983Y-41815000D01*
X50314017Y-41815000D01*
X49970365Y-41957345D01*
X49707345Y-42220365D01*
X49566340Y-42560783D01*
X49525000Y-42552560D01*
X49175000Y-42552560D01*
X49000000Y-42587369D01*
X48825000Y-42552560D01*
X48475000Y-42552560D01*
X48300000Y-42587369D01*
X48125000Y-42552560D01*
X47775000Y-42552560D01*
X47600000Y-42587369D01*
X47425000Y-42552560D01*
X47075000Y-42552560D01*
X46900000Y-42587369D01*
X46725000Y-42552560D01*
X46435006Y-42552560D01*
X46379905Y-42470095D01*
X46319959Y-42430041D01*
X46279904Y-42370094D01*
X46036782Y-42207645D01*
X45822387Y-42164999D01*
X45822383Y-42164999D01*
X45749999Y-42150601D01*
X45677615Y-42164999D01*
X38507382Y-42164999D01*
X38434998Y-42150601D01*
X38362614Y-42164999D01*
X38362611Y-42164999D01*
X38148216Y-42207645D01*
X37905094Y-42370094D01*
X37864090Y-42431461D01*
X33781463Y-46514089D01*
X33720096Y-46555093D01*
X33679092Y-46616460D01*
X33679091Y-46616461D01*
X33557646Y-46798216D01*
X33500602Y-47084998D01*
X30127000Y-47084998D01*
X30127000Y-31654887D01*
X30265000Y-31654887D01*
X30265000Y-32345113D01*
X30529138Y-32982799D01*
X31017201Y-33470862D01*
X31654887Y-33735000D01*
X32345113Y-33735000D01*
X32982799Y-33470862D01*
X33470862Y-32982799D01*
X33735000Y-32345113D01*
X33735000Y-31654887D01*
X33470862Y-31017201D01*
X32982799Y-30529138D01*
X32345113Y-30265000D01*
X31654887Y-30265000D01*
X31017201Y-30529138D01*
X30529138Y-31017201D01*
X30265000Y-31654887D01*
X30127000Y-31654887D01*
X30127000Y-30127000D01*
X41873000Y-30127000D01*
X41873000Y-34000000D01*
X41873000Y-34000000D01*
G37*
X41873000Y-34000000D02*
X41882667Y-34048601D01*
X41910197Y-34089803D01*
X41951399Y-34117333D01*
X42000000Y-34127000D01*
X56000000Y-34127000D01*
X56048601Y-34117333D01*
X56089803Y-34089803D01*
X56117333Y-34048601D01*
X56127000Y-34000000D01*
X56127000Y-31654887D01*
X64265000Y-31654887D01*
X64265000Y-32345113D01*
X64529138Y-32982799D01*
X65017201Y-33470862D01*
X65654887Y-33735000D01*
X66345113Y-33735000D01*
X66982799Y-33470862D01*
X67470862Y-32982799D01*
X67735000Y-32345113D01*
X67735000Y-31654887D01*
X67470862Y-31017201D01*
X66982799Y-30529138D01*
X66345113Y-30265000D01*
X65654887Y-30265000D01*
X65017201Y-30529138D01*
X64529138Y-31017201D01*
X64265000Y-31654887D01*
X56127000Y-31654887D01*
X56127000Y-30127000D01*
X67873000Y-30127000D01*
X67873000Y-88873000D01*
X30127000Y-88873000D01*
X30127000Y-86654887D01*
X30265000Y-86654887D01*
X30265000Y-87345113D01*
X30529138Y-87982799D01*
X31017201Y-88470862D01*
X31654887Y-88735000D01*
X32345113Y-88735000D01*
X32982799Y-88470862D01*
X33470862Y-87982799D01*
X33735000Y-87345113D01*
X33735000Y-86654887D01*
X64265000Y-86654887D01*
X64265000Y-87345113D01*
X64529138Y-87982799D01*
X65017201Y-88470862D01*
X65654887Y-88735000D01*
X66345113Y-88735000D01*
X66982799Y-88470862D01*
X67470862Y-87982799D01*
X67735000Y-87345113D01*
X67735000Y-86654887D01*
X67470862Y-86017201D01*
X66982799Y-85529138D01*
X66345113Y-85265000D01*
X65654887Y-85265000D01*
X65017201Y-85529138D01*
X64529138Y-86017201D01*
X64265000Y-86654887D01*
X33735000Y-86654887D01*
X33470862Y-86017201D01*
X32982799Y-85529138D01*
X32345113Y-85265000D01*
X31654887Y-85265000D01*
X31017201Y-85529138D01*
X30529138Y-86017201D01*
X30265000Y-86654887D01*
X30127000Y-86654887D01*
X30127000Y-79235000D01*
X38707857Y-79235000D01*
X38707857Y-82955000D01*
X50892143Y-82955000D01*
X50892143Y-79235000D01*
X38707857Y-79235000D01*
X30127000Y-79235000D01*
X30127000Y-71785750D01*
X40765000Y-71785750D01*
X40765000Y-72501310D01*
X40861673Y-72734699D01*
X41040302Y-72913327D01*
X41273691Y-73010000D01*
X41714250Y-73010000D01*
X41873000Y-72851250D01*
X41873000Y-71627000D01*
X40923750Y-71627000D01*
X40765000Y-71785750D01*
X30127000Y-71785750D01*
X30127000Y-70498690D01*
X40765000Y-70498690D01*
X40765000Y-71214250D01*
X40923750Y-71373000D01*
X41873000Y-71373000D01*
X41873000Y-70148750D01*
X41714250Y-69990000D01*
X41273691Y-69990000D01*
X41040302Y-70086673D01*
X40861673Y-70265301D01*
X40765000Y-70498690D01*
X30127000Y-70498690D01*
X30127000Y-47084998D01*
X33500602Y-47084998D01*
X33515001Y-47157387D01*
X33515000Y-57677616D01*
X33500602Y-57750000D01*
X33515000Y-57822384D01*
X33515000Y-57822387D01*
X33557646Y-58036782D01*
X33720095Y-58279905D01*
X33781465Y-58320911D01*
X43379091Y-67918538D01*
X43420096Y-67979906D01*
X43663218Y-68142355D01*
X43877613Y-68185001D01*
X43877617Y-68185001D01*
X43950001Y-68199399D01*
X44022385Y-68185001D01*
X52668146Y-68185001D01*
X52707345Y-68279635D01*
X52970365Y-68542655D01*
X53314017Y-68685000D01*
X53685983Y-68685000D01*
X54029635Y-68542655D01*
X54292655Y-68279635D01*
X54435000Y-67935983D01*
X54435000Y-67564017D01*
X54292655Y-67220365D01*
X54029635Y-66957345D01*
X53685983Y-66815000D01*
X53572619Y-66815000D01*
X53486784Y-66757647D01*
X53272389Y-66715001D01*
X53272385Y-66715001D01*
X53200001Y-66700603D01*
X53127617Y-66715001D01*
X44254448Y-66715001D01*
X41153464Y-63614017D01*
X59065000Y-63614017D01*
X59065000Y-63985983D01*
X59207345Y-64329635D01*
X59470365Y-64592655D01*
X59814017Y-64735000D01*
X60185983Y-64735000D01*
X60529635Y-64592655D01*
X60792655Y-64329635D01*
X60935000Y-63985983D01*
X60935000Y-63614017D01*
X60792655Y-63270365D01*
X60529635Y-63007345D01*
X60185983Y-62865000D01*
X59814017Y-62865000D01*
X59470365Y-63007345D01*
X59207345Y-63270365D01*
X59065000Y-63614017D01*
X41153464Y-63614017D01*
X34985000Y-57445554D01*
X34985000Y-47389444D01*
X38015000Y-44359444D01*
X38015001Y-44662709D01*
X37957345Y-44720365D01*
X37815000Y-45064017D01*
X37815000Y-45435983D01*
X37957345Y-45779635D01*
X38220365Y-46042655D01*
X38564017Y-46185000D01*
X38815001Y-46185000D01*
X38815001Y-46208052D01*
X38359835Y-46663219D01*
X38306250Y-46652560D01*
X37818750Y-46652560D01*
X37477706Y-46720398D01*
X37188584Y-46913584D01*
X36995398Y-47202706D01*
X36927560Y-47543750D01*
X36927560Y-48456250D01*
X36995398Y-48797294D01*
X37188584Y-49086416D01*
X37477706Y-49279602D01*
X37818750Y-49347440D01*
X38306250Y-49347440D01*
X38647294Y-49279602D01*
X38936416Y-49086416D01*
X39000000Y-48991256D01*
X39063584Y-49086416D01*
X39352706Y-49279602D01*
X39693750Y-49347440D01*
X39830270Y-49347440D01*
X39707345Y-49470365D01*
X39565000Y-49814017D01*
X39565000Y-50185983D01*
X39707345Y-50529635D01*
X39765000Y-50587290D01*
X39765000Y-50677616D01*
X39750602Y-50750000D01*
X39765000Y-50822384D01*
X39765000Y-50822387D01*
X39807646Y-51036782D01*
X39970095Y-51279905D01*
X40031465Y-51320911D01*
X41162182Y-52451628D01*
X41152560Y-52500000D01*
X41152560Y-53300000D01*
X41162182Y-53348372D01*
X40881462Y-53629092D01*
X40820095Y-53670096D01*
X40779091Y-53731463D01*
X40779090Y-53731464D01*
X40657645Y-53913219D01*
X40600601Y-54200001D01*
X40615000Y-54272390D01*
X40614999Y-55956110D01*
X40600601Y-56028495D01*
X40614999Y-56100879D01*
X40614999Y-56100882D01*
X40657645Y-56315277D01*
X40820094Y-56558400D01*
X40881464Y-56599406D01*
X41225196Y-56943138D01*
X41266202Y-57004508D01*
X41509324Y-57166957D01*
X41610575Y-57187097D01*
X41690736Y-57267258D01*
X41952560Y-57375709D01*
X41952560Y-57700000D01*
X42001843Y-57947765D01*
X42142191Y-58157809D01*
X42265001Y-58239868D01*
X42265001Y-58427611D01*
X42250602Y-58500000D01*
X42307646Y-58786782D01*
X42307647Y-58786783D01*
X42470096Y-59029905D01*
X42531463Y-59070909D01*
X43752560Y-60292007D01*
X43752560Y-61125001D01*
X43820873Y-61468436D01*
X44015414Y-61759586D01*
X44306564Y-61954127D01*
X44649999Y-62022440D01*
X45350001Y-62022440D01*
X45693436Y-61954127D01*
X45984586Y-61759586D01*
X46078573Y-61618926D01*
X46109616Y-61665385D01*
X46518128Y-61938344D01*
X47000000Y-62034195D01*
X47481873Y-61938344D01*
X47890385Y-61665385D01*
X48000000Y-61501334D01*
X48109616Y-61665385D01*
X48518128Y-61938344D01*
X49000000Y-62034195D01*
X49481873Y-61938344D01*
X49890385Y-61665385D01*
X50000000Y-61501334D01*
X50109616Y-61665385D01*
X50518128Y-61938344D01*
X51000000Y-62034195D01*
X51481873Y-61938344D01*
X51890385Y-61665385D01*
X52000000Y-61501334D01*
X52109616Y-61665385D01*
X52518128Y-61938344D01*
X53000000Y-62034195D01*
X53481873Y-61938344D01*
X53890385Y-61665385D01*
X54163344Y-61256872D01*
X54189880Y-61123467D01*
X54329905Y-61029905D01*
X54370911Y-60968535D01*
X55718537Y-59620910D01*
X55779905Y-59579905D01*
X55942354Y-59336783D01*
X55985000Y-59122388D01*
X55999399Y-59050000D01*
X55985000Y-58977612D01*
X55985000Y-58266993D01*
X56047294Y-58254602D01*
X56336416Y-58061416D01*
X56529602Y-57772294D01*
X56597440Y-57431250D01*
X56597440Y-56943750D01*
X56529602Y-56602706D01*
X56336416Y-56313584D01*
X56241256Y-56250000D01*
X56336416Y-56186416D01*
X56529602Y-55897294D01*
X56597440Y-55556250D01*
X56597440Y-55068750D01*
X56529602Y-54727706D01*
X56336416Y-54438584D01*
X56135873Y-54304585D01*
X56185000Y-54185983D01*
X56185000Y-53814017D01*
X56160222Y-53754198D01*
X56298157Y-53547765D01*
X56347440Y-53300000D01*
X56347440Y-52500000D01*
X56298157Y-52252235D01*
X56157809Y-52042191D01*
X56094666Y-52000000D01*
X56157809Y-51957809D01*
X56293648Y-51754513D01*
X57959999Y-53420865D01*
X57960001Y-54622763D01*
X57943643Y-54705000D01*
X58008448Y-55030800D01*
X58035249Y-55070910D01*
X58193000Y-55307001D01*
X58262718Y-55353585D01*
X58547560Y-55638427D01*
X58547560Y-55775000D01*
X58596843Y-56022765D01*
X58737191Y-56232809D01*
X58947235Y-56373157D01*
X59195000Y-56422440D01*
X59477501Y-56422440D01*
X59477500Y-57387581D01*
X59438584Y-57413584D01*
X59245398Y-57702706D01*
X59177560Y-58043750D01*
X59177560Y-58956250D01*
X59245398Y-59297294D01*
X59438584Y-59586416D01*
X59727706Y-59779602D01*
X60068750Y-59847440D01*
X60479073Y-59847440D01*
X61065001Y-60433369D01*
X61065000Y-67102560D01*
X60100000Y-67102560D01*
X59852235Y-67151843D01*
X59642191Y-67292191D01*
X59501843Y-67502235D01*
X59452560Y-67750000D01*
X59452560Y-67765000D01*
X59054447Y-67765000D01*
X56435000Y-65145554D01*
X56435000Y-65064017D01*
X56292655Y-64720365D01*
X56029635Y-64457345D01*
X55685983Y-64315000D01*
X55314017Y-64315000D01*
X54970365Y-64457345D01*
X54707345Y-64720365D01*
X54565000Y-65064017D01*
X54565000Y-65435983D01*
X54707345Y-65779635D01*
X54970365Y-66042655D01*
X55314017Y-66185000D01*
X55395554Y-66185000D01*
X58179091Y-68968537D01*
X58220095Y-69029905D01*
X58286367Y-69074186D01*
X56944680Y-70415874D01*
X56890385Y-70334615D01*
X56481872Y-70061656D01*
X56000000Y-69965805D01*
X55518127Y-70061656D01*
X55109615Y-70334615D01*
X55000000Y-70498666D01*
X54890385Y-70334615D01*
X54481872Y-70061656D01*
X54000000Y-69965805D01*
X53518127Y-70061656D01*
X53109615Y-70334615D01*
X53000000Y-70498666D01*
X52890385Y-70334615D01*
X52481872Y-70061656D01*
X52000000Y-69965805D01*
X51518127Y-70061656D01*
X51109615Y-70334615D01*
X51000000Y-70498666D01*
X50890385Y-70334615D01*
X50481872Y-70061656D01*
X50000000Y-69965805D01*
X49518127Y-70061656D01*
X49109615Y-70334615D01*
X49000000Y-70498666D01*
X48890385Y-70334615D01*
X48481872Y-70061656D01*
X48000000Y-69965805D01*
X47518127Y-70061656D01*
X47109615Y-70334615D01*
X47000000Y-70498666D01*
X46890385Y-70334615D01*
X46481872Y-70061656D01*
X46000000Y-69965805D01*
X45518127Y-70061656D01*
X45109615Y-70334615D01*
X45000000Y-70498666D01*
X44890385Y-70334615D01*
X44481872Y-70061656D01*
X44000000Y-69965805D01*
X43518127Y-70061656D01*
X43154590Y-70304564D01*
X43138327Y-70265301D01*
X42959698Y-70086673D01*
X42726309Y-69990000D01*
X42285750Y-69990000D01*
X42127000Y-70148750D01*
X42127000Y-71373000D01*
X42147000Y-71373000D01*
X42147000Y-71627000D01*
X42127000Y-71627000D01*
X42127000Y-72851250D01*
X42285750Y-73010000D01*
X42726309Y-73010000D01*
X42959698Y-72913327D01*
X43138327Y-72734699D01*
X43154590Y-72695436D01*
X43165001Y-72702392D01*
X43165000Y-74167767D01*
X43148643Y-74250000D01*
X43165000Y-74332233D01*
X43165000Y-74332236D01*
X43213448Y-74575800D01*
X43397999Y-74852001D01*
X43467720Y-74898587D01*
X44457345Y-75888214D01*
X44557345Y-76129635D01*
X44820365Y-76392655D01*
X45061788Y-76492656D01*
X46001415Y-77432282D01*
X46047999Y-77502001D01*
X46324199Y-77686552D01*
X46567763Y-77735000D01*
X46650000Y-77751358D01*
X46732237Y-77735000D01*
X47076950Y-77735000D01*
X47092191Y-77757809D01*
X47302235Y-77898157D01*
X47550000Y-77947440D01*
X48050000Y-77947440D01*
X48225000Y-77912631D01*
X48400000Y-77947440D01*
X48800000Y-77947440D01*
X49000000Y-77907658D01*
X49200000Y-77947440D01*
X49600000Y-77947440D01*
X49775000Y-77912631D01*
X49950000Y-77947440D01*
X50450000Y-77947440D01*
X50697765Y-77898157D01*
X50907809Y-77757809D01*
X50923050Y-77735000D01*
X53826950Y-77735000D01*
X53842191Y-77757809D01*
X54052235Y-77898157D01*
X54300000Y-77947440D01*
X54800000Y-77947440D01*
X54975000Y-77912631D01*
X55150000Y-77947440D01*
X55550000Y-77947440D01*
X55750000Y-77907658D01*
X55950000Y-77947440D01*
X56350000Y-77947440D01*
X56525000Y-77912631D01*
X56700000Y-77947440D01*
X57200000Y-77947440D01*
X57447765Y-77898157D01*
X57657809Y-77757809D01*
X57798157Y-77547765D01*
X57847440Y-77300000D01*
X57847440Y-76535001D01*
X60127615Y-76535001D01*
X60199999Y-76549399D01*
X60272383Y-76535001D01*
X60272387Y-76535001D01*
X60486782Y-76492355D01*
X60729904Y-76329906D01*
X60770910Y-76268536D01*
X64768538Y-72270909D01*
X64829905Y-72229905D01*
X64992354Y-71986783D01*
X65035000Y-71772388D01*
X65035000Y-71772385D01*
X65049398Y-71700001D01*
X65035000Y-71627617D01*
X65035000Y-62587290D01*
X65092655Y-62529635D01*
X65235000Y-62185983D01*
X65235000Y-61814017D01*
X65092655Y-61470365D01*
X64829635Y-61207345D01*
X64485983Y-61065000D01*
X64114017Y-61065000D01*
X63770365Y-61207345D01*
X63507345Y-61470365D01*
X63365000Y-61814017D01*
X63365000Y-62185983D01*
X63507345Y-62529635D01*
X63565000Y-62587290D01*
X63565001Y-71395552D01*
X59895553Y-75065001D01*
X57847440Y-75065001D01*
X57847440Y-74700000D01*
X57798157Y-74452235D01*
X57685000Y-74282885D01*
X57685000Y-71754446D01*
X59695810Y-69743637D01*
X59852235Y-69848157D01*
X60100000Y-69897440D01*
X61100000Y-69897440D01*
X61250000Y-69867603D01*
X61400000Y-69897440D01*
X62400000Y-69897440D01*
X62647765Y-69848157D01*
X62857809Y-69707809D01*
X62998157Y-69497765D01*
X63047440Y-69250000D01*
X63047440Y-67750000D01*
X62998157Y-67502235D01*
X62857809Y-67292191D01*
X62735000Y-67210132D01*
X62735000Y-60169732D01*
X62751357Y-60087499D01*
X62735000Y-60005266D01*
X62735000Y-60005263D01*
X62693241Y-59795327D01*
X62772294Y-59779602D01*
X63061416Y-59586416D01*
X63254602Y-59297294D01*
X63322440Y-58956250D01*
X63322440Y-58043750D01*
X63254602Y-57702706D01*
X63061416Y-57413584D01*
X62772294Y-57220398D01*
X62431250Y-57152560D01*
X62020927Y-57152560D01*
X61835000Y-56966633D01*
X61835000Y-56410000D01*
X61934250Y-56410000D01*
X62093000Y-56251250D01*
X62093000Y-55567000D01*
X62347000Y-55567000D01*
X62347000Y-56251250D01*
X62505750Y-56410000D01*
X62931310Y-56410000D01*
X63164699Y-56313327D01*
X63343327Y-56134698D01*
X63440000Y-55901309D01*
X63440000Y-55725750D01*
X63281250Y-55567000D01*
X62347000Y-55567000D01*
X62093000Y-55567000D01*
X62073000Y-55567000D01*
X62073000Y-55482440D01*
X62805000Y-55482440D01*
X63052765Y-55433157D01*
X63232591Y-55313000D01*
X63281250Y-55313000D01*
X63440000Y-55154250D01*
X63440000Y-54978691D01*
X63429095Y-54952364D01*
X63452440Y-54835000D01*
X63452440Y-54165000D01*
X63429095Y-54047636D01*
X63440000Y-54021309D01*
X63440000Y-53845750D01*
X63281250Y-53687000D01*
X63232591Y-53687000D01*
X63052765Y-53566843D01*
X62805000Y-53517560D01*
X62073000Y-53517560D01*
X62073000Y-53433000D01*
X62093000Y-53433000D01*
X62093000Y-52748750D01*
X62347000Y-52748750D01*
X62347000Y-53433000D01*
X63281250Y-53433000D01*
X63440000Y-53274250D01*
X63440000Y-53098691D01*
X63343327Y-52865302D01*
X63226016Y-52747990D01*
X63309699Y-52713327D01*
X63488327Y-52534698D01*
X63585000Y-52301309D01*
X63585000Y-51973250D01*
X63426250Y-51814500D01*
X62377000Y-51814500D01*
X62377000Y-52651250D01*
X62410750Y-52685000D01*
X62347000Y-52748750D01*
X62093000Y-52748750D01*
X62059250Y-52715000D01*
X62123000Y-52651250D01*
X62123000Y-51814500D01*
X62103000Y-51814500D01*
X62103000Y-51560500D01*
X62123000Y-51560500D01*
X62123000Y-51540500D01*
X62377000Y-51540500D01*
X62377000Y-51560500D01*
X63426250Y-51560500D01*
X63585000Y-51401750D01*
X63585000Y-51073691D01*
X63488327Y-50840302D01*
X63335233Y-50687207D01*
X63336416Y-50686416D01*
X63529602Y-50397294D01*
X63597440Y-50056250D01*
X63597440Y-49568750D01*
X63529602Y-49227706D01*
X63336416Y-48938584D01*
X63096464Y-48778252D01*
X63247765Y-48748157D01*
X63457809Y-48607809D01*
X63598157Y-48397765D01*
X63627940Y-48248036D01*
X63729905Y-48179905D01*
X63769960Y-48119959D01*
X63829906Y-48079904D01*
X63992355Y-47836782D01*
X64035001Y-47622387D01*
X64049400Y-47549999D01*
X64035001Y-47477611D01*
X64035001Y-45682382D01*
X64049399Y-45609998D01*
X64035001Y-45537612D01*
X64035001Y-45537611D01*
X63992355Y-45323216D01*
X63829906Y-45080094D01*
X63768539Y-45039090D01*
X60760902Y-42031454D01*
X60719896Y-41970084D01*
X60476774Y-41807635D01*
X60262379Y-41764989D01*
X60262375Y-41764989D01*
X60189991Y-41750591D01*
X60117607Y-41764989D01*
X52022394Y-41764989D01*
X51950010Y-41750591D01*
X51877626Y-41764989D01*
X51877623Y-41764989D01*
X51663228Y-41807635D01*
X51420106Y-41970084D01*
X51379101Y-42031452D01*
X51345553Y-42065000D01*
X51264017Y-42065000D01*
X51174407Y-42102117D01*
X51029635Y-41957345D01*
X50685983Y-41815000D01*
X50314017Y-41815000D01*
X49970365Y-41957345D01*
X49707345Y-42220365D01*
X49566340Y-42560783D01*
X49525000Y-42552560D01*
X49175000Y-42552560D01*
X49000000Y-42587369D01*
X48825000Y-42552560D01*
X48475000Y-42552560D01*
X48300000Y-42587369D01*
X48125000Y-42552560D01*
X47775000Y-42552560D01*
X47600000Y-42587369D01*
X47425000Y-42552560D01*
X47075000Y-42552560D01*
X46900000Y-42587369D01*
X46725000Y-42552560D01*
X46435006Y-42552560D01*
X46379905Y-42470095D01*
X46319959Y-42430041D01*
X46279904Y-42370094D01*
X46036782Y-42207645D01*
X45822387Y-42164999D01*
X45822383Y-42164999D01*
X45749999Y-42150601D01*
X45677615Y-42164999D01*
X38507382Y-42164999D01*
X38434998Y-42150601D01*
X38362614Y-42164999D01*
X38362611Y-42164999D01*
X38148216Y-42207645D01*
X37905094Y-42370094D01*
X37864090Y-42431461D01*
X33781463Y-46514089D01*
X33720096Y-46555093D01*
X33679092Y-46616460D01*
X33679091Y-46616461D01*
X33557646Y-46798216D01*
X33500602Y-47084998D01*
X30127000Y-47084998D01*
X30127000Y-31654887D01*
X30265000Y-31654887D01*
X30265000Y-32345113D01*
X30529138Y-32982799D01*
X31017201Y-33470862D01*
X31654887Y-33735000D01*
X32345113Y-33735000D01*
X32982799Y-33470862D01*
X33470862Y-32982799D01*
X33735000Y-32345113D01*
X33735000Y-31654887D01*
X33470862Y-31017201D01*
X32982799Y-30529138D01*
X32345113Y-30265000D01*
X31654887Y-30265000D01*
X31017201Y-30529138D01*
X30529138Y-31017201D01*
X30265000Y-31654887D01*
X30127000Y-31654887D01*
X30127000Y-30127000D01*
X41873000Y-30127000D01*
X41873000Y-34000000D01*
G36*
X47063584Y-49086416D02*
X47352706Y-49279602D01*
X47693750Y-49347440D01*
X48015001Y-49347440D01*
X48015001Y-50927611D01*
X48000602Y-51000000D01*
X48057646Y-51286782D01*
X48150535Y-51425800D01*
X48220096Y-51529905D01*
X48281463Y-51570909D01*
X49815000Y-53104447D01*
X49815000Y-53185983D01*
X49957345Y-53529635D01*
X50220365Y-53792655D01*
X50564017Y-53935000D01*
X50575552Y-53935000D01*
X50337702Y-54172850D01*
X50330653Y-54177560D01*
X49793750Y-54177560D01*
X49452706Y-54245398D01*
X49163584Y-54438584D01*
X48980155Y-54713103D01*
X48948157Y-54552235D01*
X48807809Y-54342191D01*
X48787108Y-54328359D01*
X48776538Y-54275224D01*
X48736552Y-54074199D01*
X48552001Y-53797999D01*
X48482283Y-53751415D01*
X46198587Y-51467720D01*
X46152001Y-51397999D01*
X45875801Y-51213448D01*
X45632237Y-51165000D01*
X45632233Y-51165000D01*
X45550000Y-51148643D01*
X45467767Y-51165000D01*
X44303000Y-51165000D01*
X44303000Y-50973000D01*
X44326250Y-50973000D01*
X44346250Y-50953000D01*
X44575000Y-50953000D01*
X44575000Y-50973000D01*
X45176250Y-50973000D01*
X45335000Y-50814250D01*
X45335000Y-50573691D01*
X45238327Y-50340302D01*
X45059699Y-50161673D01*
X44826310Y-50065000D01*
X44733750Y-50065000D01*
X44577002Y-50221748D01*
X44577002Y-50151781D01*
X45460607Y-49268177D01*
X45477706Y-49279602D01*
X45818750Y-49347440D01*
X46306250Y-49347440D01*
X46647294Y-49279602D01*
X46936416Y-49086416D01*
X47000000Y-48991256D01*
X47063584Y-49086416D01*
X47063584Y-49086416D01*
G37*
X47063584Y-49086416D02*
X47352706Y-49279602D01*
X47693750Y-49347440D01*
X48015001Y-49347440D01*
X48015001Y-50927611D01*
X48000602Y-51000000D01*
X48057646Y-51286782D01*
X48150535Y-51425800D01*
X48220096Y-51529905D01*
X48281463Y-51570909D01*
X49815000Y-53104447D01*
X49815000Y-53185983D01*
X49957345Y-53529635D01*
X50220365Y-53792655D01*
X50564017Y-53935000D01*
X50575552Y-53935000D01*
X50337702Y-54172850D01*
X50330653Y-54177560D01*
X49793750Y-54177560D01*
X49452706Y-54245398D01*
X49163584Y-54438584D01*
X48980155Y-54713103D01*
X48948157Y-54552235D01*
X48807809Y-54342191D01*
X48787108Y-54328359D01*
X48776538Y-54275224D01*
X48736552Y-54074199D01*
X48552001Y-53797999D01*
X48482283Y-53751415D01*
X46198587Y-51467720D01*
X46152001Y-51397999D01*
X45875801Y-51213448D01*
X45632237Y-51165000D01*
X45632233Y-51165000D01*
X45550000Y-51148643D01*
X45467767Y-51165000D01*
X44303000Y-51165000D01*
X44303000Y-50973000D01*
X44326250Y-50973000D01*
X44346250Y-50953000D01*
X44575000Y-50953000D01*
X44575000Y-50973000D01*
X45176250Y-50973000D01*
X45335000Y-50814250D01*
X45335000Y-50573691D01*
X45238327Y-50340302D01*
X45059699Y-50161673D01*
X44826310Y-50065000D01*
X44733750Y-50065000D01*
X44577002Y-50221748D01*
X44577002Y-50151781D01*
X45460607Y-49268177D01*
X45477706Y-49279602D01*
X45818750Y-49347440D01*
X46306250Y-49347440D01*
X46647294Y-49279602D01*
X46936416Y-49086416D01*
X47000000Y-48991256D01*
X47063584Y-49086416D01*
G04 #@! TD*
M02*
