G04 #@! TF.GenerationSoftware,KiCad,Pcbnew,(5.0.2)-1*
G04 #@! TF.CreationDate,2019-04-29T20:54:11+02:00*
G04 #@! TF.ProjectId,TaggerKeypadDisplay,54616767-6572-44b6-9579-706164446973,rev?*
G04 #@! TF.SameCoordinates,Original*
G04 #@! TF.FileFunction,Legend,Bot*
G04 #@! TF.FilePolarity,Positive*
%FSLAX46Y46*%
G04 Gerber Fmt 4.6, Leading zero omitted, Abs format (unit mm)*
G04 Created by KiCad (PCBNEW (5.0.2)-1) date 29.04.2019 20:54:11*
%MOMM*%
%LPD*%
G01*
G04 APERTURE LIST*
%ADD10C,0.150000*%
G04 APERTURE END LIST*
D10*
X68000000Y-30000000D02*
X56000000Y-30000000D01*
X68000000Y-89000000D02*
X68000000Y-30000000D01*
X30000000Y-89000000D02*
X68000000Y-89000000D01*
X30000000Y-30000000D02*
X30000000Y-89000000D01*
X42000000Y-30000000D02*
X30000000Y-30000000D01*
X42000000Y-34000000D02*
X42000000Y-30000000D01*
X56000000Y-34000000D02*
X42000000Y-34000000D01*
X56000000Y-30000000D02*
X56000000Y-34000000D01*
G04 #@! TO.C,SW1*
X49500000Y-64000000D02*
X52000000Y-64000000D01*
X49500000Y-64500000D02*
X49500000Y-64000000D01*
X48500000Y-64500000D02*
X49500000Y-64500000D01*
X48500000Y-64000000D02*
X48500000Y-64500000D01*
X46000000Y-64000000D02*
X48500000Y-64000000D01*
X49500000Y-70000000D02*
X52000000Y-70000000D01*
X49500000Y-69500000D02*
X49500000Y-70000000D01*
X48500000Y-69500000D02*
X49500000Y-69500000D01*
X48500000Y-70000000D02*
X48500000Y-69500000D01*
X46000000Y-70000000D02*
X48500000Y-70000000D01*
X46000000Y-64000000D02*
X46000000Y-70000000D01*
X52000000Y-70000000D02*
X52000000Y-64000000D01*
G04 #@! TO.C,SW2*
X52000000Y-88000000D02*
X52000000Y-82000000D01*
X46000000Y-82000000D02*
X46000000Y-88000000D01*
X46000000Y-88000000D02*
X48500000Y-88000000D01*
X48500000Y-88000000D02*
X48500000Y-87500000D01*
X48500000Y-87500000D02*
X49500000Y-87500000D01*
X49500000Y-87500000D02*
X49500000Y-88000000D01*
X49500000Y-88000000D02*
X52000000Y-88000000D01*
X46000000Y-82000000D02*
X48500000Y-82000000D01*
X48500000Y-82000000D02*
X48500000Y-82500000D01*
X48500000Y-82500000D02*
X49500000Y-82500000D01*
X49500000Y-82500000D02*
X49500000Y-82000000D01*
X49500000Y-82000000D02*
X52000000Y-82000000D01*
G04 #@! TO.C,SW3*
X58500000Y-73000000D02*
X61000000Y-73000000D01*
X58500000Y-73500000D02*
X58500000Y-73000000D01*
X57500000Y-73500000D02*
X58500000Y-73500000D01*
X57500000Y-73000000D02*
X57500000Y-73500000D01*
X55000000Y-73000000D02*
X57500000Y-73000000D01*
X58500000Y-79000000D02*
X61000000Y-79000000D01*
X58500000Y-78500000D02*
X58500000Y-79000000D01*
X57500000Y-78500000D02*
X58500000Y-78500000D01*
X57500000Y-79000000D02*
X57500000Y-78500000D01*
X55000000Y-79000000D02*
X57500000Y-79000000D01*
X55000000Y-73000000D02*
X55000000Y-79000000D01*
X61000000Y-79000000D02*
X61000000Y-73000000D01*
G04 #@! TO.C,SW4*
X43000000Y-79000000D02*
X43000000Y-73000000D01*
X37000000Y-73000000D02*
X37000000Y-79000000D01*
X37000000Y-79000000D02*
X39500000Y-79000000D01*
X39500000Y-79000000D02*
X39500000Y-78500000D01*
X39500000Y-78500000D02*
X40500000Y-78500000D01*
X40500000Y-78500000D02*
X40500000Y-79000000D01*
X40500000Y-79000000D02*
X43000000Y-79000000D01*
X37000000Y-73000000D02*
X39500000Y-73000000D01*
X39500000Y-73000000D02*
X39500000Y-73500000D01*
X39500000Y-73500000D02*
X40500000Y-73500000D01*
X40500000Y-73500000D02*
X40500000Y-73000000D01*
X40500000Y-73000000D02*
X43000000Y-73000000D01*
G04 #@! TO.C,SW5*
X60400000Y-63300000D02*
X60400000Y-60800000D01*
X60900000Y-63300000D02*
X60400000Y-63300000D01*
X60900000Y-64300000D02*
X60900000Y-63300000D01*
X60400000Y-64300000D02*
X60900000Y-64300000D01*
X60400000Y-66800000D02*
X60400000Y-64300000D01*
X66400000Y-63300000D02*
X66400000Y-60800000D01*
X65900000Y-63300000D02*
X66400000Y-63300000D01*
X65900000Y-64300000D02*
X65900000Y-63300000D01*
X66400000Y-64300000D02*
X65900000Y-64300000D01*
X66400000Y-66800000D02*
X66400000Y-64300000D01*
X60400000Y-66800000D02*
X66400000Y-66800000D01*
X66400000Y-60800000D02*
X60400000Y-60800000D01*
G04 #@! TO.C,SW6*
X37600000Y-60800000D02*
X31600000Y-60800000D01*
X31600000Y-66800000D02*
X37600000Y-66800000D01*
X37600000Y-66800000D02*
X37600000Y-64300000D01*
X37600000Y-64300000D02*
X37100000Y-64300000D01*
X37100000Y-64300000D02*
X37100000Y-63300000D01*
X37100000Y-63300000D02*
X37600000Y-63300000D01*
X37600000Y-63300000D02*
X37600000Y-60800000D01*
X31600000Y-66800000D02*
X31600000Y-64300000D01*
X31600000Y-64300000D02*
X32100000Y-64300000D01*
X32100000Y-64300000D02*
X32100000Y-63300000D01*
X32100000Y-63300000D02*
X31600000Y-63300000D01*
X31600000Y-63300000D02*
X31600000Y-60800000D01*
G04 #@! TO.C,REF\002A\002A*
X31500000Y-34750000D02*
X49000000Y-34750000D01*
X31500000Y-57750000D02*
X31500000Y-34750000D01*
X66500000Y-57750000D02*
X31500000Y-57750000D01*
X66500000Y-34750000D02*
X66500000Y-57750000D01*
X49000000Y-34750000D02*
X66500000Y-34750000D01*
G04 #@! TD*
G04 #@! TO.C,SW1*
X50333333Y-63404761D02*
X50190476Y-63452380D01*
X49952380Y-63452380D01*
X49857142Y-63404761D01*
X49809523Y-63357142D01*
X49761904Y-63261904D01*
X49761904Y-63166666D01*
X49809523Y-63071428D01*
X49857142Y-63023809D01*
X49952380Y-62976190D01*
X50142857Y-62928571D01*
X50238095Y-62880952D01*
X50285714Y-62833333D01*
X50333333Y-62738095D01*
X50333333Y-62642857D01*
X50285714Y-62547619D01*
X50238095Y-62500000D01*
X50142857Y-62452380D01*
X49904761Y-62452380D01*
X49761904Y-62500000D01*
X49428571Y-62452380D02*
X49190476Y-63452380D01*
X49000000Y-62738095D01*
X48809523Y-63452380D01*
X48571428Y-62452380D01*
X47666666Y-63452380D02*
X48238095Y-63452380D01*
X47952380Y-63452380D02*
X47952380Y-62452380D01*
X48047619Y-62595238D01*
X48142857Y-62690476D01*
X48238095Y-62738095D01*
G04 #@! TO.C,SW2*
X50333333Y-81604761D02*
X50190476Y-81652380D01*
X49952380Y-81652380D01*
X49857142Y-81604761D01*
X49809523Y-81557142D01*
X49761904Y-81461904D01*
X49761904Y-81366666D01*
X49809523Y-81271428D01*
X49857142Y-81223809D01*
X49952380Y-81176190D01*
X50142857Y-81128571D01*
X50238095Y-81080952D01*
X50285714Y-81033333D01*
X50333333Y-80938095D01*
X50333333Y-80842857D01*
X50285714Y-80747619D01*
X50238095Y-80700000D01*
X50142857Y-80652380D01*
X49904761Y-80652380D01*
X49761904Y-80700000D01*
X49428571Y-80652380D02*
X49190476Y-81652380D01*
X49000000Y-80938095D01*
X48809523Y-81652380D01*
X48571428Y-80652380D01*
X48238095Y-80747619D02*
X48190476Y-80700000D01*
X48095238Y-80652380D01*
X47857142Y-80652380D01*
X47761904Y-80700000D01*
X47714285Y-80747619D01*
X47666666Y-80842857D01*
X47666666Y-80938095D01*
X47714285Y-81080952D01*
X48285714Y-81652380D01*
X47666666Y-81652380D01*
G04 #@! TO.C,SW3*
X59333333Y-80404761D02*
X59190476Y-80452380D01*
X58952380Y-80452380D01*
X58857142Y-80404761D01*
X58809523Y-80357142D01*
X58761904Y-80261904D01*
X58761904Y-80166666D01*
X58809523Y-80071428D01*
X58857142Y-80023809D01*
X58952380Y-79976190D01*
X59142857Y-79928571D01*
X59238095Y-79880952D01*
X59285714Y-79833333D01*
X59333333Y-79738095D01*
X59333333Y-79642857D01*
X59285714Y-79547619D01*
X59238095Y-79500000D01*
X59142857Y-79452380D01*
X58904761Y-79452380D01*
X58761904Y-79500000D01*
X58428571Y-79452380D02*
X58190476Y-80452380D01*
X58000000Y-79738095D01*
X57809523Y-80452380D01*
X57571428Y-79452380D01*
X57285714Y-79452380D02*
X56666666Y-79452380D01*
X57000000Y-79833333D01*
X56857142Y-79833333D01*
X56761904Y-79880952D01*
X56714285Y-79928571D01*
X56666666Y-80023809D01*
X56666666Y-80261904D01*
X56714285Y-80357142D01*
X56761904Y-80404761D01*
X56857142Y-80452380D01*
X57142857Y-80452380D01*
X57238095Y-80404761D01*
X57285714Y-80357142D01*
G04 #@! TO.C,SW4*
X41333333Y-80404761D02*
X41190476Y-80452380D01*
X40952380Y-80452380D01*
X40857142Y-80404761D01*
X40809523Y-80357142D01*
X40761904Y-80261904D01*
X40761904Y-80166666D01*
X40809523Y-80071428D01*
X40857142Y-80023809D01*
X40952380Y-79976190D01*
X41142857Y-79928571D01*
X41238095Y-79880952D01*
X41285714Y-79833333D01*
X41333333Y-79738095D01*
X41333333Y-79642857D01*
X41285714Y-79547619D01*
X41238095Y-79500000D01*
X41142857Y-79452380D01*
X40904761Y-79452380D01*
X40761904Y-79500000D01*
X40428571Y-79452380D02*
X40190476Y-80452380D01*
X40000000Y-79738095D01*
X39809523Y-80452380D01*
X39571428Y-79452380D01*
X38761904Y-79785714D02*
X38761904Y-80452380D01*
X39000000Y-79404761D02*
X39238095Y-80119047D01*
X38619047Y-80119047D01*
G04 #@! TO.C,SW5*
X59933333Y-66404761D02*
X59790476Y-66452380D01*
X59552380Y-66452380D01*
X59457142Y-66404761D01*
X59409523Y-66357142D01*
X59361904Y-66261904D01*
X59361904Y-66166666D01*
X59409523Y-66071428D01*
X59457142Y-66023809D01*
X59552380Y-65976190D01*
X59742857Y-65928571D01*
X59838095Y-65880952D01*
X59885714Y-65833333D01*
X59933333Y-65738095D01*
X59933333Y-65642857D01*
X59885714Y-65547619D01*
X59838095Y-65500000D01*
X59742857Y-65452380D01*
X59504761Y-65452380D01*
X59361904Y-65500000D01*
X59028571Y-65452380D02*
X58790476Y-66452380D01*
X58600000Y-65738095D01*
X58409523Y-66452380D01*
X58171428Y-65452380D01*
X57314285Y-65452380D02*
X57790476Y-65452380D01*
X57838095Y-65928571D01*
X57790476Y-65880952D01*
X57695238Y-65833333D01*
X57457142Y-65833333D01*
X57361904Y-65880952D01*
X57314285Y-65928571D01*
X57266666Y-66023809D01*
X57266666Y-66261904D01*
X57314285Y-66357142D01*
X57361904Y-66404761D01*
X57457142Y-66452380D01*
X57695238Y-66452380D01*
X57790476Y-66404761D01*
X57838095Y-66357142D01*
G04 #@! TO.C,SW6*
X40533333Y-66404761D02*
X40390476Y-66452380D01*
X40152380Y-66452380D01*
X40057142Y-66404761D01*
X40009523Y-66357142D01*
X39961904Y-66261904D01*
X39961904Y-66166666D01*
X40009523Y-66071428D01*
X40057142Y-66023809D01*
X40152380Y-65976190D01*
X40342857Y-65928571D01*
X40438095Y-65880952D01*
X40485714Y-65833333D01*
X40533333Y-65738095D01*
X40533333Y-65642857D01*
X40485714Y-65547619D01*
X40438095Y-65500000D01*
X40342857Y-65452380D01*
X40104761Y-65452380D01*
X39961904Y-65500000D01*
X39628571Y-65452380D02*
X39390476Y-66452380D01*
X39200000Y-65738095D01*
X39009523Y-66452380D01*
X38771428Y-65452380D01*
X37961904Y-65452380D02*
X38152380Y-65452380D01*
X38247619Y-65500000D01*
X38295238Y-65547619D01*
X38390476Y-65690476D01*
X38438095Y-65880952D01*
X38438095Y-66261904D01*
X38390476Y-66357142D01*
X38342857Y-66404761D01*
X38247619Y-66452380D01*
X38057142Y-66452380D01*
X37961904Y-66404761D01*
X37914285Y-66357142D01*
X37866666Y-66261904D01*
X37866666Y-66023809D01*
X37914285Y-65928571D01*
X37961904Y-65880952D01*
X38057142Y-65833333D01*
X38247619Y-65833333D01*
X38342857Y-65880952D01*
X38390476Y-65928571D01*
X38438095Y-66023809D01*
G04 #@! TO.C,REF\002A\002A*
X50333333Y-38052380D02*
X50666666Y-37576190D01*
X50904761Y-38052380D02*
X50904761Y-37052380D01*
X50523809Y-37052380D01*
X50428571Y-37100000D01*
X50380952Y-37147619D01*
X50333333Y-37242857D01*
X50333333Y-37385714D01*
X50380952Y-37480952D01*
X50428571Y-37528571D01*
X50523809Y-37576190D01*
X50904761Y-37576190D01*
X49904761Y-37528571D02*
X49571428Y-37528571D01*
X49428571Y-38052380D02*
X49904761Y-38052380D01*
X49904761Y-37052380D01*
X49428571Y-37052380D01*
X48666666Y-37528571D02*
X49000000Y-37528571D01*
X49000000Y-38052380D02*
X49000000Y-37052380D01*
X48523809Y-37052380D01*
X48000000Y-37052380D02*
X48000000Y-37290476D01*
X48238095Y-37195238D02*
X48000000Y-37290476D01*
X47761904Y-37195238D01*
X48142857Y-37480952D02*
X48000000Y-37290476D01*
X47857142Y-37480952D01*
X47238095Y-37052380D02*
X47238095Y-37290476D01*
X47476190Y-37195238D02*
X47238095Y-37290476D01*
X47000000Y-37195238D01*
X47380952Y-37480952D02*
X47238095Y-37290476D01*
X47095238Y-37480952D01*
G04 #@! TD*
M02*
