G04 #@! TF.GenerationSoftware,KiCad,Pcbnew,(5.0.2)-1*
G04 #@! TF.CreationDate,2019-04-29T20:54:11+02:00*
G04 #@! TF.ProjectId,TaggerKeypadDisplay,54616767-6572-44b6-9579-706164446973,rev?*
G04 #@! TF.SameCoordinates,Original*
G04 #@! TF.FileFunction,Paste,Top*
G04 #@! TF.FilePolarity,Positive*
%FSLAX46Y46*%
G04 Gerber Fmt 4.6, Leading zero omitted, Abs format (unit mm)*
G04 Created by KiCad (PCBNEW (5.0.2)-1) date 29.04.2019 20:54:11*
%MOMM*%
%LPD*%
G01*
G04 APERTURE LIST*
%ADD10C,0.150000*%
%ADD11C,0.100000*%
%ADD12C,0.975000*%
%ADD13R,0.800000X0.900000*%
%ADD14R,0.500000X0.800000*%
%ADD15R,0.400000X0.800000*%
%ADD16R,1.170000X0.670000*%
%ADD17R,0.350000X1.600000*%
%ADD18R,1.200000X0.900000*%
%ADD19R,0.900000X1.200000*%
G04 APERTURE END LIST*
D10*
X68000000Y-30000000D02*
X56000000Y-30000000D01*
X68000000Y-89000000D02*
X68000000Y-30000000D01*
X30000000Y-89000000D02*
X68000000Y-89000000D01*
X30000000Y-30000000D02*
X30000000Y-89000000D01*
X42000000Y-30000000D02*
X30000000Y-30000000D01*
X42000000Y-34000000D02*
X42000000Y-30000000D01*
X56000000Y-34000000D02*
X42000000Y-34000000D01*
X56000000Y-30000000D02*
X56000000Y-34000000D01*
D11*
G04 #@! TO.C,C1*
G36*
X62730142Y-49326174D02*
X62753803Y-49329684D01*
X62777007Y-49335496D01*
X62799529Y-49343554D01*
X62821153Y-49353782D01*
X62841670Y-49366079D01*
X62860883Y-49380329D01*
X62878607Y-49396393D01*
X62894671Y-49414117D01*
X62908921Y-49433330D01*
X62921218Y-49453847D01*
X62931446Y-49475471D01*
X62939504Y-49497993D01*
X62945316Y-49521197D01*
X62948826Y-49544858D01*
X62950000Y-49568750D01*
X62950000Y-50056250D01*
X62948826Y-50080142D01*
X62945316Y-50103803D01*
X62939504Y-50127007D01*
X62931446Y-50149529D01*
X62921218Y-50171153D01*
X62908921Y-50191670D01*
X62894671Y-50210883D01*
X62878607Y-50228607D01*
X62860883Y-50244671D01*
X62841670Y-50258921D01*
X62821153Y-50271218D01*
X62799529Y-50281446D01*
X62777007Y-50289504D01*
X62753803Y-50295316D01*
X62730142Y-50298826D01*
X62706250Y-50300000D01*
X61793750Y-50300000D01*
X61769858Y-50298826D01*
X61746197Y-50295316D01*
X61722993Y-50289504D01*
X61700471Y-50281446D01*
X61678847Y-50271218D01*
X61658330Y-50258921D01*
X61639117Y-50244671D01*
X61621393Y-50228607D01*
X61605329Y-50210883D01*
X61591079Y-50191670D01*
X61578782Y-50171153D01*
X61568554Y-50149529D01*
X61560496Y-50127007D01*
X61554684Y-50103803D01*
X61551174Y-50080142D01*
X61550000Y-50056250D01*
X61550000Y-49568750D01*
X61551174Y-49544858D01*
X61554684Y-49521197D01*
X61560496Y-49497993D01*
X61568554Y-49475471D01*
X61578782Y-49453847D01*
X61591079Y-49433330D01*
X61605329Y-49414117D01*
X61621393Y-49396393D01*
X61639117Y-49380329D01*
X61658330Y-49366079D01*
X61678847Y-49353782D01*
X61700471Y-49343554D01*
X61722993Y-49335496D01*
X61746197Y-49329684D01*
X61769858Y-49326174D01*
X61793750Y-49325000D01*
X62706250Y-49325000D01*
X62730142Y-49326174D01*
X62730142Y-49326174D01*
G37*
D12*
X62250000Y-49812500D03*
D11*
G36*
X62730142Y-51201174D02*
X62753803Y-51204684D01*
X62777007Y-51210496D01*
X62799529Y-51218554D01*
X62821153Y-51228782D01*
X62841670Y-51241079D01*
X62860883Y-51255329D01*
X62878607Y-51271393D01*
X62894671Y-51289117D01*
X62908921Y-51308330D01*
X62921218Y-51328847D01*
X62931446Y-51350471D01*
X62939504Y-51372993D01*
X62945316Y-51396197D01*
X62948826Y-51419858D01*
X62950000Y-51443750D01*
X62950000Y-51931250D01*
X62948826Y-51955142D01*
X62945316Y-51978803D01*
X62939504Y-52002007D01*
X62931446Y-52024529D01*
X62921218Y-52046153D01*
X62908921Y-52066670D01*
X62894671Y-52085883D01*
X62878607Y-52103607D01*
X62860883Y-52119671D01*
X62841670Y-52133921D01*
X62821153Y-52146218D01*
X62799529Y-52156446D01*
X62777007Y-52164504D01*
X62753803Y-52170316D01*
X62730142Y-52173826D01*
X62706250Y-52175000D01*
X61793750Y-52175000D01*
X61769858Y-52173826D01*
X61746197Y-52170316D01*
X61722993Y-52164504D01*
X61700471Y-52156446D01*
X61678847Y-52146218D01*
X61658330Y-52133921D01*
X61639117Y-52119671D01*
X61621393Y-52103607D01*
X61605329Y-52085883D01*
X61591079Y-52066670D01*
X61578782Y-52046153D01*
X61568554Y-52024529D01*
X61560496Y-52002007D01*
X61554684Y-51978803D01*
X61551174Y-51955142D01*
X61550000Y-51931250D01*
X61550000Y-51443750D01*
X61551174Y-51419858D01*
X61554684Y-51396197D01*
X61560496Y-51372993D01*
X61568554Y-51350471D01*
X61578782Y-51328847D01*
X61591079Y-51308330D01*
X61605329Y-51289117D01*
X61621393Y-51271393D01*
X61639117Y-51255329D01*
X61658330Y-51241079D01*
X61678847Y-51228782D01*
X61700471Y-51218554D01*
X61722993Y-51210496D01*
X61746197Y-51204684D01*
X61769858Y-51201174D01*
X61793750Y-51200000D01*
X62706250Y-51200000D01*
X62730142Y-51201174D01*
X62730142Y-51201174D01*
G37*
D12*
X62250000Y-51687500D03*
G04 #@! TD*
D11*
G04 #@! TO.C,C2*
G36*
X60580142Y-57801174D02*
X60603803Y-57804684D01*
X60627007Y-57810496D01*
X60649529Y-57818554D01*
X60671153Y-57828782D01*
X60691670Y-57841079D01*
X60710883Y-57855329D01*
X60728607Y-57871393D01*
X60744671Y-57889117D01*
X60758921Y-57908330D01*
X60771218Y-57928847D01*
X60781446Y-57950471D01*
X60789504Y-57972993D01*
X60795316Y-57996197D01*
X60798826Y-58019858D01*
X60800000Y-58043750D01*
X60800000Y-58956250D01*
X60798826Y-58980142D01*
X60795316Y-59003803D01*
X60789504Y-59027007D01*
X60781446Y-59049529D01*
X60771218Y-59071153D01*
X60758921Y-59091670D01*
X60744671Y-59110883D01*
X60728607Y-59128607D01*
X60710883Y-59144671D01*
X60691670Y-59158921D01*
X60671153Y-59171218D01*
X60649529Y-59181446D01*
X60627007Y-59189504D01*
X60603803Y-59195316D01*
X60580142Y-59198826D01*
X60556250Y-59200000D01*
X60068750Y-59200000D01*
X60044858Y-59198826D01*
X60021197Y-59195316D01*
X59997993Y-59189504D01*
X59975471Y-59181446D01*
X59953847Y-59171218D01*
X59933330Y-59158921D01*
X59914117Y-59144671D01*
X59896393Y-59128607D01*
X59880329Y-59110883D01*
X59866079Y-59091670D01*
X59853782Y-59071153D01*
X59843554Y-59049529D01*
X59835496Y-59027007D01*
X59829684Y-59003803D01*
X59826174Y-58980142D01*
X59825000Y-58956250D01*
X59825000Y-58043750D01*
X59826174Y-58019858D01*
X59829684Y-57996197D01*
X59835496Y-57972993D01*
X59843554Y-57950471D01*
X59853782Y-57928847D01*
X59866079Y-57908330D01*
X59880329Y-57889117D01*
X59896393Y-57871393D01*
X59914117Y-57855329D01*
X59933330Y-57841079D01*
X59953847Y-57828782D01*
X59975471Y-57818554D01*
X59997993Y-57810496D01*
X60021197Y-57804684D01*
X60044858Y-57801174D01*
X60068750Y-57800000D01*
X60556250Y-57800000D01*
X60580142Y-57801174D01*
X60580142Y-57801174D01*
G37*
D12*
X60312500Y-58500000D03*
D11*
G36*
X62455142Y-57801174D02*
X62478803Y-57804684D01*
X62502007Y-57810496D01*
X62524529Y-57818554D01*
X62546153Y-57828782D01*
X62566670Y-57841079D01*
X62585883Y-57855329D01*
X62603607Y-57871393D01*
X62619671Y-57889117D01*
X62633921Y-57908330D01*
X62646218Y-57928847D01*
X62656446Y-57950471D01*
X62664504Y-57972993D01*
X62670316Y-57996197D01*
X62673826Y-58019858D01*
X62675000Y-58043750D01*
X62675000Y-58956250D01*
X62673826Y-58980142D01*
X62670316Y-59003803D01*
X62664504Y-59027007D01*
X62656446Y-59049529D01*
X62646218Y-59071153D01*
X62633921Y-59091670D01*
X62619671Y-59110883D01*
X62603607Y-59128607D01*
X62585883Y-59144671D01*
X62566670Y-59158921D01*
X62546153Y-59171218D01*
X62524529Y-59181446D01*
X62502007Y-59189504D01*
X62478803Y-59195316D01*
X62455142Y-59198826D01*
X62431250Y-59200000D01*
X61943750Y-59200000D01*
X61919858Y-59198826D01*
X61896197Y-59195316D01*
X61872993Y-59189504D01*
X61850471Y-59181446D01*
X61828847Y-59171218D01*
X61808330Y-59158921D01*
X61789117Y-59144671D01*
X61771393Y-59128607D01*
X61755329Y-59110883D01*
X61741079Y-59091670D01*
X61728782Y-59071153D01*
X61718554Y-59049529D01*
X61710496Y-59027007D01*
X61704684Y-59003803D01*
X61701174Y-58980142D01*
X61700000Y-58956250D01*
X61700000Y-58043750D01*
X61701174Y-58019858D01*
X61704684Y-57996197D01*
X61710496Y-57972993D01*
X61718554Y-57950471D01*
X61728782Y-57928847D01*
X61741079Y-57908330D01*
X61755329Y-57889117D01*
X61771393Y-57871393D01*
X61789117Y-57855329D01*
X61808330Y-57841079D01*
X61828847Y-57828782D01*
X61850471Y-57818554D01*
X61872993Y-57810496D01*
X61896197Y-57804684D01*
X61919858Y-57801174D01*
X61943750Y-57800000D01*
X62431250Y-57800000D01*
X62455142Y-57801174D01*
X62455142Y-57801174D01*
G37*
D12*
X62187500Y-58500000D03*
G04 #@! TD*
D11*
G04 #@! TO.C,C3*
G36*
X40205142Y-47301174D02*
X40228803Y-47304684D01*
X40252007Y-47310496D01*
X40274529Y-47318554D01*
X40296153Y-47328782D01*
X40316670Y-47341079D01*
X40335883Y-47355329D01*
X40353607Y-47371393D01*
X40369671Y-47389117D01*
X40383921Y-47408330D01*
X40396218Y-47428847D01*
X40406446Y-47450471D01*
X40414504Y-47472993D01*
X40420316Y-47496197D01*
X40423826Y-47519858D01*
X40425000Y-47543750D01*
X40425000Y-48456250D01*
X40423826Y-48480142D01*
X40420316Y-48503803D01*
X40414504Y-48527007D01*
X40406446Y-48549529D01*
X40396218Y-48571153D01*
X40383921Y-48591670D01*
X40369671Y-48610883D01*
X40353607Y-48628607D01*
X40335883Y-48644671D01*
X40316670Y-48658921D01*
X40296153Y-48671218D01*
X40274529Y-48681446D01*
X40252007Y-48689504D01*
X40228803Y-48695316D01*
X40205142Y-48698826D01*
X40181250Y-48700000D01*
X39693750Y-48700000D01*
X39669858Y-48698826D01*
X39646197Y-48695316D01*
X39622993Y-48689504D01*
X39600471Y-48681446D01*
X39578847Y-48671218D01*
X39558330Y-48658921D01*
X39539117Y-48644671D01*
X39521393Y-48628607D01*
X39505329Y-48610883D01*
X39491079Y-48591670D01*
X39478782Y-48571153D01*
X39468554Y-48549529D01*
X39460496Y-48527007D01*
X39454684Y-48503803D01*
X39451174Y-48480142D01*
X39450000Y-48456250D01*
X39450000Y-47543750D01*
X39451174Y-47519858D01*
X39454684Y-47496197D01*
X39460496Y-47472993D01*
X39468554Y-47450471D01*
X39478782Y-47428847D01*
X39491079Y-47408330D01*
X39505329Y-47389117D01*
X39521393Y-47371393D01*
X39539117Y-47355329D01*
X39558330Y-47341079D01*
X39578847Y-47328782D01*
X39600471Y-47318554D01*
X39622993Y-47310496D01*
X39646197Y-47304684D01*
X39669858Y-47301174D01*
X39693750Y-47300000D01*
X40181250Y-47300000D01*
X40205142Y-47301174D01*
X40205142Y-47301174D01*
G37*
D12*
X39937500Y-48000000D03*
D11*
G36*
X38330142Y-47301174D02*
X38353803Y-47304684D01*
X38377007Y-47310496D01*
X38399529Y-47318554D01*
X38421153Y-47328782D01*
X38441670Y-47341079D01*
X38460883Y-47355329D01*
X38478607Y-47371393D01*
X38494671Y-47389117D01*
X38508921Y-47408330D01*
X38521218Y-47428847D01*
X38531446Y-47450471D01*
X38539504Y-47472993D01*
X38545316Y-47496197D01*
X38548826Y-47519858D01*
X38550000Y-47543750D01*
X38550000Y-48456250D01*
X38548826Y-48480142D01*
X38545316Y-48503803D01*
X38539504Y-48527007D01*
X38531446Y-48549529D01*
X38521218Y-48571153D01*
X38508921Y-48591670D01*
X38494671Y-48610883D01*
X38478607Y-48628607D01*
X38460883Y-48644671D01*
X38441670Y-48658921D01*
X38421153Y-48671218D01*
X38399529Y-48681446D01*
X38377007Y-48689504D01*
X38353803Y-48695316D01*
X38330142Y-48698826D01*
X38306250Y-48700000D01*
X37818750Y-48700000D01*
X37794858Y-48698826D01*
X37771197Y-48695316D01*
X37747993Y-48689504D01*
X37725471Y-48681446D01*
X37703847Y-48671218D01*
X37683330Y-48658921D01*
X37664117Y-48644671D01*
X37646393Y-48628607D01*
X37630329Y-48610883D01*
X37616079Y-48591670D01*
X37603782Y-48571153D01*
X37593554Y-48549529D01*
X37585496Y-48527007D01*
X37579684Y-48503803D01*
X37576174Y-48480142D01*
X37575000Y-48456250D01*
X37575000Y-47543750D01*
X37576174Y-47519858D01*
X37579684Y-47496197D01*
X37585496Y-47472993D01*
X37593554Y-47450471D01*
X37603782Y-47428847D01*
X37616079Y-47408330D01*
X37630329Y-47389117D01*
X37646393Y-47371393D01*
X37664117Y-47355329D01*
X37683330Y-47341079D01*
X37703847Y-47328782D01*
X37725471Y-47318554D01*
X37747993Y-47310496D01*
X37771197Y-47304684D01*
X37794858Y-47301174D01*
X37818750Y-47300000D01*
X38306250Y-47300000D01*
X38330142Y-47301174D01*
X38330142Y-47301174D01*
G37*
D12*
X38062500Y-48000000D03*
G04 #@! TD*
D11*
G04 #@! TO.C,C4*
G36*
X42330142Y-47301174D02*
X42353803Y-47304684D01*
X42377007Y-47310496D01*
X42399529Y-47318554D01*
X42421153Y-47328782D01*
X42441670Y-47341079D01*
X42460883Y-47355329D01*
X42478607Y-47371393D01*
X42494671Y-47389117D01*
X42508921Y-47408330D01*
X42521218Y-47428847D01*
X42531446Y-47450471D01*
X42539504Y-47472993D01*
X42545316Y-47496197D01*
X42548826Y-47519858D01*
X42550000Y-47543750D01*
X42550000Y-48456250D01*
X42548826Y-48480142D01*
X42545316Y-48503803D01*
X42539504Y-48527007D01*
X42531446Y-48549529D01*
X42521218Y-48571153D01*
X42508921Y-48591670D01*
X42494671Y-48610883D01*
X42478607Y-48628607D01*
X42460883Y-48644671D01*
X42441670Y-48658921D01*
X42421153Y-48671218D01*
X42399529Y-48681446D01*
X42377007Y-48689504D01*
X42353803Y-48695316D01*
X42330142Y-48698826D01*
X42306250Y-48700000D01*
X41818750Y-48700000D01*
X41794858Y-48698826D01*
X41771197Y-48695316D01*
X41747993Y-48689504D01*
X41725471Y-48681446D01*
X41703847Y-48671218D01*
X41683330Y-48658921D01*
X41664117Y-48644671D01*
X41646393Y-48628607D01*
X41630329Y-48610883D01*
X41616079Y-48591670D01*
X41603782Y-48571153D01*
X41593554Y-48549529D01*
X41585496Y-48527007D01*
X41579684Y-48503803D01*
X41576174Y-48480142D01*
X41575000Y-48456250D01*
X41575000Y-47543750D01*
X41576174Y-47519858D01*
X41579684Y-47496197D01*
X41585496Y-47472993D01*
X41593554Y-47450471D01*
X41603782Y-47428847D01*
X41616079Y-47408330D01*
X41630329Y-47389117D01*
X41646393Y-47371393D01*
X41664117Y-47355329D01*
X41683330Y-47341079D01*
X41703847Y-47328782D01*
X41725471Y-47318554D01*
X41747993Y-47310496D01*
X41771197Y-47304684D01*
X41794858Y-47301174D01*
X41818750Y-47300000D01*
X42306250Y-47300000D01*
X42330142Y-47301174D01*
X42330142Y-47301174D01*
G37*
D12*
X42062500Y-48000000D03*
D11*
G36*
X44205142Y-47301174D02*
X44228803Y-47304684D01*
X44252007Y-47310496D01*
X44274529Y-47318554D01*
X44296153Y-47328782D01*
X44316670Y-47341079D01*
X44335883Y-47355329D01*
X44353607Y-47371393D01*
X44369671Y-47389117D01*
X44383921Y-47408330D01*
X44396218Y-47428847D01*
X44406446Y-47450471D01*
X44414504Y-47472993D01*
X44420316Y-47496197D01*
X44423826Y-47519858D01*
X44425000Y-47543750D01*
X44425000Y-48456250D01*
X44423826Y-48480142D01*
X44420316Y-48503803D01*
X44414504Y-48527007D01*
X44406446Y-48549529D01*
X44396218Y-48571153D01*
X44383921Y-48591670D01*
X44369671Y-48610883D01*
X44353607Y-48628607D01*
X44335883Y-48644671D01*
X44316670Y-48658921D01*
X44296153Y-48671218D01*
X44274529Y-48681446D01*
X44252007Y-48689504D01*
X44228803Y-48695316D01*
X44205142Y-48698826D01*
X44181250Y-48700000D01*
X43693750Y-48700000D01*
X43669858Y-48698826D01*
X43646197Y-48695316D01*
X43622993Y-48689504D01*
X43600471Y-48681446D01*
X43578847Y-48671218D01*
X43558330Y-48658921D01*
X43539117Y-48644671D01*
X43521393Y-48628607D01*
X43505329Y-48610883D01*
X43491079Y-48591670D01*
X43478782Y-48571153D01*
X43468554Y-48549529D01*
X43460496Y-48527007D01*
X43454684Y-48503803D01*
X43451174Y-48480142D01*
X43450000Y-48456250D01*
X43450000Y-47543750D01*
X43451174Y-47519858D01*
X43454684Y-47496197D01*
X43460496Y-47472993D01*
X43468554Y-47450471D01*
X43478782Y-47428847D01*
X43491079Y-47408330D01*
X43505329Y-47389117D01*
X43521393Y-47371393D01*
X43539117Y-47355329D01*
X43558330Y-47341079D01*
X43578847Y-47328782D01*
X43600471Y-47318554D01*
X43622993Y-47310496D01*
X43646197Y-47304684D01*
X43669858Y-47301174D01*
X43693750Y-47300000D01*
X44181250Y-47300000D01*
X44205142Y-47301174D01*
X44205142Y-47301174D01*
G37*
D12*
X43937500Y-48000000D03*
G04 #@! TD*
D11*
G04 #@! TO.C,C5*
G36*
X48205142Y-47301174D02*
X48228803Y-47304684D01*
X48252007Y-47310496D01*
X48274529Y-47318554D01*
X48296153Y-47328782D01*
X48316670Y-47341079D01*
X48335883Y-47355329D01*
X48353607Y-47371393D01*
X48369671Y-47389117D01*
X48383921Y-47408330D01*
X48396218Y-47428847D01*
X48406446Y-47450471D01*
X48414504Y-47472993D01*
X48420316Y-47496197D01*
X48423826Y-47519858D01*
X48425000Y-47543750D01*
X48425000Y-48456250D01*
X48423826Y-48480142D01*
X48420316Y-48503803D01*
X48414504Y-48527007D01*
X48406446Y-48549529D01*
X48396218Y-48571153D01*
X48383921Y-48591670D01*
X48369671Y-48610883D01*
X48353607Y-48628607D01*
X48335883Y-48644671D01*
X48316670Y-48658921D01*
X48296153Y-48671218D01*
X48274529Y-48681446D01*
X48252007Y-48689504D01*
X48228803Y-48695316D01*
X48205142Y-48698826D01*
X48181250Y-48700000D01*
X47693750Y-48700000D01*
X47669858Y-48698826D01*
X47646197Y-48695316D01*
X47622993Y-48689504D01*
X47600471Y-48681446D01*
X47578847Y-48671218D01*
X47558330Y-48658921D01*
X47539117Y-48644671D01*
X47521393Y-48628607D01*
X47505329Y-48610883D01*
X47491079Y-48591670D01*
X47478782Y-48571153D01*
X47468554Y-48549529D01*
X47460496Y-48527007D01*
X47454684Y-48503803D01*
X47451174Y-48480142D01*
X47450000Y-48456250D01*
X47450000Y-47543750D01*
X47451174Y-47519858D01*
X47454684Y-47496197D01*
X47460496Y-47472993D01*
X47468554Y-47450471D01*
X47478782Y-47428847D01*
X47491079Y-47408330D01*
X47505329Y-47389117D01*
X47521393Y-47371393D01*
X47539117Y-47355329D01*
X47558330Y-47341079D01*
X47578847Y-47328782D01*
X47600471Y-47318554D01*
X47622993Y-47310496D01*
X47646197Y-47304684D01*
X47669858Y-47301174D01*
X47693750Y-47300000D01*
X48181250Y-47300000D01*
X48205142Y-47301174D01*
X48205142Y-47301174D01*
G37*
D12*
X47937500Y-48000000D03*
D11*
G36*
X46330142Y-47301174D02*
X46353803Y-47304684D01*
X46377007Y-47310496D01*
X46399529Y-47318554D01*
X46421153Y-47328782D01*
X46441670Y-47341079D01*
X46460883Y-47355329D01*
X46478607Y-47371393D01*
X46494671Y-47389117D01*
X46508921Y-47408330D01*
X46521218Y-47428847D01*
X46531446Y-47450471D01*
X46539504Y-47472993D01*
X46545316Y-47496197D01*
X46548826Y-47519858D01*
X46550000Y-47543750D01*
X46550000Y-48456250D01*
X46548826Y-48480142D01*
X46545316Y-48503803D01*
X46539504Y-48527007D01*
X46531446Y-48549529D01*
X46521218Y-48571153D01*
X46508921Y-48591670D01*
X46494671Y-48610883D01*
X46478607Y-48628607D01*
X46460883Y-48644671D01*
X46441670Y-48658921D01*
X46421153Y-48671218D01*
X46399529Y-48681446D01*
X46377007Y-48689504D01*
X46353803Y-48695316D01*
X46330142Y-48698826D01*
X46306250Y-48700000D01*
X45818750Y-48700000D01*
X45794858Y-48698826D01*
X45771197Y-48695316D01*
X45747993Y-48689504D01*
X45725471Y-48681446D01*
X45703847Y-48671218D01*
X45683330Y-48658921D01*
X45664117Y-48644671D01*
X45646393Y-48628607D01*
X45630329Y-48610883D01*
X45616079Y-48591670D01*
X45603782Y-48571153D01*
X45593554Y-48549529D01*
X45585496Y-48527007D01*
X45579684Y-48503803D01*
X45576174Y-48480142D01*
X45575000Y-48456250D01*
X45575000Y-47543750D01*
X45576174Y-47519858D01*
X45579684Y-47496197D01*
X45585496Y-47472993D01*
X45593554Y-47450471D01*
X45603782Y-47428847D01*
X45616079Y-47408330D01*
X45630329Y-47389117D01*
X45646393Y-47371393D01*
X45664117Y-47355329D01*
X45683330Y-47341079D01*
X45703847Y-47328782D01*
X45725471Y-47318554D01*
X45747993Y-47310496D01*
X45771197Y-47304684D01*
X45794858Y-47301174D01*
X45818750Y-47300000D01*
X46306250Y-47300000D01*
X46330142Y-47301174D01*
X46330142Y-47301174D01*
G37*
D12*
X46062500Y-48000000D03*
G04 #@! TD*
D11*
G04 #@! TO.C,C6*
G36*
X50330142Y-47301174D02*
X50353803Y-47304684D01*
X50377007Y-47310496D01*
X50399529Y-47318554D01*
X50421153Y-47328782D01*
X50441670Y-47341079D01*
X50460883Y-47355329D01*
X50478607Y-47371393D01*
X50494671Y-47389117D01*
X50508921Y-47408330D01*
X50521218Y-47428847D01*
X50531446Y-47450471D01*
X50539504Y-47472993D01*
X50545316Y-47496197D01*
X50548826Y-47519858D01*
X50550000Y-47543750D01*
X50550000Y-48456250D01*
X50548826Y-48480142D01*
X50545316Y-48503803D01*
X50539504Y-48527007D01*
X50531446Y-48549529D01*
X50521218Y-48571153D01*
X50508921Y-48591670D01*
X50494671Y-48610883D01*
X50478607Y-48628607D01*
X50460883Y-48644671D01*
X50441670Y-48658921D01*
X50421153Y-48671218D01*
X50399529Y-48681446D01*
X50377007Y-48689504D01*
X50353803Y-48695316D01*
X50330142Y-48698826D01*
X50306250Y-48700000D01*
X49818750Y-48700000D01*
X49794858Y-48698826D01*
X49771197Y-48695316D01*
X49747993Y-48689504D01*
X49725471Y-48681446D01*
X49703847Y-48671218D01*
X49683330Y-48658921D01*
X49664117Y-48644671D01*
X49646393Y-48628607D01*
X49630329Y-48610883D01*
X49616079Y-48591670D01*
X49603782Y-48571153D01*
X49593554Y-48549529D01*
X49585496Y-48527007D01*
X49579684Y-48503803D01*
X49576174Y-48480142D01*
X49575000Y-48456250D01*
X49575000Y-47543750D01*
X49576174Y-47519858D01*
X49579684Y-47496197D01*
X49585496Y-47472993D01*
X49593554Y-47450471D01*
X49603782Y-47428847D01*
X49616079Y-47408330D01*
X49630329Y-47389117D01*
X49646393Y-47371393D01*
X49664117Y-47355329D01*
X49683330Y-47341079D01*
X49703847Y-47328782D01*
X49725471Y-47318554D01*
X49747993Y-47310496D01*
X49771197Y-47304684D01*
X49794858Y-47301174D01*
X49818750Y-47300000D01*
X50306250Y-47300000D01*
X50330142Y-47301174D01*
X50330142Y-47301174D01*
G37*
D12*
X50062500Y-48000000D03*
D11*
G36*
X52205142Y-47301174D02*
X52228803Y-47304684D01*
X52252007Y-47310496D01*
X52274529Y-47318554D01*
X52296153Y-47328782D01*
X52316670Y-47341079D01*
X52335883Y-47355329D01*
X52353607Y-47371393D01*
X52369671Y-47389117D01*
X52383921Y-47408330D01*
X52396218Y-47428847D01*
X52406446Y-47450471D01*
X52414504Y-47472993D01*
X52420316Y-47496197D01*
X52423826Y-47519858D01*
X52425000Y-47543750D01*
X52425000Y-48456250D01*
X52423826Y-48480142D01*
X52420316Y-48503803D01*
X52414504Y-48527007D01*
X52406446Y-48549529D01*
X52396218Y-48571153D01*
X52383921Y-48591670D01*
X52369671Y-48610883D01*
X52353607Y-48628607D01*
X52335883Y-48644671D01*
X52316670Y-48658921D01*
X52296153Y-48671218D01*
X52274529Y-48681446D01*
X52252007Y-48689504D01*
X52228803Y-48695316D01*
X52205142Y-48698826D01*
X52181250Y-48700000D01*
X51693750Y-48700000D01*
X51669858Y-48698826D01*
X51646197Y-48695316D01*
X51622993Y-48689504D01*
X51600471Y-48681446D01*
X51578847Y-48671218D01*
X51558330Y-48658921D01*
X51539117Y-48644671D01*
X51521393Y-48628607D01*
X51505329Y-48610883D01*
X51491079Y-48591670D01*
X51478782Y-48571153D01*
X51468554Y-48549529D01*
X51460496Y-48527007D01*
X51454684Y-48503803D01*
X51451174Y-48480142D01*
X51450000Y-48456250D01*
X51450000Y-47543750D01*
X51451174Y-47519858D01*
X51454684Y-47496197D01*
X51460496Y-47472993D01*
X51468554Y-47450471D01*
X51478782Y-47428847D01*
X51491079Y-47408330D01*
X51505329Y-47389117D01*
X51521393Y-47371393D01*
X51539117Y-47355329D01*
X51558330Y-47341079D01*
X51578847Y-47328782D01*
X51600471Y-47318554D01*
X51622993Y-47310496D01*
X51646197Y-47304684D01*
X51669858Y-47301174D01*
X51693750Y-47300000D01*
X52181250Y-47300000D01*
X52205142Y-47301174D01*
X52205142Y-47301174D01*
G37*
D12*
X51937500Y-48000000D03*
G04 #@! TD*
D11*
G04 #@! TO.C,C7*
G36*
X56205142Y-47301174D02*
X56228803Y-47304684D01*
X56252007Y-47310496D01*
X56274529Y-47318554D01*
X56296153Y-47328782D01*
X56316670Y-47341079D01*
X56335883Y-47355329D01*
X56353607Y-47371393D01*
X56369671Y-47389117D01*
X56383921Y-47408330D01*
X56396218Y-47428847D01*
X56406446Y-47450471D01*
X56414504Y-47472993D01*
X56420316Y-47496197D01*
X56423826Y-47519858D01*
X56425000Y-47543750D01*
X56425000Y-48456250D01*
X56423826Y-48480142D01*
X56420316Y-48503803D01*
X56414504Y-48527007D01*
X56406446Y-48549529D01*
X56396218Y-48571153D01*
X56383921Y-48591670D01*
X56369671Y-48610883D01*
X56353607Y-48628607D01*
X56335883Y-48644671D01*
X56316670Y-48658921D01*
X56296153Y-48671218D01*
X56274529Y-48681446D01*
X56252007Y-48689504D01*
X56228803Y-48695316D01*
X56205142Y-48698826D01*
X56181250Y-48700000D01*
X55693750Y-48700000D01*
X55669858Y-48698826D01*
X55646197Y-48695316D01*
X55622993Y-48689504D01*
X55600471Y-48681446D01*
X55578847Y-48671218D01*
X55558330Y-48658921D01*
X55539117Y-48644671D01*
X55521393Y-48628607D01*
X55505329Y-48610883D01*
X55491079Y-48591670D01*
X55478782Y-48571153D01*
X55468554Y-48549529D01*
X55460496Y-48527007D01*
X55454684Y-48503803D01*
X55451174Y-48480142D01*
X55450000Y-48456250D01*
X55450000Y-47543750D01*
X55451174Y-47519858D01*
X55454684Y-47496197D01*
X55460496Y-47472993D01*
X55468554Y-47450471D01*
X55478782Y-47428847D01*
X55491079Y-47408330D01*
X55505329Y-47389117D01*
X55521393Y-47371393D01*
X55539117Y-47355329D01*
X55558330Y-47341079D01*
X55578847Y-47328782D01*
X55600471Y-47318554D01*
X55622993Y-47310496D01*
X55646197Y-47304684D01*
X55669858Y-47301174D01*
X55693750Y-47300000D01*
X56181250Y-47300000D01*
X56205142Y-47301174D01*
X56205142Y-47301174D01*
G37*
D12*
X55937500Y-48000000D03*
D11*
G36*
X54330142Y-47301174D02*
X54353803Y-47304684D01*
X54377007Y-47310496D01*
X54399529Y-47318554D01*
X54421153Y-47328782D01*
X54441670Y-47341079D01*
X54460883Y-47355329D01*
X54478607Y-47371393D01*
X54494671Y-47389117D01*
X54508921Y-47408330D01*
X54521218Y-47428847D01*
X54531446Y-47450471D01*
X54539504Y-47472993D01*
X54545316Y-47496197D01*
X54548826Y-47519858D01*
X54550000Y-47543750D01*
X54550000Y-48456250D01*
X54548826Y-48480142D01*
X54545316Y-48503803D01*
X54539504Y-48527007D01*
X54531446Y-48549529D01*
X54521218Y-48571153D01*
X54508921Y-48591670D01*
X54494671Y-48610883D01*
X54478607Y-48628607D01*
X54460883Y-48644671D01*
X54441670Y-48658921D01*
X54421153Y-48671218D01*
X54399529Y-48681446D01*
X54377007Y-48689504D01*
X54353803Y-48695316D01*
X54330142Y-48698826D01*
X54306250Y-48700000D01*
X53818750Y-48700000D01*
X53794858Y-48698826D01*
X53771197Y-48695316D01*
X53747993Y-48689504D01*
X53725471Y-48681446D01*
X53703847Y-48671218D01*
X53683330Y-48658921D01*
X53664117Y-48644671D01*
X53646393Y-48628607D01*
X53630329Y-48610883D01*
X53616079Y-48591670D01*
X53603782Y-48571153D01*
X53593554Y-48549529D01*
X53585496Y-48527007D01*
X53579684Y-48503803D01*
X53576174Y-48480142D01*
X53575000Y-48456250D01*
X53575000Y-47543750D01*
X53576174Y-47519858D01*
X53579684Y-47496197D01*
X53585496Y-47472993D01*
X53593554Y-47450471D01*
X53603782Y-47428847D01*
X53616079Y-47408330D01*
X53630329Y-47389117D01*
X53646393Y-47371393D01*
X53664117Y-47355329D01*
X53683330Y-47341079D01*
X53703847Y-47328782D01*
X53725471Y-47318554D01*
X53747993Y-47310496D01*
X53771197Y-47304684D01*
X53794858Y-47301174D01*
X53818750Y-47300000D01*
X54306250Y-47300000D01*
X54330142Y-47301174D01*
X54330142Y-47301174D01*
G37*
D12*
X54062500Y-48000000D03*
G04 #@! TD*
D11*
G04 #@! TO.C,C8*
G36*
X58330142Y-47301174D02*
X58353803Y-47304684D01*
X58377007Y-47310496D01*
X58399529Y-47318554D01*
X58421153Y-47328782D01*
X58441670Y-47341079D01*
X58460883Y-47355329D01*
X58478607Y-47371393D01*
X58494671Y-47389117D01*
X58508921Y-47408330D01*
X58521218Y-47428847D01*
X58531446Y-47450471D01*
X58539504Y-47472993D01*
X58545316Y-47496197D01*
X58548826Y-47519858D01*
X58550000Y-47543750D01*
X58550000Y-48456250D01*
X58548826Y-48480142D01*
X58545316Y-48503803D01*
X58539504Y-48527007D01*
X58531446Y-48549529D01*
X58521218Y-48571153D01*
X58508921Y-48591670D01*
X58494671Y-48610883D01*
X58478607Y-48628607D01*
X58460883Y-48644671D01*
X58441670Y-48658921D01*
X58421153Y-48671218D01*
X58399529Y-48681446D01*
X58377007Y-48689504D01*
X58353803Y-48695316D01*
X58330142Y-48698826D01*
X58306250Y-48700000D01*
X57818750Y-48700000D01*
X57794858Y-48698826D01*
X57771197Y-48695316D01*
X57747993Y-48689504D01*
X57725471Y-48681446D01*
X57703847Y-48671218D01*
X57683330Y-48658921D01*
X57664117Y-48644671D01*
X57646393Y-48628607D01*
X57630329Y-48610883D01*
X57616079Y-48591670D01*
X57603782Y-48571153D01*
X57593554Y-48549529D01*
X57585496Y-48527007D01*
X57579684Y-48503803D01*
X57576174Y-48480142D01*
X57575000Y-48456250D01*
X57575000Y-47543750D01*
X57576174Y-47519858D01*
X57579684Y-47496197D01*
X57585496Y-47472993D01*
X57593554Y-47450471D01*
X57603782Y-47428847D01*
X57616079Y-47408330D01*
X57630329Y-47389117D01*
X57646393Y-47371393D01*
X57664117Y-47355329D01*
X57683330Y-47341079D01*
X57703847Y-47328782D01*
X57725471Y-47318554D01*
X57747993Y-47310496D01*
X57771197Y-47304684D01*
X57794858Y-47301174D01*
X57818750Y-47300000D01*
X58306250Y-47300000D01*
X58330142Y-47301174D01*
X58330142Y-47301174D01*
G37*
D12*
X58062500Y-48000000D03*
D11*
G36*
X60205142Y-47301174D02*
X60228803Y-47304684D01*
X60252007Y-47310496D01*
X60274529Y-47318554D01*
X60296153Y-47328782D01*
X60316670Y-47341079D01*
X60335883Y-47355329D01*
X60353607Y-47371393D01*
X60369671Y-47389117D01*
X60383921Y-47408330D01*
X60396218Y-47428847D01*
X60406446Y-47450471D01*
X60414504Y-47472993D01*
X60420316Y-47496197D01*
X60423826Y-47519858D01*
X60425000Y-47543750D01*
X60425000Y-48456250D01*
X60423826Y-48480142D01*
X60420316Y-48503803D01*
X60414504Y-48527007D01*
X60406446Y-48549529D01*
X60396218Y-48571153D01*
X60383921Y-48591670D01*
X60369671Y-48610883D01*
X60353607Y-48628607D01*
X60335883Y-48644671D01*
X60316670Y-48658921D01*
X60296153Y-48671218D01*
X60274529Y-48681446D01*
X60252007Y-48689504D01*
X60228803Y-48695316D01*
X60205142Y-48698826D01*
X60181250Y-48700000D01*
X59693750Y-48700000D01*
X59669858Y-48698826D01*
X59646197Y-48695316D01*
X59622993Y-48689504D01*
X59600471Y-48681446D01*
X59578847Y-48671218D01*
X59558330Y-48658921D01*
X59539117Y-48644671D01*
X59521393Y-48628607D01*
X59505329Y-48610883D01*
X59491079Y-48591670D01*
X59478782Y-48571153D01*
X59468554Y-48549529D01*
X59460496Y-48527007D01*
X59454684Y-48503803D01*
X59451174Y-48480142D01*
X59450000Y-48456250D01*
X59450000Y-47543750D01*
X59451174Y-47519858D01*
X59454684Y-47496197D01*
X59460496Y-47472993D01*
X59468554Y-47450471D01*
X59478782Y-47428847D01*
X59491079Y-47408330D01*
X59505329Y-47389117D01*
X59521393Y-47371393D01*
X59539117Y-47355329D01*
X59558330Y-47341079D01*
X59578847Y-47328782D01*
X59600471Y-47318554D01*
X59622993Y-47310496D01*
X59646197Y-47304684D01*
X59669858Y-47301174D01*
X59693750Y-47300000D01*
X60181250Y-47300000D01*
X60205142Y-47301174D01*
X60205142Y-47301174D01*
G37*
D12*
X59937500Y-48000000D03*
G04 #@! TD*
D13*
G04 #@! TO.C,Q1*
X47950000Y-55250000D03*
X46050000Y-55250000D03*
X47000000Y-57250000D03*
G04 #@! TD*
G04 #@! TO.C,Q2*
X43000000Y-57250000D03*
X42050000Y-55250000D03*
X43950000Y-55250000D03*
G04 #@! TD*
D14*
G04 #@! TO.C,RN1*
X47800000Y-76900000D03*
D15*
X48600000Y-76900000D03*
D14*
X50200000Y-76900000D03*
D15*
X49400000Y-76900000D03*
D14*
X47800000Y-75100000D03*
D15*
X49400000Y-75100000D03*
X48600000Y-75100000D03*
D14*
X50200000Y-75100000D03*
G04 #@! TD*
G04 #@! TO.C,RN2*
X56950000Y-75100000D03*
D15*
X55350000Y-75100000D03*
X56150000Y-75100000D03*
D14*
X54550000Y-75100000D03*
D15*
X56150000Y-76900000D03*
D14*
X56950000Y-76900000D03*
D15*
X55350000Y-76900000D03*
D14*
X54550000Y-76900000D03*
G04 #@! TD*
G04 #@! TO.C,RN3*
X44450000Y-51100000D03*
D15*
X43650000Y-51100000D03*
D14*
X42050000Y-51100000D03*
D15*
X42850000Y-51100000D03*
D14*
X44450000Y-52900000D03*
D15*
X42850000Y-52900000D03*
X43650000Y-52900000D03*
D14*
X42050000Y-52900000D03*
G04 #@! TD*
G04 #@! TO.C,RN4*
X53050000Y-52900000D03*
D15*
X54650000Y-52900000D03*
X53850000Y-52900000D03*
D14*
X55450000Y-52900000D03*
D15*
X53850000Y-51100000D03*
D14*
X53050000Y-51100000D03*
D15*
X54650000Y-51100000D03*
D14*
X55450000Y-51100000D03*
G04 #@! TD*
D16*
G04 #@! TO.C,U1*
X62220000Y-55440000D03*
X62220000Y-54500000D03*
X62220000Y-53560000D03*
X59780000Y-53560000D03*
X59780000Y-55440000D03*
G04 #@! TD*
D17*
G04 #@! TO.C,U2*
X38850000Y-40400000D03*
X39550000Y-40400000D03*
X40250000Y-40400000D03*
X40950000Y-40400000D03*
X41650000Y-40400000D03*
X42350000Y-40400000D03*
X43050000Y-40400000D03*
X43750000Y-40400000D03*
X44450000Y-40400000D03*
X45150000Y-40400000D03*
X45850000Y-40400000D03*
X46550000Y-40400000D03*
X47250000Y-40400000D03*
X47950000Y-40400000D03*
X48650000Y-40400000D03*
X49350000Y-40400000D03*
X50050000Y-40400000D03*
X50750000Y-40400000D03*
X51450000Y-40400000D03*
X52150000Y-40400000D03*
X52850000Y-40400000D03*
X53550000Y-40400000D03*
X54250000Y-40400000D03*
X54950000Y-40400000D03*
X55650000Y-40400000D03*
X56350000Y-40400000D03*
X57050000Y-40400000D03*
X57750000Y-40400000D03*
X58450000Y-40400000D03*
X59150000Y-40400000D03*
G04 #@! TD*
D18*
G04 #@! TO.C,D1*
X57400000Y-62850000D03*
X57400000Y-59550000D03*
G04 #@! TD*
G04 #@! TO.C,D2*
X50400000Y-53950000D03*
X50400000Y-57250000D03*
G04 #@! TD*
D19*
G04 #@! TO.C,D3*
X53550000Y-56400000D03*
X56850000Y-56400000D03*
G04 #@! TD*
M02*
