M48
;DRILL file {KiCad (5.0.2)-1} date 24.03.2019 20:45:24
;FORMAT={-:-/ absolute / inch / decimal}
FMAT,2
INCH,TZ
T1C0.0118
T2C0.0295
%
G90
G05
T1
X1.5256Y-1.7815
X1.5945Y-1.9685
X1.6622Y-2.2234
X1.687Y-2.1181
X1.6929Y-2.0472
X1.7224Y-1.7815
X1.7224Y-2.1457
X1.7323Y-3.0157
X1.7618Y-2.2244
X1.7815Y-1.7815
X1.7854Y-2.9764
X1.7869Y-2.1408
X1.8209Y-2.2146
X1.8602Y-2.0276
X1.9685Y-1.939
X1.9882Y-1.6831
X1.998Y-2.0866
X2.0256Y-1.6929
X2.0267Y-1.8543
X2.0669Y-2.0866
X2.1063Y-2.6673
X2.1516Y-1.9803
X2.1752Y-2.126
X2.185Y-2.5689
X2.2011Y-1.7837
X2.2441Y-2.0866
X2.3622Y-2.5118
X2.3917Y-2.0202
X2.5315Y-2.4409
X2.5591Y-2.2913
T2
X1.6535Y-2.815
X1.7323Y-2.815
X1.811Y-2.815
X1.8898Y-2.815
X1.9685Y-2.815
X2.0472Y-2.815
X2.126Y-2.815
X2.2047Y-2.815
X1.7717Y-2.3819
X1.8504Y-2.3819
X1.9291Y-2.3819
X2.0079Y-2.3819
X2.0866Y-2.3819
T0
M30
