G04 #@! TF.GenerationSoftware,KiCad,Pcbnew,(5.0.2)-1*
G04 #@! TF.CreationDate,2019-04-29T20:54:11+02:00*
G04 #@! TF.ProjectId,TaggerKeypadDisplay,54616767-6572-44b6-9579-706164446973,rev?*
G04 #@! TF.SameCoordinates,Original*
G04 #@! TF.FileFunction,Copper,L2,Bot*
G04 #@! TF.FilePolarity,Positive*
%FSLAX46Y46*%
G04 Gerber Fmt 4.6, Leading zero omitted, Abs format (unit mm)*
G04 Created by KiCad (PCBNEW (5.0.2)-1) date 29.04.2019 20:54:11*
%MOMM*%
%LPD*%
G01*
G04 APERTURE LIST*
G04 #@! TA.AperFunction,NonConductor*
%ADD10C,0.150000*%
G04 #@! TD*
G04 #@! TA.AperFunction,Conductor*
%ADD11C,0.100000*%
G04 #@! TD*
G04 #@! TA.AperFunction,ComponentPad*
%ADD12C,1.200000*%
G04 #@! TD*
G04 #@! TA.AperFunction,ComponentPad*
%ADD13O,1.200000X1.750000*%
G04 #@! TD*
G04 #@! TA.AperFunction,SMDPad,CuDef*
%ADD14R,2.000000X1.000000*%
G04 #@! TD*
G04 #@! TA.AperFunction,SMDPad,CuDef*
%ADD15R,1.000000X2.000000*%
G04 #@! TD*
G04 #@! TA.AperFunction,ViaPad*
%ADD16C,0.600000*%
G04 #@! TD*
G04 #@! TA.AperFunction,Conductor*
%ADD17C,0.400000*%
G04 #@! TD*
G04 #@! TA.AperFunction,Conductor*
%ADD18C,0.200000*%
G04 #@! TD*
G04 #@! TA.AperFunction,Conductor*
%ADD19C,0.254000*%
G04 #@! TD*
G04 APERTURE END LIST*
D10*
X68000000Y-30000000D02*
X56000000Y-30000000D01*
X68000000Y-89000000D02*
X68000000Y-30000000D01*
X30000000Y-89000000D02*
X68000000Y-89000000D01*
X30000000Y-30000000D02*
X30000000Y-89000000D01*
X42000000Y-30000000D02*
X30000000Y-30000000D01*
X42000000Y-34000000D02*
X42000000Y-30000000D01*
X56000000Y-34000000D02*
X42000000Y-34000000D01*
X56000000Y-30000000D02*
X56000000Y-34000000D01*
D11*
G04 #@! TO.N,+5V*
G04 #@! TO.C,J1*
G36*
X42374505Y-70626204D02*
X42398773Y-70629804D01*
X42422572Y-70635765D01*
X42445671Y-70644030D01*
X42467850Y-70654520D01*
X42488893Y-70667132D01*
X42508599Y-70681747D01*
X42526777Y-70698223D01*
X42543253Y-70716401D01*
X42557868Y-70736107D01*
X42570480Y-70757150D01*
X42580970Y-70779329D01*
X42589235Y-70802428D01*
X42595196Y-70826227D01*
X42598796Y-70850495D01*
X42600000Y-70874999D01*
X42600000Y-72125001D01*
X42598796Y-72149505D01*
X42595196Y-72173773D01*
X42589235Y-72197572D01*
X42580970Y-72220671D01*
X42570480Y-72242850D01*
X42557868Y-72263893D01*
X42543253Y-72283599D01*
X42526777Y-72301777D01*
X42508599Y-72318253D01*
X42488893Y-72332868D01*
X42467850Y-72345480D01*
X42445671Y-72355970D01*
X42422572Y-72364235D01*
X42398773Y-72370196D01*
X42374505Y-72373796D01*
X42350001Y-72375000D01*
X41649999Y-72375000D01*
X41625495Y-72373796D01*
X41601227Y-72370196D01*
X41577428Y-72364235D01*
X41554329Y-72355970D01*
X41532150Y-72345480D01*
X41511107Y-72332868D01*
X41491401Y-72318253D01*
X41473223Y-72301777D01*
X41456747Y-72283599D01*
X41442132Y-72263893D01*
X41429520Y-72242850D01*
X41419030Y-72220671D01*
X41410765Y-72197572D01*
X41404804Y-72173773D01*
X41401204Y-72149505D01*
X41400000Y-72125001D01*
X41400000Y-70874999D01*
X41401204Y-70850495D01*
X41404804Y-70826227D01*
X41410765Y-70802428D01*
X41419030Y-70779329D01*
X41429520Y-70757150D01*
X41442132Y-70736107D01*
X41456747Y-70716401D01*
X41473223Y-70698223D01*
X41491401Y-70681747D01*
X41511107Y-70667132D01*
X41532150Y-70654520D01*
X41554329Y-70644030D01*
X41577428Y-70635765D01*
X41601227Y-70629804D01*
X41625495Y-70626204D01*
X41649999Y-70625000D01*
X42350001Y-70625000D01*
X42374505Y-70626204D01*
X42374505Y-70626204D01*
G37*
D12*
G04 #@! TD*
G04 #@! TO.P,J1,1*
G04 #@! TO.N,+5V*
X42000000Y-71500000D03*
D13*
G04 #@! TO.P,J1,2*
G04 #@! TO.N,GND*
X44000000Y-71500000D03*
G04 #@! TO.P,J1,3*
G04 #@! TO.N,key_up*
X46000000Y-71500000D03*
G04 #@! TO.P,J1,4*
G04 #@! TO.N,key_down*
X48000000Y-71500000D03*
G04 #@! TO.P,J1,5*
G04 #@! TO.N,key_left*
X50000000Y-71500000D03*
G04 #@! TO.P,J1,6*
G04 #@! TO.N,key_right*
X52000000Y-71500000D03*
G04 #@! TO.P,J1,7*
G04 #@! TO.N,key_back*
X54000000Y-71500000D03*
G04 #@! TO.P,J1,8*
G04 #@! TO.N,key_enter*
X56000000Y-71500000D03*
G04 #@! TD*
D11*
G04 #@! TO.N,SCK_5V*
G04 #@! TO.C,J2*
G36*
X45374505Y-59626204D02*
X45398773Y-59629804D01*
X45422572Y-59635765D01*
X45445671Y-59644030D01*
X45467850Y-59654520D01*
X45488893Y-59667132D01*
X45508599Y-59681747D01*
X45526777Y-59698223D01*
X45543253Y-59716401D01*
X45557868Y-59736107D01*
X45570480Y-59757150D01*
X45580970Y-59779329D01*
X45589235Y-59802428D01*
X45595196Y-59826227D01*
X45598796Y-59850495D01*
X45600000Y-59874999D01*
X45600000Y-61125001D01*
X45598796Y-61149505D01*
X45595196Y-61173773D01*
X45589235Y-61197572D01*
X45580970Y-61220671D01*
X45570480Y-61242850D01*
X45557868Y-61263893D01*
X45543253Y-61283599D01*
X45526777Y-61301777D01*
X45508599Y-61318253D01*
X45488893Y-61332868D01*
X45467850Y-61345480D01*
X45445671Y-61355970D01*
X45422572Y-61364235D01*
X45398773Y-61370196D01*
X45374505Y-61373796D01*
X45350001Y-61375000D01*
X44649999Y-61375000D01*
X44625495Y-61373796D01*
X44601227Y-61370196D01*
X44577428Y-61364235D01*
X44554329Y-61355970D01*
X44532150Y-61345480D01*
X44511107Y-61332868D01*
X44491401Y-61318253D01*
X44473223Y-61301777D01*
X44456747Y-61283599D01*
X44442132Y-61263893D01*
X44429520Y-61242850D01*
X44419030Y-61220671D01*
X44410765Y-61197572D01*
X44404804Y-61173773D01*
X44401204Y-61149505D01*
X44400000Y-61125001D01*
X44400000Y-59874999D01*
X44401204Y-59850495D01*
X44404804Y-59826227D01*
X44410765Y-59802428D01*
X44419030Y-59779329D01*
X44429520Y-59757150D01*
X44442132Y-59736107D01*
X44456747Y-59716401D01*
X44473223Y-59698223D01*
X44491401Y-59681747D01*
X44511107Y-59667132D01*
X44532150Y-59654520D01*
X44554329Y-59644030D01*
X44577428Y-59635765D01*
X44601227Y-59629804D01*
X44625495Y-59626204D01*
X44649999Y-59625000D01*
X45350001Y-59625000D01*
X45374505Y-59626204D01*
X45374505Y-59626204D01*
G37*
D12*
G04 #@! TD*
G04 #@! TO.P,J2,1*
G04 #@! TO.N,SCK_5V*
X45000000Y-60500000D03*
D13*
G04 #@! TO.P,J2,2*
G04 #@! TO.N,MOSI_5V*
X47000000Y-60500000D03*
G04 #@! TO.P,J2,3*
G04 #@! TO.N,display_reset_5V*
X49000000Y-60500000D03*
G04 #@! TO.P,J2,4*
G04 #@! TO.N,display_dc_5V*
X51000000Y-60500000D03*
G04 #@! TO.P,J2,5*
G04 #@! TO.N,display_cs_5V*
X53000000Y-60500000D03*
G04 #@! TD*
D14*
G04 #@! TO.P,SW1,2*
G04 #@! TO.N,+5V*
X53000000Y-64750000D03*
X53000000Y-69250000D03*
G04 #@! TO.P,SW1,1*
G04 #@! TO.N,key_up*
X45000000Y-64750000D03*
X45000000Y-69250000D03*
G04 #@! TD*
G04 #@! TO.P,SW2,1*
G04 #@! TO.N,key_down*
X45000000Y-87250000D03*
X45000000Y-82750000D03*
G04 #@! TO.P,SW2,2*
G04 #@! TO.N,+5V*
X53000000Y-87250000D03*
X53000000Y-82750000D03*
G04 #@! TD*
G04 #@! TO.P,SW3,2*
G04 #@! TO.N,+5V*
X62000000Y-73750000D03*
X62000000Y-78250000D03*
G04 #@! TO.P,SW3,1*
G04 #@! TO.N,key_left*
X54000000Y-73750000D03*
X54000000Y-78250000D03*
G04 #@! TD*
G04 #@! TO.P,SW4,1*
G04 #@! TO.N,key_right*
X36000000Y-78250000D03*
X36000000Y-73750000D03*
G04 #@! TO.P,SW4,2*
G04 #@! TO.N,+5V*
X44000000Y-78250000D03*
X44000000Y-73750000D03*
G04 #@! TD*
D15*
G04 #@! TO.P,SW5,2*
G04 #@! TO.N,+5V*
X61150000Y-59800000D03*
X65650000Y-59800000D03*
G04 #@! TO.P,SW5,1*
G04 #@! TO.N,key_back*
X61150000Y-67800000D03*
X65650000Y-67800000D03*
G04 #@! TD*
G04 #@! TO.P,SW6,1*
G04 #@! TO.N,key_enter*
X36850000Y-67800000D03*
X32350000Y-67800000D03*
G04 #@! TO.P,SW6,2*
G04 #@! TO.N,+5V*
X36850000Y-59800000D03*
X32350000Y-59800000D03*
G04 #@! TD*
D16*
G04 #@! TO.N,GND*
X38750000Y-45250000D03*
X43750000Y-45250000D03*
X45250000Y-45250000D03*
X60750000Y-51312500D03*
X45350000Y-75600000D03*
X51477711Y-47100000D03*
G04 #@! TO.N,+5V*
X57000000Y-53000000D03*
X47250000Y-51500000D03*
X65000000Y-58200000D03*
X44000000Y-76600000D03*
G04 #@! TO.N,+3V3*
X54650000Y-50300000D03*
X50000000Y-49250000D03*
X43000000Y-52000000D03*
X43750000Y-54500000D03*
G04 #@! TO.N,CS_3.3V*
X52500000Y-53000000D03*
X50600000Y-52400000D03*
X55250000Y-54000000D03*
G04 #@! TO.N,SCK_5V*
X44750000Y-56500000D03*
X45386348Y-54375160D03*
G04 #@! TO.N,display_SJ2*
X55500000Y-65250000D03*
X53500000Y-67750000D03*
G04 #@! TO.N,D1-MOSI-SDA_3.3V*
X46250000Y-56250000D03*
X42220371Y-56474603D03*
X40500000Y-50000000D03*
X51450000Y-43000000D03*
G04 #@! TO.N,D0-SCLK-SCK_3.3V*
X42850000Y-53800000D03*
X50500000Y-42750000D03*
G04 #@! TO.N,Display_IREF*
X55906985Y-45306985D03*
X60000000Y-63800000D03*
X64300000Y-62000000D03*
G04 #@! TD*
D17*
G04 #@! TO.N,+5V*
X55500000Y-51500000D02*
X57000000Y-53000000D01*
X47250000Y-51500000D02*
X55500000Y-51500000D01*
X62000000Y-74650000D02*
X62000000Y-78250000D01*
X62000000Y-73750000D02*
X62000000Y-74650000D01*
X53000000Y-65650000D02*
X53000000Y-64750000D01*
X52799999Y-65850001D02*
X53000000Y-65650000D01*
X52799999Y-68149999D02*
X52799999Y-65850001D01*
X53000000Y-68350000D02*
X52799999Y-68149999D01*
X53000000Y-69250000D02*
X53000000Y-68350000D01*
X53000000Y-82750000D02*
X53000000Y-87250000D01*
X62000000Y-79150000D02*
X62000000Y-78250000D01*
X58400000Y-82750000D02*
X62000000Y-79150000D01*
X53000000Y-82750000D02*
X58400000Y-82750000D01*
X44000000Y-74650000D02*
X44000000Y-76600000D01*
X44000000Y-73750000D02*
X44000000Y-74650000D01*
X44000000Y-76600000D02*
X44000000Y-78250000D01*
X54400000Y-69250000D02*
X53000000Y-69250000D01*
X58400000Y-69250000D02*
X54400000Y-69250000D01*
X62000000Y-72850000D02*
X58400000Y-69250000D01*
X62000000Y-73750000D02*
X62000000Y-72850000D01*
X65650000Y-58850000D02*
X65000000Y-58200000D01*
X65650000Y-59800000D02*
X65650000Y-58850000D01*
X65650000Y-59800000D02*
X61150000Y-59800000D01*
X62500000Y-73750000D02*
X62000000Y-73750000D01*
X66550001Y-69699999D02*
X62500000Y-73750000D01*
X66550001Y-62100001D02*
X66550001Y-69699999D01*
X65650000Y-61200000D02*
X66550001Y-62100001D01*
X65650000Y-59800000D02*
X65650000Y-61200000D01*
X33250000Y-59800000D02*
X36850000Y-59800000D01*
X32350000Y-59800000D02*
X33250000Y-59800000D01*
X43500000Y-78250000D02*
X44000000Y-78250000D01*
X34679999Y-79150001D02*
X42599999Y-79150001D01*
X34599999Y-79070001D02*
X34679999Y-79150001D01*
X42599999Y-79150001D02*
X43500000Y-78250000D01*
X34599999Y-72929999D02*
X34599999Y-79070001D01*
X34679999Y-72849999D02*
X34599999Y-72929999D01*
X36850000Y-59800000D02*
X37750000Y-59800000D01*
X37750000Y-59800000D02*
X37800000Y-59750000D01*
X37800000Y-59750000D02*
X41000000Y-59750000D01*
X41000000Y-59750000D02*
X41000000Y-66800000D01*
X41000000Y-66800000D02*
X34950001Y-72849999D01*
X34950001Y-72849999D02*
X34679999Y-72849999D01*
G04 #@! TO.N,+3V3*
X54650000Y-50300000D02*
X51050000Y-50300000D01*
X51050000Y-50300000D02*
X50000000Y-49250000D01*
X43000000Y-52000000D02*
X43750000Y-52750000D01*
X43750000Y-52750000D02*
X43750000Y-54500000D01*
X43299999Y-51700001D02*
X43000000Y-52000000D01*
X44499992Y-50500008D02*
X43299999Y-51700001D01*
X48749992Y-50500008D02*
X44499992Y-50500008D01*
X50000000Y-49250000D02*
X48749992Y-50500008D01*
D18*
G04 #@! TO.N,CS_3.3V*
X54250000Y-53000000D02*
X52500000Y-53000000D01*
X55250000Y-54000000D02*
X54250000Y-53000000D01*
X50800000Y-53000000D02*
X50750000Y-53000000D01*
X50775736Y-53000000D02*
X50800000Y-53000000D01*
X50600000Y-52400000D02*
X50600000Y-52824264D01*
X50600000Y-52824264D02*
X50775736Y-53000000D01*
X52500000Y-53000000D02*
X50800000Y-53000000D01*
G04 #@! TO.N,key_up*
X45500000Y-69250000D02*
X45000000Y-69250000D01*
X46200000Y-69950000D02*
X45500000Y-69250000D01*
X46200000Y-70050000D02*
X46200000Y-69950000D01*
X46000000Y-70250000D02*
X46200000Y-70050000D01*
X46000000Y-71500000D02*
X46000000Y-70250000D01*
X45000000Y-69250000D02*
X45000000Y-64750000D01*
G04 #@! TO.N,key_down*
X45500000Y-82750000D02*
X45000000Y-82750000D01*
X48000000Y-80250000D02*
X45500000Y-82750000D01*
X48000000Y-71500000D02*
X48000000Y-80250000D01*
X45000000Y-82750000D02*
X45000000Y-87250000D01*
G04 #@! TO.N,key_left*
X52800000Y-73750000D02*
X54000000Y-73750000D01*
X51175000Y-73750000D02*
X52800000Y-73750000D01*
X50000000Y-72575000D02*
X51175000Y-73750000D01*
X50000000Y-71500000D02*
X50000000Y-72575000D01*
X54000000Y-74450000D02*
X54000000Y-78250000D01*
X54000000Y-73750000D02*
X54000000Y-74450000D01*
G04 #@! TO.N,key_right*
X36000000Y-78250000D02*
X36000000Y-73750000D01*
X46949999Y-66174999D02*
X52000000Y-71225000D01*
X41500011Y-68249989D02*
X41500011Y-66209987D01*
X46949999Y-63949999D02*
X46949999Y-66174999D01*
X43759999Y-63949999D02*
X46949999Y-63949999D01*
X36000000Y-73750000D02*
X41500011Y-68249989D01*
X52000000Y-71225000D02*
X52000000Y-71500000D01*
X41500011Y-66209987D02*
X43759999Y-63949999D01*
G04 #@! TO.N,key_back*
X64950000Y-67800000D02*
X61150000Y-67800000D01*
X65650000Y-67800000D02*
X64950000Y-67800000D01*
X59350000Y-67800000D02*
X61150000Y-67800000D01*
X55499999Y-63949999D02*
X59350000Y-67800000D01*
X51759999Y-63949999D02*
X55499999Y-63949999D01*
X53547806Y-71500000D02*
X52372796Y-70324990D01*
X54000000Y-71500000D02*
X53547806Y-71500000D01*
X52372796Y-70324990D02*
X52034988Y-70324990D01*
X52034988Y-70324990D02*
X51250000Y-69540002D01*
X51250000Y-69540002D02*
X51250000Y-64459998D01*
X51250000Y-64459998D02*
X51759999Y-63949999D01*
G04 #@! TO.N,key_enter*
X56000000Y-78290002D02*
X54540002Y-79750000D01*
X56000000Y-71500000D02*
X56000000Y-78290002D01*
X54540002Y-79750000D02*
X50000000Y-79750000D01*
X46300001Y-87990001D02*
X46040002Y-88250000D01*
X50000000Y-79750000D02*
X46300001Y-83449999D01*
X46300001Y-83449999D02*
X46300001Y-87990001D01*
X46040002Y-88250000D02*
X39250000Y-88250000D01*
X39250000Y-88250000D02*
X33000000Y-82000000D01*
X36150000Y-67800000D02*
X32350000Y-67800000D01*
X36850000Y-67800000D02*
X36150000Y-67800000D01*
X33000000Y-69650000D02*
X33000000Y-82000000D01*
X32350000Y-69000000D02*
X33000000Y-69650000D01*
X32350000Y-67800000D02*
X32350000Y-69000000D01*
G04 #@! TO.N,SCK_5V*
X44750000Y-56500000D02*
X45386348Y-55863652D01*
X45386348Y-55863652D02*
X45386348Y-54375160D01*
G04 #@! TO.N,display_SJ2*
X55500000Y-65250000D02*
X53500000Y-67250000D01*
X53500000Y-67250000D02*
X53500000Y-67750000D01*
G04 #@! TO.N,D1-MOSI-SDA_3.3V*
X42845769Y-57100001D02*
X42220371Y-56474603D01*
X46250000Y-56250000D02*
X45399999Y-57100001D01*
X45399999Y-57100001D02*
X42845769Y-57100001D01*
X40500000Y-50000000D02*
X44450000Y-50000000D01*
X44450000Y-50000000D02*
X51450000Y-43000000D01*
G04 #@! TO.N,D0-SCLK-SCK_3.3V*
X50500000Y-42750000D02*
X43850001Y-49399999D01*
X40211999Y-49399999D02*
X39899999Y-49711999D01*
X43850001Y-49399999D02*
X40211999Y-49399999D01*
X42300002Y-52750000D02*
X42300002Y-53250002D01*
X39899999Y-50349997D02*
X42300002Y-52750000D01*
X42300002Y-53250002D02*
X42850000Y-53800000D01*
X39899999Y-49711999D02*
X39899999Y-50349997D01*
G04 #@! TO.N,Display_IREF*
X55906985Y-45306985D02*
X60000000Y-49400000D01*
X60000000Y-49400000D02*
X60000000Y-63800000D01*
X60000000Y-63800000D02*
X62500000Y-63800000D01*
X62500000Y-63800000D02*
X64300000Y-62000000D01*
G04 #@! TD*
D19*
G04 #@! TO.N,GND*
G36*
X41290000Y-33930074D02*
X41276091Y-34000000D01*
X41331195Y-34277028D01*
X41488119Y-34511881D01*
X41722972Y-34668805D01*
X42000000Y-34723909D01*
X42069925Y-34710000D01*
X55930075Y-34710000D01*
X56000000Y-34723909D01*
X56277028Y-34668805D01*
X56511881Y-34511881D01*
X56668805Y-34277028D01*
X56710000Y-34069926D01*
X56710000Y-34069925D01*
X56723909Y-34000000D01*
X56710000Y-33930074D01*
X56710000Y-30710000D01*
X64836339Y-30710000D01*
X64529138Y-31017201D01*
X64265000Y-31654887D01*
X64265000Y-32345113D01*
X64529138Y-32982799D01*
X65017201Y-33470862D01*
X65654887Y-33735000D01*
X66345113Y-33735000D01*
X66982799Y-33470862D01*
X67290001Y-33163660D01*
X67290000Y-61704529D01*
X67152002Y-61498000D01*
X67082284Y-61451416D01*
X66720309Y-61089442D01*
X66748157Y-61047765D01*
X66797440Y-60800000D01*
X66797440Y-58800000D01*
X66748157Y-58552235D01*
X66607809Y-58342191D01*
X66397765Y-58201843D01*
X66150000Y-58152560D01*
X66133428Y-58152560D01*
X65892655Y-57911788D01*
X65792655Y-57670365D01*
X65529635Y-57407345D01*
X65185983Y-57265000D01*
X64814017Y-57265000D01*
X64470365Y-57407345D01*
X64207345Y-57670365D01*
X64065000Y-58014017D01*
X64065000Y-58385983D01*
X64207345Y-58729635D01*
X64442710Y-58965000D01*
X62297440Y-58965000D01*
X62297440Y-58800000D01*
X62248157Y-58552235D01*
X62107809Y-58342191D01*
X61897765Y-58201843D01*
X61650000Y-58152560D01*
X60735000Y-58152560D01*
X60735000Y-49472383D01*
X60749398Y-49399999D01*
X60735000Y-49327613D01*
X60735000Y-49327612D01*
X60692354Y-49113217D01*
X60529905Y-48870095D01*
X60468538Y-48829091D01*
X56841985Y-45202539D01*
X56841985Y-45121002D01*
X56699640Y-44777350D01*
X56436620Y-44514330D01*
X56092968Y-44371985D01*
X55721002Y-44371985D01*
X55377350Y-44514330D01*
X55114330Y-44777350D01*
X54971985Y-45121002D01*
X54971985Y-45492968D01*
X55114330Y-45836620D01*
X55377350Y-46099640D01*
X55721002Y-46241985D01*
X55802539Y-46241985D01*
X59265000Y-49704447D01*
X59265001Y-63212709D01*
X59207345Y-63270365D01*
X59065000Y-63614017D01*
X59065000Y-63985983D01*
X59207345Y-64329635D01*
X59470365Y-64592655D01*
X59814017Y-64735000D01*
X60185983Y-64735000D01*
X60529635Y-64592655D01*
X60587290Y-64535000D01*
X62427616Y-64535000D01*
X62500000Y-64549398D01*
X62572384Y-64535000D01*
X62572388Y-64535000D01*
X62786783Y-64492354D01*
X63029905Y-64329905D01*
X63070911Y-64268535D01*
X64404447Y-62935000D01*
X64485983Y-62935000D01*
X64829635Y-62792655D01*
X65092655Y-62529635D01*
X65235000Y-62185983D01*
X65235000Y-61965867D01*
X65715001Y-62445869D01*
X65715002Y-66152560D01*
X65150000Y-66152560D01*
X64902235Y-66201843D01*
X64692191Y-66342191D01*
X64551843Y-66552235D01*
X64502560Y-66800000D01*
X64502560Y-67065000D01*
X62297440Y-67065000D01*
X62297440Y-66800000D01*
X62248157Y-66552235D01*
X62107809Y-66342191D01*
X61897765Y-66201843D01*
X61650000Y-66152560D01*
X60650000Y-66152560D01*
X60402235Y-66201843D01*
X60192191Y-66342191D01*
X60051843Y-66552235D01*
X60002560Y-66800000D01*
X60002560Y-67065000D01*
X59654447Y-67065000D01*
X56070910Y-63481464D01*
X56029904Y-63420094D01*
X55786782Y-63257645D01*
X55572387Y-63214999D01*
X55572383Y-63214999D01*
X55499999Y-63200601D01*
X55427615Y-63214999D01*
X51832387Y-63214999D01*
X51759999Y-63200600D01*
X51687611Y-63214999D01*
X51473216Y-63257645D01*
X51230094Y-63420094D01*
X51189089Y-63481462D01*
X50781463Y-63889089D01*
X50720096Y-63930093D01*
X50679092Y-63991460D01*
X50679091Y-63991461D01*
X50557646Y-64173216D01*
X50500602Y-64459998D01*
X50515001Y-64532387D01*
X50515000Y-68700554D01*
X47684999Y-65870553D01*
X47684999Y-64022387D01*
X47699398Y-63949999D01*
X47642353Y-63663216D01*
X47479904Y-63420094D01*
X47236782Y-63257645D01*
X47022387Y-63214999D01*
X46949999Y-63200600D01*
X46877611Y-63214999D01*
X43832387Y-63214999D01*
X43759999Y-63200600D01*
X43687611Y-63214999D01*
X43473216Y-63257645D01*
X43230094Y-63420094D01*
X43189090Y-63481462D01*
X41835000Y-64835552D01*
X41835000Y-59874999D01*
X43752560Y-59874999D01*
X43752560Y-61125001D01*
X43820873Y-61468436D01*
X44015414Y-61759586D01*
X44306564Y-61954127D01*
X44649999Y-62022440D01*
X45350001Y-62022440D01*
X45693436Y-61954127D01*
X45984586Y-61759586D01*
X46078573Y-61618926D01*
X46109616Y-61665385D01*
X46518128Y-61938344D01*
X47000000Y-62034195D01*
X47481873Y-61938344D01*
X47890385Y-61665385D01*
X48000000Y-61501334D01*
X48109616Y-61665385D01*
X48518128Y-61938344D01*
X49000000Y-62034195D01*
X49481873Y-61938344D01*
X49890385Y-61665385D01*
X50000000Y-61501334D01*
X50109616Y-61665385D01*
X50518128Y-61938344D01*
X51000000Y-62034195D01*
X51481873Y-61938344D01*
X51890385Y-61665385D01*
X52000000Y-61501334D01*
X52109616Y-61665385D01*
X52518128Y-61938344D01*
X53000000Y-62034195D01*
X53481873Y-61938344D01*
X53890385Y-61665385D01*
X54163344Y-61256872D01*
X54235000Y-60896635D01*
X54235000Y-60103364D01*
X54163344Y-59743127D01*
X53890385Y-59334615D01*
X53481872Y-59061656D01*
X53000000Y-58965805D01*
X52518127Y-59061656D01*
X52109615Y-59334615D01*
X52000000Y-59498666D01*
X51890385Y-59334615D01*
X51481872Y-59061656D01*
X51000000Y-58965805D01*
X50518127Y-59061656D01*
X50109615Y-59334615D01*
X50000000Y-59498666D01*
X49890385Y-59334615D01*
X49481872Y-59061656D01*
X49000000Y-58965805D01*
X48518127Y-59061656D01*
X48109615Y-59334615D01*
X48000000Y-59498666D01*
X47890385Y-59334615D01*
X47481872Y-59061656D01*
X47000000Y-58965805D01*
X46518127Y-59061656D01*
X46109615Y-59334615D01*
X46078572Y-59381074D01*
X45984586Y-59240414D01*
X45693436Y-59045873D01*
X45350001Y-58977560D01*
X44649999Y-58977560D01*
X44306564Y-59045873D01*
X44015414Y-59240414D01*
X43820873Y-59531564D01*
X43752560Y-59874999D01*
X41835000Y-59874999D01*
X41835000Y-59832237D01*
X41851358Y-59750000D01*
X41786552Y-59424199D01*
X41602001Y-59147999D01*
X41325801Y-58963448D01*
X41082237Y-58915000D01*
X41000000Y-58898642D01*
X40917763Y-58915000D01*
X37997440Y-58915000D01*
X37997440Y-58800000D01*
X37948157Y-58552235D01*
X37807809Y-58342191D01*
X37597765Y-58201843D01*
X37350000Y-58152560D01*
X36350000Y-58152560D01*
X36102235Y-58201843D01*
X35892191Y-58342191D01*
X35751843Y-58552235D01*
X35702560Y-58800000D01*
X35702560Y-58965000D01*
X33497440Y-58965000D01*
X33497440Y-58800000D01*
X33448157Y-58552235D01*
X33307809Y-58342191D01*
X33097765Y-58201843D01*
X32850000Y-58152560D01*
X31850000Y-58152560D01*
X31602235Y-58201843D01*
X31392191Y-58342191D01*
X31251843Y-58552235D01*
X31202560Y-58800000D01*
X31202560Y-60800000D01*
X31251843Y-61047765D01*
X31392191Y-61257809D01*
X31602235Y-61398157D01*
X31850000Y-61447440D01*
X32850000Y-61447440D01*
X33097765Y-61398157D01*
X33307809Y-61257809D01*
X33448157Y-61047765D01*
X33497440Y-60800000D01*
X33497440Y-60635000D01*
X35702560Y-60635000D01*
X35702560Y-60800000D01*
X35751843Y-61047765D01*
X35892191Y-61257809D01*
X36102235Y-61398157D01*
X36350000Y-61447440D01*
X37350000Y-61447440D01*
X37597765Y-61398157D01*
X37807809Y-61257809D01*
X37948157Y-61047765D01*
X37997440Y-60800000D01*
X37997440Y-60602139D01*
X38075801Y-60586552D01*
X38078124Y-60585000D01*
X40165000Y-60585000D01*
X40165001Y-66454131D01*
X37997440Y-68621692D01*
X37997440Y-66800000D01*
X37948157Y-66552235D01*
X37807809Y-66342191D01*
X37597765Y-66201843D01*
X37350000Y-66152560D01*
X36350000Y-66152560D01*
X36102235Y-66201843D01*
X35892191Y-66342191D01*
X35751843Y-66552235D01*
X35702560Y-66800000D01*
X35702560Y-67065000D01*
X33497440Y-67065000D01*
X33497440Y-66800000D01*
X33448157Y-66552235D01*
X33307809Y-66342191D01*
X33097765Y-66201843D01*
X32850000Y-66152560D01*
X31850000Y-66152560D01*
X31602235Y-66201843D01*
X31392191Y-66342191D01*
X31251843Y-66552235D01*
X31202560Y-66800000D01*
X31202560Y-68800000D01*
X31251843Y-69047765D01*
X31392191Y-69257809D01*
X31602235Y-69398157D01*
X31751965Y-69427940D01*
X31779091Y-69468537D01*
X31820096Y-69529905D01*
X31881463Y-69570909D01*
X32265000Y-69954447D01*
X32265001Y-81927611D01*
X32250602Y-82000000D01*
X32307646Y-82286782D01*
X32307647Y-82286783D01*
X32470096Y-82529905D01*
X32531463Y-82570909D01*
X38250553Y-88290000D01*
X33163661Y-88290000D01*
X33470862Y-87982799D01*
X33735000Y-87345113D01*
X33735000Y-86654887D01*
X33470862Y-86017201D01*
X32982799Y-85529138D01*
X32345113Y-85265000D01*
X31654887Y-85265000D01*
X31017201Y-85529138D01*
X30710000Y-85836339D01*
X30710000Y-49711999D01*
X39150601Y-49711999D01*
X39164999Y-49784383D01*
X39164999Y-50277613D01*
X39150601Y-50349997D01*
X39164999Y-50422381D01*
X39164999Y-50422385D01*
X39207645Y-50636780D01*
X39370095Y-50879902D01*
X39431462Y-50920906D01*
X41565002Y-53054447D01*
X41565002Y-53177618D01*
X41550604Y-53250002D01*
X41565002Y-53322386D01*
X41565002Y-53322390D01*
X41607648Y-53536785D01*
X41770098Y-53779907D01*
X41831465Y-53820911D01*
X41915000Y-53904446D01*
X41915000Y-53985983D01*
X42057345Y-54329635D01*
X42320365Y-54592655D01*
X42664017Y-54735000D01*
X42835303Y-54735000D01*
X42957345Y-55029635D01*
X43220365Y-55292655D01*
X43564017Y-55435000D01*
X43935983Y-55435000D01*
X44279635Y-55292655D01*
X44542655Y-55029635D01*
X44594168Y-54905270D01*
X44651349Y-54962451D01*
X44651348Y-55559205D01*
X44645553Y-55565000D01*
X44564017Y-55565000D01*
X44220365Y-55707345D01*
X43957345Y-55970365D01*
X43815000Y-56314017D01*
X43815000Y-56365001D01*
X43155371Y-56365001D01*
X43155371Y-56288620D01*
X43013026Y-55944968D01*
X42750006Y-55681948D01*
X42406354Y-55539603D01*
X42034388Y-55539603D01*
X41690736Y-55681948D01*
X41427716Y-55944968D01*
X41285371Y-56288620D01*
X41285371Y-56660586D01*
X41427716Y-57004238D01*
X41690736Y-57267258D01*
X42034388Y-57409603D01*
X42115924Y-57409603D01*
X42274859Y-57568538D01*
X42315864Y-57629906D01*
X42558986Y-57792355D01*
X42773381Y-57835001D01*
X42773384Y-57835001D01*
X42845768Y-57849399D01*
X42918152Y-57835001D01*
X45327615Y-57835001D01*
X45399999Y-57849399D01*
X45472383Y-57835001D01*
X45472387Y-57835001D01*
X45686782Y-57792355D01*
X45929904Y-57629906D01*
X45970910Y-57568536D01*
X46354447Y-57185000D01*
X46435983Y-57185000D01*
X46779635Y-57042655D01*
X47042655Y-56779635D01*
X47185000Y-56435983D01*
X47185000Y-56064017D01*
X47042655Y-55720365D01*
X46779635Y-55457345D01*
X46435983Y-55315000D01*
X46121348Y-55315000D01*
X46121348Y-54962450D01*
X46179003Y-54904795D01*
X46321348Y-54561143D01*
X46321348Y-54189177D01*
X46179003Y-53845525D01*
X45915983Y-53582505D01*
X45572331Y-53440160D01*
X45200365Y-53440160D01*
X44856713Y-53582505D01*
X44593693Y-53845525D01*
X44585000Y-53866512D01*
X44585000Y-52832232D01*
X44601357Y-52749999D01*
X44585000Y-52667764D01*
X44585000Y-52667763D01*
X44536552Y-52424199D01*
X44352001Y-52147999D01*
X44282283Y-52101415D01*
X44180868Y-52000000D01*
X44845861Y-51335008D01*
X46315000Y-51335008D01*
X46315000Y-51685983D01*
X46457345Y-52029635D01*
X46720365Y-52292655D01*
X47064017Y-52435000D01*
X47435983Y-52435000D01*
X47677405Y-52335000D01*
X49665000Y-52335000D01*
X49665000Y-52585983D01*
X49807345Y-52929635D01*
X49887506Y-53009796D01*
X49907646Y-53111047D01*
X50070096Y-53354169D01*
X50128946Y-53393492D01*
X50220095Y-53529905D01*
X50463217Y-53692354D01*
X50677612Y-53735000D01*
X50703351Y-53735000D01*
X50775735Y-53749398D01*
X50848119Y-53735000D01*
X51912710Y-53735000D01*
X51970365Y-53792655D01*
X52314017Y-53935000D01*
X52685983Y-53935000D01*
X53029635Y-53792655D01*
X53087290Y-53735000D01*
X53945554Y-53735000D01*
X54315000Y-54104447D01*
X54315000Y-54185983D01*
X54457345Y-54529635D01*
X54720365Y-54792655D01*
X55064017Y-54935000D01*
X55435983Y-54935000D01*
X55779635Y-54792655D01*
X56042655Y-54529635D01*
X56185000Y-54185983D01*
X56185000Y-53814017D01*
X56042655Y-53470365D01*
X55779635Y-53207345D01*
X55435983Y-53065000D01*
X55354447Y-53065000D01*
X54820911Y-52531465D01*
X54779905Y-52470095D01*
X54577721Y-52335000D01*
X55154133Y-52335000D01*
X56107345Y-53288214D01*
X56207345Y-53529635D01*
X56470365Y-53792655D01*
X56814017Y-53935000D01*
X57185983Y-53935000D01*
X57529635Y-53792655D01*
X57792655Y-53529635D01*
X57935000Y-53185983D01*
X57935000Y-52814017D01*
X57792655Y-52470365D01*
X57529635Y-52207345D01*
X57288214Y-52107345D01*
X56148587Y-50967720D01*
X56102001Y-50897999D01*
X55825801Y-50713448D01*
X55582237Y-50665000D01*
X55582233Y-50665000D01*
X55516283Y-50651882D01*
X55585000Y-50485983D01*
X55585000Y-50114017D01*
X55442655Y-49770365D01*
X55179635Y-49507345D01*
X54835983Y-49365000D01*
X54464017Y-49365000D01*
X54222595Y-49465000D01*
X51395868Y-49465000D01*
X50892656Y-48961788D01*
X50792655Y-48720365D01*
X50529635Y-48457345D01*
X50185983Y-48315000D01*
X49814017Y-48315000D01*
X49470365Y-48457345D01*
X49207345Y-48720365D01*
X49107345Y-48961786D01*
X48404125Y-49665008D01*
X45824438Y-49665008D01*
X51554447Y-43935000D01*
X51635983Y-43935000D01*
X51979635Y-43792655D01*
X52242655Y-43529635D01*
X52385000Y-43185983D01*
X52385000Y-42814017D01*
X52242655Y-42470365D01*
X51979635Y-42207345D01*
X51635983Y-42065000D01*
X51264017Y-42065000D01*
X51174407Y-42102117D01*
X51029635Y-41957345D01*
X50685983Y-41815000D01*
X50314017Y-41815000D01*
X49970365Y-41957345D01*
X49707345Y-42220365D01*
X49565000Y-42564017D01*
X49565000Y-42645553D01*
X43545555Y-48664999D01*
X40284387Y-48664999D01*
X40211999Y-48650600D01*
X40139611Y-48664999D01*
X39925216Y-48707645D01*
X39682094Y-48870094D01*
X39641088Y-48931464D01*
X39431464Y-49141088D01*
X39370094Y-49182094D01*
X39207645Y-49425217D01*
X39164999Y-49639612D01*
X39164999Y-49639615D01*
X39150601Y-49711999D01*
X30710000Y-49711999D01*
X30710000Y-33163661D01*
X31017201Y-33470862D01*
X31654887Y-33735000D01*
X32345113Y-33735000D01*
X32982799Y-33470862D01*
X33470862Y-32982799D01*
X33735000Y-32345113D01*
X33735000Y-31654887D01*
X33470862Y-31017201D01*
X33163661Y-30710000D01*
X41290001Y-30710000D01*
X41290000Y-33930074D01*
X41290000Y-33930074D01*
G37*
X41290000Y-33930074D02*
X41276091Y-34000000D01*
X41331195Y-34277028D01*
X41488119Y-34511881D01*
X41722972Y-34668805D01*
X42000000Y-34723909D01*
X42069925Y-34710000D01*
X55930075Y-34710000D01*
X56000000Y-34723909D01*
X56277028Y-34668805D01*
X56511881Y-34511881D01*
X56668805Y-34277028D01*
X56710000Y-34069926D01*
X56710000Y-34069925D01*
X56723909Y-34000000D01*
X56710000Y-33930074D01*
X56710000Y-30710000D01*
X64836339Y-30710000D01*
X64529138Y-31017201D01*
X64265000Y-31654887D01*
X64265000Y-32345113D01*
X64529138Y-32982799D01*
X65017201Y-33470862D01*
X65654887Y-33735000D01*
X66345113Y-33735000D01*
X66982799Y-33470862D01*
X67290001Y-33163660D01*
X67290000Y-61704529D01*
X67152002Y-61498000D01*
X67082284Y-61451416D01*
X66720309Y-61089442D01*
X66748157Y-61047765D01*
X66797440Y-60800000D01*
X66797440Y-58800000D01*
X66748157Y-58552235D01*
X66607809Y-58342191D01*
X66397765Y-58201843D01*
X66150000Y-58152560D01*
X66133428Y-58152560D01*
X65892655Y-57911788D01*
X65792655Y-57670365D01*
X65529635Y-57407345D01*
X65185983Y-57265000D01*
X64814017Y-57265000D01*
X64470365Y-57407345D01*
X64207345Y-57670365D01*
X64065000Y-58014017D01*
X64065000Y-58385983D01*
X64207345Y-58729635D01*
X64442710Y-58965000D01*
X62297440Y-58965000D01*
X62297440Y-58800000D01*
X62248157Y-58552235D01*
X62107809Y-58342191D01*
X61897765Y-58201843D01*
X61650000Y-58152560D01*
X60735000Y-58152560D01*
X60735000Y-49472383D01*
X60749398Y-49399999D01*
X60735000Y-49327613D01*
X60735000Y-49327612D01*
X60692354Y-49113217D01*
X60529905Y-48870095D01*
X60468538Y-48829091D01*
X56841985Y-45202539D01*
X56841985Y-45121002D01*
X56699640Y-44777350D01*
X56436620Y-44514330D01*
X56092968Y-44371985D01*
X55721002Y-44371985D01*
X55377350Y-44514330D01*
X55114330Y-44777350D01*
X54971985Y-45121002D01*
X54971985Y-45492968D01*
X55114330Y-45836620D01*
X55377350Y-46099640D01*
X55721002Y-46241985D01*
X55802539Y-46241985D01*
X59265000Y-49704447D01*
X59265001Y-63212709D01*
X59207345Y-63270365D01*
X59065000Y-63614017D01*
X59065000Y-63985983D01*
X59207345Y-64329635D01*
X59470365Y-64592655D01*
X59814017Y-64735000D01*
X60185983Y-64735000D01*
X60529635Y-64592655D01*
X60587290Y-64535000D01*
X62427616Y-64535000D01*
X62500000Y-64549398D01*
X62572384Y-64535000D01*
X62572388Y-64535000D01*
X62786783Y-64492354D01*
X63029905Y-64329905D01*
X63070911Y-64268535D01*
X64404447Y-62935000D01*
X64485983Y-62935000D01*
X64829635Y-62792655D01*
X65092655Y-62529635D01*
X65235000Y-62185983D01*
X65235000Y-61965867D01*
X65715001Y-62445869D01*
X65715002Y-66152560D01*
X65150000Y-66152560D01*
X64902235Y-66201843D01*
X64692191Y-66342191D01*
X64551843Y-66552235D01*
X64502560Y-66800000D01*
X64502560Y-67065000D01*
X62297440Y-67065000D01*
X62297440Y-66800000D01*
X62248157Y-66552235D01*
X62107809Y-66342191D01*
X61897765Y-66201843D01*
X61650000Y-66152560D01*
X60650000Y-66152560D01*
X60402235Y-66201843D01*
X60192191Y-66342191D01*
X60051843Y-66552235D01*
X60002560Y-66800000D01*
X60002560Y-67065000D01*
X59654447Y-67065000D01*
X56070910Y-63481464D01*
X56029904Y-63420094D01*
X55786782Y-63257645D01*
X55572387Y-63214999D01*
X55572383Y-63214999D01*
X55499999Y-63200601D01*
X55427615Y-63214999D01*
X51832387Y-63214999D01*
X51759999Y-63200600D01*
X51687611Y-63214999D01*
X51473216Y-63257645D01*
X51230094Y-63420094D01*
X51189089Y-63481462D01*
X50781463Y-63889089D01*
X50720096Y-63930093D01*
X50679092Y-63991460D01*
X50679091Y-63991461D01*
X50557646Y-64173216D01*
X50500602Y-64459998D01*
X50515001Y-64532387D01*
X50515000Y-68700554D01*
X47684999Y-65870553D01*
X47684999Y-64022387D01*
X47699398Y-63949999D01*
X47642353Y-63663216D01*
X47479904Y-63420094D01*
X47236782Y-63257645D01*
X47022387Y-63214999D01*
X46949999Y-63200600D01*
X46877611Y-63214999D01*
X43832387Y-63214999D01*
X43759999Y-63200600D01*
X43687611Y-63214999D01*
X43473216Y-63257645D01*
X43230094Y-63420094D01*
X43189090Y-63481462D01*
X41835000Y-64835552D01*
X41835000Y-59874999D01*
X43752560Y-59874999D01*
X43752560Y-61125001D01*
X43820873Y-61468436D01*
X44015414Y-61759586D01*
X44306564Y-61954127D01*
X44649999Y-62022440D01*
X45350001Y-62022440D01*
X45693436Y-61954127D01*
X45984586Y-61759586D01*
X46078573Y-61618926D01*
X46109616Y-61665385D01*
X46518128Y-61938344D01*
X47000000Y-62034195D01*
X47481873Y-61938344D01*
X47890385Y-61665385D01*
X48000000Y-61501334D01*
X48109616Y-61665385D01*
X48518128Y-61938344D01*
X49000000Y-62034195D01*
X49481873Y-61938344D01*
X49890385Y-61665385D01*
X50000000Y-61501334D01*
X50109616Y-61665385D01*
X50518128Y-61938344D01*
X51000000Y-62034195D01*
X51481873Y-61938344D01*
X51890385Y-61665385D01*
X52000000Y-61501334D01*
X52109616Y-61665385D01*
X52518128Y-61938344D01*
X53000000Y-62034195D01*
X53481873Y-61938344D01*
X53890385Y-61665385D01*
X54163344Y-61256872D01*
X54235000Y-60896635D01*
X54235000Y-60103364D01*
X54163344Y-59743127D01*
X53890385Y-59334615D01*
X53481872Y-59061656D01*
X53000000Y-58965805D01*
X52518127Y-59061656D01*
X52109615Y-59334615D01*
X52000000Y-59498666D01*
X51890385Y-59334615D01*
X51481872Y-59061656D01*
X51000000Y-58965805D01*
X50518127Y-59061656D01*
X50109615Y-59334615D01*
X50000000Y-59498666D01*
X49890385Y-59334615D01*
X49481872Y-59061656D01*
X49000000Y-58965805D01*
X48518127Y-59061656D01*
X48109615Y-59334615D01*
X48000000Y-59498666D01*
X47890385Y-59334615D01*
X47481872Y-59061656D01*
X47000000Y-58965805D01*
X46518127Y-59061656D01*
X46109615Y-59334615D01*
X46078572Y-59381074D01*
X45984586Y-59240414D01*
X45693436Y-59045873D01*
X45350001Y-58977560D01*
X44649999Y-58977560D01*
X44306564Y-59045873D01*
X44015414Y-59240414D01*
X43820873Y-59531564D01*
X43752560Y-59874999D01*
X41835000Y-59874999D01*
X41835000Y-59832237D01*
X41851358Y-59750000D01*
X41786552Y-59424199D01*
X41602001Y-59147999D01*
X41325801Y-58963448D01*
X41082237Y-58915000D01*
X41000000Y-58898642D01*
X40917763Y-58915000D01*
X37997440Y-58915000D01*
X37997440Y-58800000D01*
X37948157Y-58552235D01*
X37807809Y-58342191D01*
X37597765Y-58201843D01*
X37350000Y-58152560D01*
X36350000Y-58152560D01*
X36102235Y-58201843D01*
X35892191Y-58342191D01*
X35751843Y-58552235D01*
X35702560Y-58800000D01*
X35702560Y-58965000D01*
X33497440Y-58965000D01*
X33497440Y-58800000D01*
X33448157Y-58552235D01*
X33307809Y-58342191D01*
X33097765Y-58201843D01*
X32850000Y-58152560D01*
X31850000Y-58152560D01*
X31602235Y-58201843D01*
X31392191Y-58342191D01*
X31251843Y-58552235D01*
X31202560Y-58800000D01*
X31202560Y-60800000D01*
X31251843Y-61047765D01*
X31392191Y-61257809D01*
X31602235Y-61398157D01*
X31850000Y-61447440D01*
X32850000Y-61447440D01*
X33097765Y-61398157D01*
X33307809Y-61257809D01*
X33448157Y-61047765D01*
X33497440Y-60800000D01*
X33497440Y-60635000D01*
X35702560Y-60635000D01*
X35702560Y-60800000D01*
X35751843Y-61047765D01*
X35892191Y-61257809D01*
X36102235Y-61398157D01*
X36350000Y-61447440D01*
X37350000Y-61447440D01*
X37597765Y-61398157D01*
X37807809Y-61257809D01*
X37948157Y-61047765D01*
X37997440Y-60800000D01*
X37997440Y-60602139D01*
X38075801Y-60586552D01*
X38078124Y-60585000D01*
X40165000Y-60585000D01*
X40165001Y-66454131D01*
X37997440Y-68621692D01*
X37997440Y-66800000D01*
X37948157Y-66552235D01*
X37807809Y-66342191D01*
X37597765Y-66201843D01*
X37350000Y-66152560D01*
X36350000Y-66152560D01*
X36102235Y-66201843D01*
X35892191Y-66342191D01*
X35751843Y-66552235D01*
X35702560Y-66800000D01*
X35702560Y-67065000D01*
X33497440Y-67065000D01*
X33497440Y-66800000D01*
X33448157Y-66552235D01*
X33307809Y-66342191D01*
X33097765Y-66201843D01*
X32850000Y-66152560D01*
X31850000Y-66152560D01*
X31602235Y-66201843D01*
X31392191Y-66342191D01*
X31251843Y-66552235D01*
X31202560Y-66800000D01*
X31202560Y-68800000D01*
X31251843Y-69047765D01*
X31392191Y-69257809D01*
X31602235Y-69398157D01*
X31751965Y-69427940D01*
X31779091Y-69468537D01*
X31820096Y-69529905D01*
X31881463Y-69570909D01*
X32265000Y-69954447D01*
X32265001Y-81927611D01*
X32250602Y-82000000D01*
X32307646Y-82286782D01*
X32307647Y-82286783D01*
X32470096Y-82529905D01*
X32531463Y-82570909D01*
X38250553Y-88290000D01*
X33163661Y-88290000D01*
X33470862Y-87982799D01*
X33735000Y-87345113D01*
X33735000Y-86654887D01*
X33470862Y-86017201D01*
X32982799Y-85529138D01*
X32345113Y-85265000D01*
X31654887Y-85265000D01*
X31017201Y-85529138D01*
X30710000Y-85836339D01*
X30710000Y-49711999D01*
X39150601Y-49711999D01*
X39164999Y-49784383D01*
X39164999Y-50277613D01*
X39150601Y-50349997D01*
X39164999Y-50422381D01*
X39164999Y-50422385D01*
X39207645Y-50636780D01*
X39370095Y-50879902D01*
X39431462Y-50920906D01*
X41565002Y-53054447D01*
X41565002Y-53177618D01*
X41550604Y-53250002D01*
X41565002Y-53322386D01*
X41565002Y-53322390D01*
X41607648Y-53536785D01*
X41770098Y-53779907D01*
X41831465Y-53820911D01*
X41915000Y-53904446D01*
X41915000Y-53985983D01*
X42057345Y-54329635D01*
X42320365Y-54592655D01*
X42664017Y-54735000D01*
X42835303Y-54735000D01*
X42957345Y-55029635D01*
X43220365Y-55292655D01*
X43564017Y-55435000D01*
X43935983Y-55435000D01*
X44279635Y-55292655D01*
X44542655Y-55029635D01*
X44594168Y-54905270D01*
X44651349Y-54962451D01*
X44651348Y-55559205D01*
X44645553Y-55565000D01*
X44564017Y-55565000D01*
X44220365Y-55707345D01*
X43957345Y-55970365D01*
X43815000Y-56314017D01*
X43815000Y-56365001D01*
X43155371Y-56365001D01*
X43155371Y-56288620D01*
X43013026Y-55944968D01*
X42750006Y-55681948D01*
X42406354Y-55539603D01*
X42034388Y-55539603D01*
X41690736Y-55681948D01*
X41427716Y-55944968D01*
X41285371Y-56288620D01*
X41285371Y-56660586D01*
X41427716Y-57004238D01*
X41690736Y-57267258D01*
X42034388Y-57409603D01*
X42115924Y-57409603D01*
X42274859Y-57568538D01*
X42315864Y-57629906D01*
X42558986Y-57792355D01*
X42773381Y-57835001D01*
X42773384Y-57835001D01*
X42845768Y-57849399D01*
X42918152Y-57835001D01*
X45327615Y-57835001D01*
X45399999Y-57849399D01*
X45472383Y-57835001D01*
X45472387Y-57835001D01*
X45686782Y-57792355D01*
X45929904Y-57629906D01*
X45970910Y-57568536D01*
X46354447Y-57185000D01*
X46435983Y-57185000D01*
X46779635Y-57042655D01*
X47042655Y-56779635D01*
X47185000Y-56435983D01*
X47185000Y-56064017D01*
X47042655Y-55720365D01*
X46779635Y-55457345D01*
X46435983Y-55315000D01*
X46121348Y-55315000D01*
X46121348Y-54962450D01*
X46179003Y-54904795D01*
X46321348Y-54561143D01*
X46321348Y-54189177D01*
X46179003Y-53845525D01*
X45915983Y-53582505D01*
X45572331Y-53440160D01*
X45200365Y-53440160D01*
X44856713Y-53582505D01*
X44593693Y-53845525D01*
X44585000Y-53866512D01*
X44585000Y-52832232D01*
X44601357Y-52749999D01*
X44585000Y-52667764D01*
X44585000Y-52667763D01*
X44536552Y-52424199D01*
X44352001Y-52147999D01*
X44282283Y-52101415D01*
X44180868Y-52000000D01*
X44845861Y-51335008D01*
X46315000Y-51335008D01*
X46315000Y-51685983D01*
X46457345Y-52029635D01*
X46720365Y-52292655D01*
X47064017Y-52435000D01*
X47435983Y-52435000D01*
X47677405Y-52335000D01*
X49665000Y-52335000D01*
X49665000Y-52585983D01*
X49807345Y-52929635D01*
X49887506Y-53009796D01*
X49907646Y-53111047D01*
X50070096Y-53354169D01*
X50128946Y-53393492D01*
X50220095Y-53529905D01*
X50463217Y-53692354D01*
X50677612Y-53735000D01*
X50703351Y-53735000D01*
X50775735Y-53749398D01*
X50848119Y-53735000D01*
X51912710Y-53735000D01*
X51970365Y-53792655D01*
X52314017Y-53935000D01*
X52685983Y-53935000D01*
X53029635Y-53792655D01*
X53087290Y-53735000D01*
X53945554Y-53735000D01*
X54315000Y-54104447D01*
X54315000Y-54185983D01*
X54457345Y-54529635D01*
X54720365Y-54792655D01*
X55064017Y-54935000D01*
X55435983Y-54935000D01*
X55779635Y-54792655D01*
X56042655Y-54529635D01*
X56185000Y-54185983D01*
X56185000Y-53814017D01*
X56042655Y-53470365D01*
X55779635Y-53207345D01*
X55435983Y-53065000D01*
X55354447Y-53065000D01*
X54820911Y-52531465D01*
X54779905Y-52470095D01*
X54577721Y-52335000D01*
X55154133Y-52335000D01*
X56107345Y-53288214D01*
X56207345Y-53529635D01*
X56470365Y-53792655D01*
X56814017Y-53935000D01*
X57185983Y-53935000D01*
X57529635Y-53792655D01*
X57792655Y-53529635D01*
X57935000Y-53185983D01*
X57935000Y-52814017D01*
X57792655Y-52470365D01*
X57529635Y-52207345D01*
X57288214Y-52107345D01*
X56148587Y-50967720D01*
X56102001Y-50897999D01*
X55825801Y-50713448D01*
X55582237Y-50665000D01*
X55582233Y-50665000D01*
X55516283Y-50651882D01*
X55585000Y-50485983D01*
X55585000Y-50114017D01*
X55442655Y-49770365D01*
X55179635Y-49507345D01*
X54835983Y-49365000D01*
X54464017Y-49365000D01*
X54222595Y-49465000D01*
X51395868Y-49465000D01*
X50892656Y-48961788D01*
X50792655Y-48720365D01*
X50529635Y-48457345D01*
X50185983Y-48315000D01*
X49814017Y-48315000D01*
X49470365Y-48457345D01*
X49207345Y-48720365D01*
X49107345Y-48961786D01*
X48404125Y-49665008D01*
X45824438Y-49665008D01*
X51554447Y-43935000D01*
X51635983Y-43935000D01*
X51979635Y-43792655D01*
X52242655Y-43529635D01*
X52385000Y-43185983D01*
X52385000Y-42814017D01*
X52242655Y-42470365D01*
X51979635Y-42207345D01*
X51635983Y-42065000D01*
X51264017Y-42065000D01*
X51174407Y-42102117D01*
X51029635Y-41957345D01*
X50685983Y-41815000D01*
X50314017Y-41815000D01*
X49970365Y-41957345D01*
X49707345Y-42220365D01*
X49565000Y-42564017D01*
X49565000Y-42645553D01*
X43545555Y-48664999D01*
X40284387Y-48664999D01*
X40211999Y-48650600D01*
X40139611Y-48664999D01*
X39925216Y-48707645D01*
X39682094Y-48870094D01*
X39641088Y-48931464D01*
X39431464Y-49141088D01*
X39370094Y-49182094D01*
X39207645Y-49425217D01*
X39164999Y-49639612D01*
X39164999Y-49639615D01*
X39150601Y-49711999D01*
X30710000Y-49711999D01*
X30710000Y-33163661D01*
X31017201Y-33470862D01*
X31654887Y-33735000D01*
X32345113Y-33735000D01*
X32982799Y-33470862D01*
X33470862Y-32982799D01*
X33735000Y-32345113D01*
X33735000Y-31654887D01*
X33470862Y-31017201D01*
X33163661Y-30710000D01*
X41290001Y-30710000D01*
X41290000Y-33930074D01*
G36*
X35702560Y-68800000D02*
X35751843Y-69047765D01*
X35892191Y-69257809D01*
X36102235Y-69398157D01*
X36350000Y-69447440D01*
X37171693Y-69447440D01*
X34605715Y-72013418D01*
X34597765Y-72014999D01*
X34597762Y-72014999D01*
X34354198Y-72063447D01*
X34077998Y-72247998D01*
X34045954Y-72295954D01*
X33997998Y-72327998D01*
X33813447Y-72604199D01*
X33764999Y-72847763D01*
X33764999Y-72847766D01*
X33748642Y-72929999D01*
X33764999Y-73012232D01*
X33765000Y-78987763D01*
X33748642Y-79070001D01*
X33813447Y-79395801D01*
X33866902Y-79475802D01*
X33997999Y-79672002D01*
X34045954Y-79704044D01*
X34077998Y-79752002D01*
X34354198Y-79936553D01*
X34597762Y-79985001D01*
X34597765Y-79985001D01*
X34679998Y-80001358D01*
X34762231Y-79985001D01*
X42517766Y-79985001D01*
X42599999Y-80001358D01*
X42682232Y-79985001D01*
X42682236Y-79985001D01*
X42925800Y-79936553D01*
X43202000Y-79752002D01*
X43248586Y-79682281D01*
X43533427Y-79397440D01*
X45000000Y-79397440D01*
X45247765Y-79348157D01*
X45457809Y-79207809D01*
X45598157Y-78997765D01*
X45647440Y-78750000D01*
X45647440Y-77750000D01*
X45598157Y-77502235D01*
X45457809Y-77292191D01*
X45247765Y-77151843D01*
X45000000Y-77102560D01*
X44835000Y-77102560D01*
X44835000Y-77027405D01*
X44935000Y-76785983D01*
X44935000Y-76414017D01*
X44835000Y-76172595D01*
X44835000Y-74897440D01*
X45000000Y-74897440D01*
X45247765Y-74848157D01*
X45457809Y-74707809D01*
X45598157Y-74497765D01*
X45647440Y-74250000D01*
X45647440Y-73250000D01*
X45598157Y-73002235D01*
X45561189Y-72946910D01*
X46000000Y-73034195D01*
X46481873Y-72938344D01*
X46890385Y-72665385D01*
X47000000Y-72501334D01*
X47109616Y-72665385D01*
X47265000Y-72769209D01*
X47265001Y-79945552D01*
X45607994Y-81602560D01*
X44000000Y-81602560D01*
X43752235Y-81651843D01*
X43542191Y-81792191D01*
X43401843Y-82002235D01*
X43352560Y-82250000D01*
X43352560Y-83250000D01*
X43401843Y-83497765D01*
X43542191Y-83707809D01*
X43752235Y-83848157D01*
X44000000Y-83897440D01*
X44265000Y-83897440D01*
X44265001Y-86102560D01*
X44000000Y-86102560D01*
X43752235Y-86151843D01*
X43542191Y-86292191D01*
X43401843Y-86502235D01*
X43352560Y-86750000D01*
X43352560Y-87515000D01*
X39554447Y-87515000D01*
X33735000Y-81695554D01*
X33735000Y-69722384D01*
X33749398Y-69650000D01*
X33735000Y-69577616D01*
X33735000Y-69577612D01*
X33692354Y-69363217D01*
X33529905Y-69120095D01*
X33468538Y-69079091D01*
X33443773Y-69054326D01*
X33448157Y-69047765D01*
X33497440Y-68800000D01*
X33497440Y-68535000D01*
X35702560Y-68535000D01*
X35702560Y-68800000D01*
X35702560Y-68800000D01*
G37*
X35702560Y-68800000D02*
X35751843Y-69047765D01*
X35892191Y-69257809D01*
X36102235Y-69398157D01*
X36350000Y-69447440D01*
X37171693Y-69447440D01*
X34605715Y-72013418D01*
X34597765Y-72014999D01*
X34597762Y-72014999D01*
X34354198Y-72063447D01*
X34077998Y-72247998D01*
X34045954Y-72295954D01*
X33997998Y-72327998D01*
X33813447Y-72604199D01*
X33764999Y-72847763D01*
X33764999Y-72847766D01*
X33748642Y-72929999D01*
X33764999Y-73012232D01*
X33765000Y-78987763D01*
X33748642Y-79070001D01*
X33813447Y-79395801D01*
X33866902Y-79475802D01*
X33997999Y-79672002D01*
X34045954Y-79704044D01*
X34077998Y-79752002D01*
X34354198Y-79936553D01*
X34597762Y-79985001D01*
X34597765Y-79985001D01*
X34679998Y-80001358D01*
X34762231Y-79985001D01*
X42517766Y-79985001D01*
X42599999Y-80001358D01*
X42682232Y-79985001D01*
X42682236Y-79985001D01*
X42925800Y-79936553D01*
X43202000Y-79752002D01*
X43248586Y-79682281D01*
X43533427Y-79397440D01*
X45000000Y-79397440D01*
X45247765Y-79348157D01*
X45457809Y-79207809D01*
X45598157Y-78997765D01*
X45647440Y-78750000D01*
X45647440Y-77750000D01*
X45598157Y-77502235D01*
X45457809Y-77292191D01*
X45247765Y-77151843D01*
X45000000Y-77102560D01*
X44835000Y-77102560D01*
X44835000Y-77027405D01*
X44935000Y-76785983D01*
X44935000Y-76414017D01*
X44835000Y-76172595D01*
X44835000Y-74897440D01*
X45000000Y-74897440D01*
X45247765Y-74848157D01*
X45457809Y-74707809D01*
X45598157Y-74497765D01*
X45647440Y-74250000D01*
X45647440Y-73250000D01*
X45598157Y-73002235D01*
X45561189Y-72946910D01*
X46000000Y-73034195D01*
X46481873Y-72938344D01*
X46890385Y-72665385D01*
X47000000Y-72501334D01*
X47109616Y-72665385D01*
X47265000Y-72769209D01*
X47265001Y-79945552D01*
X45607994Y-81602560D01*
X44000000Y-81602560D01*
X43752235Y-81651843D01*
X43542191Y-81792191D01*
X43401843Y-82002235D01*
X43352560Y-82250000D01*
X43352560Y-83250000D01*
X43401843Y-83497765D01*
X43542191Y-83707809D01*
X43752235Y-83848157D01*
X44000000Y-83897440D01*
X44265000Y-83897440D01*
X44265001Y-86102560D01*
X44000000Y-86102560D01*
X43752235Y-86151843D01*
X43542191Y-86292191D01*
X43401843Y-86502235D01*
X43352560Y-86750000D01*
X43352560Y-87515000D01*
X39554447Y-87515000D01*
X33735000Y-81695554D01*
X33735000Y-69722384D01*
X33749398Y-69650000D01*
X33735000Y-69577616D01*
X33735000Y-69577612D01*
X33692354Y-69363217D01*
X33529905Y-69120095D01*
X33468538Y-69079091D01*
X33443773Y-69054326D01*
X33448157Y-69047765D01*
X33497440Y-68800000D01*
X33497440Y-68535000D01*
X35702560Y-68535000D01*
X35702560Y-68800000D01*
G36*
X44127000Y-71373000D02*
X44147000Y-71373000D01*
X44147000Y-71627000D01*
X44127000Y-71627000D01*
X44127000Y-71647000D01*
X43873000Y-71647000D01*
X43873000Y-71627000D01*
X43853000Y-71627000D01*
X43853000Y-71373000D01*
X43873000Y-71373000D01*
X43873000Y-71353000D01*
X44127000Y-71353000D01*
X44127000Y-71373000D01*
X44127000Y-71373000D01*
G37*
X44127000Y-71373000D02*
X44147000Y-71373000D01*
X44147000Y-71627000D01*
X44127000Y-71627000D01*
X44127000Y-71647000D01*
X43873000Y-71647000D01*
X43873000Y-71627000D01*
X43853000Y-71627000D01*
X43853000Y-71373000D01*
X43873000Y-71373000D01*
X43873000Y-71353000D01*
X44127000Y-71353000D01*
X44127000Y-71373000D01*
G04 #@! TD*
M02*
