M48
;DRILL file {KiCad (5.0.2)-1} date 29.04.2019 20:47:01
;FORMAT={-:-/ absolute / inch / decimal}
FMAT,2
INCH,TZ
T1C0.0118
T2C0.0276
T3C0.0295
T4C0.0300
T5C0.0394
%
G90
G05
T1
X1.3858Y-1.4252
X1.5646Y-1.8416
X1.5854Y-1.2683
X1.7244Y-1.8898
X1.8268Y-1.3898
X1.8819Y-1.3898
X2.2165Y-1.5276
X2.2638Y-1.7244
X2.4921Y-1.7165
X2.5787Y-1.8543
X2.7323Y-1.8465
X2.7565Y-1.4833
X2.7851Y-1.4223
X2.7992Y-1.5118
X2.8071Y-0.9646
X2.8071Y-1.937
X2.8561Y-1.3246
X2.8583Y-1.4331
X2.8819Y-1.9409
X2.9094Y-1.4331
X2.9409Y-1.9921
X2.9488Y-0.8327
X2.9843Y-0.8307
X3.0079Y-1.185
X3.0276Y-1.4646
X3.1102Y-1.2205
X3.1535Y-1.2874
X3.1693Y-1.6693
X3.189Y-1.0827
X3.189Y-1.1654
X3.2795Y-1.2205
X3.2992Y-0.9252
X3.311Y-1.7677
X3.374Y-1.9488
X3.3858Y-1.2638
X3.4094Y-1.9409
X3.4173Y-1.7598
X3.4213Y-0.9449
X3.4405Y-1.8189
X3.4574Y-0.9476
X3.4853Y-1.1801
X3.5019Y-0.9587
X3.5039Y-1.7756
X3.5079Y-1.311
X3.5162Y-1.3414
X3.5188Y-1.932
X3.5197Y-1.1299
X3.5472Y-1.3465
X3.5709Y-1.5551
X3.5718Y-1.3661
X3.5975Y-1.2923
X3.6309Y-1.3258
X3.6339Y-1.7913
X3.6496Y-1.1732
X3.6496Y-1.2244
X3.6571Y-1.7439
X3.685Y-1.4291
X3.7126Y-1.7674
X3.7165Y-1.6142
X3.7283Y-1.2402
X3.7441Y-0.8228
X3.7566Y-1.6425
X3.7582Y-1.7874
X3.7638Y-0.9961
X3.7646Y-1.5677
X3.7875Y-1.8265
X3.7962Y-0.9951
X3.8189Y-1.6417
X3.8205Y-0.975
X3.8248Y-1.7815
X3.8307Y-0.8346
X3.8346Y-1.2165
X3.8441Y-1.0025
X3.8583Y-1.378
X3.8583Y-1.7375
X3.8819Y-1.7598
X3.9055Y-1.3772
X3.9055Y-1.252
X3.9055Y-1.3425
X3.9055Y-1.2205
X3.9082Y-1.4909
X3.937Y-1.0709
X3.9492Y-0.9768
X3.9528Y-0.9409
X4.0006Y-1.6148
X4.0118Y-1.685
X4.0118Y-1.3031
X4.0181Y-0.9747
X4.0495Y-1.2385
X4.0551Y-1.6614
X4.0868Y-1.1521
X4.1211Y-0.9187
X4.1408Y-1.5424
X4.1614Y-1.0472
X4.1732Y-0.8268
X4.1841Y-0.9398
X4.1842Y-0.9713
X4.1851Y-1.0028
X4.1929Y-1.2362
X4.1929Y-1.937
X4.2087Y-1.4646
X4.2205Y-0.8583
X4.248Y-1.8425
X4.2633Y-1.4052
X4.2655Y-1.3696
X4.315Y-1.2913
X4.3189Y-1.5433
X4.3228Y-1.7165
X4.3346Y-1.9016
X4.3386Y-0.7362
X4.4213Y-1.126
X4.4291Y-1.0709
X4.437Y-0.7953
X4.563Y-1.185
X4.5823Y-0.8819
X4.6138Y-0.8776
X4.6786Y-0.9869
X4.689Y-1.1339
X4.689Y-1.7825
X4.6987Y-0.9302
X4.7087Y-0.9775
X4.7098Y-0.8259
X4.7244Y-1.3701
X4.7677Y-1.9449
X4.7717Y-1.8465
X4.7923Y-1.9252
X4.8898Y-1.9764
X5.0984Y-1.6142
X5.1299Y-1.4409
X5.1723Y-1.4242
X5.2008Y-1.3819
X5.2087Y-1.5394
X5.2376Y-1.5518
X5.2717Y-1.5079
X5.3031Y-1.4449
X5.3465Y-0.9331
X5.3465Y-0.9764
X5.4213Y-1.1339
X5.4213Y-1.1969
X5.4449Y-0.9803
X5.4528Y-0.9449
X5.4803Y-0.8031
X5.5264Y-1.2283
X5.5276Y-1.1378
X5.6181Y-1.2677
X5.6654Y-1.2598
X5.7717Y-1.3622
X6.0024Y-1.5272
X6.2047Y-1.7992
X6.7115Y-0.8003
T2
X2.6604Y-0.8996
X2.8514Y-0.8996
T3
X6.3484Y-1.1713
X6.4272Y-1.1713
X6.5059Y-1.1713
X6.5846Y-1.1713
X6.7815Y-1.1713
X6.8602Y-1.1713
X6.5453Y-1.4665
X6.624Y-1.4665
X6.2697Y-1.4665
X6.3484Y-1.4665
X6.4665Y-0.8858
X6.5453Y-0.8858
X6.624Y-0.8858
X6.7028Y-0.8858
X5.9547Y-1.7618
X6.0335Y-1.7618
X6.1122Y-1.7618
X6.5846Y-1.7618
X6.6634Y-1.7618
X6.7421Y-1.7618
X6.8209Y-1.7618
X6.8996Y-1.7618
X6.9783Y-1.7618
X7.0571Y-1.7618
X7.1358Y-1.7618
X7.0571Y-1.1713
X7.1358Y-1.1713
X6.1122Y-0.8858
X6.1909Y-0.8858
X6.2697Y-0.8858
X6.3091Y-1.7618
X6.3878Y-1.7618
X6.8996Y-0.8858
X6.9783Y-0.8858
X7.0571Y-0.8858
X7.1358Y-0.8858
X6.0728Y-1.1713
X6.1516Y-1.1713
X6.8209Y-1.4665
X6.8996Y-1.4665
X6.9783Y-1.4665
X7.0571Y-1.4665
X7.1358Y-1.4665
T4
X1.4054Y-0.8425
X1.4054Y-1.9134
X1.5054Y-0.8425
X1.5054Y-1.9134
X1.6054Y-0.8425
X3.4654Y-0.8425
X3.4654Y-1.9134
X3.5654Y-0.8425
X3.5654Y-1.9134
X3.9948Y-0.8425
X3.9948Y-1.9134
X4.0948Y-0.8425
X4.0948Y-1.9134
X5.5548Y-0.8425
X5.5548Y-1.9134
X5.6548Y-0.8425
X5.6548Y-1.9134
X5.7548Y-0.8425
X5.7548Y-1.9134
X1.7638Y-0.889
X1.7638Y-0.989
X1.7638Y-1.089
X1.7638Y-1.189
X1.7638Y-1.289
X1.7638Y-1.389
X1.7638Y-1.489
X1.7638Y-1.589
X2.4724Y-0.889
X2.4724Y-0.989
X2.4724Y-1.089
X2.4724Y-1.189
X2.4724Y-1.289
X2.4724Y-1.389
X2.4724Y-1.489
X2.4724Y-1.589
T5
X5.9024Y-1.4272
X5.9024Y-1.5272
X6.0024Y-1.4272
X6.0024Y-1.5272
X6.1024Y-1.4272
X6.1024Y-1.5272
T2
X2.6132Y-0.8071G85X2.6132Y-0.7835
G05
X2.8986Y-0.8071G85X2.8986Y-0.7835
G05
T0
M30
