%TF.GenerationSoftware,KiCad,Pcbnew,(5.0.2)-1*%
%TF.CreationDate,2019-04-29T20:46:59+02:00*%
%TF.ProjectId,TaggerMainboard,54616767-6572-44d6-9169-6e626f617264,rev?*%
%TF.SameCoordinates,Original*%
%TF.FileFunction,Copper,L2,Bot*%
%TF.FilePolarity,Positive*%
%FSLAX46Y46*%
G04 Gerber Fmt 4.6, Leading zero omitted, Abs format (unit mm)*
G04 Created by KiCad (PCBNEW (5.0.2)-1) date 29.04.2019 20:46:59*
%MOMM*%
%LPD*%
G01*
G04 APERTURE LIST*
%ADD10C,0.150000*%
%ADD11C,0.200000*%
%ADD12C,1.524000*%
%ADD13O,1.200000X1.750000*%
%ADD14C,1.200000*%
%ADD15O,1.300000X1.900000*%
%ADD16C,1.300000*%
%ADD17R,1.700000X1.700000*%
%ADD18O,1.700000X1.700000*%
%ADD19C,0.600000*%
%ADD20C,0.400000*%
%ADD21C,1.000000*%
%ADD22C,0.254000*%
G04 APERTURE END LIST*
D10*
X30000000Y-52000000D02*
X32000000Y-52000000D01*
X30000000Y-18000000D02*
X30000000Y-52000000D01*
X32000000Y-18000000D02*
X30000000Y-18000000D01*
D11*
X188000000Y-52000000D02*
X186000000Y-52000000D01*
X188000000Y-18000000D02*
X188000000Y-52000000D01*
X186000000Y-18000000D02*
X188000000Y-18000000D01*
X186000000Y-52000000D02*
X32000000Y-52000000D01*
X32000000Y-18000000D02*
X186000000Y-18000000D01*
D12*
X101468000Y-21400000D03*
X104008000Y-21400000D03*
X141092000Y-21400000D03*
X143632000Y-21400000D03*
X146172000Y-21400000D03*
X146172000Y-48600000D03*
X143632000Y-48600000D03*
X141092000Y-48600000D03*
X104008000Y-48600000D03*
X101468000Y-48600000D03*
X38238000Y-21400000D03*
X40778000Y-21400000D03*
X38238000Y-48600000D03*
X35698000Y-21400000D03*
X88022000Y-21400000D03*
X90562000Y-48600000D03*
X35698000Y-48600000D03*
X90562000Y-21400000D03*
X88022000Y-48600000D03*
D13*
X159250000Y-22500000D03*
X157250000Y-22500000D03*
D10*
G36*
X155624505Y-21626204D02*
X155648773Y-21629804D01*
X155672572Y-21635765D01*
X155695671Y-21644030D01*
X155717850Y-21654520D01*
X155738893Y-21667132D01*
X155758599Y-21681747D01*
X155776777Y-21698223D01*
X155793253Y-21716401D01*
X155807868Y-21736107D01*
X155820480Y-21757150D01*
X155830970Y-21779329D01*
X155839235Y-21802428D01*
X155845196Y-21826227D01*
X155848796Y-21850495D01*
X155850000Y-21874999D01*
X155850000Y-23125001D01*
X155848796Y-23149505D01*
X155845196Y-23173773D01*
X155839235Y-23197572D01*
X155830970Y-23220671D01*
X155820480Y-23242850D01*
X155807868Y-23263893D01*
X155793253Y-23283599D01*
X155776777Y-23301777D01*
X155758599Y-23318253D01*
X155738893Y-23332868D01*
X155717850Y-23345480D01*
X155695671Y-23355970D01*
X155672572Y-23364235D01*
X155648773Y-23370196D01*
X155624505Y-23373796D01*
X155600001Y-23375000D01*
X154899999Y-23375000D01*
X154875495Y-23373796D01*
X154851227Y-23370196D01*
X154827428Y-23364235D01*
X154804329Y-23355970D01*
X154782150Y-23345480D01*
X154761107Y-23332868D01*
X154741401Y-23318253D01*
X154723223Y-23301777D01*
X154706747Y-23283599D01*
X154692132Y-23263893D01*
X154679520Y-23242850D01*
X154669030Y-23220671D01*
X154660765Y-23197572D01*
X154654804Y-23173773D01*
X154651204Y-23149505D01*
X154650000Y-23125001D01*
X154650000Y-21874999D01*
X154651204Y-21850495D01*
X154654804Y-21826227D01*
X154660765Y-21802428D01*
X154669030Y-21779329D01*
X154679520Y-21757150D01*
X154692132Y-21736107D01*
X154706747Y-21716401D01*
X154723223Y-21698223D01*
X154741401Y-21681747D01*
X154761107Y-21667132D01*
X154782150Y-21654520D01*
X154804329Y-21644030D01*
X154827428Y-21635765D01*
X154851227Y-21629804D01*
X154875495Y-21626204D01*
X154899999Y-21625000D01*
X155600001Y-21625000D01*
X155624505Y-21626204D01*
X155624505Y-21626204D01*
G37*
D14*
X155250000Y-22500000D03*
D10*
G36*
X154624505Y-28876204D02*
X154648773Y-28879804D01*
X154672572Y-28885765D01*
X154695671Y-28894030D01*
X154717850Y-28904520D01*
X154738893Y-28917132D01*
X154758599Y-28931747D01*
X154776777Y-28948223D01*
X154793253Y-28966401D01*
X154807868Y-28986107D01*
X154820480Y-29007150D01*
X154830970Y-29029329D01*
X154839235Y-29052428D01*
X154845196Y-29076227D01*
X154848796Y-29100495D01*
X154850000Y-29124999D01*
X154850000Y-30375001D01*
X154848796Y-30399505D01*
X154845196Y-30423773D01*
X154839235Y-30447572D01*
X154830970Y-30470671D01*
X154820480Y-30492850D01*
X154807868Y-30513893D01*
X154793253Y-30533599D01*
X154776777Y-30551777D01*
X154758599Y-30568253D01*
X154738893Y-30582868D01*
X154717850Y-30595480D01*
X154695671Y-30605970D01*
X154672572Y-30614235D01*
X154648773Y-30620196D01*
X154624505Y-30623796D01*
X154600001Y-30625000D01*
X153899999Y-30625000D01*
X153875495Y-30623796D01*
X153851227Y-30620196D01*
X153827428Y-30614235D01*
X153804329Y-30605970D01*
X153782150Y-30595480D01*
X153761107Y-30582868D01*
X153741401Y-30568253D01*
X153723223Y-30551777D01*
X153706747Y-30533599D01*
X153692132Y-30513893D01*
X153679520Y-30492850D01*
X153669030Y-30470671D01*
X153660765Y-30447572D01*
X153654804Y-30423773D01*
X153651204Y-30399505D01*
X153650000Y-30375001D01*
X153650000Y-29124999D01*
X153651204Y-29100495D01*
X153654804Y-29076227D01*
X153660765Y-29052428D01*
X153669030Y-29029329D01*
X153679520Y-29007150D01*
X153692132Y-28986107D01*
X153706747Y-28966401D01*
X153723223Y-28948223D01*
X153741401Y-28931747D01*
X153761107Y-28917132D01*
X153782150Y-28904520D01*
X153804329Y-28894030D01*
X153827428Y-28885765D01*
X153851227Y-28879804D01*
X153875495Y-28876204D01*
X153899999Y-28875000D01*
X154600001Y-28875000D01*
X154624505Y-28876204D01*
X154624505Y-28876204D01*
G37*
D14*
X154250000Y-29750000D03*
D13*
X156250000Y-29750000D03*
X162250000Y-44750000D03*
D10*
G36*
X160624505Y-43876204D02*
X160648773Y-43879804D01*
X160672572Y-43885765D01*
X160695671Y-43894030D01*
X160717850Y-43904520D01*
X160738893Y-43917132D01*
X160758599Y-43931747D01*
X160776777Y-43948223D01*
X160793253Y-43966401D01*
X160807868Y-43986107D01*
X160820480Y-44007150D01*
X160830970Y-44029329D01*
X160839235Y-44052428D01*
X160845196Y-44076227D01*
X160848796Y-44100495D01*
X160850000Y-44124999D01*
X160850000Y-45375001D01*
X160848796Y-45399505D01*
X160845196Y-45423773D01*
X160839235Y-45447572D01*
X160830970Y-45470671D01*
X160820480Y-45492850D01*
X160807868Y-45513893D01*
X160793253Y-45533599D01*
X160776777Y-45551777D01*
X160758599Y-45568253D01*
X160738893Y-45582868D01*
X160717850Y-45595480D01*
X160695671Y-45605970D01*
X160672572Y-45614235D01*
X160648773Y-45620196D01*
X160624505Y-45623796D01*
X160600001Y-45625000D01*
X159899999Y-45625000D01*
X159875495Y-45623796D01*
X159851227Y-45620196D01*
X159827428Y-45614235D01*
X159804329Y-45605970D01*
X159782150Y-45595480D01*
X159761107Y-45582868D01*
X159741401Y-45568253D01*
X159723223Y-45551777D01*
X159706747Y-45533599D01*
X159692132Y-45513893D01*
X159679520Y-45492850D01*
X159669030Y-45470671D01*
X159660765Y-45447572D01*
X159654804Y-45423773D01*
X159651204Y-45399505D01*
X159650000Y-45375001D01*
X159650000Y-44124999D01*
X159651204Y-44100495D01*
X159654804Y-44076227D01*
X159660765Y-44052428D01*
X159669030Y-44029329D01*
X159679520Y-44007150D01*
X159692132Y-43986107D01*
X159706747Y-43966401D01*
X159723223Y-43948223D01*
X159741401Y-43931747D01*
X159761107Y-43917132D01*
X159782150Y-43904520D01*
X159804329Y-43894030D01*
X159827428Y-43885765D01*
X159851227Y-43879804D01*
X159875495Y-43876204D01*
X159899999Y-43875000D01*
X160600001Y-43875000D01*
X160624505Y-43876204D01*
X160624505Y-43876204D01*
G37*
D14*
X160250000Y-44750000D03*
D12*
X44800000Y-22580000D03*
X44800000Y-25120000D03*
X44800000Y-27660000D03*
X44800000Y-30200000D03*
X44800000Y-32740000D03*
X44800000Y-35280000D03*
X44800000Y-37820000D03*
X44800000Y-40360000D03*
X62800000Y-40360000D03*
X62800000Y-37820000D03*
X62800000Y-35280000D03*
X62800000Y-32740000D03*
X62800000Y-30200000D03*
X62800000Y-27660000D03*
X62800000Y-25120000D03*
X62800000Y-22580000D03*
D15*
X73625000Y-20200000D03*
X66375000Y-20200000D03*
D16*
X67575000Y-22850000D03*
X72425000Y-22850000D03*
D17*
X149920000Y-38790000D03*
D18*
X149920000Y-36250000D03*
X152460000Y-38790000D03*
X152460000Y-36250000D03*
X155000000Y-38790000D03*
X155000000Y-36250000D03*
D10*
G36*
X161624505Y-28876204D02*
X161648773Y-28879804D01*
X161672572Y-28885765D01*
X161695671Y-28894030D01*
X161717850Y-28904520D01*
X161738893Y-28917132D01*
X161758599Y-28931747D01*
X161776777Y-28948223D01*
X161793253Y-28966401D01*
X161807868Y-28986107D01*
X161820480Y-29007150D01*
X161830970Y-29029329D01*
X161839235Y-29052428D01*
X161845196Y-29076227D01*
X161848796Y-29100495D01*
X161850000Y-29124999D01*
X161850000Y-30375001D01*
X161848796Y-30399505D01*
X161845196Y-30423773D01*
X161839235Y-30447572D01*
X161830970Y-30470671D01*
X161820480Y-30492850D01*
X161807868Y-30513893D01*
X161793253Y-30533599D01*
X161776777Y-30551777D01*
X161758599Y-30568253D01*
X161738893Y-30582868D01*
X161717850Y-30595480D01*
X161695671Y-30605970D01*
X161672572Y-30614235D01*
X161648773Y-30620196D01*
X161624505Y-30623796D01*
X161600001Y-30625000D01*
X160899999Y-30625000D01*
X160875495Y-30623796D01*
X160851227Y-30620196D01*
X160827428Y-30614235D01*
X160804329Y-30605970D01*
X160782150Y-30595480D01*
X160761107Y-30582868D01*
X160741401Y-30568253D01*
X160723223Y-30551777D01*
X160706747Y-30533599D01*
X160692132Y-30513893D01*
X160679520Y-30492850D01*
X160669030Y-30470671D01*
X160660765Y-30447572D01*
X160654804Y-30423773D01*
X160651204Y-30399505D01*
X160650000Y-30375001D01*
X160650000Y-29124999D01*
X160651204Y-29100495D01*
X160654804Y-29076227D01*
X160660765Y-29052428D01*
X160669030Y-29029329D01*
X160679520Y-29007150D01*
X160692132Y-28986107D01*
X160706747Y-28966401D01*
X160723223Y-28948223D01*
X160741401Y-28931747D01*
X160761107Y-28917132D01*
X160782150Y-28904520D01*
X160804329Y-28894030D01*
X160827428Y-28885765D01*
X160851227Y-28879804D01*
X160875495Y-28876204D01*
X160899999Y-28875000D01*
X161600001Y-28875000D01*
X161624505Y-28876204D01*
X161624505Y-28876204D01*
G37*
D14*
X161250000Y-29750000D03*
D13*
X163250000Y-29750000D03*
X165250000Y-29750000D03*
X167250000Y-29750000D03*
D10*
G36*
X173624505Y-36376204D02*
X173648773Y-36379804D01*
X173672572Y-36385765D01*
X173695671Y-36394030D01*
X173717850Y-36404520D01*
X173738893Y-36417132D01*
X173758599Y-36431747D01*
X173776777Y-36448223D01*
X173793253Y-36466401D01*
X173807868Y-36486107D01*
X173820480Y-36507150D01*
X173830970Y-36529329D01*
X173839235Y-36552428D01*
X173845196Y-36576227D01*
X173848796Y-36600495D01*
X173850000Y-36624999D01*
X173850000Y-37875001D01*
X173848796Y-37899505D01*
X173845196Y-37923773D01*
X173839235Y-37947572D01*
X173830970Y-37970671D01*
X173820480Y-37992850D01*
X173807868Y-38013893D01*
X173793253Y-38033599D01*
X173776777Y-38051777D01*
X173758599Y-38068253D01*
X173738893Y-38082868D01*
X173717850Y-38095480D01*
X173695671Y-38105970D01*
X173672572Y-38114235D01*
X173648773Y-38120196D01*
X173624505Y-38123796D01*
X173600001Y-38125000D01*
X172899999Y-38125000D01*
X172875495Y-38123796D01*
X172851227Y-38120196D01*
X172827428Y-38114235D01*
X172804329Y-38105970D01*
X172782150Y-38095480D01*
X172761107Y-38082868D01*
X172741401Y-38068253D01*
X172723223Y-38051777D01*
X172706747Y-38033599D01*
X172692132Y-38013893D01*
X172679520Y-37992850D01*
X172669030Y-37970671D01*
X172660765Y-37947572D01*
X172654804Y-37923773D01*
X172651204Y-37899505D01*
X172650000Y-37875001D01*
X172650000Y-36624999D01*
X172651204Y-36600495D01*
X172654804Y-36576227D01*
X172660765Y-36552428D01*
X172669030Y-36529329D01*
X172679520Y-36507150D01*
X172692132Y-36486107D01*
X172706747Y-36466401D01*
X172723223Y-36448223D01*
X172741401Y-36431747D01*
X172761107Y-36417132D01*
X172782150Y-36404520D01*
X172804329Y-36394030D01*
X172827428Y-36385765D01*
X172851227Y-36379804D01*
X172875495Y-36376204D01*
X172899999Y-36375000D01*
X173600001Y-36375000D01*
X173624505Y-36376204D01*
X173624505Y-36376204D01*
G37*
D14*
X173250000Y-37250000D03*
D13*
X175250000Y-37250000D03*
X177250000Y-37250000D03*
X179250000Y-37250000D03*
X181250000Y-37250000D03*
D10*
G36*
X179624505Y-28876204D02*
X179648773Y-28879804D01*
X179672572Y-28885765D01*
X179695671Y-28894030D01*
X179717850Y-28904520D01*
X179738893Y-28917132D01*
X179758599Y-28931747D01*
X179776777Y-28948223D01*
X179793253Y-28966401D01*
X179807868Y-28986107D01*
X179820480Y-29007150D01*
X179830970Y-29029329D01*
X179839235Y-29052428D01*
X179845196Y-29076227D01*
X179848796Y-29100495D01*
X179850000Y-29124999D01*
X179850000Y-30375001D01*
X179848796Y-30399505D01*
X179845196Y-30423773D01*
X179839235Y-30447572D01*
X179830970Y-30470671D01*
X179820480Y-30492850D01*
X179807868Y-30513893D01*
X179793253Y-30533599D01*
X179776777Y-30551777D01*
X179758599Y-30568253D01*
X179738893Y-30582868D01*
X179717850Y-30595480D01*
X179695671Y-30605970D01*
X179672572Y-30614235D01*
X179648773Y-30620196D01*
X179624505Y-30623796D01*
X179600001Y-30625000D01*
X178899999Y-30625000D01*
X178875495Y-30623796D01*
X178851227Y-30620196D01*
X178827428Y-30614235D01*
X178804329Y-30605970D01*
X178782150Y-30595480D01*
X178761107Y-30582868D01*
X178741401Y-30568253D01*
X178723223Y-30551777D01*
X178706747Y-30533599D01*
X178692132Y-30513893D01*
X178679520Y-30492850D01*
X178669030Y-30470671D01*
X178660765Y-30447572D01*
X178654804Y-30423773D01*
X178651204Y-30399505D01*
X178650000Y-30375001D01*
X178650000Y-29124999D01*
X178651204Y-29100495D01*
X178654804Y-29076227D01*
X178660765Y-29052428D01*
X178669030Y-29029329D01*
X178679520Y-29007150D01*
X178692132Y-28986107D01*
X178706747Y-28966401D01*
X178723223Y-28948223D01*
X178741401Y-28931747D01*
X178761107Y-28917132D01*
X178782150Y-28904520D01*
X178804329Y-28894030D01*
X178827428Y-28885765D01*
X178851227Y-28879804D01*
X178875495Y-28876204D01*
X178899999Y-28875000D01*
X179600001Y-28875000D01*
X179624505Y-28876204D01*
X179624505Y-28876204D01*
G37*
D14*
X179250000Y-29750000D03*
D13*
X181250000Y-29750000D03*
D10*
G36*
X159624505Y-36376204D02*
X159648773Y-36379804D01*
X159672572Y-36385765D01*
X159695671Y-36394030D01*
X159717850Y-36404520D01*
X159738893Y-36417132D01*
X159758599Y-36431747D01*
X159776777Y-36448223D01*
X159793253Y-36466401D01*
X159807868Y-36486107D01*
X159820480Y-36507150D01*
X159830970Y-36529329D01*
X159839235Y-36552428D01*
X159845196Y-36576227D01*
X159848796Y-36600495D01*
X159850000Y-36624999D01*
X159850000Y-37875001D01*
X159848796Y-37899505D01*
X159845196Y-37923773D01*
X159839235Y-37947572D01*
X159830970Y-37970671D01*
X159820480Y-37992850D01*
X159807868Y-38013893D01*
X159793253Y-38033599D01*
X159776777Y-38051777D01*
X159758599Y-38068253D01*
X159738893Y-38082868D01*
X159717850Y-38095480D01*
X159695671Y-38105970D01*
X159672572Y-38114235D01*
X159648773Y-38120196D01*
X159624505Y-38123796D01*
X159600001Y-38125000D01*
X158899999Y-38125000D01*
X158875495Y-38123796D01*
X158851227Y-38120196D01*
X158827428Y-38114235D01*
X158804329Y-38105970D01*
X158782150Y-38095480D01*
X158761107Y-38082868D01*
X158741401Y-38068253D01*
X158723223Y-38051777D01*
X158706747Y-38033599D01*
X158692132Y-38013893D01*
X158679520Y-37992850D01*
X158669030Y-37970671D01*
X158660765Y-37947572D01*
X158654804Y-37923773D01*
X158651204Y-37899505D01*
X158650000Y-37875001D01*
X158650000Y-36624999D01*
X158651204Y-36600495D01*
X158654804Y-36576227D01*
X158660765Y-36552428D01*
X158669030Y-36529329D01*
X158679520Y-36507150D01*
X158692132Y-36486107D01*
X158706747Y-36466401D01*
X158723223Y-36448223D01*
X158741401Y-36431747D01*
X158761107Y-36417132D01*
X158782150Y-36404520D01*
X158804329Y-36394030D01*
X158827428Y-36385765D01*
X158851227Y-36379804D01*
X158875495Y-36376204D01*
X158899999Y-36375000D01*
X159600001Y-36375000D01*
X159624505Y-36376204D01*
X159624505Y-36376204D01*
G37*
D14*
X159250000Y-37250000D03*
D13*
X161250000Y-37250000D03*
D10*
G36*
X151624505Y-43876204D02*
X151648773Y-43879804D01*
X151672572Y-43885765D01*
X151695671Y-43894030D01*
X151717850Y-43904520D01*
X151738893Y-43917132D01*
X151758599Y-43931747D01*
X151776777Y-43948223D01*
X151793253Y-43966401D01*
X151807868Y-43986107D01*
X151820480Y-44007150D01*
X151830970Y-44029329D01*
X151839235Y-44052428D01*
X151845196Y-44076227D01*
X151848796Y-44100495D01*
X151850000Y-44124999D01*
X151850000Y-45375001D01*
X151848796Y-45399505D01*
X151845196Y-45423773D01*
X151839235Y-45447572D01*
X151830970Y-45470671D01*
X151820480Y-45492850D01*
X151807868Y-45513893D01*
X151793253Y-45533599D01*
X151776777Y-45551777D01*
X151758599Y-45568253D01*
X151738893Y-45582868D01*
X151717850Y-45595480D01*
X151695671Y-45605970D01*
X151672572Y-45614235D01*
X151648773Y-45620196D01*
X151624505Y-45623796D01*
X151600001Y-45625000D01*
X150899999Y-45625000D01*
X150875495Y-45623796D01*
X150851227Y-45620196D01*
X150827428Y-45614235D01*
X150804329Y-45605970D01*
X150782150Y-45595480D01*
X150761107Y-45582868D01*
X150741401Y-45568253D01*
X150723223Y-45551777D01*
X150706747Y-45533599D01*
X150692132Y-45513893D01*
X150679520Y-45492850D01*
X150669030Y-45470671D01*
X150660765Y-45447572D01*
X150654804Y-45423773D01*
X150651204Y-45399505D01*
X150650000Y-45375001D01*
X150650000Y-44124999D01*
X150651204Y-44100495D01*
X150654804Y-44076227D01*
X150660765Y-44052428D01*
X150669030Y-44029329D01*
X150679520Y-44007150D01*
X150692132Y-43986107D01*
X150706747Y-43966401D01*
X150723223Y-43948223D01*
X150741401Y-43931747D01*
X150761107Y-43917132D01*
X150782150Y-43904520D01*
X150804329Y-43894030D01*
X150827428Y-43885765D01*
X150851227Y-43879804D01*
X150875495Y-43876204D01*
X150899999Y-43875000D01*
X151600001Y-43875000D01*
X151624505Y-43876204D01*
X151624505Y-43876204D01*
G37*
D14*
X151250000Y-44750000D03*
D13*
X153250000Y-44750000D03*
X155250000Y-44750000D03*
D10*
G36*
X175624505Y-21626204D02*
X175648773Y-21629804D01*
X175672572Y-21635765D01*
X175695671Y-21644030D01*
X175717850Y-21654520D01*
X175738893Y-21667132D01*
X175758599Y-21681747D01*
X175776777Y-21698223D01*
X175793253Y-21716401D01*
X175807868Y-21736107D01*
X175820480Y-21757150D01*
X175830970Y-21779329D01*
X175839235Y-21802428D01*
X175845196Y-21826227D01*
X175848796Y-21850495D01*
X175850000Y-21874999D01*
X175850000Y-23125001D01*
X175848796Y-23149505D01*
X175845196Y-23173773D01*
X175839235Y-23197572D01*
X175830970Y-23220671D01*
X175820480Y-23242850D01*
X175807868Y-23263893D01*
X175793253Y-23283599D01*
X175776777Y-23301777D01*
X175758599Y-23318253D01*
X175738893Y-23332868D01*
X175717850Y-23345480D01*
X175695671Y-23355970D01*
X175672572Y-23364235D01*
X175648773Y-23370196D01*
X175624505Y-23373796D01*
X175600001Y-23375000D01*
X174899999Y-23375000D01*
X174875495Y-23373796D01*
X174851227Y-23370196D01*
X174827428Y-23364235D01*
X174804329Y-23355970D01*
X174782150Y-23345480D01*
X174761107Y-23332868D01*
X174741401Y-23318253D01*
X174723223Y-23301777D01*
X174706747Y-23283599D01*
X174692132Y-23263893D01*
X174679520Y-23242850D01*
X174669030Y-23220671D01*
X174660765Y-23197572D01*
X174654804Y-23173773D01*
X174651204Y-23149505D01*
X174650000Y-23125001D01*
X174650000Y-21874999D01*
X174651204Y-21850495D01*
X174654804Y-21826227D01*
X174660765Y-21802428D01*
X174669030Y-21779329D01*
X174679520Y-21757150D01*
X174692132Y-21736107D01*
X174706747Y-21716401D01*
X174723223Y-21698223D01*
X174741401Y-21681747D01*
X174761107Y-21667132D01*
X174782150Y-21654520D01*
X174804329Y-21644030D01*
X174827428Y-21635765D01*
X174851227Y-21629804D01*
X174875495Y-21626204D01*
X174899999Y-21625000D01*
X175600001Y-21625000D01*
X175624505Y-21626204D01*
X175624505Y-21626204D01*
G37*
D14*
X175250000Y-22500000D03*
D13*
X177250000Y-22500000D03*
X179250000Y-22500000D03*
X181250000Y-22500000D03*
X174250000Y-29750000D03*
D10*
G36*
X172624505Y-28876204D02*
X172648773Y-28879804D01*
X172672572Y-28885765D01*
X172695671Y-28894030D01*
X172717850Y-28904520D01*
X172738893Y-28917132D01*
X172758599Y-28931747D01*
X172776777Y-28948223D01*
X172793253Y-28966401D01*
X172807868Y-28986107D01*
X172820480Y-29007150D01*
X172830970Y-29029329D01*
X172839235Y-29052428D01*
X172845196Y-29076227D01*
X172848796Y-29100495D01*
X172850000Y-29124999D01*
X172850000Y-30375001D01*
X172848796Y-30399505D01*
X172845196Y-30423773D01*
X172839235Y-30447572D01*
X172830970Y-30470671D01*
X172820480Y-30492850D01*
X172807868Y-30513893D01*
X172793253Y-30533599D01*
X172776777Y-30551777D01*
X172758599Y-30568253D01*
X172738893Y-30582868D01*
X172717850Y-30595480D01*
X172695671Y-30605970D01*
X172672572Y-30614235D01*
X172648773Y-30620196D01*
X172624505Y-30623796D01*
X172600001Y-30625000D01*
X171899999Y-30625000D01*
X171875495Y-30623796D01*
X171851227Y-30620196D01*
X171827428Y-30614235D01*
X171804329Y-30605970D01*
X171782150Y-30595480D01*
X171761107Y-30582868D01*
X171741401Y-30568253D01*
X171723223Y-30551777D01*
X171706747Y-30533599D01*
X171692132Y-30513893D01*
X171679520Y-30492850D01*
X171669030Y-30470671D01*
X171660765Y-30447572D01*
X171654804Y-30423773D01*
X171651204Y-30399505D01*
X171650000Y-30375001D01*
X171650000Y-29124999D01*
X171651204Y-29100495D01*
X171654804Y-29076227D01*
X171660765Y-29052428D01*
X171669030Y-29029329D01*
X171679520Y-29007150D01*
X171692132Y-28986107D01*
X171706747Y-28966401D01*
X171723223Y-28948223D01*
X171741401Y-28931747D01*
X171761107Y-28917132D01*
X171782150Y-28904520D01*
X171804329Y-28894030D01*
X171827428Y-28885765D01*
X171851227Y-28879804D01*
X171875495Y-28876204D01*
X171899999Y-28875000D01*
X172600001Y-28875000D01*
X172624505Y-28876204D01*
X172624505Y-28876204D01*
G37*
D14*
X172250000Y-29750000D03*
D13*
X168250000Y-37250000D03*
D10*
G36*
X166624505Y-36376204D02*
X166648773Y-36379804D01*
X166672572Y-36385765D01*
X166695671Y-36394030D01*
X166717850Y-36404520D01*
X166738893Y-36417132D01*
X166758599Y-36431747D01*
X166776777Y-36448223D01*
X166793253Y-36466401D01*
X166807868Y-36486107D01*
X166820480Y-36507150D01*
X166830970Y-36529329D01*
X166839235Y-36552428D01*
X166845196Y-36576227D01*
X166848796Y-36600495D01*
X166850000Y-36624999D01*
X166850000Y-37875001D01*
X166848796Y-37899505D01*
X166845196Y-37923773D01*
X166839235Y-37947572D01*
X166830970Y-37970671D01*
X166820480Y-37992850D01*
X166807868Y-38013893D01*
X166793253Y-38033599D01*
X166776777Y-38051777D01*
X166758599Y-38068253D01*
X166738893Y-38082868D01*
X166717850Y-38095480D01*
X166695671Y-38105970D01*
X166672572Y-38114235D01*
X166648773Y-38120196D01*
X166624505Y-38123796D01*
X166600001Y-38125000D01*
X165899999Y-38125000D01*
X165875495Y-38123796D01*
X165851227Y-38120196D01*
X165827428Y-38114235D01*
X165804329Y-38105970D01*
X165782150Y-38095480D01*
X165761107Y-38082868D01*
X165741401Y-38068253D01*
X165723223Y-38051777D01*
X165706747Y-38033599D01*
X165692132Y-38013893D01*
X165679520Y-37992850D01*
X165669030Y-37970671D01*
X165660765Y-37947572D01*
X165654804Y-37923773D01*
X165651204Y-37899505D01*
X165650000Y-37875001D01*
X165650000Y-36624999D01*
X165651204Y-36600495D01*
X165654804Y-36576227D01*
X165660765Y-36552428D01*
X165669030Y-36529329D01*
X165679520Y-36507150D01*
X165692132Y-36486107D01*
X165706747Y-36466401D01*
X165723223Y-36448223D01*
X165741401Y-36431747D01*
X165761107Y-36417132D01*
X165782150Y-36404520D01*
X165804329Y-36394030D01*
X165827428Y-36385765D01*
X165851227Y-36379804D01*
X165875495Y-36376204D01*
X165899999Y-36375000D01*
X166600001Y-36375000D01*
X166624505Y-36376204D01*
X166624505Y-36376204D01*
G37*
D14*
X166250000Y-37250000D03*
D13*
X170250000Y-22500000D03*
X168250000Y-22500000D03*
X166250000Y-22500000D03*
D10*
G36*
X164624505Y-21626204D02*
X164648773Y-21629804D01*
X164672572Y-21635765D01*
X164695671Y-21644030D01*
X164717850Y-21654520D01*
X164738893Y-21667132D01*
X164758599Y-21681747D01*
X164776777Y-21698223D01*
X164793253Y-21716401D01*
X164807868Y-21736107D01*
X164820480Y-21757150D01*
X164830970Y-21779329D01*
X164839235Y-21802428D01*
X164845196Y-21826227D01*
X164848796Y-21850495D01*
X164850000Y-21874999D01*
X164850000Y-23125001D01*
X164848796Y-23149505D01*
X164845196Y-23173773D01*
X164839235Y-23197572D01*
X164830970Y-23220671D01*
X164820480Y-23242850D01*
X164807868Y-23263893D01*
X164793253Y-23283599D01*
X164776777Y-23301777D01*
X164758599Y-23318253D01*
X164738893Y-23332868D01*
X164717850Y-23345480D01*
X164695671Y-23355970D01*
X164672572Y-23364235D01*
X164648773Y-23370196D01*
X164624505Y-23373796D01*
X164600001Y-23375000D01*
X163899999Y-23375000D01*
X163875495Y-23373796D01*
X163851227Y-23370196D01*
X163827428Y-23364235D01*
X163804329Y-23355970D01*
X163782150Y-23345480D01*
X163761107Y-23332868D01*
X163741401Y-23318253D01*
X163723223Y-23301777D01*
X163706747Y-23283599D01*
X163692132Y-23263893D01*
X163679520Y-23242850D01*
X163669030Y-23220671D01*
X163660765Y-23197572D01*
X163654804Y-23173773D01*
X163651204Y-23149505D01*
X163650000Y-23125001D01*
X163650000Y-21874999D01*
X163651204Y-21850495D01*
X163654804Y-21826227D01*
X163660765Y-21802428D01*
X163669030Y-21779329D01*
X163679520Y-21757150D01*
X163692132Y-21736107D01*
X163706747Y-21716401D01*
X163723223Y-21698223D01*
X163741401Y-21681747D01*
X163761107Y-21667132D01*
X163782150Y-21654520D01*
X163804329Y-21644030D01*
X163827428Y-21635765D01*
X163851227Y-21629804D01*
X163875495Y-21626204D01*
X163899999Y-21625000D01*
X164600001Y-21625000D01*
X164624505Y-21626204D01*
X164624505Y-21626204D01*
G37*
D14*
X164250000Y-22500000D03*
D10*
G36*
X167624505Y-43876204D02*
X167648773Y-43879804D01*
X167672572Y-43885765D01*
X167695671Y-43894030D01*
X167717850Y-43904520D01*
X167738893Y-43917132D01*
X167758599Y-43931747D01*
X167776777Y-43948223D01*
X167793253Y-43966401D01*
X167807868Y-43986107D01*
X167820480Y-44007150D01*
X167830970Y-44029329D01*
X167839235Y-44052428D01*
X167845196Y-44076227D01*
X167848796Y-44100495D01*
X167850000Y-44124999D01*
X167850000Y-45375001D01*
X167848796Y-45399505D01*
X167845196Y-45423773D01*
X167839235Y-45447572D01*
X167830970Y-45470671D01*
X167820480Y-45492850D01*
X167807868Y-45513893D01*
X167793253Y-45533599D01*
X167776777Y-45551777D01*
X167758599Y-45568253D01*
X167738893Y-45582868D01*
X167717850Y-45595480D01*
X167695671Y-45605970D01*
X167672572Y-45614235D01*
X167648773Y-45620196D01*
X167624505Y-45623796D01*
X167600001Y-45625000D01*
X166899999Y-45625000D01*
X166875495Y-45623796D01*
X166851227Y-45620196D01*
X166827428Y-45614235D01*
X166804329Y-45605970D01*
X166782150Y-45595480D01*
X166761107Y-45582868D01*
X166741401Y-45568253D01*
X166723223Y-45551777D01*
X166706747Y-45533599D01*
X166692132Y-45513893D01*
X166679520Y-45492850D01*
X166669030Y-45470671D01*
X166660765Y-45447572D01*
X166654804Y-45423773D01*
X166651204Y-45399505D01*
X166650000Y-45375001D01*
X166650000Y-44124999D01*
X166651204Y-44100495D01*
X166654804Y-44076227D01*
X166660765Y-44052428D01*
X166669030Y-44029329D01*
X166679520Y-44007150D01*
X166692132Y-43986107D01*
X166706747Y-43966401D01*
X166723223Y-43948223D01*
X166741401Y-43931747D01*
X166761107Y-43917132D01*
X166782150Y-43904520D01*
X166804329Y-43894030D01*
X166827428Y-43885765D01*
X166851227Y-43879804D01*
X166875495Y-43876204D01*
X166899999Y-43875000D01*
X167600001Y-43875000D01*
X167624505Y-43876204D01*
X167624505Y-43876204D01*
G37*
D14*
X167250000Y-44750000D03*
D13*
X169250000Y-44750000D03*
X171250000Y-44750000D03*
X173250000Y-44750000D03*
X175250000Y-44750000D03*
X177250000Y-44750000D03*
X179250000Y-44750000D03*
X181250000Y-44750000D03*
D19*
X57500000Y-43800000D03*
X43800000Y-48000000D03*
X73900000Y-36400000D03*
X83800000Y-23500000D03*
X170473168Y-20326832D03*
X107200000Y-21800000D03*
X119629919Y-20977185D03*
X80500000Y-42400000D03*
X73200000Y-49300000D03*
X86800000Y-44700000D03*
X80100000Y-32700000D03*
X86000000Y-32100000D03*
X76900000Y-37200000D03*
X102058573Y-24758573D03*
X100400000Y-23900000D03*
X97300000Y-21200000D03*
X106000000Y-21000000D03*
X89000000Y-45100000D03*
X99268266Y-37868266D03*
X71100000Y-38400000D03*
X70741910Y-36125416D03*
X83300000Y-31000000D03*
X76400000Y-30100000D03*
X88525728Y-29974272D03*
X89400000Y-28700000D03*
X106500000Y-49200000D03*
X110100000Y-48300000D03*
X143900000Y-32000000D03*
X146600000Y-34600000D03*
X109800000Y-43600000D03*
X130300000Y-36600000D03*
X69400000Y-46900000D03*
X65500000Y-47100000D03*
X87387510Y-46200000D03*
X84100000Y-44900000D03*
X79000000Y-31000000D03*
X109700000Y-39200000D03*
X105175735Y-39175735D03*
X106900000Y-37200000D03*
X81000000Y-27500000D03*
X81000000Y-29600000D03*
X35200000Y-36200000D03*
X120000000Y-34800000D03*
X137700000Y-28800000D03*
X140400000Y-28900000D03*
X74700000Y-50599963D03*
X124200000Y-50200000D03*
X121724500Y-48900000D03*
X157599998Y-45700000D03*
X56300000Y-38800000D03*
X71300000Y-49200000D03*
X134700000Y-36700000D03*
X121100000Y-49400000D03*
X63300000Y-43600000D03*
X40270093Y-32215888D03*
X72600000Y-36400000D03*
X75800000Y-21100000D03*
X72544975Y-33644975D03*
X74900000Y-21149999D03*
X71300000Y-24500000D03*
X70015440Y-37675973D03*
X46400000Y-35300000D03*
X47800000Y-35300000D03*
X92300002Y-45500000D03*
X88948530Y-24351471D03*
X94400000Y-41000000D03*
X99200000Y-31800294D03*
X95619736Y-39819736D03*
X95418266Y-41718266D03*
X89377954Y-49073515D03*
X90700000Y-39500000D03*
X93600000Y-36300000D03*
X97399990Y-30900000D03*
X94700000Y-31500000D03*
X99200010Y-31000291D03*
X97000000Y-41700000D03*
X106500000Y-31400000D03*
X109600000Y-32800000D03*
X142700000Y-32200000D03*
X140371212Y-31198368D03*
X97149265Y-45250735D03*
X119100000Y-45276489D03*
X133900000Y-38300000D03*
X152460000Y-38790000D03*
X121200000Y-46899968D03*
X129500000Y-41000000D03*
X107900000Y-46800000D03*
X119599988Y-24828148D03*
X138300000Y-24900000D03*
X135800000Y-24800000D03*
X119100000Y-28800000D03*
X112500000Y-27200000D03*
X103804308Y-29262247D03*
X138500000Y-24000000D03*
X135800000Y-23700000D03*
X115900000Y-30100000D03*
X112300000Y-28600000D03*
X102856766Y-31456766D03*
X132100000Y-35100000D03*
X133035318Y-39415136D03*
X85700000Y-49500000D03*
X131375735Y-36175735D03*
X132300000Y-39100000D03*
X86600000Y-49300000D03*
X94300022Y-44890973D03*
X95457482Y-45400902D03*
X96203062Y-46391870D03*
X112700000Y-20200030D03*
X105700000Y-26600000D03*
X99200000Y-34099997D03*
X137700000Y-30400000D03*
X116391370Y-22401295D03*
X119347490Y-23628136D03*
X106277455Y-24671310D03*
X99999990Y-27199980D03*
X110200000Y-18700000D03*
X95100000Y-20900000D03*
X139200000Y-20399990D03*
X106302145Y-25470940D03*
X97999979Y-35000000D03*
X99199990Y-34979999D03*
X101900010Y-33100000D03*
X117191259Y-22291259D03*
X106276831Y-23871299D03*
X104676808Y-23334504D03*
X118836792Y-25068044D03*
X92700000Y-29800000D03*
X91375728Y-32824272D03*
X101900000Y-42800010D03*
X92700000Y-31100000D03*
X92225728Y-33674272D03*
X103000000Y-42200000D03*
X98000000Y-44131826D03*
X98600000Y-44700000D03*
X101616398Y-41015227D03*
X89100000Y-33300000D03*
X89310328Y-34071857D03*
X100310043Y-24810043D03*
X97640969Y-25462239D03*
X97040969Y-24766147D03*
X96424265Y-25275735D03*
X95600000Y-25300000D03*
X108286863Y-35691962D03*
X108342437Y-34787844D03*
X39741941Y-46777072D03*
X92890962Y-44294360D03*
X86900000Y-24000000D03*
X90100000Y-34200000D03*
X87818764Y-24070235D03*
X90724696Y-34699757D03*
D20*
X170473168Y-20326832D02*
X170200000Y-20600000D01*
X154250010Y-46025010D02*
X156274990Y-46025010D01*
X153250000Y-44750000D02*
X153250000Y-45025000D01*
X153250000Y-45025000D02*
X154250010Y-46025010D01*
X156274990Y-46025010D02*
X156800000Y-45500000D01*
X156800000Y-45500000D02*
X156800000Y-42600000D01*
X154150001Y-37099999D02*
X155000000Y-36250000D01*
X153710001Y-37539999D02*
X154150001Y-37099999D01*
X153710001Y-39510001D02*
X153710001Y-37539999D01*
X156800000Y-42600000D02*
X153710001Y-39510001D01*
X169250000Y-45025000D02*
X169250000Y-44750000D01*
X167875000Y-46400000D02*
X169250000Y-45025000D01*
X157274987Y-46400000D02*
X167875000Y-46400000D01*
X156899997Y-46025010D02*
X157274987Y-46400000D01*
X156274990Y-46025010D02*
X156899997Y-46025010D01*
X112629965Y-20977185D02*
X119629919Y-20977185D01*
X107200000Y-21800000D02*
X111807150Y-21800000D01*
X111807150Y-21800000D02*
X112629965Y-20977185D01*
X102058573Y-24758573D02*
X101258573Y-24758573D01*
X101258573Y-24758573D02*
X100400000Y-23900000D01*
X105700001Y-21299999D02*
X105700001Y-21592879D01*
X106000000Y-21000000D02*
X105700001Y-21299999D01*
X105700001Y-21592879D02*
X104658377Y-22634503D01*
X104182643Y-22634503D02*
X102058573Y-24758573D01*
X104658377Y-22634503D02*
X104182643Y-22634503D01*
X102058573Y-24758573D02*
X101300000Y-25517146D01*
X101300000Y-25517146D02*
X101300000Y-28700000D01*
X101200000Y-28800000D02*
X101200000Y-32900000D01*
X101300000Y-28700000D02*
X101200000Y-28800000D01*
X99568265Y-37568267D02*
X99268266Y-37868266D01*
X100600010Y-36536522D02*
X99568265Y-37568267D01*
X100600010Y-33499990D02*
X100600010Y-36536522D01*
X101200000Y-32900000D02*
X100600010Y-33499990D01*
X69614008Y-38400000D02*
X69299991Y-38085983D01*
X69299991Y-38085983D02*
X69299991Y-37143071D01*
X71100000Y-38400000D02*
X69614008Y-38400000D01*
X69299991Y-37143071D02*
X70317646Y-36125416D01*
X70317646Y-36125416D02*
X70741910Y-36125416D01*
D11*
X83300000Y-31000000D02*
X79000000Y-31000000D01*
X77300000Y-31000000D02*
X76400000Y-30100000D01*
D20*
X89400000Y-29100000D02*
X88525728Y-29974272D01*
X89400000Y-28700000D02*
X89400000Y-29100000D01*
X106500000Y-49200000D02*
X109200000Y-49200000D01*
X109200000Y-49200000D02*
X110100000Y-48300000D01*
D21*
X143900000Y-32000000D02*
X144000000Y-32000000D01*
X144000000Y-32000000D02*
X146600000Y-34600000D01*
X123300000Y-43600000D02*
X109800000Y-43600000D01*
X130300000Y-36600000D02*
X123300000Y-43600000D01*
X69200000Y-47100000D02*
X69400000Y-46900000D01*
X65500000Y-47100000D02*
X69200000Y-47100000D01*
D20*
X87387510Y-46200000D02*
X85400000Y-46200000D01*
X85400000Y-46200000D02*
X84100000Y-44900000D01*
D21*
X77500010Y-31000000D02*
X76600010Y-30100000D01*
X83300000Y-31000000D02*
X77500010Y-31000000D01*
D11*
X79000000Y-31000000D02*
X77300000Y-31000000D01*
D21*
X109800000Y-43600000D02*
X109800000Y-39300000D01*
X109800000Y-39300000D02*
X109700000Y-39200000D01*
D11*
X105175735Y-39175735D02*
X106900000Y-37451470D01*
X106900000Y-37451470D02*
X106900000Y-37200000D01*
X81000000Y-27500000D02*
X81000000Y-29600000D01*
D21*
X120000000Y-34800000D02*
X126000000Y-28800000D01*
X126000000Y-28800000D02*
X137700000Y-28800000D01*
X141250000Y-29750000D02*
X154250000Y-29750000D01*
X140400000Y-28900000D02*
X141250000Y-29750000D01*
D11*
X50100000Y-51100000D02*
X74199963Y-51100000D01*
X74400001Y-50899962D02*
X74700000Y-50599963D01*
X35074990Y-36074990D02*
X50100000Y-51100000D01*
X74199963Y-51100000D02*
X74400001Y-50899962D01*
X122788002Y-50200000D02*
X121600000Y-49011998D01*
X124200000Y-50200000D02*
X122788002Y-50200000D01*
X121600000Y-48900000D02*
X121724500Y-48900000D01*
X121600000Y-49011998D02*
X121724500Y-48900000D01*
X157599998Y-45275736D02*
X157599998Y-45700000D01*
X155000000Y-38790000D02*
X157599998Y-41389998D01*
X157599998Y-41389998D02*
X157599998Y-45275736D01*
D21*
X70875736Y-49200000D02*
X71300000Y-49200000D01*
X64400000Y-49200000D02*
X70875736Y-49200000D01*
X56300000Y-38800000D02*
X56300000Y-41100000D01*
X56300000Y-41100000D02*
X64400000Y-49200000D01*
D11*
X185500000Y-27825000D02*
X185500000Y-49765700D01*
X185500000Y-49765700D02*
X183865699Y-51400001D01*
X183865699Y-51400001D02*
X135299999Y-51400001D01*
X135299999Y-51400001D02*
X134700000Y-50800000D01*
X134700000Y-37124264D02*
X134700000Y-36700000D01*
X134700000Y-50800000D02*
X134700000Y-37124264D01*
X181250000Y-23575000D02*
X185500000Y-27825000D01*
X181250000Y-22500000D02*
X181250000Y-23575000D01*
X134700000Y-50800000D02*
X122500000Y-50800000D01*
X122500000Y-50800000D02*
X121100000Y-49400000D01*
D20*
X62600000Y-43600000D02*
X63300000Y-43600000D01*
X50362001Y-31362001D02*
X62600000Y-43600000D01*
X40270093Y-32215888D02*
X41123980Y-31362001D01*
X41123980Y-31362001D02*
X50362001Y-31362001D01*
D11*
X75800000Y-33200000D02*
X72600000Y-36400000D01*
X75800000Y-21100000D02*
X75800000Y-33200000D01*
X74900000Y-31289950D02*
X72544975Y-33644975D01*
X74900000Y-21149999D02*
X74900000Y-31289950D01*
D20*
X71599999Y-24799999D02*
X71599999Y-36736003D01*
X70439704Y-37675973D02*
X70015440Y-37675973D01*
X70660029Y-37675973D02*
X70439704Y-37675973D01*
X71599999Y-36736003D02*
X70660029Y-37675973D01*
X71300000Y-24500000D02*
X71599999Y-24799999D01*
D11*
X46400000Y-35300000D02*
X47800000Y-35300000D01*
X85200001Y-47000000D02*
X89600000Y-47000000D01*
X91100000Y-45500000D02*
X91875738Y-45500000D01*
X65500001Y-44700001D02*
X82900001Y-44700001D01*
X44800000Y-27660000D02*
X48460000Y-27660000D01*
X91875738Y-45500000D02*
X92300002Y-45500000D01*
X89600000Y-47000000D02*
X91100000Y-45500000D01*
X82900001Y-44700001D02*
X85200001Y-47000000D01*
X48460000Y-27660000D02*
X65500001Y-44700001D01*
X94400000Y-32688004D02*
X94400000Y-40575736D01*
X95300002Y-31788002D02*
X94400000Y-32688004D01*
X94400000Y-40575736D02*
X94400000Y-41000000D01*
X95300002Y-30702943D02*
X95300002Y-31788002D01*
X88948530Y-24351471D02*
X95300002Y-30702943D01*
X99200000Y-31800294D02*
X95619736Y-35380558D01*
X95619736Y-35380558D02*
X95619736Y-39819736D01*
X89463753Y-49073515D02*
X89377954Y-49073515D01*
X91071761Y-49662001D02*
X90052239Y-49662001D01*
X95418266Y-41718266D02*
X95972652Y-42272652D01*
X96057484Y-45112900D02*
X96057484Y-45688904D01*
X93246399Y-48499989D02*
X91624001Y-48499989D01*
X90052239Y-49662001D02*
X89463753Y-49073515D01*
X91624001Y-49109761D02*
X91071761Y-49662001D01*
X96057484Y-45688904D02*
X93246399Y-48499989D01*
X95972652Y-45028068D02*
X96057484Y-45112900D01*
X91624001Y-48499989D02*
X91624001Y-49109761D01*
X95972652Y-42272652D02*
X95972652Y-45028068D01*
X97399990Y-30900000D02*
X99269491Y-30900000D01*
X99269491Y-30900000D02*
X99369782Y-31000291D01*
X94400001Y-31799999D02*
X94700000Y-31500000D01*
X93600000Y-36300000D02*
X93600000Y-32600000D01*
X93600000Y-32600000D02*
X94400001Y-31799999D01*
X93700012Y-45853690D02*
X93700012Y-42500012D01*
X90562000Y-48600000D02*
X91323999Y-47838001D01*
X91715701Y-47838001D02*
X93700012Y-45853690D01*
X90999999Y-39799999D02*
X90700000Y-39500000D01*
X91323999Y-47838001D02*
X91715701Y-47838001D01*
X93700012Y-42500012D02*
X90999999Y-39799999D01*
X97299999Y-41400001D02*
X97299999Y-41100001D01*
X97000000Y-41700000D02*
X97299999Y-41400001D01*
X97299999Y-41100001D02*
X102000000Y-36400000D01*
X102000000Y-36400000D02*
X102000000Y-35900000D01*
X102000000Y-35900000D02*
X106500000Y-31400000D01*
X149290000Y-38790000D02*
X149920000Y-38790000D01*
X142700000Y-32200000D02*
X149290000Y-38790000D01*
X140371212Y-31198368D02*
X140272833Y-31099989D01*
X128500000Y-34100000D02*
X126100044Y-36499956D01*
X134343376Y-30899978D02*
X128500000Y-30899978D01*
X113299956Y-36499956D02*
X109600000Y-32800000D01*
X126100044Y-36499956D02*
X113299956Y-36499956D01*
X128500000Y-30899978D02*
X128500000Y-34100000D01*
X134543387Y-31099989D02*
X134343376Y-30899978D01*
X140272833Y-31099989D02*
X134543387Y-31099989D01*
X97573529Y-45250735D02*
X97722794Y-45400000D01*
X97149265Y-45250735D02*
X97573529Y-45250735D01*
X97722794Y-45400000D02*
X118976489Y-45400000D01*
X118976489Y-45400000D02*
X119100000Y-45276489D01*
X121624264Y-46899968D02*
X121200000Y-46899968D01*
X133900000Y-38300000D02*
X130699968Y-38300000D01*
X122100000Y-46899968D02*
X121624264Y-46899968D01*
X130699968Y-38300000D02*
X122100000Y-46899968D01*
X129500000Y-41000000D02*
X123000022Y-47499978D01*
X108599978Y-47499978D02*
X108199999Y-47099999D01*
X123000022Y-47499978D02*
X108599978Y-47499978D01*
X108199999Y-47099999D02*
X107900000Y-46800000D01*
X140971213Y-32081215D02*
X140971213Y-30671213D01*
X131699990Y-26899990D02*
X121671830Y-26899990D01*
X135499981Y-23099999D02*
X131699990Y-26899990D01*
X119899987Y-25128147D02*
X119599988Y-24828148D01*
X140971213Y-30671213D02*
X137600000Y-27300000D01*
X155250000Y-44475000D02*
X154349990Y-43574990D01*
X137600000Y-24400000D02*
X136300000Y-23100000D01*
X136300000Y-23100000D02*
X135499981Y-23099999D01*
X152464988Y-43574990D02*
X140971213Y-32081215D01*
X154349990Y-43574990D02*
X152464988Y-43574990D01*
X155250000Y-44750000D02*
X155250000Y-44475000D01*
X121671830Y-26899990D02*
X119899987Y-25128147D01*
X137600000Y-27300000D02*
X137600000Y-24400000D01*
X165250000Y-29475000D02*
X160675010Y-24900010D01*
X165250000Y-29750000D02*
X165250000Y-29475000D01*
X160675010Y-24900010D02*
X138300010Y-24900010D01*
X138300010Y-24900010D02*
X138300000Y-24900000D01*
X112500000Y-27200000D02*
X105100000Y-27200000D01*
X105100000Y-27200000D02*
X105100000Y-27966555D01*
X105100000Y-27966555D02*
X103804308Y-29262247D01*
X120200000Y-27700000D02*
X119100000Y-28800000D01*
X132900000Y-27700000D02*
X120200000Y-27700000D01*
X135800000Y-24800000D02*
X132900000Y-27700000D01*
X167250000Y-29475000D02*
X162275000Y-24500000D01*
X167250000Y-29750000D02*
X167250000Y-29475000D01*
X162275000Y-24500000D02*
X139000000Y-24500000D01*
X139000000Y-24500000D02*
X138500000Y-24000000D01*
X112300000Y-28600000D02*
X105713532Y-28600000D01*
X105713532Y-28600000D02*
X102856766Y-31456766D01*
X117500000Y-28500000D02*
X115900000Y-30100000D01*
X118000000Y-28500000D02*
X117500000Y-28500000D01*
X119200000Y-27300000D02*
X118000000Y-28500000D01*
X135800000Y-23700000D02*
X132200000Y-27300000D01*
X132200000Y-27300000D02*
X119200000Y-27300000D01*
X177250000Y-37525000D02*
X178925000Y-39200000D01*
X177250000Y-37250000D02*
X177250000Y-37525000D01*
X178925000Y-39200000D02*
X181800000Y-39200000D01*
X181800000Y-39200000D02*
X184299990Y-41699990D01*
X184299990Y-41699990D02*
X184300000Y-41700000D01*
X184300000Y-41700000D02*
X184300000Y-48400000D01*
X184300000Y-48400000D02*
X182600010Y-50099990D01*
X182600010Y-50099990D02*
X182500020Y-50000000D01*
X182500020Y-50000000D02*
X150800000Y-50000000D01*
X150800000Y-50000000D02*
X136800000Y-50000000D01*
X136800000Y-50000000D02*
X136400010Y-49600010D01*
X136400010Y-49600010D02*
X136400010Y-41400010D01*
X136400010Y-36380610D02*
X135319400Y-35300000D01*
X136400010Y-41400010D02*
X136400010Y-36380610D01*
X135319400Y-35300000D02*
X132500000Y-35300000D01*
X132500000Y-35300000D02*
X132300000Y-35300000D01*
X132300000Y-35300000D02*
X132100000Y-35100000D01*
X87500010Y-51300010D02*
X85700000Y-49500000D01*
X121000020Y-48300000D02*
X118000010Y-51300010D01*
X118000010Y-51300010D02*
X87500010Y-51300010D01*
X124150454Y-48300000D02*
X121000020Y-48300000D01*
X133035318Y-39415136D02*
X124150454Y-48300000D01*
X136000000Y-36546299D02*
X135153701Y-35700000D01*
X136000000Y-50400000D02*
X136000000Y-36546299D01*
X165400000Y-50500000D02*
X165300000Y-50400000D01*
X183600000Y-50500000D02*
X165400000Y-50500000D01*
X179250000Y-37250000D02*
X179250000Y-38325000D01*
X179250000Y-38325000D02*
X179350010Y-38425010D01*
X179350010Y-38425010D02*
X183374990Y-38425010D01*
X183374990Y-38425010D02*
X184700000Y-39750020D01*
X165300000Y-50400000D02*
X136000000Y-50400000D01*
X184700000Y-39750020D02*
X184700000Y-49400000D01*
X135153701Y-35700000D02*
X132400000Y-35700000D01*
X184700000Y-49400000D02*
X183600000Y-50500000D01*
X132400000Y-35700000D02*
X131851470Y-35700000D01*
X131851470Y-35700000D02*
X131375735Y-36175735D01*
X132300000Y-39100000D02*
X123500011Y-47899989D01*
X120834331Y-47899989D02*
X117834321Y-50899999D01*
X88199999Y-50899999D02*
X86899999Y-49599999D01*
X117834321Y-50899999D02*
X88199999Y-50899999D01*
X123500011Y-47899989D02*
X120834331Y-47899989D01*
X86899999Y-49599999D02*
X86600000Y-49300000D01*
X182050000Y-37250000D02*
X182100000Y-37300000D01*
X181250000Y-37250000D02*
X182050000Y-37250000D01*
X94300022Y-44890973D02*
X94947553Y-44890973D01*
X96503061Y-46091871D02*
X96203062Y-46391870D01*
X182050000Y-37250000D02*
X183150000Y-37250000D01*
X185100000Y-39200000D02*
X185100000Y-49600000D01*
X183700010Y-50999990D02*
X135465688Y-50999990D01*
X183150000Y-37250000D02*
X185100000Y-39200000D01*
X96585851Y-46009081D02*
X96503061Y-46091871D01*
X95157483Y-45100903D02*
X95457482Y-45400902D01*
X132300000Y-36100000D02*
X122390919Y-46009081D01*
X135300001Y-50834303D02*
X135300001Y-36411999D01*
X135465688Y-50999990D02*
X135300001Y-50834303D01*
X122390919Y-46009081D02*
X96585851Y-46009081D01*
X94947553Y-44890973D02*
X95157483Y-45100903D01*
X135300001Y-36411999D02*
X134988002Y-36100000D01*
X134988002Y-36100000D02*
X132300000Y-36100000D01*
X185100000Y-49600000D02*
X183700010Y-50999990D01*
X105400001Y-26300001D02*
X105700000Y-26600000D01*
X105276818Y-26176818D02*
X105400001Y-26300001D01*
X105276818Y-22723182D02*
X105276818Y-26176818D01*
X106800000Y-21200000D02*
X105276818Y-22723182D01*
X112700000Y-20200030D02*
X111700030Y-21200000D01*
X111700030Y-21200000D02*
X106800000Y-21200000D01*
X116391370Y-22401295D02*
X106864405Y-22401295D01*
X106864405Y-22401295D02*
X105676829Y-23588871D01*
X105676829Y-23588871D02*
X105676829Y-24494948D01*
X105853191Y-24671310D02*
X106277455Y-24671310D01*
X105676829Y-24494948D02*
X105853191Y-24671310D01*
X114399945Y-36099945D02*
X112500000Y-34200000D01*
X137700000Y-30400000D02*
X128100000Y-30400000D01*
X117516447Y-27283553D02*
X117516447Y-25077414D01*
X117516447Y-25077414D02*
X118965725Y-23628136D01*
X112500000Y-32300000D02*
X117516447Y-27283553D01*
X112500000Y-34200000D02*
X112500000Y-32300000D01*
X122400055Y-36099945D02*
X114399945Y-36099945D01*
X128100000Y-30400000D02*
X122400055Y-36099945D01*
X118965725Y-23628136D02*
X119347490Y-23628136D01*
X99200000Y-34099997D02*
X99200000Y-33434300D01*
X99999990Y-32634310D02*
X99999990Y-27624244D01*
X99999990Y-27624244D02*
X99999990Y-27199980D01*
X99200000Y-33434300D02*
X99999990Y-32634310D01*
X110200000Y-18700000D02*
X97300000Y-18700000D01*
X97300000Y-18700000D02*
X95100000Y-20900000D01*
X139200000Y-20500000D02*
X139200000Y-20399990D01*
X122100000Y-21600000D02*
X118212000Y-21600000D01*
X114860121Y-25470940D02*
X106726409Y-25470940D01*
X133600000Y-20399990D02*
X130499990Y-23500000D01*
X106726409Y-25470940D02*
X106302145Y-25470940D01*
X124000000Y-23500000D02*
X122100000Y-21600000D01*
X117800002Y-22531059D02*
X114860121Y-25470940D01*
X117800002Y-22011998D02*
X117800002Y-22531059D01*
X118212000Y-21600000D02*
X117800002Y-22011998D01*
X139200000Y-20399990D02*
X133600000Y-20399990D01*
X130499990Y-23500000D02*
X124000000Y-23500000D01*
X98424243Y-35000000D02*
X97999979Y-35000000D01*
X99200000Y-34900000D02*
X99100000Y-35000000D01*
X98019980Y-34979999D02*
X97999979Y-35000000D01*
X99100000Y-35000000D02*
X98424243Y-35000000D01*
X99199990Y-34979999D02*
X98019980Y-34979999D01*
X117191259Y-22496745D02*
X115816705Y-23871299D01*
X117191259Y-22291259D02*
X117191259Y-22496745D01*
X106701095Y-23871299D02*
X106276831Y-23871299D01*
X115816705Y-23871299D02*
X106701095Y-23871299D01*
X101900010Y-33100000D02*
X101900010Y-26111302D01*
X104376809Y-23634503D02*
X104676808Y-23334504D01*
X101900010Y-26111302D02*
X104376809Y-23634503D01*
X120405375Y-24228138D02*
X119059488Y-24228138D01*
X135400000Y-22299989D02*
X131993428Y-25706561D01*
X131993428Y-25706561D02*
X131993428Y-26040854D01*
X131993428Y-26040854D02*
X122218091Y-26040854D01*
X122218091Y-26040854D02*
X120405375Y-24228138D01*
X158349990Y-23675010D02*
X150575010Y-23675010D01*
X159250000Y-22775000D02*
X158349990Y-23675010D01*
X141767450Y-22862012D02*
X140416550Y-22862012D01*
X159250000Y-22500000D02*
X159250000Y-22775000D01*
X118836792Y-24450834D02*
X118836792Y-25068044D01*
X142129462Y-22500000D02*
X141767450Y-22862012D01*
X119059488Y-24228138D02*
X118836792Y-24450834D01*
X139854527Y-22299989D02*
X135400000Y-22299989D01*
X140416550Y-22862012D02*
X139854527Y-22299989D01*
X149400000Y-22500000D02*
X142129462Y-22500000D01*
X150575010Y-23675010D02*
X149400000Y-22500000D01*
X91375728Y-31124272D02*
X91375728Y-32400008D01*
X91375728Y-32400008D02*
X91375728Y-32824272D01*
X92700000Y-29800000D02*
X91375728Y-31124272D01*
X130700000Y-34800000D02*
X127400000Y-38100000D01*
X142800000Y-44036000D02*
X142800000Y-40400000D01*
X143632000Y-44868000D02*
X142800000Y-44036000D01*
X142800000Y-40400000D02*
X136200000Y-33800000D01*
X136200000Y-33800000D02*
X130700000Y-33800000D01*
X130700000Y-33800000D02*
X130700000Y-34800000D01*
X109200000Y-38100000D02*
X104499990Y-42800010D01*
X127400000Y-38100000D02*
X109200000Y-38100000D01*
X143632000Y-48600000D02*
X143632000Y-44868000D01*
X104499990Y-42800010D02*
X101900000Y-42800010D01*
X92700000Y-33200000D02*
X92525727Y-33374273D01*
X92700000Y-31100000D02*
X92700000Y-33200000D01*
X92525727Y-33374273D02*
X92225728Y-33674272D01*
X130300000Y-34600000D02*
X127200011Y-37699989D01*
X146172000Y-42672000D02*
X136700000Y-33200000D01*
X127200011Y-37699989D02*
X107500011Y-37699989D01*
X107500011Y-37699989D02*
X103000000Y-42200000D01*
X130300000Y-33200000D02*
X130300000Y-34600000D01*
X136700000Y-33200000D02*
X130300000Y-33200000D01*
X146172000Y-48600000D02*
X146172000Y-42672000D01*
X98000000Y-43707562D02*
X98000000Y-44131826D01*
X98000000Y-41000000D02*
X98000000Y-43707562D01*
X108100000Y-30900000D02*
X98000000Y-41000000D01*
X111200000Y-30900000D02*
X108100000Y-30900000D01*
X140582239Y-20337999D02*
X139920248Y-20999990D01*
X118200017Y-22317525D02*
X118200010Y-22696751D01*
X118200010Y-22696751D02*
X115200000Y-25696761D01*
X144141761Y-20337999D02*
X140582239Y-20337999D01*
X144694001Y-20999631D02*
X144694001Y-20890239D01*
X118417542Y-22100000D02*
X118200017Y-22317525D01*
X145094370Y-21400000D02*
X144694001Y-20999631D01*
X146172000Y-21400000D02*
X145094370Y-21400000D01*
X139920248Y-20999990D02*
X133699970Y-20999990D01*
X144694001Y-20890239D02*
X144141761Y-20337999D01*
X133699970Y-20999990D02*
X130699980Y-23999980D01*
X121600010Y-22100000D02*
X118417542Y-22100000D01*
X130699980Y-23999980D02*
X123499990Y-23999980D01*
X123499990Y-23999980D02*
X121600010Y-22100000D01*
X115200000Y-25696761D02*
X115200000Y-26900000D01*
X115200000Y-26900000D02*
X111200000Y-30900000D01*
X98899999Y-44400001D02*
X98600000Y-44700000D01*
X99199999Y-44400001D02*
X98899999Y-44400001D01*
X102300000Y-41300000D02*
X99199999Y-44400001D01*
X102300000Y-37865700D02*
X102300000Y-41300000D01*
X108465678Y-31700022D02*
X102300000Y-37865700D01*
X120200000Y-23400000D02*
X119828126Y-23028126D01*
X143632000Y-21400000D02*
X142663762Y-21400000D01*
X142663762Y-21400000D02*
X141601761Y-22462001D01*
X135100000Y-21850766D02*
X131644215Y-25306551D01*
X116100011Y-27131389D02*
X111531378Y-31700022D01*
X141601761Y-22462001D02*
X140582239Y-22462001D01*
X111531378Y-31700022D02*
X108465678Y-31700022D01*
X140582239Y-22462001D02*
X139971004Y-21850766D01*
X139971004Y-21850766D02*
X135100000Y-21850766D01*
X131644215Y-25306551D02*
X122636384Y-25306551D01*
X122636384Y-25306551D02*
X122342935Y-25600000D01*
X122342935Y-25600000D02*
X120200000Y-23457065D01*
X120200000Y-23457065D02*
X120200000Y-23400000D01*
X119828126Y-23028126D02*
X119000035Y-23028126D01*
X119000035Y-23028126D02*
X116100011Y-25928150D01*
X116100011Y-25928150D02*
X116100011Y-27131389D01*
X131400000Y-24900000D02*
X134900000Y-21400000D01*
X123000000Y-24900000D02*
X131400000Y-24900000D01*
X121100000Y-23000000D02*
X123000000Y-24900000D01*
X121100000Y-22983212D02*
X121100000Y-23000000D01*
X120650927Y-22534140D02*
X121100000Y-22983212D01*
X118862461Y-22600000D02*
X120585067Y-22600000D01*
X134900000Y-21400000D02*
X141092000Y-21400000D01*
X101616398Y-41015227D02*
X101616398Y-37983602D01*
X108299989Y-31300011D02*
X111365689Y-31300011D01*
X120585067Y-22600000D02*
X120650927Y-22534140D01*
X111365689Y-31300011D02*
X115700000Y-26965700D01*
X101616398Y-37983602D02*
X108299989Y-31300011D01*
X115700000Y-26965700D02*
X115700000Y-25762461D01*
X115700000Y-25762461D02*
X118862461Y-22600000D01*
X104008000Y-21592000D02*
X104008000Y-21400000D01*
X102337979Y-23262021D02*
X104008000Y-21592000D01*
X99469375Y-23262021D02*
X102337979Y-23262021D01*
X98200000Y-24531396D02*
X99469375Y-23262021D01*
X98200000Y-24800000D02*
X98200000Y-24531396D01*
X98240970Y-24840970D02*
X98200000Y-24800000D01*
X88200000Y-22462001D02*
X88200000Y-22714939D01*
X87549997Y-22462001D02*
X88200000Y-22462001D01*
X86299999Y-30499999D02*
X86299999Y-23711999D01*
X98100000Y-25891210D02*
X98240970Y-25750240D01*
X89100000Y-33300000D02*
X86299999Y-30499999D01*
X88200000Y-22714939D02*
X91585061Y-26100000D01*
X91585061Y-26100000D02*
X98100000Y-26100000D01*
X98240970Y-25750240D02*
X98240970Y-24840970D01*
X98100000Y-26100000D02*
X98100000Y-25891210D01*
X86299999Y-23711999D02*
X87549997Y-22462001D01*
X100600000Y-25100000D02*
X100310043Y-24810043D01*
X100600000Y-32600000D02*
X100600000Y-25100000D01*
X100100000Y-33100000D02*
X100600000Y-32600000D01*
X100100000Y-36188002D02*
X100100000Y-33100000D01*
X94688001Y-41600001D02*
X100100000Y-36188002D01*
X94111999Y-41600001D02*
X94688001Y-41600001D01*
X90113965Y-37601967D02*
X94111999Y-41600001D01*
X90113965Y-35299758D02*
X90113965Y-37601967D01*
X89310328Y-34496121D02*
X90113965Y-35299758D01*
X89310328Y-34071857D02*
X89310328Y-34496121D01*
X169899999Y-27734301D02*
X169899999Y-43124999D01*
X99303686Y-22862010D02*
X102172290Y-22862010D01*
X97640969Y-25462239D02*
X97640969Y-25037975D01*
X110885066Y-20600030D02*
X111885066Y-19600030D01*
X111885066Y-19600030D02*
X121834311Y-19600031D01*
X121834311Y-19600031D02*
X171200001Y-19600031D01*
X171200001Y-19600031D02*
X171299999Y-19700029D01*
X102945999Y-22088301D02*
X102945999Y-20854001D01*
X169899999Y-43124999D02*
X171250000Y-44475000D01*
X171299999Y-19700029D02*
X171299999Y-26334301D01*
X171250000Y-44475000D02*
X171250000Y-44750000D01*
X109252901Y-20337999D02*
X109514931Y-20600030D01*
X171299999Y-26334301D02*
X169899999Y-27734301D01*
X97799989Y-24878955D02*
X97799989Y-24365707D01*
X103462001Y-20337999D02*
X109252901Y-20337999D01*
X102945999Y-20854001D02*
X103462001Y-20337999D01*
X102172290Y-22862010D02*
X102945999Y-22088301D01*
X97799989Y-24365707D02*
X99303686Y-22862010D01*
X97640969Y-25037975D02*
X97799989Y-24878955D01*
X109514931Y-20600030D02*
X110885066Y-20600030D01*
X122000000Y-19200020D02*
X122134311Y-19200020D01*
X173250000Y-44475000D02*
X173250000Y-44750000D01*
X170300010Y-41525010D02*
X173250000Y-44475000D01*
X171800000Y-19200020D02*
X171800000Y-25400000D01*
X122000000Y-19200020D02*
X171800000Y-19200020D01*
X171800000Y-25400000D02*
X171700010Y-25499990D01*
X171700010Y-25499990D02*
X171700010Y-26499990D01*
X171700010Y-26499990D02*
X170300010Y-27899990D01*
X170300010Y-27899990D02*
X170300010Y-41525010D01*
X109680620Y-20200020D02*
X110719378Y-20200020D01*
X109380601Y-19900000D02*
X109680620Y-20200020D01*
X103334301Y-19900000D02*
X109380601Y-19900000D01*
X102530001Y-20704300D02*
X103334301Y-19900000D01*
X97040969Y-24766147D02*
X97340968Y-24466148D01*
X110719378Y-20200020D02*
X111719378Y-19200020D01*
X97340968Y-24466148D02*
X97340968Y-24259032D01*
X97340968Y-24259032D02*
X99137999Y-22462001D01*
X99137999Y-22462001D02*
X101977761Y-22462001D01*
X111719378Y-19200020D02*
X122000000Y-19200020D01*
X101977761Y-22462001D02*
X102530001Y-21909761D01*
X102530001Y-21909761D02*
X102530001Y-20704300D01*
X170800000Y-40300000D02*
X175250000Y-44750000D01*
X170800000Y-27965699D02*
X170800000Y-40300000D01*
X171965699Y-26800000D02*
X170800000Y-27965699D01*
X172200010Y-26800000D02*
X171965699Y-26800000D01*
X96424265Y-24494849D02*
X101419114Y-19500000D01*
X172200010Y-21800000D02*
X172200010Y-26800000D01*
X96424265Y-25275735D02*
X96424265Y-24494849D01*
X101419114Y-19500000D02*
X109546300Y-19500000D01*
X109546300Y-19500000D02*
X109846309Y-19800010D01*
X111553690Y-18800010D02*
X175200000Y-18800010D01*
X109846309Y-19800010D02*
X110553690Y-19800010D01*
X175200000Y-18800010D02*
X172200010Y-21800000D01*
X110553690Y-19800010D02*
X111553690Y-18800010D01*
X96024255Y-24451481D02*
X96024255Y-24275745D01*
X95600000Y-25300000D02*
X95600000Y-24875736D01*
X95600000Y-24875736D02*
X96024255Y-24451481D01*
X96024255Y-24275745D02*
X101200000Y-19100000D01*
X101200000Y-19100000D02*
X104900000Y-19100000D01*
X109711998Y-19100000D02*
X110011998Y-19400000D01*
X104900000Y-19100000D02*
X109711998Y-19100000D01*
X110388002Y-19400000D02*
X111388002Y-18400000D01*
X110011998Y-19400000D02*
X110388002Y-19400000D01*
X111388002Y-18400000D02*
X126700000Y-18400000D01*
X126700000Y-18400000D02*
X149700000Y-18400000D01*
X177000000Y-18400000D02*
X177100000Y-18400000D01*
X149700000Y-18400000D02*
X177000000Y-18400000D01*
X177000000Y-18400000D02*
X176165708Y-18400000D01*
X176165708Y-18400000D02*
X173000000Y-21565708D01*
X177250000Y-44475000D02*
X177250000Y-44750000D01*
X173000000Y-21565708D02*
X173000000Y-26565709D01*
X173000000Y-26565709D02*
X171200000Y-28365709D01*
X171200000Y-28365709D02*
X171200000Y-38425000D01*
X171200000Y-38425000D02*
X177250000Y-44475000D01*
X136747166Y-32000000D02*
X134311998Y-32000000D01*
X134011998Y-31700000D02*
X129600000Y-31700000D01*
X152047177Y-47300011D02*
X136747166Y-32000000D01*
X177774989Y-47300011D02*
X152047177Y-47300011D01*
X179250000Y-45825000D02*
X177774989Y-47300011D01*
X129600000Y-31700000D02*
X129600000Y-34700000D01*
X129600000Y-34700000D02*
X127000022Y-37299978D01*
X127000022Y-37299978D02*
X109894879Y-37299978D01*
X134311998Y-32000000D02*
X134011998Y-31700000D01*
X108586862Y-35991961D02*
X108286863Y-35691962D01*
X109894879Y-37299978D02*
X108586862Y-35991961D01*
X179250000Y-44750000D02*
X179250000Y-45825000D01*
X152349990Y-45397796D02*
X152349990Y-44025690D01*
X129000000Y-31299989D02*
X129000000Y-34500000D01*
X108642436Y-35087843D02*
X108342437Y-34787844D01*
X180349990Y-43574990D02*
X178525010Y-43574990D01*
X176647806Y-46900000D02*
X153852194Y-46900000D01*
X126600033Y-36899967D02*
X110454560Y-36899967D01*
X139824300Y-31500000D02*
X134377698Y-31500000D01*
X134177687Y-31299989D02*
X129000000Y-31299989D01*
X134377698Y-31500000D02*
X134177687Y-31299989D01*
X152349990Y-44025690D02*
X139824300Y-31500000D01*
X153852194Y-46900000D02*
X152349990Y-45397796D01*
X129000000Y-34500000D02*
X126600033Y-36899967D01*
X178349990Y-43750010D02*
X178349990Y-45197816D01*
X178349990Y-45197816D02*
X176647806Y-46900000D01*
X178525010Y-43574990D02*
X178349990Y-43750010D01*
X110454560Y-36899967D02*
X108642436Y-35087843D01*
X181250000Y-44475000D02*
X180349990Y-43574990D01*
X181250000Y-44750000D02*
X181250000Y-44475000D01*
X88493762Y-47500000D02*
X88944918Y-47951156D01*
X74500001Y-49511966D02*
X74500001Y-46311997D01*
X75111998Y-45700000D02*
X83075856Y-45700000D01*
X89658430Y-47951156D02*
X91409585Y-46200001D01*
X93190961Y-44594359D02*
X92890962Y-44294360D01*
X88944918Y-47951156D02*
X89658430Y-47951156D01*
X74688002Y-51600000D02*
X75300001Y-50988001D01*
X84875856Y-47500000D02*
X88493762Y-47500000D01*
X92788001Y-46200001D02*
X93190961Y-45797041D01*
X91409585Y-46200001D02*
X92788001Y-46200001D01*
X44564869Y-51600000D02*
X74688002Y-51600000D01*
X93190961Y-45797041D02*
X93190961Y-44594359D01*
X75300001Y-50988001D02*
X75300002Y-50311967D01*
X83075856Y-45700000D02*
X84875856Y-47500000D01*
X74500001Y-46311997D02*
X75111998Y-45700000D01*
X75300002Y-50311967D02*
X74500001Y-49511966D01*
X39741941Y-46777072D02*
X44564869Y-51600000D01*
X86900000Y-24000000D02*
X90100000Y-27200000D01*
X90100000Y-27200000D02*
X90100000Y-34200000D01*
X90700001Y-34675062D02*
X90724696Y-34699757D01*
X87818764Y-24070235D02*
X90700001Y-26951472D01*
X90700001Y-26951472D02*
X90700001Y-34675062D01*
D22*
G36*
X31927612Y-18735000D02*
X65868046Y-18735000D01*
X65556171Y-18901565D01*
X65236416Y-19290919D01*
X65090000Y-19773000D01*
X65090000Y-20073000D01*
X66248000Y-20073000D01*
X66248000Y-20053000D01*
X66502000Y-20053000D01*
X66502000Y-20073000D01*
X67660000Y-20073000D01*
X67660000Y-19773000D01*
X67513584Y-19290919D01*
X67193829Y-18901565D01*
X66881954Y-18735000D01*
X73118046Y-18735000D01*
X72806171Y-18901565D01*
X72486416Y-19290919D01*
X72340000Y-19773000D01*
X72340000Y-20073000D01*
X73498000Y-20073000D01*
X73498000Y-20053000D01*
X73752000Y-20053000D01*
X73752000Y-20073000D01*
X74910000Y-20073000D01*
X74910000Y-19773000D01*
X74763584Y-19290919D01*
X74443829Y-18901565D01*
X74131954Y-18735000D01*
X96225553Y-18735000D01*
X94995554Y-19965000D01*
X94914017Y-19965000D01*
X94570365Y-20107345D01*
X94307345Y-20370365D01*
X94165000Y-20714017D01*
X94165000Y-21085983D01*
X94307345Y-21429635D01*
X94570365Y-21692655D01*
X94914017Y-21835000D01*
X95285983Y-21835000D01*
X95629635Y-21692655D01*
X95892655Y-21429635D01*
X96035000Y-21085983D01*
X96035000Y-21004446D01*
X97604447Y-19435000D01*
X99825553Y-19435000D01*
X95555720Y-23704834D01*
X95494350Y-23745840D01*
X95331901Y-23988962D01*
X95303240Y-24133050D01*
X95131463Y-24304827D01*
X95070096Y-24345831D01*
X94907646Y-24588953D01*
X94887506Y-24690204D01*
X94807345Y-24770365D01*
X94665000Y-25114017D01*
X94665000Y-25365000D01*
X91889508Y-25365000D01*
X88940185Y-22415678D01*
X88933131Y-22380213D01*
X89761392Y-22380213D01*
X89830857Y-22622397D01*
X90354302Y-22809144D01*
X90909368Y-22781362D01*
X91293143Y-22622397D01*
X91362608Y-22380213D01*
X90562000Y-21579605D01*
X89761392Y-22380213D01*
X88933131Y-22380213D01*
X88892354Y-22175218D01*
X88729905Y-21932096D01*
X88486783Y-21769647D01*
X88272388Y-21727001D01*
X88200000Y-21712602D01*
X88162464Y-21720069D01*
X88022000Y-21579605D01*
X88007858Y-21593748D01*
X87828253Y-21414143D01*
X87842395Y-21400000D01*
X88201605Y-21400000D01*
X89002213Y-22200608D01*
X89244397Y-22131143D01*
X89288453Y-22007656D01*
X89339603Y-22131143D01*
X89581787Y-22200608D01*
X90382395Y-21400000D01*
X90741605Y-21400000D01*
X91542213Y-22200608D01*
X91784397Y-22131143D01*
X91971144Y-21607698D01*
X91943362Y-21052632D01*
X91784397Y-20668857D01*
X91542213Y-20599392D01*
X90741605Y-21400000D01*
X90382395Y-21400000D01*
X89581787Y-20599392D01*
X89339603Y-20668857D01*
X89295547Y-20792344D01*
X89244397Y-20668857D01*
X89002213Y-20599392D01*
X88201605Y-21400000D01*
X87842395Y-21400000D01*
X87041787Y-20599392D01*
X86799603Y-20668857D01*
X86612856Y-21192302D01*
X86640638Y-21747368D01*
X86799603Y-22131143D01*
X86832090Y-22140461D01*
X85831462Y-23141090D01*
X85770095Y-23182094D01*
X85729091Y-23243461D01*
X85729090Y-23243462D01*
X85607645Y-23425217D01*
X85550601Y-23711999D01*
X85565000Y-23784388D01*
X85564999Y-30427615D01*
X85550601Y-30499999D01*
X85564999Y-30572383D01*
X85564999Y-30572386D01*
X85607645Y-30786781D01*
X85770094Y-31029904D01*
X85831464Y-31070910D01*
X88165000Y-33404447D01*
X88165000Y-33485983D01*
X88307345Y-33829635D01*
X88375328Y-33897618D01*
X88375328Y-34257840D01*
X88517673Y-34601492D01*
X88597834Y-34681653D01*
X88617974Y-34782904D01*
X88780424Y-35026026D01*
X88841791Y-35067030D01*
X89378965Y-35604205D01*
X89378966Y-37529578D01*
X89364567Y-37601967D01*
X89421611Y-37888749D01*
X89528939Y-38049376D01*
X89584061Y-38131872D01*
X89645428Y-38172876D01*
X90177105Y-38704553D01*
X90170365Y-38707345D01*
X89907345Y-38970365D01*
X89765000Y-39314017D01*
X89765000Y-39685983D01*
X89907345Y-40029635D01*
X90170365Y-40292655D01*
X90514017Y-40435000D01*
X90595554Y-40435000D01*
X92965013Y-42804460D01*
X92965013Y-43359360D01*
X92704979Y-43359360D01*
X92361327Y-43501705D01*
X92098307Y-43764725D01*
X91955962Y-44108377D01*
X91955962Y-44480343D01*
X92009040Y-44608484D01*
X91770367Y-44707345D01*
X91712712Y-44765000D01*
X91172383Y-44765000D01*
X91099999Y-44750602D01*
X91027615Y-44765000D01*
X91027612Y-44765000D01*
X90813217Y-44807646D01*
X90570095Y-44970095D01*
X90529090Y-45031463D01*
X89295554Y-46265000D01*
X88322510Y-46265000D01*
X88322510Y-46014017D01*
X88180165Y-45670365D01*
X87917145Y-45407345D01*
X87573493Y-45265000D01*
X87201527Y-45265000D01*
X86960105Y-45365000D01*
X85745868Y-45365000D01*
X84992656Y-44611788D01*
X84892655Y-44370365D01*
X84629635Y-44107345D01*
X84285983Y-43965000D01*
X83914017Y-43965000D01*
X83570365Y-44107345D01*
X83461031Y-44216679D01*
X83429906Y-44170096D01*
X83186784Y-44007647D01*
X82972389Y-43965001D01*
X82972385Y-43965001D01*
X82900001Y-43950603D01*
X82827617Y-43965001D01*
X65804448Y-43965001D01*
X63444563Y-41605116D01*
X63591337Y-41544320D01*
X63984320Y-41151337D01*
X64197000Y-40637881D01*
X64197000Y-40082119D01*
X63984320Y-39568663D01*
X63591337Y-39175680D01*
X63384487Y-39090000D01*
X63591337Y-39004320D01*
X63984320Y-38611337D01*
X64197000Y-38097881D01*
X64197000Y-37542119D01*
X64031710Y-37143071D01*
X68448634Y-37143071D01*
X68464992Y-37225308D01*
X68464991Y-38003749D01*
X68448634Y-38085983D01*
X68464991Y-38168216D01*
X68464991Y-38168219D01*
X68513439Y-38411783D01*
X68697990Y-38687984D01*
X68767711Y-38734570D01*
X68965421Y-38932280D01*
X69012007Y-39002001D01*
X69288207Y-39186552D01*
X69531771Y-39235000D01*
X69531774Y-39235000D01*
X69614007Y-39251357D01*
X69696240Y-39235000D01*
X70672595Y-39235000D01*
X70914017Y-39335000D01*
X71285983Y-39335000D01*
X71629635Y-39192655D01*
X71892655Y-38929635D01*
X72035000Y-38585983D01*
X72035000Y-38214017D01*
X71892655Y-37870365D01*
X71769580Y-37747290D01*
X72132284Y-37384587D01*
X72202000Y-37338004D01*
X72249532Y-37266868D01*
X72414017Y-37335000D01*
X72785983Y-37335000D01*
X73129635Y-37192655D01*
X73392655Y-36929635D01*
X73535000Y-36585983D01*
X73535000Y-36504446D01*
X76268537Y-33770909D01*
X76329905Y-33729905D01*
X76492354Y-33486783D01*
X76535000Y-33272388D01*
X76535000Y-33272385D01*
X76549398Y-33200001D01*
X76535000Y-33127617D01*
X76535000Y-31640122D01*
X76618399Y-31723521D01*
X76681721Y-31818289D01*
X77029402Y-32050602D01*
X77057155Y-32069146D01*
X77500009Y-32157235D01*
X77611792Y-32135000D01*
X83411783Y-32135000D01*
X83742855Y-32069146D01*
X84118289Y-31818289D01*
X84369146Y-31442855D01*
X84457235Y-31000000D01*
X84369146Y-30557145D01*
X84118289Y-30181711D01*
X83742855Y-29930854D01*
X83411783Y-29865000D01*
X81902270Y-29865000D01*
X81935000Y-29785983D01*
X81935000Y-29414017D01*
X81792655Y-29070365D01*
X81735000Y-29012710D01*
X81735000Y-28087290D01*
X81792655Y-28029635D01*
X81935000Y-27685983D01*
X81935000Y-27314017D01*
X81792655Y-26970365D01*
X81529635Y-26707345D01*
X81185983Y-26565000D01*
X80814017Y-26565000D01*
X80470365Y-26707345D01*
X80207345Y-26970365D01*
X80065000Y-27314017D01*
X80065000Y-27685983D01*
X80207345Y-28029635D01*
X80265000Y-28087290D01*
X80265001Y-29012709D01*
X80207345Y-29070365D01*
X80065000Y-29414017D01*
X80065000Y-29785983D01*
X80097730Y-29865000D01*
X77970142Y-29865000D01*
X77323533Y-29218392D01*
X77042864Y-29030854D01*
X76600010Y-28942765D01*
X76535000Y-28955696D01*
X76535000Y-21687290D01*
X76592655Y-21629635D01*
X76735000Y-21285983D01*
X76735000Y-20914017D01*
X76592655Y-20570365D01*
X76442077Y-20419787D01*
X87221392Y-20419787D01*
X88022000Y-21220395D01*
X88822608Y-20419787D01*
X89761392Y-20419787D01*
X90562000Y-21220395D01*
X91362608Y-20419787D01*
X91293143Y-20177603D01*
X90769698Y-19990856D01*
X90214632Y-20018638D01*
X89830857Y-20177603D01*
X89761392Y-20419787D01*
X88822608Y-20419787D01*
X88753143Y-20177603D01*
X88229698Y-19990856D01*
X87674632Y-20018638D01*
X87290857Y-20177603D01*
X87221392Y-20419787D01*
X76442077Y-20419787D01*
X76329635Y-20307345D01*
X75985983Y-20165000D01*
X75614017Y-20165000D01*
X75289646Y-20299359D01*
X75085983Y-20214999D01*
X74714017Y-20214999D01*
X74443622Y-20327000D01*
X73752000Y-20327000D01*
X73752000Y-21619067D01*
X73950471Y-21743099D01*
X73999415Y-21735786D01*
X74106839Y-21678413D01*
X74107345Y-21679634D01*
X74165000Y-21737289D01*
X74165001Y-30985502D01*
X72440529Y-32709975D01*
X72434999Y-32709975D01*
X72434999Y-24882236D01*
X72451357Y-24799999D01*
X72432987Y-24707646D01*
X72386551Y-24474198D01*
X72202000Y-24197998D01*
X72181182Y-24184088D01*
X72152940Y-24115907D01*
X72244078Y-24147622D01*
X72754428Y-24118083D01*
X73088729Y-23979611D01*
X73144410Y-23749016D01*
X72425000Y-23029605D01*
X72410858Y-23043748D01*
X72231252Y-22864142D01*
X72245395Y-22850000D01*
X72604605Y-22850000D01*
X73324016Y-23569410D01*
X73554611Y-23513729D01*
X73722622Y-23030922D01*
X73693083Y-22520572D01*
X73554611Y-22186271D01*
X73324016Y-22130590D01*
X72604605Y-22850000D01*
X72245395Y-22850000D01*
X71525984Y-22130590D01*
X71295389Y-22186271D01*
X71127378Y-22669078D01*
X71156917Y-23179428D01*
X71295389Y-23513729D01*
X71525982Y-23569410D01*
X71517385Y-23578007D01*
X71485983Y-23565000D01*
X71114017Y-23565000D01*
X70770365Y-23707345D01*
X70507345Y-23970365D01*
X70365000Y-24314017D01*
X70365000Y-24685983D01*
X70507345Y-25029635D01*
X70764999Y-25287289D01*
X70765000Y-35190416D01*
X70555927Y-35190416D01*
X70342204Y-35278943D01*
X70317646Y-35274058D01*
X70235409Y-35290416D01*
X69991845Y-35338864D01*
X69715645Y-35523415D01*
X69669061Y-35593134D01*
X68767709Y-36494486D01*
X68697991Y-36541070D01*
X68640165Y-36627613D01*
X68513439Y-36817271D01*
X68448634Y-37143071D01*
X64031710Y-37143071D01*
X63984320Y-37028663D01*
X63591337Y-36635680D01*
X63384487Y-36550000D01*
X63591337Y-36464320D01*
X63984320Y-36071337D01*
X64197000Y-35557881D01*
X64197000Y-35002119D01*
X63984320Y-34488663D01*
X63591337Y-34095680D01*
X63384487Y-34010000D01*
X63591337Y-33924320D01*
X63984320Y-33531337D01*
X64197000Y-33017881D01*
X64197000Y-32462119D01*
X63984320Y-31948663D01*
X63591337Y-31555680D01*
X63384487Y-31470000D01*
X63591337Y-31384320D01*
X63984320Y-30991337D01*
X64197000Y-30477881D01*
X64197000Y-29922119D01*
X63984320Y-29408663D01*
X63591337Y-29015680D01*
X63384487Y-28930000D01*
X63591337Y-28844320D01*
X63984320Y-28451337D01*
X64197000Y-27937881D01*
X64197000Y-27382119D01*
X63984320Y-26868663D01*
X63591337Y-26475680D01*
X63384487Y-26390000D01*
X63591337Y-26304320D01*
X63984320Y-25911337D01*
X64197000Y-25397881D01*
X64197000Y-24842119D01*
X63984320Y-24328663D01*
X63591337Y-23935680D01*
X63384487Y-23850000D01*
X63591337Y-23764320D01*
X63606641Y-23749016D01*
X66855590Y-23749016D01*
X66911271Y-23979611D01*
X67394078Y-24147622D01*
X67904428Y-24118083D01*
X68238729Y-23979611D01*
X68294410Y-23749016D01*
X67575000Y-23029605D01*
X66855590Y-23749016D01*
X63606641Y-23749016D01*
X63984320Y-23371337D01*
X64197000Y-22857881D01*
X64197000Y-22669078D01*
X66277378Y-22669078D01*
X66306917Y-23179428D01*
X66445389Y-23513729D01*
X66675984Y-23569410D01*
X67395395Y-22850000D01*
X67754605Y-22850000D01*
X68474016Y-23569410D01*
X68704611Y-23513729D01*
X68872622Y-23030922D01*
X68843083Y-22520572D01*
X68704611Y-22186271D01*
X68474016Y-22130590D01*
X67754605Y-22850000D01*
X67395395Y-22850000D01*
X66675984Y-22130590D01*
X66445389Y-22186271D01*
X66277378Y-22669078D01*
X64197000Y-22669078D01*
X64197000Y-22302119D01*
X64051556Y-21950984D01*
X66855590Y-21950984D01*
X67575000Y-22670395D01*
X68294410Y-21950984D01*
X71705590Y-21950984D01*
X72425000Y-22670395D01*
X73144410Y-21950984D01*
X73088729Y-21720389D01*
X72605922Y-21552378D01*
X72095572Y-21581917D01*
X71761271Y-21720389D01*
X71705590Y-21950984D01*
X68294410Y-21950984D01*
X68238729Y-21720389D01*
X67755922Y-21552378D01*
X67245572Y-21581917D01*
X66911271Y-21720389D01*
X66855590Y-21950984D01*
X64051556Y-21950984D01*
X63984320Y-21788663D01*
X63591337Y-21395680D01*
X63077881Y-21183000D01*
X62522119Y-21183000D01*
X62008663Y-21395680D01*
X61615680Y-21788663D01*
X61403000Y-22302119D01*
X61403000Y-22857881D01*
X61615680Y-23371337D01*
X62008663Y-23764320D01*
X62215513Y-23850000D01*
X62008663Y-23935680D01*
X61615680Y-24328663D01*
X61403000Y-24842119D01*
X61403000Y-25397881D01*
X61615680Y-25911337D01*
X62008663Y-26304320D01*
X62215513Y-26390000D01*
X62008663Y-26475680D01*
X61615680Y-26868663D01*
X61403000Y-27382119D01*
X61403000Y-27937881D01*
X61615680Y-28451337D01*
X62008663Y-28844320D01*
X62215513Y-28930000D01*
X62008663Y-29015680D01*
X61615680Y-29408663D01*
X61403000Y-29922119D01*
X61403000Y-30477881D01*
X61615680Y-30991337D01*
X62008663Y-31384320D01*
X62215513Y-31470000D01*
X62008663Y-31555680D01*
X61615680Y-31948663D01*
X61403000Y-32462119D01*
X61403000Y-33017881D01*
X61615680Y-33531337D01*
X62008663Y-33924320D01*
X62215513Y-34010000D01*
X62008663Y-34095680D01*
X61615680Y-34488663D01*
X61403000Y-35002119D01*
X61403000Y-35557881D01*
X61615680Y-36071337D01*
X62008663Y-36464320D01*
X62215513Y-36550000D01*
X62008663Y-36635680D01*
X61615680Y-37028663D01*
X61403000Y-37542119D01*
X61403000Y-38097881D01*
X61615680Y-38611337D01*
X62008663Y-39004320D01*
X62215513Y-39090000D01*
X62008663Y-39175680D01*
X61615680Y-39568663D01*
X61554884Y-39715437D01*
X49030911Y-27191465D01*
X48989905Y-27130095D01*
X48746783Y-26967646D01*
X48532388Y-26925000D01*
X48532384Y-26925000D01*
X48460000Y-26910602D01*
X48387616Y-26925000D01*
X46007656Y-26925000D01*
X45984320Y-26868663D01*
X45591337Y-26475680D01*
X45384487Y-26390000D01*
X45591337Y-26304320D01*
X45984320Y-25911337D01*
X46197000Y-25397881D01*
X46197000Y-24842119D01*
X45984320Y-24328663D01*
X45591337Y-23935680D01*
X45384487Y-23850000D01*
X45591337Y-23764320D01*
X45984320Y-23371337D01*
X46197000Y-22857881D01*
X46197000Y-22302119D01*
X45984320Y-21788663D01*
X45591337Y-21395680D01*
X45077881Y-21183000D01*
X44522119Y-21183000D01*
X44008663Y-21395680D01*
X43615680Y-21788663D01*
X43403000Y-22302119D01*
X43403000Y-22857881D01*
X43615680Y-23371337D01*
X44008663Y-23764320D01*
X44215513Y-23850000D01*
X44008663Y-23935680D01*
X43615680Y-24328663D01*
X43403000Y-24842119D01*
X43403000Y-25397881D01*
X43615680Y-25911337D01*
X44008663Y-26304320D01*
X44215513Y-26390000D01*
X44008663Y-26475680D01*
X43615680Y-26868663D01*
X43403000Y-27382119D01*
X43403000Y-27937881D01*
X43615680Y-28451337D01*
X44008663Y-28844320D01*
X44215513Y-28930000D01*
X44008663Y-29015680D01*
X43615680Y-29408663D01*
X43403000Y-29922119D01*
X43403000Y-30477881D01*
X43423346Y-30527001D01*
X41206217Y-30527001D01*
X41123980Y-30510643D01*
X41041743Y-30527001D01*
X40798179Y-30575449D01*
X40521979Y-30760000D01*
X40475394Y-30829719D01*
X39981881Y-31323232D01*
X39740458Y-31423233D01*
X39477438Y-31686253D01*
X39335093Y-32029905D01*
X39335093Y-32401871D01*
X39477438Y-32745523D01*
X39740458Y-33008543D01*
X40084110Y-33150888D01*
X40456076Y-33150888D01*
X40799728Y-33008543D01*
X41062748Y-32745523D01*
X41162749Y-32504100D01*
X41469848Y-32197001D01*
X43512815Y-32197001D01*
X43403000Y-32462119D01*
X43403000Y-33017881D01*
X43615680Y-33531337D01*
X44008663Y-33924320D01*
X44215513Y-34010000D01*
X44008663Y-34095680D01*
X43615680Y-34488663D01*
X43403000Y-35002119D01*
X43403000Y-35557881D01*
X43615680Y-36071337D01*
X44008663Y-36464320D01*
X44199647Y-36543428D01*
X44068857Y-36597603D01*
X43999392Y-36839787D01*
X44800000Y-37640395D01*
X45600608Y-36839787D01*
X45531143Y-36597603D01*
X45390607Y-36547465D01*
X45591337Y-36464320D01*
X45935869Y-36119788D01*
X46214017Y-36235000D01*
X46585983Y-36235000D01*
X46929635Y-36092655D01*
X46987290Y-36035000D01*
X47212710Y-36035000D01*
X47270365Y-36092655D01*
X47614017Y-36235000D01*
X47985983Y-36235000D01*
X48329635Y-36092655D01*
X48592655Y-35829635D01*
X48735000Y-35485983D01*
X48735000Y-35114017D01*
X48592655Y-34770365D01*
X48329635Y-34507345D01*
X47985983Y-34365000D01*
X47614017Y-34365000D01*
X47270365Y-34507345D01*
X47212710Y-34565000D01*
X46987290Y-34565000D01*
X46929635Y-34507345D01*
X46585983Y-34365000D01*
X46214017Y-34365000D01*
X45964154Y-34468497D01*
X45591337Y-34095680D01*
X45384487Y-34010000D01*
X45591337Y-33924320D01*
X45984320Y-33531337D01*
X46197000Y-33017881D01*
X46197000Y-32462119D01*
X46087185Y-32197001D01*
X50016134Y-32197001D01*
X55673017Y-37853884D01*
X55481711Y-37981711D01*
X55230854Y-38357146D01*
X55165000Y-38688218D01*
X55165001Y-40988212D01*
X55142765Y-41100000D01*
X55230854Y-41542854D01*
X55260207Y-41586783D01*
X55481712Y-41918289D01*
X55576480Y-41981611D01*
X63518389Y-49923521D01*
X63581711Y-50018289D01*
X63912898Y-50239581D01*
X63957145Y-50269146D01*
X64400000Y-50357235D01*
X64511783Y-50335000D01*
X71411783Y-50335000D01*
X71742855Y-50269146D01*
X72118289Y-50018289D01*
X72369146Y-49642855D01*
X72457235Y-49200000D01*
X72369146Y-48757145D01*
X72118289Y-48381711D01*
X71742855Y-48130854D01*
X71411783Y-48065000D01*
X69798720Y-48065000D01*
X70018289Y-47918289D01*
X70081613Y-47823518D01*
X70281608Y-47623523D01*
X70469146Y-47342854D01*
X70557235Y-46900000D01*
X70469146Y-46457146D01*
X70218288Y-46081712D01*
X69842854Y-45830854D01*
X69400000Y-45742765D01*
X68957146Y-45830854D01*
X68756383Y-45965000D01*
X65388217Y-45965000D01*
X65057145Y-46030854D01*
X64681711Y-46281711D01*
X64430854Y-46657145D01*
X64342765Y-47100000D01*
X64430854Y-47542855D01*
X64597721Y-47792589D01*
X57435000Y-40629869D01*
X57435000Y-39615868D01*
X61951415Y-44132283D01*
X61997999Y-44202001D01*
X62274199Y-44386552D01*
X62517763Y-44435000D01*
X62517766Y-44435000D01*
X62599999Y-44451357D01*
X62682232Y-44435000D01*
X62872595Y-44435000D01*
X63114017Y-44535000D01*
X63485983Y-44535000D01*
X63829635Y-44392655D01*
X63991422Y-44230868D01*
X64929091Y-45168538D01*
X64970096Y-45229906D01*
X65213218Y-45392355D01*
X65427613Y-45435001D01*
X65500001Y-45449400D01*
X65572389Y-45435001D01*
X74337550Y-45435001D01*
X74031464Y-45741088D01*
X73970097Y-45782092D01*
X73929093Y-45843459D01*
X73929092Y-45843460D01*
X73807647Y-46025215D01*
X73750603Y-46311997D01*
X73765002Y-46384386D01*
X73765001Y-49439582D01*
X73750603Y-49511966D01*
X73765001Y-49584350D01*
X73765001Y-49584353D01*
X73807647Y-49798748D01*
X73956360Y-50021313D01*
X73907345Y-50070328D01*
X73785288Y-50365000D01*
X50404447Y-50365000D01*
X40121566Y-40082119D01*
X43403000Y-40082119D01*
X43403000Y-40637881D01*
X43615680Y-41151337D01*
X44008663Y-41544320D01*
X44522119Y-41757000D01*
X45077881Y-41757000D01*
X45591337Y-41544320D01*
X45984320Y-41151337D01*
X46197000Y-40637881D01*
X46197000Y-40082119D01*
X45984320Y-39568663D01*
X45591337Y-39175680D01*
X45400353Y-39096572D01*
X45531143Y-39042397D01*
X45600608Y-38800213D01*
X44800000Y-37999605D01*
X43999392Y-38800213D01*
X44068857Y-39042397D01*
X44209393Y-39092535D01*
X44008663Y-39175680D01*
X43615680Y-39568663D01*
X43403000Y-40082119D01*
X40121566Y-40082119D01*
X37651749Y-37612302D01*
X43390856Y-37612302D01*
X43418638Y-38167368D01*
X43577603Y-38551143D01*
X43819787Y-38620608D01*
X44620395Y-37820000D01*
X44979605Y-37820000D01*
X45780213Y-38620608D01*
X46022397Y-38551143D01*
X46209144Y-38027698D01*
X46181362Y-37472632D01*
X46022397Y-37088857D01*
X45780213Y-37019392D01*
X44979605Y-37820000D01*
X44620395Y-37820000D01*
X43819787Y-37019392D01*
X43577603Y-37088857D01*
X43390856Y-37612302D01*
X37651749Y-37612302D01*
X36135000Y-36095554D01*
X36135000Y-36014017D01*
X35992655Y-35670365D01*
X35729635Y-35407345D01*
X35385983Y-35265000D01*
X35014017Y-35265000D01*
X34670365Y-35407345D01*
X34407345Y-35670365D01*
X34265000Y-36014017D01*
X34265000Y-36385983D01*
X34407345Y-36729635D01*
X34670365Y-36992655D01*
X35014017Y-37135000D01*
X35095554Y-37135000D01*
X48825553Y-50865000D01*
X44869316Y-50865000D01*
X40676941Y-46672626D01*
X40676941Y-46591089D01*
X40534596Y-46247437D01*
X40271576Y-45984417D01*
X39927924Y-45842072D01*
X39555958Y-45842072D01*
X39212306Y-45984417D01*
X38949286Y-46247437D01*
X38806941Y-46591089D01*
X38806941Y-46963055D01*
X38949286Y-47306707D01*
X39212306Y-47569727D01*
X39555958Y-47712072D01*
X39637495Y-47712072D01*
X43190422Y-51265000D01*
X31927612Y-51265000D01*
X31801929Y-51290000D01*
X30710000Y-51290000D01*
X30710000Y-48322119D01*
X34301000Y-48322119D01*
X34301000Y-48877881D01*
X34513680Y-49391337D01*
X34906663Y-49784320D01*
X35420119Y-49997000D01*
X35975881Y-49997000D01*
X36489337Y-49784320D01*
X36882320Y-49391337D01*
X36968000Y-49184487D01*
X37053680Y-49391337D01*
X37446663Y-49784320D01*
X37960119Y-49997000D01*
X38515881Y-49997000D01*
X39029337Y-49784320D01*
X39422320Y-49391337D01*
X39635000Y-48877881D01*
X39635000Y-48322119D01*
X39422320Y-47808663D01*
X39029337Y-47415680D01*
X38515881Y-47203000D01*
X37960119Y-47203000D01*
X37446663Y-47415680D01*
X37053680Y-47808663D01*
X36968000Y-48015513D01*
X36882320Y-47808663D01*
X36489337Y-47415680D01*
X35975881Y-47203000D01*
X35420119Y-47203000D01*
X34906663Y-47415680D01*
X34513680Y-47808663D01*
X34301000Y-48322119D01*
X30710000Y-48322119D01*
X30710000Y-21122119D01*
X34301000Y-21122119D01*
X34301000Y-21677881D01*
X34513680Y-22191337D01*
X34906663Y-22584320D01*
X35420119Y-22797000D01*
X35975881Y-22797000D01*
X36489337Y-22584320D01*
X36882320Y-22191337D01*
X36968000Y-21984487D01*
X37053680Y-22191337D01*
X37446663Y-22584320D01*
X37960119Y-22797000D01*
X38515881Y-22797000D01*
X39029337Y-22584320D01*
X39422320Y-22191337D01*
X39508000Y-21984487D01*
X39593680Y-22191337D01*
X39986663Y-22584320D01*
X40500119Y-22797000D01*
X41055881Y-22797000D01*
X41569337Y-22584320D01*
X41962320Y-22191337D01*
X42175000Y-21677881D01*
X42175000Y-21122119D01*
X41962320Y-20608663D01*
X41680657Y-20327000D01*
X65090000Y-20327000D01*
X65090000Y-20627000D01*
X65236416Y-21109081D01*
X65556171Y-21498435D01*
X66000585Y-21735786D01*
X66049529Y-21743099D01*
X66248000Y-21619067D01*
X66248000Y-20327000D01*
X66502000Y-20327000D01*
X66502000Y-21619067D01*
X66700471Y-21743099D01*
X66749415Y-21735786D01*
X67193829Y-21498435D01*
X67513584Y-21109081D01*
X67660000Y-20627000D01*
X67660000Y-20327000D01*
X72340000Y-20327000D01*
X72340000Y-20627000D01*
X72486416Y-21109081D01*
X72806171Y-21498435D01*
X73250585Y-21735786D01*
X73299529Y-21743099D01*
X73498000Y-21619067D01*
X73498000Y-20327000D01*
X72340000Y-20327000D01*
X67660000Y-20327000D01*
X66502000Y-20327000D01*
X66248000Y-20327000D01*
X65090000Y-20327000D01*
X41680657Y-20327000D01*
X41569337Y-20215680D01*
X41055881Y-20003000D01*
X40500119Y-20003000D01*
X39986663Y-20215680D01*
X39593680Y-20608663D01*
X39508000Y-20815513D01*
X39422320Y-20608663D01*
X39029337Y-20215680D01*
X38515881Y-20003000D01*
X37960119Y-20003000D01*
X37446663Y-20215680D01*
X37053680Y-20608663D01*
X36968000Y-20815513D01*
X36882320Y-20608663D01*
X36489337Y-20215680D01*
X35975881Y-20003000D01*
X35420119Y-20003000D01*
X34906663Y-20215680D01*
X34513680Y-20608663D01*
X34301000Y-21122119D01*
X30710000Y-21122119D01*
X30710000Y-18710000D01*
X31801929Y-18710000D01*
X31927612Y-18735000D01*
X31927612Y-18735000D01*
G37*
X31927612Y-18735000D02*
X65868046Y-18735000D01*
X65556171Y-18901565D01*
X65236416Y-19290919D01*
X65090000Y-19773000D01*
X65090000Y-20073000D01*
X66248000Y-20073000D01*
X66248000Y-20053000D01*
X66502000Y-20053000D01*
X66502000Y-20073000D01*
X67660000Y-20073000D01*
X67660000Y-19773000D01*
X67513584Y-19290919D01*
X67193829Y-18901565D01*
X66881954Y-18735000D01*
X73118046Y-18735000D01*
X72806171Y-18901565D01*
X72486416Y-19290919D01*
X72340000Y-19773000D01*
X72340000Y-20073000D01*
X73498000Y-20073000D01*
X73498000Y-20053000D01*
X73752000Y-20053000D01*
X73752000Y-20073000D01*
X74910000Y-20073000D01*
X74910000Y-19773000D01*
X74763584Y-19290919D01*
X74443829Y-18901565D01*
X74131954Y-18735000D01*
X96225553Y-18735000D01*
X94995554Y-19965000D01*
X94914017Y-19965000D01*
X94570365Y-20107345D01*
X94307345Y-20370365D01*
X94165000Y-20714017D01*
X94165000Y-21085983D01*
X94307345Y-21429635D01*
X94570365Y-21692655D01*
X94914017Y-21835000D01*
X95285983Y-21835000D01*
X95629635Y-21692655D01*
X95892655Y-21429635D01*
X96035000Y-21085983D01*
X96035000Y-21004446D01*
X97604447Y-19435000D01*
X99825553Y-19435000D01*
X95555720Y-23704834D01*
X95494350Y-23745840D01*
X95331901Y-23988962D01*
X95303240Y-24133050D01*
X95131463Y-24304827D01*
X95070096Y-24345831D01*
X94907646Y-24588953D01*
X94887506Y-24690204D01*
X94807345Y-24770365D01*
X94665000Y-25114017D01*
X94665000Y-25365000D01*
X91889508Y-25365000D01*
X88940185Y-22415678D01*
X88933131Y-22380213D01*
X89761392Y-22380213D01*
X89830857Y-22622397D01*
X90354302Y-22809144D01*
X90909368Y-22781362D01*
X91293143Y-22622397D01*
X91362608Y-22380213D01*
X90562000Y-21579605D01*
X89761392Y-22380213D01*
X88933131Y-22380213D01*
X88892354Y-22175218D01*
X88729905Y-21932096D01*
X88486783Y-21769647D01*
X88272388Y-21727001D01*
X88200000Y-21712602D01*
X88162464Y-21720069D01*
X88022000Y-21579605D01*
X88007858Y-21593748D01*
X87828253Y-21414143D01*
X87842395Y-21400000D01*
X88201605Y-21400000D01*
X89002213Y-22200608D01*
X89244397Y-22131143D01*
X89288453Y-22007656D01*
X89339603Y-22131143D01*
X89581787Y-22200608D01*
X90382395Y-21400000D01*
X90741605Y-21400000D01*
X91542213Y-22200608D01*
X91784397Y-22131143D01*
X91971144Y-21607698D01*
X91943362Y-21052632D01*
X91784397Y-20668857D01*
X91542213Y-20599392D01*
X90741605Y-21400000D01*
X90382395Y-21400000D01*
X89581787Y-20599392D01*
X89339603Y-20668857D01*
X89295547Y-20792344D01*
X89244397Y-20668857D01*
X89002213Y-20599392D01*
X88201605Y-21400000D01*
X87842395Y-21400000D01*
X87041787Y-20599392D01*
X86799603Y-20668857D01*
X86612856Y-21192302D01*
X86640638Y-21747368D01*
X86799603Y-22131143D01*
X86832090Y-22140461D01*
X85831462Y-23141090D01*
X85770095Y-23182094D01*
X85729091Y-23243461D01*
X85729090Y-23243462D01*
X85607645Y-23425217D01*
X85550601Y-23711999D01*
X85565000Y-23784388D01*
X85564999Y-30427615D01*
X85550601Y-30499999D01*
X85564999Y-30572383D01*
X85564999Y-30572386D01*
X85607645Y-30786781D01*
X85770094Y-31029904D01*
X85831464Y-31070910D01*
X88165000Y-33404447D01*
X88165000Y-33485983D01*
X88307345Y-33829635D01*
X88375328Y-33897618D01*
X88375328Y-34257840D01*
X88517673Y-34601492D01*
X88597834Y-34681653D01*
X88617974Y-34782904D01*
X88780424Y-35026026D01*
X88841791Y-35067030D01*
X89378965Y-35604205D01*
X89378966Y-37529578D01*
X89364567Y-37601967D01*
X89421611Y-37888749D01*
X89528939Y-38049376D01*
X89584061Y-38131872D01*
X89645428Y-38172876D01*
X90177105Y-38704553D01*
X90170365Y-38707345D01*
X89907345Y-38970365D01*
X89765000Y-39314017D01*
X89765000Y-39685983D01*
X89907345Y-40029635D01*
X90170365Y-40292655D01*
X90514017Y-40435000D01*
X90595554Y-40435000D01*
X92965013Y-42804460D01*
X92965013Y-43359360D01*
X92704979Y-43359360D01*
X92361327Y-43501705D01*
X92098307Y-43764725D01*
X91955962Y-44108377D01*
X91955962Y-44480343D01*
X92009040Y-44608484D01*
X91770367Y-44707345D01*
X91712712Y-44765000D01*
X91172383Y-44765000D01*
X91099999Y-44750602D01*
X91027615Y-44765000D01*
X91027612Y-44765000D01*
X90813217Y-44807646D01*
X90570095Y-44970095D01*
X90529090Y-45031463D01*
X89295554Y-46265000D01*
X88322510Y-46265000D01*
X88322510Y-46014017D01*
X88180165Y-45670365D01*
X87917145Y-45407345D01*
X87573493Y-45265000D01*
X87201527Y-45265000D01*
X86960105Y-45365000D01*
X85745868Y-45365000D01*
X84992656Y-44611788D01*
X84892655Y-44370365D01*
X84629635Y-44107345D01*
X84285983Y-43965000D01*
X83914017Y-43965000D01*
X83570365Y-44107345D01*
X83461031Y-44216679D01*
X83429906Y-44170096D01*
X83186784Y-44007647D01*
X82972389Y-43965001D01*
X82972385Y-43965001D01*
X82900001Y-43950603D01*
X82827617Y-43965001D01*
X65804448Y-43965001D01*
X63444563Y-41605116D01*
X63591337Y-41544320D01*
X63984320Y-41151337D01*
X64197000Y-40637881D01*
X64197000Y-40082119D01*
X63984320Y-39568663D01*
X63591337Y-39175680D01*
X63384487Y-39090000D01*
X63591337Y-39004320D01*
X63984320Y-38611337D01*
X64197000Y-38097881D01*
X64197000Y-37542119D01*
X64031710Y-37143071D01*
X68448634Y-37143071D01*
X68464992Y-37225308D01*
X68464991Y-38003749D01*
X68448634Y-38085983D01*
X68464991Y-38168216D01*
X68464991Y-38168219D01*
X68513439Y-38411783D01*
X68697990Y-38687984D01*
X68767711Y-38734570D01*
X68965421Y-38932280D01*
X69012007Y-39002001D01*
X69288207Y-39186552D01*
X69531771Y-39235000D01*
X69531774Y-39235000D01*
X69614007Y-39251357D01*
X69696240Y-39235000D01*
X70672595Y-39235000D01*
X70914017Y-39335000D01*
X71285983Y-39335000D01*
X71629635Y-39192655D01*
X71892655Y-38929635D01*
X72035000Y-38585983D01*
X72035000Y-38214017D01*
X71892655Y-37870365D01*
X71769580Y-37747290D01*
X72132284Y-37384587D01*
X72202000Y-37338004D01*
X72249532Y-37266868D01*
X72414017Y-37335000D01*
X72785983Y-37335000D01*
X73129635Y-37192655D01*
X73392655Y-36929635D01*
X73535000Y-36585983D01*
X73535000Y-36504446D01*
X76268537Y-33770909D01*
X76329905Y-33729905D01*
X76492354Y-33486783D01*
X76535000Y-33272388D01*
X76535000Y-33272385D01*
X76549398Y-33200001D01*
X76535000Y-33127617D01*
X76535000Y-31640122D01*
X76618399Y-31723521D01*
X76681721Y-31818289D01*
X77029402Y-32050602D01*
X77057155Y-32069146D01*
X77500009Y-32157235D01*
X77611792Y-32135000D01*
X83411783Y-32135000D01*
X83742855Y-32069146D01*
X84118289Y-31818289D01*
X84369146Y-31442855D01*
X84457235Y-31000000D01*
X84369146Y-30557145D01*
X84118289Y-30181711D01*
X83742855Y-29930854D01*
X83411783Y-29865000D01*
X81902270Y-29865000D01*
X81935000Y-29785983D01*
X81935000Y-29414017D01*
X81792655Y-29070365D01*
X81735000Y-29012710D01*
X81735000Y-28087290D01*
X81792655Y-28029635D01*
X81935000Y-27685983D01*
X81935000Y-27314017D01*
X81792655Y-26970365D01*
X81529635Y-26707345D01*
X81185983Y-26565000D01*
X80814017Y-26565000D01*
X80470365Y-26707345D01*
X80207345Y-26970365D01*
X80065000Y-27314017D01*
X80065000Y-27685983D01*
X80207345Y-28029635D01*
X80265000Y-28087290D01*
X80265001Y-29012709D01*
X80207345Y-29070365D01*
X80065000Y-29414017D01*
X80065000Y-29785983D01*
X80097730Y-29865000D01*
X77970142Y-29865000D01*
X77323533Y-29218392D01*
X77042864Y-29030854D01*
X76600010Y-28942765D01*
X76535000Y-28955696D01*
X76535000Y-21687290D01*
X76592655Y-21629635D01*
X76735000Y-21285983D01*
X76735000Y-20914017D01*
X76592655Y-20570365D01*
X76442077Y-20419787D01*
X87221392Y-20419787D01*
X88022000Y-21220395D01*
X88822608Y-20419787D01*
X89761392Y-20419787D01*
X90562000Y-21220395D01*
X91362608Y-20419787D01*
X91293143Y-20177603D01*
X90769698Y-19990856D01*
X90214632Y-20018638D01*
X89830857Y-20177603D01*
X89761392Y-20419787D01*
X88822608Y-20419787D01*
X88753143Y-20177603D01*
X88229698Y-19990856D01*
X87674632Y-20018638D01*
X87290857Y-20177603D01*
X87221392Y-20419787D01*
X76442077Y-20419787D01*
X76329635Y-20307345D01*
X75985983Y-20165000D01*
X75614017Y-20165000D01*
X75289646Y-20299359D01*
X75085983Y-20214999D01*
X74714017Y-20214999D01*
X74443622Y-20327000D01*
X73752000Y-20327000D01*
X73752000Y-21619067D01*
X73950471Y-21743099D01*
X73999415Y-21735786D01*
X74106839Y-21678413D01*
X74107345Y-21679634D01*
X74165000Y-21737289D01*
X74165001Y-30985502D01*
X72440529Y-32709975D01*
X72434999Y-32709975D01*
X72434999Y-24882236D01*
X72451357Y-24799999D01*
X72432987Y-24707646D01*
X72386551Y-24474198D01*
X72202000Y-24197998D01*
X72181182Y-24184088D01*
X72152940Y-24115907D01*
X72244078Y-24147622D01*
X72754428Y-24118083D01*
X73088729Y-23979611D01*
X73144410Y-23749016D01*
X72425000Y-23029605D01*
X72410858Y-23043748D01*
X72231252Y-22864142D01*
X72245395Y-22850000D01*
X72604605Y-22850000D01*
X73324016Y-23569410D01*
X73554611Y-23513729D01*
X73722622Y-23030922D01*
X73693083Y-22520572D01*
X73554611Y-22186271D01*
X73324016Y-22130590D01*
X72604605Y-22850000D01*
X72245395Y-22850000D01*
X71525984Y-22130590D01*
X71295389Y-22186271D01*
X71127378Y-22669078D01*
X71156917Y-23179428D01*
X71295389Y-23513729D01*
X71525982Y-23569410D01*
X71517385Y-23578007D01*
X71485983Y-23565000D01*
X71114017Y-23565000D01*
X70770365Y-23707345D01*
X70507345Y-23970365D01*
X70365000Y-24314017D01*
X70365000Y-24685983D01*
X70507345Y-25029635D01*
X70764999Y-25287289D01*
X70765000Y-35190416D01*
X70555927Y-35190416D01*
X70342204Y-35278943D01*
X70317646Y-35274058D01*
X70235409Y-35290416D01*
X69991845Y-35338864D01*
X69715645Y-35523415D01*
X69669061Y-35593134D01*
X68767709Y-36494486D01*
X68697991Y-36541070D01*
X68640165Y-36627613D01*
X68513439Y-36817271D01*
X68448634Y-37143071D01*
X64031710Y-37143071D01*
X63984320Y-37028663D01*
X63591337Y-36635680D01*
X63384487Y-36550000D01*
X63591337Y-36464320D01*
X63984320Y-36071337D01*
X64197000Y-35557881D01*
X64197000Y-35002119D01*
X63984320Y-34488663D01*
X63591337Y-34095680D01*
X63384487Y-34010000D01*
X63591337Y-33924320D01*
X63984320Y-33531337D01*
X64197000Y-33017881D01*
X64197000Y-32462119D01*
X63984320Y-31948663D01*
X63591337Y-31555680D01*
X63384487Y-31470000D01*
X63591337Y-31384320D01*
X63984320Y-30991337D01*
X64197000Y-30477881D01*
X64197000Y-29922119D01*
X63984320Y-29408663D01*
X63591337Y-29015680D01*
X63384487Y-28930000D01*
X63591337Y-28844320D01*
X63984320Y-28451337D01*
X64197000Y-27937881D01*
X64197000Y-27382119D01*
X63984320Y-26868663D01*
X63591337Y-26475680D01*
X63384487Y-26390000D01*
X63591337Y-26304320D01*
X63984320Y-25911337D01*
X64197000Y-25397881D01*
X64197000Y-24842119D01*
X63984320Y-24328663D01*
X63591337Y-23935680D01*
X63384487Y-23850000D01*
X63591337Y-23764320D01*
X63606641Y-23749016D01*
X66855590Y-23749016D01*
X66911271Y-23979611D01*
X67394078Y-24147622D01*
X67904428Y-24118083D01*
X68238729Y-23979611D01*
X68294410Y-23749016D01*
X67575000Y-23029605D01*
X66855590Y-23749016D01*
X63606641Y-23749016D01*
X63984320Y-23371337D01*
X64197000Y-22857881D01*
X64197000Y-22669078D01*
X66277378Y-22669078D01*
X66306917Y-23179428D01*
X66445389Y-23513729D01*
X66675984Y-23569410D01*
X67395395Y-22850000D01*
X67754605Y-22850000D01*
X68474016Y-23569410D01*
X68704611Y-23513729D01*
X68872622Y-23030922D01*
X68843083Y-22520572D01*
X68704611Y-22186271D01*
X68474016Y-22130590D01*
X67754605Y-22850000D01*
X67395395Y-22850000D01*
X66675984Y-22130590D01*
X66445389Y-22186271D01*
X66277378Y-22669078D01*
X64197000Y-22669078D01*
X64197000Y-22302119D01*
X64051556Y-21950984D01*
X66855590Y-21950984D01*
X67575000Y-22670395D01*
X68294410Y-21950984D01*
X71705590Y-21950984D01*
X72425000Y-22670395D01*
X73144410Y-21950984D01*
X73088729Y-21720389D01*
X72605922Y-21552378D01*
X72095572Y-21581917D01*
X71761271Y-21720389D01*
X71705590Y-21950984D01*
X68294410Y-21950984D01*
X68238729Y-21720389D01*
X67755922Y-21552378D01*
X67245572Y-21581917D01*
X66911271Y-21720389D01*
X66855590Y-21950984D01*
X64051556Y-21950984D01*
X63984320Y-21788663D01*
X63591337Y-21395680D01*
X63077881Y-21183000D01*
X62522119Y-21183000D01*
X62008663Y-21395680D01*
X61615680Y-21788663D01*
X61403000Y-22302119D01*
X61403000Y-22857881D01*
X61615680Y-23371337D01*
X62008663Y-23764320D01*
X62215513Y-23850000D01*
X62008663Y-23935680D01*
X61615680Y-24328663D01*
X61403000Y-24842119D01*
X61403000Y-25397881D01*
X61615680Y-25911337D01*
X62008663Y-26304320D01*
X62215513Y-26390000D01*
X62008663Y-26475680D01*
X61615680Y-26868663D01*
X61403000Y-27382119D01*
X61403000Y-27937881D01*
X61615680Y-28451337D01*
X62008663Y-28844320D01*
X62215513Y-28930000D01*
X62008663Y-29015680D01*
X61615680Y-29408663D01*
X61403000Y-29922119D01*
X61403000Y-30477881D01*
X61615680Y-30991337D01*
X62008663Y-31384320D01*
X62215513Y-31470000D01*
X62008663Y-31555680D01*
X61615680Y-31948663D01*
X61403000Y-32462119D01*
X61403000Y-33017881D01*
X61615680Y-33531337D01*
X62008663Y-33924320D01*
X62215513Y-34010000D01*
X62008663Y-34095680D01*
X61615680Y-34488663D01*
X61403000Y-35002119D01*
X61403000Y-35557881D01*
X61615680Y-36071337D01*
X62008663Y-36464320D01*
X62215513Y-36550000D01*
X62008663Y-36635680D01*
X61615680Y-37028663D01*
X61403000Y-37542119D01*
X61403000Y-38097881D01*
X61615680Y-38611337D01*
X62008663Y-39004320D01*
X62215513Y-39090000D01*
X62008663Y-39175680D01*
X61615680Y-39568663D01*
X61554884Y-39715437D01*
X49030911Y-27191465D01*
X48989905Y-27130095D01*
X48746783Y-26967646D01*
X48532388Y-26925000D01*
X48532384Y-26925000D01*
X48460000Y-26910602D01*
X48387616Y-26925000D01*
X46007656Y-26925000D01*
X45984320Y-26868663D01*
X45591337Y-26475680D01*
X45384487Y-26390000D01*
X45591337Y-26304320D01*
X45984320Y-25911337D01*
X46197000Y-25397881D01*
X46197000Y-24842119D01*
X45984320Y-24328663D01*
X45591337Y-23935680D01*
X45384487Y-23850000D01*
X45591337Y-23764320D01*
X45984320Y-23371337D01*
X46197000Y-22857881D01*
X46197000Y-22302119D01*
X45984320Y-21788663D01*
X45591337Y-21395680D01*
X45077881Y-21183000D01*
X44522119Y-21183000D01*
X44008663Y-21395680D01*
X43615680Y-21788663D01*
X43403000Y-22302119D01*
X43403000Y-22857881D01*
X43615680Y-23371337D01*
X44008663Y-23764320D01*
X44215513Y-23850000D01*
X44008663Y-23935680D01*
X43615680Y-24328663D01*
X43403000Y-24842119D01*
X43403000Y-25397881D01*
X43615680Y-25911337D01*
X44008663Y-26304320D01*
X44215513Y-26390000D01*
X44008663Y-26475680D01*
X43615680Y-26868663D01*
X43403000Y-27382119D01*
X43403000Y-27937881D01*
X43615680Y-28451337D01*
X44008663Y-28844320D01*
X44215513Y-28930000D01*
X44008663Y-29015680D01*
X43615680Y-29408663D01*
X43403000Y-29922119D01*
X43403000Y-30477881D01*
X43423346Y-30527001D01*
X41206217Y-30527001D01*
X41123980Y-30510643D01*
X41041743Y-30527001D01*
X40798179Y-30575449D01*
X40521979Y-30760000D01*
X40475394Y-30829719D01*
X39981881Y-31323232D01*
X39740458Y-31423233D01*
X39477438Y-31686253D01*
X39335093Y-32029905D01*
X39335093Y-32401871D01*
X39477438Y-32745523D01*
X39740458Y-33008543D01*
X40084110Y-33150888D01*
X40456076Y-33150888D01*
X40799728Y-33008543D01*
X41062748Y-32745523D01*
X41162749Y-32504100D01*
X41469848Y-32197001D01*
X43512815Y-32197001D01*
X43403000Y-32462119D01*
X43403000Y-33017881D01*
X43615680Y-33531337D01*
X44008663Y-33924320D01*
X44215513Y-34010000D01*
X44008663Y-34095680D01*
X43615680Y-34488663D01*
X43403000Y-35002119D01*
X43403000Y-35557881D01*
X43615680Y-36071337D01*
X44008663Y-36464320D01*
X44199647Y-36543428D01*
X44068857Y-36597603D01*
X43999392Y-36839787D01*
X44800000Y-37640395D01*
X45600608Y-36839787D01*
X45531143Y-36597603D01*
X45390607Y-36547465D01*
X45591337Y-36464320D01*
X45935869Y-36119788D01*
X46214017Y-36235000D01*
X46585983Y-36235000D01*
X46929635Y-36092655D01*
X46987290Y-36035000D01*
X47212710Y-36035000D01*
X47270365Y-36092655D01*
X47614017Y-36235000D01*
X47985983Y-36235000D01*
X48329635Y-36092655D01*
X48592655Y-35829635D01*
X48735000Y-35485983D01*
X48735000Y-35114017D01*
X48592655Y-34770365D01*
X48329635Y-34507345D01*
X47985983Y-34365000D01*
X47614017Y-34365000D01*
X47270365Y-34507345D01*
X47212710Y-34565000D01*
X46987290Y-34565000D01*
X46929635Y-34507345D01*
X46585983Y-34365000D01*
X46214017Y-34365000D01*
X45964154Y-34468497D01*
X45591337Y-34095680D01*
X45384487Y-34010000D01*
X45591337Y-33924320D01*
X45984320Y-33531337D01*
X46197000Y-33017881D01*
X46197000Y-32462119D01*
X46087185Y-32197001D01*
X50016134Y-32197001D01*
X55673017Y-37853884D01*
X55481711Y-37981711D01*
X55230854Y-38357146D01*
X55165000Y-38688218D01*
X55165001Y-40988212D01*
X55142765Y-41100000D01*
X55230854Y-41542854D01*
X55260207Y-41586783D01*
X55481712Y-41918289D01*
X55576480Y-41981611D01*
X63518389Y-49923521D01*
X63581711Y-50018289D01*
X63912898Y-50239581D01*
X63957145Y-50269146D01*
X64400000Y-50357235D01*
X64511783Y-50335000D01*
X71411783Y-50335000D01*
X71742855Y-50269146D01*
X72118289Y-50018289D01*
X72369146Y-49642855D01*
X72457235Y-49200000D01*
X72369146Y-48757145D01*
X72118289Y-48381711D01*
X71742855Y-48130854D01*
X71411783Y-48065000D01*
X69798720Y-48065000D01*
X70018289Y-47918289D01*
X70081613Y-47823518D01*
X70281608Y-47623523D01*
X70469146Y-47342854D01*
X70557235Y-46900000D01*
X70469146Y-46457146D01*
X70218288Y-46081712D01*
X69842854Y-45830854D01*
X69400000Y-45742765D01*
X68957146Y-45830854D01*
X68756383Y-45965000D01*
X65388217Y-45965000D01*
X65057145Y-46030854D01*
X64681711Y-46281711D01*
X64430854Y-46657145D01*
X64342765Y-47100000D01*
X64430854Y-47542855D01*
X64597721Y-47792589D01*
X57435000Y-40629869D01*
X57435000Y-39615868D01*
X61951415Y-44132283D01*
X61997999Y-44202001D01*
X62274199Y-44386552D01*
X62517763Y-44435000D01*
X62517766Y-44435000D01*
X62599999Y-44451357D01*
X62682232Y-44435000D01*
X62872595Y-44435000D01*
X63114017Y-44535000D01*
X63485983Y-44535000D01*
X63829635Y-44392655D01*
X63991422Y-44230868D01*
X64929091Y-45168538D01*
X64970096Y-45229906D01*
X65213218Y-45392355D01*
X65427613Y-45435001D01*
X65500001Y-45449400D01*
X65572389Y-45435001D01*
X74337550Y-45435001D01*
X74031464Y-45741088D01*
X73970097Y-45782092D01*
X73929093Y-45843459D01*
X73929092Y-45843460D01*
X73807647Y-46025215D01*
X73750603Y-46311997D01*
X73765002Y-46384386D01*
X73765001Y-49439582D01*
X73750603Y-49511966D01*
X73765001Y-49584350D01*
X73765001Y-49584353D01*
X73807647Y-49798748D01*
X73956360Y-50021313D01*
X73907345Y-50070328D01*
X73785288Y-50365000D01*
X50404447Y-50365000D01*
X40121566Y-40082119D01*
X43403000Y-40082119D01*
X43403000Y-40637881D01*
X43615680Y-41151337D01*
X44008663Y-41544320D01*
X44522119Y-41757000D01*
X45077881Y-41757000D01*
X45591337Y-41544320D01*
X45984320Y-41151337D01*
X46197000Y-40637881D01*
X46197000Y-40082119D01*
X45984320Y-39568663D01*
X45591337Y-39175680D01*
X45400353Y-39096572D01*
X45531143Y-39042397D01*
X45600608Y-38800213D01*
X44800000Y-37999605D01*
X43999392Y-38800213D01*
X44068857Y-39042397D01*
X44209393Y-39092535D01*
X44008663Y-39175680D01*
X43615680Y-39568663D01*
X43403000Y-40082119D01*
X40121566Y-40082119D01*
X37651749Y-37612302D01*
X43390856Y-37612302D01*
X43418638Y-38167368D01*
X43577603Y-38551143D01*
X43819787Y-38620608D01*
X44620395Y-37820000D01*
X44979605Y-37820000D01*
X45780213Y-38620608D01*
X46022397Y-38551143D01*
X46209144Y-38027698D01*
X46181362Y-37472632D01*
X46022397Y-37088857D01*
X45780213Y-37019392D01*
X44979605Y-37820000D01*
X44620395Y-37820000D01*
X43819787Y-37019392D01*
X43577603Y-37088857D01*
X43390856Y-37612302D01*
X37651749Y-37612302D01*
X36135000Y-36095554D01*
X36135000Y-36014017D01*
X35992655Y-35670365D01*
X35729635Y-35407345D01*
X35385983Y-35265000D01*
X35014017Y-35265000D01*
X34670365Y-35407345D01*
X34407345Y-35670365D01*
X34265000Y-36014017D01*
X34265000Y-36385983D01*
X34407345Y-36729635D01*
X34670365Y-36992655D01*
X35014017Y-37135000D01*
X35095554Y-37135000D01*
X48825553Y-50865000D01*
X44869316Y-50865000D01*
X40676941Y-46672626D01*
X40676941Y-46591089D01*
X40534596Y-46247437D01*
X40271576Y-45984417D01*
X39927924Y-45842072D01*
X39555958Y-45842072D01*
X39212306Y-45984417D01*
X38949286Y-46247437D01*
X38806941Y-46591089D01*
X38806941Y-46963055D01*
X38949286Y-47306707D01*
X39212306Y-47569727D01*
X39555958Y-47712072D01*
X39637495Y-47712072D01*
X43190422Y-51265000D01*
X31927612Y-51265000D01*
X31801929Y-51290000D01*
X30710000Y-51290000D01*
X30710000Y-48322119D01*
X34301000Y-48322119D01*
X34301000Y-48877881D01*
X34513680Y-49391337D01*
X34906663Y-49784320D01*
X35420119Y-49997000D01*
X35975881Y-49997000D01*
X36489337Y-49784320D01*
X36882320Y-49391337D01*
X36968000Y-49184487D01*
X37053680Y-49391337D01*
X37446663Y-49784320D01*
X37960119Y-49997000D01*
X38515881Y-49997000D01*
X39029337Y-49784320D01*
X39422320Y-49391337D01*
X39635000Y-48877881D01*
X39635000Y-48322119D01*
X39422320Y-47808663D01*
X39029337Y-47415680D01*
X38515881Y-47203000D01*
X37960119Y-47203000D01*
X37446663Y-47415680D01*
X37053680Y-47808663D01*
X36968000Y-48015513D01*
X36882320Y-47808663D01*
X36489337Y-47415680D01*
X35975881Y-47203000D01*
X35420119Y-47203000D01*
X34906663Y-47415680D01*
X34513680Y-47808663D01*
X34301000Y-48322119D01*
X30710000Y-48322119D01*
X30710000Y-21122119D01*
X34301000Y-21122119D01*
X34301000Y-21677881D01*
X34513680Y-22191337D01*
X34906663Y-22584320D01*
X35420119Y-22797000D01*
X35975881Y-22797000D01*
X36489337Y-22584320D01*
X36882320Y-22191337D01*
X36968000Y-21984487D01*
X37053680Y-22191337D01*
X37446663Y-22584320D01*
X37960119Y-22797000D01*
X38515881Y-22797000D01*
X39029337Y-22584320D01*
X39422320Y-22191337D01*
X39508000Y-21984487D01*
X39593680Y-22191337D01*
X39986663Y-22584320D01*
X40500119Y-22797000D01*
X41055881Y-22797000D01*
X41569337Y-22584320D01*
X41962320Y-22191337D01*
X42175000Y-21677881D01*
X42175000Y-21122119D01*
X41962320Y-20608663D01*
X41680657Y-20327000D01*
X65090000Y-20327000D01*
X65090000Y-20627000D01*
X65236416Y-21109081D01*
X65556171Y-21498435D01*
X66000585Y-21735786D01*
X66049529Y-21743099D01*
X66248000Y-21619067D01*
X66248000Y-20327000D01*
X66502000Y-20327000D01*
X66502000Y-21619067D01*
X66700471Y-21743099D01*
X66749415Y-21735786D01*
X67193829Y-21498435D01*
X67513584Y-21109081D01*
X67660000Y-20627000D01*
X67660000Y-20327000D01*
X72340000Y-20327000D01*
X72340000Y-20627000D01*
X72486416Y-21109081D01*
X72806171Y-21498435D01*
X73250585Y-21735786D01*
X73299529Y-21743099D01*
X73498000Y-21619067D01*
X73498000Y-20327000D01*
X72340000Y-20327000D01*
X67660000Y-20327000D01*
X66502000Y-20327000D01*
X66248000Y-20327000D01*
X65090000Y-20327000D01*
X41680657Y-20327000D01*
X41569337Y-20215680D01*
X41055881Y-20003000D01*
X40500119Y-20003000D01*
X39986663Y-20215680D01*
X39593680Y-20608663D01*
X39508000Y-20815513D01*
X39422320Y-20608663D01*
X39029337Y-20215680D01*
X38515881Y-20003000D01*
X37960119Y-20003000D01*
X37446663Y-20215680D01*
X37053680Y-20608663D01*
X36968000Y-20815513D01*
X36882320Y-20608663D01*
X36489337Y-20215680D01*
X35975881Y-20003000D01*
X35420119Y-20003000D01*
X34906663Y-20215680D01*
X34513680Y-20608663D01*
X34301000Y-21122119D01*
X30710000Y-21122119D01*
X30710000Y-18710000D01*
X31801929Y-18710000D01*
X31927612Y-18735000D01*
G36*
X187265001Y-51265000D02*
X185040146Y-51265000D01*
X185968537Y-50336610D01*
X186029905Y-50295605D01*
X186192354Y-50052483D01*
X186235000Y-49838088D01*
X186249399Y-49765700D01*
X186235000Y-49693312D01*
X186235000Y-27897388D01*
X186249399Y-27825000D01*
X186221747Y-27685983D01*
X186192354Y-27538217D01*
X186029905Y-27295095D01*
X185968538Y-27254091D01*
X182236294Y-23521847D01*
X182413344Y-23256872D01*
X182485000Y-22896635D01*
X182485000Y-22103364D01*
X182413344Y-21743127D01*
X182140385Y-21334615D01*
X181731872Y-21061656D01*
X181250000Y-20965805D01*
X180768127Y-21061656D01*
X180359615Y-21334615D01*
X180250000Y-21498666D01*
X180140385Y-21334615D01*
X179731872Y-21061656D01*
X179250000Y-20965805D01*
X178768127Y-21061656D01*
X178359615Y-21334615D01*
X178240833Y-21512385D01*
X178033474Y-21261920D01*
X177605281Y-21035408D01*
X177567609Y-21031538D01*
X177377000Y-21156269D01*
X177377000Y-22373000D01*
X177397000Y-22373000D01*
X177397000Y-22627000D01*
X177377000Y-22627000D01*
X177377000Y-23843731D01*
X177567609Y-23968462D01*
X177605281Y-23964592D01*
X178033474Y-23738080D01*
X178240833Y-23487615D01*
X178359616Y-23665385D01*
X178768128Y-23938344D01*
X179250000Y-24034195D01*
X179731873Y-23938344D01*
X180140385Y-23665385D01*
X180250000Y-23501334D01*
X180359616Y-23665385D01*
X180542947Y-23787883D01*
X180557646Y-23861782D01*
X180671023Y-24031462D01*
X180720096Y-24104905D01*
X180781463Y-24145909D01*
X184765000Y-28129447D01*
X184765000Y-37825554D01*
X183720911Y-36781465D01*
X183679905Y-36720095D01*
X183436783Y-36557646D01*
X183222388Y-36515000D01*
X183222384Y-36515000D01*
X183150000Y-36500602D01*
X183077616Y-36515000D01*
X182417695Y-36515000D01*
X182413344Y-36493127D01*
X182140385Y-36084615D01*
X181731872Y-35811656D01*
X181250000Y-35715805D01*
X180768127Y-35811656D01*
X180359615Y-36084615D01*
X180250000Y-36248666D01*
X180140385Y-36084615D01*
X179731872Y-35811656D01*
X179250000Y-35715805D01*
X178768127Y-35811656D01*
X178359615Y-36084615D01*
X178250000Y-36248666D01*
X178140385Y-36084615D01*
X177731872Y-35811656D01*
X177250000Y-35715805D01*
X176768127Y-35811656D01*
X176359615Y-36084615D01*
X176250000Y-36248666D01*
X176140385Y-36084615D01*
X175731872Y-35811656D01*
X175250000Y-35715805D01*
X174768127Y-35811656D01*
X174359615Y-36084615D01*
X174328572Y-36131074D01*
X174234586Y-35990414D01*
X173943436Y-35795873D01*
X173600001Y-35727560D01*
X172899999Y-35727560D01*
X172556564Y-35795873D01*
X172265414Y-35990414D01*
X172070873Y-36281564D01*
X172002560Y-36624999D01*
X172002560Y-37875001D01*
X172070873Y-38218436D01*
X172147375Y-38332929D01*
X171935000Y-38120554D01*
X171935000Y-31272440D01*
X172600001Y-31272440D01*
X172943436Y-31204127D01*
X173234586Y-31009586D01*
X173328573Y-30868926D01*
X173359616Y-30915385D01*
X173768128Y-31188344D01*
X174250000Y-31284195D01*
X174731873Y-31188344D01*
X175140385Y-30915385D01*
X175413344Y-30506872D01*
X175485000Y-30146635D01*
X175485000Y-29353364D01*
X175439576Y-29124999D01*
X178002560Y-29124999D01*
X178002560Y-30375001D01*
X178070873Y-30718436D01*
X178265414Y-31009586D01*
X178556564Y-31204127D01*
X178899999Y-31272440D01*
X179600001Y-31272440D01*
X179943436Y-31204127D01*
X180234586Y-31009586D01*
X180328573Y-30868926D01*
X180359616Y-30915385D01*
X180768128Y-31188344D01*
X181250000Y-31284195D01*
X181731873Y-31188344D01*
X182140385Y-30915385D01*
X182413344Y-30506872D01*
X182485000Y-30146635D01*
X182485000Y-29353364D01*
X182413344Y-28993127D01*
X182140385Y-28584615D01*
X181731872Y-28311656D01*
X181250000Y-28215805D01*
X180768127Y-28311656D01*
X180359615Y-28584615D01*
X180328572Y-28631074D01*
X180234586Y-28490414D01*
X179943436Y-28295873D01*
X179600001Y-28227560D01*
X178899999Y-28227560D01*
X178556564Y-28295873D01*
X178265414Y-28490414D01*
X178070873Y-28781564D01*
X178002560Y-29124999D01*
X175439576Y-29124999D01*
X175413344Y-28993127D01*
X175140385Y-28584615D01*
X174731872Y-28311656D01*
X174250000Y-28215805D01*
X173768127Y-28311656D01*
X173359615Y-28584615D01*
X173328572Y-28631074D01*
X173234586Y-28490414D01*
X172943436Y-28295873D01*
X172600001Y-28227560D01*
X172377595Y-28227560D01*
X173468537Y-27136619D01*
X173529905Y-27095614D01*
X173692354Y-26852492D01*
X173735000Y-26638097D01*
X173735000Y-26638094D01*
X173749398Y-26565710D01*
X173735000Y-26493326D01*
X173735000Y-21870154D01*
X174070198Y-21534956D01*
X174002560Y-21874999D01*
X174002560Y-23125001D01*
X174070873Y-23468436D01*
X174265414Y-23759586D01*
X174556564Y-23954127D01*
X174899999Y-24022440D01*
X175600001Y-24022440D01*
X175943436Y-23954127D01*
X176234586Y-23759586D01*
X176346127Y-23592653D01*
X176466526Y-23738080D01*
X176894719Y-23964592D01*
X176932391Y-23968462D01*
X177123000Y-23843731D01*
X177123000Y-22627000D01*
X177103000Y-22627000D01*
X177103000Y-22373000D01*
X177123000Y-22373000D01*
X177123000Y-21156269D01*
X176932391Y-21031538D01*
X176894719Y-21035408D01*
X176466526Y-21261920D01*
X176346127Y-21407347D01*
X176234586Y-21240414D01*
X175943436Y-21045873D01*
X175600001Y-20977560D01*
X174899999Y-20977560D01*
X174559956Y-21045198D01*
X176470155Y-19135000D01*
X177172388Y-19135000D01*
X177386783Y-19092354D01*
X177629905Y-18929905D01*
X177760136Y-18735000D01*
X187265000Y-18735000D01*
X187265001Y-51265000D01*
X187265001Y-51265000D01*
G37*
X187265001Y-51265000D02*
X185040146Y-51265000D01*
X185968537Y-50336610D01*
X186029905Y-50295605D01*
X186192354Y-50052483D01*
X186235000Y-49838088D01*
X186249399Y-49765700D01*
X186235000Y-49693312D01*
X186235000Y-27897388D01*
X186249399Y-27825000D01*
X186221747Y-27685983D01*
X186192354Y-27538217D01*
X186029905Y-27295095D01*
X185968538Y-27254091D01*
X182236294Y-23521847D01*
X182413344Y-23256872D01*
X182485000Y-22896635D01*
X182485000Y-22103364D01*
X182413344Y-21743127D01*
X182140385Y-21334615D01*
X181731872Y-21061656D01*
X181250000Y-20965805D01*
X180768127Y-21061656D01*
X180359615Y-21334615D01*
X180250000Y-21498666D01*
X180140385Y-21334615D01*
X179731872Y-21061656D01*
X179250000Y-20965805D01*
X178768127Y-21061656D01*
X178359615Y-21334615D01*
X178240833Y-21512385D01*
X178033474Y-21261920D01*
X177605281Y-21035408D01*
X177567609Y-21031538D01*
X177377000Y-21156269D01*
X177377000Y-22373000D01*
X177397000Y-22373000D01*
X177397000Y-22627000D01*
X177377000Y-22627000D01*
X177377000Y-23843731D01*
X177567609Y-23968462D01*
X177605281Y-23964592D01*
X178033474Y-23738080D01*
X178240833Y-23487615D01*
X178359616Y-23665385D01*
X178768128Y-23938344D01*
X179250000Y-24034195D01*
X179731873Y-23938344D01*
X180140385Y-23665385D01*
X180250000Y-23501334D01*
X180359616Y-23665385D01*
X180542947Y-23787883D01*
X180557646Y-23861782D01*
X180671023Y-24031462D01*
X180720096Y-24104905D01*
X180781463Y-24145909D01*
X184765000Y-28129447D01*
X184765000Y-37825554D01*
X183720911Y-36781465D01*
X183679905Y-36720095D01*
X183436783Y-36557646D01*
X183222388Y-36515000D01*
X183222384Y-36515000D01*
X183150000Y-36500602D01*
X183077616Y-36515000D01*
X182417695Y-36515000D01*
X182413344Y-36493127D01*
X182140385Y-36084615D01*
X181731872Y-35811656D01*
X181250000Y-35715805D01*
X180768127Y-35811656D01*
X180359615Y-36084615D01*
X180250000Y-36248666D01*
X180140385Y-36084615D01*
X179731872Y-35811656D01*
X179250000Y-35715805D01*
X178768127Y-35811656D01*
X178359615Y-36084615D01*
X178250000Y-36248666D01*
X178140385Y-36084615D01*
X177731872Y-35811656D01*
X177250000Y-35715805D01*
X176768127Y-35811656D01*
X176359615Y-36084615D01*
X176250000Y-36248666D01*
X176140385Y-36084615D01*
X175731872Y-35811656D01*
X175250000Y-35715805D01*
X174768127Y-35811656D01*
X174359615Y-36084615D01*
X174328572Y-36131074D01*
X174234586Y-35990414D01*
X173943436Y-35795873D01*
X173600001Y-35727560D01*
X172899999Y-35727560D01*
X172556564Y-35795873D01*
X172265414Y-35990414D01*
X172070873Y-36281564D01*
X172002560Y-36624999D01*
X172002560Y-37875001D01*
X172070873Y-38218436D01*
X172147375Y-38332929D01*
X171935000Y-38120554D01*
X171935000Y-31272440D01*
X172600001Y-31272440D01*
X172943436Y-31204127D01*
X173234586Y-31009586D01*
X173328573Y-30868926D01*
X173359616Y-30915385D01*
X173768128Y-31188344D01*
X174250000Y-31284195D01*
X174731873Y-31188344D01*
X175140385Y-30915385D01*
X175413344Y-30506872D01*
X175485000Y-30146635D01*
X175485000Y-29353364D01*
X175439576Y-29124999D01*
X178002560Y-29124999D01*
X178002560Y-30375001D01*
X178070873Y-30718436D01*
X178265414Y-31009586D01*
X178556564Y-31204127D01*
X178899999Y-31272440D01*
X179600001Y-31272440D01*
X179943436Y-31204127D01*
X180234586Y-31009586D01*
X180328573Y-30868926D01*
X180359616Y-30915385D01*
X180768128Y-31188344D01*
X181250000Y-31284195D01*
X181731873Y-31188344D01*
X182140385Y-30915385D01*
X182413344Y-30506872D01*
X182485000Y-30146635D01*
X182485000Y-29353364D01*
X182413344Y-28993127D01*
X182140385Y-28584615D01*
X181731872Y-28311656D01*
X181250000Y-28215805D01*
X180768127Y-28311656D01*
X180359615Y-28584615D01*
X180328572Y-28631074D01*
X180234586Y-28490414D01*
X179943436Y-28295873D01*
X179600001Y-28227560D01*
X178899999Y-28227560D01*
X178556564Y-28295873D01*
X178265414Y-28490414D01*
X178070873Y-28781564D01*
X178002560Y-29124999D01*
X175439576Y-29124999D01*
X175413344Y-28993127D01*
X175140385Y-28584615D01*
X174731872Y-28311656D01*
X174250000Y-28215805D01*
X173768127Y-28311656D01*
X173359615Y-28584615D01*
X173328572Y-28631074D01*
X173234586Y-28490414D01*
X172943436Y-28295873D01*
X172600001Y-28227560D01*
X172377595Y-28227560D01*
X173468537Y-27136619D01*
X173529905Y-27095614D01*
X173692354Y-26852492D01*
X173735000Y-26638097D01*
X173735000Y-26638094D01*
X173749398Y-26565710D01*
X173735000Y-26493326D01*
X173735000Y-21870154D01*
X174070198Y-21534956D01*
X174002560Y-21874999D01*
X174002560Y-23125001D01*
X174070873Y-23468436D01*
X174265414Y-23759586D01*
X174556564Y-23954127D01*
X174899999Y-24022440D01*
X175600001Y-24022440D01*
X175943436Y-23954127D01*
X176234586Y-23759586D01*
X176346127Y-23592653D01*
X176466526Y-23738080D01*
X176894719Y-23964592D01*
X176932391Y-23968462D01*
X177123000Y-23843731D01*
X177123000Y-22627000D01*
X177103000Y-22627000D01*
X177103000Y-22373000D01*
X177123000Y-22373000D01*
X177123000Y-21156269D01*
X176932391Y-21031538D01*
X176894719Y-21035408D01*
X176466526Y-21261920D01*
X176346127Y-21407347D01*
X176234586Y-21240414D01*
X175943436Y-21045873D01*
X175600001Y-20977560D01*
X174899999Y-20977560D01*
X174559956Y-21045198D01*
X176470155Y-19135000D01*
X177172388Y-19135000D01*
X177386783Y-19092354D01*
X177629905Y-18929905D01*
X177760136Y-18735000D01*
X187265000Y-18735000D01*
X187265001Y-51265000D01*
G36*
X142065001Y-40704448D02*
X142065000Y-43963616D01*
X142050602Y-44036000D01*
X142065000Y-44108384D01*
X142065000Y-44108387D01*
X142107646Y-44322782D01*
X142270095Y-44565905D01*
X142331465Y-44606911D01*
X142897001Y-45172448D01*
X142897000Y-47392344D01*
X142840663Y-47415680D01*
X142447680Y-47808663D01*
X142368572Y-47999647D01*
X142314397Y-47868857D01*
X142072213Y-47799392D01*
X141271605Y-48600000D01*
X141285748Y-48614143D01*
X141106143Y-48793748D01*
X141092000Y-48779605D01*
X141077858Y-48793748D01*
X140898253Y-48614143D01*
X140912395Y-48600000D01*
X140111787Y-47799392D01*
X139869603Y-47868857D01*
X139682856Y-48392302D01*
X139710638Y-48947368D01*
X139842206Y-49265000D01*
X137135010Y-49265000D01*
X137135010Y-47619787D01*
X140291392Y-47619787D01*
X141092000Y-48420395D01*
X141892608Y-47619787D01*
X141823143Y-47377603D01*
X141299698Y-47190856D01*
X140744632Y-47218638D01*
X140360857Y-47377603D01*
X140291392Y-47619787D01*
X137135010Y-47619787D01*
X137135010Y-36452993D01*
X137149408Y-36380609D01*
X137135010Y-36308225D01*
X137135010Y-36308222D01*
X137092364Y-36093827D01*
X136929915Y-35850705D01*
X136868547Y-35809700D01*
X135890311Y-34831465D01*
X135849305Y-34770095D01*
X135606183Y-34607646D01*
X135391788Y-34565000D01*
X135391784Y-34565000D01*
X135319400Y-34550602D01*
X135247016Y-34565000D01*
X132887290Y-34565000D01*
X132857290Y-34535000D01*
X135895554Y-34535000D01*
X142065001Y-40704448D01*
X142065001Y-40704448D01*
G37*
X142065001Y-40704448D02*
X142065000Y-43963616D01*
X142050602Y-44036000D01*
X142065000Y-44108384D01*
X142065000Y-44108387D01*
X142107646Y-44322782D01*
X142270095Y-44565905D01*
X142331465Y-44606911D01*
X142897001Y-45172448D01*
X142897000Y-47392344D01*
X142840663Y-47415680D01*
X142447680Y-47808663D01*
X142368572Y-47999647D01*
X142314397Y-47868857D01*
X142072213Y-47799392D01*
X141271605Y-48600000D01*
X141285748Y-48614143D01*
X141106143Y-48793748D01*
X141092000Y-48779605D01*
X141077858Y-48793748D01*
X140898253Y-48614143D01*
X140912395Y-48600000D01*
X140111787Y-47799392D01*
X139869603Y-47868857D01*
X139682856Y-48392302D01*
X139710638Y-48947368D01*
X139842206Y-49265000D01*
X137135010Y-49265000D01*
X137135010Y-47619787D01*
X140291392Y-47619787D01*
X141092000Y-48420395D01*
X141892608Y-47619787D01*
X141823143Y-47377603D01*
X141299698Y-47190856D01*
X140744632Y-47218638D01*
X140360857Y-47377603D01*
X140291392Y-47619787D01*
X137135010Y-47619787D01*
X137135010Y-36452993D01*
X137149408Y-36380609D01*
X137135010Y-36308225D01*
X137135010Y-36308222D01*
X137092364Y-36093827D01*
X136929915Y-35850705D01*
X136868547Y-35809700D01*
X135890311Y-34831465D01*
X135849305Y-34770095D01*
X135606183Y-34607646D01*
X135391788Y-34565000D01*
X135391784Y-34565000D01*
X135319400Y-34550602D01*
X135247016Y-34565000D01*
X132887290Y-34565000D01*
X132857290Y-34535000D01*
X135895554Y-34535000D01*
X142065001Y-40704448D01*
G36*
X153929375Y-39860625D02*
X154420582Y-40188839D01*
X154853744Y-40275000D01*
X155146256Y-40275000D01*
X155395897Y-40225343D01*
X156864998Y-41694445D01*
X156864999Y-45112709D01*
X156807343Y-45170365D01*
X156664998Y-45514017D01*
X156664998Y-45885983D01*
X156780570Y-46165000D01*
X155766810Y-46165000D01*
X156140385Y-45915385D01*
X156413344Y-45506872D01*
X156485000Y-45146635D01*
X156485000Y-44353364D01*
X156413344Y-43993127D01*
X156140385Y-43584615D01*
X155731872Y-43311656D01*
X155250000Y-43215805D01*
X155066710Y-43252264D01*
X154920901Y-43106455D01*
X154879895Y-43045085D01*
X154636773Y-42882636D01*
X154422378Y-42839990D01*
X154422374Y-42839990D01*
X154349990Y-42825592D01*
X154277606Y-42839990D01*
X152769435Y-42839990D01*
X150216885Y-40287440D01*
X150770000Y-40287440D01*
X151017765Y-40238157D01*
X151227809Y-40097809D01*
X151368157Y-39887765D01*
X151377184Y-39842381D01*
X151389375Y-39860625D01*
X151880582Y-40188839D01*
X152313744Y-40275000D01*
X152606256Y-40275000D01*
X153039418Y-40188839D01*
X153530625Y-39860625D01*
X153730000Y-39562239D01*
X153929375Y-39860625D01*
X153929375Y-39860625D01*
G37*
X153929375Y-39860625D02*
X154420582Y-40188839D01*
X154853744Y-40275000D01*
X155146256Y-40275000D01*
X155395897Y-40225343D01*
X156864998Y-41694445D01*
X156864999Y-45112709D01*
X156807343Y-45170365D01*
X156664998Y-45514017D01*
X156664998Y-45885983D01*
X156780570Y-46165000D01*
X155766810Y-46165000D01*
X156140385Y-45915385D01*
X156413344Y-45506872D01*
X156485000Y-45146635D01*
X156485000Y-44353364D01*
X156413344Y-43993127D01*
X156140385Y-43584615D01*
X155731872Y-43311656D01*
X155250000Y-43215805D01*
X155066710Y-43252264D01*
X154920901Y-43106455D01*
X154879895Y-43045085D01*
X154636773Y-42882636D01*
X154422378Y-42839990D01*
X154422374Y-42839990D01*
X154349990Y-42825592D01*
X154277606Y-42839990D01*
X152769435Y-42839990D01*
X150216885Y-40287440D01*
X150770000Y-40287440D01*
X151017765Y-40238157D01*
X151227809Y-40097809D01*
X151368157Y-39887765D01*
X151377184Y-39842381D01*
X151389375Y-39860625D01*
X151880582Y-40188839D01*
X152313744Y-40275000D01*
X152606256Y-40275000D01*
X153039418Y-40188839D01*
X153530625Y-39860625D01*
X153730000Y-39562239D01*
X153929375Y-39860625D01*
G36*
X170564999Y-21028463D02*
X170250000Y-20965805D01*
X169768127Y-21061656D01*
X169359615Y-21334615D01*
X169250000Y-21498666D01*
X169140385Y-21334615D01*
X168731872Y-21061656D01*
X168250000Y-20965805D01*
X167768127Y-21061656D01*
X167359615Y-21334615D01*
X167240833Y-21512385D01*
X167033474Y-21261920D01*
X166605281Y-21035408D01*
X166567609Y-21031538D01*
X166377000Y-21156269D01*
X166377000Y-22373000D01*
X166397000Y-22373000D01*
X166397000Y-22627000D01*
X166377000Y-22627000D01*
X166377000Y-23843731D01*
X166567609Y-23968462D01*
X166605281Y-23964592D01*
X167033474Y-23738080D01*
X167240833Y-23487615D01*
X167359616Y-23665385D01*
X167768128Y-23938344D01*
X168250000Y-24034195D01*
X168731873Y-23938344D01*
X169140385Y-23665385D01*
X169250000Y-23501334D01*
X169359616Y-23665385D01*
X169768128Y-23938344D01*
X170250000Y-24034195D01*
X170565000Y-23971537D01*
X170565000Y-26029853D01*
X169431464Y-27163390D01*
X169370094Y-27204396D01*
X169207645Y-27447519D01*
X169164999Y-27661914D01*
X169164999Y-27661917D01*
X169150601Y-27734301D01*
X169164999Y-27806685D01*
X169165000Y-36121453D01*
X169140385Y-36084615D01*
X168731872Y-35811656D01*
X168250000Y-35715805D01*
X167768127Y-35811656D01*
X167359615Y-36084615D01*
X167328572Y-36131074D01*
X167234586Y-35990414D01*
X166943436Y-35795873D01*
X166600001Y-35727560D01*
X165899999Y-35727560D01*
X165556564Y-35795873D01*
X165265414Y-35990414D01*
X165070873Y-36281564D01*
X165002560Y-36624999D01*
X165002560Y-37875001D01*
X165070873Y-38218436D01*
X165265414Y-38509586D01*
X165556564Y-38704127D01*
X165899999Y-38772440D01*
X166600001Y-38772440D01*
X166943436Y-38704127D01*
X167234586Y-38509586D01*
X167328573Y-38368926D01*
X167359616Y-38415385D01*
X167768128Y-38688344D01*
X168250000Y-38784195D01*
X168731873Y-38688344D01*
X169140385Y-38415385D01*
X169165000Y-38378546D01*
X169165000Y-43052610D01*
X169150601Y-43124999D01*
X169173476Y-43240000D01*
X169122998Y-43240000D01*
X169122998Y-43406268D01*
X168932391Y-43281538D01*
X168894719Y-43285408D01*
X168466526Y-43511920D01*
X168346127Y-43657347D01*
X168234586Y-43490414D01*
X167943436Y-43295873D01*
X167600001Y-43227560D01*
X166899999Y-43227560D01*
X166556564Y-43295873D01*
X166265414Y-43490414D01*
X166070873Y-43781564D01*
X166002560Y-44124999D01*
X166002560Y-45375001D01*
X166070873Y-45718436D01*
X166265414Y-46009586D01*
X166498007Y-46165000D01*
X162766810Y-46165000D01*
X163140385Y-45915385D01*
X163413344Y-45506872D01*
X163485000Y-45146635D01*
X163485000Y-44353364D01*
X163413344Y-43993127D01*
X163140385Y-43584615D01*
X162731872Y-43311656D01*
X162250000Y-43215805D01*
X161768127Y-43311656D01*
X161359615Y-43584615D01*
X161328572Y-43631074D01*
X161234586Y-43490414D01*
X160943436Y-43295873D01*
X160600001Y-43227560D01*
X159899999Y-43227560D01*
X159556564Y-43295873D01*
X159265414Y-43490414D01*
X159070873Y-43781564D01*
X159002560Y-44124999D01*
X159002560Y-45375001D01*
X159070873Y-45718436D01*
X159265414Y-46009586D01*
X159498007Y-46165000D01*
X158419426Y-46165000D01*
X158534998Y-45885983D01*
X158534998Y-45514017D01*
X158392653Y-45170365D01*
X158334998Y-45112710D01*
X158334998Y-41462381D01*
X158349396Y-41389997D01*
X158334998Y-41317611D01*
X158334998Y-41317610D01*
X158292352Y-41103215D01*
X158129903Y-40860093D01*
X158068536Y-40819089D01*
X156435343Y-39185897D01*
X156514092Y-38790000D01*
X156398839Y-38210582D01*
X156070625Y-37719375D01*
X155770214Y-37518647D01*
X156195183Y-37131358D01*
X156432982Y-36624999D01*
X158002560Y-36624999D01*
X158002560Y-37875001D01*
X158070873Y-38218436D01*
X158265414Y-38509586D01*
X158556564Y-38704127D01*
X158899999Y-38772440D01*
X159600001Y-38772440D01*
X159943436Y-38704127D01*
X160234586Y-38509586D01*
X160328573Y-38368926D01*
X160359616Y-38415385D01*
X160768128Y-38688344D01*
X161250000Y-38784195D01*
X161731873Y-38688344D01*
X162140385Y-38415385D01*
X162413344Y-38006872D01*
X162485000Y-37646635D01*
X162485000Y-36853364D01*
X162413344Y-36493127D01*
X162140385Y-36084615D01*
X161731872Y-35811656D01*
X161250000Y-35715805D01*
X160768127Y-35811656D01*
X160359615Y-36084615D01*
X160328572Y-36131074D01*
X160234586Y-35990414D01*
X159943436Y-35795873D01*
X159600001Y-35727560D01*
X158899999Y-35727560D01*
X158556564Y-35795873D01*
X158265414Y-35990414D01*
X158070873Y-36281564D01*
X158002560Y-36624999D01*
X156432982Y-36624999D01*
X156441486Y-36606892D01*
X156320819Y-36377000D01*
X155127000Y-36377000D01*
X155127000Y-36397000D01*
X154873000Y-36397000D01*
X154873000Y-36377000D01*
X154853000Y-36377000D01*
X154853000Y-36123000D01*
X154873000Y-36123000D01*
X154873000Y-34929845D01*
X155127000Y-34929845D01*
X155127000Y-36123000D01*
X156320819Y-36123000D01*
X156441486Y-35893108D01*
X156195183Y-35368642D01*
X155766924Y-34978355D01*
X155356890Y-34808524D01*
X155127000Y-34929845D01*
X154873000Y-34929845D01*
X154643110Y-34808524D01*
X154233076Y-34978355D01*
X153804817Y-35368642D01*
X153743843Y-35498478D01*
X153530625Y-35179375D01*
X153039418Y-34851161D01*
X152606256Y-34765000D01*
X152313744Y-34765000D01*
X151880582Y-34851161D01*
X151389375Y-35179375D01*
X151190000Y-35477761D01*
X150990625Y-35179375D01*
X150499418Y-34851161D01*
X150066256Y-34765000D01*
X149773744Y-34765000D01*
X149340582Y-34851161D01*
X148849375Y-35179375D01*
X148521161Y-35670582D01*
X148405908Y-36250000D01*
X148521161Y-36829418D01*
X148827835Y-37288388D01*
X147142206Y-35602760D01*
X147418288Y-35418288D01*
X147669145Y-35042854D01*
X147757235Y-34599999D01*
X147669145Y-34157145D01*
X147481608Y-33876476D01*
X144881613Y-31276482D01*
X144818289Y-31181711D01*
X144442855Y-30930854D01*
X144212330Y-30885000D01*
X153182168Y-30885000D01*
X153265414Y-31009586D01*
X153556564Y-31204127D01*
X153899999Y-31272440D01*
X154600001Y-31272440D01*
X154943436Y-31204127D01*
X155234586Y-31009586D01*
X155346127Y-30842653D01*
X155466526Y-30988080D01*
X155894719Y-31214592D01*
X155932391Y-31218462D01*
X156123000Y-31093731D01*
X156123000Y-29877000D01*
X156377000Y-29877000D01*
X156377000Y-31093731D01*
X156567609Y-31218462D01*
X156605281Y-31214592D01*
X157033474Y-30988080D01*
X157342390Y-30614947D01*
X157485000Y-30152000D01*
X157485000Y-29877000D01*
X156377000Y-29877000D01*
X156123000Y-29877000D01*
X156103000Y-29877000D01*
X156103000Y-29623000D01*
X156123000Y-29623000D01*
X156123000Y-28406269D01*
X156377000Y-28406269D01*
X156377000Y-29623000D01*
X157485000Y-29623000D01*
X157485000Y-29348000D01*
X157342390Y-28885053D01*
X157033474Y-28511920D01*
X156605281Y-28285408D01*
X156567609Y-28281538D01*
X156377000Y-28406269D01*
X156123000Y-28406269D01*
X155932391Y-28281538D01*
X155894719Y-28285408D01*
X155466526Y-28511920D01*
X155346127Y-28657347D01*
X155234586Y-28490414D01*
X154943436Y-28295873D01*
X154600001Y-28227560D01*
X153899999Y-28227560D01*
X153556564Y-28295873D01*
X153265414Y-28490414D01*
X153182168Y-28615000D01*
X141720132Y-28615000D01*
X141123523Y-28018392D01*
X140842854Y-27830854D01*
X140400000Y-27742765D01*
X139957146Y-27830854D01*
X139581712Y-28081712D01*
X139517403Y-28177957D01*
X138335000Y-26995554D01*
X138335000Y-25835000D01*
X138485983Y-25835000D01*
X138829635Y-25692655D01*
X138887280Y-25635010D01*
X160370564Y-25635010D01*
X163122998Y-28387445D01*
X163122998Y-28406268D01*
X162932391Y-28281538D01*
X162894719Y-28285408D01*
X162466526Y-28511920D01*
X162346127Y-28657347D01*
X162234586Y-28490414D01*
X161943436Y-28295873D01*
X161600001Y-28227560D01*
X160899999Y-28227560D01*
X160556564Y-28295873D01*
X160265414Y-28490414D01*
X160070873Y-28781564D01*
X160002560Y-29124999D01*
X160002560Y-30375001D01*
X160070873Y-30718436D01*
X160265414Y-31009586D01*
X160556564Y-31204127D01*
X160899999Y-31272440D01*
X161600001Y-31272440D01*
X161943436Y-31204127D01*
X162234586Y-31009586D01*
X162346127Y-30842653D01*
X162466526Y-30988080D01*
X162894719Y-31214592D01*
X162932391Y-31218462D01*
X163123000Y-31093731D01*
X163123000Y-29877000D01*
X163103000Y-29877000D01*
X163103000Y-29623000D01*
X163123000Y-29623000D01*
X163123000Y-29603000D01*
X163377000Y-29603000D01*
X163377000Y-29623000D01*
X163397000Y-29623000D01*
X163397000Y-29877000D01*
X163377000Y-29877000D01*
X163377000Y-31093731D01*
X163567609Y-31218462D01*
X163605281Y-31214592D01*
X164033474Y-30988080D01*
X164240833Y-30737615D01*
X164359616Y-30915385D01*
X164768128Y-31188344D01*
X165250000Y-31284195D01*
X165731873Y-31188344D01*
X166140385Y-30915385D01*
X166250000Y-30751334D01*
X166359616Y-30915385D01*
X166768128Y-31188344D01*
X167250000Y-31284195D01*
X167731873Y-31188344D01*
X168140385Y-30915385D01*
X168413344Y-30506872D01*
X168485000Y-30146635D01*
X168485000Y-29353364D01*
X168413344Y-28993127D01*
X168140385Y-28584615D01*
X167731872Y-28311656D01*
X167250000Y-28215805D01*
X167066711Y-28252264D01*
X162845911Y-24031465D01*
X162804905Y-23970095D01*
X162561783Y-23807646D01*
X162347388Y-23765000D01*
X162347384Y-23765000D01*
X162275000Y-23750602D01*
X162202616Y-23765000D01*
X159991301Y-23765000D01*
X160140385Y-23665385D01*
X160413344Y-23256872D01*
X160485000Y-22896635D01*
X160485000Y-22103364D01*
X160439576Y-21874999D01*
X163002560Y-21874999D01*
X163002560Y-23125001D01*
X163070873Y-23468436D01*
X163265414Y-23759586D01*
X163556564Y-23954127D01*
X163899999Y-24022440D01*
X164600001Y-24022440D01*
X164943436Y-23954127D01*
X165234586Y-23759586D01*
X165346127Y-23592653D01*
X165466526Y-23738080D01*
X165894719Y-23964592D01*
X165932391Y-23968462D01*
X166123000Y-23843731D01*
X166123000Y-22627000D01*
X166103000Y-22627000D01*
X166103000Y-22373000D01*
X166123000Y-22373000D01*
X166123000Y-21156269D01*
X165932391Y-21031538D01*
X165894719Y-21035408D01*
X165466526Y-21261920D01*
X165346127Y-21407347D01*
X165234586Y-21240414D01*
X164943436Y-21045873D01*
X164600001Y-20977560D01*
X163899999Y-20977560D01*
X163556564Y-21045873D01*
X163265414Y-21240414D01*
X163070873Y-21531564D01*
X163002560Y-21874999D01*
X160439576Y-21874999D01*
X160413344Y-21743127D01*
X160140385Y-21334615D01*
X159731872Y-21061656D01*
X159250000Y-20965805D01*
X158768127Y-21061656D01*
X158359615Y-21334615D01*
X158240833Y-21512385D01*
X158033474Y-21261920D01*
X157605281Y-21035408D01*
X157567609Y-21031538D01*
X157377000Y-21156269D01*
X157377000Y-22373000D01*
X157397000Y-22373000D01*
X157397000Y-22627000D01*
X157377000Y-22627000D01*
X157377000Y-22647000D01*
X157123000Y-22647000D01*
X157123000Y-22627000D01*
X157103000Y-22627000D01*
X157103000Y-22373000D01*
X157123000Y-22373000D01*
X157123000Y-21156269D01*
X156932391Y-21031538D01*
X156894719Y-21035408D01*
X156466526Y-21261920D01*
X156346127Y-21407347D01*
X156234586Y-21240414D01*
X155943436Y-21045873D01*
X155600001Y-20977560D01*
X154899999Y-20977560D01*
X154556564Y-21045873D01*
X154265414Y-21240414D01*
X154070873Y-21531564D01*
X154002560Y-21874999D01*
X154002560Y-22940010D01*
X150879457Y-22940010D01*
X149970911Y-22031465D01*
X149929905Y-21970095D01*
X149686783Y-21807646D01*
X149472388Y-21765000D01*
X149472384Y-21765000D01*
X149400000Y-21750602D01*
X149327616Y-21765000D01*
X147532914Y-21765000D01*
X147569000Y-21677881D01*
X147569000Y-21122119D01*
X147356320Y-20608663D01*
X147082688Y-20335031D01*
X170564999Y-20335031D01*
X170564999Y-21028463D01*
X170564999Y-21028463D01*
G37*
X170564999Y-21028463D02*
X170250000Y-20965805D01*
X169768127Y-21061656D01*
X169359615Y-21334615D01*
X169250000Y-21498666D01*
X169140385Y-21334615D01*
X168731872Y-21061656D01*
X168250000Y-20965805D01*
X167768127Y-21061656D01*
X167359615Y-21334615D01*
X167240833Y-21512385D01*
X167033474Y-21261920D01*
X166605281Y-21035408D01*
X166567609Y-21031538D01*
X166377000Y-21156269D01*
X166377000Y-22373000D01*
X166397000Y-22373000D01*
X166397000Y-22627000D01*
X166377000Y-22627000D01*
X166377000Y-23843731D01*
X166567609Y-23968462D01*
X166605281Y-23964592D01*
X167033474Y-23738080D01*
X167240833Y-23487615D01*
X167359616Y-23665385D01*
X167768128Y-23938344D01*
X168250000Y-24034195D01*
X168731873Y-23938344D01*
X169140385Y-23665385D01*
X169250000Y-23501334D01*
X169359616Y-23665385D01*
X169768128Y-23938344D01*
X170250000Y-24034195D01*
X170565000Y-23971537D01*
X170565000Y-26029853D01*
X169431464Y-27163390D01*
X169370094Y-27204396D01*
X169207645Y-27447519D01*
X169164999Y-27661914D01*
X169164999Y-27661917D01*
X169150601Y-27734301D01*
X169164999Y-27806685D01*
X169165000Y-36121453D01*
X169140385Y-36084615D01*
X168731872Y-35811656D01*
X168250000Y-35715805D01*
X167768127Y-35811656D01*
X167359615Y-36084615D01*
X167328572Y-36131074D01*
X167234586Y-35990414D01*
X166943436Y-35795873D01*
X166600001Y-35727560D01*
X165899999Y-35727560D01*
X165556564Y-35795873D01*
X165265414Y-35990414D01*
X165070873Y-36281564D01*
X165002560Y-36624999D01*
X165002560Y-37875001D01*
X165070873Y-38218436D01*
X165265414Y-38509586D01*
X165556564Y-38704127D01*
X165899999Y-38772440D01*
X166600001Y-38772440D01*
X166943436Y-38704127D01*
X167234586Y-38509586D01*
X167328573Y-38368926D01*
X167359616Y-38415385D01*
X167768128Y-38688344D01*
X168250000Y-38784195D01*
X168731873Y-38688344D01*
X169140385Y-38415385D01*
X169165000Y-38378546D01*
X169165000Y-43052610D01*
X169150601Y-43124999D01*
X169173476Y-43240000D01*
X169122998Y-43240000D01*
X169122998Y-43406268D01*
X168932391Y-43281538D01*
X168894719Y-43285408D01*
X168466526Y-43511920D01*
X168346127Y-43657347D01*
X168234586Y-43490414D01*
X167943436Y-43295873D01*
X167600001Y-43227560D01*
X166899999Y-43227560D01*
X166556564Y-43295873D01*
X166265414Y-43490414D01*
X166070873Y-43781564D01*
X166002560Y-44124999D01*
X166002560Y-45375001D01*
X166070873Y-45718436D01*
X166265414Y-46009586D01*
X166498007Y-46165000D01*
X162766810Y-46165000D01*
X163140385Y-45915385D01*
X163413344Y-45506872D01*
X163485000Y-45146635D01*
X163485000Y-44353364D01*
X163413344Y-43993127D01*
X163140385Y-43584615D01*
X162731872Y-43311656D01*
X162250000Y-43215805D01*
X161768127Y-43311656D01*
X161359615Y-43584615D01*
X161328572Y-43631074D01*
X161234586Y-43490414D01*
X160943436Y-43295873D01*
X160600001Y-43227560D01*
X159899999Y-43227560D01*
X159556564Y-43295873D01*
X159265414Y-43490414D01*
X159070873Y-43781564D01*
X159002560Y-44124999D01*
X159002560Y-45375001D01*
X159070873Y-45718436D01*
X159265414Y-46009586D01*
X159498007Y-46165000D01*
X158419426Y-46165000D01*
X158534998Y-45885983D01*
X158534998Y-45514017D01*
X158392653Y-45170365D01*
X158334998Y-45112710D01*
X158334998Y-41462381D01*
X158349396Y-41389997D01*
X158334998Y-41317611D01*
X158334998Y-41317610D01*
X158292352Y-41103215D01*
X158129903Y-40860093D01*
X158068536Y-40819089D01*
X156435343Y-39185897D01*
X156514092Y-38790000D01*
X156398839Y-38210582D01*
X156070625Y-37719375D01*
X155770214Y-37518647D01*
X156195183Y-37131358D01*
X156432982Y-36624999D01*
X158002560Y-36624999D01*
X158002560Y-37875001D01*
X158070873Y-38218436D01*
X158265414Y-38509586D01*
X158556564Y-38704127D01*
X158899999Y-38772440D01*
X159600001Y-38772440D01*
X159943436Y-38704127D01*
X160234586Y-38509586D01*
X160328573Y-38368926D01*
X160359616Y-38415385D01*
X160768128Y-38688344D01*
X161250000Y-38784195D01*
X161731873Y-38688344D01*
X162140385Y-38415385D01*
X162413344Y-38006872D01*
X162485000Y-37646635D01*
X162485000Y-36853364D01*
X162413344Y-36493127D01*
X162140385Y-36084615D01*
X161731872Y-35811656D01*
X161250000Y-35715805D01*
X160768127Y-35811656D01*
X160359615Y-36084615D01*
X160328572Y-36131074D01*
X160234586Y-35990414D01*
X159943436Y-35795873D01*
X159600001Y-35727560D01*
X158899999Y-35727560D01*
X158556564Y-35795873D01*
X158265414Y-35990414D01*
X158070873Y-36281564D01*
X158002560Y-36624999D01*
X156432982Y-36624999D01*
X156441486Y-36606892D01*
X156320819Y-36377000D01*
X155127000Y-36377000D01*
X155127000Y-36397000D01*
X154873000Y-36397000D01*
X154873000Y-36377000D01*
X154853000Y-36377000D01*
X154853000Y-36123000D01*
X154873000Y-36123000D01*
X154873000Y-34929845D01*
X155127000Y-34929845D01*
X155127000Y-36123000D01*
X156320819Y-36123000D01*
X156441486Y-35893108D01*
X156195183Y-35368642D01*
X155766924Y-34978355D01*
X155356890Y-34808524D01*
X155127000Y-34929845D01*
X154873000Y-34929845D01*
X154643110Y-34808524D01*
X154233076Y-34978355D01*
X153804817Y-35368642D01*
X153743843Y-35498478D01*
X153530625Y-35179375D01*
X153039418Y-34851161D01*
X152606256Y-34765000D01*
X152313744Y-34765000D01*
X151880582Y-34851161D01*
X151389375Y-35179375D01*
X151190000Y-35477761D01*
X150990625Y-35179375D01*
X150499418Y-34851161D01*
X150066256Y-34765000D01*
X149773744Y-34765000D01*
X149340582Y-34851161D01*
X148849375Y-35179375D01*
X148521161Y-35670582D01*
X148405908Y-36250000D01*
X148521161Y-36829418D01*
X148827835Y-37288388D01*
X147142206Y-35602760D01*
X147418288Y-35418288D01*
X147669145Y-35042854D01*
X147757235Y-34599999D01*
X147669145Y-34157145D01*
X147481608Y-33876476D01*
X144881613Y-31276482D01*
X144818289Y-31181711D01*
X144442855Y-30930854D01*
X144212330Y-30885000D01*
X153182168Y-30885000D01*
X153265414Y-31009586D01*
X153556564Y-31204127D01*
X153899999Y-31272440D01*
X154600001Y-31272440D01*
X154943436Y-31204127D01*
X155234586Y-31009586D01*
X155346127Y-30842653D01*
X155466526Y-30988080D01*
X155894719Y-31214592D01*
X155932391Y-31218462D01*
X156123000Y-31093731D01*
X156123000Y-29877000D01*
X156377000Y-29877000D01*
X156377000Y-31093731D01*
X156567609Y-31218462D01*
X156605281Y-31214592D01*
X157033474Y-30988080D01*
X157342390Y-30614947D01*
X157485000Y-30152000D01*
X157485000Y-29877000D01*
X156377000Y-29877000D01*
X156123000Y-29877000D01*
X156103000Y-29877000D01*
X156103000Y-29623000D01*
X156123000Y-29623000D01*
X156123000Y-28406269D01*
X156377000Y-28406269D01*
X156377000Y-29623000D01*
X157485000Y-29623000D01*
X157485000Y-29348000D01*
X157342390Y-28885053D01*
X157033474Y-28511920D01*
X156605281Y-28285408D01*
X156567609Y-28281538D01*
X156377000Y-28406269D01*
X156123000Y-28406269D01*
X155932391Y-28281538D01*
X155894719Y-28285408D01*
X155466526Y-28511920D01*
X155346127Y-28657347D01*
X155234586Y-28490414D01*
X154943436Y-28295873D01*
X154600001Y-28227560D01*
X153899999Y-28227560D01*
X153556564Y-28295873D01*
X153265414Y-28490414D01*
X153182168Y-28615000D01*
X141720132Y-28615000D01*
X141123523Y-28018392D01*
X140842854Y-27830854D01*
X140400000Y-27742765D01*
X139957146Y-27830854D01*
X139581712Y-28081712D01*
X139517403Y-28177957D01*
X138335000Y-26995554D01*
X138335000Y-25835000D01*
X138485983Y-25835000D01*
X138829635Y-25692655D01*
X138887280Y-25635010D01*
X160370564Y-25635010D01*
X163122998Y-28387445D01*
X163122998Y-28406268D01*
X162932391Y-28281538D01*
X162894719Y-28285408D01*
X162466526Y-28511920D01*
X162346127Y-28657347D01*
X162234586Y-28490414D01*
X161943436Y-28295873D01*
X161600001Y-28227560D01*
X160899999Y-28227560D01*
X160556564Y-28295873D01*
X160265414Y-28490414D01*
X160070873Y-28781564D01*
X160002560Y-29124999D01*
X160002560Y-30375001D01*
X160070873Y-30718436D01*
X160265414Y-31009586D01*
X160556564Y-31204127D01*
X160899999Y-31272440D01*
X161600001Y-31272440D01*
X161943436Y-31204127D01*
X162234586Y-31009586D01*
X162346127Y-30842653D01*
X162466526Y-30988080D01*
X162894719Y-31214592D01*
X162932391Y-31218462D01*
X163123000Y-31093731D01*
X163123000Y-29877000D01*
X163103000Y-29877000D01*
X163103000Y-29623000D01*
X163123000Y-29623000D01*
X163123000Y-29603000D01*
X163377000Y-29603000D01*
X163377000Y-29623000D01*
X163397000Y-29623000D01*
X163397000Y-29877000D01*
X163377000Y-29877000D01*
X163377000Y-31093731D01*
X163567609Y-31218462D01*
X163605281Y-31214592D01*
X164033474Y-30988080D01*
X164240833Y-30737615D01*
X164359616Y-30915385D01*
X164768128Y-31188344D01*
X165250000Y-31284195D01*
X165731873Y-31188344D01*
X166140385Y-30915385D01*
X166250000Y-30751334D01*
X166359616Y-30915385D01*
X166768128Y-31188344D01*
X167250000Y-31284195D01*
X167731873Y-31188344D01*
X168140385Y-30915385D01*
X168413344Y-30506872D01*
X168485000Y-30146635D01*
X168485000Y-29353364D01*
X168413344Y-28993127D01*
X168140385Y-28584615D01*
X167731872Y-28311656D01*
X167250000Y-28215805D01*
X167066711Y-28252264D01*
X162845911Y-24031465D01*
X162804905Y-23970095D01*
X162561783Y-23807646D01*
X162347388Y-23765000D01*
X162347384Y-23765000D01*
X162275000Y-23750602D01*
X162202616Y-23765000D01*
X159991301Y-23765000D01*
X160140385Y-23665385D01*
X160413344Y-23256872D01*
X160485000Y-22896635D01*
X160485000Y-22103364D01*
X160439576Y-21874999D01*
X163002560Y-21874999D01*
X163002560Y-23125001D01*
X163070873Y-23468436D01*
X163265414Y-23759586D01*
X163556564Y-23954127D01*
X163899999Y-24022440D01*
X164600001Y-24022440D01*
X164943436Y-23954127D01*
X165234586Y-23759586D01*
X165346127Y-23592653D01*
X165466526Y-23738080D01*
X165894719Y-23964592D01*
X165932391Y-23968462D01*
X166123000Y-23843731D01*
X166123000Y-22627000D01*
X166103000Y-22627000D01*
X166103000Y-22373000D01*
X166123000Y-22373000D01*
X166123000Y-21156269D01*
X165932391Y-21031538D01*
X165894719Y-21035408D01*
X165466526Y-21261920D01*
X165346127Y-21407347D01*
X165234586Y-21240414D01*
X164943436Y-21045873D01*
X164600001Y-20977560D01*
X163899999Y-20977560D01*
X163556564Y-21045873D01*
X163265414Y-21240414D01*
X163070873Y-21531564D01*
X163002560Y-21874999D01*
X160439576Y-21874999D01*
X160413344Y-21743127D01*
X160140385Y-21334615D01*
X159731872Y-21061656D01*
X159250000Y-20965805D01*
X158768127Y-21061656D01*
X158359615Y-21334615D01*
X158240833Y-21512385D01*
X158033474Y-21261920D01*
X157605281Y-21035408D01*
X157567609Y-21031538D01*
X157377000Y-21156269D01*
X157377000Y-22373000D01*
X157397000Y-22373000D01*
X157397000Y-22627000D01*
X157377000Y-22627000D01*
X157377000Y-22647000D01*
X157123000Y-22647000D01*
X157123000Y-22627000D01*
X157103000Y-22627000D01*
X157103000Y-22373000D01*
X157123000Y-22373000D01*
X157123000Y-21156269D01*
X156932391Y-21031538D01*
X156894719Y-21035408D01*
X156466526Y-21261920D01*
X156346127Y-21407347D01*
X156234586Y-21240414D01*
X155943436Y-21045873D01*
X155600001Y-20977560D01*
X154899999Y-20977560D01*
X154556564Y-21045873D01*
X154265414Y-21240414D01*
X154070873Y-21531564D01*
X154002560Y-21874999D01*
X154002560Y-22940010D01*
X150879457Y-22940010D01*
X149970911Y-22031465D01*
X149929905Y-21970095D01*
X149686783Y-21807646D01*
X149472388Y-21765000D01*
X149472384Y-21765000D01*
X149400000Y-21750602D01*
X149327616Y-21765000D01*
X147532914Y-21765000D01*
X147569000Y-21677881D01*
X147569000Y-21122119D01*
X147356320Y-20608663D01*
X147082688Y-20335031D01*
X170564999Y-20335031D01*
X170564999Y-21028463D01*
G36*
X154359616Y-45915385D02*
X154733191Y-46165000D01*
X154156641Y-46165000D01*
X153998318Y-46006677D01*
X154033474Y-45988080D01*
X154240833Y-45737615D01*
X154359616Y-45915385D01*
X154359616Y-45915385D01*
G37*
X154359616Y-45915385D02*
X154733191Y-46165000D01*
X154156641Y-46165000D01*
X153998318Y-46006677D01*
X154033474Y-45988080D01*
X154240833Y-45737615D01*
X154359616Y-45915385D01*
G36*
X169377000Y-44623000D02*
X169397000Y-44623000D01*
X169397000Y-44877000D01*
X169377000Y-44877000D01*
X169377000Y-44897000D01*
X169123000Y-44897000D01*
X169123000Y-44877000D01*
X169103000Y-44877000D01*
X169103000Y-44623000D01*
X169123000Y-44623000D01*
X169123000Y-44603000D01*
X169377000Y-44603000D01*
X169377000Y-44623000D01*
X169377000Y-44623000D01*
G37*
X169377000Y-44623000D02*
X169397000Y-44623000D01*
X169397000Y-44877000D01*
X169377000Y-44877000D01*
X169377000Y-44897000D01*
X169123000Y-44897000D01*
X169123000Y-44877000D01*
X169103000Y-44877000D01*
X169103000Y-44623000D01*
X169123000Y-44623000D01*
X169123000Y-44603000D01*
X169377000Y-44603000D01*
X169377000Y-44623000D01*
G36*
X153377000Y-44623000D02*
X153397000Y-44623000D01*
X153397000Y-44877000D01*
X153377000Y-44877000D01*
X153377000Y-44897000D01*
X153123000Y-44897000D01*
X153123000Y-44877000D01*
X153103000Y-44877000D01*
X153103000Y-44623000D01*
X153123000Y-44623000D01*
X153123000Y-44603000D01*
X153377000Y-44603000D01*
X153377000Y-44623000D01*
X153377000Y-44623000D01*
G37*
X153377000Y-44623000D02*
X153397000Y-44623000D01*
X153397000Y-44877000D01*
X153377000Y-44877000D01*
X153377000Y-44897000D01*
X153123000Y-44897000D01*
X153123000Y-44877000D01*
X153103000Y-44877000D01*
X153103000Y-44623000D01*
X153123000Y-44623000D01*
X153123000Y-44603000D01*
X153377000Y-44603000D01*
X153377000Y-44623000D01*
G36*
X111719132Y-29341422D02*
X110895554Y-30165000D01*
X108172384Y-30165000D01*
X108100000Y-30150602D01*
X108027616Y-30165000D01*
X108027612Y-30165000D01*
X107813217Y-30207646D01*
X107570095Y-30370095D01*
X107529091Y-30431462D01*
X107191422Y-30769132D01*
X107029635Y-30607345D01*
X106685983Y-30465000D01*
X106314017Y-30465000D01*
X105970365Y-30607345D01*
X105707345Y-30870365D01*
X105565000Y-31214017D01*
X105565000Y-31295553D01*
X101531463Y-35329091D01*
X101470096Y-35370095D01*
X101307646Y-35613217D01*
X101265000Y-35827612D01*
X101265000Y-35827616D01*
X101250602Y-35900000D01*
X101265000Y-35972384D01*
X101265000Y-36095553D01*
X96831464Y-40529090D01*
X96770094Y-40570096D01*
X96607645Y-40813218D01*
X96599567Y-40853828D01*
X96470365Y-40907345D01*
X96207345Y-41170365D01*
X96203042Y-41180752D01*
X96174869Y-41152579D01*
X100568538Y-36758911D01*
X100629905Y-36717907D01*
X100792354Y-36474785D01*
X100835000Y-36260390D01*
X100835000Y-36260387D01*
X100849398Y-36188003D01*
X100835000Y-36115619D01*
X100835000Y-33404446D01*
X100965010Y-33274437D01*
X100965010Y-33285983D01*
X101107355Y-33629635D01*
X101370375Y-33892655D01*
X101714027Y-34035000D01*
X102085993Y-34035000D01*
X102429645Y-33892655D01*
X102692665Y-33629635D01*
X102835010Y-33285983D01*
X102835010Y-32914017D01*
X102692665Y-32570365D01*
X102635010Y-32512710D01*
X102635010Y-32376948D01*
X102670783Y-32391766D01*
X103042749Y-32391766D01*
X103386401Y-32249421D01*
X103649421Y-31986401D01*
X103791766Y-31642749D01*
X103791766Y-31561212D01*
X106017979Y-29335000D01*
X111712710Y-29335000D01*
X111719132Y-29341422D01*
X111719132Y-29341422D01*
G37*
X111719132Y-29341422D02*
X110895554Y-30165000D01*
X108172384Y-30165000D01*
X108100000Y-30150602D01*
X108027616Y-30165000D01*
X108027612Y-30165000D01*
X107813217Y-30207646D01*
X107570095Y-30370095D01*
X107529091Y-30431462D01*
X107191422Y-30769132D01*
X107029635Y-30607345D01*
X106685983Y-30465000D01*
X106314017Y-30465000D01*
X105970365Y-30607345D01*
X105707345Y-30870365D01*
X105565000Y-31214017D01*
X105565000Y-31295553D01*
X101531463Y-35329091D01*
X101470096Y-35370095D01*
X101307646Y-35613217D01*
X101265000Y-35827612D01*
X101265000Y-35827616D01*
X101250602Y-35900000D01*
X101265000Y-35972384D01*
X101265000Y-36095553D01*
X96831464Y-40529090D01*
X96770094Y-40570096D01*
X96607645Y-40813218D01*
X96599567Y-40853828D01*
X96470365Y-40907345D01*
X96207345Y-41170365D01*
X96203042Y-41180752D01*
X96174869Y-41152579D01*
X100568538Y-36758911D01*
X100629905Y-36717907D01*
X100792354Y-36474785D01*
X100835000Y-36260390D01*
X100835000Y-36260387D01*
X100849398Y-36188003D01*
X100835000Y-36115619D01*
X100835000Y-33404446D01*
X100965010Y-33274437D01*
X100965010Y-33285983D01*
X101107355Y-33629635D01*
X101370375Y-33892655D01*
X101714027Y-34035000D01*
X102085993Y-34035000D01*
X102429645Y-33892655D01*
X102692665Y-33629635D01*
X102835010Y-33285983D01*
X102835010Y-32914017D01*
X102692665Y-32570365D01*
X102635010Y-32512710D01*
X102635010Y-32376948D01*
X102670783Y-32391766D01*
X103042749Y-32391766D01*
X103386401Y-32249421D01*
X103649421Y-31986401D01*
X103791766Y-31642749D01*
X103791766Y-31561212D01*
X106017979Y-29335000D01*
X111712710Y-29335000D01*
X111719132Y-29341422D01*
G36*
X153804817Y-37131358D02*
X154229786Y-37518647D01*
X153929375Y-37719375D01*
X153730000Y-38017761D01*
X153530625Y-37719375D01*
X153232239Y-37520000D01*
X153530625Y-37320625D01*
X153743843Y-37001522D01*
X153804817Y-37131358D01*
X153804817Y-37131358D01*
G37*
X153804817Y-37131358D02*
X154229786Y-37518647D01*
X153929375Y-37719375D01*
X153730000Y-38017761D01*
X153530625Y-37719375D01*
X153232239Y-37520000D01*
X153530625Y-37320625D01*
X153743843Y-37001522D01*
X153804817Y-37131358D01*
G36*
X103884153Y-22804869D02*
X103741808Y-23148521D01*
X103741808Y-23230057D01*
X101431473Y-25540393D01*
X101370106Y-25581397D01*
X101335000Y-25633937D01*
X101335000Y-25172383D01*
X101349398Y-25099999D01*
X101335000Y-25027615D01*
X101335000Y-25027612D01*
X101292354Y-24813217D01*
X101245043Y-24742411D01*
X101245043Y-24624060D01*
X101102698Y-24280408D01*
X100839678Y-24017388D01*
X100790508Y-23997021D01*
X102265595Y-23997021D01*
X102337979Y-24011419D01*
X102410363Y-23997021D01*
X102410367Y-23997021D01*
X102624762Y-23954375D01*
X102867884Y-23791926D01*
X102908890Y-23730556D01*
X103842447Y-22797000D01*
X103892022Y-22797000D01*
X103884153Y-22804869D01*
X103884153Y-22804869D01*
G37*
X103884153Y-22804869D02*
X103741808Y-23148521D01*
X103741808Y-23230057D01*
X101431473Y-25540393D01*
X101370106Y-25581397D01*
X101335000Y-25633937D01*
X101335000Y-25172383D01*
X101349398Y-25099999D01*
X101335000Y-25027615D01*
X101335000Y-25027612D01*
X101292354Y-24813217D01*
X101245043Y-24742411D01*
X101245043Y-24624060D01*
X101102698Y-24280408D01*
X100839678Y-24017388D01*
X100790508Y-23997021D01*
X102265595Y-23997021D01*
X102337979Y-24011419D01*
X102410363Y-23997021D01*
X102410367Y-23997021D01*
X102624762Y-23954375D01*
X102867884Y-23791926D01*
X102908890Y-23730556D01*
X103842447Y-22797000D01*
X103892022Y-22797000D01*
X103884153Y-22804869D01*
G36*
X121761923Y-20335031D02*
X132625512Y-20335031D01*
X130195544Y-22765000D01*
X124304447Y-22765000D01*
X122670911Y-21131465D01*
X122629905Y-21070095D01*
X122386783Y-20907646D01*
X122172388Y-20865000D01*
X122172384Y-20865000D01*
X122100000Y-20850602D01*
X122027616Y-20865000D01*
X118284383Y-20865000D01*
X118211999Y-20850602D01*
X118139615Y-20865000D01*
X118139612Y-20865000D01*
X117925217Y-20907646D01*
X117682095Y-21070095D01*
X117641089Y-21131465D01*
X117404857Y-21367697D01*
X117377242Y-21356259D01*
X117005276Y-21356259D01*
X116661624Y-21498604D01*
X116659788Y-21500440D01*
X116577353Y-21466295D01*
X116205387Y-21466295D01*
X115861735Y-21608640D01*
X115804080Y-21666295D01*
X112273181Y-21666295D01*
X112804447Y-21135030D01*
X112885983Y-21135030D01*
X113229635Y-20992685D01*
X113492655Y-20729665D01*
X113635000Y-20386013D01*
X113635000Y-20335029D01*
X121761923Y-20335031D01*
X121761923Y-20335031D01*
G37*
X121761923Y-20335031D02*
X132625512Y-20335031D01*
X130195544Y-22765000D01*
X124304447Y-22765000D01*
X122670911Y-21131465D01*
X122629905Y-21070095D01*
X122386783Y-20907646D01*
X122172388Y-20865000D01*
X122172384Y-20865000D01*
X122100000Y-20850602D01*
X122027616Y-20865000D01*
X118284383Y-20865000D01*
X118211999Y-20850602D01*
X118139615Y-20865000D01*
X118139612Y-20865000D01*
X117925217Y-20907646D01*
X117682095Y-21070095D01*
X117641089Y-21131465D01*
X117404857Y-21367697D01*
X117377242Y-21356259D01*
X117005276Y-21356259D01*
X116661624Y-21498604D01*
X116659788Y-21500440D01*
X116577353Y-21466295D01*
X116205387Y-21466295D01*
X115861735Y-21608640D01*
X115804080Y-21666295D01*
X112273181Y-21666295D01*
X112804447Y-21135030D01*
X112885983Y-21135030D01*
X113229635Y-20992685D01*
X113492655Y-20729665D01*
X113635000Y-20386013D01*
X113635000Y-20335029D01*
X121761923Y-20335031D01*
G36*
X105405000Y-21555554D02*
X105405000Y-21122119D01*
X105384654Y-21072999D01*
X105887554Y-21072999D01*
X105405000Y-21555554D01*
X105405000Y-21555554D01*
G37*
X105405000Y-21555554D02*
X105405000Y-21122119D01*
X105384654Y-21072999D01*
X105887554Y-21072999D01*
X105405000Y-21555554D01*
M02*
