%TF.GenerationSoftware,KiCad,Pcbnew,(5.0.2)-1*%
%TF.CreationDate,2019-04-29T20:46:59+02:00*%
%TF.ProjectId,TaggerMainboard,54616767-6572-44d6-9169-6e626f617264,rev?*%
%TF.SameCoordinates,Original*%
%TF.FileFunction,Soldermask,Bot*%
%TF.FilePolarity,Negative*%
%FSLAX46Y46*%
G04 Gerber Fmt 4.6, Leading zero omitted, Abs format (unit mm)*
G04 Created by KiCad (PCBNEW (5.0.2)-1) date 29.04.2019 20:46:59*
%MOMM*%
%LPD*%
G01*
G04 APERTURE LIST*
%ADD10C,0.150000*%
%ADD11C,0.200000*%
G04 APERTURE END LIST*
D10*
X30000000Y-52000000D02*
X32000000Y-52000000D01*
X30000000Y-18000000D02*
X30000000Y-52000000D01*
X32000000Y-18000000D02*
X30000000Y-18000000D01*
D11*
X188000000Y-52000000D02*
X186000000Y-52000000D01*
X188000000Y-18000000D02*
X188000000Y-52000000D01*
X186000000Y-18000000D02*
X188000000Y-18000000D01*
X186000000Y-52000000D02*
X32000000Y-52000000D01*
X32000000Y-18000000D02*
X186000000Y-18000000D01*
D10*
G36*
X146409142Y-47818242D02*
X146557102Y-47879530D01*
X146690258Y-47968502D01*
X146803498Y-48081742D01*
X146892470Y-48214898D01*
X146953758Y-48362858D01*
X146985000Y-48519925D01*
X146985000Y-48680075D01*
X146953758Y-48837142D01*
X146892470Y-48985102D01*
X146803498Y-49118258D01*
X146690258Y-49231498D01*
X146557102Y-49320470D01*
X146409142Y-49381758D01*
X146252075Y-49413000D01*
X146091925Y-49413000D01*
X145934858Y-49381758D01*
X145786898Y-49320470D01*
X145653742Y-49231498D01*
X145540502Y-49118258D01*
X145451530Y-48985102D01*
X145390242Y-48837142D01*
X145359000Y-48680075D01*
X145359000Y-48519925D01*
X145390242Y-48362858D01*
X145451530Y-48214898D01*
X145540502Y-48081742D01*
X145653742Y-47968502D01*
X145786898Y-47879530D01*
X145934858Y-47818242D01*
X146091925Y-47787000D01*
X146252075Y-47787000D01*
X146409142Y-47818242D01*
X146409142Y-47818242D01*
G37*
G36*
X143869142Y-47818242D02*
X144017102Y-47879530D01*
X144150258Y-47968502D01*
X144263498Y-48081742D01*
X144352470Y-48214898D01*
X144413758Y-48362858D01*
X144445000Y-48519925D01*
X144445000Y-48680075D01*
X144413758Y-48837142D01*
X144352470Y-48985102D01*
X144263498Y-49118258D01*
X144150258Y-49231498D01*
X144017102Y-49320470D01*
X143869142Y-49381758D01*
X143712075Y-49413000D01*
X143551925Y-49413000D01*
X143394858Y-49381758D01*
X143246898Y-49320470D01*
X143113742Y-49231498D01*
X143000502Y-49118258D01*
X142911530Y-48985102D01*
X142850242Y-48837142D01*
X142819000Y-48680075D01*
X142819000Y-48519925D01*
X142850242Y-48362858D01*
X142911530Y-48214898D01*
X143000502Y-48081742D01*
X143113742Y-47968502D01*
X143246898Y-47879530D01*
X143394858Y-47818242D01*
X143551925Y-47787000D01*
X143712075Y-47787000D01*
X143869142Y-47818242D01*
X143869142Y-47818242D01*
G37*
G36*
X88259142Y-47818242D02*
X88407102Y-47879530D01*
X88540258Y-47968502D01*
X88653498Y-48081742D01*
X88742470Y-48214898D01*
X88803758Y-48362858D01*
X88835000Y-48519925D01*
X88835000Y-48680075D01*
X88803758Y-48837142D01*
X88742470Y-48985102D01*
X88653498Y-49118258D01*
X88540258Y-49231498D01*
X88407102Y-49320470D01*
X88259142Y-49381758D01*
X88102075Y-49413000D01*
X87941925Y-49413000D01*
X87784858Y-49381758D01*
X87636898Y-49320470D01*
X87503742Y-49231498D01*
X87390502Y-49118258D01*
X87301530Y-48985102D01*
X87240242Y-48837142D01*
X87209000Y-48680075D01*
X87209000Y-48519925D01*
X87240242Y-48362858D01*
X87301530Y-48214898D01*
X87390502Y-48081742D01*
X87503742Y-47968502D01*
X87636898Y-47879530D01*
X87784858Y-47818242D01*
X87941925Y-47787000D01*
X88102075Y-47787000D01*
X88259142Y-47818242D01*
X88259142Y-47818242D01*
G37*
G36*
X35935142Y-47818242D02*
X36083102Y-47879530D01*
X36216258Y-47968502D01*
X36329498Y-48081742D01*
X36418470Y-48214898D01*
X36479758Y-48362858D01*
X36511000Y-48519925D01*
X36511000Y-48680075D01*
X36479758Y-48837142D01*
X36418470Y-48985102D01*
X36329498Y-49118258D01*
X36216258Y-49231498D01*
X36083102Y-49320470D01*
X35935142Y-49381758D01*
X35778075Y-49413000D01*
X35617925Y-49413000D01*
X35460858Y-49381758D01*
X35312898Y-49320470D01*
X35179742Y-49231498D01*
X35066502Y-49118258D01*
X34977530Y-48985102D01*
X34916242Y-48837142D01*
X34885000Y-48680075D01*
X34885000Y-48519925D01*
X34916242Y-48362858D01*
X34977530Y-48214898D01*
X35066502Y-48081742D01*
X35179742Y-47968502D01*
X35312898Y-47879530D01*
X35460858Y-47818242D01*
X35617925Y-47787000D01*
X35778075Y-47787000D01*
X35935142Y-47818242D01*
X35935142Y-47818242D01*
G37*
G36*
X90799142Y-47818242D02*
X90947102Y-47879530D01*
X91080258Y-47968502D01*
X91193498Y-48081742D01*
X91282470Y-48214898D01*
X91343758Y-48362858D01*
X91375000Y-48519925D01*
X91375000Y-48680075D01*
X91343758Y-48837142D01*
X91282470Y-48985102D01*
X91193498Y-49118258D01*
X91080258Y-49231498D01*
X90947102Y-49320470D01*
X90799142Y-49381758D01*
X90642075Y-49413000D01*
X90481925Y-49413000D01*
X90324858Y-49381758D01*
X90176898Y-49320470D01*
X90043742Y-49231498D01*
X89930502Y-49118258D01*
X89841530Y-48985102D01*
X89780242Y-48837142D01*
X89749000Y-48680075D01*
X89749000Y-48519925D01*
X89780242Y-48362858D01*
X89841530Y-48214898D01*
X89930502Y-48081742D01*
X90043742Y-47968502D01*
X90176898Y-47879530D01*
X90324858Y-47818242D01*
X90481925Y-47787000D01*
X90642075Y-47787000D01*
X90799142Y-47818242D01*
X90799142Y-47818242D01*
G37*
G36*
X101705142Y-47818242D02*
X101853102Y-47879530D01*
X101986258Y-47968502D01*
X102099498Y-48081742D01*
X102188470Y-48214898D01*
X102249758Y-48362858D01*
X102281000Y-48519925D01*
X102281000Y-48680075D01*
X102249758Y-48837142D01*
X102188470Y-48985102D01*
X102099498Y-49118258D01*
X101986258Y-49231498D01*
X101853102Y-49320470D01*
X101705142Y-49381758D01*
X101548075Y-49413000D01*
X101387925Y-49413000D01*
X101230858Y-49381758D01*
X101082898Y-49320470D01*
X100949742Y-49231498D01*
X100836502Y-49118258D01*
X100747530Y-48985102D01*
X100686242Y-48837142D01*
X100655000Y-48680075D01*
X100655000Y-48519925D01*
X100686242Y-48362858D01*
X100747530Y-48214898D01*
X100836502Y-48081742D01*
X100949742Y-47968502D01*
X101082898Y-47879530D01*
X101230858Y-47818242D01*
X101387925Y-47787000D01*
X101548075Y-47787000D01*
X101705142Y-47818242D01*
X101705142Y-47818242D01*
G37*
G36*
X104245142Y-47818242D02*
X104393102Y-47879530D01*
X104526258Y-47968502D01*
X104639498Y-48081742D01*
X104728470Y-48214898D01*
X104789758Y-48362858D01*
X104821000Y-48519925D01*
X104821000Y-48680075D01*
X104789758Y-48837142D01*
X104728470Y-48985102D01*
X104639498Y-49118258D01*
X104526258Y-49231498D01*
X104393102Y-49320470D01*
X104245142Y-49381758D01*
X104088075Y-49413000D01*
X103927925Y-49413000D01*
X103770858Y-49381758D01*
X103622898Y-49320470D01*
X103489742Y-49231498D01*
X103376502Y-49118258D01*
X103287530Y-48985102D01*
X103226242Y-48837142D01*
X103195000Y-48680075D01*
X103195000Y-48519925D01*
X103226242Y-48362858D01*
X103287530Y-48214898D01*
X103376502Y-48081742D01*
X103489742Y-47968502D01*
X103622898Y-47879530D01*
X103770858Y-47818242D01*
X103927925Y-47787000D01*
X104088075Y-47787000D01*
X104245142Y-47818242D01*
X104245142Y-47818242D01*
G37*
G36*
X141329142Y-47818242D02*
X141477102Y-47879530D01*
X141610258Y-47968502D01*
X141723498Y-48081742D01*
X141812470Y-48214898D01*
X141873758Y-48362858D01*
X141905000Y-48519925D01*
X141905000Y-48680075D01*
X141873758Y-48837142D01*
X141812470Y-48985102D01*
X141723498Y-49118258D01*
X141610258Y-49231498D01*
X141477102Y-49320470D01*
X141329142Y-49381758D01*
X141172075Y-49413000D01*
X141011925Y-49413000D01*
X140854858Y-49381758D01*
X140706898Y-49320470D01*
X140573742Y-49231498D01*
X140460502Y-49118258D01*
X140371530Y-48985102D01*
X140310242Y-48837142D01*
X140279000Y-48680075D01*
X140279000Y-48519925D01*
X140310242Y-48362858D01*
X140371530Y-48214898D01*
X140460502Y-48081742D01*
X140573742Y-47968502D01*
X140706898Y-47879530D01*
X140854858Y-47818242D01*
X141011925Y-47787000D01*
X141172075Y-47787000D01*
X141329142Y-47818242D01*
X141329142Y-47818242D01*
G37*
G36*
X38475142Y-47818242D02*
X38623102Y-47879530D01*
X38756258Y-47968502D01*
X38869498Y-48081742D01*
X38958470Y-48214898D01*
X39019758Y-48362858D01*
X39051000Y-48519925D01*
X39051000Y-48680075D01*
X39019758Y-48837142D01*
X38958470Y-48985102D01*
X38869498Y-49118258D01*
X38756258Y-49231498D01*
X38623102Y-49320470D01*
X38475142Y-49381758D01*
X38318075Y-49413000D01*
X38157925Y-49413000D01*
X38000858Y-49381758D01*
X37852898Y-49320470D01*
X37719742Y-49231498D01*
X37606502Y-49118258D01*
X37517530Y-48985102D01*
X37456242Y-48837142D01*
X37425000Y-48680075D01*
X37425000Y-48519925D01*
X37456242Y-48362858D01*
X37517530Y-48214898D01*
X37606502Y-48081742D01*
X37719742Y-47968502D01*
X37852898Y-47879530D01*
X38000858Y-47818242D01*
X38157925Y-47787000D01*
X38318075Y-47787000D01*
X38475142Y-47818242D01*
X38475142Y-47818242D01*
G37*
G36*
X171377617Y-43833420D02*
X171459426Y-43858237D01*
X171500332Y-43870645D01*
X171522544Y-43882518D01*
X171613425Y-43931095D01*
X171613427Y-43931096D01*
X171613426Y-43931096D01*
X171686965Y-43991447D01*
X171712553Y-44012447D01*
X171793905Y-44111574D01*
X171793906Y-44111576D01*
X171854355Y-44224667D01*
X171866763Y-44265573D01*
X171891580Y-44347382D01*
X171901000Y-44443027D01*
X171901000Y-45056973D01*
X171891580Y-45152618D01*
X171866763Y-45234427D01*
X171854355Y-45275333D01*
X171800819Y-45375491D01*
X171793905Y-45388426D01*
X171712553Y-45487553D01*
X171613426Y-45568905D01*
X171613424Y-45568906D01*
X171500333Y-45629355D01*
X171459427Y-45641763D01*
X171377618Y-45666580D01*
X171250000Y-45679149D01*
X171122383Y-45666580D01*
X171040574Y-45641763D01*
X170999668Y-45629355D01*
X170886577Y-45568906D01*
X170886575Y-45568905D01*
X170787448Y-45487553D01*
X170706095Y-45388426D01*
X170665795Y-45313030D01*
X170645645Y-45275333D01*
X170633237Y-45234427D01*
X170608420Y-45152618D01*
X170599000Y-45056973D01*
X170599000Y-44443028D01*
X170608420Y-44347383D01*
X170645645Y-44224669D01*
X170645645Y-44224668D01*
X170677957Y-44164218D01*
X170706095Y-44111575D01*
X170787447Y-44012447D01*
X170886574Y-43931095D01*
X170921400Y-43912480D01*
X170999667Y-43870645D01*
X171040573Y-43858237D01*
X171122382Y-43833420D01*
X171250000Y-43820851D01*
X171377617Y-43833420D01*
X171377617Y-43833420D01*
G37*
G36*
X177377617Y-43833420D02*
X177459426Y-43858237D01*
X177500332Y-43870645D01*
X177522544Y-43882518D01*
X177613425Y-43931095D01*
X177613427Y-43931096D01*
X177613426Y-43931096D01*
X177686965Y-43991447D01*
X177712553Y-44012447D01*
X177793905Y-44111574D01*
X177793906Y-44111576D01*
X177854355Y-44224667D01*
X177866763Y-44265573D01*
X177891580Y-44347382D01*
X177901000Y-44443027D01*
X177901000Y-45056973D01*
X177891580Y-45152618D01*
X177866763Y-45234427D01*
X177854355Y-45275333D01*
X177800819Y-45375491D01*
X177793905Y-45388426D01*
X177712553Y-45487553D01*
X177613426Y-45568905D01*
X177613424Y-45568906D01*
X177500333Y-45629355D01*
X177459427Y-45641763D01*
X177377618Y-45666580D01*
X177250000Y-45679149D01*
X177122383Y-45666580D01*
X177040574Y-45641763D01*
X176999668Y-45629355D01*
X176886577Y-45568906D01*
X176886575Y-45568905D01*
X176787448Y-45487553D01*
X176706095Y-45388426D01*
X176665795Y-45313030D01*
X176645645Y-45275333D01*
X176633237Y-45234427D01*
X176608420Y-45152618D01*
X176599000Y-45056973D01*
X176599000Y-44443028D01*
X176608420Y-44347383D01*
X176645645Y-44224669D01*
X176645645Y-44224668D01*
X176677957Y-44164218D01*
X176706095Y-44111575D01*
X176787447Y-44012447D01*
X176886574Y-43931095D01*
X176921400Y-43912480D01*
X176999667Y-43870645D01*
X177040573Y-43858237D01*
X177122382Y-43833420D01*
X177250000Y-43820851D01*
X177377617Y-43833420D01*
X177377617Y-43833420D01*
G37*
G36*
X175377617Y-43833420D02*
X175459426Y-43858237D01*
X175500332Y-43870645D01*
X175522544Y-43882518D01*
X175613425Y-43931095D01*
X175613427Y-43931096D01*
X175613426Y-43931096D01*
X175686965Y-43991447D01*
X175712553Y-44012447D01*
X175793905Y-44111574D01*
X175793906Y-44111576D01*
X175854355Y-44224667D01*
X175866763Y-44265573D01*
X175891580Y-44347382D01*
X175901000Y-44443027D01*
X175901000Y-45056973D01*
X175891580Y-45152618D01*
X175866763Y-45234427D01*
X175854355Y-45275333D01*
X175800819Y-45375491D01*
X175793905Y-45388426D01*
X175712553Y-45487553D01*
X175613426Y-45568905D01*
X175613424Y-45568906D01*
X175500333Y-45629355D01*
X175459427Y-45641763D01*
X175377618Y-45666580D01*
X175250000Y-45679149D01*
X175122383Y-45666580D01*
X175040574Y-45641763D01*
X174999668Y-45629355D01*
X174886577Y-45568906D01*
X174886575Y-45568905D01*
X174787448Y-45487553D01*
X174706095Y-45388426D01*
X174665795Y-45313030D01*
X174645645Y-45275333D01*
X174633237Y-45234427D01*
X174608420Y-45152618D01*
X174599000Y-45056973D01*
X174599000Y-44443028D01*
X174608420Y-44347383D01*
X174645645Y-44224669D01*
X174645645Y-44224668D01*
X174677957Y-44164218D01*
X174706095Y-44111575D01*
X174787447Y-44012447D01*
X174886574Y-43931095D01*
X174921400Y-43912480D01*
X174999667Y-43870645D01*
X175040573Y-43858237D01*
X175122382Y-43833420D01*
X175250000Y-43820851D01*
X175377617Y-43833420D01*
X175377617Y-43833420D01*
G37*
G36*
X173377617Y-43833420D02*
X173459426Y-43858237D01*
X173500332Y-43870645D01*
X173522544Y-43882518D01*
X173613425Y-43931095D01*
X173613427Y-43931096D01*
X173613426Y-43931096D01*
X173686965Y-43991447D01*
X173712553Y-44012447D01*
X173793905Y-44111574D01*
X173793906Y-44111576D01*
X173854355Y-44224667D01*
X173866763Y-44265573D01*
X173891580Y-44347382D01*
X173901000Y-44443027D01*
X173901000Y-45056973D01*
X173891580Y-45152618D01*
X173866763Y-45234427D01*
X173854355Y-45275333D01*
X173800819Y-45375491D01*
X173793905Y-45388426D01*
X173712553Y-45487553D01*
X173613426Y-45568905D01*
X173613424Y-45568906D01*
X173500333Y-45629355D01*
X173459427Y-45641763D01*
X173377618Y-45666580D01*
X173250000Y-45679149D01*
X173122383Y-45666580D01*
X173040574Y-45641763D01*
X172999668Y-45629355D01*
X172886577Y-45568906D01*
X172886575Y-45568905D01*
X172787448Y-45487553D01*
X172706095Y-45388426D01*
X172665795Y-45313030D01*
X172645645Y-45275333D01*
X172633237Y-45234427D01*
X172608420Y-45152618D01*
X172599000Y-45056973D01*
X172599000Y-44443028D01*
X172608420Y-44347383D01*
X172645645Y-44224669D01*
X172645645Y-44224668D01*
X172677957Y-44164218D01*
X172706095Y-44111575D01*
X172787447Y-44012447D01*
X172886574Y-43931095D01*
X172921400Y-43912480D01*
X172999667Y-43870645D01*
X173040573Y-43858237D01*
X173122382Y-43833420D01*
X173250000Y-43820851D01*
X173377617Y-43833420D01*
X173377617Y-43833420D01*
G37*
G36*
X169377617Y-43833420D02*
X169459426Y-43858237D01*
X169500332Y-43870645D01*
X169522544Y-43882518D01*
X169613425Y-43931095D01*
X169613427Y-43931096D01*
X169613426Y-43931096D01*
X169686965Y-43991447D01*
X169712553Y-44012447D01*
X169793905Y-44111574D01*
X169793906Y-44111576D01*
X169854355Y-44224667D01*
X169866763Y-44265573D01*
X169891580Y-44347382D01*
X169901000Y-44443027D01*
X169901000Y-45056973D01*
X169891580Y-45152618D01*
X169866763Y-45234427D01*
X169854355Y-45275333D01*
X169800819Y-45375491D01*
X169793905Y-45388426D01*
X169712553Y-45487553D01*
X169613426Y-45568905D01*
X169613424Y-45568906D01*
X169500333Y-45629355D01*
X169459427Y-45641763D01*
X169377618Y-45666580D01*
X169250000Y-45679149D01*
X169122383Y-45666580D01*
X169040574Y-45641763D01*
X168999668Y-45629355D01*
X168886577Y-45568906D01*
X168886575Y-45568905D01*
X168787448Y-45487553D01*
X168706095Y-45388426D01*
X168665795Y-45313030D01*
X168645645Y-45275333D01*
X168633237Y-45234427D01*
X168608420Y-45152618D01*
X168599000Y-45056973D01*
X168599000Y-44443028D01*
X168608420Y-44347383D01*
X168645645Y-44224669D01*
X168645645Y-44224668D01*
X168677957Y-44164218D01*
X168706095Y-44111575D01*
X168787447Y-44012447D01*
X168886574Y-43931095D01*
X168921400Y-43912480D01*
X168999667Y-43870645D01*
X169040573Y-43858237D01*
X169122382Y-43833420D01*
X169250000Y-43820851D01*
X169377617Y-43833420D01*
X169377617Y-43833420D01*
G37*
G36*
X155377617Y-43833420D02*
X155459426Y-43858237D01*
X155500332Y-43870645D01*
X155522544Y-43882518D01*
X155613425Y-43931095D01*
X155613427Y-43931096D01*
X155613426Y-43931096D01*
X155686965Y-43991447D01*
X155712553Y-44012447D01*
X155793905Y-44111574D01*
X155793906Y-44111576D01*
X155854355Y-44224667D01*
X155866763Y-44265573D01*
X155891580Y-44347382D01*
X155901000Y-44443027D01*
X155901000Y-45056973D01*
X155891580Y-45152618D01*
X155866763Y-45234427D01*
X155854355Y-45275333D01*
X155800819Y-45375491D01*
X155793905Y-45388426D01*
X155712553Y-45487553D01*
X155613426Y-45568905D01*
X155613424Y-45568906D01*
X155500333Y-45629355D01*
X155459427Y-45641763D01*
X155377618Y-45666580D01*
X155250000Y-45679149D01*
X155122383Y-45666580D01*
X155040574Y-45641763D01*
X154999668Y-45629355D01*
X154886577Y-45568906D01*
X154886575Y-45568905D01*
X154787448Y-45487553D01*
X154706095Y-45388426D01*
X154665795Y-45313030D01*
X154645645Y-45275333D01*
X154633237Y-45234427D01*
X154608420Y-45152618D01*
X154599000Y-45056973D01*
X154599000Y-44443028D01*
X154608420Y-44347383D01*
X154645645Y-44224669D01*
X154645645Y-44224668D01*
X154677957Y-44164218D01*
X154706095Y-44111575D01*
X154787447Y-44012447D01*
X154886574Y-43931095D01*
X154921400Y-43912480D01*
X154999667Y-43870645D01*
X155040573Y-43858237D01*
X155122382Y-43833420D01*
X155250000Y-43820851D01*
X155377617Y-43833420D01*
X155377617Y-43833420D01*
G37*
G36*
X153377617Y-43833420D02*
X153459426Y-43858237D01*
X153500332Y-43870645D01*
X153522544Y-43882518D01*
X153613425Y-43931095D01*
X153613427Y-43931096D01*
X153613426Y-43931096D01*
X153686965Y-43991447D01*
X153712553Y-44012447D01*
X153793905Y-44111574D01*
X153793906Y-44111576D01*
X153854355Y-44224667D01*
X153866763Y-44265573D01*
X153891580Y-44347382D01*
X153901000Y-44443027D01*
X153901000Y-45056973D01*
X153891580Y-45152618D01*
X153866763Y-45234427D01*
X153854355Y-45275333D01*
X153800819Y-45375491D01*
X153793905Y-45388426D01*
X153712553Y-45487553D01*
X153613426Y-45568905D01*
X153613424Y-45568906D01*
X153500333Y-45629355D01*
X153459427Y-45641763D01*
X153377618Y-45666580D01*
X153250000Y-45679149D01*
X153122383Y-45666580D01*
X153040574Y-45641763D01*
X152999668Y-45629355D01*
X152886577Y-45568906D01*
X152886575Y-45568905D01*
X152787448Y-45487553D01*
X152706095Y-45388426D01*
X152665795Y-45313030D01*
X152645645Y-45275333D01*
X152633237Y-45234427D01*
X152608420Y-45152618D01*
X152599000Y-45056973D01*
X152599000Y-44443028D01*
X152608420Y-44347383D01*
X152645645Y-44224669D01*
X152645645Y-44224668D01*
X152677957Y-44164218D01*
X152706095Y-44111575D01*
X152787447Y-44012447D01*
X152886574Y-43931095D01*
X152921400Y-43912480D01*
X152999667Y-43870645D01*
X153040573Y-43858237D01*
X153122382Y-43833420D01*
X153250000Y-43820851D01*
X153377617Y-43833420D01*
X153377617Y-43833420D01*
G37*
G36*
X162377617Y-43833420D02*
X162459426Y-43858237D01*
X162500332Y-43870645D01*
X162522544Y-43882518D01*
X162613425Y-43931095D01*
X162613427Y-43931096D01*
X162613426Y-43931096D01*
X162686965Y-43991447D01*
X162712553Y-44012447D01*
X162793905Y-44111574D01*
X162793906Y-44111576D01*
X162854355Y-44224667D01*
X162866763Y-44265573D01*
X162891580Y-44347382D01*
X162901000Y-44443027D01*
X162901000Y-45056973D01*
X162891580Y-45152618D01*
X162866763Y-45234427D01*
X162854355Y-45275333D01*
X162800819Y-45375491D01*
X162793905Y-45388426D01*
X162712553Y-45487553D01*
X162613426Y-45568905D01*
X162613424Y-45568906D01*
X162500333Y-45629355D01*
X162459427Y-45641763D01*
X162377618Y-45666580D01*
X162250000Y-45679149D01*
X162122383Y-45666580D01*
X162040574Y-45641763D01*
X161999668Y-45629355D01*
X161886577Y-45568906D01*
X161886575Y-45568905D01*
X161787448Y-45487553D01*
X161706095Y-45388426D01*
X161665795Y-45313030D01*
X161645645Y-45275333D01*
X161633237Y-45234427D01*
X161608420Y-45152618D01*
X161599000Y-45056973D01*
X161599000Y-44443028D01*
X161608420Y-44347383D01*
X161645645Y-44224669D01*
X161645645Y-44224668D01*
X161677957Y-44164218D01*
X161706095Y-44111575D01*
X161787447Y-44012447D01*
X161886574Y-43931095D01*
X161921400Y-43912480D01*
X161999667Y-43870645D01*
X162040573Y-43858237D01*
X162122382Y-43833420D01*
X162250000Y-43820851D01*
X162377617Y-43833420D01*
X162377617Y-43833420D01*
G37*
G36*
X179377617Y-43833420D02*
X179459426Y-43858237D01*
X179500332Y-43870645D01*
X179522544Y-43882518D01*
X179613425Y-43931095D01*
X179613427Y-43931096D01*
X179613426Y-43931096D01*
X179686965Y-43991447D01*
X179712553Y-44012447D01*
X179793905Y-44111574D01*
X179793906Y-44111576D01*
X179854355Y-44224667D01*
X179866763Y-44265573D01*
X179891580Y-44347382D01*
X179901000Y-44443027D01*
X179901000Y-45056973D01*
X179891580Y-45152618D01*
X179866763Y-45234427D01*
X179854355Y-45275333D01*
X179800819Y-45375491D01*
X179793905Y-45388426D01*
X179712553Y-45487553D01*
X179613426Y-45568905D01*
X179613424Y-45568906D01*
X179500333Y-45629355D01*
X179459427Y-45641763D01*
X179377618Y-45666580D01*
X179250000Y-45679149D01*
X179122383Y-45666580D01*
X179040574Y-45641763D01*
X178999668Y-45629355D01*
X178886577Y-45568906D01*
X178886575Y-45568905D01*
X178787448Y-45487553D01*
X178706095Y-45388426D01*
X178665795Y-45313030D01*
X178645645Y-45275333D01*
X178633237Y-45234427D01*
X178608420Y-45152618D01*
X178599000Y-45056973D01*
X178599000Y-44443028D01*
X178608420Y-44347383D01*
X178645645Y-44224669D01*
X178645645Y-44224668D01*
X178677957Y-44164218D01*
X178706095Y-44111575D01*
X178787447Y-44012447D01*
X178886574Y-43931095D01*
X178921400Y-43912480D01*
X178999667Y-43870645D01*
X179040573Y-43858237D01*
X179122382Y-43833420D01*
X179250000Y-43820851D01*
X179377617Y-43833420D01*
X179377617Y-43833420D01*
G37*
G36*
X181377617Y-43833420D02*
X181459426Y-43858237D01*
X181500332Y-43870645D01*
X181522544Y-43882518D01*
X181613425Y-43931095D01*
X181613427Y-43931096D01*
X181613426Y-43931096D01*
X181686965Y-43991447D01*
X181712553Y-44012447D01*
X181793905Y-44111574D01*
X181793906Y-44111576D01*
X181854355Y-44224667D01*
X181866763Y-44265573D01*
X181891580Y-44347382D01*
X181901000Y-44443027D01*
X181901000Y-45056973D01*
X181891580Y-45152618D01*
X181866763Y-45234427D01*
X181854355Y-45275333D01*
X181800819Y-45375491D01*
X181793905Y-45388426D01*
X181712553Y-45487553D01*
X181613426Y-45568905D01*
X181613424Y-45568906D01*
X181500333Y-45629355D01*
X181459427Y-45641763D01*
X181377618Y-45666580D01*
X181250000Y-45679149D01*
X181122383Y-45666580D01*
X181040574Y-45641763D01*
X180999668Y-45629355D01*
X180886577Y-45568906D01*
X180886575Y-45568905D01*
X180787448Y-45487553D01*
X180706095Y-45388426D01*
X180665795Y-45313030D01*
X180645645Y-45275333D01*
X180633237Y-45234427D01*
X180608420Y-45152618D01*
X180599000Y-45056973D01*
X180599000Y-44443028D01*
X180608420Y-44347383D01*
X180645645Y-44224669D01*
X180645645Y-44224668D01*
X180677957Y-44164218D01*
X180706095Y-44111575D01*
X180787447Y-44012447D01*
X180886574Y-43931095D01*
X180921400Y-43912480D01*
X180999667Y-43870645D01*
X181040573Y-43858237D01*
X181122382Y-43833420D01*
X181250000Y-43820851D01*
X181377617Y-43833420D01*
X181377617Y-43833420D01*
G37*
G36*
X160741242Y-43828404D02*
X160778339Y-43839657D01*
X160812520Y-43857927D01*
X160842482Y-43882518D01*
X160867073Y-43912480D01*
X160885343Y-43946661D01*
X160896596Y-43983758D01*
X160901000Y-44028473D01*
X160901000Y-45471527D01*
X160896596Y-45516242D01*
X160885343Y-45553339D01*
X160867073Y-45587520D01*
X160842482Y-45617482D01*
X160812520Y-45642073D01*
X160778339Y-45660343D01*
X160741242Y-45671596D01*
X160696527Y-45676000D01*
X159803473Y-45676000D01*
X159758758Y-45671596D01*
X159721661Y-45660343D01*
X159687480Y-45642073D01*
X159657518Y-45617482D01*
X159632927Y-45587520D01*
X159614657Y-45553339D01*
X159603404Y-45516242D01*
X159599000Y-45471527D01*
X159599000Y-44028473D01*
X159603404Y-43983758D01*
X159614657Y-43946661D01*
X159632927Y-43912480D01*
X159657518Y-43882518D01*
X159687480Y-43857927D01*
X159721661Y-43839657D01*
X159758758Y-43828404D01*
X159803473Y-43824000D01*
X160696527Y-43824000D01*
X160741242Y-43828404D01*
X160741242Y-43828404D01*
G37*
G36*
X151741242Y-43828404D02*
X151778339Y-43839657D01*
X151812520Y-43857927D01*
X151842482Y-43882518D01*
X151867073Y-43912480D01*
X151885343Y-43946661D01*
X151896596Y-43983758D01*
X151901000Y-44028473D01*
X151901000Y-45471527D01*
X151896596Y-45516242D01*
X151885343Y-45553339D01*
X151867073Y-45587520D01*
X151842482Y-45617482D01*
X151812520Y-45642073D01*
X151778339Y-45660343D01*
X151741242Y-45671596D01*
X151696527Y-45676000D01*
X150803473Y-45676000D01*
X150758758Y-45671596D01*
X150721661Y-45660343D01*
X150687480Y-45642073D01*
X150657518Y-45617482D01*
X150632927Y-45587520D01*
X150614657Y-45553339D01*
X150603404Y-45516242D01*
X150599000Y-45471527D01*
X150599000Y-44028473D01*
X150603404Y-43983758D01*
X150614657Y-43946661D01*
X150632927Y-43912480D01*
X150657518Y-43882518D01*
X150687480Y-43857927D01*
X150721661Y-43839657D01*
X150758758Y-43828404D01*
X150803473Y-43824000D01*
X151696527Y-43824000D01*
X151741242Y-43828404D01*
X151741242Y-43828404D01*
G37*
G36*
X167741242Y-43828404D02*
X167778339Y-43839657D01*
X167812520Y-43857927D01*
X167842482Y-43882518D01*
X167867073Y-43912480D01*
X167885343Y-43946661D01*
X167896596Y-43983758D01*
X167901000Y-44028473D01*
X167901000Y-45471527D01*
X167896596Y-45516242D01*
X167885343Y-45553339D01*
X167867073Y-45587520D01*
X167842482Y-45617482D01*
X167812520Y-45642073D01*
X167778339Y-45660343D01*
X167741242Y-45671596D01*
X167696527Y-45676000D01*
X166803473Y-45676000D01*
X166758758Y-45671596D01*
X166721661Y-45660343D01*
X166687480Y-45642073D01*
X166657518Y-45617482D01*
X166632927Y-45587520D01*
X166614657Y-45553339D01*
X166603404Y-45516242D01*
X166599000Y-45471527D01*
X166599000Y-44028473D01*
X166603404Y-43983758D01*
X166614657Y-43946661D01*
X166632927Y-43912480D01*
X166657518Y-43882518D01*
X166687480Y-43857927D01*
X166721661Y-43839657D01*
X166758758Y-43828404D01*
X166803473Y-43824000D01*
X167696527Y-43824000D01*
X167741242Y-43828404D01*
X167741242Y-43828404D01*
G37*
G36*
X45037142Y-39578242D02*
X45185102Y-39639530D01*
X45318258Y-39728502D01*
X45431498Y-39841742D01*
X45520470Y-39974898D01*
X45581758Y-40122858D01*
X45613000Y-40279925D01*
X45613000Y-40440075D01*
X45581758Y-40597142D01*
X45520470Y-40745102D01*
X45431498Y-40878258D01*
X45318258Y-40991498D01*
X45185102Y-41080470D01*
X45037142Y-41141758D01*
X44880075Y-41173000D01*
X44719925Y-41173000D01*
X44562858Y-41141758D01*
X44414898Y-41080470D01*
X44281742Y-40991498D01*
X44168502Y-40878258D01*
X44079530Y-40745102D01*
X44018242Y-40597142D01*
X43987000Y-40440075D01*
X43987000Y-40279925D01*
X44018242Y-40122858D01*
X44079530Y-39974898D01*
X44168502Y-39841742D01*
X44281742Y-39728502D01*
X44414898Y-39639530D01*
X44562858Y-39578242D01*
X44719925Y-39547000D01*
X44880075Y-39547000D01*
X45037142Y-39578242D01*
X45037142Y-39578242D01*
G37*
G36*
X63037142Y-39578242D02*
X63185102Y-39639530D01*
X63318258Y-39728502D01*
X63431498Y-39841742D01*
X63520470Y-39974898D01*
X63581758Y-40122858D01*
X63613000Y-40279925D01*
X63613000Y-40440075D01*
X63581758Y-40597142D01*
X63520470Y-40745102D01*
X63431498Y-40878258D01*
X63318258Y-40991498D01*
X63185102Y-41080470D01*
X63037142Y-41141758D01*
X62880075Y-41173000D01*
X62719925Y-41173000D01*
X62562858Y-41141758D01*
X62414898Y-41080470D01*
X62281742Y-40991498D01*
X62168502Y-40878258D01*
X62079530Y-40745102D01*
X62018242Y-40597142D01*
X61987000Y-40440075D01*
X61987000Y-40279925D01*
X62018242Y-40122858D01*
X62079530Y-39974898D01*
X62168502Y-39841742D01*
X62281742Y-39728502D01*
X62414898Y-39639530D01*
X62562858Y-39578242D01*
X62719925Y-39547000D01*
X62880075Y-39547000D01*
X63037142Y-39578242D01*
X63037142Y-39578242D01*
G37*
G36*
X152570442Y-37895518D02*
X152636627Y-37902037D01*
X152749853Y-37936384D01*
X152806467Y-37953557D01*
X152945087Y-38027652D01*
X152962991Y-38037222D01*
X152998729Y-38066552D01*
X153100186Y-38149814D01*
X153183448Y-38251271D01*
X153212778Y-38287009D01*
X153212779Y-38287011D01*
X153296443Y-38443533D01*
X153296443Y-38443534D01*
X153347963Y-38613373D01*
X153365359Y-38790000D01*
X153347963Y-38966627D01*
X153313616Y-39079853D01*
X153296443Y-39136467D01*
X153222348Y-39275087D01*
X153212778Y-39292991D01*
X153183448Y-39328729D01*
X153100186Y-39430186D01*
X152998729Y-39513448D01*
X152962991Y-39542778D01*
X152962989Y-39542779D01*
X152806467Y-39626443D01*
X152763327Y-39639529D01*
X152636627Y-39677963D01*
X152570443Y-39684481D01*
X152504260Y-39691000D01*
X152415740Y-39691000D01*
X152349557Y-39684481D01*
X152283373Y-39677963D01*
X152156673Y-39639529D01*
X152113533Y-39626443D01*
X151957011Y-39542779D01*
X151957009Y-39542778D01*
X151921271Y-39513448D01*
X151819814Y-39430186D01*
X151736552Y-39328729D01*
X151707222Y-39292991D01*
X151697652Y-39275087D01*
X151623557Y-39136467D01*
X151606384Y-39079853D01*
X151572037Y-38966627D01*
X151554641Y-38790000D01*
X151572037Y-38613373D01*
X151623557Y-38443534D01*
X151623557Y-38443533D01*
X151707221Y-38287011D01*
X151707222Y-38287009D01*
X151736552Y-38251271D01*
X151819814Y-38149814D01*
X151921271Y-38066552D01*
X151957009Y-38037222D01*
X151974913Y-38027652D01*
X152113533Y-37953557D01*
X152170147Y-37936384D01*
X152283373Y-37902037D01*
X152349558Y-37895518D01*
X152415740Y-37889000D01*
X152504260Y-37889000D01*
X152570442Y-37895518D01*
X152570442Y-37895518D01*
G37*
G36*
X155110442Y-37895518D02*
X155176627Y-37902037D01*
X155289853Y-37936384D01*
X155346467Y-37953557D01*
X155485087Y-38027652D01*
X155502991Y-38037222D01*
X155538729Y-38066552D01*
X155640186Y-38149814D01*
X155723448Y-38251271D01*
X155752778Y-38287009D01*
X155752779Y-38287011D01*
X155836443Y-38443533D01*
X155836443Y-38443534D01*
X155887963Y-38613373D01*
X155905359Y-38790000D01*
X155887963Y-38966627D01*
X155853616Y-39079853D01*
X155836443Y-39136467D01*
X155762348Y-39275087D01*
X155752778Y-39292991D01*
X155723448Y-39328729D01*
X155640186Y-39430186D01*
X155538729Y-39513448D01*
X155502991Y-39542778D01*
X155502989Y-39542779D01*
X155346467Y-39626443D01*
X155303327Y-39639529D01*
X155176627Y-39677963D01*
X155110443Y-39684481D01*
X155044260Y-39691000D01*
X154955740Y-39691000D01*
X154889557Y-39684481D01*
X154823373Y-39677963D01*
X154696673Y-39639529D01*
X154653533Y-39626443D01*
X154497011Y-39542779D01*
X154497009Y-39542778D01*
X154461271Y-39513448D01*
X154359814Y-39430186D01*
X154276552Y-39328729D01*
X154247222Y-39292991D01*
X154237652Y-39275087D01*
X154163557Y-39136467D01*
X154146384Y-39079853D01*
X154112037Y-38966627D01*
X154094641Y-38790000D01*
X154112037Y-38613373D01*
X154163557Y-38443534D01*
X154163557Y-38443533D01*
X154247221Y-38287011D01*
X154247222Y-38287009D01*
X154276552Y-38251271D01*
X154359814Y-38149814D01*
X154461271Y-38066552D01*
X154497009Y-38037222D01*
X154514913Y-38027652D01*
X154653533Y-37953557D01*
X154710147Y-37936384D01*
X154823373Y-37902037D01*
X154889558Y-37895518D01*
X154955740Y-37889000D01*
X155044260Y-37889000D01*
X155110442Y-37895518D01*
X155110442Y-37895518D01*
G37*
G36*
X150821000Y-39691000D02*
X149019000Y-39691000D01*
X149019000Y-37889000D01*
X150821000Y-37889000D01*
X150821000Y-39691000D01*
X150821000Y-39691000D01*
G37*
G36*
X45037142Y-37038242D02*
X45185102Y-37099530D01*
X45318258Y-37188502D01*
X45431498Y-37301742D01*
X45520470Y-37434898D01*
X45581758Y-37582858D01*
X45613000Y-37739925D01*
X45613000Y-37900075D01*
X45581758Y-38057142D01*
X45565433Y-38096553D01*
X45520471Y-38205100D01*
X45465742Y-38287009D01*
X45431498Y-38338258D01*
X45318258Y-38451498D01*
X45185102Y-38540470D01*
X45037142Y-38601758D01*
X44880075Y-38633000D01*
X44719925Y-38633000D01*
X44562858Y-38601758D01*
X44414898Y-38540470D01*
X44281742Y-38451498D01*
X44168502Y-38338258D01*
X44134259Y-38287009D01*
X44079529Y-38205100D01*
X44034567Y-38096553D01*
X44018242Y-38057142D01*
X43987000Y-37900075D01*
X43987000Y-37739925D01*
X44018242Y-37582858D01*
X44079530Y-37434898D01*
X44168502Y-37301742D01*
X44281742Y-37188502D01*
X44414898Y-37099530D01*
X44562858Y-37038242D01*
X44719925Y-37007000D01*
X44880075Y-37007000D01*
X45037142Y-37038242D01*
X45037142Y-37038242D01*
G37*
G36*
X63037142Y-37038242D02*
X63185102Y-37099530D01*
X63318258Y-37188502D01*
X63431498Y-37301742D01*
X63520470Y-37434898D01*
X63581758Y-37582858D01*
X63613000Y-37739925D01*
X63613000Y-37900075D01*
X63581758Y-38057142D01*
X63565433Y-38096553D01*
X63520471Y-38205100D01*
X63465742Y-38287009D01*
X63431498Y-38338258D01*
X63318258Y-38451498D01*
X63185102Y-38540470D01*
X63037142Y-38601758D01*
X62880075Y-38633000D01*
X62719925Y-38633000D01*
X62562858Y-38601758D01*
X62414898Y-38540470D01*
X62281742Y-38451498D01*
X62168502Y-38338258D01*
X62134259Y-38287009D01*
X62079529Y-38205100D01*
X62034567Y-38096553D01*
X62018242Y-38057142D01*
X61987000Y-37900075D01*
X61987000Y-37739925D01*
X62018242Y-37582858D01*
X62079530Y-37434898D01*
X62168502Y-37301742D01*
X62281742Y-37188502D01*
X62414898Y-37099530D01*
X62562858Y-37038242D01*
X62719925Y-37007000D01*
X62880075Y-37007000D01*
X63037142Y-37038242D01*
X63037142Y-37038242D01*
G37*
G36*
X175377617Y-36333420D02*
X175459426Y-36358237D01*
X175500332Y-36370645D01*
X175522544Y-36382518D01*
X175613425Y-36431095D01*
X175613427Y-36431096D01*
X175613426Y-36431096D01*
X175686965Y-36491447D01*
X175712553Y-36512447D01*
X175793905Y-36611574D01*
X175793906Y-36611576D01*
X175854355Y-36724667D01*
X175862946Y-36752989D01*
X175891580Y-36847382D01*
X175901000Y-36943027D01*
X175901000Y-37556973D01*
X175891580Y-37652618D01*
X175866763Y-37734427D01*
X175854355Y-37775333D01*
X175800819Y-37875491D01*
X175793905Y-37888426D01*
X175712553Y-37987553D01*
X175613426Y-38068905D01*
X175613424Y-38068906D01*
X175500333Y-38129355D01*
X175459427Y-38141763D01*
X175377618Y-38166580D01*
X175250000Y-38179149D01*
X175122383Y-38166580D01*
X175040574Y-38141763D01*
X174999668Y-38129355D01*
X174886577Y-38068906D01*
X174886575Y-38068905D01*
X174787448Y-37987553D01*
X174706095Y-37888426D01*
X174665795Y-37813030D01*
X174645645Y-37775333D01*
X174633237Y-37734427D01*
X174608420Y-37652618D01*
X174599000Y-37556973D01*
X174599000Y-36943028D01*
X174608420Y-36847383D01*
X174633237Y-36765574D01*
X174645645Y-36724668D01*
X174677957Y-36664218D01*
X174706095Y-36611575D01*
X174787447Y-36512447D01*
X174886574Y-36431095D01*
X174921400Y-36412480D01*
X174999667Y-36370645D01*
X175040573Y-36358237D01*
X175122382Y-36333420D01*
X175250000Y-36320851D01*
X175377617Y-36333420D01*
X175377617Y-36333420D01*
G37*
G36*
X177377617Y-36333420D02*
X177459426Y-36358237D01*
X177500332Y-36370645D01*
X177522544Y-36382518D01*
X177613425Y-36431095D01*
X177613427Y-36431096D01*
X177613426Y-36431096D01*
X177686965Y-36491447D01*
X177712553Y-36512447D01*
X177793905Y-36611574D01*
X177793906Y-36611576D01*
X177854355Y-36724667D01*
X177862946Y-36752989D01*
X177891580Y-36847382D01*
X177901000Y-36943027D01*
X177901000Y-37556973D01*
X177891580Y-37652618D01*
X177866763Y-37734427D01*
X177854355Y-37775333D01*
X177800819Y-37875491D01*
X177793905Y-37888426D01*
X177712553Y-37987553D01*
X177613426Y-38068905D01*
X177613424Y-38068906D01*
X177500333Y-38129355D01*
X177459427Y-38141763D01*
X177377618Y-38166580D01*
X177250000Y-38179149D01*
X177122383Y-38166580D01*
X177040574Y-38141763D01*
X176999668Y-38129355D01*
X176886577Y-38068906D01*
X176886575Y-38068905D01*
X176787448Y-37987553D01*
X176706095Y-37888426D01*
X176665795Y-37813030D01*
X176645645Y-37775333D01*
X176633237Y-37734427D01*
X176608420Y-37652618D01*
X176599000Y-37556973D01*
X176599000Y-36943028D01*
X176608420Y-36847383D01*
X176633237Y-36765574D01*
X176645645Y-36724668D01*
X176677957Y-36664218D01*
X176706095Y-36611575D01*
X176787447Y-36512447D01*
X176886574Y-36431095D01*
X176921400Y-36412480D01*
X176999667Y-36370645D01*
X177040573Y-36358237D01*
X177122382Y-36333420D01*
X177250000Y-36320851D01*
X177377617Y-36333420D01*
X177377617Y-36333420D01*
G37*
G36*
X179377617Y-36333420D02*
X179459426Y-36358237D01*
X179500332Y-36370645D01*
X179522544Y-36382518D01*
X179613425Y-36431095D01*
X179613427Y-36431096D01*
X179613426Y-36431096D01*
X179686965Y-36491447D01*
X179712553Y-36512447D01*
X179793905Y-36611574D01*
X179793906Y-36611576D01*
X179854355Y-36724667D01*
X179862946Y-36752989D01*
X179891580Y-36847382D01*
X179901000Y-36943027D01*
X179901000Y-37556973D01*
X179891580Y-37652618D01*
X179866763Y-37734427D01*
X179854355Y-37775333D01*
X179800819Y-37875491D01*
X179793905Y-37888426D01*
X179712553Y-37987553D01*
X179613426Y-38068905D01*
X179613424Y-38068906D01*
X179500333Y-38129355D01*
X179459427Y-38141763D01*
X179377618Y-38166580D01*
X179250000Y-38179149D01*
X179122383Y-38166580D01*
X179040574Y-38141763D01*
X178999668Y-38129355D01*
X178886577Y-38068906D01*
X178886575Y-38068905D01*
X178787448Y-37987553D01*
X178706095Y-37888426D01*
X178665795Y-37813030D01*
X178645645Y-37775333D01*
X178633237Y-37734427D01*
X178608420Y-37652618D01*
X178599000Y-37556973D01*
X178599000Y-36943028D01*
X178608420Y-36847383D01*
X178633237Y-36765574D01*
X178645645Y-36724668D01*
X178677957Y-36664218D01*
X178706095Y-36611575D01*
X178787447Y-36512447D01*
X178886574Y-36431095D01*
X178921400Y-36412480D01*
X178999667Y-36370645D01*
X179040573Y-36358237D01*
X179122382Y-36333420D01*
X179250000Y-36320851D01*
X179377617Y-36333420D01*
X179377617Y-36333420D01*
G37*
G36*
X181377617Y-36333420D02*
X181459426Y-36358237D01*
X181500332Y-36370645D01*
X181522544Y-36382518D01*
X181613425Y-36431095D01*
X181613427Y-36431096D01*
X181613426Y-36431096D01*
X181686965Y-36491447D01*
X181712553Y-36512447D01*
X181793905Y-36611574D01*
X181793906Y-36611576D01*
X181854355Y-36724667D01*
X181862946Y-36752989D01*
X181891580Y-36847382D01*
X181901000Y-36943027D01*
X181901000Y-37556973D01*
X181891580Y-37652618D01*
X181866763Y-37734427D01*
X181854355Y-37775333D01*
X181800819Y-37875491D01*
X181793905Y-37888426D01*
X181712553Y-37987553D01*
X181613426Y-38068905D01*
X181613424Y-38068906D01*
X181500333Y-38129355D01*
X181459427Y-38141763D01*
X181377618Y-38166580D01*
X181250000Y-38179149D01*
X181122383Y-38166580D01*
X181040574Y-38141763D01*
X180999668Y-38129355D01*
X180886577Y-38068906D01*
X180886575Y-38068905D01*
X180787448Y-37987553D01*
X180706095Y-37888426D01*
X180665795Y-37813030D01*
X180645645Y-37775333D01*
X180633237Y-37734427D01*
X180608420Y-37652618D01*
X180599000Y-37556973D01*
X180599000Y-36943028D01*
X180608420Y-36847383D01*
X180633237Y-36765574D01*
X180645645Y-36724668D01*
X180677957Y-36664218D01*
X180706095Y-36611575D01*
X180787447Y-36512447D01*
X180886574Y-36431095D01*
X180921400Y-36412480D01*
X180999667Y-36370645D01*
X181040573Y-36358237D01*
X181122382Y-36333420D01*
X181250000Y-36320851D01*
X181377617Y-36333420D01*
X181377617Y-36333420D01*
G37*
G36*
X161377617Y-36333420D02*
X161459426Y-36358237D01*
X161500332Y-36370645D01*
X161522544Y-36382518D01*
X161613425Y-36431095D01*
X161613427Y-36431096D01*
X161613426Y-36431096D01*
X161686965Y-36491447D01*
X161712553Y-36512447D01*
X161793905Y-36611574D01*
X161793906Y-36611576D01*
X161854355Y-36724667D01*
X161862946Y-36752989D01*
X161891580Y-36847382D01*
X161901000Y-36943027D01*
X161901000Y-37556973D01*
X161891580Y-37652618D01*
X161866763Y-37734427D01*
X161854355Y-37775333D01*
X161800819Y-37875491D01*
X161793905Y-37888426D01*
X161712553Y-37987553D01*
X161613426Y-38068905D01*
X161613424Y-38068906D01*
X161500333Y-38129355D01*
X161459427Y-38141763D01*
X161377618Y-38166580D01*
X161250000Y-38179149D01*
X161122383Y-38166580D01*
X161040574Y-38141763D01*
X160999668Y-38129355D01*
X160886577Y-38068906D01*
X160886575Y-38068905D01*
X160787448Y-37987553D01*
X160706095Y-37888426D01*
X160665795Y-37813030D01*
X160645645Y-37775333D01*
X160633237Y-37734427D01*
X160608420Y-37652618D01*
X160599000Y-37556973D01*
X160599000Y-36943028D01*
X160608420Y-36847383D01*
X160633237Y-36765574D01*
X160645645Y-36724668D01*
X160677957Y-36664218D01*
X160706095Y-36611575D01*
X160787447Y-36512447D01*
X160886574Y-36431095D01*
X160921400Y-36412480D01*
X160999667Y-36370645D01*
X161040573Y-36358237D01*
X161122382Y-36333420D01*
X161250000Y-36320851D01*
X161377617Y-36333420D01*
X161377617Y-36333420D01*
G37*
G36*
X168377617Y-36333420D02*
X168459426Y-36358237D01*
X168500332Y-36370645D01*
X168522544Y-36382518D01*
X168613425Y-36431095D01*
X168613427Y-36431096D01*
X168613426Y-36431096D01*
X168686965Y-36491447D01*
X168712553Y-36512447D01*
X168793905Y-36611574D01*
X168793906Y-36611576D01*
X168854355Y-36724667D01*
X168862946Y-36752989D01*
X168891580Y-36847382D01*
X168901000Y-36943027D01*
X168901000Y-37556973D01*
X168891580Y-37652618D01*
X168866763Y-37734427D01*
X168854355Y-37775333D01*
X168800819Y-37875491D01*
X168793905Y-37888426D01*
X168712553Y-37987553D01*
X168613426Y-38068905D01*
X168613424Y-38068906D01*
X168500333Y-38129355D01*
X168459427Y-38141763D01*
X168377618Y-38166580D01*
X168250000Y-38179149D01*
X168122383Y-38166580D01*
X168040574Y-38141763D01*
X167999668Y-38129355D01*
X167886577Y-38068906D01*
X167886575Y-38068905D01*
X167787448Y-37987553D01*
X167706095Y-37888426D01*
X167665795Y-37813030D01*
X167645645Y-37775333D01*
X167633237Y-37734427D01*
X167608420Y-37652618D01*
X167599000Y-37556973D01*
X167599000Y-36943028D01*
X167608420Y-36847383D01*
X167633237Y-36765574D01*
X167645645Y-36724668D01*
X167677957Y-36664218D01*
X167706095Y-36611575D01*
X167787447Y-36512447D01*
X167886574Y-36431095D01*
X167921400Y-36412480D01*
X167999667Y-36370645D01*
X168040573Y-36358237D01*
X168122382Y-36333420D01*
X168250000Y-36320851D01*
X168377617Y-36333420D01*
X168377617Y-36333420D01*
G37*
G36*
X173741242Y-36328404D02*
X173778339Y-36339657D01*
X173812520Y-36357927D01*
X173842482Y-36382518D01*
X173867073Y-36412480D01*
X173885343Y-36446661D01*
X173896596Y-36483758D01*
X173901000Y-36528473D01*
X173901000Y-37971527D01*
X173896596Y-38016242D01*
X173885343Y-38053339D01*
X173867073Y-38087520D01*
X173842482Y-38117482D01*
X173812520Y-38142073D01*
X173778339Y-38160343D01*
X173741242Y-38171596D01*
X173696527Y-38176000D01*
X172803473Y-38176000D01*
X172758758Y-38171596D01*
X172721661Y-38160343D01*
X172687480Y-38142073D01*
X172657518Y-38117482D01*
X172632927Y-38087520D01*
X172614657Y-38053339D01*
X172603404Y-38016242D01*
X172599000Y-37971527D01*
X172599000Y-36528473D01*
X172603404Y-36483758D01*
X172614657Y-36446661D01*
X172632927Y-36412480D01*
X172657518Y-36382518D01*
X172687480Y-36357927D01*
X172721661Y-36339657D01*
X172758758Y-36328404D01*
X172803473Y-36324000D01*
X173696527Y-36324000D01*
X173741242Y-36328404D01*
X173741242Y-36328404D01*
G37*
G36*
X159741242Y-36328404D02*
X159778339Y-36339657D01*
X159812520Y-36357927D01*
X159842482Y-36382518D01*
X159867073Y-36412480D01*
X159885343Y-36446661D01*
X159896596Y-36483758D01*
X159901000Y-36528473D01*
X159901000Y-37971527D01*
X159896596Y-38016242D01*
X159885343Y-38053339D01*
X159867073Y-38087520D01*
X159842482Y-38117482D01*
X159812520Y-38142073D01*
X159778339Y-38160343D01*
X159741242Y-38171596D01*
X159696527Y-38176000D01*
X158803473Y-38176000D01*
X158758758Y-38171596D01*
X158721661Y-38160343D01*
X158687480Y-38142073D01*
X158657518Y-38117482D01*
X158632927Y-38087520D01*
X158614657Y-38053339D01*
X158603404Y-38016242D01*
X158599000Y-37971527D01*
X158599000Y-36528473D01*
X158603404Y-36483758D01*
X158614657Y-36446661D01*
X158632927Y-36412480D01*
X158657518Y-36382518D01*
X158687480Y-36357927D01*
X158721661Y-36339657D01*
X158758758Y-36328404D01*
X158803473Y-36324000D01*
X159696527Y-36324000D01*
X159741242Y-36328404D01*
X159741242Y-36328404D01*
G37*
G36*
X166741242Y-36328404D02*
X166778339Y-36339657D01*
X166812520Y-36357927D01*
X166842482Y-36382518D01*
X166867073Y-36412480D01*
X166885343Y-36446661D01*
X166896596Y-36483758D01*
X166901000Y-36528473D01*
X166901000Y-37971527D01*
X166896596Y-38016242D01*
X166885343Y-38053339D01*
X166867073Y-38087520D01*
X166842482Y-38117482D01*
X166812520Y-38142073D01*
X166778339Y-38160343D01*
X166741242Y-38171596D01*
X166696527Y-38176000D01*
X165803473Y-38176000D01*
X165758758Y-38171596D01*
X165721661Y-38160343D01*
X165687480Y-38142073D01*
X165657518Y-38117482D01*
X165632927Y-38087520D01*
X165614657Y-38053339D01*
X165603404Y-38016242D01*
X165599000Y-37971527D01*
X165599000Y-36528473D01*
X165603404Y-36483758D01*
X165614657Y-36446661D01*
X165632927Y-36412480D01*
X165657518Y-36382518D01*
X165687480Y-36357927D01*
X165721661Y-36339657D01*
X165758758Y-36328404D01*
X165803473Y-36324000D01*
X166696527Y-36324000D01*
X166741242Y-36328404D01*
X166741242Y-36328404D01*
G37*
G36*
X155110443Y-35355519D02*
X155176627Y-35362037D01*
X155289853Y-35396384D01*
X155346467Y-35413557D01*
X155485087Y-35487652D01*
X155502991Y-35497222D01*
X155538729Y-35526552D01*
X155640186Y-35609814D01*
X155723448Y-35711271D01*
X155752778Y-35747009D01*
X155752779Y-35747011D01*
X155836443Y-35903533D01*
X155836443Y-35903534D01*
X155887963Y-36073373D01*
X155905359Y-36250000D01*
X155887963Y-36426627D01*
X155868300Y-36491447D01*
X155836443Y-36596467D01*
X155767918Y-36724667D01*
X155752778Y-36752991D01*
X155723448Y-36788729D01*
X155640186Y-36890186D01*
X155538729Y-36973448D01*
X155502991Y-37002778D01*
X155502989Y-37002779D01*
X155346467Y-37086443D01*
X155303327Y-37099529D01*
X155176627Y-37137963D01*
X155110442Y-37144482D01*
X155044260Y-37151000D01*
X154955740Y-37151000D01*
X154889558Y-37144482D01*
X154823373Y-37137963D01*
X154696673Y-37099529D01*
X154653533Y-37086443D01*
X154497011Y-37002779D01*
X154497009Y-37002778D01*
X154461271Y-36973448D01*
X154359814Y-36890186D01*
X154276552Y-36788729D01*
X154247222Y-36752991D01*
X154232082Y-36724667D01*
X154163557Y-36596467D01*
X154131700Y-36491447D01*
X154112037Y-36426627D01*
X154094641Y-36250000D01*
X154112037Y-36073373D01*
X154163557Y-35903534D01*
X154163557Y-35903533D01*
X154247221Y-35747011D01*
X154247222Y-35747009D01*
X154276552Y-35711271D01*
X154359814Y-35609814D01*
X154461271Y-35526552D01*
X154497009Y-35497222D01*
X154514913Y-35487652D01*
X154653533Y-35413557D01*
X154710147Y-35396384D01*
X154823373Y-35362037D01*
X154889557Y-35355519D01*
X154955740Y-35349000D01*
X155044260Y-35349000D01*
X155110443Y-35355519D01*
X155110443Y-35355519D01*
G37*
G36*
X152570443Y-35355519D02*
X152636627Y-35362037D01*
X152749853Y-35396384D01*
X152806467Y-35413557D01*
X152945087Y-35487652D01*
X152962991Y-35497222D01*
X152998729Y-35526552D01*
X153100186Y-35609814D01*
X153183448Y-35711271D01*
X153212778Y-35747009D01*
X153212779Y-35747011D01*
X153296443Y-35903533D01*
X153296443Y-35903534D01*
X153347963Y-36073373D01*
X153365359Y-36250000D01*
X153347963Y-36426627D01*
X153328300Y-36491447D01*
X153296443Y-36596467D01*
X153227918Y-36724667D01*
X153212778Y-36752991D01*
X153183448Y-36788729D01*
X153100186Y-36890186D01*
X152998729Y-36973448D01*
X152962991Y-37002778D01*
X152962989Y-37002779D01*
X152806467Y-37086443D01*
X152763327Y-37099529D01*
X152636627Y-37137963D01*
X152570442Y-37144482D01*
X152504260Y-37151000D01*
X152415740Y-37151000D01*
X152349558Y-37144482D01*
X152283373Y-37137963D01*
X152156673Y-37099529D01*
X152113533Y-37086443D01*
X151957011Y-37002779D01*
X151957009Y-37002778D01*
X151921271Y-36973448D01*
X151819814Y-36890186D01*
X151736552Y-36788729D01*
X151707222Y-36752991D01*
X151692082Y-36724667D01*
X151623557Y-36596467D01*
X151591700Y-36491447D01*
X151572037Y-36426627D01*
X151554641Y-36250000D01*
X151572037Y-36073373D01*
X151623557Y-35903534D01*
X151623557Y-35903533D01*
X151707221Y-35747011D01*
X151707222Y-35747009D01*
X151736552Y-35711271D01*
X151819814Y-35609814D01*
X151921271Y-35526552D01*
X151957009Y-35497222D01*
X151974913Y-35487652D01*
X152113533Y-35413557D01*
X152170147Y-35396384D01*
X152283373Y-35362037D01*
X152349557Y-35355519D01*
X152415740Y-35349000D01*
X152504260Y-35349000D01*
X152570443Y-35355519D01*
X152570443Y-35355519D01*
G37*
G36*
X150030443Y-35355519D02*
X150096627Y-35362037D01*
X150209853Y-35396384D01*
X150266467Y-35413557D01*
X150405087Y-35487652D01*
X150422991Y-35497222D01*
X150458729Y-35526552D01*
X150560186Y-35609814D01*
X150643448Y-35711271D01*
X150672778Y-35747009D01*
X150672779Y-35747011D01*
X150756443Y-35903533D01*
X150756443Y-35903534D01*
X150807963Y-36073373D01*
X150825359Y-36250000D01*
X150807963Y-36426627D01*
X150788300Y-36491447D01*
X150756443Y-36596467D01*
X150687918Y-36724667D01*
X150672778Y-36752991D01*
X150643448Y-36788729D01*
X150560186Y-36890186D01*
X150458729Y-36973448D01*
X150422991Y-37002778D01*
X150422989Y-37002779D01*
X150266467Y-37086443D01*
X150223327Y-37099529D01*
X150096627Y-37137963D01*
X150030442Y-37144482D01*
X149964260Y-37151000D01*
X149875740Y-37151000D01*
X149809558Y-37144482D01*
X149743373Y-37137963D01*
X149616673Y-37099529D01*
X149573533Y-37086443D01*
X149417011Y-37002779D01*
X149417009Y-37002778D01*
X149381271Y-36973448D01*
X149279814Y-36890186D01*
X149196552Y-36788729D01*
X149167222Y-36752991D01*
X149152082Y-36724667D01*
X149083557Y-36596467D01*
X149051700Y-36491447D01*
X149032037Y-36426627D01*
X149014641Y-36250000D01*
X149032037Y-36073373D01*
X149083557Y-35903534D01*
X149083557Y-35903533D01*
X149167221Y-35747011D01*
X149167222Y-35747009D01*
X149196552Y-35711271D01*
X149279814Y-35609814D01*
X149381271Y-35526552D01*
X149417009Y-35497222D01*
X149434913Y-35487652D01*
X149573533Y-35413557D01*
X149630147Y-35396384D01*
X149743373Y-35362037D01*
X149809557Y-35355519D01*
X149875740Y-35349000D01*
X149964260Y-35349000D01*
X150030443Y-35355519D01*
X150030443Y-35355519D01*
G37*
G36*
X63037142Y-34498242D02*
X63185102Y-34559530D01*
X63318258Y-34648502D01*
X63431498Y-34761742D01*
X63520470Y-34894898D01*
X63581758Y-35042858D01*
X63613000Y-35199925D01*
X63613000Y-35360075D01*
X63581758Y-35517142D01*
X63543371Y-35609814D01*
X63520471Y-35665100D01*
X63465742Y-35747009D01*
X63431498Y-35798258D01*
X63318258Y-35911498D01*
X63185102Y-36000470D01*
X63037142Y-36061758D01*
X62880075Y-36093000D01*
X62719925Y-36093000D01*
X62562858Y-36061758D01*
X62414898Y-36000470D01*
X62281742Y-35911498D01*
X62168502Y-35798258D01*
X62134259Y-35747009D01*
X62079529Y-35665100D01*
X62056629Y-35609814D01*
X62018242Y-35517142D01*
X61987000Y-35360075D01*
X61987000Y-35199925D01*
X62018242Y-35042858D01*
X62079530Y-34894898D01*
X62168502Y-34761742D01*
X62281742Y-34648502D01*
X62414898Y-34559530D01*
X62562858Y-34498242D01*
X62719925Y-34467000D01*
X62880075Y-34467000D01*
X63037142Y-34498242D01*
X63037142Y-34498242D01*
G37*
G36*
X45037142Y-34498242D02*
X45185102Y-34559530D01*
X45318258Y-34648502D01*
X45431498Y-34761742D01*
X45520470Y-34894898D01*
X45581758Y-35042858D01*
X45613000Y-35199925D01*
X45613000Y-35360075D01*
X45581758Y-35517142D01*
X45543371Y-35609814D01*
X45520471Y-35665100D01*
X45465742Y-35747009D01*
X45431498Y-35798258D01*
X45318258Y-35911498D01*
X45185102Y-36000470D01*
X45037142Y-36061758D01*
X44880075Y-36093000D01*
X44719925Y-36093000D01*
X44562858Y-36061758D01*
X44414898Y-36000470D01*
X44281742Y-35911498D01*
X44168502Y-35798258D01*
X44134259Y-35747009D01*
X44079529Y-35665100D01*
X44056629Y-35609814D01*
X44018242Y-35517142D01*
X43987000Y-35360075D01*
X43987000Y-35199925D01*
X44018242Y-35042858D01*
X44079530Y-34894898D01*
X44168502Y-34761742D01*
X44281742Y-34648502D01*
X44414898Y-34559530D01*
X44562858Y-34498242D01*
X44719925Y-34467000D01*
X44880075Y-34467000D01*
X45037142Y-34498242D01*
X45037142Y-34498242D01*
G37*
G36*
X45037142Y-31958242D02*
X45185102Y-32019530D01*
X45318258Y-32108502D01*
X45431498Y-32221742D01*
X45520470Y-32354898D01*
X45581758Y-32502858D01*
X45613000Y-32659925D01*
X45613000Y-32820075D01*
X45581758Y-32977142D01*
X45520470Y-33125102D01*
X45431498Y-33258258D01*
X45318258Y-33371498D01*
X45185102Y-33460470D01*
X45037142Y-33521758D01*
X44880075Y-33553000D01*
X44719925Y-33553000D01*
X44562858Y-33521758D01*
X44414898Y-33460470D01*
X44281742Y-33371498D01*
X44168502Y-33258258D01*
X44079530Y-33125102D01*
X44018242Y-32977142D01*
X43987000Y-32820075D01*
X43987000Y-32659925D01*
X44018242Y-32502858D01*
X44079530Y-32354898D01*
X44168502Y-32221742D01*
X44281742Y-32108502D01*
X44414898Y-32019530D01*
X44562858Y-31958242D01*
X44719925Y-31927000D01*
X44880075Y-31927000D01*
X45037142Y-31958242D01*
X45037142Y-31958242D01*
G37*
G36*
X63037142Y-31958242D02*
X63185102Y-32019530D01*
X63318258Y-32108502D01*
X63431498Y-32221742D01*
X63520470Y-32354898D01*
X63581758Y-32502858D01*
X63613000Y-32659925D01*
X63613000Y-32820075D01*
X63581758Y-32977142D01*
X63520470Y-33125102D01*
X63431498Y-33258258D01*
X63318258Y-33371498D01*
X63185102Y-33460470D01*
X63037142Y-33521758D01*
X62880075Y-33553000D01*
X62719925Y-33553000D01*
X62562858Y-33521758D01*
X62414898Y-33460470D01*
X62281742Y-33371498D01*
X62168502Y-33258258D01*
X62079530Y-33125102D01*
X62018242Y-32977142D01*
X61987000Y-32820075D01*
X61987000Y-32659925D01*
X62018242Y-32502858D01*
X62079530Y-32354898D01*
X62168502Y-32221742D01*
X62281742Y-32108502D01*
X62414898Y-32019530D01*
X62562858Y-31958242D01*
X62719925Y-31927000D01*
X62880075Y-31927000D01*
X63037142Y-31958242D01*
X63037142Y-31958242D01*
G37*
G36*
X63037142Y-29418242D02*
X63185102Y-29479530D01*
X63318258Y-29568502D01*
X63431498Y-29681742D01*
X63520470Y-29814898D01*
X63581758Y-29962858D01*
X63613000Y-30119925D01*
X63613000Y-30280075D01*
X63581758Y-30437142D01*
X63520470Y-30585102D01*
X63498834Y-30617482D01*
X63463217Y-30670788D01*
X63431498Y-30718258D01*
X63318258Y-30831498D01*
X63185102Y-30920470D01*
X63037142Y-30981758D01*
X62880075Y-31013000D01*
X62719925Y-31013000D01*
X62562858Y-30981758D01*
X62414898Y-30920470D01*
X62281742Y-30831498D01*
X62168502Y-30718258D01*
X62136784Y-30670788D01*
X62101166Y-30617482D01*
X62079530Y-30585102D01*
X62018242Y-30437142D01*
X61987000Y-30280075D01*
X61987000Y-30119925D01*
X62018242Y-29962858D01*
X62079530Y-29814898D01*
X62168502Y-29681742D01*
X62281742Y-29568502D01*
X62414898Y-29479530D01*
X62562858Y-29418242D01*
X62719925Y-29387000D01*
X62880075Y-29387000D01*
X63037142Y-29418242D01*
X63037142Y-29418242D01*
G37*
G36*
X45037142Y-29418242D02*
X45185102Y-29479530D01*
X45318258Y-29568502D01*
X45431498Y-29681742D01*
X45520470Y-29814898D01*
X45581758Y-29962858D01*
X45613000Y-30119925D01*
X45613000Y-30280075D01*
X45581758Y-30437142D01*
X45520470Y-30585102D01*
X45498834Y-30617482D01*
X45463217Y-30670788D01*
X45431498Y-30718258D01*
X45318258Y-30831498D01*
X45185102Y-30920470D01*
X45037142Y-30981758D01*
X44880075Y-31013000D01*
X44719925Y-31013000D01*
X44562858Y-30981758D01*
X44414898Y-30920470D01*
X44281742Y-30831498D01*
X44168502Y-30718258D01*
X44136784Y-30670788D01*
X44101166Y-30617482D01*
X44079530Y-30585102D01*
X44018242Y-30437142D01*
X43987000Y-30280075D01*
X43987000Y-30119925D01*
X44018242Y-29962858D01*
X44079530Y-29814898D01*
X44168502Y-29681742D01*
X44281742Y-29568502D01*
X44414898Y-29479530D01*
X44562858Y-29418242D01*
X44719925Y-29387000D01*
X44880075Y-29387000D01*
X45037142Y-29418242D01*
X45037142Y-29418242D01*
G37*
G36*
X163377617Y-28833420D02*
X163459426Y-28858237D01*
X163500332Y-28870645D01*
X163522544Y-28882518D01*
X163613425Y-28931095D01*
X163613427Y-28931096D01*
X163613426Y-28931096D01*
X163686965Y-28991447D01*
X163712553Y-29012447D01*
X163793905Y-29111574D01*
X163793906Y-29111576D01*
X163854355Y-29224667D01*
X163866763Y-29265573D01*
X163891580Y-29347382D01*
X163901000Y-29443027D01*
X163901000Y-30056973D01*
X163891580Y-30152618D01*
X163866763Y-30234427D01*
X163854355Y-30275333D01*
X163851820Y-30280075D01*
X163793905Y-30388426D01*
X163712553Y-30487553D01*
X163613426Y-30568905D01*
X163613424Y-30568906D01*
X163500333Y-30629355D01*
X163459427Y-30641763D01*
X163377618Y-30666580D01*
X163250000Y-30679149D01*
X163122383Y-30666580D01*
X163040574Y-30641763D01*
X162999668Y-30629355D01*
X162886577Y-30568906D01*
X162886575Y-30568905D01*
X162787448Y-30487553D01*
X162706095Y-30388426D01*
X162648180Y-30280075D01*
X162645645Y-30275333D01*
X162633237Y-30234427D01*
X162608420Y-30152618D01*
X162599000Y-30056973D01*
X162599000Y-29443028D01*
X162608420Y-29347383D01*
X162645645Y-29224669D01*
X162645645Y-29224668D01*
X162677957Y-29164218D01*
X162706095Y-29111575D01*
X162787447Y-29012447D01*
X162886574Y-28931095D01*
X162921400Y-28912480D01*
X162999667Y-28870645D01*
X163040573Y-28858237D01*
X163122382Y-28833420D01*
X163250000Y-28820851D01*
X163377617Y-28833420D01*
X163377617Y-28833420D01*
G37*
G36*
X156377617Y-28833420D02*
X156459426Y-28858237D01*
X156500332Y-28870645D01*
X156522544Y-28882518D01*
X156613425Y-28931095D01*
X156613427Y-28931096D01*
X156613426Y-28931096D01*
X156686965Y-28991447D01*
X156712553Y-29012447D01*
X156793905Y-29111574D01*
X156793906Y-29111576D01*
X156854355Y-29224667D01*
X156866763Y-29265573D01*
X156891580Y-29347382D01*
X156901000Y-29443027D01*
X156901000Y-30056973D01*
X156891580Y-30152618D01*
X156866763Y-30234427D01*
X156854355Y-30275333D01*
X156851820Y-30280075D01*
X156793905Y-30388426D01*
X156712553Y-30487553D01*
X156613426Y-30568905D01*
X156613424Y-30568906D01*
X156500333Y-30629355D01*
X156459427Y-30641763D01*
X156377618Y-30666580D01*
X156250000Y-30679149D01*
X156122383Y-30666580D01*
X156040574Y-30641763D01*
X155999668Y-30629355D01*
X155886577Y-30568906D01*
X155886575Y-30568905D01*
X155787448Y-30487553D01*
X155706095Y-30388426D01*
X155648180Y-30280075D01*
X155645645Y-30275333D01*
X155633237Y-30234427D01*
X155608420Y-30152618D01*
X155599000Y-30056973D01*
X155599000Y-29443028D01*
X155608420Y-29347383D01*
X155645645Y-29224669D01*
X155645645Y-29224668D01*
X155677957Y-29164218D01*
X155706095Y-29111575D01*
X155787447Y-29012447D01*
X155886574Y-28931095D01*
X155921400Y-28912480D01*
X155999667Y-28870645D01*
X156040573Y-28858237D01*
X156122382Y-28833420D01*
X156250000Y-28820851D01*
X156377617Y-28833420D01*
X156377617Y-28833420D01*
G37*
G36*
X174377617Y-28833420D02*
X174459426Y-28858237D01*
X174500332Y-28870645D01*
X174522544Y-28882518D01*
X174613425Y-28931095D01*
X174613427Y-28931096D01*
X174613426Y-28931096D01*
X174686965Y-28991447D01*
X174712553Y-29012447D01*
X174793905Y-29111574D01*
X174793906Y-29111576D01*
X174854355Y-29224667D01*
X174866763Y-29265573D01*
X174891580Y-29347382D01*
X174901000Y-29443027D01*
X174901000Y-30056973D01*
X174891580Y-30152618D01*
X174866763Y-30234427D01*
X174854355Y-30275333D01*
X174851820Y-30280075D01*
X174793905Y-30388426D01*
X174712553Y-30487553D01*
X174613426Y-30568905D01*
X174613424Y-30568906D01*
X174500333Y-30629355D01*
X174459427Y-30641763D01*
X174377618Y-30666580D01*
X174250000Y-30679149D01*
X174122383Y-30666580D01*
X174040574Y-30641763D01*
X173999668Y-30629355D01*
X173886577Y-30568906D01*
X173886575Y-30568905D01*
X173787448Y-30487553D01*
X173706095Y-30388426D01*
X173648180Y-30280075D01*
X173645645Y-30275333D01*
X173633237Y-30234427D01*
X173608420Y-30152618D01*
X173599000Y-30056973D01*
X173599000Y-29443028D01*
X173608420Y-29347383D01*
X173645645Y-29224669D01*
X173645645Y-29224668D01*
X173677957Y-29164218D01*
X173706095Y-29111575D01*
X173787447Y-29012447D01*
X173886574Y-28931095D01*
X173921400Y-28912480D01*
X173999667Y-28870645D01*
X174040573Y-28858237D01*
X174122382Y-28833420D01*
X174250000Y-28820851D01*
X174377617Y-28833420D01*
X174377617Y-28833420D01*
G37*
G36*
X181377617Y-28833420D02*
X181459426Y-28858237D01*
X181500332Y-28870645D01*
X181522544Y-28882518D01*
X181613425Y-28931095D01*
X181613427Y-28931096D01*
X181613426Y-28931096D01*
X181686965Y-28991447D01*
X181712553Y-29012447D01*
X181793905Y-29111574D01*
X181793906Y-29111576D01*
X181854355Y-29224667D01*
X181866763Y-29265573D01*
X181891580Y-29347382D01*
X181901000Y-29443027D01*
X181901000Y-30056973D01*
X181891580Y-30152618D01*
X181866763Y-30234427D01*
X181854355Y-30275333D01*
X181851820Y-30280075D01*
X181793905Y-30388426D01*
X181712553Y-30487553D01*
X181613426Y-30568905D01*
X181613424Y-30568906D01*
X181500333Y-30629355D01*
X181459427Y-30641763D01*
X181377618Y-30666580D01*
X181250000Y-30679149D01*
X181122383Y-30666580D01*
X181040574Y-30641763D01*
X180999668Y-30629355D01*
X180886577Y-30568906D01*
X180886575Y-30568905D01*
X180787448Y-30487553D01*
X180706095Y-30388426D01*
X180648180Y-30280075D01*
X180645645Y-30275333D01*
X180633237Y-30234427D01*
X180608420Y-30152618D01*
X180599000Y-30056973D01*
X180599000Y-29443028D01*
X180608420Y-29347383D01*
X180645645Y-29224669D01*
X180645645Y-29224668D01*
X180677957Y-29164218D01*
X180706095Y-29111575D01*
X180787447Y-29012447D01*
X180886574Y-28931095D01*
X180921400Y-28912480D01*
X180999667Y-28870645D01*
X181040573Y-28858237D01*
X181122382Y-28833420D01*
X181250000Y-28820851D01*
X181377617Y-28833420D01*
X181377617Y-28833420D01*
G37*
G36*
X167377617Y-28833420D02*
X167459426Y-28858237D01*
X167500332Y-28870645D01*
X167522544Y-28882518D01*
X167613425Y-28931095D01*
X167613427Y-28931096D01*
X167613426Y-28931096D01*
X167686965Y-28991447D01*
X167712553Y-29012447D01*
X167793905Y-29111574D01*
X167793906Y-29111576D01*
X167854355Y-29224667D01*
X167866763Y-29265573D01*
X167891580Y-29347382D01*
X167901000Y-29443027D01*
X167901000Y-30056973D01*
X167891580Y-30152618D01*
X167866763Y-30234427D01*
X167854355Y-30275333D01*
X167851820Y-30280075D01*
X167793905Y-30388426D01*
X167712553Y-30487553D01*
X167613426Y-30568905D01*
X167613424Y-30568906D01*
X167500333Y-30629355D01*
X167459427Y-30641763D01*
X167377618Y-30666580D01*
X167250000Y-30679149D01*
X167122383Y-30666580D01*
X167040574Y-30641763D01*
X166999668Y-30629355D01*
X166886577Y-30568906D01*
X166886575Y-30568905D01*
X166787448Y-30487553D01*
X166706095Y-30388426D01*
X166648180Y-30280075D01*
X166645645Y-30275333D01*
X166633237Y-30234427D01*
X166608420Y-30152618D01*
X166599000Y-30056973D01*
X166599000Y-29443028D01*
X166608420Y-29347383D01*
X166645645Y-29224669D01*
X166645645Y-29224668D01*
X166677957Y-29164218D01*
X166706095Y-29111575D01*
X166787447Y-29012447D01*
X166886574Y-28931095D01*
X166921400Y-28912480D01*
X166999667Y-28870645D01*
X167040573Y-28858237D01*
X167122382Y-28833420D01*
X167250000Y-28820851D01*
X167377617Y-28833420D01*
X167377617Y-28833420D01*
G37*
G36*
X165377617Y-28833420D02*
X165459426Y-28858237D01*
X165500332Y-28870645D01*
X165522544Y-28882518D01*
X165613425Y-28931095D01*
X165613427Y-28931096D01*
X165613426Y-28931096D01*
X165686965Y-28991447D01*
X165712553Y-29012447D01*
X165793905Y-29111574D01*
X165793906Y-29111576D01*
X165854355Y-29224667D01*
X165866763Y-29265573D01*
X165891580Y-29347382D01*
X165901000Y-29443027D01*
X165901000Y-30056973D01*
X165891580Y-30152618D01*
X165866763Y-30234427D01*
X165854355Y-30275333D01*
X165851820Y-30280075D01*
X165793905Y-30388426D01*
X165712553Y-30487553D01*
X165613426Y-30568905D01*
X165613424Y-30568906D01*
X165500333Y-30629355D01*
X165459427Y-30641763D01*
X165377618Y-30666580D01*
X165250000Y-30679149D01*
X165122383Y-30666580D01*
X165040574Y-30641763D01*
X164999668Y-30629355D01*
X164886577Y-30568906D01*
X164886575Y-30568905D01*
X164787448Y-30487553D01*
X164706095Y-30388426D01*
X164648180Y-30280075D01*
X164645645Y-30275333D01*
X164633237Y-30234427D01*
X164608420Y-30152618D01*
X164599000Y-30056973D01*
X164599000Y-29443028D01*
X164608420Y-29347383D01*
X164645645Y-29224669D01*
X164645645Y-29224668D01*
X164677957Y-29164218D01*
X164706095Y-29111575D01*
X164787447Y-29012447D01*
X164886574Y-28931095D01*
X164921400Y-28912480D01*
X164999667Y-28870645D01*
X165040573Y-28858237D01*
X165122382Y-28833420D01*
X165250000Y-28820851D01*
X165377617Y-28833420D01*
X165377617Y-28833420D01*
G37*
G36*
X154741242Y-28828404D02*
X154778339Y-28839657D01*
X154812520Y-28857927D01*
X154842482Y-28882518D01*
X154867073Y-28912480D01*
X154885343Y-28946661D01*
X154896596Y-28983758D01*
X154901000Y-29028473D01*
X154901000Y-30471527D01*
X154896596Y-30516242D01*
X154885343Y-30553339D01*
X154867073Y-30587520D01*
X154842482Y-30617482D01*
X154812520Y-30642073D01*
X154778339Y-30660343D01*
X154741242Y-30671596D01*
X154696527Y-30676000D01*
X153803473Y-30676000D01*
X153758758Y-30671596D01*
X153721661Y-30660343D01*
X153687480Y-30642073D01*
X153657518Y-30617482D01*
X153632927Y-30587520D01*
X153614657Y-30553339D01*
X153603404Y-30516242D01*
X153599000Y-30471527D01*
X153599000Y-29028473D01*
X153603404Y-28983758D01*
X153614657Y-28946661D01*
X153632927Y-28912480D01*
X153657518Y-28882518D01*
X153687480Y-28857927D01*
X153721661Y-28839657D01*
X153758758Y-28828404D01*
X153803473Y-28824000D01*
X154696527Y-28824000D01*
X154741242Y-28828404D01*
X154741242Y-28828404D01*
G37*
G36*
X161741242Y-28828404D02*
X161778339Y-28839657D01*
X161812520Y-28857927D01*
X161842482Y-28882518D01*
X161867073Y-28912480D01*
X161885343Y-28946661D01*
X161896596Y-28983758D01*
X161901000Y-29028473D01*
X161901000Y-30471527D01*
X161896596Y-30516242D01*
X161885343Y-30553339D01*
X161867073Y-30587520D01*
X161842482Y-30617482D01*
X161812520Y-30642073D01*
X161778339Y-30660343D01*
X161741242Y-30671596D01*
X161696527Y-30676000D01*
X160803473Y-30676000D01*
X160758758Y-30671596D01*
X160721661Y-30660343D01*
X160687480Y-30642073D01*
X160657518Y-30617482D01*
X160632927Y-30587520D01*
X160614657Y-30553339D01*
X160603404Y-30516242D01*
X160599000Y-30471527D01*
X160599000Y-29028473D01*
X160603404Y-28983758D01*
X160614657Y-28946661D01*
X160632927Y-28912480D01*
X160657518Y-28882518D01*
X160687480Y-28857927D01*
X160721661Y-28839657D01*
X160758758Y-28828404D01*
X160803473Y-28824000D01*
X161696527Y-28824000D01*
X161741242Y-28828404D01*
X161741242Y-28828404D01*
G37*
G36*
X172741242Y-28828404D02*
X172778339Y-28839657D01*
X172812520Y-28857927D01*
X172842482Y-28882518D01*
X172867073Y-28912480D01*
X172885343Y-28946661D01*
X172896596Y-28983758D01*
X172901000Y-29028473D01*
X172901000Y-30471527D01*
X172896596Y-30516242D01*
X172885343Y-30553339D01*
X172867073Y-30587520D01*
X172842482Y-30617482D01*
X172812520Y-30642073D01*
X172778339Y-30660343D01*
X172741242Y-30671596D01*
X172696527Y-30676000D01*
X171803473Y-30676000D01*
X171758758Y-30671596D01*
X171721661Y-30660343D01*
X171687480Y-30642073D01*
X171657518Y-30617482D01*
X171632927Y-30587520D01*
X171614657Y-30553339D01*
X171603404Y-30516242D01*
X171599000Y-30471527D01*
X171599000Y-29028473D01*
X171603404Y-28983758D01*
X171614657Y-28946661D01*
X171632927Y-28912480D01*
X171657518Y-28882518D01*
X171687480Y-28857927D01*
X171721661Y-28839657D01*
X171758758Y-28828404D01*
X171803473Y-28824000D01*
X172696527Y-28824000D01*
X172741242Y-28828404D01*
X172741242Y-28828404D01*
G37*
G36*
X179741242Y-28828404D02*
X179778339Y-28839657D01*
X179812520Y-28857927D01*
X179842482Y-28882518D01*
X179867073Y-28912480D01*
X179885343Y-28946661D01*
X179896596Y-28983758D01*
X179901000Y-29028473D01*
X179901000Y-30471527D01*
X179896596Y-30516242D01*
X179885343Y-30553339D01*
X179867073Y-30587520D01*
X179842482Y-30617482D01*
X179812520Y-30642073D01*
X179778339Y-30660343D01*
X179741242Y-30671596D01*
X179696527Y-30676000D01*
X178803473Y-30676000D01*
X178758758Y-30671596D01*
X178721661Y-30660343D01*
X178687480Y-30642073D01*
X178657518Y-30617482D01*
X178632927Y-30587520D01*
X178614657Y-30553339D01*
X178603404Y-30516242D01*
X178599000Y-30471527D01*
X178599000Y-29028473D01*
X178603404Y-28983758D01*
X178614657Y-28946661D01*
X178632927Y-28912480D01*
X178657518Y-28882518D01*
X178687480Y-28857927D01*
X178721661Y-28839657D01*
X178758758Y-28828404D01*
X178803473Y-28824000D01*
X179696527Y-28824000D01*
X179741242Y-28828404D01*
X179741242Y-28828404D01*
G37*
G36*
X63037142Y-26878242D02*
X63185102Y-26939530D01*
X63318258Y-27028502D01*
X63431498Y-27141742D01*
X63520470Y-27274898D01*
X63581758Y-27422858D01*
X63613000Y-27579925D01*
X63613000Y-27740075D01*
X63581758Y-27897142D01*
X63520470Y-28045102D01*
X63431498Y-28178258D01*
X63318258Y-28291498D01*
X63185102Y-28380470D01*
X63037142Y-28441758D01*
X62880075Y-28473000D01*
X62719925Y-28473000D01*
X62562858Y-28441758D01*
X62414898Y-28380470D01*
X62281742Y-28291498D01*
X62168502Y-28178258D01*
X62079530Y-28045102D01*
X62018242Y-27897142D01*
X61987000Y-27740075D01*
X61987000Y-27579925D01*
X62018242Y-27422858D01*
X62079530Y-27274898D01*
X62168502Y-27141742D01*
X62281742Y-27028502D01*
X62414898Y-26939530D01*
X62562858Y-26878242D01*
X62719925Y-26847000D01*
X62880075Y-26847000D01*
X63037142Y-26878242D01*
X63037142Y-26878242D01*
G37*
G36*
X45037142Y-26878242D02*
X45185102Y-26939530D01*
X45318258Y-27028502D01*
X45431498Y-27141742D01*
X45520470Y-27274898D01*
X45581758Y-27422858D01*
X45613000Y-27579925D01*
X45613000Y-27740075D01*
X45581758Y-27897142D01*
X45520470Y-28045102D01*
X45431498Y-28178258D01*
X45318258Y-28291498D01*
X45185102Y-28380470D01*
X45037142Y-28441758D01*
X44880075Y-28473000D01*
X44719925Y-28473000D01*
X44562858Y-28441758D01*
X44414898Y-28380470D01*
X44281742Y-28291498D01*
X44168502Y-28178258D01*
X44079530Y-28045102D01*
X44018242Y-27897142D01*
X43987000Y-27740075D01*
X43987000Y-27579925D01*
X44018242Y-27422858D01*
X44079530Y-27274898D01*
X44168502Y-27141742D01*
X44281742Y-27028502D01*
X44414898Y-26939530D01*
X44562858Y-26878242D01*
X44719925Y-26847000D01*
X44880075Y-26847000D01*
X45037142Y-26878242D01*
X45037142Y-26878242D01*
G37*
G36*
X63037142Y-24338242D02*
X63185102Y-24399530D01*
X63318258Y-24488502D01*
X63431498Y-24601742D01*
X63520470Y-24734898D01*
X63581758Y-24882858D01*
X63613000Y-25039925D01*
X63613000Y-25200075D01*
X63581758Y-25357142D01*
X63520470Y-25505102D01*
X63431498Y-25638258D01*
X63318258Y-25751498D01*
X63185102Y-25840470D01*
X63037142Y-25901758D01*
X62880075Y-25933000D01*
X62719925Y-25933000D01*
X62562858Y-25901758D01*
X62414898Y-25840470D01*
X62281742Y-25751498D01*
X62168502Y-25638258D01*
X62079530Y-25505102D01*
X62018242Y-25357142D01*
X61987000Y-25200075D01*
X61987000Y-25039925D01*
X62018242Y-24882858D01*
X62079530Y-24734898D01*
X62168502Y-24601742D01*
X62281742Y-24488502D01*
X62414898Y-24399530D01*
X62562858Y-24338242D01*
X62719925Y-24307000D01*
X62880075Y-24307000D01*
X63037142Y-24338242D01*
X63037142Y-24338242D01*
G37*
G36*
X45037142Y-24338242D02*
X45185102Y-24399530D01*
X45318258Y-24488502D01*
X45431498Y-24601742D01*
X45520470Y-24734898D01*
X45581758Y-24882858D01*
X45613000Y-25039925D01*
X45613000Y-25200075D01*
X45581758Y-25357142D01*
X45520470Y-25505102D01*
X45431498Y-25638258D01*
X45318258Y-25751498D01*
X45185102Y-25840470D01*
X45037142Y-25901758D01*
X44880075Y-25933000D01*
X44719925Y-25933000D01*
X44562858Y-25901758D01*
X44414898Y-25840470D01*
X44281742Y-25751498D01*
X44168502Y-25638258D01*
X44079530Y-25505102D01*
X44018242Y-25357142D01*
X43987000Y-25200075D01*
X43987000Y-25039925D01*
X44018242Y-24882858D01*
X44079530Y-24734898D01*
X44168502Y-24601742D01*
X44281742Y-24488502D01*
X44414898Y-24399530D01*
X44562858Y-24338242D01*
X44719925Y-24307000D01*
X44880075Y-24307000D01*
X45037142Y-24338242D01*
X45037142Y-24338242D01*
G37*
G36*
X67779472Y-22175938D02*
X67907049Y-22228782D01*
X68021865Y-22305500D01*
X68119500Y-22403135D01*
X68196218Y-22517951D01*
X68249062Y-22645528D01*
X68276000Y-22780956D01*
X68276000Y-22919044D01*
X68249062Y-23054472D01*
X68196218Y-23182049D01*
X68119500Y-23296865D01*
X68021865Y-23394500D01*
X67907049Y-23471218D01*
X67779472Y-23524062D01*
X67644044Y-23551000D01*
X67505956Y-23551000D01*
X67370528Y-23524062D01*
X67242951Y-23471218D01*
X67128135Y-23394500D01*
X67030500Y-23296865D01*
X66953782Y-23182049D01*
X66900938Y-23054472D01*
X66874000Y-22919044D01*
X66874000Y-22780956D01*
X66900938Y-22645528D01*
X66953782Y-22517951D01*
X67030500Y-22403135D01*
X67128135Y-22305500D01*
X67242951Y-22228782D01*
X67370528Y-22175938D01*
X67505956Y-22149000D01*
X67644044Y-22149000D01*
X67779472Y-22175938D01*
X67779472Y-22175938D01*
G37*
G36*
X72629472Y-22175938D02*
X72757049Y-22228782D01*
X72871865Y-22305500D01*
X72969500Y-22403135D01*
X73046218Y-22517951D01*
X73099062Y-22645528D01*
X73126000Y-22780956D01*
X73126000Y-22919044D01*
X73099062Y-23054472D01*
X73046218Y-23182049D01*
X72969500Y-23296865D01*
X72871865Y-23394500D01*
X72757049Y-23471218D01*
X72629472Y-23524062D01*
X72494044Y-23551000D01*
X72355956Y-23551000D01*
X72220528Y-23524062D01*
X72092951Y-23471218D01*
X71978135Y-23394500D01*
X71880500Y-23296865D01*
X71803782Y-23182049D01*
X71750938Y-23054472D01*
X71724000Y-22919044D01*
X71724000Y-22780956D01*
X71750938Y-22645528D01*
X71803782Y-22517951D01*
X71880500Y-22403135D01*
X71978135Y-22305500D01*
X72092951Y-22228782D01*
X72220528Y-22175938D01*
X72355956Y-22149000D01*
X72494044Y-22149000D01*
X72629472Y-22175938D01*
X72629472Y-22175938D01*
G37*
G36*
X177377617Y-21583420D02*
X177459426Y-21608237D01*
X177500332Y-21620645D01*
X177522544Y-21632518D01*
X177613425Y-21681095D01*
X177613427Y-21681096D01*
X177613426Y-21681096D01*
X177686965Y-21741447D01*
X177712553Y-21762447D01*
X177793905Y-21861574D01*
X177793906Y-21861576D01*
X177854355Y-21974667D01*
X177866763Y-22015573D01*
X177891580Y-22097382D01*
X177891580Y-22097384D01*
X177901000Y-22193026D01*
X177901000Y-22806974D01*
X177899998Y-22817143D01*
X177891580Y-22902618D01*
X177866763Y-22984427D01*
X177854355Y-23025333D01*
X177815376Y-23098257D01*
X177793905Y-23138426D01*
X177712553Y-23237553D01*
X177613426Y-23318905D01*
X177613424Y-23318906D01*
X177500333Y-23379355D01*
X177459427Y-23391763D01*
X177377618Y-23416580D01*
X177250000Y-23429149D01*
X177122383Y-23416580D01*
X177040574Y-23391763D01*
X176999668Y-23379355D01*
X176886577Y-23318906D01*
X176886575Y-23318905D01*
X176787448Y-23237553D01*
X176706095Y-23138426D01*
X176661221Y-23054472D01*
X176645645Y-23025333D01*
X176633237Y-22984427D01*
X176608420Y-22902618D01*
X176600002Y-22817143D01*
X176599000Y-22806974D01*
X176599000Y-22193027D01*
X176608420Y-22097385D01*
X176608420Y-22097383D01*
X176645645Y-21974669D01*
X176645645Y-21974668D01*
X176677957Y-21914218D01*
X176706095Y-21861575D01*
X176762922Y-21792331D01*
X176787445Y-21762449D01*
X176787447Y-21762447D01*
X176886574Y-21681095D01*
X176921400Y-21662480D01*
X176999667Y-21620645D01*
X177040573Y-21608237D01*
X177122382Y-21583420D01*
X177250000Y-21570851D01*
X177377617Y-21583420D01*
X177377617Y-21583420D01*
G37*
G36*
X179377617Y-21583420D02*
X179459426Y-21608237D01*
X179500332Y-21620645D01*
X179522544Y-21632518D01*
X179613425Y-21681095D01*
X179613427Y-21681096D01*
X179613426Y-21681096D01*
X179686965Y-21741447D01*
X179712553Y-21762447D01*
X179793905Y-21861574D01*
X179793906Y-21861576D01*
X179854355Y-21974667D01*
X179866763Y-22015573D01*
X179891580Y-22097382D01*
X179891580Y-22097384D01*
X179901000Y-22193026D01*
X179901000Y-22806974D01*
X179899998Y-22817143D01*
X179891580Y-22902618D01*
X179866763Y-22984427D01*
X179854355Y-23025333D01*
X179815376Y-23098257D01*
X179793905Y-23138426D01*
X179712553Y-23237553D01*
X179613426Y-23318905D01*
X179613424Y-23318906D01*
X179500333Y-23379355D01*
X179459427Y-23391763D01*
X179377618Y-23416580D01*
X179250000Y-23429149D01*
X179122383Y-23416580D01*
X179040574Y-23391763D01*
X178999668Y-23379355D01*
X178886577Y-23318906D01*
X178886575Y-23318905D01*
X178787448Y-23237553D01*
X178706095Y-23138426D01*
X178661221Y-23054472D01*
X178645645Y-23025333D01*
X178633237Y-22984427D01*
X178608420Y-22902618D01*
X178600002Y-22817143D01*
X178599000Y-22806974D01*
X178599000Y-22193027D01*
X178608420Y-22097385D01*
X178608420Y-22097383D01*
X178645645Y-21974669D01*
X178645645Y-21974668D01*
X178677957Y-21914218D01*
X178706095Y-21861575D01*
X178762922Y-21792331D01*
X178787445Y-21762449D01*
X178787447Y-21762447D01*
X178886574Y-21681095D01*
X178921400Y-21662480D01*
X178999667Y-21620645D01*
X179040573Y-21608237D01*
X179122382Y-21583420D01*
X179250000Y-21570851D01*
X179377617Y-21583420D01*
X179377617Y-21583420D01*
G37*
G36*
X181377617Y-21583420D02*
X181459426Y-21608237D01*
X181500332Y-21620645D01*
X181522544Y-21632518D01*
X181613425Y-21681095D01*
X181613427Y-21681096D01*
X181613426Y-21681096D01*
X181686965Y-21741447D01*
X181712553Y-21762447D01*
X181793905Y-21861574D01*
X181793906Y-21861576D01*
X181854355Y-21974667D01*
X181866763Y-22015573D01*
X181891580Y-22097382D01*
X181891580Y-22097384D01*
X181901000Y-22193026D01*
X181901000Y-22806974D01*
X181899998Y-22817143D01*
X181891580Y-22902618D01*
X181866763Y-22984427D01*
X181854355Y-23025333D01*
X181815376Y-23098257D01*
X181793905Y-23138426D01*
X181712553Y-23237553D01*
X181613426Y-23318905D01*
X181613424Y-23318906D01*
X181500333Y-23379355D01*
X181459427Y-23391763D01*
X181377618Y-23416580D01*
X181250000Y-23429149D01*
X181122383Y-23416580D01*
X181040574Y-23391763D01*
X180999668Y-23379355D01*
X180886577Y-23318906D01*
X180886575Y-23318905D01*
X180787448Y-23237553D01*
X180706095Y-23138426D01*
X180661221Y-23054472D01*
X180645645Y-23025333D01*
X180633237Y-22984427D01*
X180608420Y-22902618D01*
X180600002Y-22817143D01*
X180599000Y-22806974D01*
X180599000Y-22193027D01*
X180608420Y-22097385D01*
X180608420Y-22097383D01*
X180645645Y-21974669D01*
X180645645Y-21974668D01*
X180677957Y-21914218D01*
X180706095Y-21861575D01*
X180762922Y-21792331D01*
X180787445Y-21762449D01*
X180787447Y-21762447D01*
X180886574Y-21681095D01*
X180921400Y-21662480D01*
X180999667Y-21620645D01*
X181040573Y-21608237D01*
X181122382Y-21583420D01*
X181250000Y-21570851D01*
X181377617Y-21583420D01*
X181377617Y-21583420D01*
G37*
G36*
X159377617Y-21583420D02*
X159459426Y-21608237D01*
X159500332Y-21620645D01*
X159522544Y-21632518D01*
X159613425Y-21681095D01*
X159613427Y-21681096D01*
X159613426Y-21681096D01*
X159686965Y-21741447D01*
X159712553Y-21762447D01*
X159793905Y-21861574D01*
X159793906Y-21861576D01*
X159854355Y-21974667D01*
X159866763Y-22015573D01*
X159891580Y-22097382D01*
X159891580Y-22097384D01*
X159901000Y-22193026D01*
X159901000Y-22806974D01*
X159899998Y-22817143D01*
X159891580Y-22902618D01*
X159866763Y-22984427D01*
X159854355Y-23025333D01*
X159815376Y-23098257D01*
X159793905Y-23138426D01*
X159712553Y-23237553D01*
X159613426Y-23318905D01*
X159613424Y-23318906D01*
X159500333Y-23379355D01*
X159459427Y-23391763D01*
X159377618Y-23416580D01*
X159250000Y-23429149D01*
X159122383Y-23416580D01*
X159040574Y-23391763D01*
X158999668Y-23379355D01*
X158886577Y-23318906D01*
X158886575Y-23318905D01*
X158787448Y-23237553D01*
X158706095Y-23138426D01*
X158661221Y-23054472D01*
X158645645Y-23025333D01*
X158633237Y-22984427D01*
X158608420Y-22902618D01*
X158600002Y-22817143D01*
X158599000Y-22806974D01*
X158599000Y-22193027D01*
X158608420Y-22097385D01*
X158608420Y-22097383D01*
X158645645Y-21974669D01*
X158645645Y-21974668D01*
X158677957Y-21914218D01*
X158706095Y-21861575D01*
X158762922Y-21792331D01*
X158787445Y-21762449D01*
X158787447Y-21762447D01*
X158886574Y-21681095D01*
X158921400Y-21662480D01*
X158999667Y-21620645D01*
X159040573Y-21608237D01*
X159122382Y-21583420D01*
X159250000Y-21570851D01*
X159377617Y-21583420D01*
X159377617Y-21583420D01*
G37*
G36*
X166377617Y-21583420D02*
X166459426Y-21608237D01*
X166500332Y-21620645D01*
X166522544Y-21632518D01*
X166613425Y-21681095D01*
X166613427Y-21681096D01*
X166613426Y-21681096D01*
X166686965Y-21741447D01*
X166712553Y-21762447D01*
X166793905Y-21861574D01*
X166793906Y-21861576D01*
X166854355Y-21974667D01*
X166866763Y-22015573D01*
X166891580Y-22097382D01*
X166891580Y-22097384D01*
X166901000Y-22193026D01*
X166901000Y-22806974D01*
X166899998Y-22817143D01*
X166891580Y-22902618D01*
X166866763Y-22984427D01*
X166854355Y-23025333D01*
X166815376Y-23098257D01*
X166793905Y-23138426D01*
X166712553Y-23237553D01*
X166613426Y-23318905D01*
X166613424Y-23318906D01*
X166500333Y-23379355D01*
X166459427Y-23391763D01*
X166377618Y-23416580D01*
X166250000Y-23429149D01*
X166122383Y-23416580D01*
X166040574Y-23391763D01*
X165999668Y-23379355D01*
X165886577Y-23318906D01*
X165886575Y-23318905D01*
X165787448Y-23237553D01*
X165706095Y-23138426D01*
X165661221Y-23054472D01*
X165645645Y-23025333D01*
X165633237Y-22984427D01*
X165608420Y-22902618D01*
X165600002Y-22817143D01*
X165599000Y-22806974D01*
X165599000Y-22193027D01*
X165608420Y-22097385D01*
X165608420Y-22097383D01*
X165645645Y-21974669D01*
X165645645Y-21974668D01*
X165677957Y-21914218D01*
X165706095Y-21861575D01*
X165762922Y-21792331D01*
X165787445Y-21762449D01*
X165787447Y-21762447D01*
X165886574Y-21681095D01*
X165921400Y-21662480D01*
X165999667Y-21620645D01*
X166040573Y-21608237D01*
X166122382Y-21583420D01*
X166250000Y-21570851D01*
X166377617Y-21583420D01*
X166377617Y-21583420D01*
G37*
G36*
X168377617Y-21583420D02*
X168459426Y-21608237D01*
X168500332Y-21620645D01*
X168522544Y-21632518D01*
X168613425Y-21681095D01*
X168613427Y-21681096D01*
X168613426Y-21681096D01*
X168686965Y-21741447D01*
X168712553Y-21762447D01*
X168793905Y-21861574D01*
X168793906Y-21861576D01*
X168854355Y-21974667D01*
X168866763Y-22015573D01*
X168891580Y-22097382D01*
X168891580Y-22097384D01*
X168901000Y-22193026D01*
X168901000Y-22806974D01*
X168899998Y-22817143D01*
X168891580Y-22902618D01*
X168866763Y-22984427D01*
X168854355Y-23025333D01*
X168815376Y-23098257D01*
X168793905Y-23138426D01*
X168712553Y-23237553D01*
X168613426Y-23318905D01*
X168613424Y-23318906D01*
X168500333Y-23379355D01*
X168459427Y-23391763D01*
X168377618Y-23416580D01*
X168250000Y-23429149D01*
X168122383Y-23416580D01*
X168040574Y-23391763D01*
X167999668Y-23379355D01*
X167886577Y-23318906D01*
X167886575Y-23318905D01*
X167787448Y-23237553D01*
X167706095Y-23138426D01*
X167661221Y-23054472D01*
X167645645Y-23025333D01*
X167633237Y-22984427D01*
X167608420Y-22902618D01*
X167600002Y-22817143D01*
X167599000Y-22806974D01*
X167599000Y-22193027D01*
X167608420Y-22097385D01*
X167608420Y-22097383D01*
X167645645Y-21974669D01*
X167645645Y-21974668D01*
X167677957Y-21914218D01*
X167706095Y-21861575D01*
X167762922Y-21792331D01*
X167787445Y-21762449D01*
X167787447Y-21762447D01*
X167886574Y-21681095D01*
X167921400Y-21662480D01*
X167999667Y-21620645D01*
X168040573Y-21608237D01*
X168122382Y-21583420D01*
X168250000Y-21570851D01*
X168377617Y-21583420D01*
X168377617Y-21583420D01*
G37*
G36*
X170377617Y-21583420D02*
X170459426Y-21608237D01*
X170500332Y-21620645D01*
X170522544Y-21632518D01*
X170613425Y-21681095D01*
X170613427Y-21681096D01*
X170613426Y-21681096D01*
X170686965Y-21741447D01*
X170712553Y-21762447D01*
X170793905Y-21861574D01*
X170793906Y-21861576D01*
X170854355Y-21974667D01*
X170866763Y-22015573D01*
X170891580Y-22097382D01*
X170891580Y-22097384D01*
X170901000Y-22193026D01*
X170901000Y-22806974D01*
X170899998Y-22817143D01*
X170891580Y-22902618D01*
X170866763Y-22984427D01*
X170854355Y-23025333D01*
X170815376Y-23098257D01*
X170793905Y-23138426D01*
X170712553Y-23237553D01*
X170613426Y-23318905D01*
X170613424Y-23318906D01*
X170500333Y-23379355D01*
X170459427Y-23391763D01*
X170377618Y-23416580D01*
X170250000Y-23429149D01*
X170122383Y-23416580D01*
X170040574Y-23391763D01*
X169999668Y-23379355D01*
X169886577Y-23318906D01*
X169886575Y-23318905D01*
X169787448Y-23237553D01*
X169706095Y-23138426D01*
X169661221Y-23054472D01*
X169645645Y-23025333D01*
X169633237Y-22984427D01*
X169608420Y-22902618D01*
X169600002Y-22817143D01*
X169599000Y-22806974D01*
X169599000Y-22193027D01*
X169608420Y-22097385D01*
X169608420Y-22097383D01*
X169645645Y-21974669D01*
X169645645Y-21974668D01*
X169677957Y-21914218D01*
X169706095Y-21861575D01*
X169762922Y-21792331D01*
X169787445Y-21762449D01*
X169787447Y-21762447D01*
X169886574Y-21681095D01*
X169921400Y-21662480D01*
X169999667Y-21620645D01*
X170040573Y-21608237D01*
X170122382Y-21583420D01*
X170250000Y-21570851D01*
X170377617Y-21583420D01*
X170377617Y-21583420D01*
G37*
G36*
X157377617Y-21583420D02*
X157459426Y-21608237D01*
X157500332Y-21620645D01*
X157522544Y-21632518D01*
X157613425Y-21681095D01*
X157613427Y-21681096D01*
X157613426Y-21681096D01*
X157686965Y-21741447D01*
X157712553Y-21762447D01*
X157793905Y-21861574D01*
X157793906Y-21861576D01*
X157854355Y-21974667D01*
X157866763Y-22015573D01*
X157891580Y-22097382D01*
X157891580Y-22097384D01*
X157901000Y-22193026D01*
X157901000Y-22806974D01*
X157899998Y-22817143D01*
X157891580Y-22902618D01*
X157866763Y-22984427D01*
X157854355Y-23025333D01*
X157815376Y-23098257D01*
X157793905Y-23138426D01*
X157712553Y-23237553D01*
X157613426Y-23318905D01*
X157613424Y-23318906D01*
X157500333Y-23379355D01*
X157459427Y-23391763D01*
X157377618Y-23416580D01*
X157250000Y-23429149D01*
X157122383Y-23416580D01*
X157040574Y-23391763D01*
X156999668Y-23379355D01*
X156886577Y-23318906D01*
X156886575Y-23318905D01*
X156787448Y-23237553D01*
X156706095Y-23138426D01*
X156661221Y-23054472D01*
X156645645Y-23025333D01*
X156633237Y-22984427D01*
X156608420Y-22902618D01*
X156600002Y-22817143D01*
X156599000Y-22806974D01*
X156599000Y-22193027D01*
X156608420Y-22097385D01*
X156608420Y-22097383D01*
X156645645Y-21974669D01*
X156645645Y-21974668D01*
X156677957Y-21914218D01*
X156706095Y-21861575D01*
X156762922Y-21792331D01*
X156787445Y-21762449D01*
X156787447Y-21762447D01*
X156886574Y-21681095D01*
X156921400Y-21662480D01*
X156999667Y-21620645D01*
X157040573Y-21608237D01*
X157122382Y-21583420D01*
X157250000Y-21570851D01*
X157377617Y-21583420D01*
X157377617Y-21583420D01*
G37*
G36*
X155741242Y-21578404D02*
X155778339Y-21589657D01*
X155812520Y-21607927D01*
X155842482Y-21632518D01*
X155867073Y-21662480D01*
X155885343Y-21696661D01*
X155896596Y-21733758D01*
X155901000Y-21778473D01*
X155901000Y-23221527D01*
X155896596Y-23266242D01*
X155885343Y-23303339D01*
X155867073Y-23337520D01*
X155842482Y-23367482D01*
X155812520Y-23392073D01*
X155778339Y-23410343D01*
X155741242Y-23421596D01*
X155696527Y-23426000D01*
X154803473Y-23426000D01*
X154758758Y-23421596D01*
X154721661Y-23410343D01*
X154687480Y-23392073D01*
X154657518Y-23367482D01*
X154632927Y-23337520D01*
X154614657Y-23303339D01*
X154603404Y-23266242D01*
X154599000Y-23221527D01*
X154599000Y-21778473D01*
X154603404Y-21733758D01*
X154614657Y-21696661D01*
X154632927Y-21662480D01*
X154657518Y-21632518D01*
X154687480Y-21607927D01*
X154721661Y-21589657D01*
X154758758Y-21578404D01*
X154803473Y-21574000D01*
X155696527Y-21574000D01*
X155741242Y-21578404D01*
X155741242Y-21578404D01*
G37*
G36*
X175741242Y-21578404D02*
X175778339Y-21589657D01*
X175812520Y-21607927D01*
X175842482Y-21632518D01*
X175867073Y-21662480D01*
X175885343Y-21696661D01*
X175896596Y-21733758D01*
X175901000Y-21778473D01*
X175901000Y-23221527D01*
X175896596Y-23266242D01*
X175885343Y-23303339D01*
X175867073Y-23337520D01*
X175842482Y-23367482D01*
X175812520Y-23392073D01*
X175778339Y-23410343D01*
X175741242Y-23421596D01*
X175696527Y-23426000D01*
X174803473Y-23426000D01*
X174758758Y-23421596D01*
X174721661Y-23410343D01*
X174687480Y-23392073D01*
X174657518Y-23367482D01*
X174632927Y-23337520D01*
X174614657Y-23303339D01*
X174603404Y-23266242D01*
X174599000Y-23221527D01*
X174599000Y-21778473D01*
X174603404Y-21733758D01*
X174614657Y-21696661D01*
X174632927Y-21662480D01*
X174657518Y-21632518D01*
X174687480Y-21607927D01*
X174721661Y-21589657D01*
X174758758Y-21578404D01*
X174803473Y-21574000D01*
X175696527Y-21574000D01*
X175741242Y-21578404D01*
X175741242Y-21578404D01*
G37*
G36*
X164741242Y-21578404D02*
X164778339Y-21589657D01*
X164812520Y-21607927D01*
X164842482Y-21632518D01*
X164867073Y-21662480D01*
X164885343Y-21696661D01*
X164896596Y-21733758D01*
X164901000Y-21778473D01*
X164901000Y-23221527D01*
X164896596Y-23266242D01*
X164885343Y-23303339D01*
X164867073Y-23337520D01*
X164842482Y-23367482D01*
X164812520Y-23392073D01*
X164778339Y-23410343D01*
X164741242Y-23421596D01*
X164696527Y-23426000D01*
X163803473Y-23426000D01*
X163758758Y-23421596D01*
X163721661Y-23410343D01*
X163687480Y-23392073D01*
X163657518Y-23367482D01*
X163632927Y-23337520D01*
X163614657Y-23303339D01*
X163603404Y-23266242D01*
X163599000Y-23221527D01*
X163599000Y-21778473D01*
X163603404Y-21733758D01*
X163614657Y-21696661D01*
X163632927Y-21662480D01*
X163657518Y-21632518D01*
X163687480Y-21607927D01*
X163721661Y-21589657D01*
X163758758Y-21578404D01*
X163803473Y-21574000D01*
X164696527Y-21574000D01*
X164741242Y-21578404D01*
X164741242Y-21578404D01*
G37*
G36*
X45037142Y-21798242D02*
X45185102Y-21859530D01*
X45188164Y-21861576D01*
X45318257Y-21948501D01*
X45431499Y-22061743D01*
X45475683Y-22127870D01*
X45520470Y-22194898D01*
X45581758Y-22342858D01*
X45613000Y-22499925D01*
X45613000Y-22660075D01*
X45581758Y-22817142D01*
X45520470Y-22965102D01*
X45431498Y-23098258D01*
X45318258Y-23211498D01*
X45185102Y-23300470D01*
X45037142Y-23361758D01*
X44880075Y-23393000D01*
X44719925Y-23393000D01*
X44562858Y-23361758D01*
X44414898Y-23300470D01*
X44281742Y-23211498D01*
X44168502Y-23098258D01*
X44079530Y-22965102D01*
X44018242Y-22817142D01*
X43987000Y-22660075D01*
X43987000Y-22499925D01*
X44018242Y-22342858D01*
X44079530Y-22194898D01*
X44124317Y-22127870D01*
X44168501Y-22061743D01*
X44281743Y-21948501D01*
X44411836Y-21861576D01*
X44414898Y-21859530D01*
X44562858Y-21798242D01*
X44719925Y-21767000D01*
X44880075Y-21767000D01*
X45037142Y-21798242D01*
X45037142Y-21798242D01*
G37*
G36*
X63037142Y-21798242D02*
X63185102Y-21859530D01*
X63188164Y-21861576D01*
X63318257Y-21948501D01*
X63431499Y-22061743D01*
X63475683Y-22127870D01*
X63520470Y-22194898D01*
X63581758Y-22342858D01*
X63613000Y-22499925D01*
X63613000Y-22660075D01*
X63581758Y-22817142D01*
X63520470Y-22965102D01*
X63431498Y-23098258D01*
X63318258Y-23211498D01*
X63185102Y-23300470D01*
X63037142Y-23361758D01*
X62880075Y-23393000D01*
X62719925Y-23393000D01*
X62562858Y-23361758D01*
X62414898Y-23300470D01*
X62281742Y-23211498D01*
X62168502Y-23098258D01*
X62079530Y-22965102D01*
X62018242Y-22817142D01*
X61987000Y-22660075D01*
X61987000Y-22499925D01*
X62018242Y-22342858D01*
X62079530Y-22194898D01*
X62124317Y-22127870D01*
X62168501Y-22061743D01*
X62281743Y-21948501D01*
X62411836Y-21861576D01*
X62414898Y-21859530D01*
X62562858Y-21798242D01*
X62719925Y-21767000D01*
X62880075Y-21767000D01*
X63037142Y-21798242D01*
X63037142Y-21798242D01*
G37*
G36*
X38475142Y-20618242D02*
X38623102Y-20679530D01*
X38756258Y-20768502D01*
X38869498Y-20881742D01*
X38958470Y-21014898D01*
X39019758Y-21162858D01*
X39051000Y-21319925D01*
X39051000Y-21480075D01*
X39019758Y-21637142D01*
X38958470Y-21785102D01*
X38949690Y-21798242D01*
X38908740Y-21859529D01*
X38869498Y-21918258D01*
X38756258Y-22031498D01*
X38623102Y-22120470D01*
X38475142Y-22181758D01*
X38318075Y-22213000D01*
X38157925Y-22213000D01*
X38000858Y-22181758D01*
X37852898Y-22120470D01*
X37719742Y-22031498D01*
X37606502Y-21918258D01*
X37567261Y-21859529D01*
X37526310Y-21798242D01*
X37517530Y-21785102D01*
X37456242Y-21637142D01*
X37425000Y-21480075D01*
X37425000Y-21319925D01*
X37456242Y-21162858D01*
X37517530Y-21014898D01*
X37606502Y-20881742D01*
X37719742Y-20768502D01*
X37852898Y-20679530D01*
X38000858Y-20618242D01*
X38157925Y-20587000D01*
X38318075Y-20587000D01*
X38475142Y-20618242D01*
X38475142Y-20618242D01*
G37*
G36*
X101705142Y-20618242D02*
X101853102Y-20679530D01*
X101986258Y-20768502D01*
X102099498Y-20881742D01*
X102188470Y-21014898D01*
X102249758Y-21162858D01*
X102281000Y-21319925D01*
X102281000Y-21480075D01*
X102249758Y-21637142D01*
X102188470Y-21785102D01*
X102179690Y-21798242D01*
X102138740Y-21859529D01*
X102099498Y-21918258D01*
X101986258Y-22031498D01*
X101853102Y-22120470D01*
X101705142Y-22181758D01*
X101548075Y-22213000D01*
X101387925Y-22213000D01*
X101230858Y-22181758D01*
X101082898Y-22120470D01*
X100949742Y-22031498D01*
X100836502Y-21918258D01*
X100797261Y-21859529D01*
X100756310Y-21798242D01*
X100747530Y-21785102D01*
X100686242Y-21637142D01*
X100655000Y-21480075D01*
X100655000Y-21319925D01*
X100686242Y-21162858D01*
X100747530Y-21014898D01*
X100836502Y-20881742D01*
X100949742Y-20768502D01*
X101082898Y-20679530D01*
X101230858Y-20618242D01*
X101387925Y-20587000D01*
X101548075Y-20587000D01*
X101705142Y-20618242D01*
X101705142Y-20618242D01*
G37*
G36*
X104245142Y-20618242D02*
X104393102Y-20679530D01*
X104526258Y-20768502D01*
X104639498Y-20881742D01*
X104728470Y-21014898D01*
X104789758Y-21162858D01*
X104821000Y-21319925D01*
X104821000Y-21480075D01*
X104789758Y-21637142D01*
X104728470Y-21785102D01*
X104719690Y-21798242D01*
X104678740Y-21859529D01*
X104639498Y-21918258D01*
X104526258Y-22031498D01*
X104393102Y-22120470D01*
X104245142Y-22181758D01*
X104088075Y-22213000D01*
X103927925Y-22213000D01*
X103770858Y-22181758D01*
X103622898Y-22120470D01*
X103489742Y-22031498D01*
X103376502Y-21918258D01*
X103337261Y-21859529D01*
X103296310Y-21798242D01*
X103287530Y-21785102D01*
X103226242Y-21637142D01*
X103195000Y-21480075D01*
X103195000Y-21319925D01*
X103226242Y-21162858D01*
X103287530Y-21014898D01*
X103376502Y-20881742D01*
X103489742Y-20768502D01*
X103622898Y-20679530D01*
X103770858Y-20618242D01*
X103927925Y-20587000D01*
X104088075Y-20587000D01*
X104245142Y-20618242D01*
X104245142Y-20618242D01*
G37*
G36*
X143869142Y-20618242D02*
X144017102Y-20679530D01*
X144150258Y-20768502D01*
X144263498Y-20881742D01*
X144352470Y-21014898D01*
X144413758Y-21162858D01*
X144445000Y-21319925D01*
X144445000Y-21480075D01*
X144413758Y-21637142D01*
X144352470Y-21785102D01*
X144343690Y-21798242D01*
X144302740Y-21859529D01*
X144263498Y-21918258D01*
X144150258Y-22031498D01*
X144017102Y-22120470D01*
X143869142Y-22181758D01*
X143712075Y-22213000D01*
X143551925Y-22213000D01*
X143394858Y-22181758D01*
X143246898Y-22120470D01*
X143113742Y-22031498D01*
X143000502Y-21918258D01*
X142961261Y-21859529D01*
X142920310Y-21798242D01*
X142911530Y-21785102D01*
X142850242Y-21637142D01*
X142819000Y-21480075D01*
X142819000Y-21319925D01*
X142850242Y-21162858D01*
X142911530Y-21014898D01*
X143000502Y-20881742D01*
X143113742Y-20768502D01*
X143246898Y-20679530D01*
X143394858Y-20618242D01*
X143551925Y-20587000D01*
X143712075Y-20587000D01*
X143869142Y-20618242D01*
X143869142Y-20618242D01*
G37*
G36*
X146409142Y-20618242D02*
X146557102Y-20679530D01*
X146690258Y-20768502D01*
X146803498Y-20881742D01*
X146892470Y-21014898D01*
X146953758Y-21162858D01*
X146985000Y-21319925D01*
X146985000Y-21480075D01*
X146953758Y-21637142D01*
X146892470Y-21785102D01*
X146883690Y-21798242D01*
X146842740Y-21859529D01*
X146803498Y-21918258D01*
X146690258Y-22031498D01*
X146557102Y-22120470D01*
X146409142Y-22181758D01*
X146252075Y-22213000D01*
X146091925Y-22213000D01*
X145934858Y-22181758D01*
X145786898Y-22120470D01*
X145653742Y-22031498D01*
X145540502Y-21918258D01*
X145501261Y-21859529D01*
X145460310Y-21798242D01*
X145451530Y-21785102D01*
X145390242Y-21637142D01*
X145359000Y-21480075D01*
X145359000Y-21319925D01*
X145390242Y-21162858D01*
X145451530Y-21014898D01*
X145540502Y-20881742D01*
X145653742Y-20768502D01*
X145786898Y-20679530D01*
X145934858Y-20618242D01*
X146091925Y-20587000D01*
X146252075Y-20587000D01*
X146409142Y-20618242D01*
X146409142Y-20618242D01*
G37*
G36*
X41015142Y-20618242D02*
X41163102Y-20679530D01*
X41296258Y-20768502D01*
X41409498Y-20881742D01*
X41498470Y-21014898D01*
X41559758Y-21162858D01*
X41591000Y-21319925D01*
X41591000Y-21480075D01*
X41559758Y-21637142D01*
X41498470Y-21785102D01*
X41489690Y-21798242D01*
X41448740Y-21859529D01*
X41409498Y-21918258D01*
X41296258Y-22031498D01*
X41163102Y-22120470D01*
X41015142Y-22181758D01*
X40858075Y-22213000D01*
X40697925Y-22213000D01*
X40540858Y-22181758D01*
X40392898Y-22120470D01*
X40259742Y-22031498D01*
X40146502Y-21918258D01*
X40107261Y-21859529D01*
X40066310Y-21798242D01*
X40057530Y-21785102D01*
X39996242Y-21637142D01*
X39965000Y-21480075D01*
X39965000Y-21319925D01*
X39996242Y-21162858D01*
X40057530Y-21014898D01*
X40146502Y-20881742D01*
X40259742Y-20768502D01*
X40392898Y-20679530D01*
X40540858Y-20618242D01*
X40697925Y-20587000D01*
X40858075Y-20587000D01*
X41015142Y-20618242D01*
X41015142Y-20618242D01*
G37*
G36*
X35935142Y-20618242D02*
X36083102Y-20679530D01*
X36216258Y-20768502D01*
X36329498Y-20881742D01*
X36418470Y-21014898D01*
X36479758Y-21162858D01*
X36511000Y-21319925D01*
X36511000Y-21480075D01*
X36479758Y-21637142D01*
X36418470Y-21785102D01*
X36409690Y-21798242D01*
X36368740Y-21859529D01*
X36329498Y-21918258D01*
X36216258Y-22031498D01*
X36083102Y-22120470D01*
X35935142Y-22181758D01*
X35778075Y-22213000D01*
X35617925Y-22213000D01*
X35460858Y-22181758D01*
X35312898Y-22120470D01*
X35179742Y-22031498D01*
X35066502Y-21918258D01*
X35027261Y-21859529D01*
X34986310Y-21798242D01*
X34977530Y-21785102D01*
X34916242Y-21637142D01*
X34885000Y-21480075D01*
X34885000Y-21319925D01*
X34916242Y-21162858D01*
X34977530Y-21014898D01*
X35066502Y-20881742D01*
X35179742Y-20768502D01*
X35312898Y-20679530D01*
X35460858Y-20618242D01*
X35617925Y-20587000D01*
X35778075Y-20587000D01*
X35935142Y-20618242D01*
X35935142Y-20618242D01*
G37*
G36*
X88259142Y-20618242D02*
X88407102Y-20679530D01*
X88540258Y-20768502D01*
X88653498Y-20881742D01*
X88742470Y-21014898D01*
X88803758Y-21162858D01*
X88835000Y-21319925D01*
X88835000Y-21480075D01*
X88803758Y-21637142D01*
X88742470Y-21785102D01*
X88733690Y-21798242D01*
X88692740Y-21859529D01*
X88653498Y-21918258D01*
X88540258Y-22031498D01*
X88407102Y-22120470D01*
X88259142Y-22181758D01*
X88102075Y-22213000D01*
X87941925Y-22213000D01*
X87784858Y-22181758D01*
X87636898Y-22120470D01*
X87503742Y-22031498D01*
X87390502Y-21918258D01*
X87351261Y-21859529D01*
X87310310Y-21798242D01*
X87301530Y-21785102D01*
X87240242Y-21637142D01*
X87209000Y-21480075D01*
X87209000Y-21319925D01*
X87240242Y-21162858D01*
X87301530Y-21014898D01*
X87390502Y-20881742D01*
X87503742Y-20768502D01*
X87636898Y-20679530D01*
X87784858Y-20618242D01*
X87941925Y-20587000D01*
X88102075Y-20587000D01*
X88259142Y-20618242D01*
X88259142Y-20618242D01*
G37*
G36*
X90799142Y-20618242D02*
X90947102Y-20679530D01*
X91080258Y-20768502D01*
X91193498Y-20881742D01*
X91282470Y-21014898D01*
X91343758Y-21162858D01*
X91375000Y-21319925D01*
X91375000Y-21480075D01*
X91343758Y-21637142D01*
X91282470Y-21785102D01*
X91273690Y-21798242D01*
X91232740Y-21859529D01*
X91193498Y-21918258D01*
X91080258Y-22031498D01*
X90947102Y-22120470D01*
X90799142Y-22181758D01*
X90642075Y-22213000D01*
X90481925Y-22213000D01*
X90324858Y-22181758D01*
X90176898Y-22120470D01*
X90043742Y-22031498D01*
X89930502Y-21918258D01*
X89891261Y-21859529D01*
X89850310Y-21798242D01*
X89841530Y-21785102D01*
X89780242Y-21637142D01*
X89749000Y-21480075D01*
X89749000Y-21319925D01*
X89780242Y-21162858D01*
X89841530Y-21014898D01*
X89930502Y-20881742D01*
X90043742Y-20768502D01*
X90176898Y-20679530D01*
X90324858Y-20618242D01*
X90481925Y-20587000D01*
X90642075Y-20587000D01*
X90799142Y-20618242D01*
X90799142Y-20618242D01*
G37*
G36*
X141329142Y-20618242D02*
X141477102Y-20679530D01*
X141610258Y-20768502D01*
X141723498Y-20881742D01*
X141812470Y-21014898D01*
X141873758Y-21162858D01*
X141905000Y-21319925D01*
X141905000Y-21480075D01*
X141873758Y-21637142D01*
X141812470Y-21785102D01*
X141803690Y-21798242D01*
X141762740Y-21859529D01*
X141723498Y-21918258D01*
X141610258Y-22031498D01*
X141477102Y-22120470D01*
X141329142Y-22181758D01*
X141172075Y-22213000D01*
X141011925Y-22213000D01*
X140854858Y-22181758D01*
X140706898Y-22120470D01*
X140573742Y-22031498D01*
X140460502Y-21918258D01*
X140421261Y-21859529D01*
X140380310Y-21798242D01*
X140371530Y-21785102D01*
X140310242Y-21637142D01*
X140279000Y-21480075D01*
X140279000Y-21319925D01*
X140310242Y-21162858D01*
X140371530Y-21014898D01*
X140460502Y-20881742D01*
X140573742Y-20768502D01*
X140706898Y-20679530D01*
X140854858Y-20618242D01*
X141011925Y-20587000D01*
X141172075Y-20587000D01*
X141329142Y-20618242D01*
X141329142Y-20618242D01*
G37*
G36*
X66512420Y-19209143D02*
X66644556Y-19249227D01*
X66644558Y-19249228D01*
X66766338Y-19314320D01*
X66766340Y-19314321D01*
X66766339Y-19314321D01*
X66873078Y-19401918D01*
X66873080Y-19401921D01*
X66960680Y-19508661D01*
X67025772Y-19630441D01*
X67025773Y-19630443D01*
X67065857Y-19762579D01*
X67076000Y-19865568D01*
X67076000Y-20534432D01*
X67065857Y-20637421D01*
X67026093Y-20768501D01*
X67025772Y-20769559D01*
X66960680Y-20891339D01*
X66873080Y-20998080D01*
X66766339Y-21085680D01*
X66644559Y-21150772D01*
X66644557Y-21150773D01*
X66512421Y-21190857D01*
X66375000Y-21204391D01*
X66237580Y-21190857D01*
X66105444Y-21150773D01*
X66105442Y-21150772D01*
X65983662Y-21085680D01*
X65876921Y-20998080D01*
X65789321Y-20891339D01*
X65754527Y-20826244D01*
X65724226Y-20769557D01*
X65684143Y-20637421D01*
X65674000Y-20534432D01*
X65674000Y-19865569D01*
X65684143Y-19762580D01*
X65724227Y-19630444D01*
X65724229Y-19630441D01*
X65789320Y-19508662D01*
X65800883Y-19494573D01*
X65876918Y-19401922D01*
X65906910Y-19377309D01*
X65983661Y-19314320D01*
X66105441Y-19249228D01*
X66105443Y-19249227D01*
X66237579Y-19209143D01*
X66375000Y-19195609D01*
X66512420Y-19209143D01*
X66512420Y-19209143D01*
G37*
G36*
X73762420Y-19209143D02*
X73894556Y-19249227D01*
X73894558Y-19249228D01*
X74016338Y-19314320D01*
X74016340Y-19314321D01*
X74016339Y-19314321D01*
X74123078Y-19401918D01*
X74123080Y-19401921D01*
X74210680Y-19508661D01*
X74275772Y-19630441D01*
X74275773Y-19630443D01*
X74315857Y-19762579D01*
X74326000Y-19865568D01*
X74326000Y-20534432D01*
X74315857Y-20637421D01*
X74276093Y-20768501D01*
X74275772Y-20769559D01*
X74210680Y-20891339D01*
X74123080Y-20998080D01*
X74016339Y-21085680D01*
X73894559Y-21150772D01*
X73894557Y-21150773D01*
X73762421Y-21190857D01*
X73625000Y-21204391D01*
X73487580Y-21190857D01*
X73355444Y-21150773D01*
X73355442Y-21150772D01*
X73233662Y-21085680D01*
X73126921Y-20998080D01*
X73039321Y-20891339D01*
X73004527Y-20826244D01*
X72974226Y-20769557D01*
X72934143Y-20637421D01*
X72924000Y-20534432D01*
X72924000Y-19865569D01*
X72934143Y-19762580D01*
X72974227Y-19630444D01*
X72974229Y-19630441D01*
X73039320Y-19508662D01*
X73050883Y-19494573D01*
X73126918Y-19401922D01*
X73156910Y-19377309D01*
X73233661Y-19314320D01*
X73355441Y-19249228D01*
X73355443Y-19249227D01*
X73487579Y-19209143D01*
X73625000Y-19195609D01*
X73762420Y-19209143D01*
X73762420Y-19209143D01*
G37*
M02*
