%TF.GenerationSoftware,KiCad,Pcbnew,(5.0.2)-1*%
%TF.CreationDate,2019-03-24T20:38:46+01:00*%
%TF.ProjectId,TaggerMainboard,54616767-6572-44d6-9169-6e626f617264,rev?*%
%TF.SameCoordinates,Original*%
%TF.FileFunction,Legend,Top*%
%TF.FilePolarity,Positive*%
%FSLAX46Y46*%
G04 Gerber Fmt 4.6, Leading zero omitted, Abs format (unit mm)*
G04 Created by KiCad (PCBNEW (5.0.2)-1) date 24.03.2019 20:38:46*
%MOMM*%
%LPD*%
G01*
G04 APERTURE LIST*
%ADD10C,0.100000*%
%ADD11C,0.200000*%
%ADD12C,0.120000*%
%ADD13C,0.150000*%
%ADD14C,0.203200*%
%ADD15C,0.254000*%
%ADD16C,0.152400*%
%ADD17C,0.010000*%
G04 APERTURE END LIST*
D10*
X138311904Y-79744523D02*
X137511904Y-79744523D01*
X138083333Y-79477857D01*
X137511904Y-79211190D01*
X138311904Y-79211190D01*
X138311904Y-78487380D02*
X137892857Y-78487380D01*
X137816666Y-78525476D01*
X137778571Y-78601666D01*
X137778571Y-78754047D01*
X137816666Y-78830238D01*
X138273809Y-78487380D02*
X138311904Y-78563571D01*
X138311904Y-78754047D01*
X138273809Y-78830238D01*
X138197619Y-78868333D01*
X138121428Y-78868333D01*
X138045238Y-78830238D01*
X138007142Y-78754047D01*
X138007142Y-78563571D01*
X137969047Y-78487380D01*
X138311904Y-78106428D02*
X137778571Y-78106428D01*
X137511904Y-78106428D02*
X137550000Y-78144523D01*
X137588095Y-78106428D01*
X137550000Y-78068333D01*
X137511904Y-78106428D01*
X137588095Y-78106428D01*
X137778571Y-77725476D02*
X138311904Y-77725476D01*
X137854761Y-77725476D02*
X137816666Y-77687380D01*
X137778571Y-77611190D01*
X137778571Y-77496904D01*
X137816666Y-77420714D01*
X137892857Y-77382619D01*
X138311904Y-77382619D01*
X138311904Y-77001666D02*
X137511904Y-77001666D01*
X137816666Y-77001666D02*
X137778571Y-76925476D01*
X137778571Y-76773095D01*
X137816666Y-76696904D01*
X137854761Y-76658809D01*
X137930952Y-76620714D01*
X138159523Y-76620714D01*
X138235714Y-76658809D01*
X138273809Y-76696904D01*
X138311904Y-76773095D01*
X138311904Y-76925476D01*
X138273809Y-77001666D01*
X138311904Y-76163571D02*
X138273809Y-76239761D01*
X138235714Y-76277857D01*
X138159523Y-76315952D01*
X137930952Y-76315952D01*
X137854761Y-76277857D01*
X137816666Y-76239761D01*
X137778571Y-76163571D01*
X137778571Y-76049285D01*
X137816666Y-75973095D01*
X137854761Y-75935000D01*
X137930952Y-75896904D01*
X138159523Y-75896904D01*
X138235714Y-75935000D01*
X138273809Y-75973095D01*
X138311904Y-76049285D01*
X138311904Y-76163571D01*
X138311904Y-75211190D02*
X137892857Y-75211190D01*
X137816666Y-75249285D01*
X137778571Y-75325476D01*
X137778571Y-75477857D01*
X137816666Y-75554047D01*
X138273809Y-75211190D02*
X138311904Y-75287380D01*
X138311904Y-75477857D01*
X138273809Y-75554047D01*
X138197619Y-75592142D01*
X138121428Y-75592142D01*
X138045238Y-75554047D01*
X138007142Y-75477857D01*
X138007142Y-75287380D01*
X137969047Y-75211190D01*
X138311904Y-74830238D02*
X137778571Y-74830238D01*
X137930952Y-74830238D02*
X137854761Y-74792142D01*
X137816666Y-74754047D01*
X137778571Y-74677857D01*
X137778571Y-74601666D01*
X138311904Y-73992142D02*
X137511904Y-73992142D01*
X138273809Y-73992142D02*
X138311904Y-74068333D01*
X138311904Y-74220714D01*
X138273809Y-74296904D01*
X138235714Y-74335000D01*
X138159523Y-74373095D01*
X137930952Y-74373095D01*
X137854761Y-74335000D01*
X137816666Y-74296904D01*
X137778571Y-74220714D01*
X137778571Y-74068333D01*
X137816666Y-73992142D01*
X138811904Y-79858809D02*
X139611904Y-79592142D01*
X138811904Y-79325476D01*
X138888095Y-79096904D02*
X138850000Y-79058809D01*
X138811904Y-78982619D01*
X138811904Y-78792142D01*
X138850000Y-78715952D01*
X138888095Y-78677857D01*
X138964285Y-78639761D01*
X139040476Y-78639761D01*
X139154761Y-78677857D01*
X139611904Y-79135000D01*
X139611904Y-78639761D01*
X138773809Y-77725476D02*
X139802380Y-78411190D01*
X138811904Y-77306428D02*
X138811904Y-77230238D01*
X138850000Y-77154047D01*
X138888095Y-77115952D01*
X138964285Y-77077857D01*
X139116666Y-77039761D01*
X139307142Y-77039761D01*
X139459523Y-77077857D01*
X139535714Y-77115952D01*
X139573809Y-77154047D01*
X139611904Y-77230238D01*
X139611904Y-77306428D01*
X139573809Y-77382619D01*
X139535714Y-77420714D01*
X139459523Y-77458809D01*
X139307142Y-77496904D01*
X139116666Y-77496904D01*
X138964285Y-77458809D01*
X138888095Y-77420714D01*
X138850000Y-77382619D01*
X138811904Y-77306428D01*
X138811904Y-76773095D02*
X138811904Y-76277857D01*
X139116666Y-76544523D01*
X139116666Y-76430238D01*
X139154761Y-76354047D01*
X139192857Y-76315952D01*
X139269047Y-76277857D01*
X139459523Y-76277857D01*
X139535714Y-76315952D01*
X139573809Y-76354047D01*
X139611904Y-76430238D01*
X139611904Y-76658809D01*
X139573809Y-76735000D01*
X139535714Y-76773095D01*
X139535714Y-75935000D02*
X139573809Y-75896904D01*
X139611904Y-75935000D01*
X139573809Y-75973095D01*
X139535714Y-75935000D01*
X139611904Y-75935000D01*
X139611904Y-75135000D02*
X139611904Y-75592142D01*
X139611904Y-75363571D02*
X138811904Y-75363571D01*
X138926190Y-75439761D01*
X139002380Y-75515952D01*
X139040476Y-75592142D01*
X139611904Y-74754047D02*
X139611904Y-74601666D01*
X139573809Y-74525476D01*
X139535714Y-74487380D01*
X139421428Y-74411190D01*
X139269047Y-74373095D01*
X138964285Y-74373095D01*
X138888095Y-74411190D01*
X138850000Y-74449285D01*
X138811904Y-74525476D01*
X138811904Y-74677857D01*
X138850000Y-74754047D01*
X138888095Y-74792142D01*
X138964285Y-74830238D01*
X139154761Y-74830238D01*
X139230952Y-74792142D01*
X139269047Y-74754047D01*
X139307142Y-74677857D01*
X139307142Y-74525476D01*
X139269047Y-74449285D01*
X139230952Y-74411190D01*
X139154761Y-74373095D01*
X138773809Y-73458809D02*
X139802380Y-74144523D01*
X139611904Y-72773095D02*
X139611904Y-73230238D01*
X139611904Y-73001666D02*
X138811904Y-73001666D01*
X138926190Y-73077857D01*
X139002380Y-73154047D01*
X139040476Y-73230238D01*
X138811904Y-72277857D02*
X138811904Y-72201666D01*
X138850000Y-72125476D01*
X138888095Y-72087380D01*
X138964285Y-72049285D01*
X139116666Y-72011190D01*
X139307142Y-72011190D01*
X139459523Y-72049285D01*
X139535714Y-72087380D01*
X139573809Y-72125476D01*
X139611904Y-72201666D01*
X139611904Y-72277857D01*
X139573809Y-72354047D01*
X139535714Y-72392142D01*
X139459523Y-72430238D01*
X139307142Y-72468333D01*
X139116666Y-72468333D01*
X138964285Y-72430238D01*
X138888095Y-72392142D01*
X138850000Y-72354047D01*
X138811904Y-72277857D01*
X140378571Y-79820714D02*
X140911904Y-79668333D01*
X140530952Y-79515952D01*
X140911904Y-79363571D01*
X140378571Y-79211190D01*
X140378571Y-78982619D02*
X140911904Y-78830238D01*
X140530952Y-78677857D01*
X140911904Y-78525476D01*
X140378571Y-78373095D01*
X140378571Y-78144523D02*
X140911904Y-77992142D01*
X140530952Y-77839761D01*
X140911904Y-77687380D01*
X140378571Y-77535000D01*
X140835714Y-77230238D02*
X140873809Y-77192142D01*
X140911904Y-77230238D01*
X140873809Y-77268333D01*
X140835714Y-77230238D01*
X140911904Y-77230238D01*
X140911904Y-76849285D02*
X140378571Y-76849285D01*
X140111904Y-76849285D02*
X140150000Y-76887380D01*
X140188095Y-76849285D01*
X140150000Y-76811190D01*
X140111904Y-76849285D01*
X140188095Y-76849285D01*
X140378571Y-76468333D02*
X140911904Y-76468333D01*
X140454761Y-76468333D02*
X140416666Y-76430238D01*
X140378571Y-76354047D01*
X140378571Y-76239761D01*
X140416666Y-76163571D01*
X140492857Y-76125476D01*
X140911904Y-76125476D01*
X140378571Y-75858809D02*
X140378571Y-75554047D01*
X140911904Y-75744523D02*
X140226190Y-75744523D01*
X140150000Y-75706428D01*
X140111904Y-75630238D01*
X140111904Y-75554047D01*
X140911904Y-75287380D02*
X140378571Y-75287380D01*
X140111904Y-75287380D02*
X140150000Y-75325476D01*
X140188095Y-75287380D01*
X140150000Y-75249285D01*
X140111904Y-75287380D01*
X140188095Y-75287380D01*
X140378571Y-74906428D02*
X140911904Y-74906428D01*
X140454761Y-74906428D02*
X140416666Y-74868333D01*
X140378571Y-74792142D01*
X140378571Y-74677857D01*
X140416666Y-74601666D01*
X140492857Y-74563571D01*
X140911904Y-74563571D01*
X140911904Y-74182619D02*
X140378571Y-74182619D01*
X140111904Y-74182619D02*
X140150000Y-74220714D01*
X140188095Y-74182619D01*
X140150000Y-74144523D01*
X140111904Y-74182619D01*
X140188095Y-74182619D01*
X140378571Y-73915952D02*
X140378571Y-73611190D01*
X140111904Y-73801666D02*
X140797619Y-73801666D01*
X140873809Y-73763571D01*
X140911904Y-73687380D01*
X140911904Y-73611190D01*
X140911904Y-73001666D02*
X140492857Y-73001666D01*
X140416666Y-73039761D01*
X140378571Y-73115952D01*
X140378571Y-73268333D01*
X140416666Y-73344523D01*
X140873809Y-73001666D02*
X140911904Y-73077857D01*
X140911904Y-73268333D01*
X140873809Y-73344523D01*
X140797619Y-73382619D01*
X140721428Y-73382619D01*
X140645238Y-73344523D01*
X140607142Y-73268333D01*
X140607142Y-73077857D01*
X140569047Y-73001666D01*
X140378571Y-72277857D02*
X141026190Y-72277857D01*
X141102380Y-72315952D01*
X141140476Y-72354047D01*
X141178571Y-72430238D01*
X141178571Y-72544523D01*
X141140476Y-72620714D01*
X140873809Y-72277857D02*
X140911904Y-72354047D01*
X140911904Y-72506428D01*
X140873809Y-72582619D01*
X140835714Y-72620714D01*
X140759523Y-72658809D01*
X140530952Y-72658809D01*
X140454761Y-72620714D01*
X140416666Y-72582619D01*
X140378571Y-72506428D01*
X140378571Y-72354047D01*
X140416666Y-72277857D01*
X140835714Y-71896904D02*
X140873809Y-71858809D01*
X140911904Y-71896904D01*
X140873809Y-71935000D01*
X140835714Y-71896904D01*
X140911904Y-71896904D01*
X140911904Y-71515952D02*
X140378571Y-71515952D01*
X140111904Y-71515952D02*
X140150000Y-71554047D01*
X140188095Y-71515952D01*
X140150000Y-71477857D01*
X140111904Y-71515952D01*
X140188095Y-71515952D01*
X140911904Y-71020714D02*
X140873809Y-71096904D01*
X140835714Y-71135000D01*
X140759523Y-71173095D01*
X140530952Y-71173095D01*
X140454761Y-71135000D01*
X140416666Y-71096904D01*
X140378571Y-71020714D01*
X140378571Y-70906428D01*
X140416666Y-70830238D01*
X140454761Y-70792142D01*
X140530952Y-70754047D01*
X140759523Y-70754047D01*
X140835714Y-70792142D01*
X140873809Y-70830238D01*
X140911904Y-70906428D01*
X140911904Y-71020714D01*
D11*
X137428571Y-80750000D02*
X135285714Y-80750000D01*
X136928571Y-79678571D02*
X135428571Y-79678571D01*
X136928571Y-78964285D02*
X135428571Y-78964285D01*
X136928571Y-78107142D01*
X135428571Y-78107142D01*
X136142857Y-76892857D02*
X136142857Y-77392857D01*
X136928571Y-77392857D02*
X135428571Y-77392857D01*
X135428571Y-76678571D01*
X136928571Y-76107142D02*
X135428571Y-76107142D01*
X136928571Y-75392857D02*
X135428571Y-75392857D01*
X136928571Y-74535714D01*
X135428571Y-74535714D01*
X136928571Y-73821428D02*
X135428571Y-73821428D01*
X135428571Y-73321428D02*
X135428571Y-72464285D01*
X136928571Y-72892857D02*
X135428571Y-72892857D01*
X136500000Y-72035714D02*
X136500000Y-71321428D01*
X136928571Y-72178571D02*
X135428571Y-71678571D01*
X136928571Y-71178571D01*
X135500000Y-69892857D02*
X135428571Y-70035714D01*
X135428571Y-70250000D01*
X135500000Y-70464285D01*
X135642857Y-70607142D01*
X135785714Y-70678571D01*
X136071428Y-70750000D01*
X136285714Y-70750000D01*
X136571428Y-70678571D01*
X136714285Y-70607142D01*
X136857142Y-70464285D01*
X136928571Y-70250000D01*
X136928571Y-70107142D01*
X136857142Y-69892857D01*
X136785714Y-69821428D01*
X136285714Y-69821428D01*
X136285714Y-70107142D01*
X57000000Y-95000000D02*
X57000000Y-43000000D01*
X157000000Y-95000000D02*
X57000000Y-95000000D01*
X157000000Y-43000000D02*
X157000000Y-95000000D01*
X57000000Y-43000000D02*
X157000000Y-43000000D01*
D12*
X85365000Y-45215000D02*
X85365000Y-49100000D01*
X87635000Y-45215000D02*
X85365000Y-45215000D01*
X87635000Y-49100000D02*
X87635000Y-45215000D01*
D13*
X68000000Y-47710000D02*
X68000000Y-45170000D01*
X65460000Y-47710000D02*
X68000000Y-47710000D01*
X93400000Y-47710000D02*
X93400000Y-90890000D01*
X65460000Y-45170000D02*
X88320000Y-45170000D01*
X60380000Y-90890000D02*
X60380000Y-47710000D01*
X65460000Y-93430000D02*
X88320000Y-93430000D01*
X93400000Y-47710000D02*
X88320000Y-47710000D01*
X93400000Y-45170000D02*
X93400000Y-47710000D01*
X88320000Y-45170000D02*
X93400000Y-45170000D01*
X88320000Y-47710000D02*
X88320000Y-45170000D01*
X93400000Y-93430000D02*
X88320000Y-93430000D01*
X93400000Y-90890000D02*
X93400000Y-93430000D01*
X88320000Y-90890000D02*
X93400000Y-90890000D01*
X88320000Y-93430000D02*
X88320000Y-90890000D01*
X65460000Y-47710000D02*
X60380000Y-47710000D01*
X60380000Y-45170000D02*
X65460000Y-45170000D01*
X60380000Y-47710000D02*
X60380000Y-45170000D01*
X65460000Y-93430000D02*
X60380000Y-93430000D01*
X65460000Y-90890000D02*
X65460000Y-93430000D01*
X60380000Y-90890000D02*
X65460000Y-90890000D01*
X60380000Y-93430000D02*
X60380000Y-90890000D01*
D12*
X84741422Y-55710000D02*
X85258578Y-55710000D01*
X84741422Y-54290000D02*
X85258578Y-54290000D01*
X84741422Y-57290000D02*
X85258578Y-57290000D01*
X84741422Y-58710000D02*
X85258578Y-58710000D01*
X87258578Y-51710000D02*
X86741422Y-51710000D01*
X87258578Y-50290000D02*
X86741422Y-50290000D01*
X84741422Y-61210000D02*
X85258578Y-61210000D01*
X84741422Y-59790000D02*
X85258578Y-59790000D01*
X127410000Y-80090000D02*
X125060000Y-80090000D01*
X120590000Y-80090000D02*
X122940000Y-80090000D01*
X120590000Y-85845563D02*
X120590000Y-80090000D01*
X127410000Y-85845563D02*
X127410000Y-80090000D01*
X126345563Y-86910000D02*
X125060000Y-86910000D01*
X121654437Y-86910000D02*
X122940000Y-86910000D01*
X121654437Y-86910000D02*
X120590000Y-85845563D01*
X126345563Y-86910000D02*
X127410000Y-85845563D01*
X122152500Y-87937500D02*
X122152500Y-87150000D01*
X121758750Y-87543750D02*
X122546250Y-87543750D01*
X92710000Y-84258578D02*
X92710000Y-83741422D01*
X91290000Y-84258578D02*
X91290000Y-83741422D01*
X69741422Y-49210000D02*
X70258578Y-49210000D01*
X69741422Y-47790000D02*
X70258578Y-47790000D01*
X98258750Y-87543750D02*
X99046250Y-87543750D01*
X98652500Y-87937500D02*
X98652500Y-87150000D01*
X102845563Y-86910000D02*
X103910000Y-85845563D01*
X98154437Y-86910000D02*
X97090000Y-85845563D01*
X98154437Y-86910000D02*
X99440000Y-86910000D01*
X102845563Y-86910000D02*
X101560000Y-86910000D01*
X103910000Y-85845563D02*
X103910000Y-80090000D01*
X97090000Y-85845563D02*
X97090000Y-80090000D01*
X97090000Y-80090000D02*
X99440000Y-80090000D01*
X103910000Y-80090000D02*
X101560000Y-80090000D01*
X104144290Y-47882312D02*
X104144290Y-47365156D01*
X105564290Y-47882312D02*
X105564290Y-47365156D01*
X127410000Y-69790000D02*
X125060000Y-69790000D01*
X120590000Y-69790000D02*
X122940000Y-69790000D01*
X120590000Y-75545563D02*
X120590000Y-69790000D01*
X127410000Y-75545563D02*
X127410000Y-69790000D01*
X126345563Y-76610000D02*
X125060000Y-76610000D01*
X121654437Y-76610000D02*
X122940000Y-76610000D01*
X121654437Y-76610000D02*
X120590000Y-75545563D01*
X126345563Y-76610000D02*
X127410000Y-75545563D01*
X122152500Y-77637500D02*
X122152500Y-76850000D01*
X121758750Y-77243750D02*
X122546250Y-77243750D01*
X62241422Y-77290000D02*
X62758578Y-77290000D01*
X62241422Y-78710000D02*
X62758578Y-78710000D01*
X84210000Y-80241422D02*
X84210000Y-80758578D01*
X82790000Y-80241422D02*
X82790000Y-80758578D01*
X62241422Y-75210000D02*
X62758578Y-75210000D01*
X62241422Y-73790000D02*
X62758578Y-73790000D01*
X72865000Y-88900000D02*
X72865000Y-92785000D01*
X72865000Y-92785000D02*
X75135000Y-92785000D01*
X75135000Y-92785000D02*
X75135000Y-88900000D01*
X119960000Y-77185000D02*
X119960000Y-74500000D01*
X118040000Y-77185000D02*
X119960000Y-77185000D01*
X118040000Y-74500000D02*
X118040000Y-77185000D01*
X67386252Y-84210000D02*
X64613748Y-84210000D01*
X67386252Y-80790000D02*
X64613748Y-80790000D01*
X129190000Y-90560000D02*
X133910000Y-90560000D01*
X133910000Y-90560000D02*
X133910000Y-84440000D01*
X133910000Y-84440000D02*
X129190000Y-84440000D01*
X129190000Y-84440000D02*
X129190000Y-90560000D01*
X129190000Y-88800000D02*
X128990000Y-88800000D01*
X128990000Y-88800000D02*
X128990000Y-89100000D01*
X128990000Y-89100000D02*
X129190000Y-89100000D01*
X129090000Y-88800000D02*
X129090000Y-89100000D01*
X129190000Y-88000000D02*
X129800000Y-88000000D01*
X129800000Y-88000000D02*
X129800000Y-89950000D01*
X129800000Y-89950000D02*
X133300000Y-89950000D01*
X133300000Y-89950000D02*
X133300000Y-85050000D01*
X133300000Y-85050000D02*
X129800000Y-85050000D01*
X129800000Y-85050000D02*
X129800000Y-87000000D01*
X129800000Y-87000000D02*
X129190000Y-87000000D01*
X130500000Y-90560000D02*
X130500000Y-89950000D01*
X131800000Y-90560000D02*
X131800000Y-89950000D01*
X130500000Y-84440000D02*
X130500000Y-85050000D01*
X131800000Y-84440000D02*
X131800000Y-85050000D01*
X133300000Y-87600000D02*
X132800000Y-87600000D01*
X132800000Y-87600000D02*
X132800000Y-87400000D01*
X132800000Y-87400000D02*
X133300000Y-87400000D01*
X133300000Y-87500000D02*
X132800000Y-87500000D01*
X128890000Y-89610000D02*
X128890000Y-90860000D01*
X128890000Y-90860000D02*
X130140000Y-90860000D01*
X135890000Y-68360000D02*
X137140000Y-68360000D01*
X135890000Y-67110000D02*
X135890000Y-68360000D01*
X140300000Y-65000000D02*
X139800000Y-65000000D01*
X139800000Y-64900000D02*
X140300000Y-64900000D01*
X139800000Y-65100000D02*
X139800000Y-64900000D01*
X140300000Y-65100000D02*
X139800000Y-65100000D01*
X138800000Y-61940000D02*
X138800000Y-62550000D01*
X137500000Y-61940000D02*
X137500000Y-62550000D01*
X138800000Y-68060000D02*
X138800000Y-67450000D01*
X137500000Y-68060000D02*
X137500000Y-67450000D01*
X136800000Y-64500000D02*
X136190000Y-64500000D01*
X136800000Y-62550000D02*
X136800000Y-64500000D01*
X140300000Y-62550000D02*
X136800000Y-62550000D01*
X140300000Y-67450000D02*
X140300000Y-62550000D01*
X136800000Y-67450000D02*
X140300000Y-67450000D01*
X136800000Y-65500000D02*
X136800000Y-67450000D01*
X136190000Y-65500000D02*
X136800000Y-65500000D01*
X136090000Y-66300000D02*
X136090000Y-66600000D01*
X135990000Y-66600000D02*
X136190000Y-66600000D01*
X135990000Y-66300000D02*
X135990000Y-66600000D01*
X136190000Y-66300000D02*
X135990000Y-66300000D01*
X136190000Y-61940000D02*
X136190000Y-68060000D01*
X140910000Y-61940000D02*
X136190000Y-61940000D01*
X140910000Y-68060000D02*
X140910000Y-61940000D01*
X136190000Y-68060000D02*
X140910000Y-68060000D01*
D13*
X62880000Y-72500000D02*
X83200000Y-72500000D01*
X62880000Y-50500000D02*
X80660000Y-50500000D01*
X83200000Y-72500000D02*
X83200000Y-50500000D01*
X83200000Y-50500000D02*
X80660000Y-50500000D01*
X62880000Y-72500000D02*
X60340000Y-72500000D01*
X60340000Y-50500000D02*
X62880000Y-50500000D01*
X60340000Y-72500000D02*
X60340000Y-63500000D01*
X60340000Y-50500000D02*
X60340000Y-59500000D01*
X60340000Y-59500000D02*
G75*
G02X60340000Y-63500000I0J-2000000D01*
G01*
X84425000Y-95100000D02*
X79675000Y-95100000D01*
X79575000Y-95100000D02*
X84325000Y-95100000D01*
X84425000Y-95100000D02*
X85625000Y-95100000D01*
X85625000Y-95100000D02*
X85625000Y-94100000D01*
X79575000Y-95100000D02*
X78375000Y-95100000D01*
X78375000Y-95100000D02*
X78375000Y-94100000D01*
X85225000Y-90350000D02*
X85625000Y-90350000D01*
X85625000Y-90350000D02*
X85625000Y-91850000D01*
X78775000Y-90350000D02*
X78375000Y-90350000D01*
X78375000Y-90350000D02*
X78375000Y-91850000D01*
D12*
X129190000Y-55560000D02*
X133910000Y-55560000D01*
X133910000Y-55560000D02*
X133910000Y-47440000D01*
X133910000Y-47440000D02*
X129190000Y-47440000D01*
X129190000Y-47440000D02*
X129190000Y-55560000D01*
X129190000Y-53800000D02*
X128990000Y-53800000D01*
X128990000Y-53800000D02*
X128990000Y-54100000D01*
X128990000Y-54100000D02*
X129190000Y-54100000D01*
X129090000Y-53800000D02*
X129090000Y-54100000D01*
X129190000Y-53000000D02*
X129800000Y-53000000D01*
X129800000Y-53000000D02*
X129800000Y-54950000D01*
X129800000Y-54950000D02*
X133300000Y-54950000D01*
X133300000Y-54950000D02*
X133300000Y-48050000D01*
X133300000Y-48050000D02*
X129800000Y-48050000D01*
X129800000Y-48050000D02*
X129800000Y-50000000D01*
X129800000Y-50000000D02*
X129190000Y-50000000D01*
X130500000Y-55560000D02*
X130500000Y-54950000D01*
X131800000Y-55560000D02*
X131800000Y-54950000D01*
X130500000Y-47440000D02*
X130500000Y-48050000D01*
X131800000Y-47440000D02*
X131800000Y-48050000D01*
X133300000Y-52600000D02*
X132800000Y-52600000D01*
X132800000Y-52600000D02*
X132800000Y-52400000D01*
X132800000Y-52400000D02*
X133300000Y-52400000D01*
X133300000Y-52500000D02*
X132800000Y-52500000D01*
X133300000Y-50600000D02*
X132800000Y-50600000D01*
X132800000Y-50600000D02*
X132800000Y-50400000D01*
X132800000Y-50400000D02*
X133300000Y-50400000D01*
X133300000Y-50500000D02*
X132800000Y-50500000D01*
X128890000Y-54610000D02*
X128890000Y-55860000D01*
X128890000Y-55860000D02*
X130140000Y-55860000D01*
X149690000Y-57560000D02*
X154410000Y-57560000D01*
X154410000Y-57560000D02*
X154410000Y-47440000D01*
X154410000Y-47440000D02*
X149690000Y-47440000D01*
X149690000Y-47440000D02*
X149690000Y-57560000D01*
X149690000Y-55800000D02*
X149490000Y-55800000D01*
X149490000Y-55800000D02*
X149490000Y-56100000D01*
X149490000Y-56100000D02*
X149690000Y-56100000D01*
X149590000Y-55800000D02*
X149590000Y-56100000D01*
X149690000Y-55000000D02*
X150300000Y-55000000D01*
X150300000Y-55000000D02*
X150300000Y-56950000D01*
X150300000Y-56950000D02*
X153800000Y-56950000D01*
X153800000Y-56950000D02*
X153800000Y-48050000D01*
X153800000Y-48050000D02*
X150300000Y-48050000D01*
X150300000Y-48050000D02*
X150300000Y-50000000D01*
X150300000Y-50000000D02*
X149690000Y-50000000D01*
X151000000Y-57560000D02*
X151000000Y-56950000D01*
X152300000Y-57560000D02*
X152300000Y-56950000D01*
X151000000Y-47440000D02*
X151000000Y-48050000D01*
X152300000Y-47440000D02*
X152300000Y-48050000D01*
X153800000Y-54600000D02*
X153300000Y-54600000D01*
X153300000Y-54600000D02*
X153300000Y-54400000D01*
X153300000Y-54400000D02*
X153800000Y-54400000D01*
X153800000Y-54500000D02*
X153300000Y-54500000D01*
X153800000Y-52600000D02*
X153300000Y-52600000D01*
X153300000Y-52600000D02*
X153300000Y-52400000D01*
X153300000Y-52400000D02*
X153800000Y-52400000D01*
X153800000Y-52500000D02*
X153300000Y-52500000D01*
X153800000Y-50600000D02*
X153300000Y-50600000D01*
X153300000Y-50600000D02*
X153300000Y-50400000D01*
X153300000Y-50400000D02*
X153800000Y-50400000D01*
X153800000Y-50500000D02*
X153300000Y-50500000D01*
X149390000Y-56610000D02*
X149390000Y-57860000D01*
X149390000Y-57860000D02*
X150640000Y-57860000D01*
X149690000Y-90560000D02*
X154410000Y-90560000D01*
X154410000Y-90560000D02*
X154410000Y-78440000D01*
X154410000Y-78440000D02*
X149690000Y-78440000D01*
X149690000Y-78440000D02*
X149690000Y-90560000D01*
X149690000Y-88800000D02*
X149490000Y-88800000D01*
X149490000Y-88800000D02*
X149490000Y-89100000D01*
X149490000Y-89100000D02*
X149690000Y-89100000D01*
X149590000Y-88800000D02*
X149590000Y-89100000D01*
X149690000Y-88000000D02*
X150300000Y-88000000D01*
X150300000Y-88000000D02*
X150300000Y-89950000D01*
X150300000Y-89950000D02*
X153800000Y-89950000D01*
X153800000Y-89950000D02*
X153800000Y-79050000D01*
X153800000Y-79050000D02*
X150300000Y-79050000D01*
X150300000Y-79050000D02*
X150300000Y-81000000D01*
X150300000Y-81000000D02*
X149690000Y-81000000D01*
X151000000Y-90560000D02*
X151000000Y-89950000D01*
X152300000Y-90560000D02*
X152300000Y-89950000D01*
X151000000Y-78440000D02*
X151000000Y-79050000D01*
X152300000Y-78440000D02*
X152300000Y-79050000D01*
X153800000Y-87600000D02*
X153300000Y-87600000D01*
X153300000Y-87600000D02*
X153300000Y-87400000D01*
X153300000Y-87400000D02*
X153800000Y-87400000D01*
X153800000Y-87500000D02*
X153300000Y-87500000D01*
X153800000Y-85600000D02*
X153300000Y-85600000D01*
X153300000Y-85600000D02*
X153300000Y-85400000D01*
X153300000Y-85400000D02*
X153800000Y-85400000D01*
X153800000Y-85500000D02*
X153300000Y-85500000D01*
X153800000Y-83600000D02*
X153300000Y-83600000D01*
X153300000Y-83600000D02*
X153300000Y-83400000D01*
X153300000Y-83400000D02*
X153800000Y-83400000D01*
X153800000Y-83500000D02*
X153300000Y-83500000D01*
X153800000Y-81600000D02*
X153300000Y-81600000D01*
X153300000Y-81600000D02*
X153300000Y-81400000D01*
X153300000Y-81400000D02*
X153800000Y-81400000D01*
X153800000Y-81500000D02*
X153300000Y-81500000D01*
X149390000Y-89610000D02*
X149390000Y-90860000D01*
X149390000Y-90860000D02*
X150640000Y-90860000D01*
X143190000Y-53560000D02*
X147910000Y-53560000D01*
X147910000Y-53560000D02*
X147910000Y-47440000D01*
X147910000Y-47440000D02*
X143190000Y-47440000D01*
X143190000Y-47440000D02*
X143190000Y-53560000D01*
X143190000Y-51800000D02*
X142990000Y-51800000D01*
X142990000Y-51800000D02*
X142990000Y-52100000D01*
X142990000Y-52100000D02*
X143190000Y-52100000D01*
X143090000Y-51800000D02*
X143090000Y-52100000D01*
X143190000Y-51000000D02*
X143800000Y-51000000D01*
X143800000Y-51000000D02*
X143800000Y-52950000D01*
X143800000Y-52950000D02*
X147300000Y-52950000D01*
X147300000Y-52950000D02*
X147300000Y-48050000D01*
X147300000Y-48050000D02*
X143800000Y-48050000D01*
X143800000Y-48050000D02*
X143800000Y-50000000D01*
X143800000Y-50000000D02*
X143190000Y-50000000D01*
X144500000Y-53560000D02*
X144500000Y-52950000D01*
X145800000Y-53560000D02*
X145800000Y-52950000D01*
X144500000Y-47440000D02*
X144500000Y-48050000D01*
X145800000Y-47440000D02*
X145800000Y-48050000D01*
X147300000Y-50600000D02*
X146800000Y-50600000D01*
X146800000Y-50600000D02*
X146800000Y-50400000D01*
X146800000Y-50400000D02*
X147300000Y-50400000D01*
X147300000Y-50500000D02*
X146800000Y-50500000D01*
X142890000Y-52610000D02*
X142890000Y-53860000D01*
X142890000Y-53860000D02*
X144140000Y-53860000D01*
X142890000Y-79360000D02*
X144140000Y-79360000D01*
X142890000Y-78110000D02*
X142890000Y-79360000D01*
X147300000Y-76000000D02*
X146800000Y-76000000D01*
X146800000Y-75900000D02*
X147300000Y-75900000D01*
X146800000Y-76100000D02*
X146800000Y-75900000D01*
X147300000Y-76100000D02*
X146800000Y-76100000D01*
X145800000Y-72940000D02*
X145800000Y-73550000D01*
X144500000Y-72940000D02*
X144500000Y-73550000D01*
X145800000Y-79060000D02*
X145800000Y-78450000D01*
X144500000Y-79060000D02*
X144500000Y-78450000D01*
X143800000Y-75500000D02*
X143190000Y-75500000D01*
X143800000Y-73550000D02*
X143800000Y-75500000D01*
X147300000Y-73550000D02*
X143800000Y-73550000D01*
X147300000Y-78450000D02*
X147300000Y-73550000D01*
X143800000Y-78450000D02*
X147300000Y-78450000D01*
X143800000Y-76500000D02*
X143800000Y-78450000D01*
X143190000Y-76500000D02*
X143800000Y-76500000D01*
X143090000Y-77300000D02*
X143090000Y-77600000D01*
X142990000Y-77600000D02*
X143190000Y-77600000D01*
X142990000Y-77300000D02*
X142990000Y-77600000D01*
X143190000Y-77300000D02*
X142990000Y-77300000D01*
X143190000Y-72940000D02*
X143190000Y-79060000D01*
X147910000Y-72940000D02*
X143190000Y-72940000D01*
X147910000Y-79060000D02*
X147910000Y-72940000D01*
X143190000Y-79060000D02*
X147910000Y-79060000D01*
X129190000Y-78060000D02*
X133910000Y-78060000D01*
X133910000Y-78060000D02*
X133910000Y-67940000D01*
X133910000Y-67940000D02*
X129190000Y-67940000D01*
X129190000Y-67940000D02*
X129190000Y-78060000D01*
X129190000Y-76300000D02*
X128990000Y-76300000D01*
X128990000Y-76300000D02*
X128990000Y-76600000D01*
X128990000Y-76600000D02*
X129190000Y-76600000D01*
X129090000Y-76300000D02*
X129090000Y-76600000D01*
X129190000Y-75500000D02*
X129800000Y-75500000D01*
X129800000Y-75500000D02*
X129800000Y-77450000D01*
X129800000Y-77450000D02*
X133300000Y-77450000D01*
X133300000Y-77450000D02*
X133300000Y-68550000D01*
X133300000Y-68550000D02*
X129800000Y-68550000D01*
X129800000Y-68550000D02*
X129800000Y-70500000D01*
X129800000Y-70500000D02*
X129190000Y-70500000D01*
X130500000Y-78060000D02*
X130500000Y-77450000D01*
X131800000Y-78060000D02*
X131800000Y-77450000D01*
X130500000Y-67940000D02*
X130500000Y-68550000D01*
X131800000Y-67940000D02*
X131800000Y-68550000D01*
X133300000Y-75100000D02*
X132800000Y-75100000D01*
X132800000Y-75100000D02*
X132800000Y-74900000D01*
X132800000Y-74900000D02*
X133300000Y-74900000D01*
X133300000Y-75000000D02*
X132800000Y-75000000D01*
X133300000Y-73100000D02*
X132800000Y-73100000D01*
X132800000Y-73100000D02*
X132800000Y-72900000D01*
X132800000Y-72900000D02*
X133300000Y-72900000D01*
X133300000Y-73000000D02*
X132800000Y-73000000D01*
X133300000Y-71100000D02*
X132800000Y-71100000D01*
X132800000Y-71100000D02*
X132800000Y-70900000D01*
X132800000Y-70900000D02*
X133300000Y-70900000D01*
X133300000Y-71000000D02*
X132800000Y-71000000D01*
X128890000Y-77110000D02*
X128890000Y-78360000D01*
X128890000Y-78360000D02*
X130140000Y-78360000D01*
X142890000Y-62360000D02*
X144140000Y-62360000D01*
X142890000Y-61110000D02*
X142890000Y-62360000D01*
X147300000Y-59000000D02*
X146800000Y-59000000D01*
X146800000Y-58900000D02*
X147300000Y-58900000D01*
X146800000Y-59100000D02*
X146800000Y-58900000D01*
X147300000Y-59100000D02*
X146800000Y-59100000D01*
X145800000Y-55940000D02*
X145800000Y-56550000D01*
X144500000Y-55940000D02*
X144500000Y-56550000D01*
X145800000Y-62060000D02*
X145800000Y-61450000D01*
X144500000Y-62060000D02*
X144500000Y-61450000D01*
X143800000Y-58500000D02*
X143190000Y-58500000D01*
X143800000Y-56550000D02*
X143800000Y-58500000D01*
X147300000Y-56550000D02*
X143800000Y-56550000D01*
X147300000Y-61450000D02*
X147300000Y-56550000D01*
X143800000Y-61450000D02*
X147300000Y-61450000D01*
X143800000Y-59500000D02*
X143800000Y-61450000D01*
X143190000Y-59500000D02*
X143800000Y-59500000D01*
X143090000Y-60300000D02*
X143090000Y-60600000D01*
X142990000Y-60600000D02*
X143190000Y-60600000D01*
X142990000Y-60300000D02*
X142990000Y-60600000D01*
X143190000Y-60300000D02*
X142990000Y-60300000D01*
X143190000Y-55940000D02*
X143190000Y-62060000D01*
X147910000Y-55940000D02*
X143190000Y-55940000D01*
X147910000Y-62060000D02*
X147910000Y-55940000D01*
X143190000Y-62060000D02*
X147910000Y-62060000D01*
X143190000Y-70560000D02*
X147910000Y-70560000D01*
X147910000Y-70560000D02*
X147910000Y-64440000D01*
X147910000Y-64440000D02*
X143190000Y-64440000D01*
X143190000Y-64440000D02*
X143190000Y-70560000D01*
X143190000Y-68800000D02*
X142990000Y-68800000D01*
X142990000Y-68800000D02*
X142990000Y-69100000D01*
X142990000Y-69100000D02*
X143190000Y-69100000D01*
X143090000Y-68800000D02*
X143090000Y-69100000D01*
X143190000Y-68000000D02*
X143800000Y-68000000D01*
X143800000Y-68000000D02*
X143800000Y-69950000D01*
X143800000Y-69950000D02*
X147300000Y-69950000D01*
X147300000Y-69950000D02*
X147300000Y-65050000D01*
X147300000Y-65050000D02*
X143800000Y-65050000D01*
X143800000Y-65050000D02*
X143800000Y-67000000D01*
X143800000Y-67000000D02*
X143190000Y-67000000D01*
X144500000Y-70560000D02*
X144500000Y-69950000D01*
X145800000Y-70560000D02*
X145800000Y-69950000D01*
X144500000Y-64440000D02*
X144500000Y-65050000D01*
X145800000Y-64440000D02*
X145800000Y-65050000D01*
X147300000Y-67600000D02*
X146800000Y-67600000D01*
X146800000Y-67600000D02*
X146800000Y-67400000D01*
X146800000Y-67400000D02*
X147300000Y-67400000D01*
X147300000Y-67500000D02*
X146800000Y-67500000D01*
X142890000Y-69610000D02*
X142890000Y-70860000D01*
X142890000Y-70860000D02*
X144140000Y-70860000D01*
X128890000Y-66360000D02*
X130140000Y-66360000D01*
X128890000Y-65110000D02*
X128890000Y-66360000D01*
X133300000Y-61000000D02*
X132800000Y-61000000D01*
X132800000Y-60900000D02*
X133300000Y-60900000D01*
X132800000Y-61100000D02*
X132800000Y-60900000D01*
X133300000Y-61100000D02*
X132800000Y-61100000D01*
X133300000Y-63000000D02*
X132800000Y-63000000D01*
X132800000Y-62900000D02*
X133300000Y-62900000D01*
X132800000Y-63100000D02*
X132800000Y-62900000D01*
X133300000Y-63100000D02*
X132800000Y-63100000D01*
X131800000Y-57940000D02*
X131800000Y-58550000D01*
X130500000Y-57940000D02*
X130500000Y-58550000D01*
X131800000Y-66060000D02*
X131800000Y-65450000D01*
X130500000Y-66060000D02*
X130500000Y-65450000D01*
X129800000Y-60500000D02*
X129190000Y-60500000D01*
X129800000Y-58550000D02*
X129800000Y-60500000D01*
X133300000Y-58550000D02*
X129800000Y-58550000D01*
X133300000Y-65450000D02*
X133300000Y-58550000D01*
X129800000Y-65450000D02*
X133300000Y-65450000D01*
X129800000Y-63500000D02*
X129800000Y-65450000D01*
X129190000Y-63500000D02*
X129800000Y-63500000D01*
X129090000Y-64300000D02*
X129090000Y-64600000D01*
X128990000Y-64600000D02*
X129190000Y-64600000D01*
X128990000Y-64300000D02*
X128990000Y-64600000D01*
X129190000Y-64300000D02*
X128990000Y-64300000D01*
X129190000Y-57940000D02*
X129190000Y-66060000D01*
X133910000Y-57940000D02*
X129190000Y-57940000D01*
X133910000Y-66060000D02*
X133910000Y-57940000D01*
X129190000Y-66060000D02*
X133910000Y-66060000D01*
X135890000Y-57860000D02*
X137140000Y-57860000D01*
X135890000Y-56610000D02*
X135890000Y-57860000D01*
X140300000Y-50500000D02*
X139800000Y-50500000D01*
X139800000Y-50400000D02*
X140300000Y-50400000D01*
X139800000Y-50600000D02*
X139800000Y-50400000D01*
X140300000Y-50600000D02*
X139800000Y-50600000D01*
X140300000Y-52500000D02*
X139800000Y-52500000D01*
X139800000Y-52400000D02*
X140300000Y-52400000D01*
X139800000Y-52600000D02*
X139800000Y-52400000D01*
X140300000Y-52600000D02*
X139800000Y-52600000D01*
X140300000Y-54500000D02*
X139800000Y-54500000D01*
X139800000Y-54400000D02*
X140300000Y-54400000D01*
X139800000Y-54600000D02*
X139800000Y-54400000D01*
X140300000Y-54600000D02*
X139800000Y-54600000D01*
X138800000Y-47440000D02*
X138800000Y-48050000D01*
X137500000Y-47440000D02*
X137500000Y-48050000D01*
X138800000Y-57560000D02*
X138800000Y-56950000D01*
X137500000Y-57560000D02*
X137500000Y-56950000D01*
X136800000Y-50000000D02*
X136190000Y-50000000D01*
X136800000Y-48050000D02*
X136800000Y-50000000D01*
X140300000Y-48050000D02*
X136800000Y-48050000D01*
X140300000Y-56950000D02*
X140300000Y-48050000D01*
X136800000Y-56950000D02*
X140300000Y-56950000D01*
X136800000Y-55000000D02*
X136800000Y-56950000D01*
X136190000Y-55000000D02*
X136800000Y-55000000D01*
X136090000Y-55800000D02*
X136090000Y-56100000D01*
X135990000Y-56100000D02*
X136190000Y-56100000D01*
X135990000Y-55800000D02*
X135990000Y-56100000D01*
X136190000Y-55800000D02*
X135990000Y-55800000D01*
X136190000Y-47440000D02*
X136190000Y-57560000D01*
X140910000Y-47440000D02*
X136190000Y-47440000D01*
X140910000Y-57560000D02*
X140910000Y-47440000D01*
X136190000Y-57560000D02*
X140910000Y-57560000D01*
D13*
X127120000Y-45070000D02*
X127120000Y-47610000D01*
X127120000Y-47610000D02*
X122040000Y-47610000D01*
X122040000Y-45070000D02*
X127120000Y-45070000D01*
X127120000Y-90790000D02*
X127120000Y-93330000D01*
X127120000Y-93330000D02*
X122040000Y-93330000D01*
X122040000Y-90790000D02*
X127120000Y-90790000D01*
X99180000Y-47610000D02*
X94100000Y-47610000D01*
X94100000Y-47610000D02*
X94100000Y-45070000D01*
X94100000Y-45070000D02*
X99180000Y-45070000D01*
X99180000Y-93330000D02*
X94100000Y-93330000D01*
X94100000Y-93330000D02*
X94100000Y-90790000D01*
X94100000Y-90790000D02*
X99180000Y-90790000D01*
X122040000Y-45070000D02*
X99180000Y-45070000D01*
X127120000Y-47610000D02*
X127120000Y-90790000D01*
X122040000Y-93330000D02*
X99180000Y-93330000D01*
X94100000Y-90790000D02*
X94100000Y-47610000D01*
X122040000Y-47610000D02*
X122040000Y-45070000D01*
X101720000Y-45070000D02*
X101720000Y-47610000D01*
X101720000Y-47610000D02*
X99180000Y-47610000D01*
X99180000Y-90790000D02*
X101720000Y-90790000D01*
X101720000Y-90790000D02*
X101720000Y-93330000D01*
X122040000Y-90790000D02*
X122040000Y-93330000D01*
D12*
X149690000Y-77060000D02*
X154410000Y-77060000D01*
X154410000Y-77060000D02*
X154410000Y-58940000D01*
X154410000Y-58940000D02*
X149690000Y-58940000D01*
X149690000Y-58940000D02*
X149690000Y-77060000D01*
X149690000Y-75300000D02*
X149490000Y-75300000D01*
X149490000Y-75300000D02*
X149490000Y-75600000D01*
X149490000Y-75600000D02*
X149690000Y-75600000D01*
X149590000Y-75300000D02*
X149590000Y-75600000D01*
X149690000Y-74500000D02*
X150300000Y-74500000D01*
X150300000Y-74500000D02*
X150300000Y-76450000D01*
X150300000Y-76450000D02*
X153800000Y-76450000D01*
X153800000Y-76450000D02*
X153800000Y-59550000D01*
X153800000Y-59550000D02*
X150300000Y-59550000D01*
X150300000Y-59550000D02*
X150300000Y-61500000D01*
X150300000Y-61500000D02*
X149690000Y-61500000D01*
X151000000Y-77060000D02*
X151000000Y-76450000D01*
X152300000Y-77060000D02*
X152300000Y-76450000D01*
X151000000Y-58940000D02*
X151000000Y-59550000D01*
X152300000Y-58940000D02*
X152300000Y-59550000D01*
X153800000Y-74100000D02*
X153300000Y-74100000D01*
X153300000Y-74100000D02*
X153300000Y-73900000D01*
X153300000Y-73900000D02*
X153800000Y-73900000D01*
X153800000Y-74000000D02*
X153300000Y-74000000D01*
X153800000Y-72100000D02*
X153300000Y-72100000D01*
X153300000Y-72100000D02*
X153300000Y-71900000D01*
X153300000Y-71900000D02*
X153800000Y-71900000D01*
X153800000Y-72000000D02*
X153300000Y-72000000D01*
X153800000Y-70100000D02*
X153300000Y-70100000D01*
X153300000Y-70100000D02*
X153300000Y-69900000D01*
X153300000Y-69900000D02*
X153800000Y-69900000D01*
X153800000Y-70000000D02*
X153300000Y-70000000D01*
X153800000Y-68100000D02*
X153300000Y-68100000D01*
X153300000Y-68100000D02*
X153300000Y-67900000D01*
X153300000Y-67900000D02*
X153800000Y-67900000D01*
X153800000Y-68000000D02*
X153300000Y-68000000D01*
X153800000Y-66100000D02*
X153300000Y-66100000D01*
X153300000Y-66100000D02*
X153300000Y-65900000D01*
X153300000Y-65900000D02*
X153800000Y-65900000D01*
X153800000Y-66000000D02*
X153300000Y-66000000D01*
X153800000Y-64100000D02*
X153300000Y-64100000D01*
X153300000Y-64100000D02*
X153300000Y-63900000D01*
X153300000Y-63900000D02*
X153800000Y-63900000D01*
X153800000Y-64000000D02*
X153300000Y-64000000D01*
X153800000Y-62100000D02*
X153300000Y-62100000D01*
X153300000Y-62100000D02*
X153300000Y-61900000D01*
X153300000Y-61900000D02*
X153800000Y-61900000D01*
X153800000Y-62000000D02*
X153300000Y-62000000D01*
X149390000Y-76110000D02*
X149390000Y-77360000D01*
X149390000Y-77360000D02*
X150640000Y-77360000D01*
D14*
X83152400Y-86422400D02*
X82339600Y-86422400D01*
X82339600Y-86422400D02*
X82339600Y-85763600D01*
X82339600Y-83577600D02*
X83152400Y-83577600D01*
X82339600Y-84236400D02*
X82339600Y-83577600D01*
D12*
X94241422Y-79290000D02*
X94758578Y-79290000D01*
X94241422Y-80710000D02*
X94758578Y-80710000D01*
X104258578Y-74210000D02*
X103741422Y-74210000D01*
X104258578Y-72790000D02*
X103741422Y-72790000D01*
X103741422Y-71710000D02*
X104258578Y-71710000D01*
X103741422Y-70290000D02*
X104258578Y-70290000D01*
X106290000Y-54803922D02*
X106290000Y-55321078D01*
X107710000Y-54803922D02*
X107710000Y-55321078D01*
X117258578Y-55710000D02*
X116741422Y-55710000D01*
X117258578Y-54290000D02*
X116741422Y-54290000D01*
X88758578Y-84790000D02*
X88241422Y-84790000D01*
X88758578Y-86210000D02*
X88241422Y-86210000D01*
X88241422Y-83710000D02*
X88758578Y-83710000D01*
X88241422Y-82290000D02*
X88758578Y-82290000D01*
X85210000Y-68741422D02*
X85210000Y-69258578D01*
X83790000Y-68741422D02*
X83790000Y-69258578D01*
X70196078Y-46710000D02*
X69678922Y-46710000D01*
X70196078Y-45290000D02*
X69678922Y-45290000D01*
X66741422Y-75210000D02*
X67258578Y-75210000D01*
X66741422Y-73790000D02*
X67258578Y-73790000D01*
X66741422Y-77290000D02*
X67258578Y-77290000D01*
X66741422Y-78710000D02*
X67258578Y-78710000D01*
X60820000Y-86000000D02*
X60820000Y-87000000D01*
X64180000Y-86000000D02*
X64180000Y-87000000D01*
X123500000Y-63320000D02*
X124500000Y-63320000D01*
X123500000Y-66680000D02*
X124500000Y-66680000D01*
X81560000Y-49310000D02*
X75440000Y-49310000D01*
X75440000Y-49310000D02*
X75440000Y-45690000D01*
X75440000Y-45690000D02*
X81560000Y-45690000D01*
X81560000Y-45690000D02*
X81560000Y-49310000D01*
D15*
X89000000Y-53750000D02*
X89750000Y-53000000D01*
X89750000Y-53000000D02*
X102750000Y-53000000D01*
X102750000Y-53000000D02*
X103000000Y-53250000D01*
X103000000Y-53250000D02*
X103000000Y-66750000D01*
X103000000Y-66750000D02*
X102750000Y-67000000D01*
X102750000Y-67000000D02*
X89250000Y-67000000D01*
X89250000Y-67000000D02*
X89000000Y-66750000D01*
X89000000Y-66750000D02*
X89000000Y-53750000D01*
D10*
X88561000Y-53315000D02*
G75*
G03X88561000Y-53315000I-381000J0D01*
G01*
D16*
X111814600Y-53577600D02*
X112660400Y-53577600D01*
X112660400Y-53577600D02*
X112660400Y-54342400D01*
X112660400Y-56422400D02*
X111814600Y-56422400D01*
X112660400Y-55632600D02*
X112660400Y-56422400D01*
D12*
X106800000Y-68450000D02*
X106800000Y-69950000D01*
X106800000Y-69950000D02*
X107750000Y-69950000D01*
X107750000Y-69950000D02*
X107750000Y-75075000D01*
X117200000Y-68450000D02*
X117200000Y-69950000D01*
X117200000Y-69950000D02*
X116250000Y-69950000D01*
X116250000Y-69950000D02*
X116250000Y-71050000D01*
D16*
X91489200Y-77422400D02*
X91489200Y-74577600D01*
X86510800Y-74577600D02*
X86510800Y-75695200D01*
X86510800Y-75695200D02*
X86510800Y-76304800D01*
X86510800Y-76304800D02*
X86510800Y-77422400D01*
X86510800Y-75695200D02*
G75*
G02X86510800Y-76304800I0J-304800D01*
G01*
D12*
X112764290Y-51971234D02*
X112764290Y-50711234D01*
X112764290Y-45151234D02*
X112764290Y-46411234D01*
X109004290Y-51971234D02*
X112764290Y-51971234D01*
X106754290Y-45151234D02*
X112764290Y-45151234D01*
D13*
X72125000Y-75675000D02*
X72125000Y-76250000D01*
X77875000Y-75675000D02*
X77875000Y-76325000D01*
X77875000Y-86325000D02*
X77875000Y-85675000D01*
X72125000Y-86325000D02*
X72125000Y-85675000D01*
X72125000Y-75675000D02*
X77875000Y-75675000D01*
X72125000Y-86325000D02*
X77875000Y-86325000D01*
X72125000Y-76250000D02*
X70525000Y-76250000D01*
D12*
X100900000Y-72300000D02*
X101300000Y-72300000D01*
X101300000Y-72300000D02*
X101300000Y-75700000D01*
X101300000Y-75700000D02*
X100900000Y-75700000D01*
X93460000Y-72300000D02*
X93460000Y-75700000D01*
X94100000Y-76100000D02*
X94100000Y-75700000D01*
X94100000Y-75700000D02*
X93700000Y-75700000D01*
X93700000Y-75700000D02*
X93700000Y-72300000D01*
X93700000Y-72300000D02*
X94100000Y-72300000D01*
X139170000Y-83170000D02*
X140500000Y-83170000D01*
X139170000Y-84500000D02*
X139170000Y-83170000D01*
X141770000Y-83170000D02*
X144370000Y-83170000D01*
X141770000Y-85770000D02*
X141770000Y-83170000D01*
X139170000Y-85770000D02*
X141770000Y-85770000D01*
X144370000Y-83170000D02*
X144370000Y-90910000D01*
X139170000Y-85770000D02*
X139170000Y-90910000D01*
X139170000Y-90910000D02*
X144370000Y-90910000D01*
X121758750Y-61043750D02*
X122546250Y-61043750D01*
X122152500Y-61437500D02*
X122152500Y-60650000D01*
X126345563Y-60410000D02*
X127410000Y-59345563D01*
X121654437Y-60410000D02*
X120590000Y-59345563D01*
X121654437Y-60410000D02*
X122940000Y-60410000D01*
X126345563Y-60410000D02*
X125060000Y-60410000D01*
X127410000Y-59345563D02*
X127410000Y-53590000D01*
X120590000Y-59345563D02*
X120590000Y-53590000D01*
X120590000Y-53590000D02*
X122940000Y-53590000D01*
X127410000Y-53590000D02*
X125060000Y-53590000D01*
X120000000Y-51180000D02*
X119000000Y-51180000D01*
X120000000Y-47820000D02*
X119000000Y-47820000D01*
X109100000Y-79000000D02*
X105500000Y-79000000D01*
X105500000Y-79000000D02*
X105500000Y-92000000D01*
X105500000Y-92000000D02*
X109100000Y-92000000D01*
X114900000Y-79000000D02*
X118500000Y-79000000D01*
X118500000Y-79000000D02*
X118500000Y-92000000D01*
X118500000Y-92000000D02*
X114900000Y-92000000D01*
X69135000Y-92100000D02*
X69135000Y-88215000D01*
X69135000Y-88215000D02*
X66865000Y-88215000D01*
X66865000Y-88215000D02*
X66865000Y-92100000D01*
X69865000Y-88215000D02*
X69865000Y-92100000D01*
X72135000Y-88215000D02*
X69865000Y-88215000D01*
X72135000Y-92100000D02*
X72135000Y-88215000D01*
D17*
G36*
X135348829Y-84307406D02*
X135666858Y-84137486D01*
X135857543Y-84235312D01*
X136048227Y-84333139D01*
X135717313Y-84523464D01*
X135386400Y-84713789D01*
X135386400Y-85662688D01*
X135791632Y-85898144D01*
X135975487Y-86001731D01*
X136128715Y-86082084D01*
X136228608Y-86127567D01*
X136251199Y-86133600D01*
X136316815Y-86109572D01*
X136446942Y-86045222D01*
X136618765Y-85952150D01*
X136709566Y-85900554D01*
X137113600Y-85667508D01*
X137111292Y-84685800D01*
X136962677Y-84609600D01*
X136873440Y-84561321D01*
X136712272Y-84471648D01*
X136495392Y-84349707D01*
X136239021Y-84204620D01*
X135959377Y-84045511D01*
X135924135Y-84025400D01*
X135034208Y-83517400D01*
X135033666Y-82095000D01*
X135644813Y-81750339D01*
X136255961Y-81405677D01*
X136862146Y-81750339D01*
X137468331Y-82095000D01*
X137468697Y-82806200D01*
X137469064Y-83517400D01*
X136826540Y-83863824D01*
X136665270Y-83768559D01*
X136548907Y-83686081D01*
X136503969Y-83623703D01*
X136538687Y-83594371D01*
X136554036Y-83593600D01*
X136621519Y-83568682D01*
X136744482Y-83504200D01*
X136858836Y-83436843D01*
X137113600Y-83280086D01*
X137113600Y-82327060D01*
X136719900Y-82097648D01*
X136535604Y-81995156D01*
X136378478Y-81916690D01*
X136273091Y-81874158D01*
X136250000Y-81869878D01*
X136173308Y-81894880D01*
X136034898Y-81960102D01*
X135860048Y-82053293D01*
X135792800Y-82091474D01*
X135411800Y-82311427D01*
X135397332Y-82794111D01*
X135382865Y-83276794D01*
X136159332Y-83726542D01*
X136423460Y-83879626D01*
X136667286Y-84021120D01*
X136872893Y-84140612D01*
X137022366Y-84227693D01*
X137088200Y-84266265D01*
X137230394Y-84347584D01*
X137354900Y-84414875D01*
X137400032Y-84442515D01*
X137431382Y-84482508D01*
X137451443Y-84551804D01*
X137462707Y-84667353D01*
X137467669Y-84846105D01*
X137468821Y-85105010D01*
X137468803Y-85189255D01*
X137467930Y-85472228D01*
X137464008Y-85670480D01*
X137454537Y-85800888D01*
X137437016Y-85880330D01*
X137408942Y-85925681D01*
X137367815Y-85953821D01*
X137354503Y-85960484D01*
X137265244Y-86008104D01*
X137111596Y-86094160D01*
X136916727Y-86205553D01*
X136744791Y-86305233D01*
X136248982Y-86594498D01*
X135869355Y-86364049D01*
X135696122Y-86260666D01*
X135557540Y-86181285D01*
X135475062Y-86138055D01*
X135462375Y-86133600D01*
X135407510Y-86107925D01*
X135299146Y-86042723D01*
X135232910Y-85999850D01*
X135030800Y-85866099D01*
X135030800Y-85171713D01*
X135030799Y-84477326D01*
X135348829Y-84307406D01*
X135348829Y-84307406D01*
G37*
X135348829Y-84307406D02*
X135666858Y-84137486D01*
X135857543Y-84235312D01*
X136048227Y-84333139D01*
X135717313Y-84523464D01*
X135386400Y-84713789D01*
X135386400Y-85662688D01*
X135791632Y-85898144D01*
X135975487Y-86001731D01*
X136128715Y-86082084D01*
X136228608Y-86127567D01*
X136251199Y-86133600D01*
X136316815Y-86109572D01*
X136446942Y-86045222D01*
X136618765Y-85952150D01*
X136709566Y-85900554D01*
X137113600Y-85667508D01*
X137111292Y-84685800D01*
X136962677Y-84609600D01*
X136873440Y-84561321D01*
X136712272Y-84471648D01*
X136495392Y-84349707D01*
X136239021Y-84204620D01*
X135959377Y-84045511D01*
X135924135Y-84025400D01*
X135034208Y-83517400D01*
X135033666Y-82095000D01*
X135644813Y-81750339D01*
X136255961Y-81405677D01*
X136862146Y-81750339D01*
X137468331Y-82095000D01*
X137468697Y-82806200D01*
X137469064Y-83517400D01*
X136826540Y-83863824D01*
X136665270Y-83768559D01*
X136548907Y-83686081D01*
X136503969Y-83623703D01*
X136538687Y-83594371D01*
X136554036Y-83593600D01*
X136621519Y-83568682D01*
X136744482Y-83504200D01*
X136858836Y-83436843D01*
X137113600Y-83280086D01*
X137113600Y-82327060D01*
X136719900Y-82097648D01*
X136535604Y-81995156D01*
X136378478Y-81916690D01*
X136273091Y-81874158D01*
X136250000Y-81869878D01*
X136173308Y-81894880D01*
X136034898Y-81960102D01*
X135860048Y-82053293D01*
X135792800Y-82091474D01*
X135411800Y-82311427D01*
X135397332Y-82794111D01*
X135382865Y-83276794D01*
X136159332Y-83726542D01*
X136423460Y-83879626D01*
X136667286Y-84021120D01*
X136872893Y-84140612D01*
X137022366Y-84227693D01*
X137088200Y-84266265D01*
X137230394Y-84347584D01*
X137354900Y-84414875D01*
X137400032Y-84442515D01*
X137431382Y-84482508D01*
X137451443Y-84551804D01*
X137462707Y-84667353D01*
X137467669Y-84846105D01*
X137468821Y-85105010D01*
X137468803Y-85189255D01*
X137467930Y-85472228D01*
X137464008Y-85670480D01*
X137454537Y-85800888D01*
X137437016Y-85880330D01*
X137408942Y-85925681D01*
X137367815Y-85953821D01*
X137354503Y-85960484D01*
X137265244Y-86008104D01*
X137111596Y-86094160D01*
X136916727Y-86205553D01*
X136744791Y-86305233D01*
X136248982Y-86594498D01*
X135869355Y-86364049D01*
X135696122Y-86260666D01*
X135557540Y-86181285D01*
X135475062Y-86138055D01*
X135462375Y-86133600D01*
X135407510Y-86107925D01*
X135299146Y-86042723D01*
X135232910Y-85999850D01*
X135030800Y-85866099D01*
X135030800Y-85171713D01*
X135030799Y-84477326D01*
X135348829Y-84307406D01*
D13*
X83511904Y-46452380D02*
X83511904Y-45452380D01*
X83750000Y-45452380D01*
X83892857Y-45500000D01*
X83988095Y-45595238D01*
X84035714Y-45690476D01*
X84083333Y-45880952D01*
X84083333Y-46023809D01*
X84035714Y-46214285D01*
X83988095Y-46309523D01*
X83892857Y-46404761D01*
X83750000Y-46452380D01*
X83511904Y-46452380D01*
X84988095Y-45452380D02*
X84511904Y-45452380D01*
X84464285Y-45928571D01*
X84511904Y-45880952D01*
X84607142Y-45833333D01*
X84845238Y-45833333D01*
X84940476Y-45880952D01*
X84988095Y-45928571D01*
X85035714Y-46023809D01*
X85035714Y-46261904D01*
X84988095Y-46357142D01*
X84940476Y-46404761D01*
X84845238Y-46452380D01*
X84607142Y-46452380D01*
X84511904Y-46404761D01*
X84464285Y-46357142D01*
X84476190Y-43952380D02*
X84714285Y-44952380D01*
X84904761Y-44238095D01*
X85095238Y-44952380D01*
X85333333Y-43952380D01*
X85714285Y-44952380D02*
X85714285Y-44285714D01*
X85714285Y-43952380D02*
X85666666Y-44000000D01*
X85714285Y-44047619D01*
X85761904Y-44000000D01*
X85714285Y-43952380D01*
X85714285Y-44047619D01*
X86523809Y-44428571D02*
X86190476Y-44428571D01*
X86190476Y-44952380D02*
X86190476Y-43952380D01*
X86666666Y-43952380D01*
X87047619Y-44952380D02*
X87047619Y-44285714D01*
X87047619Y-43952380D02*
X87000000Y-44000000D01*
X87047619Y-44047619D01*
X87095238Y-44000000D01*
X87047619Y-43952380D01*
X87047619Y-44047619D01*
X88238095Y-44904761D02*
X88380952Y-44952380D01*
X88619047Y-44952380D01*
X88714285Y-44904761D01*
X88761904Y-44857142D01*
X88809523Y-44761904D01*
X88809523Y-44666666D01*
X88761904Y-44571428D01*
X88714285Y-44523809D01*
X88619047Y-44476190D01*
X88428571Y-44428571D01*
X88333333Y-44380952D01*
X88285714Y-44333333D01*
X88238095Y-44238095D01*
X88238095Y-44142857D01*
X88285714Y-44047619D01*
X88333333Y-44000000D01*
X88428571Y-43952380D01*
X88666666Y-43952380D01*
X88809523Y-44000000D01*
X89238095Y-44952380D02*
X89238095Y-43952380D01*
X89666666Y-44952380D02*
X89666666Y-44428571D01*
X89619047Y-44333333D01*
X89523809Y-44285714D01*
X89380952Y-44285714D01*
X89285714Y-44333333D01*
X89238095Y-44380952D01*
X90142857Y-44952380D02*
X90142857Y-44285714D01*
X90142857Y-43952380D02*
X90095238Y-44000000D01*
X90142857Y-44047619D01*
X90190476Y-44000000D01*
X90142857Y-43952380D01*
X90142857Y-44047619D01*
X91000000Y-44904761D02*
X90904761Y-44952380D01*
X90714285Y-44952380D01*
X90619047Y-44904761D01*
X90571428Y-44809523D01*
X90571428Y-44428571D01*
X90619047Y-44333333D01*
X90714285Y-44285714D01*
X90904761Y-44285714D01*
X91000000Y-44333333D01*
X91047619Y-44428571D01*
X91047619Y-44523809D01*
X90571428Y-44619047D01*
X91619047Y-44952380D02*
X91523809Y-44904761D01*
X91476190Y-44809523D01*
X91476190Y-43952380D01*
X92428571Y-44952380D02*
X92428571Y-43952380D01*
X92428571Y-44904761D02*
X92333333Y-44952380D01*
X92142857Y-44952380D01*
X92047619Y-44904761D01*
X92000000Y-44857142D01*
X91952380Y-44761904D01*
X91952380Y-44476190D01*
X92000000Y-44380952D01*
X92047619Y-44333333D01*
X92142857Y-44285714D01*
X92333333Y-44285714D01*
X92428571Y-44333333D01*
X91582380Y-90381904D02*
X91582380Y-89810476D01*
X92582380Y-90096190D02*
X91582380Y-90096190D01*
X91582380Y-89572380D02*
X92582380Y-88905714D01*
X91582380Y-88905714D02*
X92582380Y-89572380D01*
X90042380Y-89786666D02*
X89566190Y-90120000D01*
X90042380Y-90358095D02*
X89042380Y-90358095D01*
X89042380Y-89977142D01*
X89090000Y-89881904D01*
X89137619Y-89834285D01*
X89232857Y-89786666D01*
X89375714Y-89786666D01*
X89470952Y-89834285D01*
X89518571Y-89881904D01*
X89566190Y-89977142D01*
X89566190Y-90358095D01*
X89042380Y-89453333D02*
X90042380Y-88786666D01*
X89042380Y-88786666D02*
X90042380Y-89453333D01*
X90238095Y-48000000D02*
X90142857Y-47952380D01*
X90000000Y-47952380D01*
X89857142Y-48000000D01*
X89761904Y-48095238D01*
X89714285Y-48190476D01*
X89666666Y-48380952D01*
X89666666Y-48523809D01*
X89714285Y-48714285D01*
X89761904Y-48809523D01*
X89857142Y-48904761D01*
X90000000Y-48952380D01*
X90095238Y-48952380D01*
X90238095Y-48904761D01*
X90285714Y-48857142D01*
X90285714Y-48523809D01*
X90095238Y-48523809D01*
X90714285Y-48952380D02*
X90714285Y-47952380D01*
X91285714Y-48952380D01*
X91285714Y-47952380D01*
X91761904Y-48952380D02*
X91761904Y-47952380D01*
X92000000Y-47952380D01*
X92142857Y-48000000D01*
X92238095Y-48095238D01*
X92285714Y-48190476D01*
X92333333Y-48380952D01*
X92333333Y-48523809D01*
X92285714Y-48714285D01*
X92238095Y-48809523D01*
X92142857Y-48904761D01*
X92000000Y-48952380D01*
X91761904Y-48952380D01*
X63023809Y-47952380D02*
X63642857Y-47952380D01*
X63309523Y-48333333D01*
X63452380Y-48333333D01*
X63547619Y-48380952D01*
X63595238Y-48428571D01*
X63642857Y-48523809D01*
X63642857Y-48761904D01*
X63595238Y-48857142D01*
X63547619Y-48904761D01*
X63452380Y-48952380D01*
X63166666Y-48952380D01*
X63071428Y-48904761D01*
X63023809Y-48857142D01*
X64071428Y-48857142D02*
X64119047Y-48904761D01*
X64071428Y-48952380D01*
X64023809Y-48904761D01*
X64071428Y-48857142D01*
X64071428Y-48952380D01*
X64452380Y-47952380D02*
X65071428Y-47952380D01*
X64738095Y-48333333D01*
X64880952Y-48333333D01*
X64976190Y-48380952D01*
X65023809Y-48428571D01*
X65071428Y-48523809D01*
X65071428Y-48761904D01*
X65023809Y-48857142D01*
X64976190Y-48904761D01*
X64880952Y-48952380D01*
X64595238Y-48952380D01*
X64500000Y-48904761D01*
X64452380Y-48857142D01*
X65357142Y-47952380D02*
X65690476Y-48952380D01*
X66023809Y-47952380D01*
X62372380Y-89810476D02*
X62372380Y-90286666D01*
X62848571Y-90334285D01*
X62800952Y-90286666D01*
X62753333Y-90191428D01*
X62753333Y-89953333D01*
X62800952Y-89858095D01*
X62848571Y-89810476D01*
X62943809Y-89762857D01*
X63181904Y-89762857D01*
X63277142Y-89810476D01*
X63324761Y-89858095D01*
X63372380Y-89953333D01*
X63372380Y-90191428D01*
X63324761Y-90286666D01*
X63277142Y-90334285D01*
X62372380Y-89477142D02*
X63372380Y-89143809D01*
X62372380Y-88810476D01*
X81833333Y-55357142D02*
X81785714Y-55404761D01*
X81642857Y-55452380D01*
X81547619Y-55452380D01*
X81404761Y-55404761D01*
X81309523Y-55309523D01*
X81261904Y-55214285D01*
X81214285Y-55023809D01*
X81214285Y-54880952D01*
X81261904Y-54690476D01*
X81309523Y-54595238D01*
X81404761Y-54500000D01*
X81547619Y-54452380D01*
X81642857Y-54452380D01*
X81785714Y-54500000D01*
X81833333Y-54547619D01*
X82785714Y-55452380D02*
X82214285Y-55452380D01*
X82500000Y-55452380D02*
X82500000Y-54452380D01*
X82404761Y-54595238D01*
X82309523Y-54690476D01*
X82214285Y-54738095D01*
X81833333Y-58357142D02*
X81785714Y-58404761D01*
X81642857Y-58452380D01*
X81547619Y-58452380D01*
X81404761Y-58404761D01*
X81309523Y-58309523D01*
X81261904Y-58214285D01*
X81214285Y-58023809D01*
X81214285Y-57880952D01*
X81261904Y-57690476D01*
X81309523Y-57595238D01*
X81404761Y-57500000D01*
X81547619Y-57452380D01*
X81642857Y-57452380D01*
X81785714Y-57500000D01*
X81833333Y-57547619D01*
X82214285Y-57547619D02*
X82261904Y-57500000D01*
X82357142Y-57452380D01*
X82595238Y-57452380D01*
X82690476Y-57500000D01*
X82738095Y-57547619D01*
X82785714Y-57642857D01*
X82785714Y-57738095D01*
X82738095Y-57880952D01*
X82166666Y-58452380D01*
X82785714Y-58452380D01*
X84333333Y-51357142D02*
X84285714Y-51404761D01*
X84142857Y-51452380D01*
X84047619Y-51452380D01*
X83904761Y-51404761D01*
X83809523Y-51309523D01*
X83761904Y-51214285D01*
X83714285Y-51023809D01*
X83714285Y-50880952D01*
X83761904Y-50690476D01*
X83809523Y-50595238D01*
X83904761Y-50500000D01*
X84047619Y-50452380D01*
X84142857Y-50452380D01*
X84285714Y-50500000D01*
X84333333Y-50547619D01*
X84666666Y-50452380D02*
X85285714Y-50452380D01*
X84952380Y-50833333D01*
X85095238Y-50833333D01*
X85190476Y-50880952D01*
X85238095Y-50928571D01*
X85285714Y-51023809D01*
X85285714Y-51261904D01*
X85238095Y-51357142D01*
X85190476Y-51404761D01*
X85095238Y-51452380D01*
X84809523Y-51452380D01*
X84714285Y-51404761D01*
X84666666Y-51357142D01*
X81833333Y-60857142D02*
X81785714Y-60904761D01*
X81642857Y-60952380D01*
X81547619Y-60952380D01*
X81404761Y-60904761D01*
X81309523Y-60809523D01*
X81261904Y-60714285D01*
X81214285Y-60523809D01*
X81214285Y-60380952D01*
X81261904Y-60190476D01*
X81309523Y-60095238D01*
X81404761Y-60000000D01*
X81547619Y-59952380D01*
X81642857Y-59952380D01*
X81785714Y-60000000D01*
X81833333Y-60047619D01*
X82690476Y-60285714D02*
X82690476Y-60952380D01*
X82452380Y-59904761D02*
X82214285Y-60619047D01*
X82833333Y-60619047D01*
X120007142Y-83666666D02*
X120054761Y-83714285D01*
X120102380Y-83857142D01*
X120102380Y-83952380D01*
X120054761Y-84095238D01*
X119959523Y-84190476D01*
X119864285Y-84238095D01*
X119673809Y-84285714D01*
X119530952Y-84285714D01*
X119340476Y-84238095D01*
X119245238Y-84190476D01*
X119150000Y-84095238D01*
X119102380Y-83952380D01*
X119102380Y-83857142D01*
X119150000Y-83714285D01*
X119197619Y-83666666D01*
X119102380Y-82761904D02*
X119102380Y-83238095D01*
X119578571Y-83285714D01*
X119530952Y-83238095D01*
X119483333Y-83142857D01*
X119483333Y-82904761D01*
X119530952Y-82809523D01*
X119578571Y-82761904D01*
X119673809Y-82714285D01*
X119911904Y-82714285D01*
X120007142Y-82761904D01*
X120054761Y-82809523D01*
X120102380Y-82904761D01*
X120102380Y-83142857D01*
X120054761Y-83238095D01*
X120007142Y-83285714D01*
X92357142Y-87166666D02*
X92404761Y-87214285D01*
X92452380Y-87357142D01*
X92452380Y-87452380D01*
X92404761Y-87595238D01*
X92309523Y-87690476D01*
X92214285Y-87738095D01*
X92023809Y-87785714D01*
X91880952Y-87785714D01*
X91690476Y-87738095D01*
X91595238Y-87690476D01*
X91500000Y-87595238D01*
X91452380Y-87452380D01*
X91452380Y-87357142D01*
X91500000Y-87214285D01*
X91547619Y-87166666D01*
X91452380Y-86309523D02*
X91452380Y-86500000D01*
X91500000Y-86595238D01*
X91547619Y-86642857D01*
X91690476Y-86738095D01*
X91880952Y-86785714D01*
X92261904Y-86785714D01*
X92357142Y-86738095D01*
X92404761Y-86690476D01*
X92452380Y-86595238D01*
X92452380Y-86404761D01*
X92404761Y-86309523D01*
X92357142Y-86261904D01*
X92261904Y-86214285D01*
X92023809Y-86214285D01*
X91928571Y-86261904D01*
X91880952Y-86309523D01*
X91833333Y-86404761D01*
X91833333Y-86595238D01*
X91880952Y-86690476D01*
X91928571Y-86738095D01*
X92023809Y-86785714D01*
X69833333Y-50357142D02*
X69785714Y-50404761D01*
X69642857Y-50452380D01*
X69547619Y-50452380D01*
X69404761Y-50404761D01*
X69309523Y-50309523D01*
X69261904Y-50214285D01*
X69214285Y-50023809D01*
X69214285Y-49880952D01*
X69261904Y-49690476D01*
X69309523Y-49595238D01*
X69404761Y-49500000D01*
X69547619Y-49452380D01*
X69642857Y-49452380D01*
X69785714Y-49500000D01*
X69833333Y-49547619D01*
X70166666Y-49452380D02*
X70833333Y-49452380D01*
X70404761Y-50452380D01*
X96507142Y-83666666D02*
X96554761Y-83714285D01*
X96602380Y-83857142D01*
X96602380Y-83952380D01*
X96554761Y-84095238D01*
X96459523Y-84190476D01*
X96364285Y-84238095D01*
X96173809Y-84285714D01*
X96030952Y-84285714D01*
X95840476Y-84238095D01*
X95745238Y-84190476D01*
X95650000Y-84095238D01*
X95602380Y-83952380D01*
X95602380Y-83857142D01*
X95650000Y-83714285D01*
X95697619Y-83666666D01*
X96030952Y-83095238D02*
X95983333Y-83190476D01*
X95935714Y-83238095D01*
X95840476Y-83285714D01*
X95792857Y-83285714D01*
X95697619Y-83238095D01*
X95650000Y-83190476D01*
X95602380Y-83095238D01*
X95602380Y-82904761D01*
X95650000Y-82809523D01*
X95697619Y-82761904D01*
X95792857Y-82714285D01*
X95840476Y-82714285D01*
X95935714Y-82761904D01*
X95983333Y-82809523D01*
X96030952Y-82904761D01*
X96030952Y-83095238D01*
X96078571Y-83190476D01*
X96126190Y-83238095D01*
X96221428Y-83285714D01*
X96411904Y-83285714D01*
X96507142Y-83238095D01*
X96554761Y-83190476D01*
X96602380Y-83095238D01*
X96602380Y-82904761D01*
X96554761Y-82809523D01*
X96507142Y-82761904D01*
X96411904Y-82714285D01*
X96221428Y-82714285D01*
X96126190Y-82761904D01*
X96078571Y-82809523D01*
X96030952Y-82904761D01*
X103561432Y-47790400D02*
X103609051Y-47838019D01*
X103656670Y-47980876D01*
X103656670Y-48076114D01*
X103609051Y-48218972D01*
X103513813Y-48314210D01*
X103418575Y-48361829D01*
X103228099Y-48409448D01*
X103085242Y-48409448D01*
X102894766Y-48361829D01*
X102799528Y-48314210D01*
X102704290Y-48218972D01*
X102656670Y-48076114D01*
X102656670Y-47980876D01*
X102704290Y-47838019D01*
X102751909Y-47790400D01*
X103656670Y-47314210D02*
X103656670Y-47123734D01*
X103609051Y-47028495D01*
X103561432Y-46980876D01*
X103418575Y-46885638D01*
X103228099Y-46838019D01*
X102847147Y-46838019D01*
X102751909Y-46885638D01*
X102704290Y-46933257D01*
X102656670Y-47028495D01*
X102656670Y-47218972D01*
X102704290Y-47314210D01*
X102751909Y-47361829D01*
X102847147Y-47409448D01*
X103085242Y-47409448D01*
X103180480Y-47361829D01*
X103228099Y-47314210D01*
X103275718Y-47218972D01*
X103275718Y-47028495D01*
X103228099Y-46933257D01*
X103180480Y-46885638D01*
X103085242Y-46838019D01*
X120007142Y-71642857D02*
X120054761Y-71690476D01*
X120102380Y-71833333D01*
X120102380Y-71928571D01*
X120054761Y-72071428D01*
X119959523Y-72166666D01*
X119864285Y-72214285D01*
X119673809Y-72261904D01*
X119530952Y-72261904D01*
X119340476Y-72214285D01*
X119245238Y-72166666D01*
X119150000Y-72071428D01*
X119102380Y-71928571D01*
X119102380Y-71833333D01*
X119150000Y-71690476D01*
X119197619Y-71642857D01*
X120102380Y-70690476D02*
X120102380Y-71261904D01*
X120102380Y-70976190D02*
X119102380Y-70976190D01*
X119245238Y-71071428D01*
X119340476Y-71166666D01*
X119388095Y-71261904D01*
X119102380Y-70071428D02*
X119102380Y-69976190D01*
X119150000Y-69880952D01*
X119197619Y-69833333D01*
X119292857Y-69785714D01*
X119483333Y-69738095D01*
X119721428Y-69738095D01*
X119911904Y-69785714D01*
X120007142Y-69833333D01*
X120054761Y-69880952D01*
X120102380Y-69976190D01*
X120102380Y-70071428D01*
X120054761Y-70166666D01*
X120007142Y-70214285D01*
X119911904Y-70261904D01*
X119721428Y-70309523D01*
X119483333Y-70309523D01*
X119292857Y-70261904D01*
X119197619Y-70214285D01*
X119150000Y-70166666D01*
X119102380Y-70071428D01*
X61857142Y-79857142D02*
X61809523Y-79904761D01*
X61666666Y-79952380D01*
X61571428Y-79952380D01*
X61428571Y-79904761D01*
X61333333Y-79809523D01*
X61285714Y-79714285D01*
X61238095Y-79523809D01*
X61238095Y-79380952D01*
X61285714Y-79190476D01*
X61333333Y-79095238D01*
X61428571Y-79000000D01*
X61571428Y-78952380D01*
X61666666Y-78952380D01*
X61809523Y-79000000D01*
X61857142Y-79047619D01*
X62809523Y-79952380D02*
X62238095Y-79952380D01*
X62523809Y-79952380D02*
X62523809Y-78952380D01*
X62428571Y-79095238D01*
X62333333Y-79190476D01*
X62238095Y-79238095D01*
X63761904Y-79952380D02*
X63190476Y-79952380D01*
X63476190Y-79952380D02*
X63476190Y-78952380D01*
X63380952Y-79095238D01*
X63285714Y-79190476D01*
X63190476Y-79238095D01*
X85507142Y-81142857D02*
X85554761Y-81190476D01*
X85602380Y-81333333D01*
X85602380Y-81428571D01*
X85554761Y-81571428D01*
X85459523Y-81666666D01*
X85364285Y-81714285D01*
X85173809Y-81761904D01*
X85030952Y-81761904D01*
X84840476Y-81714285D01*
X84745238Y-81666666D01*
X84650000Y-81571428D01*
X84602380Y-81428571D01*
X84602380Y-81333333D01*
X84650000Y-81190476D01*
X84697619Y-81142857D01*
X85602380Y-80190476D02*
X85602380Y-80761904D01*
X85602380Y-80476190D02*
X84602380Y-80476190D01*
X84745238Y-80571428D01*
X84840476Y-80666666D01*
X84888095Y-80761904D01*
X84697619Y-79809523D02*
X84650000Y-79761904D01*
X84602380Y-79666666D01*
X84602380Y-79428571D01*
X84650000Y-79333333D01*
X84697619Y-79285714D01*
X84792857Y-79238095D01*
X84888095Y-79238095D01*
X85030952Y-79285714D01*
X85602380Y-79857142D01*
X85602380Y-79238095D01*
X61857142Y-76357142D02*
X61809523Y-76404761D01*
X61666666Y-76452380D01*
X61571428Y-76452380D01*
X61428571Y-76404761D01*
X61333333Y-76309523D01*
X61285714Y-76214285D01*
X61238095Y-76023809D01*
X61238095Y-75880952D01*
X61285714Y-75690476D01*
X61333333Y-75595238D01*
X61428571Y-75500000D01*
X61571428Y-75452380D01*
X61666666Y-75452380D01*
X61809523Y-75500000D01*
X61857142Y-75547619D01*
X62809523Y-76452380D02*
X62238095Y-76452380D01*
X62523809Y-76452380D02*
X62523809Y-75452380D01*
X62428571Y-75595238D01*
X62333333Y-75690476D01*
X62238095Y-75738095D01*
X63142857Y-75452380D02*
X63761904Y-75452380D01*
X63428571Y-75833333D01*
X63571428Y-75833333D01*
X63666666Y-75880952D01*
X63714285Y-75928571D01*
X63761904Y-76023809D01*
X63761904Y-76261904D01*
X63714285Y-76357142D01*
X63666666Y-76404761D01*
X63571428Y-76452380D01*
X63285714Y-76452380D01*
X63190476Y-76404761D01*
X63142857Y-76357142D01*
X72666666Y-87952380D02*
X72666666Y-86952380D01*
X73047619Y-86952380D01*
X73142857Y-87000000D01*
X73190476Y-87047619D01*
X73238095Y-87142857D01*
X73238095Y-87285714D01*
X73190476Y-87380952D01*
X73142857Y-87428571D01*
X73047619Y-87476190D01*
X72666666Y-87476190D01*
X73571428Y-86952380D02*
X73809523Y-87952380D01*
X74000000Y-87238095D01*
X74190476Y-87952380D01*
X74428571Y-86952380D01*
X75380952Y-87952380D02*
X75047619Y-87476190D01*
X74809523Y-87952380D02*
X74809523Y-86952380D01*
X75190476Y-86952380D01*
X75285714Y-87000000D01*
X75333333Y-87047619D01*
X75380952Y-87142857D01*
X75380952Y-87285714D01*
X75333333Y-87380952D01*
X75285714Y-87428571D01*
X75190476Y-87476190D01*
X74809523Y-87476190D01*
X117802380Y-76238095D02*
X116802380Y-76238095D01*
X116802380Y-76000000D01*
X116850000Y-75857142D01*
X116945238Y-75761904D01*
X117040476Y-75714285D01*
X117230952Y-75666666D01*
X117373809Y-75666666D01*
X117564285Y-75714285D01*
X117659523Y-75761904D01*
X117754761Y-75857142D01*
X117802380Y-76000000D01*
X117802380Y-76238095D01*
X117135714Y-74809523D02*
X117802380Y-74809523D01*
X116754761Y-75047619D02*
X117469047Y-75285714D01*
X117469047Y-74666666D01*
X65666666Y-85078571D02*
X65333333Y-85078571D01*
X65333333Y-85602380D02*
X65333333Y-84602380D01*
X65809523Y-84602380D01*
X66714285Y-85602380D02*
X66142857Y-85602380D01*
X66428571Y-85602380D02*
X66428571Y-84602380D01*
X66333333Y-84745238D01*
X66238095Y-84840476D01*
X66142857Y-84888095D01*
X127552380Y-89142857D02*
X128552380Y-88809523D01*
X127552380Y-88476190D01*
X128171428Y-88142857D02*
X128171428Y-87380952D01*
X128552380Y-86904761D02*
X127552380Y-86904761D01*
X127885714Y-86428571D02*
X128552380Y-86428571D01*
X127980952Y-86428571D02*
X127933333Y-86380952D01*
X127885714Y-86285714D01*
X127885714Y-86142857D01*
X127933333Y-86047619D01*
X128028571Y-86000000D01*
X128552380Y-86000000D01*
X135504761Y-67761904D02*
X135552380Y-67619047D01*
X135552380Y-67380952D01*
X135504761Y-67285714D01*
X135457142Y-67238095D01*
X135361904Y-67190476D01*
X135266666Y-67190476D01*
X135171428Y-67238095D01*
X135123809Y-67285714D01*
X135076190Y-67380952D01*
X135028571Y-67571428D01*
X134980952Y-67666666D01*
X134933333Y-67714285D01*
X134838095Y-67761904D01*
X134742857Y-67761904D01*
X134647619Y-67714285D01*
X134600000Y-67666666D01*
X134552380Y-67571428D01*
X134552380Y-67333333D01*
X134600000Y-67190476D01*
X134885714Y-66761904D02*
X135885714Y-66761904D01*
X134933333Y-66761904D02*
X134885714Y-66666666D01*
X134885714Y-66476190D01*
X134933333Y-66380952D01*
X134980952Y-66333333D01*
X135076190Y-66285714D01*
X135361904Y-66285714D01*
X135457142Y-66333333D01*
X135504761Y-66380952D01*
X135552380Y-66476190D01*
X135552380Y-66666666D01*
X135504761Y-66761904D01*
X135504761Y-65476190D02*
X135552380Y-65571428D01*
X135552380Y-65761904D01*
X135504761Y-65857142D01*
X135409523Y-65904761D01*
X135028571Y-65904761D01*
X134933333Y-65857142D01*
X134885714Y-65761904D01*
X134885714Y-65571428D01*
X134933333Y-65476190D01*
X135028571Y-65428571D01*
X135123809Y-65428571D01*
X135219047Y-65904761D01*
X135552380Y-64571428D02*
X135028571Y-64571428D01*
X134933333Y-64619047D01*
X134885714Y-64714285D01*
X134885714Y-64904761D01*
X134933333Y-65000000D01*
X135504761Y-64571428D02*
X135552380Y-64666666D01*
X135552380Y-64904761D01*
X135504761Y-65000000D01*
X135409523Y-65047619D01*
X135314285Y-65047619D01*
X135219047Y-65000000D01*
X135171428Y-64904761D01*
X135171428Y-64666666D01*
X135123809Y-64571428D01*
X135552380Y-64095238D02*
X134552380Y-64095238D01*
X135171428Y-64000000D02*
X135552380Y-63714285D01*
X134885714Y-63714285D02*
X135266666Y-64095238D01*
X135504761Y-62904761D02*
X135552380Y-63000000D01*
X135552380Y-63190476D01*
X135504761Y-63285714D01*
X135409523Y-63333333D01*
X135028571Y-63333333D01*
X134933333Y-63285714D01*
X134885714Y-63190476D01*
X134885714Y-63000000D01*
X134933333Y-62904761D01*
X135028571Y-62857142D01*
X135123809Y-62857142D01*
X135219047Y-63333333D01*
X135552380Y-62428571D02*
X134885714Y-62428571D01*
X135076190Y-62428571D02*
X134980952Y-62380952D01*
X134933333Y-62333333D01*
X134885714Y-62238095D01*
X134885714Y-62142857D01*
X62952380Y-61833333D02*
X63666666Y-61833333D01*
X63809523Y-61880952D01*
X63904761Y-61976190D01*
X63952380Y-62119047D01*
X63952380Y-62214285D01*
X62952380Y-61452380D02*
X62952380Y-60833333D01*
X63333333Y-61166666D01*
X63333333Y-61023809D01*
X63380952Y-60928571D01*
X63428571Y-60880952D01*
X63523809Y-60833333D01*
X63761904Y-60833333D01*
X63857142Y-60880952D01*
X63904761Y-60928571D01*
X63952380Y-61023809D01*
X63952380Y-61309523D01*
X63904761Y-61404761D01*
X63857142Y-61452380D01*
X76952380Y-91333333D02*
X77666666Y-91333333D01*
X77809523Y-91380952D01*
X77904761Y-91476190D01*
X77952380Y-91619047D01*
X77952380Y-91714285D01*
X76952380Y-90380952D02*
X76952380Y-90857142D01*
X77428571Y-90904761D01*
X77380952Y-90857142D01*
X77333333Y-90761904D01*
X77333333Y-90523809D01*
X77380952Y-90428571D01*
X77428571Y-90380952D01*
X77523809Y-90333333D01*
X77761904Y-90333333D01*
X77857142Y-90380952D01*
X77904761Y-90428571D01*
X77952380Y-90523809D01*
X77952380Y-90761904D01*
X77904761Y-90857142D01*
X77857142Y-90904761D01*
X128552380Y-54261904D02*
X128552380Y-54738095D01*
X127552380Y-54738095D01*
X128028571Y-53928571D02*
X128028571Y-53595238D01*
X128552380Y-53452380D02*
X128552380Y-53928571D01*
X127552380Y-53928571D01*
X127552380Y-53452380D01*
X128552380Y-53023809D02*
X127552380Y-53023809D01*
X127552380Y-52785714D01*
X127600000Y-52642857D01*
X127695238Y-52547619D01*
X127790476Y-52500000D01*
X127980952Y-52452380D01*
X128123809Y-52452380D01*
X128314285Y-52500000D01*
X128409523Y-52547619D01*
X128504761Y-52642857D01*
X128552380Y-52785714D01*
X128552380Y-53023809D01*
X128552380Y-51261904D02*
X127885714Y-51261904D01*
X128076190Y-51261904D02*
X127980952Y-51214285D01*
X127933333Y-51166666D01*
X127885714Y-51071428D01*
X127885714Y-50976190D01*
X128552380Y-50642857D02*
X127885714Y-50642857D01*
X127552380Y-50642857D02*
X127600000Y-50690476D01*
X127647619Y-50642857D01*
X127600000Y-50595238D01*
X127552380Y-50642857D01*
X127647619Y-50642857D01*
X127885714Y-49738095D02*
X128695238Y-49738095D01*
X128790476Y-49785714D01*
X128838095Y-49833333D01*
X128885714Y-49928571D01*
X128885714Y-50071428D01*
X128838095Y-50166666D01*
X128504761Y-49738095D02*
X128552380Y-49833333D01*
X128552380Y-50023809D01*
X128504761Y-50119047D01*
X128457142Y-50166666D01*
X128361904Y-50214285D01*
X128076190Y-50214285D01*
X127980952Y-50166666D01*
X127933333Y-50119047D01*
X127885714Y-50023809D01*
X127885714Y-49833333D01*
X127933333Y-49738095D01*
X128552380Y-49261904D02*
X127552380Y-49261904D01*
X128552380Y-48833333D02*
X128028571Y-48833333D01*
X127933333Y-48880952D01*
X127885714Y-48976190D01*
X127885714Y-49119047D01*
X127933333Y-49214285D01*
X127980952Y-49261904D01*
X127885714Y-48500000D02*
X127885714Y-48119047D01*
X127552380Y-48357142D02*
X128409523Y-48357142D01*
X128504761Y-48309523D01*
X128552380Y-48214285D01*
X128552380Y-48119047D01*
X155654761Y-55690476D02*
X155702380Y-55547619D01*
X155702380Y-55309523D01*
X155654761Y-55214285D01*
X155607142Y-55166666D01*
X155511904Y-55119047D01*
X155416666Y-55119047D01*
X155321428Y-55166666D01*
X155273809Y-55214285D01*
X155226190Y-55309523D01*
X155178571Y-55500000D01*
X155130952Y-55595238D01*
X155083333Y-55642857D01*
X154988095Y-55690476D01*
X154892857Y-55690476D01*
X154797619Y-55642857D01*
X154750000Y-55595238D01*
X154702380Y-55500000D01*
X154702380Y-55261904D01*
X154750000Y-55119047D01*
X155654761Y-54309523D02*
X155702380Y-54404761D01*
X155702380Y-54595238D01*
X155654761Y-54690476D01*
X155559523Y-54738095D01*
X155178571Y-54738095D01*
X155083333Y-54690476D01*
X155035714Y-54595238D01*
X155035714Y-54404761D01*
X155083333Y-54309523D01*
X155178571Y-54261904D01*
X155273809Y-54261904D01*
X155369047Y-54738095D01*
X155035714Y-53833333D02*
X155702380Y-53833333D01*
X155130952Y-53833333D02*
X155083333Y-53785714D01*
X155035714Y-53690476D01*
X155035714Y-53547619D01*
X155083333Y-53452380D01*
X155178571Y-53404761D01*
X155702380Y-53404761D01*
X155654761Y-52976190D02*
X155702380Y-52880952D01*
X155702380Y-52690476D01*
X155654761Y-52595238D01*
X155559523Y-52547619D01*
X155511904Y-52547619D01*
X155416666Y-52595238D01*
X155369047Y-52690476D01*
X155369047Y-52833333D01*
X155321428Y-52928571D01*
X155226190Y-52976190D01*
X155178571Y-52976190D01*
X155083333Y-52928571D01*
X155035714Y-52833333D01*
X155035714Y-52690476D01*
X155083333Y-52595238D01*
X155702380Y-51976190D02*
X155654761Y-52071428D01*
X155607142Y-52119047D01*
X155511904Y-52166666D01*
X155226190Y-52166666D01*
X155130952Y-52119047D01*
X155083333Y-52071428D01*
X155035714Y-51976190D01*
X155035714Y-51833333D01*
X155083333Y-51738095D01*
X155130952Y-51690476D01*
X155226190Y-51642857D01*
X155511904Y-51642857D01*
X155607142Y-51690476D01*
X155654761Y-51738095D01*
X155702380Y-51833333D01*
X155702380Y-51976190D01*
X155702380Y-51214285D02*
X155035714Y-51214285D01*
X155226190Y-51214285D02*
X155130952Y-51166666D01*
X155083333Y-51119047D01*
X155035714Y-51023809D01*
X155035714Y-50928571D01*
X154797619Y-49880952D02*
X154750000Y-49833333D01*
X154702380Y-49738095D01*
X154702380Y-49500000D01*
X154750000Y-49404761D01*
X154797619Y-49357142D01*
X154892857Y-49309523D01*
X154988095Y-49309523D01*
X155130952Y-49357142D01*
X155702380Y-49928571D01*
X155702380Y-49309523D01*
X155702380Y-86952380D02*
X154702380Y-86952380D01*
X154702380Y-86714285D01*
X154750000Y-86571428D01*
X154845238Y-86476190D01*
X154940476Y-86428571D01*
X155130952Y-86380952D01*
X155273809Y-86380952D01*
X155464285Y-86428571D01*
X155559523Y-86476190D01*
X155654761Y-86571428D01*
X155702380Y-86714285D01*
X155702380Y-86952380D01*
X155702380Y-85952380D02*
X155035714Y-85952380D01*
X154702380Y-85952380D02*
X154750000Y-86000000D01*
X154797619Y-85952380D01*
X154750000Y-85904761D01*
X154702380Y-85952380D01*
X154797619Y-85952380D01*
X155654761Y-85523809D02*
X155702380Y-85428571D01*
X155702380Y-85238095D01*
X155654761Y-85142857D01*
X155559523Y-85095238D01*
X155511904Y-85095238D01*
X155416666Y-85142857D01*
X155369047Y-85238095D01*
X155369047Y-85380952D01*
X155321428Y-85476190D01*
X155226190Y-85523809D01*
X155178571Y-85523809D01*
X155083333Y-85476190D01*
X155035714Y-85380952D01*
X155035714Y-85238095D01*
X155083333Y-85142857D01*
X155035714Y-84666666D02*
X156035714Y-84666666D01*
X155083333Y-84666666D02*
X155035714Y-84571428D01*
X155035714Y-84380952D01*
X155083333Y-84285714D01*
X155130952Y-84238095D01*
X155226190Y-84190476D01*
X155511904Y-84190476D01*
X155607142Y-84238095D01*
X155654761Y-84285714D01*
X155702380Y-84380952D01*
X155702380Y-84571428D01*
X155654761Y-84666666D01*
X155702380Y-83619047D02*
X155654761Y-83714285D01*
X155559523Y-83761904D01*
X154702380Y-83761904D01*
X155702380Y-82809523D02*
X155178571Y-82809523D01*
X155083333Y-82857142D01*
X155035714Y-82952380D01*
X155035714Y-83142857D01*
X155083333Y-83238095D01*
X155654761Y-82809523D02*
X155702380Y-82904761D01*
X155702380Y-83142857D01*
X155654761Y-83238095D01*
X155559523Y-83285714D01*
X155464285Y-83285714D01*
X155369047Y-83238095D01*
X155321428Y-83142857D01*
X155321428Y-82904761D01*
X155273809Y-82809523D01*
X155035714Y-82428571D02*
X155702380Y-82190476D01*
X155035714Y-81952380D02*
X155702380Y-82190476D01*
X155940476Y-82285714D01*
X155988095Y-82333333D01*
X156035714Y-82428571D01*
X148202380Y-52976190D02*
X148202380Y-52404761D01*
X149202380Y-52690476D02*
X148202380Y-52690476D01*
X149202380Y-52071428D02*
X148535714Y-52071428D01*
X148726190Y-52071428D02*
X148630952Y-52023809D01*
X148583333Y-51976190D01*
X148535714Y-51880952D01*
X148535714Y-51785714D01*
X149202380Y-51452380D02*
X148535714Y-51452380D01*
X148202380Y-51452380D02*
X148250000Y-51500000D01*
X148297619Y-51452380D01*
X148250000Y-51404761D01*
X148202380Y-51452380D01*
X148297619Y-51452380D01*
X148535714Y-50547619D02*
X149345238Y-50547619D01*
X149440476Y-50595238D01*
X149488095Y-50642857D01*
X149535714Y-50738095D01*
X149535714Y-50880952D01*
X149488095Y-50976190D01*
X149154761Y-50547619D02*
X149202380Y-50642857D01*
X149202380Y-50833333D01*
X149154761Y-50928571D01*
X149107142Y-50976190D01*
X149011904Y-51023809D01*
X148726190Y-51023809D01*
X148630952Y-50976190D01*
X148583333Y-50928571D01*
X148535714Y-50833333D01*
X148535714Y-50642857D01*
X148583333Y-50547619D01*
X148535714Y-49642857D02*
X149345238Y-49642857D01*
X149440476Y-49690476D01*
X149488095Y-49738095D01*
X149535714Y-49833333D01*
X149535714Y-49976190D01*
X149488095Y-50071428D01*
X149154761Y-49642857D02*
X149202380Y-49738095D01*
X149202380Y-49928571D01*
X149154761Y-50023809D01*
X149107142Y-50071428D01*
X149011904Y-50119047D01*
X148726190Y-50119047D01*
X148630952Y-50071428D01*
X148583333Y-50023809D01*
X148535714Y-49928571D01*
X148535714Y-49738095D01*
X148583333Y-49642857D01*
X149154761Y-48785714D02*
X149202380Y-48880952D01*
X149202380Y-49071428D01*
X149154761Y-49166666D01*
X149059523Y-49214285D01*
X148678571Y-49214285D01*
X148583333Y-49166666D01*
X148535714Y-49071428D01*
X148535714Y-48880952D01*
X148583333Y-48785714D01*
X148678571Y-48738095D01*
X148773809Y-48738095D01*
X148869047Y-49214285D01*
X149202380Y-48309523D02*
X148535714Y-48309523D01*
X148726190Y-48309523D02*
X148630952Y-48261904D01*
X148583333Y-48214285D01*
X148535714Y-48119047D01*
X148535714Y-48023809D01*
X149202380Y-77440476D02*
X148202380Y-77440476D01*
X148535714Y-76964285D02*
X149202380Y-76964285D01*
X148630952Y-76964285D02*
X148583333Y-76916666D01*
X148535714Y-76821428D01*
X148535714Y-76678571D01*
X148583333Y-76583333D01*
X148678571Y-76535714D01*
X149202380Y-76535714D01*
X148535714Y-76202380D02*
X148535714Y-75821428D01*
X149202380Y-76059523D02*
X148345238Y-76059523D01*
X148250000Y-76011904D01*
X148202380Y-75916666D01*
X148202380Y-75821428D01*
X149202380Y-75345238D02*
X149154761Y-75440476D01*
X149107142Y-75488095D01*
X149011904Y-75535714D01*
X148726190Y-75535714D01*
X148630952Y-75488095D01*
X148583333Y-75440476D01*
X148535714Y-75345238D01*
X148535714Y-75202380D01*
X148583333Y-75107142D01*
X148630952Y-75059523D01*
X148726190Y-75011904D01*
X149011904Y-75011904D01*
X149107142Y-75059523D01*
X149154761Y-75107142D01*
X149202380Y-75202380D01*
X149202380Y-75345238D01*
X128552380Y-76500000D02*
X127552380Y-76500000D01*
X128552380Y-75452380D02*
X128076190Y-75785714D01*
X128552380Y-76023809D02*
X127552380Y-76023809D01*
X127552380Y-75642857D01*
X127600000Y-75547619D01*
X127647619Y-75500000D01*
X127742857Y-75452380D01*
X127885714Y-75452380D01*
X127980952Y-75500000D01*
X128028571Y-75547619D01*
X128076190Y-75642857D01*
X128076190Y-76023809D01*
X128552380Y-74261904D02*
X127552380Y-74261904D01*
X128266666Y-73928571D01*
X127552380Y-73595238D01*
X128552380Y-73595238D01*
X128552380Y-72976190D02*
X128504761Y-73071428D01*
X128457142Y-73119047D01*
X128361904Y-73166666D01*
X128076190Y-73166666D01*
X127980952Y-73119047D01*
X127933333Y-73071428D01*
X127885714Y-72976190D01*
X127885714Y-72833333D01*
X127933333Y-72738095D01*
X127980952Y-72690476D01*
X128076190Y-72642857D01*
X128361904Y-72642857D01*
X128457142Y-72690476D01*
X128504761Y-72738095D01*
X128552380Y-72833333D01*
X128552380Y-72976190D01*
X128552380Y-71785714D02*
X127552380Y-71785714D01*
X128504761Y-71785714D02*
X128552380Y-71880952D01*
X128552380Y-72071428D01*
X128504761Y-72166666D01*
X128457142Y-72214285D01*
X128361904Y-72261904D01*
X128076190Y-72261904D01*
X127980952Y-72214285D01*
X127933333Y-72166666D01*
X127885714Y-72071428D01*
X127885714Y-71880952D01*
X127933333Y-71785714D01*
X127885714Y-70880952D02*
X128552380Y-70880952D01*
X127885714Y-71309523D02*
X128409523Y-71309523D01*
X128504761Y-71261904D01*
X128552380Y-71166666D01*
X128552380Y-71023809D01*
X128504761Y-70928571D01*
X128457142Y-70880952D01*
X128552380Y-70261904D02*
X128504761Y-70357142D01*
X128409523Y-70404761D01*
X127552380Y-70404761D01*
X128504761Y-69500000D02*
X128552380Y-69595238D01*
X128552380Y-69785714D01*
X128504761Y-69880952D01*
X128409523Y-69928571D01*
X128028571Y-69928571D01*
X127933333Y-69880952D01*
X127885714Y-69785714D01*
X127885714Y-69595238D01*
X127933333Y-69500000D01*
X128028571Y-69452380D01*
X128123809Y-69452380D01*
X128219047Y-69928571D01*
X149202380Y-60738095D02*
X148726190Y-61071428D01*
X149202380Y-61309523D02*
X148202380Y-61309523D01*
X148202380Y-60928571D01*
X148250000Y-60833333D01*
X148297619Y-60785714D01*
X148392857Y-60738095D01*
X148535714Y-60738095D01*
X148630952Y-60785714D01*
X148678571Y-60833333D01*
X148726190Y-60928571D01*
X148726190Y-61309523D01*
X149154761Y-59928571D02*
X149202380Y-60023809D01*
X149202380Y-60214285D01*
X149154761Y-60309523D01*
X149059523Y-60357142D01*
X148678571Y-60357142D01*
X148583333Y-60309523D01*
X148535714Y-60214285D01*
X148535714Y-60023809D01*
X148583333Y-59928571D01*
X148678571Y-59880952D01*
X148773809Y-59880952D01*
X148869047Y-60357142D01*
X149202380Y-59309523D02*
X149154761Y-59404761D01*
X149059523Y-59452380D01*
X148202380Y-59452380D01*
X149202380Y-58785714D02*
X149154761Y-58880952D01*
X149107142Y-58928571D01*
X149011904Y-58976190D01*
X148726190Y-58976190D01*
X148630952Y-58928571D01*
X148583333Y-58880952D01*
X148535714Y-58785714D01*
X148535714Y-58642857D01*
X148583333Y-58547619D01*
X148630952Y-58500000D01*
X148726190Y-58452380D01*
X149011904Y-58452380D01*
X149107142Y-58500000D01*
X149154761Y-58547619D01*
X149202380Y-58642857D01*
X149202380Y-58785714D01*
X149202380Y-57595238D02*
X148678571Y-57595238D01*
X148583333Y-57642857D01*
X148535714Y-57738095D01*
X148535714Y-57928571D01*
X148583333Y-58023809D01*
X149154761Y-57595238D02*
X149202380Y-57690476D01*
X149202380Y-57928571D01*
X149154761Y-58023809D01*
X149059523Y-58071428D01*
X148964285Y-58071428D01*
X148869047Y-58023809D01*
X148821428Y-57928571D01*
X148821428Y-57690476D01*
X148773809Y-57595238D01*
X149202380Y-56690476D02*
X148202380Y-56690476D01*
X149154761Y-56690476D02*
X149202380Y-56785714D01*
X149202380Y-56976190D01*
X149154761Y-57071428D01*
X149107142Y-57119047D01*
X149011904Y-57166666D01*
X148726190Y-57166666D01*
X148630952Y-57119047D01*
X148583333Y-57071428D01*
X148535714Y-56976190D01*
X148535714Y-56785714D01*
X148583333Y-56690476D01*
X149154761Y-70297619D02*
X149202380Y-70154761D01*
X149202380Y-69916666D01*
X149154761Y-69821428D01*
X149107142Y-69773809D01*
X149011904Y-69726190D01*
X148916666Y-69726190D01*
X148821428Y-69773809D01*
X148773809Y-69821428D01*
X148726190Y-69916666D01*
X148678571Y-70107142D01*
X148630952Y-70202380D01*
X148583333Y-70250000D01*
X148488095Y-70297619D01*
X148392857Y-70297619D01*
X148297619Y-70250000D01*
X148250000Y-70202380D01*
X148202380Y-70107142D01*
X148202380Y-69869047D01*
X148250000Y-69726190D01*
X148535714Y-69297619D02*
X149535714Y-69297619D01*
X148583333Y-69297619D02*
X148535714Y-69202380D01*
X148535714Y-69011904D01*
X148583333Y-68916666D01*
X148630952Y-68869047D01*
X148726190Y-68821428D01*
X149011904Y-68821428D01*
X149107142Y-68869047D01*
X149154761Y-68916666D01*
X149202380Y-69011904D01*
X149202380Y-69202380D01*
X149154761Y-69297619D01*
X149154761Y-68011904D02*
X149202380Y-68107142D01*
X149202380Y-68297619D01*
X149154761Y-68392857D01*
X149059523Y-68440476D01*
X148678571Y-68440476D01*
X148583333Y-68392857D01*
X148535714Y-68297619D01*
X148535714Y-68107142D01*
X148583333Y-68011904D01*
X148678571Y-67964285D01*
X148773809Y-67964285D01*
X148869047Y-68440476D01*
X149154761Y-67107142D02*
X149202380Y-67202380D01*
X149202380Y-67392857D01*
X149154761Y-67488095D01*
X149107142Y-67535714D01*
X149011904Y-67583333D01*
X148726190Y-67583333D01*
X148630952Y-67535714D01*
X148583333Y-67488095D01*
X148535714Y-67392857D01*
X148535714Y-67202380D01*
X148583333Y-67107142D01*
X149202380Y-66678571D02*
X148535714Y-66678571D01*
X148202380Y-66678571D02*
X148250000Y-66726190D01*
X148297619Y-66678571D01*
X148250000Y-66630952D01*
X148202380Y-66678571D01*
X148297619Y-66678571D01*
X149202380Y-65773809D02*
X148678571Y-65773809D01*
X148583333Y-65821428D01*
X148535714Y-65916666D01*
X148535714Y-66107142D01*
X148583333Y-66202380D01*
X149154761Y-65773809D02*
X149202380Y-65869047D01*
X149202380Y-66107142D01*
X149154761Y-66202380D01*
X149059523Y-66250000D01*
X148964285Y-66250000D01*
X148869047Y-66202380D01*
X148821428Y-66107142D01*
X148821428Y-65869047D01*
X148773809Y-65773809D01*
X149202380Y-65154761D02*
X149154761Y-65250000D01*
X149059523Y-65297619D01*
X148202380Y-65297619D01*
X128552380Y-64285714D02*
X128552380Y-64761904D01*
X127552380Y-64761904D01*
X128028571Y-63952380D02*
X128028571Y-63619047D01*
X128552380Y-63476190D02*
X128552380Y-63952380D01*
X127552380Y-63952380D01*
X127552380Y-63476190D01*
X128552380Y-63047619D02*
X127552380Y-63047619D01*
X127552380Y-62809523D01*
X127600000Y-62666666D01*
X127695238Y-62571428D01*
X127790476Y-62523809D01*
X127980952Y-62476190D01*
X128123809Y-62476190D01*
X128314285Y-62523809D01*
X128409523Y-62571428D01*
X128504761Y-62666666D01*
X128552380Y-62809523D01*
X128552380Y-63047619D01*
X128552380Y-61142857D02*
X128504761Y-61238095D01*
X128409523Y-61285714D01*
X127552380Y-61285714D01*
X128504761Y-60380952D02*
X128552380Y-60476190D01*
X128552380Y-60666666D01*
X128504761Y-60761904D01*
X128409523Y-60809523D01*
X128028571Y-60809523D01*
X127933333Y-60761904D01*
X127885714Y-60666666D01*
X127885714Y-60476190D01*
X127933333Y-60380952D01*
X128028571Y-60333333D01*
X128123809Y-60333333D01*
X128219047Y-60809523D01*
X127885714Y-60047619D02*
X127885714Y-59666666D01*
X128552380Y-59904761D02*
X127695238Y-59904761D01*
X127600000Y-59857142D01*
X127552380Y-59761904D01*
X127552380Y-59666666D01*
X127885714Y-59476190D02*
X127885714Y-59095238D01*
X127552380Y-59333333D02*
X128409523Y-59333333D01*
X128504761Y-59285714D01*
X128552380Y-59190476D01*
X128552380Y-59095238D01*
X135504761Y-55690476D02*
X135552380Y-55547619D01*
X135552380Y-55309523D01*
X135504761Y-55214285D01*
X135457142Y-55166666D01*
X135361904Y-55119047D01*
X135266666Y-55119047D01*
X135171428Y-55166666D01*
X135123809Y-55214285D01*
X135076190Y-55309523D01*
X135028571Y-55500000D01*
X134980952Y-55595238D01*
X134933333Y-55642857D01*
X134838095Y-55690476D01*
X134742857Y-55690476D01*
X134647619Y-55642857D01*
X134600000Y-55595238D01*
X134552380Y-55500000D01*
X134552380Y-55261904D01*
X134600000Y-55119047D01*
X135504761Y-54309523D02*
X135552380Y-54404761D01*
X135552380Y-54595238D01*
X135504761Y-54690476D01*
X135409523Y-54738095D01*
X135028571Y-54738095D01*
X134933333Y-54690476D01*
X134885714Y-54595238D01*
X134885714Y-54404761D01*
X134933333Y-54309523D01*
X135028571Y-54261904D01*
X135123809Y-54261904D01*
X135219047Y-54738095D01*
X134885714Y-53833333D02*
X135552380Y-53833333D01*
X134980952Y-53833333D02*
X134933333Y-53785714D01*
X134885714Y-53690476D01*
X134885714Y-53547619D01*
X134933333Y-53452380D01*
X135028571Y-53404761D01*
X135552380Y-53404761D01*
X135504761Y-52976190D02*
X135552380Y-52880952D01*
X135552380Y-52690476D01*
X135504761Y-52595238D01*
X135409523Y-52547619D01*
X135361904Y-52547619D01*
X135266666Y-52595238D01*
X135219047Y-52690476D01*
X135219047Y-52833333D01*
X135171428Y-52928571D01*
X135076190Y-52976190D01*
X135028571Y-52976190D01*
X134933333Y-52928571D01*
X134885714Y-52833333D01*
X134885714Y-52690476D01*
X134933333Y-52595238D01*
X135552380Y-51976190D02*
X135504761Y-52071428D01*
X135457142Y-52119047D01*
X135361904Y-52166666D01*
X135076190Y-52166666D01*
X134980952Y-52119047D01*
X134933333Y-52071428D01*
X134885714Y-51976190D01*
X134885714Y-51833333D01*
X134933333Y-51738095D01*
X134980952Y-51690476D01*
X135076190Y-51642857D01*
X135361904Y-51642857D01*
X135457142Y-51690476D01*
X135504761Y-51738095D01*
X135552380Y-51833333D01*
X135552380Y-51976190D01*
X135552380Y-51214285D02*
X134885714Y-51214285D01*
X135076190Y-51214285D02*
X134980952Y-51166666D01*
X134933333Y-51119047D01*
X134885714Y-51023809D01*
X134885714Y-50928571D01*
X135552380Y-49309523D02*
X135552380Y-49880952D01*
X135552380Y-49595238D02*
X134552380Y-49595238D01*
X134695238Y-49690476D01*
X134790476Y-49785714D01*
X134838095Y-49880952D01*
X95476190Y-44428571D02*
X95809523Y-44428571D01*
X95952380Y-44952380D02*
X95476190Y-44952380D01*
X95476190Y-43952380D01*
X95952380Y-43952380D01*
X96285714Y-44952380D02*
X96809523Y-44285714D01*
X96285714Y-44285714D02*
X96809523Y-44952380D01*
X97047619Y-44285714D02*
X97428571Y-44285714D01*
X97190476Y-43952380D02*
X97190476Y-44809523D01*
X97238095Y-44904761D01*
X97333333Y-44952380D01*
X97428571Y-44952380D01*
X98142857Y-44904761D02*
X98047619Y-44952380D01*
X97857142Y-44952380D01*
X97761904Y-44904761D01*
X97714285Y-44809523D01*
X97714285Y-44428571D01*
X97761904Y-44333333D01*
X97857142Y-44285714D01*
X98047619Y-44285714D01*
X98142857Y-44333333D01*
X98190476Y-44428571D01*
X98190476Y-44523809D01*
X97714285Y-44619047D01*
X98619047Y-44285714D02*
X98619047Y-44952380D01*
X98619047Y-44380952D02*
X98666666Y-44333333D01*
X98761904Y-44285714D01*
X98904761Y-44285714D01*
X99000000Y-44333333D01*
X99047619Y-44428571D01*
X99047619Y-44952380D01*
X99476190Y-44904761D02*
X99571428Y-44952380D01*
X99761904Y-44952380D01*
X99857142Y-44904761D01*
X99904761Y-44809523D01*
X99904761Y-44761904D01*
X99857142Y-44666666D01*
X99761904Y-44619047D01*
X99619047Y-44619047D01*
X99523809Y-44571428D01*
X99476190Y-44476190D01*
X99476190Y-44428571D01*
X99523809Y-44333333D01*
X99619047Y-44285714D01*
X99761904Y-44285714D01*
X99857142Y-44333333D01*
X100333333Y-44952380D02*
X100333333Y-44285714D01*
X100333333Y-43952380D02*
X100285714Y-44000000D01*
X100333333Y-44047619D01*
X100380952Y-44000000D01*
X100333333Y-43952380D01*
X100333333Y-44047619D01*
X100952380Y-44952380D02*
X100857142Y-44904761D01*
X100809523Y-44857142D01*
X100761904Y-44761904D01*
X100761904Y-44476190D01*
X100809523Y-44380952D01*
X100857142Y-44333333D01*
X100952380Y-44285714D01*
X101095238Y-44285714D01*
X101190476Y-44333333D01*
X101238095Y-44380952D01*
X101285714Y-44476190D01*
X101285714Y-44761904D01*
X101238095Y-44857142D01*
X101190476Y-44904761D01*
X101095238Y-44952380D01*
X100952380Y-44952380D01*
X101714285Y-44285714D02*
X101714285Y-44952380D01*
X101714285Y-44380952D02*
X101761904Y-44333333D01*
X101857142Y-44285714D01*
X102000000Y-44285714D01*
X102095238Y-44333333D01*
X102142857Y-44428571D01*
X102142857Y-44952380D01*
X103333333Y-44904761D02*
X103476190Y-44952380D01*
X103714285Y-44952380D01*
X103809523Y-44904761D01*
X103857142Y-44857142D01*
X103904761Y-44761904D01*
X103904761Y-44666666D01*
X103857142Y-44571428D01*
X103809523Y-44523809D01*
X103714285Y-44476190D01*
X103523809Y-44428571D01*
X103428571Y-44380952D01*
X103380952Y-44333333D01*
X103333333Y-44238095D01*
X103333333Y-44142857D01*
X103380952Y-44047619D01*
X103428571Y-44000000D01*
X103523809Y-43952380D01*
X103761904Y-43952380D01*
X103904761Y-44000000D01*
X104333333Y-44952380D02*
X104333333Y-43952380D01*
X104761904Y-44952380D02*
X104761904Y-44428571D01*
X104714285Y-44333333D01*
X104619047Y-44285714D01*
X104476190Y-44285714D01*
X104380952Y-44333333D01*
X104333333Y-44380952D01*
X105238095Y-44952380D02*
X105238095Y-44285714D01*
X105238095Y-43952380D02*
X105190476Y-44000000D01*
X105238095Y-44047619D01*
X105285714Y-44000000D01*
X105238095Y-43952380D01*
X105238095Y-44047619D01*
X106095238Y-44904761D02*
X106000000Y-44952380D01*
X105809523Y-44952380D01*
X105714285Y-44904761D01*
X105666666Y-44809523D01*
X105666666Y-44428571D01*
X105714285Y-44333333D01*
X105809523Y-44285714D01*
X106000000Y-44285714D01*
X106095238Y-44333333D01*
X106142857Y-44428571D01*
X106142857Y-44523809D01*
X105666666Y-44619047D01*
X106714285Y-44952380D02*
X106619047Y-44904761D01*
X106571428Y-44809523D01*
X106571428Y-43952380D01*
X107523809Y-44952380D02*
X107523809Y-43952380D01*
X107523809Y-44904761D02*
X107428571Y-44952380D01*
X107238095Y-44952380D01*
X107142857Y-44904761D01*
X107095238Y-44857142D01*
X107047619Y-44761904D01*
X107047619Y-44476190D01*
X107095238Y-44380952D01*
X107142857Y-44333333D01*
X107238095Y-44285714D01*
X107428571Y-44285714D01*
X107523809Y-44333333D01*
X125302380Y-49070476D02*
X125302380Y-49546666D01*
X125778571Y-49594285D01*
X125730952Y-49546666D01*
X125683333Y-49451428D01*
X125683333Y-49213333D01*
X125730952Y-49118095D01*
X125778571Y-49070476D01*
X125873809Y-49022857D01*
X126111904Y-49022857D01*
X126207142Y-49070476D01*
X126254761Y-49118095D01*
X126302380Y-49213333D01*
X126302380Y-49451428D01*
X126254761Y-49546666D01*
X126207142Y-49594285D01*
X125302380Y-48737142D02*
X126302380Y-48403809D01*
X125302380Y-48070476D01*
X122762380Y-51176190D02*
X122762380Y-50557142D01*
X123143333Y-50890476D01*
X123143333Y-50747619D01*
X123190952Y-50652380D01*
X123238571Y-50604761D01*
X123333809Y-50557142D01*
X123571904Y-50557142D01*
X123667142Y-50604761D01*
X123714761Y-50652380D01*
X123762380Y-50747619D01*
X123762380Y-51033333D01*
X123714761Y-51128571D01*
X123667142Y-51176190D01*
X123667142Y-50128571D02*
X123714761Y-50080952D01*
X123762380Y-50128571D01*
X123714761Y-50176190D01*
X123667142Y-50128571D01*
X123762380Y-50128571D01*
X122762380Y-49747619D02*
X122762380Y-49128571D01*
X123143333Y-49461904D01*
X123143333Y-49319047D01*
X123190952Y-49223809D01*
X123238571Y-49176190D01*
X123333809Y-49128571D01*
X123571904Y-49128571D01*
X123667142Y-49176190D01*
X123714761Y-49223809D01*
X123762380Y-49319047D01*
X123762380Y-49604761D01*
X123714761Y-49700000D01*
X123667142Y-49747619D01*
X122762380Y-48842857D02*
X123762380Y-48509523D01*
X122762380Y-48176190D01*
X99950000Y-50261904D02*
X99902380Y-50357142D01*
X99902380Y-50500000D01*
X99950000Y-50642857D01*
X100045238Y-50738095D01*
X100140476Y-50785714D01*
X100330952Y-50833333D01*
X100473809Y-50833333D01*
X100664285Y-50785714D01*
X100759523Y-50738095D01*
X100854761Y-50642857D01*
X100902380Y-50500000D01*
X100902380Y-50404761D01*
X100854761Y-50261904D01*
X100807142Y-50214285D01*
X100473809Y-50214285D01*
X100473809Y-50404761D01*
X100902380Y-49785714D02*
X99902380Y-49785714D01*
X100902380Y-49214285D01*
X99902380Y-49214285D01*
X100902380Y-48738095D02*
X99902380Y-48738095D01*
X99902380Y-48500000D01*
X99950000Y-48357142D01*
X100045238Y-48261904D01*
X100140476Y-48214285D01*
X100330952Y-48166666D01*
X100473809Y-48166666D01*
X100664285Y-48214285D01*
X100759523Y-48261904D01*
X100854761Y-48357142D01*
X100902380Y-48500000D01*
X100902380Y-48738095D01*
X94822380Y-49641904D02*
X94822380Y-49070476D01*
X95822380Y-49356190D02*
X94822380Y-49356190D01*
X94822380Y-48832380D02*
X95822380Y-48165714D01*
X94822380Y-48165714D02*
X95822380Y-48832380D01*
X98362380Y-49046666D02*
X97886190Y-49380000D01*
X98362380Y-49618095D02*
X97362380Y-49618095D01*
X97362380Y-49237142D01*
X97410000Y-49141904D01*
X97457619Y-49094285D01*
X97552857Y-49046666D01*
X97695714Y-49046666D01*
X97790952Y-49094285D01*
X97838571Y-49141904D01*
X97886190Y-49237142D01*
X97886190Y-49618095D01*
X97362380Y-48713333D02*
X98362380Y-48046666D01*
X97362380Y-48046666D02*
X98362380Y-48713333D01*
X95822380Y-90258095D02*
X94822380Y-90258095D01*
X94822380Y-90020000D01*
X94870000Y-89877142D01*
X94965238Y-89781904D01*
X95060476Y-89734285D01*
X95250952Y-89686666D01*
X95393809Y-89686666D01*
X95584285Y-89734285D01*
X95679523Y-89781904D01*
X95774761Y-89877142D01*
X95822380Y-90020000D01*
X95822380Y-90258095D01*
X94822380Y-89067619D02*
X94822380Y-88972380D01*
X94870000Y-88877142D01*
X94917619Y-88829523D01*
X95012857Y-88781904D01*
X95203333Y-88734285D01*
X95441428Y-88734285D01*
X95631904Y-88781904D01*
X95727142Y-88829523D01*
X95774761Y-88877142D01*
X95822380Y-88972380D01*
X95822380Y-89067619D01*
X95774761Y-89162857D01*
X95727142Y-89210476D01*
X95631904Y-89258095D01*
X95441428Y-89305714D01*
X95203333Y-89305714D01*
X95012857Y-89258095D01*
X94917619Y-89210476D01*
X94870000Y-89162857D01*
X94822380Y-89067619D01*
X98362380Y-90258095D02*
X97362380Y-90258095D01*
X97362380Y-90020000D01*
X97410000Y-89877142D01*
X97505238Y-89781904D01*
X97600476Y-89734285D01*
X97790952Y-89686666D01*
X97933809Y-89686666D01*
X98124285Y-89734285D01*
X98219523Y-89781904D01*
X98314761Y-89877142D01*
X98362380Y-90020000D01*
X98362380Y-90258095D01*
X98362380Y-88734285D02*
X98362380Y-89305714D01*
X98362380Y-89020000D02*
X97362380Y-89020000D01*
X97505238Y-89115238D01*
X97600476Y-89210476D01*
X97648095Y-89305714D01*
X100902380Y-90258095D02*
X99902380Y-90258095D01*
X99902380Y-90020000D01*
X99950000Y-89877142D01*
X100045238Y-89781904D01*
X100140476Y-89734285D01*
X100330952Y-89686666D01*
X100473809Y-89686666D01*
X100664285Y-89734285D01*
X100759523Y-89781904D01*
X100854761Y-89877142D01*
X100902380Y-90020000D01*
X100902380Y-90258095D01*
X99997619Y-89305714D02*
X99950000Y-89258095D01*
X99902380Y-89162857D01*
X99902380Y-88924761D01*
X99950000Y-88829523D01*
X99997619Y-88781904D01*
X100092857Y-88734285D01*
X100188095Y-88734285D01*
X100330952Y-88781904D01*
X100902380Y-89353333D01*
X100902380Y-88734285D01*
X123476666Y-90234285D02*
X123476666Y-89758095D01*
X123762380Y-90329523D02*
X122762380Y-89996190D01*
X123762380Y-89662857D01*
X122762380Y-89139047D02*
X122762380Y-89043809D01*
X122810000Y-88948571D01*
X122857619Y-88900952D01*
X122952857Y-88853333D01*
X123143333Y-88805714D01*
X123381428Y-88805714D01*
X123571904Y-88853333D01*
X123667142Y-88900952D01*
X123714761Y-88948571D01*
X123762380Y-89043809D01*
X123762380Y-89139047D01*
X123714761Y-89234285D01*
X123667142Y-89281904D01*
X123571904Y-89329523D01*
X123381428Y-89377142D01*
X123143333Y-89377142D01*
X122952857Y-89329523D01*
X122857619Y-89281904D01*
X122810000Y-89234285D01*
X122762380Y-89139047D01*
X126016666Y-90234285D02*
X126016666Y-89758095D01*
X126302380Y-90329523D02*
X125302380Y-89996190D01*
X126302380Y-89662857D01*
X126302380Y-88805714D02*
X126302380Y-89377142D01*
X126302380Y-89091428D02*
X125302380Y-89091428D01*
X125445238Y-89186666D01*
X125540476Y-89281904D01*
X125588095Y-89377142D01*
X155702380Y-70428571D02*
X154702380Y-70428571D01*
X155702380Y-69857142D02*
X155130952Y-70285714D01*
X154702380Y-69857142D02*
X155273809Y-70428571D01*
X155654761Y-69047619D02*
X155702380Y-69142857D01*
X155702380Y-69333333D01*
X155654761Y-69428571D01*
X155559523Y-69476190D01*
X155178571Y-69476190D01*
X155083333Y-69428571D01*
X155035714Y-69333333D01*
X155035714Y-69142857D01*
X155083333Y-69047619D01*
X155178571Y-69000000D01*
X155273809Y-69000000D01*
X155369047Y-69476190D01*
X155035714Y-68666666D02*
X155702380Y-68428571D01*
X155035714Y-68190476D02*
X155702380Y-68428571D01*
X155940476Y-68523809D01*
X155988095Y-68571428D01*
X156035714Y-68666666D01*
X155035714Y-67809523D02*
X156035714Y-67809523D01*
X155083333Y-67809523D02*
X155035714Y-67714285D01*
X155035714Y-67523809D01*
X155083333Y-67428571D01*
X155130952Y-67380952D01*
X155226190Y-67333333D01*
X155511904Y-67333333D01*
X155607142Y-67380952D01*
X155654761Y-67428571D01*
X155702380Y-67523809D01*
X155702380Y-67714285D01*
X155654761Y-67809523D01*
X155702380Y-66476190D02*
X155178571Y-66476190D01*
X155083333Y-66523809D01*
X155035714Y-66619047D01*
X155035714Y-66809523D01*
X155083333Y-66904761D01*
X155654761Y-66476190D02*
X155702380Y-66571428D01*
X155702380Y-66809523D01*
X155654761Y-66904761D01*
X155559523Y-66952380D01*
X155464285Y-66952380D01*
X155369047Y-66904761D01*
X155321428Y-66809523D01*
X155321428Y-66571428D01*
X155273809Y-66476190D01*
X155702380Y-65571428D02*
X154702380Y-65571428D01*
X155654761Y-65571428D02*
X155702380Y-65666666D01*
X155702380Y-65857142D01*
X155654761Y-65952380D01*
X155607142Y-66000000D01*
X155511904Y-66047619D01*
X155226190Y-66047619D01*
X155130952Y-66000000D01*
X155083333Y-65952380D01*
X155035714Y-65857142D01*
X155035714Y-65666666D01*
X155083333Y-65571428D01*
X81938720Y-86576299D02*
X81900571Y-86652598D01*
X81824271Y-86728897D01*
X81709822Y-86843346D01*
X81671673Y-86919645D01*
X81671673Y-86995945D01*
X81862421Y-86957795D02*
X81824271Y-87034094D01*
X81747972Y-87110393D01*
X81595374Y-87148543D01*
X81328326Y-87148543D01*
X81175728Y-87110393D01*
X81099429Y-87034094D01*
X81061279Y-86957795D01*
X81061279Y-86805196D01*
X81099429Y-86728897D01*
X81175728Y-86652598D01*
X81328326Y-86614448D01*
X81595374Y-86614448D01*
X81747972Y-86652598D01*
X81824271Y-86728897D01*
X81862421Y-86805196D01*
X81862421Y-86957795D01*
X81862421Y-85851456D02*
X81862421Y-86309251D01*
X81862421Y-86080354D02*
X81061279Y-86080354D01*
X81175728Y-86156653D01*
X81252027Y-86232952D01*
X81290177Y-86309251D01*
X91833333Y-80952380D02*
X91500000Y-80476190D01*
X91261904Y-80952380D02*
X91261904Y-79952380D01*
X91642857Y-79952380D01*
X91738095Y-80000000D01*
X91785714Y-80047619D01*
X91833333Y-80142857D01*
X91833333Y-80285714D01*
X91785714Y-80380952D01*
X91738095Y-80428571D01*
X91642857Y-80476190D01*
X91261904Y-80476190D01*
X92785714Y-80952380D02*
X92214285Y-80952380D01*
X92500000Y-80952380D02*
X92500000Y-79952380D01*
X92404761Y-80095238D01*
X92309523Y-80190476D01*
X92214285Y-80238095D01*
X103833333Y-75602380D02*
X103500000Y-75126190D01*
X103261904Y-75602380D02*
X103261904Y-74602380D01*
X103642857Y-74602380D01*
X103738095Y-74650000D01*
X103785714Y-74697619D01*
X103833333Y-74792857D01*
X103833333Y-74935714D01*
X103785714Y-75030952D01*
X103738095Y-75078571D01*
X103642857Y-75126190D01*
X103261904Y-75126190D01*
X104214285Y-74697619D02*
X104261904Y-74650000D01*
X104357142Y-74602380D01*
X104595238Y-74602380D01*
X104690476Y-74650000D01*
X104738095Y-74697619D01*
X104785714Y-74792857D01*
X104785714Y-74888095D01*
X104738095Y-75030952D01*
X104166666Y-75602380D01*
X104785714Y-75602380D01*
X103833333Y-69952380D02*
X103500000Y-69476190D01*
X103261904Y-69952380D02*
X103261904Y-68952380D01*
X103642857Y-68952380D01*
X103738095Y-69000000D01*
X103785714Y-69047619D01*
X103833333Y-69142857D01*
X103833333Y-69285714D01*
X103785714Y-69380952D01*
X103738095Y-69428571D01*
X103642857Y-69476190D01*
X103261904Y-69476190D01*
X104166666Y-68952380D02*
X104785714Y-68952380D01*
X104452380Y-69333333D01*
X104595238Y-69333333D01*
X104690476Y-69380952D01*
X104738095Y-69428571D01*
X104785714Y-69523809D01*
X104785714Y-69761904D01*
X104738095Y-69857142D01*
X104690476Y-69904761D01*
X104595238Y-69952380D01*
X104309523Y-69952380D01*
X104214285Y-69904761D01*
X104166666Y-69857142D01*
X106833333Y-53452380D02*
X106500000Y-52976190D01*
X106261904Y-53452380D02*
X106261904Y-52452380D01*
X106642857Y-52452380D01*
X106738095Y-52500000D01*
X106785714Y-52547619D01*
X106833333Y-52642857D01*
X106833333Y-52785714D01*
X106785714Y-52880952D01*
X106738095Y-52928571D01*
X106642857Y-52976190D01*
X106261904Y-52976190D01*
X107690476Y-52785714D02*
X107690476Y-53452380D01*
X107452380Y-52404761D02*
X107214285Y-53119047D01*
X107833333Y-53119047D01*
X116833333Y-53952380D02*
X116500000Y-53476190D01*
X116261904Y-53952380D02*
X116261904Y-52952380D01*
X116642857Y-52952380D01*
X116738095Y-53000000D01*
X116785714Y-53047619D01*
X116833333Y-53142857D01*
X116833333Y-53285714D01*
X116785714Y-53380952D01*
X116738095Y-53428571D01*
X116642857Y-53476190D01*
X116261904Y-53476190D01*
X117738095Y-52952380D02*
X117261904Y-52952380D01*
X117214285Y-53428571D01*
X117261904Y-53380952D01*
X117357142Y-53333333D01*
X117595238Y-53333333D01*
X117690476Y-53380952D01*
X117738095Y-53428571D01*
X117785714Y-53523809D01*
X117785714Y-53761904D01*
X117738095Y-53857142D01*
X117690476Y-53904761D01*
X117595238Y-53952380D01*
X117357142Y-53952380D01*
X117261904Y-53904761D01*
X117214285Y-53857142D01*
X88333333Y-87602380D02*
X88000000Y-87126190D01*
X87761904Y-87602380D02*
X87761904Y-86602380D01*
X88142857Y-86602380D01*
X88238095Y-86650000D01*
X88285714Y-86697619D01*
X88333333Y-86792857D01*
X88333333Y-86935714D01*
X88285714Y-87030952D01*
X88238095Y-87078571D01*
X88142857Y-87126190D01*
X87761904Y-87126190D01*
X89190476Y-86602380D02*
X89000000Y-86602380D01*
X88904761Y-86650000D01*
X88857142Y-86697619D01*
X88761904Y-86840476D01*
X88714285Y-87030952D01*
X88714285Y-87411904D01*
X88761904Y-87507142D01*
X88809523Y-87554761D01*
X88904761Y-87602380D01*
X89095238Y-87602380D01*
X89190476Y-87554761D01*
X89238095Y-87507142D01*
X89285714Y-87411904D01*
X89285714Y-87173809D01*
X89238095Y-87078571D01*
X89190476Y-87030952D01*
X89095238Y-86983333D01*
X88904761Y-86983333D01*
X88809523Y-87030952D01*
X88761904Y-87078571D01*
X88714285Y-87173809D01*
X88333333Y-81802380D02*
X88000000Y-81326190D01*
X87761904Y-81802380D02*
X87761904Y-80802380D01*
X88142857Y-80802380D01*
X88238095Y-80850000D01*
X88285714Y-80897619D01*
X88333333Y-80992857D01*
X88333333Y-81135714D01*
X88285714Y-81230952D01*
X88238095Y-81278571D01*
X88142857Y-81326190D01*
X87761904Y-81326190D01*
X88666666Y-80802380D02*
X89333333Y-80802380D01*
X88904761Y-81802380D01*
X86602380Y-69166666D02*
X86126190Y-69500000D01*
X86602380Y-69738095D02*
X85602380Y-69738095D01*
X85602380Y-69357142D01*
X85650000Y-69261904D01*
X85697619Y-69214285D01*
X85792857Y-69166666D01*
X85935714Y-69166666D01*
X86030952Y-69214285D01*
X86078571Y-69261904D01*
X86126190Y-69357142D01*
X86126190Y-69738095D01*
X86030952Y-68595238D02*
X85983333Y-68690476D01*
X85935714Y-68738095D01*
X85840476Y-68785714D01*
X85792857Y-68785714D01*
X85697619Y-68738095D01*
X85650000Y-68690476D01*
X85602380Y-68595238D01*
X85602380Y-68404761D01*
X85650000Y-68309523D01*
X85697619Y-68261904D01*
X85792857Y-68214285D01*
X85840476Y-68214285D01*
X85935714Y-68261904D01*
X85983333Y-68309523D01*
X86030952Y-68404761D01*
X86030952Y-68595238D01*
X86078571Y-68690476D01*
X86126190Y-68738095D01*
X86221428Y-68785714D01*
X86411904Y-68785714D01*
X86507142Y-68738095D01*
X86554761Y-68690476D01*
X86602380Y-68595238D01*
X86602380Y-68404761D01*
X86554761Y-68309523D01*
X86507142Y-68261904D01*
X86411904Y-68214285D01*
X86221428Y-68214285D01*
X86126190Y-68261904D01*
X86078571Y-68309523D01*
X86030952Y-68404761D01*
X72333333Y-46452380D02*
X72000000Y-45976190D01*
X71761904Y-46452380D02*
X71761904Y-45452380D01*
X72142857Y-45452380D01*
X72238095Y-45500000D01*
X72285714Y-45547619D01*
X72333333Y-45642857D01*
X72333333Y-45785714D01*
X72285714Y-45880952D01*
X72238095Y-45928571D01*
X72142857Y-45976190D01*
X71761904Y-45976190D01*
X72809523Y-46452380D02*
X73000000Y-46452380D01*
X73095238Y-46404761D01*
X73142857Y-46357142D01*
X73238095Y-46214285D01*
X73285714Y-46023809D01*
X73285714Y-45642857D01*
X73238095Y-45547619D01*
X73190476Y-45500000D01*
X73095238Y-45452380D01*
X72904761Y-45452380D01*
X72809523Y-45500000D01*
X72761904Y-45547619D01*
X72714285Y-45642857D01*
X72714285Y-45880952D01*
X72761904Y-45976190D01*
X72809523Y-46023809D01*
X72904761Y-46071428D01*
X73095238Y-46071428D01*
X73190476Y-46023809D01*
X73238095Y-45976190D01*
X73285714Y-45880952D01*
X66357142Y-76452380D02*
X66023809Y-75976190D01*
X65785714Y-76452380D02*
X65785714Y-75452380D01*
X66166666Y-75452380D01*
X66261904Y-75500000D01*
X66309523Y-75547619D01*
X66357142Y-75642857D01*
X66357142Y-75785714D01*
X66309523Y-75880952D01*
X66261904Y-75928571D01*
X66166666Y-75976190D01*
X65785714Y-75976190D01*
X67309523Y-76452380D02*
X66738095Y-76452380D01*
X67023809Y-76452380D02*
X67023809Y-75452380D01*
X66928571Y-75595238D01*
X66833333Y-75690476D01*
X66738095Y-75738095D01*
X67928571Y-75452380D02*
X68023809Y-75452380D01*
X68119047Y-75500000D01*
X68166666Y-75547619D01*
X68214285Y-75642857D01*
X68261904Y-75833333D01*
X68261904Y-76071428D01*
X68214285Y-76261904D01*
X68166666Y-76357142D01*
X68119047Y-76404761D01*
X68023809Y-76452380D01*
X67928571Y-76452380D01*
X67833333Y-76404761D01*
X67785714Y-76357142D01*
X67738095Y-76261904D01*
X67690476Y-76071428D01*
X67690476Y-75833333D01*
X67738095Y-75642857D01*
X67785714Y-75547619D01*
X67833333Y-75500000D01*
X67928571Y-75452380D01*
X66357142Y-79952380D02*
X66023809Y-79476190D01*
X65785714Y-79952380D02*
X65785714Y-78952380D01*
X66166666Y-78952380D01*
X66261904Y-79000000D01*
X66309523Y-79047619D01*
X66357142Y-79142857D01*
X66357142Y-79285714D01*
X66309523Y-79380952D01*
X66261904Y-79428571D01*
X66166666Y-79476190D01*
X65785714Y-79476190D01*
X67309523Y-79952380D02*
X66738095Y-79952380D01*
X67023809Y-79952380D02*
X67023809Y-78952380D01*
X66928571Y-79095238D01*
X66833333Y-79190476D01*
X66738095Y-79238095D01*
X68261904Y-79952380D02*
X67690476Y-79952380D01*
X67976190Y-79952380D02*
X67976190Y-78952380D01*
X67880952Y-79095238D01*
X67785714Y-79190476D01*
X67690476Y-79238095D01*
X61452380Y-84190476D02*
X60976190Y-84523809D01*
X61452380Y-84761904D02*
X60452380Y-84761904D01*
X60452380Y-84380952D01*
X60500000Y-84285714D01*
X60547619Y-84238095D01*
X60642857Y-84190476D01*
X60785714Y-84190476D01*
X60880952Y-84238095D01*
X60928571Y-84285714D01*
X60976190Y-84380952D01*
X60976190Y-84761904D01*
X61452380Y-83761904D02*
X60452380Y-83761904D01*
X61452380Y-83190476D01*
X60452380Y-83190476D01*
X61452380Y-82190476D02*
X61452380Y-82761904D01*
X61452380Y-82476190D02*
X60452380Y-82476190D01*
X60595238Y-82571428D01*
X60690476Y-82666666D01*
X60738095Y-82761904D01*
X121952380Y-65690476D02*
X121476190Y-66023809D01*
X121952380Y-66261904D02*
X120952380Y-66261904D01*
X120952380Y-65880952D01*
X121000000Y-65785714D01*
X121047619Y-65738095D01*
X121142857Y-65690476D01*
X121285714Y-65690476D01*
X121380952Y-65738095D01*
X121428571Y-65785714D01*
X121476190Y-65880952D01*
X121476190Y-66261904D01*
X121952380Y-65261904D02*
X120952380Y-65261904D01*
X121952380Y-64690476D01*
X120952380Y-64690476D01*
X121047619Y-64261904D02*
X121000000Y-64214285D01*
X120952380Y-64119047D01*
X120952380Y-63880952D01*
X121000000Y-63785714D01*
X121047619Y-63738095D01*
X121142857Y-63690476D01*
X121238095Y-63690476D01*
X121380952Y-63738095D01*
X121952380Y-64309523D01*
X121952380Y-63690476D01*
X77261904Y-50452380D02*
X76928571Y-49976190D01*
X76690476Y-50452380D02*
X76690476Y-49452380D01*
X77071428Y-49452380D01*
X77166666Y-49500000D01*
X77214285Y-49547619D01*
X77261904Y-49642857D01*
X77261904Y-49785714D01*
X77214285Y-49880952D01*
X77166666Y-49928571D01*
X77071428Y-49976190D01*
X76690476Y-49976190D01*
X78071428Y-50404761D02*
X77976190Y-50452380D01*
X77785714Y-50452380D01*
X77690476Y-50404761D01*
X77642857Y-50309523D01*
X77642857Y-49928571D01*
X77690476Y-49833333D01*
X77785714Y-49785714D01*
X77976190Y-49785714D01*
X78071428Y-49833333D01*
X78119047Y-49928571D01*
X78119047Y-50023809D01*
X77642857Y-50119047D01*
X78500000Y-50404761D02*
X78595238Y-50452380D01*
X78785714Y-50452380D01*
X78880952Y-50404761D01*
X78928571Y-50309523D01*
X78928571Y-50261904D01*
X78880952Y-50166666D01*
X78785714Y-50119047D01*
X78642857Y-50119047D01*
X78547619Y-50071428D01*
X78500000Y-49976190D01*
X78500000Y-49928571D01*
X78547619Y-49833333D01*
X78642857Y-49785714D01*
X78785714Y-49785714D01*
X78880952Y-49833333D01*
X79738095Y-50404761D02*
X79642857Y-50452380D01*
X79452380Y-50452380D01*
X79357142Y-50404761D01*
X79309523Y-50309523D01*
X79309523Y-49928571D01*
X79357142Y-49833333D01*
X79452380Y-49785714D01*
X79642857Y-49785714D01*
X79738095Y-49833333D01*
X79785714Y-49928571D01*
X79785714Y-50023809D01*
X79309523Y-50119047D01*
X80071428Y-49785714D02*
X80452380Y-49785714D01*
X80214285Y-49452380D02*
X80214285Y-50309523D01*
X80261904Y-50404761D01*
X80357142Y-50452380D01*
X80452380Y-50452380D01*
X85238095Y-64452380D02*
X85238095Y-65261904D01*
X85285714Y-65357142D01*
X85333333Y-65404761D01*
X85428571Y-65452380D01*
X85619047Y-65452380D01*
X85714285Y-65404761D01*
X85761904Y-65357142D01*
X85809523Y-65261904D01*
X85809523Y-64452380D01*
X86809523Y-65452380D02*
X86238095Y-65452380D01*
X86523809Y-65452380D02*
X86523809Y-64452380D01*
X86428571Y-64595238D01*
X86333333Y-64690476D01*
X86238095Y-64738095D01*
X110735474Y-52450497D02*
X110735474Y-53262805D01*
X110783257Y-53358371D01*
X110831040Y-53406154D01*
X110926605Y-53453937D01*
X111117737Y-53453937D01*
X111213302Y-53406154D01*
X111261085Y-53358371D01*
X111308868Y-53262805D01*
X111308868Y-52450497D01*
X111738914Y-52546062D02*
X111786697Y-52498280D01*
X111882262Y-52450497D01*
X112121177Y-52450497D01*
X112216742Y-52498280D01*
X112264525Y-52546062D01*
X112312308Y-52641628D01*
X112312308Y-52737194D01*
X112264525Y-52880542D01*
X111691131Y-53453937D01*
X112312308Y-53453937D01*
X117952380Y-62761904D02*
X118761904Y-62761904D01*
X118857142Y-62714285D01*
X118904761Y-62666666D01*
X118952380Y-62571428D01*
X118952380Y-62380952D01*
X118904761Y-62285714D01*
X118857142Y-62238095D01*
X118761904Y-62190476D01*
X117952380Y-62190476D01*
X117952380Y-61809523D02*
X117952380Y-61190476D01*
X118333333Y-61523809D01*
X118333333Y-61380952D01*
X118380952Y-61285714D01*
X118428571Y-61238095D01*
X118523809Y-61190476D01*
X118761904Y-61190476D01*
X118857142Y-61238095D01*
X118904761Y-61285714D01*
X118952380Y-61380952D01*
X118952380Y-61666666D01*
X118904761Y-61761904D01*
X118857142Y-61809523D01*
X84952380Y-76761904D02*
X85761904Y-76761904D01*
X85857142Y-76714285D01*
X85904761Y-76666666D01*
X85952380Y-76571428D01*
X85952380Y-76380952D01*
X85904761Y-76285714D01*
X85857142Y-76238095D01*
X85761904Y-76190476D01*
X84952380Y-76190476D01*
X85285714Y-75285714D02*
X85952380Y-75285714D01*
X84904761Y-75523809D02*
X85619047Y-75761904D01*
X85619047Y-75142857D01*
X113238095Y-45452380D02*
X113238095Y-46261904D01*
X113285714Y-46357142D01*
X113333333Y-46404761D01*
X113428571Y-46452380D01*
X113619047Y-46452380D01*
X113714285Y-46404761D01*
X113761904Y-46357142D01*
X113809523Y-46261904D01*
X113809523Y-45452380D01*
X114761904Y-45452380D02*
X114285714Y-45452380D01*
X114238095Y-45928571D01*
X114285714Y-45880952D01*
X114380952Y-45833333D01*
X114619047Y-45833333D01*
X114714285Y-45880952D01*
X114761904Y-45928571D01*
X114809523Y-46023809D01*
X114809523Y-46261904D01*
X114761904Y-46357142D01*
X114714285Y-46404761D01*
X114619047Y-46452380D01*
X114380952Y-46452380D01*
X114285714Y-46404761D01*
X114238095Y-46357142D01*
X74238095Y-74202380D02*
X74238095Y-75011904D01*
X74285714Y-75107142D01*
X74333333Y-75154761D01*
X74428571Y-75202380D01*
X74619047Y-75202380D01*
X74714285Y-75154761D01*
X74761904Y-75107142D01*
X74809523Y-75011904D01*
X74809523Y-74202380D01*
X75714285Y-74202380D02*
X75523809Y-74202380D01*
X75428571Y-74250000D01*
X75380952Y-74297619D01*
X75285714Y-74440476D01*
X75238095Y-74630952D01*
X75238095Y-75011904D01*
X75285714Y-75107142D01*
X75333333Y-75154761D01*
X75428571Y-75202380D01*
X75619047Y-75202380D01*
X75714285Y-75154761D01*
X75761904Y-75107142D01*
X75809523Y-75011904D01*
X75809523Y-74773809D01*
X75761904Y-74678571D01*
X75714285Y-74630952D01*
X75619047Y-74583333D01*
X75428571Y-74583333D01*
X75333333Y-74630952D01*
X75285714Y-74678571D01*
X75238095Y-74773809D01*
X97023809Y-71076190D02*
X97023809Y-71552380D01*
X96690476Y-70552380D02*
X97023809Y-71076190D01*
X97357142Y-70552380D01*
X98214285Y-71552380D02*
X97642857Y-71552380D01*
X97928571Y-71552380D02*
X97928571Y-70552380D01*
X97833333Y-70695238D01*
X97738095Y-70790476D01*
X97642857Y-70838095D01*
X137452380Y-90833333D02*
X138166666Y-90833333D01*
X138309523Y-90880952D01*
X138404761Y-90976190D01*
X138452380Y-91119047D01*
X138452380Y-91214285D01*
X137452380Y-89928571D02*
X137452380Y-90119047D01*
X137500000Y-90214285D01*
X137547619Y-90261904D01*
X137690476Y-90357142D01*
X137880952Y-90404761D01*
X138261904Y-90404761D01*
X138357142Y-90357142D01*
X138404761Y-90309523D01*
X138452380Y-90214285D01*
X138452380Y-90023809D01*
X138404761Y-89928571D01*
X138357142Y-89880952D01*
X138261904Y-89833333D01*
X138023809Y-89833333D01*
X137928571Y-89880952D01*
X137880952Y-89928571D01*
X137833333Y-90023809D01*
X137833333Y-90214285D01*
X137880952Y-90309523D01*
X137928571Y-90357142D01*
X138023809Y-90404761D01*
X120007142Y-57642857D02*
X120054761Y-57690476D01*
X120102380Y-57833333D01*
X120102380Y-57928571D01*
X120054761Y-58071428D01*
X119959523Y-58166666D01*
X119864285Y-58214285D01*
X119673809Y-58261904D01*
X119530952Y-58261904D01*
X119340476Y-58214285D01*
X119245238Y-58166666D01*
X119150000Y-58071428D01*
X119102380Y-57928571D01*
X119102380Y-57833333D01*
X119150000Y-57690476D01*
X119197619Y-57642857D01*
X120102380Y-56690476D02*
X120102380Y-57261904D01*
X120102380Y-56976190D02*
X119102380Y-56976190D01*
X119245238Y-57071428D01*
X119340476Y-57166666D01*
X119388095Y-57261904D01*
X119102380Y-55785714D02*
X119102380Y-56261904D01*
X119578571Y-56309523D01*
X119530952Y-56261904D01*
X119483333Y-56166666D01*
X119483333Y-55928571D01*
X119530952Y-55833333D01*
X119578571Y-55785714D01*
X119673809Y-55738095D01*
X119911904Y-55738095D01*
X120007142Y-55785714D01*
X120054761Y-55833333D01*
X120102380Y-55928571D01*
X120102380Y-56166666D01*
X120054761Y-56261904D01*
X120007142Y-56309523D01*
X117452380Y-50190476D02*
X116976190Y-50523809D01*
X117452380Y-50761904D02*
X116452380Y-50761904D01*
X116452380Y-50380952D01*
X116500000Y-50285714D01*
X116547619Y-50238095D01*
X116642857Y-50190476D01*
X116785714Y-50190476D01*
X116880952Y-50238095D01*
X116928571Y-50285714D01*
X116976190Y-50380952D01*
X116976190Y-50761904D01*
X117452380Y-49761904D02*
X116452380Y-49761904D01*
X117452380Y-49190476D01*
X116452380Y-49190476D01*
X116452380Y-48809523D02*
X116452380Y-48190476D01*
X116833333Y-48523809D01*
X116833333Y-48380952D01*
X116880952Y-48285714D01*
X116928571Y-48238095D01*
X117023809Y-48190476D01*
X117261904Y-48190476D01*
X117357142Y-48238095D01*
X117404761Y-48285714D01*
X117452380Y-48380952D01*
X117452380Y-48666666D01*
X117404761Y-48761904D01*
X117357142Y-48809523D01*
X104952380Y-91166666D02*
X104952380Y-91642857D01*
X103952380Y-91642857D01*
X104952380Y-90309523D02*
X104952380Y-90880952D01*
X104952380Y-90595238D02*
X103952380Y-90595238D01*
X104095238Y-90690476D01*
X104190476Y-90785714D01*
X104238095Y-90880952D01*
X67833333Y-87952380D02*
X67500000Y-87476190D01*
X67261904Y-87952380D02*
X67261904Y-86952380D01*
X67642857Y-86952380D01*
X67738095Y-87000000D01*
X67785714Y-87047619D01*
X67833333Y-87142857D01*
X67833333Y-87285714D01*
X67785714Y-87380952D01*
X67738095Y-87428571D01*
X67642857Y-87476190D01*
X67261904Y-87476190D01*
X68166666Y-86952380D02*
X68833333Y-87952380D01*
X68833333Y-86952380D02*
X68166666Y-87952380D01*
X70238095Y-86952380D02*
X70809523Y-86952380D01*
X70523809Y-87952380D02*
X70523809Y-86952380D01*
X71047619Y-86952380D02*
X71714285Y-87952380D01*
X71714285Y-86952380D02*
X71047619Y-87952380D01*
X153666666Y-42702380D02*
X153333333Y-42226190D01*
X153095238Y-42702380D02*
X153095238Y-41702380D01*
X153476190Y-41702380D01*
X153571428Y-41750000D01*
X153619047Y-41797619D01*
X153666666Y-41892857D01*
X153666666Y-42035714D01*
X153619047Y-42130952D01*
X153571428Y-42178571D01*
X153476190Y-42226190D01*
X153095238Y-42226190D01*
X154095238Y-42178571D02*
X154428571Y-42178571D01*
X154571428Y-42702380D02*
X154095238Y-42702380D01*
X154095238Y-41702380D01*
X154571428Y-41702380D01*
X155333333Y-42178571D02*
X155000000Y-42178571D01*
X155000000Y-42702380D02*
X155000000Y-41702380D01*
X155476190Y-41702380D01*
X156000000Y-41702380D02*
X156000000Y-41940476D01*
X155761904Y-41845238D02*
X156000000Y-41940476D01*
X156238095Y-41845238D01*
X155857142Y-42130952D02*
X156000000Y-41940476D01*
X156142857Y-42130952D01*
X156761904Y-41702380D02*
X156761904Y-41940476D01*
X156523809Y-41845238D02*
X156761904Y-41940476D01*
X157000000Y-41845238D01*
X156619047Y-42130952D02*
X156761904Y-41940476D01*
X156904761Y-42130952D01*
X153666666Y-90702380D02*
X153333333Y-90226190D01*
X153095238Y-90702380D02*
X153095238Y-89702380D01*
X153476190Y-89702380D01*
X153571428Y-89750000D01*
X153619047Y-89797619D01*
X153666666Y-89892857D01*
X153666666Y-90035714D01*
X153619047Y-90130952D01*
X153571428Y-90178571D01*
X153476190Y-90226190D01*
X153095238Y-90226190D01*
X154095238Y-90178571D02*
X154428571Y-90178571D01*
X154571428Y-90702380D02*
X154095238Y-90702380D01*
X154095238Y-89702380D01*
X154571428Y-89702380D01*
X155333333Y-90178571D02*
X155000000Y-90178571D01*
X155000000Y-90702380D02*
X155000000Y-89702380D01*
X155476190Y-89702380D01*
X156000000Y-89702380D02*
X156000000Y-89940476D01*
X155761904Y-89845238D02*
X156000000Y-89940476D01*
X156238095Y-89845238D01*
X155857142Y-90130952D02*
X156000000Y-89940476D01*
X156142857Y-90130952D01*
X156761904Y-89702380D02*
X156761904Y-89940476D01*
X156523809Y-89845238D02*
X156761904Y-89940476D01*
X157000000Y-89845238D01*
X156619047Y-90130952D02*
X156761904Y-89940476D01*
X156904761Y-90130952D01*
X57666666Y-42702380D02*
X57333333Y-42226190D01*
X57095238Y-42702380D02*
X57095238Y-41702380D01*
X57476190Y-41702380D01*
X57571428Y-41750000D01*
X57619047Y-41797619D01*
X57666666Y-41892857D01*
X57666666Y-42035714D01*
X57619047Y-42130952D01*
X57571428Y-42178571D01*
X57476190Y-42226190D01*
X57095238Y-42226190D01*
X58095238Y-42178571D02*
X58428571Y-42178571D01*
X58571428Y-42702380D02*
X58095238Y-42702380D01*
X58095238Y-41702380D01*
X58571428Y-41702380D01*
X59333333Y-42178571D02*
X59000000Y-42178571D01*
X59000000Y-42702380D02*
X59000000Y-41702380D01*
X59476190Y-41702380D01*
X60000000Y-41702380D02*
X60000000Y-41940476D01*
X59761904Y-41845238D02*
X60000000Y-41940476D01*
X60238095Y-41845238D01*
X59857142Y-42130952D02*
X60000000Y-41940476D01*
X60142857Y-42130952D01*
X60761904Y-41702380D02*
X60761904Y-41940476D01*
X60523809Y-41845238D02*
X60761904Y-41940476D01*
X61000000Y-41845238D01*
X60619047Y-42130952D02*
X60761904Y-41940476D01*
X60904761Y-42130952D01*
X57666666Y-90702380D02*
X57333333Y-90226190D01*
X57095238Y-90702380D02*
X57095238Y-89702380D01*
X57476190Y-89702380D01*
X57571428Y-89750000D01*
X57619047Y-89797619D01*
X57666666Y-89892857D01*
X57666666Y-90035714D01*
X57619047Y-90130952D01*
X57571428Y-90178571D01*
X57476190Y-90226190D01*
X57095238Y-90226190D01*
X58095238Y-90178571D02*
X58428571Y-90178571D01*
X58571428Y-90702380D02*
X58095238Y-90702380D01*
X58095238Y-89702380D01*
X58571428Y-89702380D01*
X59333333Y-90178571D02*
X59000000Y-90178571D01*
X59000000Y-90702380D02*
X59000000Y-89702380D01*
X59476190Y-89702380D01*
X60000000Y-89702380D02*
X60000000Y-89940476D01*
X59761904Y-89845238D02*
X60000000Y-89940476D01*
X60238095Y-89845238D01*
X59857142Y-90130952D02*
X60000000Y-89940476D01*
X60142857Y-90130952D01*
X60761904Y-89702380D02*
X60761904Y-89940476D01*
X60523809Y-89845238D02*
X60761904Y-89940476D01*
X61000000Y-89845238D01*
X60619047Y-90130952D02*
X60761904Y-89940476D01*
X60904761Y-90130952D01*
M02*
