%TF.GenerationSoftware,KiCad,Pcbnew,(5.0.2)-1*%
%TF.CreationDate,2019-03-24T20:38:46+01:00*%
%TF.ProjectId,TaggerMainboard,54616767-6572-44d6-9169-6e626f617264,rev?*%
%TF.SameCoordinates,Original*%
%TF.FileFunction,Copper,L2,Bot*%
%TF.FilePolarity,Positive*%
%FSLAX46Y46*%
G04 Gerber Fmt 4.6, Leading zero omitted, Abs format (unit mm)*
G04 Created by KiCad (PCBNEW (5.0.2)-1) date 24.03.2019 20:38:46*
%MOMM*%
%LPD*%
G01*
G04 APERTURE LIST*
%ADD10C,1.524000*%
%ADD11C,0.150000*%
%ADD12C,1.200000*%
%ADD13O,1.750000X1.200000*%
%ADD14O,1.300000X1.900000*%
%ADD15C,1.300000*%
%ADD16O,1.700000X1.700000*%
%ADD17R,1.700000X1.700000*%
%ADD18C,0.600000*%
%ADD19C,1.000000*%
%ADD20C,0.400000*%
%ADD21C,0.200000*%
%ADD22C,0.254000*%
G04 APERTURE END LIST*
D10*
X66730000Y-46440000D03*
X64190000Y-46440000D03*
X64190000Y-92160000D03*
X61650000Y-46440000D03*
X92130000Y-46440000D03*
X92130000Y-92160000D03*
X61650000Y-92160000D03*
X89590000Y-46440000D03*
X89590000Y-92160000D03*
D11*
G36*
X131649505Y-87901204D02*
X131673773Y-87904804D01*
X131697572Y-87910765D01*
X131720671Y-87919030D01*
X131742850Y-87929520D01*
X131763893Y-87942132D01*
X131783599Y-87956747D01*
X131801777Y-87973223D01*
X131818253Y-87991401D01*
X131832868Y-88011107D01*
X131845480Y-88032150D01*
X131855970Y-88054329D01*
X131864235Y-88077428D01*
X131870196Y-88101227D01*
X131873796Y-88125495D01*
X131875000Y-88149999D01*
X131875000Y-88850001D01*
X131873796Y-88874505D01*
X131870196Y-88898773D01*
X131864235Y-88922572D01*
X131855970Y-88945671D01*
X131845480Y-88967850D01*
X131832868Y-88988893D01*
X131818253Y-89008599D01*
X131801777Y-89026777D01*
X131783599Y-89043253D01*
X131763893Y-89057868D01*
X131742850Y-89070480D01*
X131720671Y-89080970D01*
X131697572Y-89089235D01*
X131673773Y-89095196D01*
X131649505Y-89098796D01*
X131625001Y-89100000D01*
X130374999Y-89100000D01*
X130350495Y-89098796D01*
X130326227Y-89095196D01*
X130302428Y-89089235D01*
X130279329Y-89080970D01*
X130257150Y-89070480D01*
X130236107Y-89057868D01*
X130216401Y-89043253D01*
X130198223Y-89026777D01*
X130181747Y-89008599D01*
X130167132Y-88988893D01*
X130154520Y-88967850D01*
X130144030Y-88945671D01*
X130135765Y-88922572D01*
X130129804Y-88898773D01*
X130126204Y-88874505D01*
X130125000Y-88850001D01*
X130125000Y-88149999D01*
X130126204Y-88125495D01*
X130129804Y-88101227D01*
X130135765Y-88077428D01*
X130144030Y-88054329D01*
X130154520Y-88032150D01*
X130167132Y-88011107D01*
X130181747Y-87991401D01*
X130198223Y-87973223D01*
X130216401Y-87956747D01*
X130236107Y-87942132D01*
X130257150Y-87929520D01*
X130279329Y-87919030D01*
X130302428Y-87910765D01*
X130326227Y-87904804D01*
X130350495Y-87901204D01*
X130374999Y-87900000D01*
X131625001Y-87900000D01*
X131649505Y-87901204D01*
X131649505Y-87901204D01*
G37*
D12*
X131000000Y-88500000D03*
D13*
X131000000Y-86500000D03*
X138000000Y-64000000D03*
D11*
G36*
X138649505Y-65401204D02*
X138673773Y-65404804D01*
X138697572Y-65410765D01*
X138720671Y-65419030D01*
X138742850Y-65429520D01*
X138763893Y-65442132D01*
X138783599Y-65456747D01*
X138801777Y-65473223D01*
X138818253Y-65491401D01*
X138832868Y-65511107D01*
X138845480Y-65532150D01*
X138855970Y-65554329D01*
X138864235Y-65577428D01*
X138870196Y-65601227D01*
X138873796Y-65625495D01*
X138875000Y-65649999D01*
X138875000Y-66350001D01*
X138873796Y-66374505D01*
X138870196Y-66398773D01*
X138864235Y-66422572D01*
X138855970Y-66445671D01*
X138845480Y-66467850D01*
X138832868Y-66488893D01*
X138818253Y-66508599D01*
X138801777Y-66526777D01*
X138783599Y-66543253D01*
X138763893Y-66557868D01*
X138742850Y-66570480D01*
X138720671Y-66580970D01*
X138697572Y-66589235D01*
X138673773Y-66595196D01*
X138649505Y-66598796D01*
X138625001Y-66600000D01*
X137374999Y-66600000D01*
X137350495Y-66598796D01*
X137326227Y-66595196D01*
X137302428Y-66589235D01*
X137279329Y-66580970D01*
X137257150Y-66570480D01*
X137236107Y-66557868D01*
X137216401Y-66543253D01*
X137198223Y-66526777D01*
X137181747Y-66508599D01*
X137167132Y-66488893D01*
X137154520Y-66467850D01*
X137144030Y-66445671D01*
X137135765Y-66422572D01*
X137129804Y-66398773D01*
X137126204Y-66374505D01*
X137125000Y-66350001D01*
X137125000Y-65649999D01*
X137126204Y-65625495D01*
X137129804Y-65601227D01*
X137135765Y-65577428D01*
X137144030Y-65554329D01*
X137154520Y-65532150D01*
X137167132Y-65511107D01*
X137181747Y-65491401D01*
X137198223Y-65473223D01*
X137216401Y-65456747D01*
X137236107Y-65442132D01*
X137257150Y-65429520D01*
X137279329Y-65419030D01*
X137302428Y-65410765D01*
X137326227Y-65404804D01*
X137350495Y-65401204D01*
X137374999Y-65400000D01*
X138625001Y-65400000D01*
X138649505Y-65401204D01*
X138649505Y-65401204D01*
G37*
D12*
X138000000Y-66000000D03*
D10*
X62880000Y-70000000D03*
X65420000Y-70000000D03*
X67960000Y-70000000D03*
X70500000Y-70000000D03*
X73040000Y-70000000D03*
X75580000Y-70000000D03*
X78120000Y-70000000D03*
X80660000Y-70000000D03*
X80660000Y-53000000D03*
X78120000Y-53000000D03*
X75580000Y-53000000D03*
X73040000Y-53000000D03*
X70500000Y-53000000D03*
X67960000Y-53000000D03*
X65420000Y-53000000D03*
X62880000Y-53000000D03*
D14*
X78375000Y-93000000D03*
X85625000Y-93000000D03*
D15*
X84425000Y-90350000D03*
X79575000Y-90350000D03*
D11*
G36*
X131649505Y-52901204D02*
X131673773Y-52904804D01*
X131697572Y-52910765D01*
X131720671Y-52919030D01*
X131742850Y-52929520D01*
X131763893Y-52942132D01*
X131783599Y-52956747D01*
X131801777Y-52973223D01*
X131818253Y-52991401D01*
X131832868Y-53011107D01*
X131845480Y-53032150D01*
X131855970Y-53054329D01*
X131864235Y-53077428D01*
X131870196Y-53101227D01*
X131873796Y-53125495D01*
X131875000Y-53149999D01*
X131875000Y-53850001D01*
X131873796Y-53874505D01*
X131870196Y-53898773D01*
X131864235Y-53922572D01*
X131855970Y-53945671D01*
X131845480Y-53967850D01*
X131832868Y-53988893D01*
X131818253Y-54008599D01*
X131801777Y-54026777D01*
X131783599Y-54043253D01*
X131763893Y-54057868D01*
X131742850Y-54070480D01*
X131720671Y-54080970D01*
X131697572Y-54089235D01*
X131673773Y-54095196D01*
X131649505Y-54098796D01*
X131625001Y-54100000D01*
X130374999Y-54100000D01*
X130350495Y-54098796D01*
X130326227Y-54095196D01*
X130302428Y-54089235D01*
X130279329Y-54080970D01*
X130257150Y-54070480D01*
X130236107Y-54057868D01*
X130216401Y-54043253D01*
X130198223Y-54026777D01*
X130181747Y-54008599D01*
X130167132Y-53988893D01*
X130154520Y-53967850D01*
X130144030Y-53945671D01*
X130135765Y-53922572D01*
X130129804Y-53898773D01*
X130126204Y-53874505D01*
X130125000Y-53850001D01*
X130125000Y-53149999D01*
X130126204Y-53125495D01*
X130129804Y-53101227D01*
X130135765Y-53077428D01*
X130144030Y-53054329D01*
X130154520Y-53032150D01*
X130167132Y-53011107D01*
X130181747Y-52991401D01*
X130198223Y-52973223D01*
X130216401Y-52956747D01*
X130236107Y-52942132D01*
X130257150Y-52929520D01*
X130279329Y-52919030D01*
X130302428Y-52910765D01*
X130326227Y-52904804D01*
X130350495Y-52901204D01*
X130374999Y-52900000D01*
X131625001Y-52900000D01*
X131649505Y-52901204D01*
X131649505Y-52901204D01*
G37*
D12*
X131000000Y-53500000D03*
D13*
X131000000Y-51500000D03*
X131000000Y-49500000D03*
D11*
G36*
X152149505Y-54901204D02*
X152173773Y-54904804D01*
X152197572Y-54910765D01*
X152220671Y-54919030D01*
X152242850Y-54929520D01*
X152263893Y-54942132D01*
X152283599Y-54956747D01*
X152301777Y-54973223D01*
X152318253Y-54991401D01*
X152332868Y-55011107D01*
X152345480Y-55032150D01*
X152355970Y-55054329D01*
X152364235Y-55077428D01*
X152370196Y-55101227D01*
X152373796Y-55125495D01*
X152375000Y-55149999D01*
X152375000Y-55850001D01*
X152373796Y-55874505D01*
X152370196Y-55898773D01*
X152364235Y-55922572D01*
X152355970Y-55945671D01*
X152345480Y-55967850D01*
X152332868Y-55988893D01*
X152318253Y-56008599D01*
X152301777Y-56026777D01*
X152283599Y-56043253D01*
X152263893Y-56057868D01*
X152242850Y-56070480D01*
X152220671Y-56080970D01*
X152197572Y-56089235D01*
X152173773Y-56095196D01*
X152149505Y-56098796D01*
X152125001Y-56100000D01*
X150874999Y-56100000D01*
X150850495Y-56098796D01*
X150826227Y-56095196D01*
X150802428Y-56089235D01*
X150779329Y-56080970D01*
X150757150Y-56070480D01*
X150736107Y-56057868D01*
X150716401Y-56043253D01*
X150698223Y-56026777D01*
X150681747Y-56008599D01*
X150667132Y-55988893D01*
X150654520Y-55967850D01*
X150644030Y-55945671D01*
X150635765Y-55922572D01*
X150629804Y-55898773D01*
X150626204Y-55874505D01*
X150625000Y-55850001D01*
X150625000Y-55149999D01*
X150626204Y-55125495D01*
X150629804Y-55101227D01*
X150635765Y-55077428D01*
X150644030Y-55054329D01*
X150654520Y-55032150D01*
X150667132Y-55011107D01*
X150681747Y-54991401D01*
X150698223Y-54973223D01*
X150716401Y-54956747D01*
X150736107Y-54942132D01*
X150757150Y-54929520D01*
X150779329Y-54919030D01*
X150802428Y-54910765D01*
X150826227Y-54904804D01*
X150850495Y-54901204D01*
X150874999Y-54900000D01*
X152125001Y-54900000D01*
X152149505Y-54901204D01*
X152149505Y-54901204D01*
G37*
D12*
X151500000Y-55500000D03*
D13*
X151500000Y-53500000D03*
X151500000Y-51500000D03*
X151500000Y-49500000D03*
D11*
G36*
X152149505Y-87901204D02*
X152173773Y-87904804D01*
X152197572Y-87910765D01*
X152220671Y-87919030D01*
X152242850Y-87929520D01*
X152263893Y-87942132D01*
X152283599Y-87956747D01*
X152301777Y-87973223D01*
X152318253Y-87991401D01*
X152332868Y-88011107D01*
X152345480Y-88032150D01*
X152355970Y-88054329D01*
X152364235Y-88077428D01*
X152370196Y-88101227D01*
X152373796Y-88125495D01*
X152375000Y-88149999D01*
X152375000Y-88850001D01*
X152373796Y-88874505D01*
X152370196Y-88898773D01*
X152364235Y-88922572D01*
X152355970Y-88945671D01*
X152345480Y-88967850D01*
X152332868Y-88988893D01*
X152318253Y-89008599D01*
X152301777Y-89026777D01*
X152283599Y-89043253D01*
X152263893Y-89057868D01*
X152242850Y-89070480D01*
X152220671Y-89080970D01*
X152197572Y-89089235D01*
X152173773Y-89095196D01*
X152149505Y-89098796D01*
X152125001Y-89100000D01*
X150874999Y-89100000D01*
X150850495Y-89098796D01*
X150826227Y-89095196D01*
X150802428Y-89089235D01*
X150779329Y-89080970D01*
X150757150Y-89070480D01*
X150736107Y-89057868D01*
X150716401Y-89043253D01*
X150698223Y-89026777D01*
X150681747Y-89008599D01*
X150667132Y-88988893D01*
X150654520Y-88967850D01*
X150644030Y-88945671D01*
X150635765Y-88922572D01*
X150629804Y-88898773D01*
X150626204Y-88874505D01*
X150625000Y-88850001D01*
X150625000Y-88149999D01*
X150626204Y-88125495D01*
X150629804Y-88101227D01*
X150635765Y-88077428D01*
X150644030Y-88054329D01*
X150654520Y-88032150D01*
X150667132Y-88011107D01*
X150681747Y-87991401D01*
X150698223Y-87973223D01*
X150716401Y-87956747D01*
X150736107Y-87942132D01*
X150757150Y-87929520D01*
X150779329Y-87919030D01*
X150802428Y-87910765D01*
X150826227Y-87904804D01*
X150850495Y-87901204D01*
X150874999Y-87900000D01*
X152125001Y-87900000D01*
X152149505Y-87901204D01*
X152149505Y-87901204D01*
G37*
D12*
X151500000Y-88500000D03*
D13*
X151500000Y-86500000D03*
X151500000Y-84500000D03*
X151500000Y-82500000D03*
X151500000Y-80500000D03*
D11*
G36*
X145649505Y-50901204D02*
X145673773Y-50904804D01*
X145697572Y-50910765D01*
X145720671Y-50919030D01*
X145742850Y-50929520D01*
X145763893Y-50942132D01*
X145783599Y-50956747D01*
X145801777Y-50973223D01*
X145818253Y-50991401D01*
X145832868Y-51011107D01*
X145845480Y-51032150D01*
X145855970Y-51054329D01*
X145864235Y-51077428D01*
X145870196Y-51101227D01*
X145873796Y-51125495D01*
X145875000Y-51149999D01*
X145875000Y-51850001D01*
X145873796Y-51874505D01*
X145870196Y-51898773D01*
X145864235Y-51922572D01*
X145855970Y-51945671D01*
X145845480Y-51967850D01*
X145832868Y-51988893D01*
X145818253Y-52008599D01*
X145801777Y-52026777D01*
X145783599Y-52043253D01*
X145763893Y-52057868D01*
X145742850Y-52070480D01*
X145720671Y-52080970D01*
X145697572Y-52089235D01*
X145673773Y-52095196D01*
X145649505Y-52098796D01*
X145625001Y-52100000D01*
X144374999Y-52100000D01*
X144350495Y-52098796D01*
X144326227Y-52095196D01*
X144302428Y-52089235D01*
X144279329Y-52080970D01*
X144257150Y-52070480D01*
X144236107Y-52057868D01*
X144216401Y-52043253D01*
X144198223Y-52026777D01*
X144181747Y-52008599D01*
X144167132Y-51988893D01*
X144154520Y-51967850D01*
X144144030Y-51945671D01*
X144135765Y-51922572D01*
X144129804Y-51898773D01*
X144126204Y-51874505D01*
X144125000Y-51850001D01*
X144125000Y-51149999D01*
X144126204Y-51125495D01*
X144129804Y-51101227D01*
X144135765Y-51077428D01*
X144144030Y-51054329D01*
X144154520Y-51032150D01*
X144167132Y-51011107D01*
X144181747Y-50991401D01*
X144198223Y-50973223D01*
X144216401Y-50956747D01*
X144236107Y-50942132D01*
X144257150Y-50929520D01*
X144279329Y-50919030D01*
X144302428Y-50910765D01*
X144326227Y-50904804D01*
X144350495Y-50901204D01*
X144374999Y-50900000D01*
X145625001Y-50900000D01*
X145649505Y-50901204D01*
X145649505Y-50901204D01*
G37*
D12*
X145000000Y-51500000D03*
D13*
X145000000Y-49500000D03*
X145000000Y-75000000D03*
D11*
G36*
X145649505Y-76401204D02*
X145673773Y-76404804D01*
X145697572Y-76410765D01*
X145720671Y-76419030D01*
X145742850Y-76429520D01*
X145763893Y-76442132D01*
X145783599Y-76456747D01*
X145801777Y-76473223D01*
X145818253Y-76491401D01*
X145832868Y-76511107D01*
X145845480Y-76532150D01*
X145855970Y-76554329D01*
X145864235Y-76577428D01*
X145870196Y-76601227D01*
X145873796Y-76625495D01*
X145875000Y-76649999D01*
X145875000Y-77350001D01*
X145873796Y-77374505D01*
X145870196Y-77398773D01*
X145864235Y-77422572D01*
X145855970Y-77445671D01*
X145845480Y-77467850D01*
X145832868Y-77488893D01*
X145818253Y-77508599D01*
X145801777Y-77526777D01*
X145783599Y-77543253D01*
X145763893Y-77557868D01*
X145742850Y-77570480D01*
X145720671Y-77580970D01*
X145697572Y-77589235D01*
X145673773Y-77595196D01*
X145649505Y-77598796D01*
X145625001Y-77600000D01*
X144374999Y-77600000D01*
X144350495Y-77598796D01*
X144326227Y-77595196D01*
X144302428Y-77589235D01*
X144279329Y-77580970D01*
X144257150Y-77570480D01*
X144236107Y-77557868D01*
X144216401Y-77543253D01*
X144198223Y-77526777D01*
X144181747Y-77508599D01*
X144167132Y-77488893D01*
X144154520Y-77467850D01*
X144144030Y-77445671D01*
X144135765Y-77422572D01*
X144129804Y-77398773D01*
X144126204Y-77374505D01*
X144125000Y-77350001D01*
X144125000Y-76649999D01*
X144126204Y-76625495D01*
X144129804Y-76601227D01*
X144135765Y-76577428D01*
X144144030Y-76554329D01*
X144154520Y-76532150D01*
X144167132Y-76511107D01*
X144181747Y-76491401D01*
X144198223Y-76473223D01*
X144216401Y-76456747D01*
X144236107Y-76442132D01*
X144257150Y-76429520D01*
X144279329Y-76419030D01*
X144302428Y-76410765D01*
X144326227Y-76404804D01*
X144350495Y-76401204D01*
X144374999Y-76400000D01*
X145625001Y-76400000D01*
X145649505Y-76401204D01*
X145649505Y-76401204D01*
G37*
D12*
X145000000Y-77000000D03*
D11*
G36*
X131649505Y-75401204D02*
X131673773Y-75404804D01*
X131697572Y-75410765D01*
X131720671Y-75419030D01*
X131742850Y-75429520D01*
X131763893Y-75442132D01*
X131783599Y-75456747D01*
X131801777Y-75473223D01*
X131818253Y-75491401D01*
X131832868Y-75511107D01*
X131845480Y-75532150D01*
X131855970Y-75554329D01*
X131864235Y-75577428D01*
X131870196Y-75601227D01*
X131873796Y-75625495D01*
X131875000Y-75649999D01*
X131875000Y-76350001D01*
X131873796Y-76374505D01*
X131870196Y-76398773D01*
X131864235Y-76422572D01*
X131855970Y-76445671D01*
X131845480Y-76467850D01*
X131832868Y-76488893D01*
X131818253Y-76508599D01*
X131801777Y-76526777D01*
X131783599Y-76543253D01*
X131763893Y-76557868D01*
X131742850Y-76570480D01*
X131720671Y-76580970D01*
X131697572Y-76589235D01*
X131673773Y-76595196D01*
X131649505Y-76598796D01*
X131625001Y-76600000D01*
X130374999Y-76600000D01*
X130350495Y-76598796D01*
X130326227Y-76595196D01*
X130302428Y-76589235D01*
X130279329Y-76580970D01*
X130257150Y-76570480D01*
X130236107Y-76557868D01*
X130216401Y-76543253D01*
X130198223Y-76526777D01*
X130181747Y-76508599D01*
X130167132Y-76488893D01*
X130154520Y-76467850D01*
X130144030Y-76445671D01*
X130135765Y-76422572D01*
X130129804Y-76398773D01*
X130126204Y-76374505D01*
X130125000Y-76350001D01*
X130125000Y-75649999D01*
X130126204Y-75625495D01*
X130129804Y-75601227D01*
X130135765Y-75577428D01*
X130144030Y-75554329D01*
X130154520Y-75532150D01*
X130167132Y-75511107D01*
X130181747Y-75491401D01*
X130198223Y-75473223D01*
X130216401Y-75456747D01*
X130236107Y-75442132D01*
X130257150Y-75429520D01*
X130279329Y-75419030D01*
X130302428Y-75410765D01*
X130326227Y-75404804D01*
X130350495Y-75401204D01*
X130374999Y-75400000D01*
X131625001Y-75400000D01*
X131649505Y-75401204D01*
X131649505Y-75401204D01*
G37*
D12*
X131000000Y-76000000D03*
D13*
X131000000Y-74000000D03*
X131000000Y-72000000D03*
X131000000Y-70000000D03*
X145000000Y-58000000D03*
D11*
G36*
X145649505Y-59401204D02*
X145673773Y-59404804D01*
X145697572Y-59410765D01*
X145720671Y-59419030D01*
X145742850Y-59429520D01*
X145763893Y-59442132D01*
X145783599Y-59456747D01*
X145801777Y-59473223D01*
X145818253Y-59491401D01*
X145832868Y-59511107D01*
X145845480Y-59532150D01*
X145855970Y-59554329D01*
X145864235Y-59577428D01*
X145870196Y-59601227D01*
X145873796Y-59625495D01*
X145875000Y-59649999D01*
X145875000Y-60350001D01*
X145873796Y-60374505D01*
X145870196Y-60398773D01*
X145864235Y-60422572D01*
X145855970Y-60445671D01*
X145845480Y-60467850D01*
X145832868Y-60488893D01*
X145818253Y-60508599D01*
X145801777Y-60526777D01*
X145783599Y-60543253D01*
X145763893Y-60557868D01*
X145742850Y-60570480D01*
X145720671Y-60580970D01*
X145697572Y-60589235D01*
X145673773Y-60595196D01*
X145649505Y-60598796D01*
X145625001Y-60600000D01*
X144374999Y-60600000D01*
X144350495Y-60598796D01*
X144326227Y-60595196D01*
X144302428Y-60589235D01*
X144279329Y-60580970D01*
X144257150Y-60570480D01*
X144236107Y-60557868D01*
X144216401Y-60543253D01*
X144198223Y-60526777D01*
X144181747Y-60508599D01*
X144167132Y-60488893D01*
X144154520Y-60467850D01*
X144144030Y-60445671D01*
X144135765Y-60422572D01*
X144129804Y-60398773D01*
X144126204Y-60374505D01*
X144125000Y-60350001D01*
X144125000Y-59649999D01*
X144126204Y-59625495D01*
X144129804Y-59601227D01*
X144135765Y-59577428D01*
X144144030Y-59554329D01*
X144154520Y-59532150D01*
X144167132Y-59511107D01*
X144181747Y-59491401D01*
X144198223Y-59473223D01*
X144216401Y-59456747D01*
X144236107Y-59442132D01*
X144257150Y-59429520D01*
X144279329Y-59419030D01*
X144302428Y-59410765D01*
X144326227Y-59404804D01*
X144350495Y-59401204D01*
X144374999Y-59400000D01*
X145625001Y-59400000D01*
X145649505Y-59401204D01*
X145649505Y-59401204D01*
G37*
D12*
X145000000Y-60000000D03*
D11*
G36*
X145649505Y-67901204D02*
X145673773Y-67904804D01*
X145697572Y-67910765D01*
X145720671Y-67919030D01*
X145742850Y-67929520D01*
X145763893Y-67942132D01*
X145783599Y-67956747D01*
X145801777Y-67973223D01*
X145818253Y-67991401D01*
X145832868Y-68011107D01*
X145845480Y-68032150D01*
X145855970Y-68054329D01*
X145864235Y-68077428D01*
X145870196Y-68101227D01*
X145873796Y-68125495D01*
X145875000Y-68149999D01*
X145875000Y-68850001D01*
X145873796Y-68874505D01*
X145870196Y-68898773D01*
X145864235Y-68922572D01*
X145855970Y-68945671D01*
X145845480Y-68967850D01*
X145832868Y-68988893D01*
X145818253Y-69008599D01*
X145801777Y-69026777D01*
X145783599Y-69043253D01*
X145763893Y-69057868D01*
X145742850Y-69070480D01*
X145720671Y-69080970D01*
X145697572Y-69089235D01*
X145673773Y-69095196D01*
X145649505Y-69098796D01*
X145625001Y-69100000D01*
X144374999Y-69100000D01*
X144350495Y-69098796D01*
X144326227Y-69095196D01*
X144302428Y-69089235D01*
X144279329Y-69080970D01*
X144257150Y-69070480D01*
X144236107Y-69057868D01*
X144216401Y-69043253D01*
X144198223Y-69026777D01*
X144181747Y-69008599D01*
X144167132Y-68988893D01*
X144154520Y-68967850D01*
X144144030Y-68945671D01*
X144135765Y-68922572D01*
X144129804Y-68898773D01*
X144126204Y-68874505D01*
X144125000Y-68850001D01*
X144125000Y-68149999D01*
X144126204Y-68125495D01*
X144129804Y-68101227D01*
X144135765Y-68077428D01*
X144144030Y-68054329D01*
X144154520Y-68032150D01*
X144167132Y-68011107D01*
X144181747Y-67991401D01*
X144198223Y-67973223D01*
X144216401Y-67956747D01*
X144236107Y-67942132D01*
X144257150Y-67929520D01*
X144279329Y-67919030D01*
X144302428Y-67910765D01*
X144326227Y-67904804D01*
X144350495Y-67901204D01*
X144374999Y-67900000D01*
X145625001Y-67900000D01*
X145649505Y-67901204D01*
X145649505Y-67901204D01*
G37*
D12*
X145000000Y-68500000D03*
D13*
X145000000Y-66500000D03*
X131000000Y-60000000D03*
X131000000Y-62000000D03*
D11*
G36*
X131649505Y-63401204D02*
X131673773Y-63404804D01*
X131697572Y-63410765D01*
X131720671Y-63419030D01*
X131742850Y-63429520D01*
X131763893Y-63442132D01*
X131783599Y-63456747D01*
X131801777Y-63473223D01*
X131818253Y-63491401D01*
X131832868Y-63511107D01*
X131845480Y-63532150D01*
X131855970Y-63554329D01*
X131864235Y-63577428D01*
X131870196Y-63601227D01*
X131873796Y-63625495D01*
X131875000Y-63649999D01*
X131875000Y-64350001D01*
X131873796Y-64374505D01*
X131870196Y-64398773D01*
X131864235Y-64422572D01*
X131855970Y-64445671D01*
X131845480Y-64467850D01*
X131832868Y-64488893D01*
X131818253Y-64508599D01*
X131801777Y-64526777D01*
X131783599Y-64543253D01*
X131763893Y-64557868D01*
X131742850Y-64570480D01*
X131720671Y-64580970D01*
X131697572Y-64589235D01*
X131673773Y-64595196D01*
X131649505Y-64598796D01*
X131625001Y-64600000D01*
X130374999Y-64600000D01*
X130350495Y-64598796D01*
X130326227Y-64595196D01*
X130302428Y-64589235D01*
X130279329Y-64580970D01*
X130257150Y-64570480D01*
X130236107Y-64557868D01*
X130216401Y-64543253D01*
X130198223Y-64526777D01*
X130181747Y-64508599D01*
X130167132Y-64488893D01*
X130154520Y-64467850D01*
X130144030Y-64445671D01*
X130135765Y-64422572D01*
X130129804Y-64398773D01*
X130126204Y-64374505D01*
X130125000Y-64350001D01*
X130125000Y-63649999D01*
X130126204Y-63625495D01*
X130129804Y-63601227D01*
X130135765Y-63577428D01*
X130144030Y-63554329D01*
X130154520Y-63532150D01*
X130167132Y-63511107D01*
X130181747Y-63491401D01*
X130198223Y-63473223D01*
X130216401Y-63456747D01*
X130236107Y-63442132D01*
X130257150Y-63429520D01*
X130279329Y-63419030D01*
X130302428Y-63410765D01*
X130326227Y-63404804D01*
X130350495Y-63401204D01*
X130374999Y-63400000D01*
X131625001Y-63400000D01*
X131649505Y-63401204D01*
X131649505Y-63401204D01*
G37*
D12*
X131000000Y-64000000D03*
D13*
X138000000Y-49500000D03*
X138000000Y-51500000D03*
X138000000Y-53500000D03*
D11*
G36*
X138649505Y-54901204D02*
X138673773Y-54904804D01*
X138697572Y-54910765D01*
X138720671Y-54919030D01*
X138742850Y-54929520D01*
X138763893Y-54942132D01*
X138783599Y-54956747D01*
X138801777Y-54973223D01*
X138818253Y-54991401D01*
X138832868Y-55011107D01*
X138845480Y-55032150D01*
X138855970Y-55054329D01*
X138864235Y-55077428D01*
X138870196Y-55101227D01*
X138873796Y-55125495D01*
X138875000Y-55149999D01*
X138875000Y-55850001D01*
X138873796Y-55874505D01*
X138870196Y-55898773D01*
X138864235Y-55922572D01*
X138855970Y-55945671D01*
X138845480Y-55967850D01*
X138832868Y-55988893D01*
X138818253Y-56008599D01*
X138801777Y-56026777D01*
X138783599Y-56043253D01*
X138763893Y-56057868D01*
X138742850Y-56070480D01*
X138720671Y-56080970D01*
X138697572Y-56089235D01*
X138673773Y-56095196D01*
X138649505Y-56098796D01*
X138625001Y-56100000D01*
X137374999Y-56100000D01*
X137350495Y-56098796D01*
X137326227Y-56095196D01*
X137302428Y-56089235D01*
X137279329Y-56080970D01*
X137257150Y-56070480D01*
X137236107Y-56057868D01*
X137216401Y-56043253D01*
X137198223Y-56026777D01*
X137181747Y-56008599D01*
X137167132Y-55988893D01*
X137154520Y-55967850D01*
X137144030Y-55945671D01*
X137135765Y-55922572D01*
X137129804Y-55898773D01*
X137126204Y-55874505D01*
X137125000Y-55850001D01*
X137125000Y-55149999D01*
X137126204Y-55125495D01*
X137129804Y-55101227D01*
X137135765Y-55077428D01*
X137144030Y-55054329D01*
X137154520Y-55032150D01*
X137167132Y-55011107D01*
X137181747Y-54991401D01*
X137198223Y-54973223D01*
X137216401Y-54956747D01*
X137236107Y-54942132D01*
X137257150Y-54929520D01*
X137279329Y-54919030D01*
X137302428Y-54910765D01*
X137326227Y-54904804D01*
X137350495Y-54901204D01*
X137374999Y-54900000D01*
X138625001Y-54900000D01*
X138649505Y-54901204D01*
X138649505Y-54901204D01*
G37*
D12*
X138000000Y-55500000D03*
D10*
X125850000Y-46340000D03*
X123310000Y-46340000D03*
X100450000Y-46340000D03*
X97910000Y-46340000D03*
X95370000Y-46340000D03*
X95370000Y-92060000D03*
X97910000Y-92060000D03*
X100450000Y-92060000D03*
X123310000Y-92060000D03*
X125850000Y-92060000D03*
D11*
G36*
X152149505Y-74401204D02*
X152173773Y-74404804D01*
X152197572Y-74410765D01*
X152220671Y-74419030D01*
X152242850Y-74429520D01*
X152263893Y-74442132D01*
X152283599Y-74456747D01*
X152301777Y-74473223D01*
X152318253Y-74491401D01*
X152332868Y-74511107D01*
X152345480Y-74532150D01*
X152355970Y-74554329D01*
X152364235Y-74577428D01*
X152370196Y-74601227D01*
X152373796Y-74625495D01*
X152375000Y-74649999D01*
X152375000Y-75350001D01*
X152373796Y-75374505D01*
X152370196Y-75398773D01*
X152364235Y-75422572D01*
X152355970Y-75445671D01*
X152345480Y-75467850D01*
X152332868Y-75488893D01*
X152318253Y-75508599D01*
X152301777Y-75526777D01*
X152283599Y-75543253D01*
X152263893Y-75557868D01*
X152242850Y-75570480D01*
X152220671Y-75580970D01*
X152197572Y-75589235D01*
X152173773Y-75595196D01*
X152149505Y-75598796D01*
X152125001Y-75600000D01*
X150874999Y-75600000D01*
X150850495Y-75598796D01*
X150826227Y-75595196D01*
X150802428Y-75589235D01*
X150779329Y-75580970D01*
X150757150Y-75570480D01*
X150736107Y-75557868D01*
X150716401Y-75543253D01*
X150698223Y-75526777D01*
X150681747Y-75508599D01*
X150667132Y-75488893D01*
X150654520Y-75467850D01*
X150644030Y-75445671D01*
X150635765Y-75422572D01*
X150629804Y-75398773D01*
X150626204Y-75374505D01*
X150625000Y-75350001D01*
X150625000Y-74649999D01*
X150626204Y-74625495D01*
X150629804Y-74601227D01*
X150635765Y-74577428D01*
X150644030Y-74554329D01*
X150654520Y-74532150D01*
X150667132Y-74511107D01*
X150681747Y-74491401D01*
X150698223Y-74473223D01*
X150716401Y-74456747D01*
X150736107Y-74442132D01*
X150757150Y-74429520D01*
X150779329Y-74419030D01*
X150802428Y-74410765D01*
X150826227Y-74404804D01*
X150850495Y-74401204D01*
X150874999Y-74400000D01*
X152125001Y-74400000D01*
X152149505Y-74401204D01*
X152149505Y-74401204D01*
G37*
D12*
X151500000Y-75000000D03*
D13*
X151500000Y-73000000D03*
X151500000Y-71000000D03*
X151500000Y-69000000D03*
X151500000Y-67000000D03*
X151500000Y-65000000D03*
X151500000Y-63000000D03*
X151500000Y-61000000D03*
D16*
X143040000Y-89580000D03*
X140500000Y-89580000D03*
X143040000Y-87040000D03*
X140500000Y-87040000D03*
X143040000Y-84500000D03*
D17*
X140500000Y-84500000D03*
D18*
X73000000Y-80500000D03*
X60500000Y-78000000D03*
X81000000Y-81437500D03*
X96000000Y-77000000D03*
X119000000Y-73500000D03*
X85500000Y-51000000D03*
X72910000Y-48500000D03*
X122500000Y-82100010D03*
X155000000Y-75000000D03*
X148000000Y-56000000D03*
X88500000Y-81500000D03*
X88500000Y-89500000D03*
X77000000Y-83500000D03*
X77000000Y-78000000D03*
X90000000Y-50600000D03*
X93499906Y-66500000D03*
X93200000Y-83200000D03*
X100500000Y-80800000D03*
X99500000Y-83000000D03*
X99494826Y-50865665D03*
X80500000Y-78000000D03*
X106000000Y-55500000D03*
X123000000Y-67000000D03*
X127100000Y-56000000D03*
X123000000Y-62000000D03*
X93401578Y-73849893D03*
X111500000Y-76000000D03*
X67500000Y-72500000D03*
X59000000Y-72500000D03*
X61000000Y-68500000D03*
X89134335Y-58505174D03*
X84000000Y-59000000D03*
X111000000Y-50000000D03*
X114500000Y-45500000D03*
X88500000Y-49000000D03*
X84000000Y-49500000D03*
X89500000Y-51500000D03*
X92600000Y-58500000D03*
X91000000Y-58500000D03*
X103597180Y-75000000D03*
X105500000Y-77000000D03*
X133000000Y-45000000D03*
X122581975Y-53275807D03*
X103000000Y-52000000D03*
X104000000Y-51000000D03*
X102500000Y-61000000D03*
X100500000Y-89500000D03*
X106000000Y-90500000D03*
X104500000Y-71000000D03*
X103500000Y-69500000D03*
X105400000Y-57600000D03*
X105400000Y-56400000D03*
X93480735Y-91019265D03*
X92500000Y-71000000D03*
X91100010Y-90500000D03*
X86100000Y-75500000D03*
X84000000Y-75500000D03*
X58500000Y-76000000D03*
X81000000Y-75000000D03*
X69500000Y-82500000D03*
X73000000Y-82500000D03*
X76824999Y-85432227D03*
X80500000Y-85500000D03*
X68000000Y-87500000D03*
X74000000Y-84500000D03*
X71000000Y-87500000D03*
X75000000Y-84500000D03*
X89500000Y-59500000D03*
X83647278Y-61822328D03*
X76500000Y-63000000D03*
X99500000Y-66500000D03*
X100300003Y-66500000D03*
X104500000Y-85500000D03*
X87939155Y-94060845D03*
X82100000Y-64900000D03*
X89500000Y-63300003D03*
X92373757Y-81787984D03*
X87000000Y-68000000D03*
X88600000Y-68000000D03*
X105500000Y-92900000D03*
X101000000Y-94600000D03*
X84000000Y-64000000D03*
X101500000Y-72000000D03*
X101500000Y-70400000D03*
X105162985Y-69748045D03*
X112000000Y-68825086D03*
X140500000Y-50900000D03*
X140000000Y-52100000D03*
X111151542Y-68825000D03*
X88000000Y-53500000D03*
X89500000Y-56300003D03*
X149500000Y-82500000D03*
X149500000Y-85000000D03*
X139000000Y-92400000D03*
X131000000Y-91000000D03*
X93000000Y-87500000D03*
X86600000Y-86500000D03*
X89500000Y-61000000D03*
X94500000Y-65000000D03*
X73500000Y-65500000D03*
X126938235Y-59438235D03*
X84000000Y-65500000D03*
X96000000Y-63500000D03*
X141000000Y-75000000D03*
X137000000Y-72000000D03*
X125574264Y-64781933D03*
X120500000Y-62500000D03*
X119154588Y-60100000D03*
X106028921Y-63971079D03*
X104000000Y-68000000D03*
X95000000Y-64000000D03*
X129000000Y-63500000D03*
X126774265Y-65774265D03*
X124199999Y-65500001D03*
X116500000Y-73500000D03*
X97774265Y-69725735D03*
X111500000Y-77500000D03*
X126338235Y-63500000D03*
X121500000Y-62000000D03*
X120500000Y-59500000D03*
X109780723Y-57633505D03*
X107000000Y-57000000D03*
X102500000Y-57000000D03*
X102000000Y-58500000D03*
X102000000Y-59500000D03*
X86000000Y-87500000D03*
X85900000Y-82500000D03*
X101972838Y-64821367D03*
X102000000Y-64000000D03*
X102149998Y-63161592D03*
X102749998Y-62428687D03*
X94257734Y-66756881D03*
X94501667Y-65994965D03*
X89500000Y-62500000D03*
X96500000Y-58000000D03*
X85000000Y-62900000D03*
X85000000Y-65500000D03*
X89500000Y-54500000D03*
X82000000Y-54500000D03*
X66500000Y-68500000D03*
X66000000Y-72500000D03*
X89500000Y-55500000D03*
X69500000Y-78000000D03*
X105250002Y-61000000D03*
X117500000Y-48000000D03*
X105500000Y-62800003D03*
X117500000Y-50000000D03*
X105500000Y-62000000D03*
X117500000Y-49000000D03*
D19*
X88500000Y-81500000D02*
X88500000Y-89500000D01*
X92130000Y-46440000D02*
X93269990Y-45300010D01*
D20*
X99688001Y-45578001D02*
X100450000Y-46340000D01*
X99287999Y-45177999D02*
X99688001Y-45578001D01*
X93392001Y-45177999D02*
X99287999Y-45177999D01*
X92130000Y-46440000D02*
X93392001Y-45177999D01*
D19*
X67200001Y-72799999D02*
X67500000Y-72500000D01*
X66499999Y-73500001D02*
X67200001Y-72799999D01*
X60000001Y-73500001D02*
X66499999Y-73500001D01*
X59000000Y-72500000D02*
X60000001Y-73500001D01*
X61000000Y-70500000D02*
X59000000Y-72500000D01*
X61000000Y-68500000D02*
X61000000Y-70500000D01*
D20*
X89134335Y-58505174D02*
X84494826Y-58505174D01*
X84494826Y-58505174D02*
X84000000Y-59000000D01*
D19*
X111000000Y-50000000D02*
X111000000Y-49000000D01*
X111000000Y-49000000D02*
X114500000Y-45500000D01*
X88500000Y-49000000D02*
X84500000Y-49000000D01*
X84500000Y-49000000D02*
X84000000Y-49500000D01*
D21*
X88500000Y-50500000D02*
X88500000Y-49000000D01*
X89500000Y-51500000D02*
X88500000Y-50500000D01*
X92600000Y-58500000D02*
X91000000Y-58500000D01*
D19*
X103597180Y-75000000D02*
X103597180Y-75097180D01*
X103597180Y-75097180D02*
X105500000Y-77000000D01*
X131000000Y-53500000D02*
X131975000Y-53500000D01*
X131975000Y-53500000D02*
X133000000Y-52475000D01*
X133000000Y-52475000D02*
X133000000Y-45424264D01*
X133000000Y-45424264D02*
X133000000Y-45000000D01*
X125850000Y-46340000D02*
X125850000Y-50007782D01*
X125850000Y-50007782D02*
X122581975Y-53275807D01*
D21*
X103000000Y-52000000D02*
X104000000Y-51000000D01*
D19*
X100500000Y-89500000D02*
X105000000Y-89500000D01*
X105000000Y-89500000D02*
X106000000Y-90500000D01*
X104500000Y-71000000D02*
X104500000Y-70500000D01*
X104500000Y-70500000D02*
X103500000Y-69500000D01*
D20*
X102500000Y-61000000D02*
X102500000Y-60500000D01*
X102500000Y-60500000D02*
X105400000Y-57600000D01*
X103000000Y-54000000D02*
X103000000Y-52000000D01*
X105400000Y-56400000D02*
X103000000Y-54000000D01*
D21*
X140500000Y-89580000D02*
X138080000Y-92000000D01*
X138080000Y-92000000D02*
X130500000Y-92000000D01*
X96400010Y-88099990D02*
X93480735Y-91019265D01*
X130500000Y-92000000D02*
X126599990Y-88099990D01*
X126599990Y-88099990D02*
X96400010Y-88099990D01*
X91100010Y-90075736D02*
X91100010Y-90500000D01*
X91000000Y-72500000D02*
X91000000Y-89975726D01*
X92500000Y-71000000D02*
X91000000Y-72500000D01*
X91000000Y-89975726D02*
X91100010Y-90075736D01*
D20*
X86100000Y-75500000D02*
X84000000Y-75500000D01*
X77299999Y-78700001D02*
X81000000Y-75000000D01*
X69163999Y-78700001D02*
X77299999Y-78700001D01*
X58500000Y-76000000D02*
X66463998Y-76000000D01*
X66463998Y-76000000D02*
X69163999Y-78700001D01*
D21*
X69500000Y-82500000D02*
X73000000Y-82500000D01*
X76824999Y-85432227D02*
X80432227Y-85432227D01*
X80432227Y-85432227D02*
X80500000Y-85500000D01*
X73975737Y-84475737D02*
X74000000Y-84500000D01*
X68000000Y-87500000D02*
X71024263Y-84475737D01*
X71024263Y-84475737D02*
X73975737Y-84475737D01*
X71000000Y-87500000D02*
X72000000Y-87500000D01*
X72000000Y-87500000D02*
X75000000Y-84500000D01*
X65667999Y-46949761D02*
X65667999Y-45930239D01*
X66598238Y-45000000D02*
X79434302Y-45000000D01*
X138000000Y-60500000D02*
X138000000Y-63200000D01*
X61417989Y-51199771D02*
X65667999Y-46949761D01*
X79434302Y-45000000D02*
X80434302Y-44000000D01*
X61417989Y-54305991D02*
X61417989Y-51199771D01*
X80660000Y-70000000D02*
X76760001Y-66100001D01*
X76760001Y-66100001D02*
X73211999Y-66100001D01*
X138000000Y-63200000D02*
X138000000Y-64000000D01*
X132302914Y-44000000D02*
X132502936Y-43799978D01*
X65667999Y-45930239D02*
X66598238Y-45000000D01*
X73211999Y-66100001D02*
X61417989Y-54305991D01*
X80434302Y-44000000D02*
X132302914Y-44000000D01*
X140847784Y-43799978D02*
X146175010Y-49127204D01*
X132502936Y-43799978D02*
X140847784Y-43799978D01*
X146175010Y-49127204D02*
X146175010Y-52324990D01*
X146175010Y-52324990D02*
X138000000Y-60500000D01*
X146575021Y-48961515D02*
X146575020Y-52924980D01*
X63018238Y-43500000D02*
X132237214Y-43500000D01*
X75580000Y-70000000D02*
X60500000Y-54920000D01*
X140500000Y-63500000D02*
X138670710Y-65329290D01*
X140500000Y-59000000D02*
X140500000Y-63500000D01*
X132237214Y-43500000D02*
X132337247Y-43399967D01*
X132337247Y-43399967D02*
X141013473Y-43399967D01*
X60500000Y-54920000D02*
X60500000Y-46018238D01*
X60500000Y-46018238D02*
X63018238Y-43500000D01*
X146575020Y-52924980D02*
X140500000Y-59000000D01*
X141013473Y-43399967D02*
X146575021Y-48961515D01*
X138670710Y-65329290D02*
X138000000Y-66000000D01*
X85969606Y-59500000D02*
X83947277Y-61522329D01*
X89500000Y-59500000D02*
X85969606Y-59500000D01*
X83947277Y-61522329D02*
X83647278Y-61822328D01*
X72880000Y-63000000D02*
X62880000Y-53000000D01*
X76500000Y-63000000D02*
X72880000Y-63000000D01*
X90500000Y-91250000D02*
X89590000Y-92160000D01*
X90500000Y-71500000D02*
X90500000Y-91250000D01*
X95500000Y-66500000D02*
X90500000Y-71500000D01*
X99500000Y-66500000D02*
X95500000Y-66500000D01*
X98724267Y-68500000D02*
X97500000Y-68500000D01*
X97500000Y-68500000D02*
X91500000Y-74500000D01*
X91500000Y-74500000D02*
X91500000Y-89910026D01*
X92130000Y-91082370D02*
X92130000Y-92160000D01*
X92130000Y-90540026D02*
X92130000Y-91082370D01*
X91500000Y-89910026D02*
X92130000Y-90540026D01*
X100300003Y-66924264D02*
X98724267Y-68500000D01*
X100300003Y-66500000D02*
X100300003Y-66924264D01*
X140500000Y-84500000D02*
X105500000Y-84500000D01*
X105500000Y-84500000D02*
X104500000Y-85500000D01*
X82599979Y-65399979D02*
X82100000Y-64900000D01*
X82599979Y-84987981D02*
X82599979Y-65399979D01*
X87099990Y-89487992D02*
X82599979Y-84987981D01*
X87939155Y-94060845D02*
X87099990Y-93221680D01*
X87099990Y-93221680D02*
X87099990Y-89487992D01*
X130965697Y-90399999D02*
X127565698Y-87000000D01*
X140500000Y-87040000D02*
X137140001Y-90399999D01*
X137140001Y-90399999D02*
X130965697Y-90399999D01*
X99433185Y-81787984D02*
X92373757Y-81787984D01*
X127565698Y-87000000D02*
X104645201Y-87000000D01*
X104645201Y-87000000D02*
X99433185Y-81787984D01*
X87000000Y-68000000D02*
X88600000Y-68000000D01*
X152675010Y-86600010D02*
X152675010Y-90824990D01*
X151500000Y-86500000D02*
X152575000Y-86500000D01*
X152575000Y-86500000D02*
X152675010Y-86600010D01*
X152675010Y-90824990D02*
X150500000Y-93000000D01*
X150500000Y-93000000D02*
X129000000Y-93000000D01*
X129000000Y-93000000D02*
X128500000Y-92500000D01*
X128500000Y-92500000D02*
X128500000Y-91000000D01*
X128500000Y-91000000D02*
X126000000Y-88500000D01*
X126000000Y-88500000D02*
X109900000Y-88500000D01*
X109900000Y-88500000D02*
X105500000Y-92900000D01*
X83700001Y-64299999D02*
X84000000Y-64000000D01*
X89326840Y-94600000D02*
X87500000Y-92773160D01*
X101000000Y-94600000D02*
X89326840Y-94600000D01*
X87500000Y-92773160D02*
X87500000Y-70000000D01*
X87500000Y-70000000D02*
X83399999Y-65899999D01*
X83399999Y-65899999D02*
X83399999Y-64600001D01*
X83399999Y-64600001D02*
X83700001Y-64299999D01*
X101500000Y-72000000D02*
X101500000Y-70400000D01*
X105162985Y-69748045D02*
X104014941Y-68600001D01*
X101500000Y-69975736D02*
X101500000Y-70400000D01*
X102875735Y-68600001D02*
X101500000Y-69975736D01*
X104014941Y-68600001D02*
X102875735Y-68600001D01*
X141000000Y-54500000D02*
X134500000Y-61000000D01*
X138000000Y-51500000D02*
X140500000Y-51500000D01*
X112500080Y-68825086D02*
X112424264Y-68825086D01*
X112424264Y-68825086D02*
X112000000Y-68825086D01*
X120325166Y-61000000D02*
X112500080Y-68825086D01*
X134500000Y-61000000D02*
X120325166Y-61000000D01*
X141000000Y-52000000D02*
X141000000Y-54500000D01*
X140500000Y-51500000D02*
X141000000Y-52000000D01*
X138000000Y-49500000D02*
X137725000Y-49500000D01*
X138000000Y-49500000D02*
X139100000Y-49500000D01*
X139100000Y-49500000D02*
X140500000Y-50900000D01*
X130352204Y-59099990D02*
X129824990Y-59627204D01*
X129824990Y-59627204D02*
X129824990Y-59725000D01*
X119825002Y-60500000D02*
X112099991Y-68225011D01*
X136824990Y-55175010D02*
X132275000Y-59725000D01*
X139175010Y-52500726D02*
X139175010Y-54277804D01*
X131647796Y-59099990D02*
X130352204Y-59099990D01*
X138852824Y-54599990D02*
X137147176Y-54599990D01*
X129824990Y-59725000D02*
X127500000Y-59725000D01*
X132275000Y-59725000D02*
X132175010Y-59725000D01*
X140000000Y-52100000D02*
X139575736Y-52100000D01*
X127500000Y-59725000D02*
X126725000Y-60500000D01*
X137147176Y-54599990D02*
X136824990Y-54922176D01*
X126725000Y-60500000D02*
X119825002Y-60500000D01*
X139575736Y-52100000D02*
X139175010Y-52500726D01*
X111751531Y-68225011D02*
X111151542Y-68825000D01*
X112099991Y-68225011D02*
X111751531Y-68225011D01*
X136824990Y-54922176D02*
X136824990Y-55175010D01*
X132175010Y-59627204D02*
X131647796Y-59099990D01*
X132175010Y-59725000D02*
X132175010Y-59627204D01*
X139175010Y-54277804D02*
X138852824Y-54599990D01*
X151775000Y-84500000D02*
X151500000Y-84500000D01*
X152675010Y-83599990D02*
X151775000Y-84500000D01*
X152675010Y-68627204D02*
X152675010Y-83599990D01*
X151947816Y-67900010D02*
X152675010Y-68627204D01*
X152147796Y-67900010D02*
X151947816Y-67900010D01*
X152675010Y-67372796D02*
X152147796Y-67900010D01*
X152675010Y-64627204D02*
X152675010Y-67372796D01*
X152147796Y-64099990D02*
X152675010Y-64627204D01*
X150852204Y-64099990D02*
X152147796Y-64099990D01*
X150324990Y-65334312D02*
X150324990Y-64627204D01*
X145059312Y-70599990D02*
X150324990Y-65334312D01*
X141268613Y-70599990D02*
X145059312Y-70599990D01*
X150324990Y-64627204D02*
X150852204Y-64099990D01*
X132268613Y-79599990D02*
X141268613Y-70599990D01*
X120809303Y-79599990D02*
X132268613Y-79599990D01*
X103037999Y-61828686D02*
X120809303Y-79599990D01*
X101837997Y-61828686D02*
X103037999Y-61828686D01*
X93509311Y-53500000D02*
X101837997Y-61828686D01*
X88000000Y-53500000D02*
X93509311Y-53500000D01*
X119688006Y-83300000D02*
X150425000Y-83300000D01*
X151225000Y-82500000D02*
X151500000Y-82500000D01*
X104600001Y-67711999D02*
X104600001Y-68211995D01*
X104600001Y-68211995D02*
X119688006Y-83300000D01*
X101372837Y-61984835D02*
X101372837Y-65109368D01*
X103663468Y-67399999D02*
X104288001Y-67399999D01*
X89500000Y-56300003D02*
X95688005Y-56300003D01*
X150425000Y-83300000D02*
X151225000Y-82500000D01*
X101372837Y-65109368D02*
X103663468Y-67399999D01*
X104288001Y-67399999D02*
X104600001Y-67711999D01*
X95688005Y-56300003D02*
X101372837Y-61984835D01*
X151500000Y-80500000D02*
X149500000Y-82500000D01*
X149500000Y-85000000D02*
X149500000Y-89500000D01*
X149500000Y-89500000D02*
X146500000Y-92500000D01*
X146500000Y-92500000D02*
X139100000Y-92500000D01*
X139100000Y-92500000D02*
X139000000Y-92400000D01*
X131000000Y-91000000D02*
X127500000Y-87500000D01*
X127500000Y-87500000D02*
X93000000Y-87500000D01*
X86011998Y-61000000D02*
X89500000Y-61000000D01*
X82999989Y-64012009D02*
X86011998Y-61000000D01*
X82999989Y-66065688D02*
X82999989Y-64012009D01*
X87000000Y-70065699D02*
X82999989Y-66065688D01*
X86600000Y-86500000D02*
X87000000Y-86100000D01*
X87000000Y-86100000D02*
X87000000Y-70065699D01*
X84600002Y-66100002D02*
X84299999Y-65799999D01*
X86088005Y-65299999D02*
X85288002Y-66100002D01*
X94500000Y-65000000D02*
X94200001Y-65299999D01*
X94200001Y-65299999D02*
X86088005Y-65299999D01*
X85288002Y-66100002D02*
X84600002Y-66100002D01*
X84299999Y-65799999D02*
X84000000Y-65500000D01*
X138624989Y-44199989D02*
X143925000Y-49500000D01*
X143925000Y-49500000D02*
X145000000Y-49500000D01*
X132368614Y-44500000D02*
X132668625Y-44199989D01*
X128500000Y-44500000D02*
X132368614Y-44500000D01*
X132668625Y-44199989D02*
X138624989Y-44199989D01*
X80500000Y-44500000D02*
X128500000Y-44500000D01*
X77497999Y-47502001D02*
X80500000Y-44500000D01*
X66806237Y-47502001D02*
X77497999Y-47502001D01*
X61817999Y-52490239D02*
X66806237Y-47502001D01*
X73500000Y-65500000D02*
X61817999Y-53817999D01*
X61817999Y-53817999D02*
X61817999Y-52490239D01*
X126500000Y-59000000D02*
X126938235Y-59438235D01*
X126650010Y-47111752D02*
X126650010Y-50339156D01*
X126500000Y-50489166D02*
X126500000Y-59000000D01*
X126650010Y-50339156D02*
X126500000Y-50489166D01*
X128500000Y-44500000D02*
X126912001Y-46087999D01*
X126912001Y-46087999D02*
X126912001Y-46849761D01*
X126912001Y-46849761D02*
X126650010Y-47111752D01*
X145000000Y-75000000D02*
X141000000Y-75000000D01*
X125574264Y-64781933D02*
X122781933Y-64781933D01*
X122781933Y-64781933D02*
X120500000Y-62500000D01*
X119154588Y-60100000D02*
X109900000Y-60100000D01*
X109900000Y-60100000D02*
X106028921Y-63971079D01*
X137000000Y-72000000D02*
X132700010Y-67700010D01*
X132700010Y-67700010D02*
X127246309Y-67700010D01*
X127246309Y-67700010D02*
X125574264Y-66027965D01*
X125574264Y-66027965D02*
X125574264Y-64781933D01*
X103500000Y-68000000D02*
X103575736Y-68000000D01*
X99000000Y-63500000D02*
X103500000Y-68000000D01*
X103575736Y-68000000D02*
X104000000Y-68000000D01*
X96000000Y-63500000D02*
X99000000Y-63500000D01*
X129000000Y-63500000D02*
X126774265Y-65725735D01*
X126774265Y-65725735D02*
X126774265Y-65774265D01*
X116500000Y-72611998D02*
X116500000Y-73500000D01*
X124199999Y-65500001D02*
X123611997Y-65500001D01*
X123611997Y-65500001D02*
X116500000Y-72611998D01*
X101548530Y-73500000D02*
X107500000Y-73500000D01*
X107500000Y-73500000D02*
X111200001Y-77200001D01*
X97774265Y-69725735D02*
X101548530Y-73500000D01*
X111200001Y-77200001D02*
X111500000Y-77500000D01*
X126338235Y-63500000D02*
X123000000Y-63500000D01*
X123000000Y-63500000D02*
X121500000Y-62000000D01*
X120500000Y-59500000D02*
X111647218Y-59500000D01*
X111647218Y-59500000D02*
X109780723Y-57633505D01*
X107000000Y-57000000D02*
X102500000Y-57000000D01*
X126174264Y-63663971D02*
X126338235Y-63500000D01*
X126174264Y-66062266D02*
X126174264Y-63663971D01*
X127411998Y-67300000D02*
X126174264Y-66062266D01*
X143925000Y-67300000D02*
X127411998Y-67300000D01*
X145000000Y-66500000D02*
X144725000Y-66500000D01*
X144725000Y-66500000D02*
X143925000Y-67300000D01*
X97910000Y-54410000D02*
X97910000Y-46340000D01*
X102000000Y-58500000D02*
X97910000Y-54410000D01*
X102000000Y-59500000D02*
X100500000Y-59500000D01*
X95370000Y-54370000D02*
X95370000Y-46340000D01*
X100500000Y-59500000D02*
X95370000Y-54370000D01*
X86000000Y-87500000D02*
X86000000Y-82600000D01*
X86000000Y-82600000D02*
X85900000Y-82500000D01*
X148925000Y-72500000D02*
X150425000Y-71000000D01*
X102397102Y-64821367D02*
X105000012Y-67424277D01*
X105000012Y-67424277D02*
X105000012Y-67848541D01*
X118651471Y-81500000D02*
X133065700Y-81500000D01*
X133065700Y-81500000D02*
X142065700Y-72500000D01*
X142065700Y-72500000D02*
X148925000Y-72500000D01*
X150425000Y-71000000D02*
X151500000Y-71000000D01*
X101972838Y-64821367D02*
X102397102Y-64821367D01*
X105000012Y-67848541D02*
X118651471Y-81500000D01*
X151225000Y-69000000D02*
X151500000Y-69000000D01*
X102500000Y-64000000D02*
X119500000Y-81000000D01*
X102000000Y-64000000D02*
X102500000Y-64000000D01*
X119500000Y-81000000D02*
X133000000Y-81000000D01*
X133000000Y-81000000D02*
X142000000Y-72000000D01*
X142000000Y-72000000D02*
X148225000Y-72000000D01*
X148225000Y-72000000D02*
X151225000Y-69000000D01*
X102527287Y-63461591D02*
X119465707Y-80400011D01*
X132665689Y-80400011D02*
X141565700Y-71500000D01*
X102149998Y-63161592D02*
X102449997Y-63461591D01*
X141565700Y-71500000D02*
X146725000Y-71500000D01*
X151225000Y-67000000D02*
X151500000Y-67000000D01*
X102449997Y-63461591D02*
X102527287Y-63461591D01*
X146725000Y-71500000D02*
X151225000Y-67000000D01*
X119465707Y-80400011D02*
X132665689Y-80400011D01*
X151225000Y-65000000D02*
X151500000Y-65000000D01*
X106400010Y-66768614D02*
X119631396Y-80000000D01*
X119631396Y-80000000D02*
X132500000Y-80000000D01*
X145225000Y-71000000D02*
X151225000Y-65000000D01*
X102749998Y-62428687D02*
X106400010Y-66078699D01*
X106400010Y-66078699D02*
X106400010Y-66768614D01*
X132500000Y-80000000D02*
X132500000Y-79934302D01*
X132500000Y-79934302D02*
X141434302Y-71000000D01*
X141434302Y-71000000D02*
X145225000Y-71000000D01*
X90086303Y-91097999D02*
X90099990Y-91084312D01*
X151500000Y-63000000D02*
X151775000Y-63000000D01*
X153075019Y-64300019D02*
X153075019Y-91424980D01*
X153075019Y-91424980D02*
X150999999Y-93500000D01*
X90099990Y-91084312D02*
X90099990Y-71334311D01*
X90358239Y-93500000D02*
X90080240Y-93222001D01*
X151775000Y-63000000D02*
X153075019Y-64300019D01*
X89080239Y-91097999D02*
X90086303Y-91097999D01*
X93957735Y-67476566D02*
X93957735Y-67056880D01*
X150999999Y-93500000D02*
X90358239Y-93500000D01*
X88527999Y-91650239D02*
X89080239Y-91097999D01*
X89080239Y-93222001D02*
X88527999Y-92669761D01*
X90099990Y-71334311D02*
X93957735Y-67476566D01*
X93957735Y-67056880D02*
X94257734Y-66756881D01*
X88527999Y-92669761D02*
X88527999Y-91650239D01*
X90080240Y-93222001D02*
X89080239Y-93222001D01*
X89292539Y-94000000D02*
X89670527Y-93622012D01*
X89699979Y-71168622D02*
X90000000Y-70868601D01*
X88914550Y-90697988D02*
X89699979Y-90697988D01*
X94206703Y-65700001D02*
X94501667Y-65994965D01*
X151065699Y-94000000D02*
X89292539Y-94000000D01*
X89699979Y-90697988D02*
X89699979Y-71168622D01*
X153475030Y-62700030D02*
X153475030Y-91590669D01*
X90000000Y-70868601D02*
X90000000Y-68417138D01*
X92717137Y-65700001D02*
X94206703Y-65700001D01*
X88127988Y-91484550D02*
X88914550Y-90697988D01*
X151500000Y-61000000D02*
X151775000Y-61000000D01*
X151775000Y-61000000D02*
X153475030Y-62700030D01*
X153475030Y-91590669D02*
X151065699Y-94000000D01*
X89670527Y-93622012D02*
X88914550Y-93622012D01*
X90000000Y-68417138D02*
X92717137Y-65700001D01*
X88127988Y-92835450D02*
X88127988Y-91484550D01*
X88914550Y-93622012D02*
X88127988Y-92835450D01*
X89500000Y-62500000D02*
X92000000Y-62500000D01*
X92000000Y-62500000D02*
X96500000Y-58000000D01*
X85000000Y-62900000D02*
X85000000Y-65500000D01*
X89500000Y-54500000D02*
X82000000Y-54500000D01*
X66500000Y-68500000D02*
X66500000Y-72000000D01*
X66500000Y-72000000D02*
X66000000Y-72500000D01*
X81500000Y-59111998D02*
X81500000Y-66000000D01*
X71500000Y-78000000D02*
X69500000Y-78000000D01*
X77057999Y-72442001D02*
X71500000Y-78000000D01*
X85111998Y-55500000D02*
X81500000Y-59111998D01*
X89500000Y-55500000D02*
X85111998Y-55500000D01*
X82000000Y-66500000D02*
X82000000Y-71000000D01*
X81500000Y-66000000D02*
X82000000Y-66500000D01*
X80557999Y-72442001D02*
X77057999Y-72442001D01*
X82000000Y-71000000D02*
X80557999Y-72442001D01*
X117075736Y-48000000D02*
X105250002Y-59825734D01*
X105250002Y-59825734D02*
X105250002Y-60575736D01*
X105250002Y-60575736D02*
X105250002Y-61000000D01*
X117500000Y-48000000D02*
X117075736Y-48000000D01*
X117500000Y-50000000D02*
X116565698Y-50000000D01*
X105924264Y-62800003D02*
X105500000Y-62800003D01*
X106400010Y-62324257D02*
X105924264Y-62800003D01*
X106400010Y-60165688D02*
X106400010Y-62324257D01*
X116565698Y-50000000D02*
X106400010Y-60165688D01*
X106000000Y-61500000D02*
X105500000Y-62000000D01*
X106000000Y-60000000D02*
X106000000Y-61500000D01*
X117500000Y-49000000D02*
X117000000Y-49000000D01*
X117000000Y-49000000D02*
X106000000Y-60000000D01*
D22*
G36*
X156873000Y-94873000D02*
X101898956Y-94873000D01*
X101935000Y-94785983D01*
X101935000Y-94735000D01*
X150993315Y-94735000D01*
X151065699Y-94749398D01*
X151138083Y-94735000D01*
X151138087Y-94735000D01*
X151352482Y-94692354D01*
X151595604Y-94529905D01*
X151636610Y-94468535D01*
X153265000Y-92840146D01*
X153265000Y-93345113D01*
X153529138Y-93982799D01*
X154017201Y-94470862D01*
X154654887Y-94735000D01*
X155345113Y-94735000D01*
X155982799Y-94470862D01*
X156470862Y-93982799D01*
X156735000Y-93345113D01*
X156735000Y-92654887D01*
X156470862Y-92017201D01*
X155982799Y-91529138D01*
X155345113Y-91265000D01*
X154654887Y-91265000D01*
X154210030Y-91449266D01*
X154210030Y-62772413D01*
X154224428Y-62700029D01*
X154210030Y-62627643D01*
X154210030Y-62627642D01*
X154167384Y-62413247D01*
X154004935Y-62170125D01*
X153943568Y-62129121D01*
X152997736Y-61183290D01*
X153034195Y-61000000D01*
X152938344Y-60518127D01*
X152665385Y-60109615D01*
X152256873Y-59836656D01*
X151896636Y-59765000D01*
X151103364Y-59765000D01*
X150743127Y-59836656D01*
X150334615Y-60109615D01*
X150061656Y-60518127D01*
X149965805Y-61000000D01*
X150061656Y-61481873D01*
X150334615Y-61890385D01*
X150498665Y-62000000D01*
X150334615Y-62109615D01*
X150061656Y-62518127D01*
X149965805Y-63000000D01*
X150061656Y-63481873D01*
X150209544Y-63703203D01*
X149856453Y-64056295D01*
X149795086Y-64097299D01*
X149754082Y-64158666D01*
X149754081Y-64158667D01*
X149632636Y-64340422D01*
X149610549Y-64451462D01*
X149589990Y-64554816D01*
X149589990Y-64554820D01*
X149575592Y-64627204D01*
X149589990Y-64699588D01*
X149589990Y-65029865D01*
X146513716Y-68106140D01*
X146454127Y-67806564D01*
X146259586Y-67515414D01*
X146118926Y-67421428D01*
X146165385Y-67390385D01*
X146438344Y-66981873D01*
X146534195Y-66500000D01*
X146438344Y-66018127D01*
X146165385Y-65609615D01*
X145756873Y-65336656D01*
X145396636Y-65265000D01*
X144603364Y-65265000D01*
X144243127Y-65336656D01*
X143834615Y-65609615D01*
X143561656Y-66018127D01*
X143465805Y-66500000D01*
X143478734Y-66565000D01*
X139479674Y-66565000D01*
X139522440Y-66350001D01*
X139522440Y-65649999D01*
X139500375Y-65539071D01*
X140968538Y-64070909D01*
X141029905Y-64029905D01*
X141192354Y-63786783D01*
X141235000Y-63572388D01*
X141249399Y-63500000D01*
X141235000Y-63427612D01*
X141235000Y-59304446D01*
X142539446Y-58000000D01*
X143465805Y-58000000D01*
X143561656Y-58481873D01*
X143834615Y-58890385D01*
X143881074Y-58921428D01*
X143740414Y-59015414D01*
X143545873Y-59306564D01*
X143477560Y-59649999D01*
X143477560Y-60350001D01*
X143545873Y-60693436D01*
X143740414Y-60984586D01*
X144031564Y-61179127D01*
X144374999Y-61247440D01*
X145625001Y-61247440D01*
X145968436Y-61179127D01*
X146259586Y-60984586D01*
X146454127Y-60693436D01*
X146522440Y-60350001D01*
X146522440Y-59649999D01*
X146454127Y-59306564D01*
X146259586Y-59015414D01*
X146118926Y-58921428D01*
X146165385Y-58890385D01*
X146438344Y-58481873D01*
X146534195Y-58000000D01*
X146438344Y-57518127D01*
X146165385Y-57109615D01*
X145756873Y-56836656D01*
X145396636Y-56765000D01*
X144603364Y-56765000D01*
X144243127Y-56836656D01*
X143834615Y-57109615D01*
X143561656Y-57518127D01*
X143465805Y-58000000D01*
X142539446Y-58000000D01*
X145389447Y-55149999D01*
X149977560Y-55149999D01*
X149977560Y-55850001D01*
X150045873Y-56193436D01*
X150240414Y-56484586D01*
X150531564Y-56679127D01*
X150874999Y-56747440D01*
X152125001Y-56747440D01*
X152468436Y-56679127D01*
X152759586Y-56484586D01*
X152954127Y-56193436D01*
X153022440Y-55850001D01*
X153022440Y-55149999D01*
X152954127Y-54806564D01*
X152759586Y-54515414D01*
X152592653Y-54403873D01*
X152738080Y-54283474D01*
X152964592Y-53855281D01*
X152968462Y-53817609D01*
X152843731Y-53627000D01*
X151627000Y-53627000D01*
X151627000Y-53647000D01*
X151373000Y-53647000D01*
X151373000Y-53627000D01*
X150156269Y-53627000D01*
X150031538Y-53817609D01*
X150035408Y-53855281D01*
X150261920Y-54283474D01*
X150407347Y-54403873D01*
X150240414Y-54515414D01*
X150045873Y-54806564D01*
X149977560Y-55149999D01*
X145389447Y-55149999D01*
X147043560Y-53495887D01*
X147104924Y-53454885D01*
X147145926Y-53393521D01*
X147145929Y-53393518D01*
X147267374Y-53211762D01*
X147324419Y-52924980D01*
X147310019Y-52852587D01*
X147310020Y-49500000D01*
X149965805Y-49500000D01*
X150061656Y-49981873D01*
X150334615Y-50390385D01*
X150498665Y-50500000D01*
X150334615Y-50609615D01*
X150061656Y-51018127D01*
X149965805Y-51500000D01*
X150061656Y-51981873D01*
X150334615Y-52390385D01*
X150512385Y-52509167D01*
X150261920Y-52716526D01*
X150035408Y-53144719D01*
X150031538Y-53182391D01*
X150156269Y-53373000D01*
X151373000Y-53373000D01*
X151373000Y-53353000D01*
X151627000Y-53353000D01*
X151627000Y-53373000D01*
X152843731Y-53373000D01*
X152968462Y-53182391D01*
X152964592Y-53144719D01*
X152738080Y-52716526D01*
X152487615Y-52509167D01*
X152665385Y-52390385D01*
X152938344Y-51981873D01*
X153034195Y-51500000D01*
X152938344Y-51018127D01*
X152665385Y-50609615D01*
X152501335Y-50500000D01*
X152665385Y-50390385D01*
X152938344Y-49981873D01*
X153034195Y-49500000D01*
X152938344Y-49018127D01*
X152665385Y-48609615D01*
X152256873Y-48336656D01*
X151896636Y-48265000D01*
X151103364Y-48265000D01*
X150743127Y-48336656D01*
X150334615Y-48609615D01*
X150061656Y-49018127D01*
X149965805Y-49500000D01*
X147310020Y-49500000D01*
X147310021Y-49033903D01*
X147324420Y-48961515D01*
X147267375Y-48674733D01*
X147145930Y-48492977D01*
X147145928Y-48492975D01*
X147104926Y-48431611D01*
X147043562Y-48390609D01*
X143307840Y-44654887D01*
X153265000Y-44654887D01*
X153265000Y-45345113D01*
X153529138Y-45982799D01*
X154017201Y-46470862D01*
X154654887Y-46735000D01*
X155345113Y-46735000D01*
X155982799Y-46470862D01*
X156470862Y-45982799D01*
X156735000Y-45345113D01*
X156735000Y-44654887D01*
X156470862Y-44017201D01*
X155982799Y-43529138D01*
X155345113Y-43265000D01*
X154654887Y-43265000D01*
X154017201Y-43529138D01*
X153529138Y-44017201D01*
X153265000Y-44654887D01*
X143307840Y-44654887D01*
X141779952Y-43127000D01*
X156873000Y-43127000D01*
X156873000Y-94873000D01*
X156873000Y-94873000D01*
G37*
X156873000Y-94873000D02*
X101898956Y-94873000D01*
X101935000Y-94785983D01*
X101935000Y-94735000D01*
X150993315Y-94735000D01*
X151065699Y-94749398D01*
X151138083Y-94735000D01*
X151138087Y-94735000D01*
X151352482Y-94692354D01*
X151595604Y-94529905D01*
X151636610Y-94468535D01*
X153265000Y-92840146D01*
X153265000Y-93345113D01*
X153529138Y-93982799D01*
X154017201Y-94470862D01*
X154654887Y-94735000D01*
X155345113Y-94735000D01*
X155982799Y-94470862D01*
X156470862Y-93982799D01*
X156735000Y-93345113D01*
X156735000Y-92654887D01*
X156470862Y-92017201D01*
X155982799Y-91529138D01*
X155345113Y-91265000D01*
X154654887Y-91265000D01*
X154210030Y-91449266D01*
X154210030Y-62772413D01*
X154224428Y-62700029D01*
X154210030Y-62627643D01*
X154210030Y-62627642D01*
X154167384Y-62413247D01*
X154004935Y-62170125D01*
X153943568Y-62129121D01*
X152997736Y-61183290D01*
X153034195Y-61000000D01*
X152938344Y-60518127D01*
X152665385Y-60109615D01*
X152256873Y-59836656D01*
X151896636Y-59765000D01*
X151103364Y-59765000D01*
X150743127Y-59836656D01*
X150334615Y-60109615D01*
X150061656Y-60518127D01*
X149965805Y-61000000D01*
X150061656Y-61481873D01*
X150334615Y-61890385D01*
X150498665Y-62000000D01*
X150334615Y-62109615D01*
X150061656Y-62518127D01*
X149965805Y-63000000D01*
X150061656Y-63481873D01*
X150209544Y-63703203D01*
X149856453Y-64056295D01*
X149795086Y-64097299D01*
X149754082Y-64158666D01*
X149754081Y-64158667D01*
X149632636Y-64340422D01*
X149610549Y-64451462D01*
X149589990Y-64554816D01*
X149589990Y-64554820D01*
X149575592Y-64627204D01*
X149589990Y-64699588D01*
X149589990Y-65029865D01*
X146513716Y-68106140D01*
X146454127Y-67806564D01*
X146259586Y-67515414D01*
X146118926Y-67421428D01*
X146165385Y-67390385D01*
X146438344Y-66981873D01*
X146534195Y-66500000D01*
X146438344Y-66018127D01*
X146165385Y-65609615D01*
X145756873Y-65336656D01*
X145396636Y-65265000D01*
X144603364Y-65265000D01*
X144243127Y-65336656D01*
X143834615Y-65609615D01*
X143561656Y-66018127D01*
X143465805Y-66500000D01*
X143478734Y-66565000D01*
X139479674Y-66565000D01*
X139522440Y-66350001D01*
X139522440Y-65649999D01*
X139500375Y-65539071D01*
X140968538Y-64070909D01*
X141029905Y-64029905D01*
X141192354Y-63786783D01*
X141235000Y-63572388D01*
X141249399Y-63500000D01*
X141235000Y-63427612D01*
X141235000Y-59304446D01*
X142539446Y-58000000D01*
X143465805Y-58000000D01*
X143561656Y-58481873D01*
X143834615Y-58890385D01*
X143881074Y-58921428D01*
X143740414Y-59015414D01*
X143545873Y-59306564D01*
X143477560Y-59649999D01*
X143477560Y-60350001D01*
X143545873Y-60693436D01*
X143740414Y-60984586D01*
X144031564Y-61179127D01*
X144374999Y-61247440D01*
X145625001Y-61247440D01*
X145968436Y-61179127D01*
X146259586Y-60984586D01*
X146454127Y-60693436D01*
X146522440Y-60350001D01*
X146522440Y-59649999D01*
X146454127Y-59306564D01*
X146259586Y-59015414D01*
X146118926Y-58921428D01*
X146165385Y-58890385D01*
X146438344Y-58481873D01*
X146534195Y-58000000D01*
X146438344Y-57518127D01*
X146165385Y-57109615D01*
X145756873Y-56836656D01*
X145396636Y-56765000D01*
X144603364Y-56765000D01*
X144243127Y-56836656D01*
X143834615Y-57109615D01*
X143561656Y-57518127D01*
X143465805Y-58000000D01*
X142539446Y-58000000D01*
X145389447Y-55149999D01*
X149977560Y-55149999D01*
X149977560Y-55850001D01*
X150045873Y-56193436D01*
X150240414Y-56484586D01*
X150531564Y-56679127D01*
X150874999Y-56747440D01*
X152125001Y-56747440D01*
X152468436Y-56679127D01*
X152759586Y-56484586D01*
X152954127Y-56193436D01*
X153022440Y-55850001D01*
X153022440Y-55149999D01*
X152954127Y-54806564D01*
X152759586Y-54515414D01*
X152592653Y-54403873D01*
X152738080Y-54283474D01*
X152964592Y-53855281D01*
X152968462Y-53817609D01*
X152843731Y-53627000D01*
X151627000Y-53627000D01*
X151627000Y-53647000D01*
X151373000Y-53647000D01*
X151373000Y-53627000D01*
X150156269Y-53627000D01*
X150031538Y-53817609D01*
X150035408Y-53855281D01*
X150261920Y-54283474D01*
X150407347Y-54403873D01*
X150240414Y-54515414D01*
X150045873Y-54806564D01*
X149977560Y-55149999D01*
X145389447Y-55149999D01*
X147043560Y-53495887D01*
X147104924Y-53454885D01*
X147145926Y-53393521D01*
X147145929Y-53393518D01*
X147267374Y-53211762D01*
X147324419Y-52924980D01*
X147310019Y-52852587D01*
X147310020Y-49500000D01*
X149965805Y-49500000D01*
X150061656Y-49981873D01*
X150334615Y-50390385D01*
X150498665Y-50500000D01*
X150334615Y-50609615D01*
X150061656Y-51018127D01*
X149965805Y-51500000D01*
X150061656Y-51981873D01*
X150334615Y-52390385D01*
X150512385Y-52509167D01*
X150261920Y-52716526D01*
X150035408Y-53144719D01*
X150031538Y-53182391D01*
X150156269Y-53373000D01*
X151373000Y-53373000D01*
X151373000Y-53353000D01*
X151627000Y-53353000D01*
X151627000Y-53373000D01*
X152843731Y-53373000D01*
X152968462Y-53182391D01*
X152964592Y-53144719D01*
X152738080Y-52716526D01*
X152487615Y-52509167D01*
X152665385Y-52390385D01*
X152938344Y-51981873D01*
X153034195Y-51500000D01*
X152938344Y-51018127D01*
X152665385Y-50609615D01*
X152501335Y-50500000D01*
X152665385Y-50390385D01*
X152938344Y-49981873D01*
X153034195Y-49500000D01*
X152938344Y-49018127D01*
X152665385Y-48609615D01*
X152256873Y-48336656D01*
X151896636Y-48265000D01*
X151103364Y-48265000D01*
X150743127Y-48336656D01*
X150334615Y-48609615D01*
X150061656Y-49018127D01*
X149965805Y-49500000D01*
X147310020Y-49500000D01*
X147310021Y-49033903D01*
X147324420Y-48961515D01*
X147267375Y-48674733D01*
X147145930Y-48492977D01*
X147145928Y-48492975D01*
X147104926Y-48431611D01*
X147043562Y-48390609D01*
X143307840Y-44654887D01*
X153265000Y-44654887D01*
X153265000Y-45345113D01*
X153529138Y-45982799D01*
X154017201Y-46470862D01*
X154654887Y-46735000D01*
X155345113Y-46735000D01*
X155982799Y-46470862D01*
X156470862Y-45982799D01*
X156735000Y-45345113D01*
X156735000Y-44654887D01*
X156470862Y-44017201D01*
X155982799Y-43529138D01*
X155345113Y-43265000D01*
X154654887Y-43265000D01*
X154017201Y-43529138D01*
X153529138Y-44017201D01*
X153265000Y-44654887D01*
X143307840Y-44654887D01*
X141779952Y-43127000D01*
X156873000Y-43127000D01*
X156873000Y-94873000D01*
G36*
X60735000Y-44743792D02*
X60735000Y-44654887D01*
X60470862Y-44017201D01*
X59982799Y-43529138D01*
X59345113Y-43265000D01*
X58654887Y-43265000D01*
X58017201Y-43529138D01*
X57529138Y-44017201D01*
X57265000Y-44654887D01*
X57265000Y-45345113D01*
X57529138Y-45982799D01*
X58017201Y-46470862D01*
X58654887Y-46735000D01*
X59345113Y-46735000D01*
X59765001Y-46561077D01*
X59765000Y-54847616D01*
X59750602Y-54920000D01*
X59765000Y-54992384D01*
X59765000Y-54992387D01*
X59807646Y-55206782D01*
X59970095Y-55449905D01*
X60031465Y-55490911D01*
X73143553Y-68603000D01*
X72762119Y-68603000D01*
X72248663Y-68815680D01*
X71855680Y-69208663D01*
X71770000Y-69415513D01*
X71684320Y-69208663D01*
X71291337Y-68815680D01*
X70777881Y-68603000D01*
X70222119Y-68603000D01*
X69708663Y-68815680D01*
X69315680Y-69208663D01*
X69230000Y-69415513D01*
X69144320Y-69208663D01*
X68751337Y-68815680D01*
X68237881Y-68603000D01*
X67682119Y-68603000D01*
X67425312Y-68709373D01*
X67435000Y-68685983D01*
X67435000Y-68314017D01*
X67292655Y-67970365D01*
X67029635Y-67707345D01*
X66685983Y-67565000D01*
X66314017Y-67565000D01*
X65970365Y-67707345D01*
X65707345Y-67970365D01*
X65565000Y-68314017D01*
X65565000Y-68603000D01*
X65142119Y-68603000D01*
X64628663Y-68815680D01*
X64235680Y-69208663D01*
X64150000Y-69415513D01*
X64064320Y-69208663D01*
X63671337Y-68815680D01*
X63157881Y-68603000D01*
X62602119Y-68603000D01*
X62135000Y-68796487D01*
X62135000Y-68388217D01*
X62069146Y-68057145D01*
X61818289Y-67681711D01*
X61442854Y-67430854D01*
X61000000Y-67342765D01*
X60557145Y-67430854D01*
X60181711Y-67681711D01*
X59930854Y-68057146D01*
X59865000Y-68388218D01*
X59865001Y-70029867D01*
X58276477Y-71618392D01*
X58181712Y-71681712D01*
X57986769Y-71973464D01*
X57930854Y-72057146D01*
X57842765Y-72500000D01*
X57930854Y-72942854D01*
X58181712Y-73318288D01*
X58276477Y-73381608D01*
X59118390Y-74223522D01*
X59181712Y-74318290D01*
X59539184Y-74557145D01*
X59557146Y-74569147D01*
X60000001Y-74657236D01*
X60111784Y-74635001D01*
X66388216Y-74635001D01*
X66499999Y-74657236D01*
X66611782Y-74635001D01*
X66942854Y-74569147D01*
X67318288Y-74318290D01*
X67381612Y-74223519D01*
X68381608Y-73223523D01*
X68569146Y-72942854D01*
X68657235Y-72500000D01*
X68569146Y-72057146D01*
X68318288Y-71681712D01*
X67942854Y-71430854D01*
X67772658Y-71397000D01*
X68237881Y-71397000D01*
X68751337Y-71184320D01*
X69144320Y-70791337D01*
X69230000Y-70584487D01*
X69315680Y-70791337D01*
X69708663Y-71184320D01*
X70222119Y-71397000D01*
X70777881Y-71397000D01*
X71291337Y-71184320D01*
X71684320Y-70791337D01*
X71770000Y-70584487D01*
X71855680Y-70791337D01*
X72248663Y-71184320D01*
X72762119Y-71397000D01*
X73317881Y-71397000D01*
X73831337Y-71184320D01*
X74224320Y-70791337D01*
X74310000Y-70584487D01*
X74395680Y-70791337D01*
X74788663Y-71184320D01*
X75302119Y-71397000D01*
X75857881Y-71397000D01*
X76371337Y-71184320D01*
X76575444Y-70980213D01*
X77319392Y-70980213D01*
X77388857Y-71222397D01*
X77912302Y-71409144D01*
X78467368Y-71381362D01*
X78851143Y-71222397D01*
X78920608Y-70980213D01*
X78120000Y-70179605D01*
X77319392Y-70980213D01*
X76575444Y-70980213D01*
X76764320Y-70791337D01*
X76843428Y-70600353D01*
X76897603Y-70731143D01*
X77139787Y-70800608D01*
X77940395Y-70000000D01*
X77139787Y-69199392D01*
X76897603Y-69268857D01*
X76847465Y-69409393D01*
X76764320Y-69208663D01*
X76371337Y-68815680D01*
X75857881Y-68603000D01*
X75302119Y-68603000D01*
X75245782Y-68626335D01*
X73454448Y-66835001D01*
X76455555Y-66835001D01*
X78216952Y-68596399D01*
X77772632Y-68618638D01*
X77388857Y-68777603D01*
X77319392Y-69019787D01*
X78120000Y-69820395D01*
X78134143Y-69806253D01*
X78313748Y-69985858D01*
X78299605Y-70000000D01*
X79100213Y-70800608D01*
X79342397Y-70731143D01*
X79392535Y-70590607D01*
X79475680Y-70791337D01*
X79868663Y-71184320D01*
X80382119Y-71397000D01*
X80563554Y-71397000D01*
X80253553Y-71707001D01*
X77130387Y-71707001D01*
X77057999Y-71692602D01*
X76985611Y-71707001D01*
X76771216Y-71749647D01*
X76528094Y-71912096D01*
X76487090Y-71973463D01*
X71195554Y-77265000D01*
X70087290Y-77265000D01*
X70029635Y-77207345D01*
X69685983Y-77065000D01*
X69314017Y-77065000D01*
X68970365Y-77207345D01*
X68911288Y-77266422D01*
X67112585Y-75467720D01*
X67065999Y-75397999D01*
X66789799Y-75213448D01*
X66546235Y-75165000D01*
X66546231Y-75165000D01*
X66463998Y-75148643D01*
X66381765Y-75165000D01*
X58927405Y-75165000D01*
X58685983Y-75065000D01*
X58314017Y-75065000D01*
X57970365Y-75207345D01*
X57707345Y-75470365D01*
X57565000Y-75814017D01*
X57565000Y-76185983D01*
X57707345Y-76529635D01*
X57970365Y-76792655D01*
X58314017Y-76935000D01*
X58685983Y-76935000D01*
X58927405Y-76835000D01*
X66118131Y-76835000D01*
X68515414Y-79232284D01*
X68561998Y-79302002D01*
X68838198Y-79486553D01*
X69081762Y-79535001D01*
X69081765Y-79535001D01*
X69163998Y-79551358D01*
X69246231Y-79535001D01*
X77217766Y-79535001D01*
X77299999Y-79551358D01*
X77382232Y-79535001D01*
X77382236Y-79535001D01*
X77625800Y-79486553D01*
X77902000Y-79302002D01*
X77948586Y-79232281D01*
X81288213Y-75892655D01*
X81529635Y-75792655D01*
X81792655Y-75529635D01*
X81864979Y-75355028D01*
X81864979Y-84915597D01*
X81850581Y-84987981D01*
X81864979Y-85060365D01*
X81864979Y-85060368D01*
X81907625Y-85274763D01*
X82070074Y-85517886D01*
X82131444Y-85558892D01*
X86364991Y-89792440D01*
X86364990Y-91659459D01*
X85999415Y-91464214D01*
X85950471Y-91456901D01*
X85752000Y-91580933D01*
X85752000Y-92873000D01*
X85772000Y-92873000D01*
X85772000Y-93127000D01*
X85752000Y-93127000D01*
X85752000Y-94419067D01*
X85950471Y-94543099D01*
X85999415Y-94535786D01*
X86443829Y-94298435D01*
X86756532Y-93917668D01*
X87004155Y-94165292D01*
X87004155Y-94246828D01*
X87146500Y-94590480D01*
X87409520Y-94853500D01*
X87456597Y-94873000D01*
X57127000Y-94873000D01*
X57127000Y-92654887D01*
X57265000Y-92654887D01*
X57265000Y-93345113D01*
X57529138Y-93982799D01*
X58017201Y-94470862D01*
X58654887Y-94735000D01*
X59345113Y-94735000D01*
X59982799Y-94470862D01*
X60470862Y-93982799D01*
X60735000Y-93345113D01*
X60735000Y-93220657D01*
X60858663Y-93344320D01*
X61372119Y-93557000D01*
X61927881Y-93557000D01*
X62441337Y-93344320D01*
X62834320Y-92951337D01*
X62920000Y-92744487D01*
X63005680Y-92951337D01*
X63398663Y-93344320D01*
X63912119Y-93557000D01*
X64467881Y-93557000D01*
X64981337Y-93344320D01*
X65198657Y-93127000D01*
X77090000Y-93127000D01*
X77090000Y-93427000D01*
X77236416Y-93909081D01*
X77556171Y-94298435D01*
X78000585Y-94535786D01*
X78049529Y-94543099D01*
X78248000Y-94419067D01*
X78248000Y-93127000D01*
X78502000Y-93127000D01*
X78502000Y-94419067D01*
X78700471Y-94543099D01*
X78749415Y-94535786D01*
X79193829Y-94298435D01*
X79513584Y-93909081D01*
X79660000Y-93427000D01*
X79660000Y-93127000D01*
X84340000Y-93127000D01*
X84340000Y-93427000D01*
X84486416Y-93909081D01*
X84806171Y-94298435D01*
X85250585Y-94535786D01*
X85299529Y-94543099D01*
X85498000Y-94419067D01*
X85498000Y-93127000D01*
X84340000Y-93127000D01*
X79660000Y-93127000D01*
X78502000Y-93127000D01*
X78248000Y-93127000D01*
X77090000Y-93127000D01*
X65198657Y-93127000D01*
X65374320Y-92951337D01*
X65531031Y-92573000D01*
X77090000Y-92573000D01*
X77090000Y-92873000D01*
X78248000Y-92873000D01*
X78248000Y-91580933D01*
X78502000Y-91580933D01*
X78502000Y-92873000D01*
X79660000Y-92873000D01*
X79660000Y-92573000D01*
X84340000Y-92573000D01*
X84340000Y-92873000D01*
X85498000Y-92873000D01*
X85498000Y-91580933D01*
X85299529Y-91456901D01*
X85250585Y-91464214D01*
X84806171Y-91701565D01*
X84486416Y-92090919D01*
X84340000Y-92573000D01*
X79660000Y-92573000D01*
X79513584Y-92090919D01*
X79193829Y-91701565D01*
X78749415Y-91464214D01*
X78700471Y-91456901D01*
X78502000Y-91580933D01*
X78248000Y-91580933D01*
X78049529Y-91456901D01*
X78000585Y-91464214D01*
X77556171Y-91701565D01*
X77236416Y-92090919D01*
X77090000Y-92573000D01*
X65531031Y-92573000D01*
X65587000Y-92437881D01*
X65587000Y-91882119D01*
X65374320Y-91368663D01*
X65254673Y-91249016D01*
X78855590Y-91249016D01*
X78911271Y-91479611D01*
X79394078Y-91647622D01*
X79904428Y-91618083D01*
X80238729Y-91479611D01*
X80294410Y-91249016D01*
X83705590Y-91249016D01*
X83761271Y-91479611D01*
X84244078Y-91647622D01*
X84754428Y-91618083D01*
X85088729Y-91479611D01*
X85144410Y-91249016D01*
X84425000Y-90529605D01*
X83705590Y-91249016D01*
X80294410Y-91249016D01*
X79575000Y-90529605D01*
X78855590Y-91249016D01*
X65254673Y-91249016D01*
X64981337Y-90975680D01*
X64467881Y-90763000D01*
X63912119Y-90763000D01*
X63398663Y-90975680D01*
X63005680Y-91368663D01*
X62920000Y-91575513D01*
X62834320Y-91368663D01*
X62441337Y-90975680D01*
X61927881Y-90763000D01*
X61372119Y-90763000D01*
X60858663Y-90975680D01*
X60465680Y-91368663D01*
X60277246Y-91823585D01*
X59982799Y-91529138D01*
X59345113Y-91265000D01*
X58654887Y-91265000D01*
X58017201Y-91529138D01*
X57529138Y-92017201D01*
X57265000Y-92654887D01*
X57127000Y-92654887D01*
X57127000Y-90169078D01*
X78277378Y-90169078D01*
X78306917Y-90679428D01*
X78445389Y-91013729D01*
X78675984Y-91069410D01*
X79395395Y-90350000D01*
X79754605Y-90350000D01*
X80474016Y-91069410D01*
X80704611Y-91013729D01*
X80872622Y-90530922D01*
X80851679Y-90169078D01*
X83127378Y-90169078D01*
X83156917Y-90679428D01*
X83295389Y-91013729D01*
X83525984Y-91069410D01*
X84245395Y-90350000D01*
X84604605Y-90350000D01*
X85324016Y-91069410D01*
X85554611Y-91013729D01*
X85722622Y-90530922D01*
X85693083Y-90020572D01*
X85554611Y-89686271D01*
X85324016Y-89630590D01*
X84604605Y-90350000D01*
X84245395Y-90350000D01*
X83525984Y-89630590D01*
X83295389Y-89686271D01*
X83127378Y-90169078D01*
X80851679Y-90169078D01*
X80843083Y-90020572D01*
X80704611Y-89686271D01*
X80474016Y-89630590D01*
X79754605Y-90350000D01*
X79395395Y-90350000D01*
X78675984Y-89630590D01*
X78445389Y-89686271D01*
X78277378Y-90169078D01*
X57127000Y-90169078D01*
X57127000Y-89450984D01*
X78855590Y-89450984D01*
X79575000Y-90170395D01*
X80294410Y-89450984D01*
X83705590Y-89450984D01*
X84425000Y-90170395D01*
X85144410Y-89450984D01*
X85088729Y-89220389D01*
X84605922Y-89052378D01*
X84095572Y-89081917D01*
X83761271Y-89220389D01*
X83705590Y-89450984D01*
X80294410Y-89450984D01*
X80238729Y-89220389D01*
X79755922Y-89052378D01*
X79245572Y-89081917D01*
X78911271Y-89220389D01*
X78855590Y-89450984D01*
X57127000Y-89450984D01*
X57127000Y-87314017D01*
X67065000Y-87314017D01*
X67065000Y-87685983D01*
X67207345Y-88029635D01*
X67470365Y-88292655D01*
X67814017Y-88435000D01*
X68185983Y-88435000D01*
X68529635Y-88292655D01*
X68792655Y-88029635D01*
X68935000Y-87685983D01*
X68935000Y-87604446D01*
X71328710Y-85210737D01*
X73249816Y-85210737D01*
X71695554Y-86765000D01*
X71587290Y-86765000D01*
X71529635Y-86707345D01*
X71185983Y-86565000D01*
X70814017Y-86565000D01*
X70470365Y-86707345D01*
X70207345Y-86970365D01*
X70065000Y-87314017D01*
X70065000Y-87685983D01*
X70207345Y-88029635D01*
X70470365Y-88292655D01*
X70814017Y-88435000D01*
X71185983Y-88435000D01*
X71529635Y-88292655D01*
X71587290Y-88235000D01*
X71927616Y-88235000D01*
X72000000Y-88249398D01*
X72072384Y-88235000D01*
X72072388Y-88235000D01*
X72286783Y-88192354D01*
X72529905Y-88029905D01*
X72570911Y-87968535D01*
X75104447Y-85435000D01*
X75185983Y-85435000D01*
X75529635Y-85292655D01*
X75576046Y-85246244D01*
X75889999Y-85246244D01*
X75889999Y-85618210D01*
X76032344Y-85961862D01*
X76295364Y-86224882D01*
X76639016Y-86367227D01*
X77010982Y-86367227D01*
X77354634Y-86224882D01*
X77412289Y-86167227D01*
X79844937Y-86167227D01*
X79970365Y-86292655D01*
X80314017Y-86435000D01*
X80685983Y-86435000D01*
X81029635Y-86292655D01*
X81292655Y-86029635D01*
X81435000Y-85685983D01*
X81435000Y-85314017D01*
X81292655Y-84970365D01*
X81029635Y-84707345D01*
X80685983Y-84565000D01*
X80314017Y-84565000D01*
X79994792Y-84697227D01*
X77412289Y-84697227D01*
X77354634Y-84639572D01*
X77010982Y-84497227D01*
X76639016Y-84497227D01*
X76295364Y-84639572D01*
X76032344Y-84902592D01*
X75889999Y-85246244D01*
X75576046Y-85246244D01*
X75792655Y-85029635D01*
X75935000Y-84685983D01*
X75935000Y-84314017D01*
X75792655Y-83970365D01*
X75529635Y-83707345D01*
X75185983Y-83565000D01*
X74814017Y-83565000D01*
X74500000Y-83695070D01*
X74185983Y-83565000D01*
X73814017Y-83565000D01*
X73470365Y-83707345D01*
X73436973Y-83740737D01*
X71096651Y-83740737D01*
X71024263Y-83726338D01*
X70951875Y-83740737D01*
X70737480Y-83783383D01*
X70494358Y-83945832D01*
X70453354Y-84007200D01*
X67895554Y-86565000D01*
X67814017Y-86565000D01*
X67470365Y-86707345D01*
X67207345Y-86970365D01*
X67065000Y-87314017D01*
X57127000Y-87314017D01*
X57127000Y-82314017D01*
X68565000Y-82314017D01*
X68565000Y-82685983D01*
X68707345Y-83029635D01*
X68970365Y-83292655D01*
X69314017Y-83435000D01*
X69685983Y-83435000D01*
X70029635Y-83292655D01*
X70087290Y-83235000D01*
X72412710Y-83235000D01*
X72470365Y-83292655D01*
X72814017Y-83435000D01*
X73185983Y-83435000D01*
X73529635Y-83292655D01*
X73792655Y-83029635D01*
X73935000Y-82685983D01*
X73935000Y-82314017D01*
X73792655Y-81970365D01*
X73529635Y-81707345D01*
X73185983Y-81565000D01*
X72814017Y-81565000D01*
X72470365Y-81707345D01*
X72412710Y-81765000D01*
X70087290Y-81765000D01*
X70029635Y-81707345D01*
X69685983Y-81565000D01*
X69314017Y-81565000D01*
X68970365Y-81707345D01*
X68707345Y-81970365D01*
X68565000Y-82314017D01*
X57127000Y-82314017D01*
X57127000Y-43127000D01*
X62351792Y-43127000D01*
X60735000Y-44743792D01*
X60735000Y-44743792D01*
G37*
X60735000Y-44743792D02*
X60735000Y-44654887D01*
X60470862Y-44017201D01*
X59982799Y-43529138D01*
X59345113Y-43265000D01*
X58654887Y-43265000D01*
X58017201Y-43529138D01*
X57529138Y-44017201D01*
X57265000Y-44654887D01*
X57265000Y-45345113D01*
X57529138Y-45982799D01*
X58017201Y-46470862D01*
X58654887Y-46735000D01*
X59345113Y-46735000D01*
X59765001Y-46561077D01*
X59765000Y-54847616D01*
X59750602Y-54920000D01*
X59765000Y-54992384D01*
X59765000Y-54992387D01*
X59807646Y-55206782D01*
X59970095Y-55449905D01*
X60031465Y-55490911D01*
X73143553Y-68603000D01*
X72762119Y-68603000D01*
X72248663Y-68815680D01*
X71855680Y-69208663D01*
X71770000Y-69415513D01*
X71684320Y-69208663D01*
X71291337Y-68815680D01*
X70777881Y-68603000D01*
X70222119Y-68603000D01*
X69708663Y-68815680D01*
X69315680Y-69208663D01*
X69230000Y-69415513D01*
X69144320Y-69208663D01*
X68751337Y-68815680D01*
X68237881Y-68603000D01*
X67682119Y-68603000D01*
X67425312Y-68709373D01*
X67435000Y-68685983D01*
X67435000Y-68314017D01*
X67292655Y-67970365D01*
X67029635Y-67707345D01*
X66685983Y-67565000D01*
X66314017Y-67565000D01*
X65970365Y-67707345D01*
X65707345Y-67970365D01*
X65565000Y-68314017D01*
X65565000Y-68603000D01*
X65142119Y-68603000D01*
X64628663Y-68815680D01*
X64235680Y-69208663D01*
X64150000Y-69415513D01*
X64064320Y-69208663D01*
X63671337Y-68815680D01*
X63157881Y-68603000D01*
X62602119Y-68603000D01*
X62135000Y-68796487D01*
X62135000Y-68388217D01*
X62069146Y-68057145D01*
X61818289Y-67681711D01*
X61442854Y-67430854D01*
X61000000Y-67342765D01*
X60557145Y-67430854D01*
X60181711Y-67681711D01*
X59930854Y-68057146D01*
X59865000Y-68388218D01*
X59865001Y-70029867D01*
X58276477Y-71618392D01*
X58181712Y-71681712D01*
X57986769Y-71973464D01*
X57930854Y-72057146D01*
X57842765Y-72500000D01*
X57930854Y-72942854D01*
X58181712Y-73318288D01*
X58276477Y-73381608D01*
X59118390Y-74223522D01*
X59181712Y-74318290D01*
X59539184Y-74557145D01*
X59557146Y-74569147D01*
X60000001Y-74657236D01*
X60111784Y-74635001D01*
X66388216Y-74635001D01*
X66499999Y-74657236D01*
X66611782Y-74635001D01*
X66942854Y-74569147D01*
X67318288Y-74318290D01*
X67381612Y-74223519D01*
X68381608Y-73223523D01*
X68569146Y-72942854D01*
X68657235Y-72500000D01*
X68569146Y-72057146D01*
X68318288Y-71681712D01*
X67942854Y-71430854D01*
X67772658Y-71397000D01*
X68237881Y-71397000D01*
X68751337Y-71184320D01*
X69144320Y-70791337D01*
X69230000Y-70584487D01*
X69315680Y-70791337D01*
X69708663Y-71184320D01*
X70222119Y-71397000D01*
X70777881Y-71397000D01*
X71291337Y-71184320D01*
X71684320Y-70791337D01*
X71770000Y-70584487D01*
X71855680Y-70791337D01*
X72248663Y-71184320D01*
X72762119Y-71397000D01*
X73317881Y-71397000D01*
X73831337Y-71184320D01*
X74224320Y-70791337D01*
X74310000Y-70584487D01*
X74395680Y-70791337D01*
X74788663Y-71184320D01*
X75302119Y-71397000D01*
X75857881Y-71397000D01*
X76371337Y-71184320D01*
X76575444Y-70980213D01*
X77319392Y-70980213D01*
X77388857Y-71222397D01*
X77912302Y-71409144D01*
X78467368Y-71381362D01*
X78851143Y-71222397D01*
X78920608Y-70980213D01*
X78120000Y-70179605D01*
X77319392Y-70980213D01*
X76575444Y-70980213D01*
X76764320Y-70791337D01*
X76843428Y-70600353D01*
X76897603Y-70731143D01*
X77139787Y-70800608D01*
X77940395Y-70000000D01*
X77139787Y-69199392D01*
X76897603Y-69268857D01*
X76847465Y-69409393D01*
X76764320Y-69208663D01*
X76371337Y-68815680D01*
X75857881Y-68603000D01*
X75302119Y-68603000D01*
X75245782Y-68626335D01*
X73454448Y-66835001D01*
X76455555Y-66835001D01*
X78216952Y-68596399D01*
X77772632Y-68618638D01*
X77388857Y-68777603D01*
X77319392Y-69019787D01*
X78120000Y-69820395D01*
X78134143Y-69806253D01*
X78313748Y-69985858D01*
X78299605Y-70000000D01*
X79100213Y-70800608D01*
X79342397Y-70731143D01*
X79392535Y-70590607D01*
X79475680Y-70791337D01*
X79868663Y-71184320D01*
X80382119Y-71397000D01*
X80563554Y-71397000D01*
X80253553Y-71707001D01*
X77130387Y-71707001D01*
X77057999Y-71692602D01*
X76985611Y-71707001D01*
X76771216Y-71749647D01*
X76528094Y-71912096D01*
X76487090Y-71973463D01*
X71195554Y-77265000D01*
X70087290Y-77265000D01*
X70029635Y-77207345D01*
X69685983Y-77065000D01*
X69314017Y-77065000D01*
X68970365Y-77207345D01*
X68911288Y-77266422D01*
X67112585Y-75467720D01*
X67065999Y-75397999D01*
X66789799Y-75213448D01*
X66546235Y-75165000D01*
X66546231Y-75165000D01*
X66463998Y-75148643D01*
X66381765Y-75165000D01*
X58927405Y-75165000D01*
X58685983Y-75065000D01*
X58314017Y-75065000D01*
X57970365Y-75207345D01*
X57707345Y-75470365D01*
X57565000Y-75814017D01*
X57565000Y-76185983D01*
X57707345Y-76529635D01*
X57970365Y-76792655D01*
X58314017Y-76935000D01*
X58685983Y-76935000D01*
X58927405Y-76835000D01*
X66118131Y-76835000D01*
X68515414Y-79232284D01*
X68561998Y-79302002D01*
X68838198Y-79486553D01*
X69081762Y-79535001D01*
X69081765Y-79535001D01*
X69163998Y-79551358D01*
X69246231Y-79535001D01*
X77217766Y-79535001D01*
X77299999Y-79551358D01*
X77382232Y-79535001D01*
X77382236Y-79535001D01*
X77625800Y-79486553D01*
X77902000Y-79302002D01*
X77948586Y-79232281D01*
X81288213Y-75892655D01*
X81529635Y-75792655D01*
X81792655Y-75529635D01*
X81864979Y-75355028D01*
X81864979Y-84915597D01*
X81850581Y-84987981D01*
X81864979Y-85060365D01*
X81864979Y-85060368D01*
X81907625Y-85274763D01*
X82070074Y-85517886D01*
X82131444Y-85558892D01*
X86364991Y-89792440D01*
X86364990Y-91659459D01*
X85999415Y-91464214D01*
X85950471Y-91456901D01*
X85752000Y-91580933D01*
X85752000Y-92873000D01*
X85772000Y-92873000D01*
X85772000Y-93127000D01*
X85752000Y-93127000D01*
X85752000Y-94419067D01*
X85950471Y-94543099D01*
X85999415Y-94535786D01*
X86443829Y-94298435D01*
X86756532Y-93917668D01*
X87004155Y-94165292D01*
X87004155Y-94246828D01*
X87146500Y-94590480D01*
X87409520Y-94853500D01*
X87456597Y-94873000D01*
X57127000Y-94873000D01*
X57127000Y-92654887D01*
X57265000Y-92654887D01*
X57265000Y-93345113D01*
X57529138Y-93982799D01*
X58017201Y-94470862D01*
X58654887Y-94735000D01*
X59345113Y-94735000D01*
X59982799Y-94470862D01*
X60470862Y-93982799D01*
X60735000Y-93345113D01*
X60735000Y-93220657D01*
X60858663Y-93344320D01*
X61372119Y-93557000D01*
X61927881Y-93557000D01*
X62441337Y-93344320D01*
X62834320Y-92951337D01*
X62920000Y-92744487D01*
X63005680Y-92951337D01*
X63398663Y-93344320D01*
X63912119Y-93557000D01*
X64467881Y-93557000D01*
X64981337Y-93344320D01*
X65198657Y-93127000D01*
X77090000Y-93127000D01*
X77090000Y-93427000D01*
X77236416Y-93909081D01*
X77556171Y-94298435D01*
X78000585Y-94535786D01*
X78049529Y-94543099D01*
X78248000Y-94419067D01*
X78248000Y-93127000D01*
X78502000Y-93127000D01*
X78502000Y-94419067D01*
X78700471Y-94543099D01*
X78749415Y-94535786D01*
X79193829Y-94298435D01*
X79513584Y-93909081D01*
X79660000Y-93427000D01*
X79660000Y-93127000D01*
X84340000Y-93127000D01*
X84340000Y-93427000D01*
X84486416Y-93909081D01*
X84806171Y-94298435D01*
X85250585Y-94535786D01*
X85299529Y-94543099D01*
X85498000Y-94419067D01*
X85498000Y-93127000D01*
X84340000Y-93127000D01*
X79660000Y-93127000D01*
X78502000Y-93127000D01*
X78248000Y-93127000D01*
X77090000Y-93127000D01*
X65198657Y-93127000D01*
X65374320Y-92951337D01*
X65531031Y-92573000D01*
X77090000Y-92573000D01*
X77090000Y-92873000D01*
X78248000Y-92873000D01*
X78248000Y-91580933D01*
X78502000Y-91580933D01*
X78502000Y-92873000D01*
X79660000Y-92873000D01*
X79660000Y-92573000D01*
X84340000Y-92573000D01*
X84340000Y-92873000D01*
X85498000Y-92873000D01*
X85498000Y-91580933D01*
X85299529Y-91456901D01*
X85250585Y-91464214D01*
X84806171Y-91701565D01*
X84486416Y-92090919D01*
X84340000Y-92573000D01*
X79660000Y-92573000D01*
X79513584Y-92090919D01*
X79193829Y-91701565D01*
X78749415Y-91464214D01*
X78700471Y-91456901D01*
X78502000Y-91580933D01*
X78248000Y-91580933D01*
X78049529Y-91456901D01*
X78000585Y-91464214D01*
X77556171Y-91701565D01*
X77236416Y-92090919D01*
X77090000Y-92573000D01*
X65531031Y-92573000D01*
X65587000Y-92437881D01*
X65587000Y-91882119D01*
X65374320Y-91368663D01*
X65254673Y-91249016D01*
X78855590Y-91249016D01*
X78911271Y-91479611D01*
X79394078Y-91647622D01*
X79904428Y-91618083D01*
X80238729Y-91479611D01*
X80294410Y-91249016D01*
X83705590Y-91249016D01*
X83761271Y-91479611D01*
X84244078Y-91647622D01*
X84754428Y-91618083D01*
X85088729Y-91479611D01*
X85144410Y-91249016D01*
X84425000Y-90529605D01*
X83705590Y-91249016D01*
X80294410Y-91249016D01*
X79575000Y-90529605D01*
X78855590Y-91249016D01*
X65254673Y-91249016D01*
X64981337Y-90975680D01*
X64467881Y-90763000D01*
X63912119Y-90763000D01*
X63398663Y-90975680D01*
X63005680Y-91368663D01*
X62920000Y-91575513D01*
X62834320Y-91368663D01*
X62441337Y-90975680D01*
X61927881Y-90763000D01*
X61372119Y-90763000D01*
X60858663Y-90975680D01*
X60465680Y-91368663D01*
X60277246Y-91823585D01*
X59982799Y-91529138D01*
X59345113Y-91265000D01*
X58654887Y-91265000D01*
X58017201Y-91529138D01*
X57529138Y-92017201D01*
X57265000Y-92654887D01*
X57127000Y-92654887D01*
X57127000Y-90169078D01*
X78277378Y-90169078D01*
X78306917Y-90679428D01*
X78445389Y-91013729D01*
X78675984Y-91069410D01*
X79395395Y-90350000D01*
X79754605Y-90350000D01*
X80474016Y-91069410D01*
X80704611Y-91013729D01*
X80872622Y-90530922D01*
X80851679Y-90169078D01*
X83127378Y-90169078D01*
X83156917Y-90679428D01*
X83295389Y-91013729D01*
X83525984Y-91069410D01*
X84245395Y-90350000D01*
X84604605Y-90350000D01*
X85324016Y-91069410D01*
X85554611Y-91013729D01*
X85722622Y-90530922D01*
X85693083Y-90020572D01*
X85554611Y-89686271D01*
X85324016Y-89630590D01*
X84604605Y-90350000D01*
X84245395Y-90350000D01*
X83525984Y-89630590D01*
X83295389Y-89686271D01*
X83127378Y-90169078D01*
X80851679Y-90169078D01*
X80843083Y-90020572D01*
X80704611Y-89686271D01*
X80474016Y-89630590D01*
X79754605Y-90350000D01*
X79395395Y-90350000D01*
X78675984Y-89630590D01*
X78445389Y-89686271D01*
X78277378Y-90169078D01*
X57127000Y-90169078D01*
X57127000Y-89450984D01*
X78855590Y-89450984D01*
X79575000Y-90170395D01*
X80294410Y-89450984D01*
X83705590Y-89450984D01*
X84425000Y-90170395D01*
X85144410Y-89450984D01*
X85088729Y-89220389D01*
X84605922Y-89052378D01*
X84095572Y-89081917D01*
X83761271Y-89220389D01*
X83705590Y-89450984D01*
X80294410Y-89450984D01*
X80238729Y-89220389D01*
X79755922Y-89052378D01*
X79245572Y-89081917D01*
X78911271Y-89220389D01*
X78855590Y-89450984D01*
X57127000Y-89450984D01*
X57127000Y-87314017D01*
X67065000Y-87314017D01*
X67065000Y-87685983D01*
X67207345Y-88029635D01*
X67470365Y-88292655D01*
X67814017Y-88435000D01*
X68185983Y-88435000D01*
X68529635Y-88292655D01*
X68792655Y-88029635D01*
X68935000Y-87685983D01*
X68935000Y-87604446D01*
X71328710Y-85210737D01*
X73249816Y-85210737D01*
X71695554Y-86765000D01*
X71587290Y-86765000D01*
X71529635Y-86707345D01*
X71185983Y-86565000D01*
X70814017Y-86565000D01*
X70470365Y-86707345D01*
X70207345Y-86970365D01*
X70065000Y-87314017D01*
X70065000Y-87685983D01*
X70207345Y-88029635D01*
X70470365Y-88292655D01*
X70814017Y-88435000D01*
X71185983Y-88435000D01*
X71529635Y-88292655D01*
X71587290Y-88235000D01*
X71927616Y-88235000D01*
X72000000Y-88249398D01*
X72072384Y-88235000D01*
X72072388Y-88235000D01*
X72286783Y-88192354D01*
X72529905Y-88029905D01*
X72570911Y-87968535D01*
X75104447Y-85435000D01*
X75185983Y-85435000D01*
X75529635Y-85292655D01*
X75576046Y-85246244D01*
X75889999Y-85246244D01*
X75889999Y-85618210D01*
X76032344Y-85961862D01*
X76295364Y-86224882D01*
X76639016Y-86367227D01*
X77010982Y-86367227D01*
X77354634Y-86224882D01*
X77412289Y-86167227D01*
X79844937Y-86167227D01*
X79970365Y-86292655D01*
X80314017Y-86435000D01*
X80685983Y-86435000D01*
X81029635Y-86292655D01*
X81292655Y-86029635D01*
X81435000Y-85685983D01*
X81435000Y-85314017D01*
X81292655Y-84970365D01*
X81029635Y-84707345D01*
X80685983Y-84565000D01*
X80314017Y-84565000D01*
X79994792Y-84697227D01*
X77412289Y-84697227D01*
X77354634Y-84639572D01*
X77010982Y-84497227D01*
X76639016Y-84497227D01*
X76295364Y-84639572D01*
X76032344Y-84902592D01*
X75889999Y-85246244D01*
X75576046Y-85246244D01*
X75792655Y-85029635D01*
X75935000Y-84685983D01*
X75935000Y-84314017D01*
X75792655Y-83970365D01*
X75529635Y-83707345D01*
X75185983Y-83565000D01*
X74814017Y-83565000D01*
X74500000Y-83695070D01*
X74185983Y-83565000D01*
X73814017Y-83565000D01*
X73470365Y-83707345D01*
X73436973Y-83740737D01*
X71096651Y-83740737D01*
X71024263Y-83726338D01*
X70951875Y-83740737D01*
X70737480Y-83783383D01*
X70494358Y-83945832D01*
X70453354Y-84007200D01*
X67895554Y-86565000D01*
X67814017Y-86565000D01*
X67470365Y-86707345D01*
X67207345Y-86970365D01*
X67065000Y-87314017D01*
X57127000Y-87314017D01*
X57127000Y-82314017D01*
X68565000Y-82314017D01*
X68565000Y-82685983D01*
X68707345Y-83029635D01*
X68970365Y-83292655D01*
X69314017Y-83435000D01*
X69685983Y-83435000D01*
X70029635Y-83292655D01*
X70087290Y-83235000D01*
X72412710Y-83235000D01*
X72470365Y-83292655D01*
X72814017Y-83435000D01*
X73185983Y-83435000D01*
X73529635Y-83292655D01*
X73792655Y-83029635D01*
X73935000Y-82685983D01*
X73935000Y-82314017D01*
X73792655Y-81970365D01*
X73529635Y-81707345D01*
X73185983Y-81565000D01*
X72814017Y-81565000D01*
X72470365Y-81707345D01*
X72412710Y-81765000D01*
X70087290Y-81765000D01*
X70029635Y-81707345D01*
X69685983Y-81565000D01*
X69314017Y-81565000D01*
X68970365Y-81707345D01*
X68707345Y-81970365D01*
X68565000Y-82314017D01*
X57127000Y-82314017D01*
X57127000Y-43127000D01*
X62351792Y-43127000D01*
X60735000Y-44743792D01*
G36*
X150024446Y-84205195D02*
X149685983Y-84065000D01*
X149314017Y-84065000D01*
X148970365Y-84207345D01*
X148707345Y-84470365D01*
X148565000Y-84814017D01*
X148565000Y-85185983D01*
X148707345Y-85529635D01*
X148765000Y-85587290D01*
X148765001Y-89195552D01*
X146195554Y-91765000D01*
X139687290Y-91765000D01*
X139529635Y-91607345D01*
X139517237Y-91602210D01*
X140104103Y-91015344D01*
X140353744Y-91065000D01*
X140646256Y-91065000D01*
X141079418Y-90978839D01*
X141570625Y-90650625D01*
X141771353Y-90350214D01*
X142158642Y-90775183D01*
X142683108Y-91021486D01*
X142913000Y-90900819D01*
X142913000Y-89707000D01*
X143167000Y-89707000D01*
X143167000Y-90900819D01*
X143396892Y-91021486D01*
X143921358Y-90775183D01*
X144311645Y-90346924D01*
X144481476Y-89936890D01*
X144360155Y-89707000D01*
X143167000Y-89707000D01*
X142913000Y-89707000D01*
X142893000Y-89707000D01*
X142893000Y-89453000D01*
X142913000Y-89453000D01*
X142913000Y-89433000D01*
X143167000Y-89433000D01*
X143167000Y-89453000D01*
X144360155Y-89453000D01*
X144481476Y-89223110D01*
X144311645Y-88813076D01*
X143921358Y-88384817D01*
X143791522Y-88323843D01*
X144110625Y-88110625D01*
X144438839Y-87619418D01*
X144554092Y-87040000D01*
X144438839Y-86460582D01*
X144110625Y-85969375D01*
X143812239Y-85770000D01*
X144110625Y-85570625D01*
X144438839Y-85079418D01*
X144554092Y-84500000D01*
X144461598Y-84035000D01*
X150058300Y-84035000D01*
X150024446Y-84205195D01*
X150024446Y-84205195D01*
G37*
X150024446Y-84205195D02*
X149685983Y-84065000D01*
X149314017Y-84065000D01*
X148970365Y-84207345D01*
X148707345Y-84470365D01*
X148565000Y-84814017D01*
X148565000Y-85185983D01*
X148707345Y-85529635D01*
X148765000Y-85587290D01*
X148765001Y-89195552D01*
X146195554Y-91765000D01*
X139687290Y-91765000D01*
X139529635Y-91607345D01*
X139517237Y-91602210D01*
X140104103Y-91015344D01*
X140353744Y-91065000D01*
X140646256Y-91065000D01*
X141079418Y-90978839D01*
X141570625Y-90650625D01*
X141771353Y-90350214D01*
X142158642Y-90775183D01*
X142683108Y-91021486D01*
X142913000Y-90900819D01*
X142913000Y-89707000D01*
X143167000Y-89707000D01*
X143167000Y-90900819D01*
X143396892Y-91021486D01*
X143921358Y-90775183D01*
X144311645Y-90346924D01*
X144481476Y-89936890D01*
X144360155Y-89707000D01*
X143167000Y-89707000D01*
X142913000Y-89707000D01*
X142893000Y-89707000D01*
X142893000Y-89453000D01*
X142913000Y-89453000D01*
X142913000Y-89433000D01*
X143167000Y-89433000D01*
X143167000Y-89453000D01*
X144360155Y-89453000D01*
X144481476Y-89223110D01*
X144311645Y-88813076D01*
X143921358Y-88384817D01*
X143791522Y-88323843D01*
X144110625Y-88110625D01*
X144438839Y-87619418D01*
X144554092Y-87040000D01*
X144438839Y-86460582D01*
X144110625Y-85969375D01*
X143812239Y-85770000D01*
X144110625Y-85570625D01*
X144438839Y-85079418D01*
X144554092Y-84500000D01*
X144461598Y-84035000D01*
X150058300Y-84035000D01*
X150024446Y-84205195D01*
G36*
X89265000Y-70564155D02*
X89231442Y-70597713D01*
X89170075Y-70638717D01*
X89129071Y-70700084D01*
X89129070Y-70700085D01*
X89007625Y-70881840D01*
X88950581Y-71168622D01*
X88964980Y-71241011D01*
X88964979Y-89958620D01*
X88914550Y-89948589D01*
X88842162Y-89962988D01*
X88627767Y-90005634D01*
X88384645Y-90168083D01*
X88343640Y-90229451D01*
X88235000Y-90338091D01*
X88235000Y-70072383D01*
X88249398Y-69999999D01*
X88235000Y-69927615D01*
X88235000Y-69927612D01*
X88192354Y-69713217D01*
X88029905Y-69470095D01*
X87968538Y-69429091D01*
X87389958Y-68850511D01*
X87529635Y-68792655D01*
X87587290Y-68735000D01*
X88012710Y-68735000D01*
X88070365Y-68792655D01*
X88414017Y-68935000D01*
X88785983Y-68935000D01*
X89129635Y-68792655D01*
X89265001Y-68657289D01*
X89265000Y-70564155D01*
X89265000Y-70564155D01*
G37*
X89265000Y-70564155D02*
X89231442Y-70597713D01*
X89170075Y-70638717D01*
X89129071Y-70700084D01*
X89129070Y-70700085D01*
X89007625Y-70881840D01*
X88950581Y-71168622D01*
X88964980Y-71241011D01*
X88964979Y-89958620D01*
X88914550Y-89948589D01*
X88842162Y-89962988D01*
X88627767Y-90005634D01*
X88384645Y-90168083D01*
X88343640Y-90229451D01*
X88235000Y-90338091D01*
X88235000Y-70072383D01*
X88249398Y-69999999D01*
X88235000Y-69927615D01*
X88235000Y-69927612D01*
X88192354Y-69713217D01*
X88029905Y-69470095D01*
X87968538Y-69429091D01*
X87389958Y-68850511D01*
X87529635Y-68792655D01*
X87587290Y-68735000D01*
X88012710Y-68735000D01*
X88070365Y-68792655D01*
X88414017Y-68935000D01*
X88785983Y-68935000D01*
X89129635Y-68792655D01*
X89265001Y-68657289D01*
X89265000Y-70564155D01*
G36*
X139002560Y-85350000D02*
X139051843Y-85597765D01*
X139192191Y-85807809D01*
X139402235Y-85948157D01*
X139447619Y-85957184D01*
X139429375Y-85969375D01*
X139101161Y-86460582D01*
X138985908Y-87040000D01*
X139064656Y-87435897D01*
X136835555Y-89664999D01*
X131989580Y-89664999D01*
X132259586Y-89484586D01*
X132454127Y-89193436D01*
X132522440Y-88850001D01*
X132522440Y-88149999D01*
X132454127Y-87806564D01*
X132259586Y-87515414D01*
X132092653Y-87403873D01*
X132238080Y-87283474D01*
X132464592Y-86855281D01*
X132468462Y-86817609D01*
X132343731Y-86627000D01*
X131127000Y-86627000D01*
X131127000Y-86647000D01*
X130873000Y-86647000D01*
X130873000Y-86627000D01*
X129656269Y-86627000D01*
X129531538Y-86817609D01*
X129535408Y-86855281D01*
X129761920Y-87283474D01*
X129907347Y-87403873D01*
X129740414Y-87515414D01*
X129545873Y-87806564D01*
X129523614Y-87918469D01*
X128136609Y-86531465D01*
X128095603Y-86470095D01*
X127852481Y-86307646D01*
X127638086Y-86265000D01*
X127638082Y-86265000D01*
X127565698Y-86250602D01*
X127493314Y-86265000D01*
X105057290Y-86265000D01*
X105139899Y-86182391D01*
X129531538Y-86182391D01*
X129656269Y-86373000D01*
X130873000Y-86373000D01*
X130873000Y-85265000D01*
X131127000Y-85265000D01*
X131127000Y-86373000D01*
X132343731Y-86373000D01*
X132468462Y-86182391D01*
X132464592Y-86144719D01*
X132238080Y-85716526D01*
X131864947Y-85407610D01*
X131402000Y-85265000D01*
X131127000Y-85265000D01*
X130873000Y-85265000D01*
X130598000Y-85265000D01*
X130135053Y-85407610D01*
X129761920Y-85716526D01*
X129535408Y-86144719D01*
X129531538Y-86182391D01*
X105139899Y-86182391D01*
X105292655Y-86029635D01*
X105435000Y-85685983D01*
X105435000Y-85604446D01*
X105804447Y-85235000D01*
X139002560Y-85235000D01*
X139002560Y-85350000D01*
X139002560Y-85350000D01*
G37*
X139002560Y-85350000D02*
X139051843Y-85597765D01*
X139192191Y-85807809D01*
X139402235Y-85948157D01*
X139447619Y-85957184D01*
X139429375Y-85969375D01*
X139101161Y-86460582D01*
X138985908Y-87040000D01*
X139064656Y-87435897D01*
X136835555Y-89664999D01*
X131989580Y-89664999D01*
X132259586Y-89484586D01*
X132454127Y-89193436D01*
X132522440Y-88850001D01*
X132522440Y-88149999D01*
X132454127Y-87806564D01*
X132259586Y-87515414D01*
X132092653Y-87403873D01*
X132238080Y-87283474D01*
X132464592Y-86855281D01*
X132468462Y-86817609D01*
X132343731Y-86627000D01*
X131127000Y-86627000D01*
X131127000Y-86647000D01*
X130873000Y-86647000D01*
X130873000Y-86627000D01*
X129656269Y-86627000D01*
X129531538Y-86817609D01*
X129535408Y-86855281D01*
X129761920Y-87283474D01*
X129907347Y-87403873D01*
X129740414Y-87515414D01*
X129545873Y-87806564D01*
X129523614Y-87918469D01*
X128136609Y-86531465D01*
X128095603Y-86470095D01*
X127852481Y-86307646D01*
X127638086Y-86265000D01*
X127638082Y-86265000D01*
X127565698Y-86250602D01*
X127493314Y-86265000D01*
X105057290Y-86265000D01*
X105139899Y-86182391D01*
X129531538Y-86182391D01*
X129656269Y-86373000D01*
X130873000Y-86373000D01*
X130873000Y-85265000D01*
X131127000Y-85265000D01*
X131127000Y-86373000D01*
X132343731Y-86373000D01*
X132468462Y-86182391D01*
X132464592Y-86144719D01*
X132238080Y-85716526D01*
X131864947Y-85407610D01*
X131402000Y-85265000D01*
X131127000Y-85265000D01*
X130873000Y-85265000D01*
X130598000Y-85265000D01*
X130135053Y-85407610D01*
X129761920Y-85716526D01*
X129535408Y-86144719D01*
X129531538Y-86182391D01*
X105139899Y-86182391D01*
X105292655Y-86029635D01*
X105435000Y-85685983D01*
X105435000Y-85604446D01*
X105804447Y-85235000D01*
X139002560Y-85235000D01*
X139002560Y-85350000D01*
G36*
X103370754Y-86765000D02*
X93587290Y-86765000D01*
X93529635Y-86707345D01*
X93185983Y-86565000D01*
X92814017Y-86565000D01*
X92470365Y-86707345D01*
X92235000Y-86942710D01*
X92235000Y-82722984D01*
X92559740Y-82722984D01*
X92903392Y-82580639D01*
X92961047Y-82522984D01*
X99128739Y-82522984D01*
X103370754Y-86765000D01*
X103370754Y-86765000D01*
G37*
X103370754Y-86765000D02*
X93587290Y-86765000D01*
X93529635Y-86707345D01*
X93185983Y-86565000D01*
X92814017Y-86565000D01*
X92470365Y-86707345D01*
X92235000Y-86942710D01*
X92235000Y-82722984D01*
X92559740Y-82722984D01*
X92903392Y-82580639D01*
X92961047Y-82522984D01*
X99128739Y-82522984D01*
X103370754Y-86765000D01*
G36*
X102618392Y-70223523D02*
X103365000Y-70970132D01*
X103365000Y-71111782D01*
X103430854Y-71442854D01*
X103681711Y-71818289D01*
X104057145Y-72069146D01*
X104500000Y-72157235D01*
X104942854Y-72069146D01*
X105318289Y-71818289D01*
X105569146Y-71442855D01*
X105635000Y-71111783D01*
X105635000Y-70611783D01*
X105645235Y-70560327D01*
X105692620Y-70540700D01*
X105790940Y-70442380D01*
X119113559Y-83765000D01*
X105572388Y-83765000D01*
X105500000Y-83750601D01*
X105427612Y-83765000D01*
X105213217Y-83807646D01*
X104970095Y-83970095D01*
X104929090Y-84031463D01*
X104395554Y-84565000D01*
X104314017Y-84565000D01*
X103970365Y-84707345D01*
X103707345Y-84970365D01*
X103692017Y-85007370D01*
X100004096Y-81319449D01*
X99963090Y-81258079D01*
X99719968Y-81095630D01*
X99505573Y-81052984D01*
X99505569Y-81052984D01*
X99433185Y-81038586D01*
X99360801Y-81052984D01*
X92961047Y-81052984D01*
X92903392Y-80995329D01*
X92559740Y-80852984D01*
X92235000Y-80852984D01*
X92235000Y-74804446D01*
X96923754Y-70115693D01*
X96981610Y-70255370D01*
X97244630Y-70518390D01*
X97588282Y-70660735D01*
X97669819Y-70660735D01*
X100977620Y-73968537D01*
X101018625Y-74029905D01*
X101261747Y-74192354D01*
X101476142Y-74235000D01*
X101548530Y-74249399D01*
X101620918Y-74235000D01*
X102743285Y-74235000D01*
X102528034Y-74557146D01*
X102462180Y-74888218D01*
X102462180Y-74985397D01*
X102439945Y-75097180D01*
X102462180Y-75208962D01*
X102462180Y-75208963D01*
X102528034Y-75540035D01*
X102778891Y-75915469D01*
X102873661Y-75978792D01*
X104776476Y-77881608D01*
X105057145Y-78069146D01*
X105500000Y-78157235D01*
X105942854Y-78069146D01*
X106318288Y-77818288D01*
X106569146Y-77442854D01*
X106657235Y-77000000D01*
X106569146Y-76557145D01*
X106381608Y-76276476D01*
X104667332Y-74562200D01*
X104666326Y-74557145D01*
X104451076Y-74235000D01*
X107195554Y-74235000D01*
X110565000Y-77604447D01*
X110565000Y-77685983D01*
X110707345Y-78029635D01*
X110970365Y-78292655D01*
X111314017Y-78435000D01*
X111685983Y-78435000D01*
X112029635Y-78292655D01*
X112292655Y-78029635D01*
X112435000Y-77685983D01*
X112435000Y-77314017D01*
X112292655Y-76970365D01*
X112029635Y-76707345D01*
X111685983Y-76565000D01*
X111604447Y-76565000D01*
X108070911Y-73031465D01*
X108029905Y-72970095D01*
X107786783Y-72807646D01*
X107572388Y-72765000D01*
X107572384Y-72765000D01*
X107500000Y-72750602D01*
X107427616Y-72765000D01*
X102057290Y-72765000D01*
X102292655Y-72529635D01*
X102435000Y-72185983D01*
X102435000Y-71814017D01*
X102292655Y-71470365D01*
X102235000Y-71412710D01*
X102235000Y-70987290D01*
X102292655Y-70929635D01*
X102435000Y-70585983D01*
X102435000Y-70214017D01*
X102395801Y-70119382D01*
X102487521Y-70027661D01*
X102618392Y-70223523D01*
X102618392Y-70223523D01*
G37*
X102618392Y-70223523D02*
X103365000Y-70970132D01*
X103365000Y-71111782D01*
X103430854Y-71442854D01*
X103681711Y-71818289D01*
X104057145Y-72069146D01*
X104500000Y-72157235D01*
X104942854Y-72069146D01*
X105318289Y-71818289D01*
X105569146Y-71442855D01*
X105635000Y-71111783D01*
X105635000Y-70611783D01*
X105645235Y-70560327D01*
X105692620Y-70540700D01*
X105790940Y-70442380D01*
X119113559Y-83765000D01*
X105572388Y-83765000D01*
X105500000Y-83750601D01*
X105427612Y-83765000D01*
X105213217Y-83807646D01*
X104970095Y-83970095D01*
X104929090Y-84031463D01*
X104395554Y-84565000D01*
X104314017Y-84565000D01*
X103970365Y-84707345D01*
X103707345Y-84970365D01*
X103692017Y-85007370D01*
X100004096Y-81319449D01*
X99963090Y-81258079D01*
X99719968Y-81095630D01*
X99505573Y-81052984D01*
X99505569Y-81052984D01*
X99433185Y-81038586D01*
X99360801Y-81052984D01*
X92961047Y-81052984D01*
X92903392Y-80995329D01*
X92559740Y-80852984D01*
X92235000Y-80852984D01*
X92235000Y-74804446D01*
X96923754Y-70115693D01*
X96981610Y-70255370D01*
X97244630Y-70518390D01*
X97588282Y-70660735D01*
X97669819Y-70660735D01*
X100977620Y-73968537D01*
X101018625Y-74029905D01*
X101261747Y-74192354D01*
X101476142Y-74235000D01*
X101548530Y-74249399D01*
X101620918Y-74235000D01*
X102743285Y-74235000D01*
X102528034Y-74557146D01*
X102462180Y-74888218D01*
X102462180Y-74985397D01*
X102439945Y-75097180D01*
X102462180Y-75208962D01*
X102462180Y-75208963D01*
X102528034Y-75540035D01*
X102778891Y-75915469D01*
X102873661Y-75978792D01*
X104776476Y-77881608D01*
X105057145Y-78069146D01*
X105500000Y-78157235D01*
X105942854Y-78069146D01*
X106318288Y-77818288D01*
X106569146Y-77442854D01*
X106657235Y-77000000D01*
X106569146Y-76557145D01*
X106381608Y-76276476D01*
X104667332Y-74562200D01*
X104666326Y-74557145D01*
X104451076Y-74235000D01*
X107195554Y-74235000D01*
X110565000Y-77604447D01*
X110565000Y-77685983D01*
X110707345Y-78029635D01*
X110970365Y-78292655D01*
X111314017Y-78435000D01*
X111685983Y-78435000D01*
X112029635Y-78292655D01*
X112292655Y-78029635D01*
X112435000Y-77685983D01*
X112435000Y-77314017D01*
X112292655Y-76970365D01*
X112029635Y-76707345D01*
X111685983Y-76565000D01*
X111604447Y-76565000D01*
X108070911Y-73031465D01*
X108029905Y-72970095D01*
X107786783Y-72807646D01*
X107572388Y-72765000D01*
X107572384Y-72765000D01*
X107500000Y-72750602D01*
X107427616Y-72765000D01*
X102057290Y-72765000D01*
X102292655Y-72529635D01*
X102435000Y-72185983D01*
X102435000Y-71814017D01*
X102292655Y-71470365D01*
X102235000Y-71412710D01*
X102235000Y-70987290D01*
X102292655Y-70929635D01*
X102435000Y-70585983D01*
X102435000Y-70214017D01*
X102395801Y-70119382D01*
X102487521Y-70027661D01*
X102618392Y-70223523D01*
G36*
X150512385Y-72009167D02*
X150261920Y-72216526D01*
X150035408Y-72644719D01*
X150031538Y-72682391D01*
X150156269Y-72873000D01*
X151373000Y-72873000D01*
X151373000Y-72853000D01*
X151627000Y-72853000D01*
X151627000Y-72873000D01*
X151647000Y-72873000D01*
X151647000Y-73127000D01*
X151627000Y-73127000D01*
X151627000Y-73147000D01*
X151373000Y-73147000D01*
X151373000Y-73127000D01*
X150156269Y-73127000D01*
X150031538Y-73317609D01*
X150035408Y-73355281D01*
X150261920Y-73783474D01*
X150407347Y-73903873D01*
X150240414Y-74015414D01*
X150045873Y-74306564D01*
X149977560Y-74649999D01*
X149977560Y-75350001D01*
X150045873Y-75693436D01*
X150240414Y-75984586D01*
X150531564Y-76179127D01*
X150874999Y-76247440D01*
X151940011Y-76247440D01*
X151940011Y-79273628D01*
X151896636Y-79265000D01*
X151103364Y-79265000D01*
X150743127Y-79336656D01*
X150334615Y-79609615D01*
X150061656Y-80018127D01*
X149965805Y-80500000D01*
X150047889Y-80912664D01*
X149395554Y-81565000D01*
X149314017Y-81565000D01*
X148970365Y-81707345D01*
X148707345Y-81970365D01*
X148565000Y-82314017D01*
X148565000Y-82565000D01*
X119992453Y-82565000D01*
X119662453Y-82235000D01*
X132993316Y-82235000D01*
X133065700Y-82249398D01*
X133138084Y-82235000D01*
X133138088Y-82235000D01*
X133352483Y-82192354D01*
X133595605Y-82029905D01*
X133636611Y-81968535D01*
X140168732Y-75436415D01*
X140207345Y-75529635D01*
X140470365Y-75792655D01*
X140814017Y-75935000D01*
X141185983Y-75935000D01*
X141529635Y-75792655D01*
X141587290Y-75735000D01*
X143730790Y-75735000D01*
X143834615Y-75890385D01*
X143881074Y-75921428D01*
X143740414Y-76015414D01*
X143545873Y-76306564D01*
X143477560Y-76649999D01*
X143477560Y-77350001D01*
X143545873Y-77693436D01*
X143740414Y-77984586D01*
X144031564Y-78179127D01*
X144374999Y-78247440D01*
X145625001Y-78247440D01*
X145968436Y-78179127D01*
X146259586Y-77984586D01*
X146454127Y-77693436D01*
X146522440Y-77350001D01*
X146522440Y-76649999D01*
X146454127Y-76306564D01*
X146259586Y-76015414D01*
X146118926Y-75921428D01*
X146165385Y-75890385D01*
X146438344Y-75481873D01*
X146534195Y-75000000D01*
X146438344Y-74518127D01*
X146165385Y-74109615D01*
X145756873Y-73836656D01*
X145396636Y-73765000D01*
X144603364Y-73765000D01*
X144243127Y-73836656D01*
X143834615Y-74109615D01*
X143730790Y-74265000D01*
X141587290Y-74265000D01*
X141529635Y-74207345D01*
X141436415Y-74168732D01*
X142370147Y-73235000D01*
X148852616Y-73235000D01*
X148925000Y-73249398D01*
X148997384Y-73235000D01*
X148997388Y-73235000D01*
X149211783Y-73192354D01*
X149454905Y-73029905D01*
X149495911Y-72968535D01*
X150478153Y-71986294D01*
X150512385Y-72009167D01*
X150512385Y-72009167D01*
G37*
X150512385Y-72009167D02*
X150261920Y-72216526D01*
X150035408Y-72644719D01*
X150031538Y-72682391D01*
X150156269Y-72873000D01*
X151373000Y-72873000D01*
X151373000Y-72853000D01*
X151627000Y-72853000D01*
X151627000Y-72873000D01*
X151647000Y-72873000D01*
X151647000Y-73127000D01*
X151627000Y-73127000D01*
X151627000Y-73147000D01*
X151373000Y-73147000D01*
X151373000Y-73127000D01*
X150156269Y-73127000D01*
X150031538Y-73317609D01*
X150035408Y-73355281D01*
X150261920Y-73783474D01*
X150407347Y-73903873D01*
X150240414Y-74015414D01*
X150045873Y-74306564D01*
X149977560Y-74649999D01*
X149977560Y-75350001D01*
X150045873Y-75693436D01*
X150240414Y-75984586D01*
X150531564Y-76179127D01*
X150874999Y-76247440D01*
X151940011Y-76247440D01*
X151940011Y-79273628D01*
X151896636Y-79265000D01*
X151103364Y-79265000D01*
X150743127Y-79336656D01*
X150334615Y-79609615D01*
X150061656Y-80018127D01*
X149965805Y-80500000D01*
X150047889Y-80912664D01*
X149395554Y-81565000D01*
X149314017Y-81565000D01*
X148970365Y-81707345D01*
X148707345Y-81970365D01*
X148565000Y-82314017D01*
X148565000Y-82565000D01*
X119992453Y-82565000D01*
X119662453Y-82235000D01*
X132993316Y-82235000D01*
X133065700Y-82249398D01*
X133138084Y-82235000D01*
X133138088Y-82235000D01*
X133352483Y-82192354D01*
X133595605Y-82029905D01*
X133636611Y-81968535D01*
X140168732Y-75436415D01*
X140207345Y-75529635D01*
X140470365Y-75792655D01*
X140814017Y-75935000D01*
X141185983Y-75935000D01*
X141529635Y-75792655D01*
X141587290Y-75735000D01*
X143730790Y-75735000D01*
X143834615Y-75890385D01*
X143881074Y-75921428D01*
X143740414Y-76015414D01*
X143545873Y-76306564D01*
X143477560Y-76649999D01*
X143477560Y-77350001D01*
X143545873Y-77693436D01*
X143740414Y-77984586D01*
X144031564Y-78179127D01*
X144374999Y-78247440D01*
X145625001Y-78247440D01*
X145968436Y-78179127D01*
X146259586Y-77984586D01*
X146454127Y-77693436D01*
X146522440Y-77350001D01*
X146522440Y-76649999D01*
X146454127Y-76306564D01*
X146259586Y-76015414D01*
X146118926Y-75921428D01*
X146165385Y-75890385D01*
X146438344Y-75481873D01*
X146534195Y-75000000D01*
X146438344Y-74518127D01*
X146165385Y-74109615D01*
X145756873Y-73836656D01*
X145396636Y-73765000D01*
X144603364Y-73765000D01*
X144243127Y-73836656D01*
X143834615Y-74109615D01*
X143730790Y-74265000D01*
X141587290Y-74265000D01*
X141529635Y-74207345D01*
X141436415Y-74168732D01*
X142370147Y-73235000D01*
X148852616Y-73235000D01*
X148925000Y-73249398D01*
X148997384Y-73235000D01*
X148997388Y-73235000D01*
X149211783Y-73192354D01*
X149454905Y-73029905D01*
X149495911Y-72968535D01*
X150478153Y-71986294D01*
X150512385Y-72009167D01*
G36*
X124881910Y-66314747D02*
X125044359Y-66557870D01*
X125105729Y-66598876D01*
X126675399Y-68168547D01*
X126716404Y-68229915D01*
X126959526Y-68392364D01*
X127173921Y-68435010D01*
X127246309Y-68449409D01*
X127318697Y-68435010D01*
X132395564Y-68435010D01*
X136065000Y-72104447D01*
X136065000Y-72185983D01*
X136207345Y-72529635D01*
X136470365Y-72792655D01*
X136814017Y-72935000D01*
X137185983Y-72935000D01*
X137529635Y-72792655D01*
X137792655Y-72529635D01*
X137935000Y-72185983D01*
X137935000Y-71814017D01*
X137792655Y-71470365D01*
X137529635Y-71207345D01*
X137185983Y-71065000D01*
X137104447Y-71065000D01*
X134074446Y-68035000D01*
X143500435Y-68035000D01*
X143477560Y-68149999D01*
X143477560Y-68850001D01*
X143545873Y-69193436D01*
X143740414Y-69484586D01*
X144031564Y-69679127D01*
X144374999Y-69747440D01*
X144872416Y-69747440D01*
X144754866Y-69864990D01*
X141340996Y-69864990D01*
X141268612Y-69850592D01*
X141196228Y-69864990D01*
X141196225Y-69864990D01*
X140981830Y-69907636D01*
X140738708Y-70070085D01*
X140697704Y-70131452D01*
X131964167Y-78864990D01*
X121113750Y-78864990D01*
X117898759Y-75649999D01*
X129477560Y-75649999D01*
X129477560Y-76350001D01*
X129545873Y-76693436D01*
X129740414Y-76984586D01*
X130031564Y-77179127D01*
X130374999Y-77247440D01*
X131625001Y-77247440D01*
X131968436Y-77179127D01*
X132259586Y-76984586D01*
X132454127Y-76693436D01*
X132522440Y-76350001D01*
X132522440Y-75649999D01*
X132454127Y-75306564D01*
X132259586Y-75015414D01*
X132092653Y-74903873D01*
X132238080Y-74783474D01*
X132464592Y-74355281D01*
X132468462Y-74317609D01*
X132343731Y-74127000D01*
X131127000Y-74127000D01*
X131127000Y-74147000D01*
X130873000Y-74147000D01*
X130873000Y-74127000D01*
X129656269Y-74127000D01*
X129531538Y-74317609D01*
X129535408Y-74355281D01*
X129761920Y-74783474D01*
X129907347Y-74903873D01*
X129740414Y-75015414D01*
X129545873Y-75306564D01*
X129477560Y-75649999D01*
X117898759Y-75649999D01*
X116683760Y-74435000D01*
X116685983Y-74435000D01*
X117029635Y-74292655D01*
X117292655Y-74029635D01*
X117435000Y-73685983D01*
X117435000Y-73314017D01*
X117292655Y-72970365D01*
X117236867Y-72914577D01*
X120151444Y-70000000D01*
X129465805Y-70000000D01*
X129561656Y-70481873D01*
X129834615Y-70890385D01*
X129998665Y-71000000D01*
X129834615Y-71109615D01*
X129561656Y-71518127D01*
X129465805Y-72000000D01*
X129561656Y-72481873D01*
X129834615Y-72890385D01*
X130012385Y-73009167D01*
X129761920Y-73216526D01*
X129535408Y-73644719D01*
X129531538Y-73682391D01*
X129656269Y-73873000D01*
X130873000Y-73873000D01*
X130873000Y-73853000D01*
X131127000Y-73853000D01*
X131127000Y-73873000D01*
X132343731Y-73873000D01*
X132468462Y-73682391D01*
X132464592Y-73644719D01*
X132238080Y-73216526D01*
X131987615Y-73009167D01*
X132165385Y-72890385D01*
X132438344Y-72481873D01*
X132534195Y-72000000D01*
X132438344Y-71518127D01*
X132165385Y-71109615D01*
X132001335Y-71000000D01*
X132165385Y-70890385D01*
X132438344Y-70481873D01*
X132534195Y-70000000D01*
X132438344Y-69518127D01*
X132165385Y-69109615D01*
X131756873Y-68836656D01*
X131396636Y-68765000D01*
X130603364Y-68765000D01*
X130243127Y-68836656D01*
X129834615Y-69109615D01*
X129561656Y-69518127D01*
X129465805Y-70000000D01*
X120151444Y-70000000D01*
X123803601Y-66347844D01*
X124014016Y-66435001D01*
X124385982Y-66435001D01*
X124729634Y-66292656D01*
X124852981Y-66169309D01*
X124881910Y-66314747D01*
X124881910Y-66314747D01*
G37*
X124881910Y-66314747D02*
X125044359Y-66557870D01*
X125105729Y-66598876D01*
X126675399Y-68168547D01*
X126716404Y-68229915D01*
X126959526Y-68392364D01*
X127173921Y-68435010D01*
X127246309Y-68449409D01*
X127318697Y-68435010D01*
X132395564Y-68435010D01*
X136065000Y-72104447D01*
X136065000Y-72185983D01*
X136207345Y-72529635D01*
X136470365Y-72792655D01*
X136814017Y-72935000D01*
X137185983Y-72935000D01*
X137529635Y-72792655D01*
X137792655Y-72529635D01*
X137935000Y-72185983D01*
X137935000Y-71814017D01*
X137792655Y-71470365D01*
X137529635Y-71207345D01*
X137185983Y-71065000D01*
X137104447Y-71065000D01*
X134074446Y-68035000D01*
X143500435Y-68035000D01*
X143477560Y-68149999D01*
X143477560Y-68850001D01*
X143545873Y-69193436D01*
X143740414Y-69484586D01*
X144031564Y-69679127D01*
X144374999Y-69747440D01*
X144872416Y-69747440D01*
X144754866Y-69864990D01*
X141340996Y-69864990D01*
X141268612Y-69850592D01*
X141196228Y-69864990D01*
X141196225Y-69864990D01*
X140981830Y-69907636D01*
X140738708Y-70070085D01*
X140697704Y-70131452D01*
X131964167Y-78864990D01*
X121113750Y-78864990D01*
X117898759Y-75649999D01*
X129477560Y-75649999D01*
X129477560Y-76350001D01*
X129545873Y-76693436D01*
X129740414Y-76984586D01*
X130031564Y-77179127D01*
X130374999Y-77247440D01*
X131625001Y-77247440D01*
X131968436Y-77179127D01*
X132259586Y-76984586D01*
X132454127Y-76693436D01*
X132522440Y-76350001D01*
X132522440Y-75649999D01*
X132454127Y-75306564D01*
X132259586Y-75015414D01*
X132092653Y-74903873D01*
X132238080Y-74783474D01*
X132464592Y-74355281D01*
X132468462Y-74317609D01*
X132343731Y-74127000D01*
X131127000Y-74127000D01*
X131127000Y-74147000D01*
X130873000Y-74147000D01*
X130873000Y-74127000D01*
X129656269Y-74127000D01*
X129531538Y-74317609D01*
X129535408Y-74355281D01*
X129761920Y-74783474D01*
X129907347Y-74903873D01*
X129740414Y-75015414D01*
X129545873Y-75306564D01*
X129477560Y-75649999D01*
X117898759Y-75649999D01*
X116683760Y-74435000D01*
X116685983Y-74435000D01*
X117029635Y-74292655D01*
X117292655Y-74029635D01*
X117435000Y-73685983D01*
X117435000Y-73314017D01*
X117292655Y-72970365D01*
X117236867Y-72914577D01*
X120151444Y-70000000D01*
X129465805Y-70000000D01*
X129561656Y-70481873D01*
X129834615Y-70890385D01*
X129998665Y-71000000D01*
X129834615Y-71109615D01*
X129561656Y-71518127D01*
X129465805Y-72000000D01*
X129561656Y-72481873D01*
X129834615Y-72890385D01*
X130012385Y-73009167D01*
X129761920Y-73216526D01*
X129535408Y-73644719D01*
X129531538Y-73682391D01*
X129656269Y-73873000D01*
X130873000Y-73873000D01*
X130873000Y-73853000D01*
X131127000Y-73853000D01*
X131127000Y-73873000D01*
X132343731Y-73873000D01*
X132468462Y-73682391D01*
X132464592Y-73644719D01*
X132238080Y-73216526D01*
X131987615Y-73009167D01*
X132165385Y-72890385D01*
X132438344Y-72481873D01*
X132534195Y-72000000D01*
X132438344Y-71518127D01*
X132165385Y-71109615D01*
X132001335Y-71000000D01*
X132165385Y-70890385D01*
X132438344Y-70481873D01*
X132534195Y-70000000D01*
X132438344Y-69518127D01*
X132165385Y-69109615D01*
X131756873Y-68836656D01*
X131396636Y-68765000D01*
X130603364Y-68765000D01*
X130243127Y-68836656D01*
X129834615Y-69109615D01*
X129561656Y-69518127D01*
X129465805Y-70000000D01*
X120151444Y-70000000D01*
X123803601Y-66347844D01*
X124014016Y-66435001D01*
X124385982Y-66435001D01*
X124729634Y-66292656D01*
X124852981Y-66169309D01*
X124881910Y-66314747D01*
G36*
X81864980Y-74644972D02*
X81792655Y-74470365D01*
X81529635Y-74207345D01*
X81185983Y-74065000D01*
X80814017Y-74065000D01*
X80470365Y-74207345D01*
X80207345Y-74470365D01*
X80107345Y-74711787D01*
X76954132Y-77865001D01*
X72674445Y-77865001D01*
X77362446Y-73177001D01*
X80485615Y-73177001D01*
X80557999Y-73191399D01*
X80630383Y-73177001D01*
X80630387Y-73177001D01*
X80844782Y-73134355D01*
X81087904Y-72971906D01*
X81128910Y-72910536D01*
X81864980Y-72174467D01*
X81864980Y-74644972D01*
X81864980Y-74644972D01*
G37*
X81864980Y-74644972D02*
X81792655Y-74470365D01*
X81529635Y-74207345D01*
X81185983Y-74065000D01*
X80814017Y-74065000D01*
X80470365Y-74207345D01*
X80207345Y-74470365D01*
X80107345Y-74711787D01*
X76954132Y-77865001D01*
X72674445Y-77865001D01*
X77362446Y-73177001D01*
X80485615Y-73177001D01*
X80557999Y-73191399D01*
X80630383Y-73177001D01*
X80630387Y-73177001D01*
X80844782Y-73134355D01*
X81087904Y-72971906D01*
X81128910Y-72910536D01*
X81864980Y-72174467D01*
X81864980Y-74644972D01*
G36*
X93322734Y-66570898D02*
X93322734Y-66684262D01*
X93265381Y-66770097D01*
X93222735Y-66984492D01*
X93222735Y-66984496D01*
X93208337Y-67056880D01*
X93222735Y-67129264D01*
X93222735Y-67172119D01*
X90735000Y-69659855D01*
X90735000Y-68721584D01*
X93021584Y-66435001D01*
X93379024Y-66435001D01*
X93322734Y-66570898D01*
X93322734Y-66570898D01*
G37*
X93322734Y-66570898D02*
X93322734Y-66684262D01*
X93265381Y-66770097D01*
X93222735Y-66984492D01*
X93222735Y-66984496D01*
X93208337Y-67056880D01*
X93222735Y-67129264D01*
X93222735Y-67172119D01*
X90735000Y-69659855D01*
X90735000Y-68721584D01*
X93021584Y-66435001D01*
X93379024Y-66435001D01*
X93322734Y-66570898D01*
G36*
X143354090Y-49968537D02*
X143395095Y-50029905D01*
X143638217Y-50192354D01*
X143712117Y-50207054D01*
X143834615Y-50390385D01*
X143881074Y-50421428D01*
X143740414Y-50515414D01*
X143545873Y-50806564D01*
X143477560Y-51149999D01*
X143477560Y-51850001D01*
X143545873Y-52193436D01*
X143740414Y-52484586D01*
X144031564Y-52679127D01*
X144374999Y-52747440D01*
X144713113Y-52747440D01*
X137531465Y-59929089D01*
X137470095Y-59970095D01*
X137307646Y-60213218D01*
X137265000Y-60427613D01*
X137265000Y-60427616D01*
X137250602Y-60500000D01*
X137265000Y-60572385D01*
X137265001Y-62832305D01*
X137243127Y-62836656D01*
X136834615Y-63109615D01*
X136561656Y-63518127D01*
X136465805Y-64000000D01*
X136561656Y-64481873D01*
X136834615Y-64890385D01*
X136881074Y-64921428D01*
X136740414Y-65015414D01*
X136545873Y-65306564D01*
X136477560Y-65649999D01*
X136477560Y-66350001D01*
X136520326Y-66565000D01*
X127716445Y-66565000D01*
X127511132Y-66359688D01*
X127566920Y-66303900D01*
X127709265Y-65960248D01*
X127709265Y-65830181D01*
X129104447Y-64435000D01*
X129185983Y-64435000D01*
X129477560Y-64314225D01*
X129477560Y-64350001D01*
X129545873Y-64693436D01*
X129740414Y-64984586D01*
X130031564Y-65179127D01*
X130374999Y-65247440D01*
X131625001Y-65247440D01*
X131968436Y-65179127D01*
X132259586Y-64984586D01*
X132454127Y-64693436D01*
X132522440Y-64350001D01*
X132522440Y-63649999D01*
X132454127Y-63306564D01*
X132259586Y-63015414D01*
X132092653Y-62903873D01*
X132238080Y-62783474D01*
X132464592Y-62355281D01*
X132468462Y-62317609D01*
X132343731Y-62127000D01*
X131127000Y-62127000D01*
X131127000Y-62147000D01*
X130873000Y-62147000D01*
X130873000Y-62127000D01*
X129656269Y-62127000D01*
X129531538Y-62317609D01*
X129535408Y-62355281D01*
X129761920Y-62783474D01*
X129907347Y-62903873D01*
X129795945Y-62978309D01*
X129792655Y-62970365D01*
X129529635Y-62707345D01*
X129185983Y-62565000D01*
X128814017Y-62565000D01*
X128470365Y-62707345D01*
X128207345Y-62970365D01*
X128065000Y-63314017D01*
X128065000Y-63395553D01*
X126909264Y-64551290D01*
X126909264Y-64251261D01*
X127130890Y-64029635D01*
X127273235Y-63685983D01*
X127273235Y-63314017D01*
X127130890Y-62970365D01*
X126867870Y-62707345D01*
X126524218Y-62565000D01*
X126152252Y-62565000D01*
X125808600Y-62707345D01*
X125750945Y-62765000D01*
X123304447Y-62765000D01*
X122435000Y-61895554D01*
X122435000Y-61814017D01*
X122402270Y-61735000D01*
X129565964Y-61735000D01*
X129656269Y-61873000D01*
X130873000Y-61873000D01*
X130873000Y-61853000D01*
X131127000Y-61853000D01*
X131127000Y-61873000D01*
X132343731Y-61873000D01*
X132434036Y-61735000D01*
X134427616Y-61735000D01*
X134500000Y-61749398D01*
X134572384Y-61735000D01*
X134572388Y-61735000D01*
X134786783Y-61692354D01*
X135029905Y-61529905D01*
X135070911Y-61468535D01*
X141468538Y-55070909D01*
X141529905Y-55029905D01*
X141692354Y-54786783D01*
X141735000Y-54572388D01*
X141735000Y-54572385D01*
X141749398Y-54500001D01*
X141735000Y-54427617D01*
X141735000Y-52072384D01*
X141749398Y-52000000D01*
X141735000Y-51927616D01*
X141735000Y-51927612D01*
X141692354Y-51713217D01*
X141529905Y-51470095D01*
X141468538Y-51429091D01*
X141344329Y-51304882D01*
X141435000Y-51085983D01*
X141435000Y-50714017D01*
X141292655Y-50370365D01*
X141029635Y-50107345D01*
X140685983Y-49965000D01*
X140604447Y-49965000D01*
X139670911Y-49031465D01*
X139629905Y-48970095D01*
X139386783Y-48807646D01*
X139284051Y-48787211D01*
X139165385Y-48609615D01*
X138756873Y-48336656D01*
X138396636Y-48265000D01*
X137603364Y-48265000D01*
X137243127Y-48336656D01*
X136834615Y-48609615D01*
X136561656Y-49018127D01*
X136465805Y-49500000D01*
X136561656Y-49981873D01*
X136834615Y-50390385D01*
X136998665Y-50500000D01*
X136834615Y-50609615D01*
X136561656Y-51018127D01*
X136465805Y-51500000D01*
X136561656Y-51981873D01*
X136834615Y-52390385D01*
X137012385Y-52509167D01*
X136761920Y-52716526D01*
X136535408Y-53144719D01*
X136531538Y-53182391D01*
X136656269Y-53373000D01*
X137873000Y-53373000D01*
X137873000Y-53353000D01*
X138127000Y-53353000D01*
X138127000Y-53373000D01*
X138147000Y-53373000D01*
X138147000Y-53627000D01*
X138127000Y-53627000D01*
X138127000Y-53647000D01*
X137873000Y-53647000D01*
X137873000Y-53627000D01*
X136656269Y-53627000D01*
X136531538Y-53817609D01*
X136535408Y-53855281D01*
X136640742Y-54054402D01*
X136617271Y-54070085D01*
X136576265Y-54131455D01*
X136356455Y-54351265D01*
X136295085Y-54392271D01*
X136132636Y-54635394D01*
X136089990Y-54849789D01*
X136089990Y-54849792D01*
X136084832Y-54875721D01*
X132273903Y-58686651D01*
X132218707Y-58631455D01*
X132177701Y-58570085D01*
X131934579Y-58407636D01*
X131720184Y-58364990D01*
X131720180Y-58364990D01*
X131647796Y-58350592D01*
X131575412Y-58364990D01*
X130424587Y-58364990D01*
X130352203Y-58350592D01*
X130279819Y-58364990D01*
X130279816Y-58364990D01*
X130065421Y-58407636D01*
X129822299Y-58570085D01*
X129781294Y-58631453D01*
X129422748Y-58990000D01*
X127764607Y-58990000D01*
X127730890Y-58908600D01*
X127467870Y-58645580D01*
X127235000Y-58549122D01*
X127235000Y-50786621D01*
X127342364Y-50625939D01*
X127385010Y-50411544D01*
X127385010Y-50411541D01*
X127399408Y-50339157D01*
X127385010Y-50266773D01*
X127385010Y-47417683D01*
X127441906Y-47379666D01*
X127604355Y-47136544D01*
X127647001Y-46922149D01*
X127647001Y-46922146D01*
X127661399Y-46849762D01*
X127647001Y-46777378D01*
X127647001Y-46392445D01*
X128804447Y-45235000D01*
X131865000Y-45235000D01*
X131865000Y-45536046D01*
X131865001Y-45536051D01*
X131865001Y-48408905D01*
X131756873Y-48336656D01*
X131396636Y-48265000D01*
X130603364Y-48265000D01*
X130243127Y-48336656D01*
X129834615Y-48609615D01*
X129561656Y-49018127D01*
X129465805Y-49500000D01*
X129561656Y-49981873D01*
X129834615Y-50390385D01*
X130012385Y-50509167D01*
X129761920Y-50716526D01*
X129535408Y-51144719D01*
X129531538Y-51182391D01*
X129656269Y-51373000D01*
X130873000Y-51373000D01*
X130873000Y-51353000D01*
X131127000Y-51353000D01*
X131127000Y-51373000D01*
X131147000Y-51373000D01*
X131147000Y-51627000D01*
X131127000Y-51627000D01*
X131127000Y-51647000D01*
X130873000Y-51647000D01*
X130873000Y-51627000D01*
X129656269Y-51627000D01*
X129531538Y-51817609D01*
X129535408Y-51855281D01*
X129761920Y-52283474D01*
X129907347Y-52403873D01*
X129740414Y-52515414D01*
X129545873Y-52806564D01*
X129477560Y-53149999D01*
X129477560Y-53850001D01*
X129545873Y-54193436D01*
X129740414Y-54484586D01*
X130031564Y-54679127D01*
X130374999Y-54747440D01*
X131625001Y-54747440D01*
X131968436Y-54679127D01*
X132012305Y-54649815D01*
X132086783Y-54635000D01*
X132417855Y-54569146D01*
X132793289Y-54318289D01*
X132856613Y-54223519D01*
X133723521Y-53356611D01*
X133818289Y-53293289D01*
X134069146Y-52917855D01*
X134095074Y-52787508D01*
X134157235Y-52475000D01*
X134135000Y-52363217D01*
X134135000Y-44934989D01*
X138320543Y-44934989D01*
X143354090Y-49968537D01*
X143354090Y-49968537D01*
G37*
X143354090Y-49968537D02*
X143395095Y-50029905D01*
X143638217Y-50192354D01*
X143712117Y-50207054D01*
X143834615Y-50390385D01*
X143881074Y-50421428D01*
X143740414Y-50515414D01*
X143545873Y-50806564D01*
X143477560Y-51149999D01*
X143477560Y-51850001D01*
X143545873Y-52193436D01*
X143740414Y-52484586D01*
X144031564Y-52679127D01*
X144374999Y-52747440D01*
X144713113Y-52747440D01*
X137531465Y-59929089D01*
X137470095Y-59970095D01*
X137307646Y-60213218D01*
X137265000Y-60427613D01*
X137265000Y-60427616D01*
X137250602Y-60500000D01*
X137265000Y-60572385D01*
X137265001Y-62832305D01*
X137243127Y-62836656D01*
X136834615Y-63109615D01*
X136561656Y-63518127D01*
X136465805Y-64000000D01*
X136561656Y-64481873D01*
X136834615Y-64890385D01*
X136881074Y-64921428D01*
X136740414Y-65015414D01*
X136545873Y-65306564D01*
X136477560Y-65649999D01*
X136477560Y-66350001D01*
X136520326Y-66565000D01*
X127716445Y-66565000D01*
X127511132Y-66359688D01*
X127566920Y-66303900D01*
X127709265Y-65960248D01*
X127709265Y-65830181D01*
X129104447Y-64435000D01*
X129185983Y-64435000D01*
X129477560Y-64314225D01*
X129477560Y-64350001D01*
X129545873Y-64693436D01*
X129740414Y-64984586D01*
X130031564Y-65179127D01*
X130374999Y-65247440D01*
X131625001Y-65247440D01*
X131968436Y-65179127D01*
X132259586Y-64984586D01*
X132454127Y-64693436D01*
X132522440Y-64350001D01*
X132522440Y-63649999D01*
X132454127Y-63306564D01*
X132259586Y-63015414D01*
X132092653Y-62903873D01*
X132238080Y-62783474D01*
X132464592Y-62355281D01*
X132468462Y-62317609D01*
X132343731Y-62127000D01*
X131127000Y-62127000D01*
X131127000Y-62147000D01*
X130873000Y-62147000D01*
X130873000Y-62127000D01*
X129656269Y-62127000D01*
X129531538Y-62317609D01*
X129535408Y-62355281D01*
X129761920Y-62783474D01*
X129907347Y-62903873D01*
X129795945Y-62978309D01*
X129792655Y-62970365D01*
X129529635Y-62707345D01*
X129185983Y-62565000D01*
X128814017Y-62565000D01*
X128470365Y-62707345D01*
X128207345Y-62970365D01*
X128065000Y-63314017D01*
X128065000Y-63395553D01*
X126909264Y-64551290D01*
X126909264Y-64251261D01*
X127130890Y-64029635D01*
X127273235Y-63685983D01*
X127273235Y-63314017D01*
X127130890Y-62970365D01*
X126867870Y-62707345D01*
X126524218Y-62565000D01*
X126152252Y-62565000D01*
X125808600Y-62707345D01*
X125750945Y-62765000D01*
X123304447Y-62765000D01*
X122435000Y-61895554D01*
X122435000Y-61814017D01*
X122402270Y-61735000D01*
X129565964Y-61735000D01*
X129656269Y-61873000D01*
X130873000Y-61873000D01*
X130873000Y-61853000D01*
X131127000Y-61853000D01*
X131127000Y-61873000D01*
X132343731Y-61873000D01*
X132434036Y-61735000D01*
X134427616Y-61735000D01*
X134500000Y-61749398D01*
X134572384Y-61735000D01*
X134572388Y-61735000D01*
X134786783Y-61692354D01*
X135029905Y-61529905D01*
X135070911Y-61468535D01*
X141468538Y-55070909D01*
X141529905Y-55029905D01*
X141692354Y-54786783D01*
X141735000Y-54572388D01*
X141735000Y-54572385D01*
X141749398Y-54500001D01*
X141735000Y-54427617D01*
X141735000Y-52072384D01*
X141749398Y-52000000D01*
X141735000Y-51927616D01*
X141735000Y-51927612D01*
X141692354Y-51713217D01*
X141529905Y-51470095D01*
X141468538Y-51429091D01*
X141344329Y-51304882D01*
X141435000Y-51085983D01*
X141435000Y-50714017D01*
X141292655Y-50370365D01*
X141029635Y-50107345D01*
X140685983Y-49965000D01*
X140604447Y-49965000D01*
X139670911Y-49031465D01*
X139629905Y-48970095D01*
X139386783Y-48807646D01*
X139284051Y-48787211D01*
X139165385Y-48609615D01*
X138756873Y-48336656D01*
X138396636Y-48265000D01*
X137603364Y-48265000D01*
X137243127Y-48336656D01*
X136834615Y-48609615D01*
X136561656Y-49018127D01*
X136465805Y-49500000D01*
X136561656Y-49981873D01*
X136834615Y-50390385D01*
X136998665Y-50500000D01*
X136834615Y-50609615D01*
X136561656Y-51018127D01*
X136465805Y-51500000D01*
X136561656Y-51981873D01*
X136834615Y-52390385D01*
X137012385Y-52509167D01*
X136761920Y-52716526D01*
X136535408Y-53144719D01*
X136531538Y-53182391D01*
X136656269Y-53373000D01*
X137873000Y-53373000D01*
X137873000Y-53353000D01*
X138127000Y-53353000D01*
X138127000Y-53373000D01*
X138147000Y-53373000D01*
X138147000Y-53627000D01*
X138127000Y-53627000D01*
X138127000Y-53647000D01*
X137873000Y-53647000D01*
X137873000Y-53627000D01*
X136656269Y-53627000D01*
X136531538Y-53817609D01*
X136535408Y-53855281D01*
X136640742Y-54054402D01*
X136617271Y-54070085D01*
X136576265Y-54131455D01*
X136356455Y-54351265D01*
X136295085Y-54392271D01*
X136132636Y-54635394D01*
X136089990Y-54849789D01*
X136089990Y-54849792D01*
X136084832Y-54875721D01*
X132273903Y-58686651D01*
X132218707Y-58631455D01*
X132177701Y-58570085D01*
X131934579Y-58407636D01*
X131720184Y-58364990D01*
X131720180Y-58364990D01*
X131647796Y-58350592D01*
X131575412Y-58364990D01*
X130424587Y-58364990D01*
X130352203Y-58350592D01*
X130279819Y-58364990D01*
X130279816Y-58364990D01*
X130065421Y-58407636D01*
X129822299Y-58570085D01*
X129781294Y-58631453D01*
X129422748Y-58990000D01*
X127764607Y-58990000D01*
X127730890Y-58908600D01*
X127467870Y-58645580D01*
X127235000Y-58549122D01*
X127235000Y-50786621D01*
X127342364Y-50625939D01*
X127385010Y-50411544D01*
X127385010Y-50411541D01*
X127399408Y-50339157D01*
X127385010Y-50266773D01*
X127385010Y-47417683D01*
X127441906Y-47379666D01*
X127604355Y-47136544D01*
X127647001Y-46922149D01*
X127647001Y-46922146D01*
X127661399Y-46849762D01*
X127647001Y-46777378D01*
X127647001Y-46392445D01*
X128804447Y-45235000D01*
X131865000Y-45235000D01*
X131865000Y-45536046D01*
X131865001Y-45536051D01*
X131865001Y-48408905D01*
X131756873Y-48336656D01*
X131396636Y-48265000D01*
X130603364Y-48265000D01*
X130243127Y-48336656D01*
X129834615Y-48609615D01*
X129561656Y-49018127D01*
X129465805Y-49500000D01*
X129561656Y-49981873D01*
X129834615Y-50390385D01*
X130012385Y-50509167D01*
X129761920Y-50716526D01*
X129535408Y-51144719D01*
X129531538Y-51182391D01*
X129656269Y-51373000D01*
X130873000Y-51373000D01*
X130873000Y-51353000D01*
X131127000Y-51353000D01*
X131127000Y-51373000D01*
X131147000Y-51373000D01*
X131147000Y-51627000D01*
X131127000Y-51627000D01*
X131127000Y-51647000D01*
X130873000Y-51647000D01*
X130873000Y-51627000D01*
X129656269Y-51627000D01*
X129531538Y-51817609D01*
X129535408Y-51855281D01*
X129761920Y-52283474D01*
X129907347Y-52403873D01*
X129740414Y-52515414D01*
X129545873Y-52806564D01*
X129477560Y-53149999D01*
X129477560Y-53850001D01*
X129545873Y-54193436D01*
X129740414Y-54484586D01*
X130031564Y-54679127D01*
X130374999Y-54747440D01*
X131625001Y-54747440D01*
X131968436Y-54679127D01*
X132012305Y-54649815D01*
X132086783Y-54635000D01*
X132417855Y-54569146D01*
X132793289Y-54318289D01*
X132856613Y-54223519D01*
X133723521Y-53356611D01*
X133818289Y-53293289D01*
X134069146Y-52917855D01*
X134095074Y-52787508D01*
X134157235Y-52475000D01*
X134135000Y-52363217D01*
X134135000Y-44934989D01*
X138320543Y-44934989D01*
X143354090Y-49968537D01*
G36*
X99649392Y-45359787D02*
X100450000Y-46160395D01*
X101250608Y-45359787D01*
X101214816Y-45235000D01*
X113159867Y-45235000D01*
X110276480Y-48118389D01*
X110181712Y-48181711D01*
X109930854Y-48557145D01*
X109879759Y-48814017D01*
X109842765Y-49000000D01*
X109865000Y-49111783D01*
X109865000Y-50111782D01*
X109930854Y-50442854D01*
X110181711Y-50818289D01*
X110557145Y-51069146D01*
X111000000Y-51157235D01*
X111442854Y-51069146D01*
X111818289Y-50818289D01*
X112069146Y-50442855D01*
X112135000Y-50111783D01*
X112135000Y-49470131D01*
X115381608Y-46223525D01*
X115569145Y-45942855D01*
X115657235Y-45500001D01*
X115604523Y-45235000D01*
X122439343Y-45235000D01*
X122125680Y-45548663D01*
X121913000Y-46062119D01*
X121913000Y-46617881D01*
X122125680Y-47131337D01*
X122518663Y-47524320D01*
X123032119Y-47737000D01*
X123587881Y-47737000D01*
X124101337Y-47524320D01*
X124494320Y-47131337D01*
X124580000Y-46924487D01*
X124665680Y-47131337D01*
X124715000Y-47180657D01*
X124715001Y-49537649D01*
X121700367Y-52552284D01*
X121512829Y-52832953D01*
X121424740Y-53275807D01*
X121512829Y-53718661D01*
X121763687Y-54094095D01*
X122139121Y-54344953D01*
X122581975Y-54433042D01*
X123024829Y-54344953D01*
X123305498Y-54157415D01*
X125765000Y-51697914D01*
X125765001Y-58927611D01*
X125750602Y-59000000D01*
X125807646Y-59286782D01*
X125929091Y-59468537D01*
X125970096Y-59529905D01*
X126003235Y-59552048D01*
X126003235Y-59624218D01*
X126061549Y-59765000D01*
X121402270Y-59765000D01*
X121435000Y-59685983D01*
X121435000Y-59314017D01*
X121292655Y-58970365D01*
X121029635Y-58707345D01*
X120685983Y-58565000D01*
X120314017Y-58565000D01*
X119970365Y-58707345D01*
X119912710Y-58765000D01*
X111951665Y-58765000D01*
X110715723Y-57529059D01*
X110715723Y-57447522D01*
X110573378Y-57103870D01*
X110537326Y-57067818D01*
X116870145Y-50735000D01*
X116912710Y-50735000D01*
X116970365Y-50792655D01*
X117314017Y-50935000D01*
X117685983Y-50935000D01*
X118029635Y-50792655D01*
X118292655Y-50529635D01*
X118435000Y-50185983D01*
X118435000Y-49814017D01*
X118304930Y-49500000D01*
X118435000Y-49185983D01*
X118435000Y-48814017D01*
X118304930Y-48500000D01*
X118435000Y-48185983D01*
X118435000Y-47814017D01*
X118292655Y-47470365D01*
X118029635Y-47207345D01*
X117685983Y-47065000D01*
X117314017Y-47065000D01*
X116970365Y-47207345D01*
X116890204Y-47287506D01*
X116788953Y-47307646D01*
X116545831Y-47470095D01*
X116504827Y-47531462D01*
X107679290Y-56357000D01*
X107529635Y-56207345D01*
X107185983Y-56065000D01*
X106814017Y-56065000D01*
X106470365Y-56207345D01*
X106412710Y-56265000D01*
X106335000Y-56265000D01*
X106335000Y-56214017D01*
X106192655Y-55870365D01*
X105929635Y-55607345D01*
X105688213Y-55507345D01*
X103835000Y-53654133D01*
X103835000Y-52427405D01*
X103935000Y-52185983D01*
X103935000Y-52104446D01*
X104104447Y-51935000D01*
X104185983Y-51935000D01*
X104529635Y-51792655D01*
X104792655Y-51529635D01*
X104935000Y-51185983D01*
X104935000Y-50814017D01*
X104792655Y-50470365D01*
X104529635Y-50207345D01*
X104185983Y-50065000D01*
X103814017Y-50065000D01*
X103470365Y-50207345D01*
X103207345Y-50470365D01*
X103065000Y-50814017D01*
X103065000Y-50895553D01*
X102895554Y-51065000D01*
X102814017Y-51065000D01*
X102470365Y-51207345D01*
X102207345Y-51470365D01*
X102065000Y-51814017D01*
X102065000Y-52185983D01*
X102165001Y-52427407D01*
X102165000Y-53917767D01*
X102148643Y-54000000D01*
X102165000Y-54082233D01*
X102165000Y-54082236D01*
X102213448Y-54325800D01*
X102397999Y-54602001D01*
X102467720Y-54648587D01*
X104084132Y-56265000D01*
X103087290Y-56265000D01*
X103029635Y-56207345D01*
X102685983Y-56065000D01*
X102314017Y-56065000D01*
X101970365Y-56207345D01*
X101707345Y-56470365D01*
X101565000Y-56814017D01*
X101565000Y-57025553D01*
X98645000Y-54105554D01*
X98645000Y-47547656D01*
X98701337Y-47524320D01*
X98905444Y-47320213D01*
X99649392Y-47320213D01*
X99718857Y-47562397D01*
X100242302Y-47749144D01*
X100797368Y-47721362D01*
X101181143Y-47562397D01*
X101250608Y-47320213D01*
X100450000Y-46519605D01*
X99649392Y-47320213D01*
X98905444Y-47320213D01*
X99094320Y-47131337D01*
X99173428Y-46940353D01*
X99227603Y-47071143D01*
X99469787Y-47140608D01*
X100270395Y-46340000D01*
X100629605Y-46340000D01*
X101430213Y-47140608D01*
X101672397Y-47071143D01*
X101859144Y-46547698D01*
X101831362Y-45992632D01*
X101672397Y-45608857D01*
X101430213Y-45539392D01*
X100629605Y-46340000D01*
X100270395Y-46340000D01*
X99469787Y-45539392D01*
X99227603Y-45608857D01*
X99177465Y-45749393D01*
X99094320Y-45548663D01*
X98780657Y-45235000D01*
X99685184Y-45235000D01*
X99649392Y-45359787D01*
X99649392Y-45359787D01*
G37*
X99649392Y-45359787D02*
X100450000Y-46160395D01*
X101250608Y-45359787D01*
X101214816Y-45235000D01*
X113159867Y-45235000D01*
X110276480Y-48118389D01*
X110181712Y-48181711D01*
X109930854Y-48557145D01*
X109879759Y-48814017D01*
X109842765Y-49000000D01*
X109865000Y-49111783D01*
X109865000Y-50111782D01*
X109930854Y-50442854D01*
X110181711Y-50818289D01*
X110557145Y-51069146D01*
X111000000Y-51157235D01*
X111442854Y-51069146D01*
X111818289Y-50818289D01*
X112069146Y-50442855D01*
X112135000Y-50111783D01*
X112135000Y-49470131D01*
X115381608Y-46223525D01*
X115569145Y-45942855D01*
X115657235Y-45500001D01*
X115604523Y-45235000D01*
X122439343Y-45235000D01*
X122125680Y-45548663D01*
X121913000Y-46062119D01*
X121913000Y-46617881D01*
X122125680Y-47131337D01*
X122518663Y-47524320D01*
X123032119Y-47737000D01*
X123587881Y-47737000D01*
X124101337Y-47524320D01*
X124494320Y-47131337D01*
X124580000Y-46924487D01*
X124665680Y-47131337D01*
X124715000Y-47180657D01*
X124715001Y-49537649D01*
X121700367Y-52552284D01*
X121512829Y-52832953D01*
X121424740Y-53275807D01*
X121512829Y-53718661D01*
X121763687Y-54094095D01*
X122139121Y-54344953D01*
X122581975Y-54433042D01*
X123024829Y-54344953D01*
X123305498Y-54157415D01*
X125765000Y-51697914D01*
X125765001Y-58927611D01*
X125750602Y-59000000D01*
X125807646Y-59286782D01*
X125929091Y-59468537D01*
X125970096Y-59529905D01*
X126003235Y-59552048D01*
X126003235Y-59624218D01*
X126061549Y-59765000D01*
X121402270Y-59765000D01*
X121435000Y-59685983D01*
X121435000Y-59314017D01*
X121292655Y-58970365D01*
X121029635Y-58707345D01*
X120685983Y-58565000D01*
X120314017Y-58565000D01*
X119970365Y-58707345D01*
X119912710Y-58765000D01*
X111951665Y-58765000D01*
X110715723Y-57529059D01*
X110715723Y-57447522D01*
X110573378Y-57103870D01*
X110537326Y-57067818D01*
X116870145Y-50735000D01*
X116912710Y-50735000D01*
X116970365Y-50792655D01*
X117314017Y-50935000D01*
X117685983Y-50935000D01*
X118029635Y-50792655D01*
X118292655Y-50529635D01*
X118435000Y-50185983D01*
X118435000Y-49814017D01*
X118304930Y-49500000D01*
X118435000Y-49185983D01*
X118435000Y-48814017D01*
X118304930Y-48500000D01*
X118435000Y-48185983D01*
X118435000Y-47814017D01*
X118292655Y-47470365D01*
X118029635Y-47207345D01*
X117685983Y-47065000D01*
X117314017Y-47065000D01*
X116970365Y-47207345D01*
X116890204Y-47287506D01*
X116788953Y-47307646D01*
X116545831Y-47470095D01*
X116504827Y-47531462D01*
X107679290Y-56357000D01*
X107529635Y-56207345D01*
X107185983Y-56065000D01*
X106814017Y-56065000D01*
X106470365Y-56207345D01*
X106412710Y-56265000D01*
X106335000Y-56265000D01*
X106335000Y-56214017D01*
X106192655Y-55870365D01*
X105929635Y-55607345D01*
X105688213Y-55507345D01*
X103835000Y-53654133D01*
X103835000Y-52427405D01*
X103935000Y-52185983D01*
X103935000Y-52104446D01*
X104104447Y-51935000D01*
X104185983Y-51935000D01*
X104529635Y-51792655D01*
X104792655Y-51529635D01*
X104935000Y-51185983D01*
X104935000Y-50814017D01*
X104792655Y-50470365D01*
X104529635Y-50207345D01*
X104185983Y-50065000D01*
X103814017Y-50065000D01*
X103470365Y-50207345D01*
X103207345Y-50470365D01*
X103065000Y-50814017D01*
X103065000Y-50895553D01*
X102895554Y-51065000D01*
X102814017Y-51065000D01*
X102470365Y-51207345D01*
X102207345Y-51470365D01*
X102065000Y-51814017D01*
X102065000Y-52185983D01*
X102165001Y-52427407D01*
X102165000Y-53917767D01*
X102148643Y-54000000D01*
X102165000Y-54082233D01*
X102165000Y-54082236D01*
X102213448Y-54325800D01*
X102397999Y-54602001D01*
X102467720Y-54648587D01*
X104084132Y-56265000D01*
X103087290Y-56265000D01*
X103029635Y-56207345D01*
X102685983Y-56065000D01*
X102314017Y-56065000D01*
X101970365Y-56207345D01*
X101707345Y-56470365D01*
X101565000Y-56814017D01*
X101565000Y-57025553D01*
X98645000Y-54105554D01*
X98645000Y-47547656D01*
X98701337Y-47524320D01*
X98905444Y-47320213D01*
X99649392Y-47320213D01*
X99718857Y-47562397D01*
X100242302Y-47749144D01*
X100797368Y-47721362D01*
X101181143Y-47562397D01*
X101250608Y-47320213D01*
X100450000Y-46519605D01*
X99649392Y-47320213D01*
X98905444Y-47320213D01*
X99094320Y-47131337D01*
X99173428Y-46940353D01*
X99227603Y-47071143D01*
X99469787Y-47140608D01*
X100270395Y-46340000D01*
X100629605Y-46340000D01*
X101430213Y-47140608D01*
X101672397Y-47071143D01*
X101859144Y-46547698D01*
X101831362Y-45992632D01*
X101672397Y-45608857D01*
X101430213Y-45539392D01*
X100629605Y-46340000D01*
X100270395Y-46340000D01*
X99469787Y-45539392D01*
X99227603Y-45608857D01*
X99177465Y-45749393D01*
X99094320Y-45548663D01*
X98780657Y-45235000D01*
X99685184Y-45235000D01*
X99649392Y-45359787D01*
G36*
X88789392Y-45459787D02*
X89590000Y-46260395D01*
X90390608Y-45459787D01*
X90326133Y-45235000D01*
X91393867Y-45235000D01*
X91329392Y-45459787D01*
X92130000Y-46260395D01*
X92930608Y-45459787D01*
X92866133Y-45235000D01*
X94499343Y-45235000D01*
X94185680Y-45548663D01*
X93973000Y-46062119D01*
X93973000Y-46617881D01*
X94185680Y-47131337D01*
X94578663Y-47524320D01*
X94635001Y-47547656D01*
X94635000Y-53586243D01*
X94080222Y-53031465D01*
X94039216Y-52970095D01*
X93796094Y-52807646D01*
X93581699Y-52765000D01*
X93581695Y-52765000D01*
X93509311Y-52750602D01*
X93436927Y-52765000D01*
X88587290Y-52765000D01*
X88529635Y-52707345D01*
X88185983Y-52565000D01*
X87814017Y-52565000D01*
X87470365Y-52707345D01*
X87207345Y-52970365D01*
X87065000Y-53314017D01*
X87065000Y-53685983D01*
X87097730Y-53765000D01*
X82587290Y-53765000D01*
X82529635Y-53707345D01*
X82185983Y-53565000D01*
X81938072Y-53565000D01*
X82057000Y-53277881D01*
X82057000Y-52722119D01*
X81844320Y-52208663D01*
X81451337Y-51815680D01*
X80937881Y-51603000D01*
X80382119Y-51603000D01*
X79868663Y-51815680D01*
X79475680Y-52208663D01*
X79390000Y-52415513D01*
X79304320Y-52208663D01*
X78911337Y-51815680D01*
X78397881Y-51603000D01*
X77842119Y-51603000D01*
X77328663Y-51815680D01*
X76935680Y-52208663D01*
X76850000Y-52415513D01*
X76764320Y-52208663D01*
X76371337Y-51815680D01*
X75857881Y-51603000D01*
X75302119Y-51603000D01*
X74788663Y-51815680D01*
X74395680Y-52208663D01*
X74310000Y-52415513D01*
X74224320Y-52208663D01*
X73831337Y-51815680D01*
X73317881Y-51603000D01*
X72762119Y-51603000D01*
X72248663Y-51815680D01*
X71855680Y-52208663D01*
X71770000Y-52415513D01*
X71684320Y-52208663D01*
X71291337Y-51815680D01*
X70777881Y-51603000D01*
X70222119Y-51603000D01*
X69708663Y-51815680D01*
X69315680Y-52208663D01*
X69230000Y-52415513D01*
X69144320Y-52208663D01*
X68751337Y-51815680D01*
X68237881Y-51603000D01*
X67682119Y-51603000D01*
X67168663Y-51815680D01*
X66775680Y-52208663D01*
X66690000Y-52415513D01*
X66604320Y-52208663D01*
X66211337Y-51815680D01*
X65697881Y-51603000D01*
X65142119Y-51603000D01*
X64628663Y-51815680D01*
X64235680Y-52208663D01*
X64150000Y-52415513D01*
X64064320Y-52208663D01*
X63671337Y-51815680D01*
X63572814Y-51774870D01*
X65847684Y-49500000D01*
X82842765Y-49500000D01*
X82930854Y-49942854D01*
X83181712Y-50318288D01*
X83557146Y-50569146D01*
X84000000Y-50657235D01*
X84442854Y-50569146D01*
X84723523Y-50381608D01*
X84970131Y-50135000D01*
X87765000Y-50135000D01*
X87765000Y-50427615D01*
X87750602Y-50500000D01*
X87765000Y-50572384D01*
X87765000Y-50572387D01*
X87807646Y-50786782D01*
X87970095Y-51029905D01*
X88031465Y-51070911D01*
X88565000Y-51604447D01*
X88565000Y-51685983D01*
X88707345Y-52029635D01*
X88970365Y-52292655D01*
X89314017Y-52435000D01*
X89685983Y-52435000D01*
X90029635Y-52292655D01*
X90292655Y-52029635D01*
X90435000Y-51685983D01*
X90435000Y-51314017D01*
X90292655Y-50970365D01*
X90029635Y-50707345D01*
X89685983Y-50565000D01*
X89604447Y-50565000D01*
X89235000Y-50195554D01*
X89235000Y-49873941D01*
X89318289Y-49818289D01*
X89569146Y-49442855D01*
X89657235Y-49000000D01*
X89569146Y-48557145D01*
X89318289Y-48181711D01*
X88942855Y-47930854D01*
X88611783Y-47865000D01*
X84611783Y-47865000D01*
X84500000Y-47842765D01*
X84388217Y-47865000D01*
X84057145Y-47930854D01*
X83681711Y-48181711D01*
X83618387Y-48276482D01*
X83118392Y-48776477D01*
X82930854Y-49057146D01*
X82842765Y-49500000D01*
X65847684Y-49500000D01*
X67110684Y-48237001D01*
X77425615Y-48237001D01*
X77497999Y-48251399D01*
X77570383Y-48237001D01*
X77570387Y-48237001D01*
X77784782Y-48194355D01*
X78027904Y-48031906D01*
X78068910Y-47970536D01*
X78619233Y-47420213D01*
X88789392Y-47420213D01*
X88858857Y-47662397D01*
X89382302Y-47849144D01*
X89937368Y-47821362D01*
X90321143Y-47662397D01*
X90390608Y-47420213D01*
X91329392Y-47420213D01*
X91398857Y-47662397D01*
X91922302Y-47849144D01*
X92477368Y-47821362D01*
X92861143Y-47662397D01*
X92930608Y-47420213D01*
X92130000Y-46619605D01*
X91329392Y-47420213D01*
X90390608Y-47420213D01*
X89590000Y-46619605D01*
X88789392Y-47420213D01*
X78619233Y-47420213D01*
X79807144Y-46232302D01*
X88180856Y-46232302D01*
X88208638Y-46787368D01*
X88367603Y-47171143D01*
X88609787Y-47240608D01*
X89410395Y-46440000D01*
X89769605Y-46440000D01*
X90570213Y-47240608D01*
X90812397Y-47171143D01*
X90856453Y-47047656D01*
X90907603Y-47171143D01*
X91149787Y-47240608D01*
X91950395Y-46440000D01*
X92309605Y-46440000D01*
X93110213Y-47240608D01*
X93352397Y-47171143D01*
X93539144Y-46647698D01*
X93511362Y-46092632D01*
X93352397Y-45708857D01*
X93110213Y-45639392D01*
X92309605Y-46440000D01*
X91950395Y-46440000D01*
X91149787Y-45639392D01*
X90907603Y-45708857D01*
X90863547Y-45832344D01*
X90812397Y-45708857D01*
X90570213Y-45639392D01*
X89769605Y-46440000D01*
X89410395Y-46440000D01*
X88609787Y-45639392D01*
X88367603Y-45708857D01*
X88180856Y-46232302D01*
X79807144Y-46232302D01*
X80804447Y-45235000D01*
X88853867Y-45235000D01*
X88789392Y-45459787D01*
X88789392Y-45459787D01*
G37*
X88789392Y-45459787D02*
X89590000Y-46260395D01*
X90390608Y-45459787D01*
X90326133Y-45235000D01*
X91393867Y-45235000D01*
X91329392Y-45459787D01*
X92130000Y-46260395D01*
X92930608Y-45459787D01*
X92866133Y-45235000D01*
X94499343Y-45235000D01*
X94185680Y-45548663D01*
X93973000Y-46062119D01*
X93973000Y-46617881D01*
X94185680Y-47131337D01*
X94578663Y-47524320D01*
X94635001Y-47547656D01*
X94635000Y-53586243D01*
X94080222Y-53031465D01*
X94039216Y-52970095D01*
X93796094Y-52807646D01*
X93581699Y-52765000D01*
X93581695Y-52765000D01*
X93509311Y-52750602D01*
X93436927Y-52765000D01*
X88587290Y-52765000D01*
X88529635Y-52707345D01*
X88185983Y-52565000D01*
X87814017Y-52565000D01*
X87470365Y-52707345D01*
X87207345Y-52970365D01*
X87065000Y-53314017D01*
X87065000Y-53685983D01*
X87097730Y-53765000D01*
X82587290Y-53765000D01*
X82529635Y-53707345D01*
X82185983Y-53565000D01*
X81938072Y-53565000D01*
X82057000Y-53277881D01*
X82057000Y-52722119D01*
X81844320Y-52208663D01*
X81451337Y-51815680D01*
X80937881Y-51603000D01*
X80382119Y-51603000D01*
X79868663Y-51815680D01*
X79475680Y-52208663D01*
X79390000Y-52415513D01*
X79304320Y-52208663D01*
X78911337Y-51815680D01*
X78397881Y-51603000D01*
X77842119Y-51603000D01*
X77328663Y-51815680D01*
X76935680Y-52208663D01*
X76850000Y-52415513D01*
X76764320Y-52208663D01*
X76371337Y-51815680D01*
X75857881Y-51603000D01*
X75302119Y-51603000D01*
X74788663Y-51815680D01*
X74395680Y-52208663D01*
X74310000Y-52415513D01*
X74224320Y-52208663D01*
X73831337Y-51815680D01*
X73317881Y-51603000D01*
X72762119Y-51603000D01*
X72248663Y-51815680D01*
X71855680Y-52208663D01*
X71770000Y-52415513D01*
X71684320Y-52208663D01*
X71291337Y-51815680D01*
X70777881Y-51603000D01*
X70222119Y-51603000D01*
X69708663Y-51815680D01*
X69315680Y-52208663D01*
X69230000Y-52415513D01*
X69144320Y-52208663D01*
X68751337Y-51815680D01*
X68237881Y-51603000D01*
X67682119Y-51603000D01*
X67168663Y-51815680D01*
X66775680Y-52208663D01*
X66690000Y-52415513D01*
X66604320Y-52208663D01*
X66211337Y-51815680D01*
X65697881Y-51603000D01*
X65142119Y-51603000D01*
X64628663Y-51815680D01*
X64235680Y-52208663D01*
X64150000Y-52415513D01*
X64064320Y-52208663D01*
X63671337Y-51815680D01*
X63572814Y-51774870D01*
X65847684Y-49500000D01*
X82842765Y-49500000D01*
X82930854Y-49942854D01*
X83181712Y-50318288D01*
X83557146Y-50569146D01*
X84000000Y-50657235D01*
X84442854Y-50569146D01*
X84723523Y-50381608D01*
X84970131Y-50135000D01*
X87765000Y-50135000D01*
X87765000Y-50427615D01*
X87750602Y-50500000D01*
X87765000Y-50572384D01*
X87765000Y-50572387D01*
X87807646Y-50786782D01*
X87970095Y-51029905D01*
X88031465Y-51070911D01*
X88565000Y-51604447D01*
X88565000Y-51685983D01*
X88707345Y-52029635D01*
X88970365Y-52292655D01*
X89314017Y-52435000D01*
X89685983Y-52435000D01*
X90029635Y-52292655D01*
X90292655Y-52029635D01*
X90435000Y-51685983D01*
X90435000Y-51314017D01*
X90292655Y-50970365D01*
X90029635Y-50707345D01*
X89685983Y-50565000D01*
X89604447Y-50565000D01*
X89235000Y-50195554D01*
X89235000Y-49873941D01*
X89318289Y-49818289D01*
X89569146Y-49442855D01*
X89657235Y-49000000D01*
X89569146Y-48557145D01*
X89318289Y-48181711D01*
X88942855Y-47930854D01*
X88611783Y-47865000D01*
X84611783Y-47865000D01*
X84500000Y-47842765D01*
X84388217Y-47865000D01*
X84057145Y-47930854D01*
X83681711Y-48181711D01*
X83618387Y-48276482D01*
X83118392Y-48776477D01*
X82930854Y-49057146D01*
X82842765Y-49500000D01*
X65847684Y-49500000D01*
X67110684Y-48237001D01*
X77425615Y-48237001D01*
X77497999Y-48251399D01*
X77570383Y-48237001D01*
X77570387Y-48237001D01*
X77784782Y-48194355D01*
X78027904Y-48031906D01*
X78068910Y-47970536D01*
X78619233Y-47420213D01*
X88789392Y-47420213D01*
X88858857Y-47662397D01*
X89382302Y-47849144D01*
X89937368Y-47821362D01*
X90321143Y-47662397D01*
X90390608Y-47420213D01*
X91329392Y-47420213D01*
X91398857Y-47662397D01*
X91922302Y-47849144D01*
X92477368Y-47821362D01*
X92861143Y-47662397D01*
X92930608Y-47420213D01*
X92130000Y-46619605D01*
X91329392Y-47420213D01*
X90390608Y-47420213D01*
X89590000Y-46619605D01*
X88789392Y-47420213D01*
X78619233Y-47420213D01*
X79807144Y-46232302D01*
X88180856Y-46232302D01*
X88208638Y-46787368D01*
X88367603Y-47171143D01*
X88609787Y-47240608D01*
X89410395Y-46440000D01*
X89769605Y-46440000D01*
X90570213Y-47240608D01*
X90812397Y-47171143D01*
X90856453Y-47047656D01*
X90907603Y-47171143D01*
X91149787Y-47240608D01*
X91950395Y-46440000D01*
X92309605Y-46440000D01*
X93110213Y-47240608D01*
X93352397Y-47171143D01*
X93539144Y-46647698D01*
X93511362Y-46092632D01*
X93352397Y-45708857D01*
X93110213Y-45639392D01*
X92309605Y-46440000D01*
X91950395Y-46440000D01*
X91149787Y-45639392D01*
X90907603Y-45708857D01*
X90863547Y-45832344D01*
X90812397Y-45708857D01*
X90570213Y-45639392D01*
X89769605Y-46440000D01*
X89410395Y-46440000D01*
X88609787Y-45639392D01*
X88367603Y-45708857D01*
X88180856Y-46232302D01*
X79807144Y-46232302D01*
X80804447Y-45235000D01*
X88853867Y-45235000D01*
X88789392Y-45459787D01*
M02*
