G04 #@! TF.FileFunction,Copper,L2,Bot,Signal*
%FSLAX46Y46*%
G04 Gerber Fmt 4.6, Leading zero omitted, Abs format (unit mm)*
G04 Created by KiCad (PCBNEW 4.0.4-stable) date 10/29/16 17:51:51*
%MOMM*%
%LPD*%
G01*
G04 APERTURE LIST*
%ADD10C,0.100000*%
%ADD11C,1.900000*%
%ADD12C,0.600000*%
%ADD13C,0.250000*%
%ADD14C,1.000000*%
%ADD15C,0.254000*%
G04 APERTURE END LIST*
D10*
G36*
X144478858Y-61935355D02*
X143135355Y-63278858D01*
X141721142Y-61864645D01*
X143064645Y-60521142D01*
X144478858Y-61935355D01*
X144478858Y-61935355D01*
G37*
D11*
X144896051Y-60103949D03*
D10*
G36*
X139275216Y-51325468D02*
X141750089Y-53800341D01*
X141042982Y-54507448D01*
X138568109Y-52032575D01*
X139275216Y-51325468D01*
X139275216Y-51325468D01*
G37*
G36*
X137861002Y-52739682D02*
X140335875Y-55214555D01*
X139628768Y-55921662D01*
X137153895Y-53446789D01*
X137861002Y-52739682D01*
X137861002Y-52739682D01*
G37*
G36*
X136446789Y-54153895D02*
X138921662Y-56628768D01*
X138214555Y-57335875D01*
X135739682Y-54861002D01*
X136446789Y-54153895D01*
X136446789Y-54153895D01*
G37*
G36*
X135032575Y-55568109D02*
X137507448Y-58042982D01*
X136800341Y-58750089D01*
X134325468Y-56275216D01*
X135032575Y-55568109D01*
X135032575Y-55568109D01*
G37*
G36*
X145144202Y-53376078D02*
X147548365Y-55780241D01*
X146416994Y-56911612D01*
X144012831Y-54507449D01*
X145144202Y-53376078D01*
X145144202Y-53376078D01*
G37*
G36*
X137507449Y-61012831D02*
X139911612Y-63416994D01*
X138780241Y-64548365D01*
X136376078Y-62144202D01*
X137507449Y-61012831D01*
X137507449Y-61012831D01*
G37*
D12*
X144000000Y-70000000D03*
X149000000Y-61000000D03*
X139810900Y-56810800D03*
X143502200Y-54296400D03*
D13*
X143100000Y-69100000D02*
X143100000Y-61900000D01*
X144000000Y-70000000D02*
X143100000Y-69100000D01*
X148100000Y-61900000D02*
X143100000Y-61900000D01*
X149000000Y-61000000D02*
X148100000Y-61900000D01*
X139199700Y-56810800D02*
X139810900Y-56810800D01*
X138798200Y-57212300D02*
X139199700Y-56810800D01*
X137330700Y-55744900D02*
X138798200Y-57212300D01*
X141714000Y-54296400D02*
X143502200Y-54296400D01*
X141626500Y-54383900D02*
X141714000Y-54296400D01*
X140159100Y-52916500D02*
X141626500Y-54383900D01*
D14*
X143896000Y-59103800D02*
X144896100Y-60103900D01*
X137861200Y-59103800D02*
X143896000Y-59103800D01*
X135916500Y-57159100D02*
X137861200Y-59103800D01*
D15*
G36*
X144064625Y-50440228D02*
X144128177Y-50440796D01*
X144191503Y-50441739D01*
X144254868Y-50443061D01*
X144318338Y-50444763D01*
X144381540Y-50446835D01*
X144445191Y-50449303D01*
X144508346Y-50452128D01*
X144571737Y-50455342D01*
X144635076Y-50458933D01*
X144698497Y-50462908D01*
X144761574Y-50467239D01*
X144825031Y-50471977D01*
X144888130Y-50477067D01*
X144951449Y-50482556D01*
X145014666Y-50488416D01*
X145077663Y-50494636D01*
X145140900Y-50501261D01*
X145203973Y-50508250D01*
X145266957Y-50515610D01*
X145330068Y-50523368D01*
X145393009Y-50531488D01*
X145456027Y-50540001D01*
X145518894Y-50548877D01*
X145581838Y-50558149D01*
X145644547Y-50567770D01*
X145707253Y-50577775D01*
X145770034Y-50588179D01*
X145832634Y-50598940D01*
X145895321Y-50610102D01*
X145957943Y-50621641D01*
X146020193Y-50633498D01*
X146082699Y-50645793D01*
X146145099Y-50658458D01*
X146207468Y-50671507D01*
X146269770Y-50684935D01*
X146331734Y-50698680D01*
X146394102Y-50712909D01*
X146456041Y-50727433D01*
X146517892Y-50742332D01*
X146579953Y-50757676D01*
X146641585Y-50773311D01*
X146703561Y-50789431D01*
X146765032Y-50805818D01*
X146826538Y-50822612D01*
X146888285Y-50839875D01*
X146949634Y-50857427D01*
X147010937Y-50875369D01*
X147072125Y-50893681D01*
X147133182Y-50912355D01*
X147194363Y-50931477D01*
X147255292Y-50950926D01*
X147316227Y-50970786D01*
X147376821Y-50990942D01*
X147437468Y-51011527D01*
X147498131Y-51032530D01*
X147558572Y-51053869D01*
X147618962Y-51075606D01*
X147679151Y-51097686D01*
X147739224Y-51120141D01*
X147799332Y-51143027D01*
X147859229Y-51166254D01*
X147919111Y-51189898D01*
X147978626Y-51213818D01*
X148038311Y-51238233D01*
X148097774Y-51262984D01*
X148157020Y-51288072D01*
X148216270Y-51313592D01*
X148275320Y-51339458D01*
X148334188Y-51365675D01*
X148393100Y-51392349D01*
X148451824Y-51419373D01*
X148510238Y-51446693D01*
X148568742Y-51474495D01*
X148626918Y-51502583D01*
X148685152Y-51531144D01*
X148743171Y-51560046D01*
X148801097Y-51589350D01*
X148858780Y-51618981D01*
X148916395Y-51649030D01*
X148973785Y-51679415D01*
X149031173Y-51710257D01*
X149088227Y-51741376D01*
X149145124Y-51772870D01*
X149202088Y-51804865D01*
X149258747Y-51837155D01*
X149315178Y-51869781D01*
X149371497Y-51902812D01*
X149427712Y-51936254D01*
X149483799Y-51970097D01*
X149539686Y-52004295D01*
X149595348Y-52038836D01*
X149650972Y-52073836D01*
X149706333Y-52109158D01*
X149761431Y-52144796D01*
X149816504Y-52180911D01*
X149871428Y-52217422D01*
X149925944Y-52254155D01*
X149980479Y-52291401D01*
X150034731Y-52328955D01*
X150088958Y-52366998D01*
X150142801Y-52405278D01*
X150196595Y-52444034D01*
X150250209Y-52483175D01*
X150303543Y-52522629D01*
X150356675Y-52562453D01*
X150409693Y-52602714D01*
X150462531Y-52643368D01*
X150515144Y-52684379D01*
X150567481Y-52725707D01*
X150619640Y-52767431D01*
X150671815Y-52809712D01*
X150723542Y-52852174D01*
X150775095Y-52895039D01*
X150826503Y-52938338D01*
X150877665Y-52981984D01*
X150928567Y-53025965D01*
X150979417Y-53070468D01*
X151029924Y-53115239D01*
X151080218Y-53160391D01*
X151130288Y-53205919D01*
X151180225Y-53251903D01*
X151229889Y-53298224D01*
X151279296Y-53344892D01*
X151328548Y-53392008D01*
X151377513Y-53439445D01*
X151426302Y-53487318D01*
X151474970Y-53535679D01*
X151504355Y-53565179D01*
X151533887Y-53595056D01*
X151563119Y-53624861D01*
X151592301Y-53654850D01*
X151621262Y-53684841D01*
X151650182Y-53715024D01*
X151678927Y-53745258D01*
X151707419Y-53775461D01*
X151735694Y-53805667D01*
X151764162Y-53836316D01*
X151792200Y-53866738D01*
X151820253Y-53897416D01*
X151848084Y-53928090D01*
X151875884Y-53958969D01*
X151903490Y-53989871D01*
X151930811Y-54020695D01*
X151958089Y-54051713D01*
X151985198Y-54082780D01*
X152012335Y-54114123D01*
X152039227Y-54145428D01*
X152065888Y-54176711D01*
X152092591Y-54208289D01*
X152118794Y-54239519D01*
X152145197Y-54271238D01*
X152171332Y-54302882D01*
X152197387Y-54334679D01*
X152223160Y-54366382D01*
X152248983Y-54398400D01*
X152274511Y-54430303D01*
X152299920Y-54462310D01*
X152325115Y-54494300D01*
X152350197Y-54526401D01*
X152375286Y-54558769D01*
X152400218Y-54591191D01*
X152425060Y-54623757D01*
X152449525Y-54656088D01*
X152473979Y-54688664D01*
X152498324Y-54721357D01*
X152522420Y-54753979D01*
X152546434Y-54786752D01*
X152570387Y-54819708D01*
X152594035Y-54852511D01*
X152617570Y-54885423D01*
X152640985Y-54918435D01*
X152664307Y-54951584D01*
X152687509Y-54984835D01*
X152710476Y-55018022D01*
X152733368Y-55051373D01*
X152756102Y-55084767D01*
X152778852Y-55118463D01*
X152801294Y-55151984D01*
X152823522Y-55185461D01*
X152845664Y-55219088D01*
X152867664Y-55252779D01*
X152889610Y-55286671D01*
X152911283Y-55320426D01*
X152933024Y-55354571D01*
X152954361Y-55388372D01*
X152975640Y-55422366D01*
X152996882Y-55456591D01*
X153017793Y-55490573D01*
X153038818Y-55525034D01*
X153059563Y-55559332D01*
X153080034Y-55593472D01*
X153100548Y-55627981D01*
X153120857Y-55662442D01*
X153141076Y-55697057D01*
X153161118Y-55731669D01*
X153181010Y-55766326D01*
X153200740Y-55801007D01*
X153220276Y-55835654D01*
X153239860Y-55870696D01*
X153259095Y-55905427D01*
X153278360Y-55940522D01*
X153297355Y-55975444D01*
X153316154Y-56010318D01*
X153335021Y-56045640D01*
X153353710Y-56080952D01*
X153372193Y-56116202D01*
X153390484Y-56151406D01*
X153408629Y-56186655D01*
X153426603Y-56221902D01*
X153444541Y-56257407D01*
X153462361Y-56293016D01*
X153479945Y-56328489D01*
X153497437Y-56364114D01*
X153514773Y-56399762D01*
X153532092Y-56435722D01*
X153549068Y-56471314D01*
X153566033Y-56507230D01*
X153582740Y-56542951D01*
X153599333Y-56578776D01*
X153615820Y-56614730D01*
X153632233Y-56650882D01*
X153648353Y-56686747D01*
X153664436Y-56722894D01*
X153680375Y-56759084D01*
X153696169Y-56795313D01*
X153711792Y-56831522D01*
X153727291Y-56867820D01*
X153742632Y-56904124D01*
X153757923Y-56940691D01*
X153772939Y-56976989D01*
X153787892Y-57013516D01*
X153802584Y-57049798D01*
X153817350Y-57086656D01*
X153831801Y-57123127D01*
X153846150Y-57159739D01*
X153860362Y-57196405D01*
X153874469Y-57233211D01*
X153888432Y-57270051D01*
X153902223Y-57306857D01*
X153915886Y-57343738D01*
X153929381Y-57380588D01*
X153942729Y-57417462D01*
X153956011Y-57454588D01*
X153969026Y-57491398D01*
X153982080Y-57528764D01*
X153994853Y-57565770D01*
X154007456Y-57602727D01*
X154019968Y-57639874D01*
X154032384Y-57677192D01*
X154044621Y-57714432D01*
X154056693Y-57751637D01*
X154068664Y-57789008D01*
X154080540Y-57826562D01*
X154092159Y-57863786D01*
X154103649Y-57901081D01*
X154115115Y-57938798D01*
X154126304Y-57976097D01*
X154137464Y-58013811D01*
X154148379Y-58051204D01*
X154159245Y-58088951D01*
X154169844Y-58126295D01*
X154180495Y-58164354D01*
X154190806Y-58201733D01*
X154201097Y-58239586D01*
X154211178Y-58277217D01*
X154221148Y-58314985D01*
X154231008Y-58352915D01*
X154240715Y-58390823D01*
X154250190Y-58428412D01*
X154259666Y-58466593D01*
X154268917Y-58504469D01*
X154278045Y-58542449D01*
X154287029Y-58580446D01*
X154295826Y-58618277D01*
X154304519Y-58656293D01*
X154313075Y-58694352D01*
X154321515Y-58732559D01*
X154329765Y-58770566D01*
X154337912Y-58808781D01*
X154345886Y-58846874D01*
X154353743Y-58885105D01*
X154361499Y-58923566D01*
X154369061Y-58961791D01*
X154376435Y-58999801D01*
X154383711Y-59038051D01*
X154390876Y-59076490D01*
X154397833Y-59114589D01*
X154404715Y-59153075D01*
X154411427Y-59191432D01*
X154417999Y-59229809D01*
X154424411Y-59268101D01*
X154430750Y-59306831D01*
X154436857Y-59345011D01*
X154442865Y-59383483D01*
X154448705Y-59421811D01*
X154454463Y-59460541D01*
X154460012Y-59498835D01*
X154465479Y-59537555D01*
X154470758Y-59575971D01*
X154475921Y-59614586D01*
X154480933Y-59653146D01*
X154485840Y-59692003D01*
X154490511Y-59730134D01*
X154495152Y-59769188D01*
X154499573Y-59807588D01*
X154503861Y-59846072D01*
X154508059Y-59885056D01*
X154512057Y-59923489D01*
X154515943Y-59962231D01*
X154519690Y-60001011D01*
X154523261Y-60039443D01*
X154526753Y-60078569D01*
X154530066Y-60117297D01*
X154533202Y-60155592D01*
X154536259Y-60194670D01*
X154539133Y-60233239D01*
X154541887Y-60272096D01*
X154544476Y-60310617D01*
X154546947Y-60349503D01*
X154549282Y-60388512D01*
X154551456Y-60427191D01*
X154553486Y-60465832D01*
X154555393Y-60504824D01*
X154557146Y-60543584D01*
X154558756Y-60582316D01*
X154560236Y-60621359D01*
X154561560Y-60659991D01*
X154562745Y-60698708D01*
X154563793Y-60737532D01*
X154564701Y-60776490D01*
X154565464Y-60815339D01*
X154566088Y-60854256D01*
X154566566Y-60892926D01*
X154566907Y-60932088D01*
X154567102Y-60970463D01*
X154567157Y-61009495D01*
X154567072Y-61048270D01*
X154566843Y-61087228D01*
X154566473Y-61126097D01*
X154565960Y-61165044D01*
X154565312Y-61203633D01*
X154564515Y-61242593D01*
X154563579Y-61281411D01*
X154562499Y-61320322D01*
X154561283Y-61359036D01*
X154559929Y-61397667D01*
X154558418Y-61436708D01*
X154556765Y-61475714D01*
X154554989Y-61514330D01*
X154553065Y-61553062D01*
X154550998Y-61591808D01*
X154548778Y-61630764D01*
X154546433Y-61669426D01*
X154543940Y-61708202D01*
X154541309Y-61746903D01*
X154538508Y-61785991D01*
X154535617Y-61824386D01*
X154532534Y-61863420D01*
X154529348Y-61901958D01*
X154526002Y-61940709D01*
X154522527Y-61979313D01*
X154518869Y-62018344D01*
X154515133Y-62056720D01*
X154511209Y-62095536D01*
X154507173Y-62134054D01*
X154502956Y-62172942D01*
X154498636Y-62211455D01*
X154494149Y-62250180D01*
X154489536Y-62288757D01*
X154484793Y-62327230D01*
X154479880Y-62365911D01*
X154474823Y-62404603D01*
X154469669Y-62442935D01*
X154464310Y-62481721D01*
X154458859Y-62520131D01*
X154453256Y-62558597D01*
X154447529Y-62596945D01*
X154441589Y-62635739D01*
X154435594Y-62673950D01*
X154432328Y-62694285D01*
X145686431Y-71440181D01*
X145666357Y-71443405D01*
X145627630Y-71449480D01*
X145589206Y-71455363D01*
X145550658Y-71461120D01*
X145512273Y-71466711D01*
X145473802Y-71472170D01*
X145434980Y-71477532D01*
X145396706Y-71482677D01*
X145358004Y-71487736D01*
X145319567Y-71492617D01*
X145280712Y-71497406D01*
X145242271Y-71502002D01*
X145203520Y-71506492D01*
X145165160Y-71510794D01*
X145126165Y-71515023D01*
X145087643Y-71519058D01*
X145048908Y-71522973D01*
X145010448Y-71526718D01*
X144971367Y-71530379D01*
X144932885Y-71533843D01*
X144894119Y-71537189D01*
X144855511Y-71540379D01*
X144816492Y-71543461D01*
X144777987Y-71546360D01*
X144739249Y-71549134D01*
X144700305Y-71551782D01*
X144661464Y-71554279D01*
X144622966Y-71556612D01*
X144583872Y-71558840D01*
X144545473Y-71560886D01*
X144506572Y-71562819D01*
X144467557Y-71564614D01*
X144428824Y-71566254D01*
X144389872Y-71567760D01*
X144351223Y-71569115D01*
X144312332Y-71570335D01*
X144273526Y-71571411D01*
X144234653Y-71572348D01*
X144195846Y-71573140D01*
X144157069Y-71573792D01*
X144118275Y-71574300D01*
X144079294Y-71574671D01*
X144040399Y-71574898D01*
X144001757Y-71574983D01*
X143962568Y-71574926D01*
X143924191Y-71574730D01*
X143885032Y-71574388D01*
X143846360Y-71573909D01*
X143807229Y-71573281D01*
X143768813Y-71572524D01*
X143729634Y-71571610D01*
X143691078Y-71570570D01*
X143652102Y-71569375D01*
X143613306Y-71568045D01*
X143574581Y-71566575D01*
X143535679Y-71564957D01*
X143496941Y-71563205D01*
X143458208Y-71561310D01*
X143419231Y-71559261D01*
X143380450Y-71557080D01*
X143341602Y-71554753D01*
X143302938Y-71552296D01*
X143264177Y-71549690D01*
X143225315Y-71546935D01*
X143186784Y-71544062D01*
X143147986Y-71541026D01*
X143109162Y-71537846D01*
X143070621Y-71534548D01*
X143031602Y-71531063D01*
X142993107Y-71527485D01*
X142954364Y-71523740D01*
X142915591Y-71519850D01*
X142876919Y-71515826D01*
X142838131Y-71511646D01*
X142799750Y-71507369D01*
X142761082Y-71502917D01*
X142722606Y-71498343D01*
X142683750Y-71493581D01*
X142645319Y-71488728D01*
X142606679Y-71483704D01*
X142568025Y-71478534D01*
X142529775Y-71473276D01*
X142491176Y-71467825D01*
X142452462Y-71462214D01*
X142414143Y-71456517D01*
X142375676Y-71450653D01*
X142337334Y-71444665D01*
X142298758Y-71438495D01*
X142260128Y-71432170D01*
X142222097Y-71425800D01*
X142183482Y-71419187D01*
X142145163Y-71412479D01*
X142106842Y-71405626D01*
X142068455Y-71398615D01*
X142030270Y-71391496D01*
X141992056Y-71384226D01*
X141953621Y-71376767D01*
X141915632Y-71369250D01*
X141877274Y-71361514D01*
X141838965Y-71353639D01*
X141800994Y-71345689D01*
X141762778Y-71337540D01*
X141724565Y-71329245D01*
X141686714Y-71320882D01*
X141648555Y-71312303D01*
X141610399Y-71303577D01*
X141572612Y-71294789D01*
X141534488Y-71285773D01*
X141496468Y-71276634D01*
X141458670Y-71267400D01*
X141420861Y-71258016D01*
X141382892Y-71248443D01*
X141344959Y-71238730D01*
X141307328Y-71228945D01*
X141269502Y-71218960D01*
X141231577Y-71208799D01*
X141194063Y-71198598D01*
X141156173Y-71188144D01*
X141118685Y-71177652D01*
X141081177Y-71167004D01*
X141043192Y-71156069D01*
X141005686Y-71145119D01*
X140968465Y-71134104D01*
X140930631Y-71122753D01*
X140893483Y-71111459D01*
X140855955Y-71099895D01*
X140818634Y-71088246D01*
X140781211Y-71076409D01*
X140743929Y-71064464D01*
X140706413Y-71052292D01*
X140669193Y-71040059D01*
X140632046Y-71027699D01*
X140594789Y-71015147D01*
X140557987Y-71002596D01*
X140520560Y-70989676D01*
X140483741Y-70976811D01*
X140446706Y-70963716D01*
X140409639Y-70950454D01*
X140372843Y-70937133D01*
X140335836Y-70923579D01*
X140298957Y-70909915D01*
X140262153Y-70896122D01*
X140225399Y-70882191D01*
X140188669Y-70868111D01*
X140152062Y-70853921D01*
X140115466Y-70839578D01*
X140078789Y-70825044D01*
X140042027Y-70810316D01*
X140005774Y-70795634D01*
X139969308Y-70780707D01*
X139932801Y-70765602D01*
X139896348Y-70750358D01*
X139859839Y-70734929D01*
X139823814Y-70719544D01*
X139787501Y-70703876D01*
X139751252Y-70688072D01*
X139715054Y-70672128D01*
X139679003Y-70656086D01*
X139642987Y-70639898D01*
X139607033Y-70623573D01*
X139571000Y-70607048D01*
X139535143Y-70590439D01*
X139499264Y-70573656D01*
X139463407Y-70556718D01*
X139427760Y-70539713D01*
X139391860Y-70522422D01*
X139356265Y-70505109D01*
X139320910Y-70487749D01*
X139285154Y-70470023D01*
X139249732Y-70452295D01*
X139214303Y-70434397D01*
X139178861Y-70416320D01*
X139143552Y-70398145D01*
X139108138Y-70379743D01*
X139073051Y-70361342D01*
X139037786Y-70342676D01*
X139002763Y-70323969D01*
X138967793Y-70305118D01*
X138932700Y-70286029D01*
X138897894Y-70266923D01*
X138862820Y-70247495D01*
X138827957Y-70228011D01*
X138793381Y-70208515D01*
X138758402Y-70188614D01*
X138723873Y-70168795D01*
X138689395Y-70148830D01*
X138654720Y-70128572D01*
X138620370Y-70108330D01*
X138585978Y-70087886D01*
X138551388Y-70067142D01*
X138517206Y-70046467D01*
X138483048Y-70025626D01*
X138448878Y-70004599D01*
X138414616Y-69983334D01*
X138380687Y-69962095D01*
X138346635Y-69940596D01*
X138312913Y-69919124D01*
X138278793Y-69897215D01*
X138245156Y-69875434D01*
X138211386Y-69853382D01*
X138177791Y-69831260D01*
X138144237Y-69808980D01*
X138110781Y-69786580D01*
X138077254Y-69763945D01*
X138043742Y-69741131D01*
X138010492Y-69718308D01*
X137977204Y-69695271D01*
X137943968Y-69672079D01*
X137911053Y-69648922D01*
X137877980Y-69625464D01*
X137844926Y-69601827D01*
X137811839Y-69577973D01*
X137779251Y-69554286D01*
X137746393Y-69530210D01*
X137713571Y-69505965D01*
X137681099Y-69481785D01*
X137648395Y-69457234D01*
X137615998Y-69432718D01*
X137583753Y-69408120D01*
X137551290Y-69383159D01*
X137519025Y-69358149D01*
X137486807Y-69332977D01*
X137454769Y-69307744D01*
X137422656Y-69282251D01*
X137390519Y-69256535D01*
X137358737Y-69230899D01*
X137326950Y-69205057D01*
X137295121Y-69178975D01*
X137263684Y-69153012D01*
X137232151Y-69126762D01*
X137200462Y-69100174D01*
X137169117Y-69073667D01*
X137137803Y-69046979D01*
X137106413Y-69020014D01*
X137075142Y-68992938D01*
X137044236Y-68965969D01*
X137013193Y-68938668D01*
X136982336Y-68911319D01*
X136951331Y-68883622D01*
X136920586Y-68855942D01*
X136889882Y-68828084D01*
X136859359Y-68800170D01*
X136828791Y-68772001D01*
X136798393Y-68743766D01*
X136767962Y-68715281D01*
X136737685Y-68686720D01*
X136707415Y-68657941D01*
X136677300Y-68629087D01*
X136647385Y-68600200D01*
X136617280Y-68570902D01*
X136587529Y-68541723D01*
X136557655Y-68512195D01*
X136528172Y-68482827D01*
X136479809Y-68434156D01*
X136431993Y-68385424D01*
X136384406Y-68336305D01*
X136337376Y-68287143D01*
X136290615Y-68237639D01*
X136244399Y-68188087D01*
X136198435Y-68138175D01*
X136152873Y-68088067D01*
X136107741Y-68037797D01*
X136062898Y-67987209D01*
X136018430Y-67936401D01*
X135974494Y-67885555D01*
X135930766Y-67834298D01*
X135887562Y-67783003D01*
X135844558Y-67731286D01*
X135802083Y-67679543D01*
X135759865Y-67627447D01*
X135718194Y-67575358D01*
X135676764Y-67522893D01*
X135635798Y-67470340D01*
X135595198Y-67417574D01*
X135554900Y-67364511D01*
X135515060Y-67311363D01*
X135501696Y-67293297D01*
X136518743Y-67293297D01*
X136743737Y-67837823D01*
X137159985Y-68254799D01*
X137704118Y-68480743D01*
X138293297Y-68481257D01*
X138837823Y-68256263D01*
X139254799Y-67840015D01*
X139480743Y-67295882D01*
X139481257Y-66706703D01*
X139256263Y-66162177D01*
X138840015Y-65745201D01*
X138295882Y-65519257D01*
X137706703Y-65518743D01*
X137162177Y-65743737D01*
X136745201Y-66159985D01*
X136519257Y-66704118D01*
X136518743Y-67293297D01*
X135501696Y-67293297D01*
X135475555Y-67257961D01*
X135436413Y-67204348D01*
X135397711Y-67150633D01*
X135359370Y-67096707D01*
X135321394Y-67042578D01*
X135283795Y-66988266D01*
X135246624Y-66933842D01*
X135209707Y-66879058D01*
X135173203Y-66824148D01*
X135137165Y-66769192D01*
X135101497Y-66714054D01*
X135066142Y-66658642D01*
X135031223Y-66603152D01*
X134996685Y-66547497D01*
X134962416Y-66491500D01*
X134928673Y-66435581D01*
X134895192Y-66379306D01*
X134862131Y-66322940D01*
X134829482Y-66266474D01*
X134797176Y-66209791D01*
X134765225Y-66152909D01*
X134733763Y-66096076D01*
X134702564Y-66038882D01*
X134671735Y-65981522D01*
X134641326Y-65924090D01*
X134611307Y-65866538D01*
X134581653Y-65808815D01*
X134552375Y-65750946D01*
X134523466Y-65692917D01*
X134494879Y-65634636D01*
X134466811Y-65576506D01*
X134439063Y-65518124D01*
X134411659Y-65459534D01*
X134384622Y-65400791D01*
X134357965Y-65341919D01*
X134331734Y-65283029D01*
X134305817Y-65223863D01*
X134280331Y-65164698D01*
X134255288Y-65105564D01*
X134230515Y-65046053D01*
X134206135Y-64986460D01*
X134182091Y-64926645D01*
X134158519Y-64866948D01*
X134135312Y-64807111D01*
X134112431Y-64747026D01*
X134089962Y-64686920D01*
X134067783Y-64626467D01*
X134046077Y-64566164D01*
X134024793Y-64505886D01*
X134003764Y-64445155D01*
X133983230Y-64384665D01*
X133962959Y-64323735D01*
X133943127Y-64262886D01*
X133923659Y-64201904D01*
X133904619Y-64140986D01*
X133885930Y-64079893D01*
X133867584Y-64018598D01*
X133849647Y-63957316D01*
X133832030Y-63895748D01*
X133814859Y-63834335D01*
X133798061Y-63772827D01*
X133781628Y-63711187D01*
X133765555Y-63649400D01*
X133749872Y-63587582D01*
X133734553Y-63525636D01*
X133719658Y-63463805D01*
X133705071Y-63401609D01*
X133690943Y-63339692D01*
X133677105Y-63277315D01*
X133663717Y-63215204D01*
X133650672Y-63152865D01*
X133637994Y-63090406D01*
X133625733Y-63028085D01*
X133613805Y-62965474D01*
X133602282Y-62902945D01*
X133591156Y-62840469D01*
X133580356Y-62777646D01*
X133569972Y-62714989D01*
X133559956Y-62652228D01*
X133550337Y-62589543D01*
X133541062Y-62526586D01*
X133532171Y-62463626D01*
X133523687Y-62400832D01*
X133515560Y-62337849D01*
X133507788Y-62274624D01*
X133500435Y-62211723D01*
X133493444Y-62148641D01*
X133492417Y-62138835D01*
X135987651Y-62138835D01*
X136016166Y-62290378D01*
X136101392Y-62418888D01*
X138505555Y-64823051D01*
X138624177Y-64904101D01*
X138774874Y-64936792D01*
X138926417Y-64908277D01*
X139054927Y-64823051D01*
X140186298Y-63691680D01*
X140267348Y-63573058D01*
X140300039Y-63422361D01*
X140271524Y-63270818D01*
X140186298Y-63142308D01*
X140042304Y-62998314D01*
X142181292Y-62998314D01*
X142181292Y-63222820D01*
X142775656Y-63817185D01*
X143009046Y-63913858D01*
X143261664Y-63913858D01*
X143495053Y-63817186D01*
X144054064Y-63258175D01*
X144054064Y-63033669D01*
X143100000Y-62079605D01*
X142181292Y-62998314D01*
X140042304Y-62998314D01*
X138782326Y-61738336D01*
X141086142Y-61738336D01*
X141086142Y-61990954D01*
X141182815Y-62224344D01*
X141777180Y-62818708D01*
X142001686Y-62818708D01*
X142920395Y-61900000D01*
X141966331Y-60945936D01*
X141741825Y-60945936D01*
X141182814Y-61504947D01*
X141086142Y-61738336D01*
X138782326Y-61738336D01*
X137782135Y-60738145D01*
X137663513Y-60657095D01*
X137512816Y-60624404D01*
X137361273Y-60652919D01*
X137232763Y-60738145D01*
X136101392Y-61869516D01*
X136020342Y-61988138D01*
X135987651Y-62138835D01*
X133492417Y-62138835D01*
X133486835Y-62085569D01*
X133480565Y-62022065D01*
X133474734Y-61959173D01*
X133469259Y-61896022D01*
X133464147Y-61832661D01*
X133459421Y-61769388D01*
X133455071Y-61706058D01*
X133451112Y-61642908D01*
X133447519Y-61579534D01*
X133444300Y-61516066D01*
X133441467Y-61452759D01*
X133439010Y-61389401D01*
X133436935Y-61326110D01*
X133435230Y-61262582D01*
X133433909Y-61199273D01*
X133432964Y-61135881D01*
X133432396Y-61072371D01*
X133432208Y-61009013D01*
X133432396Y-60945654D01*
X133432964Y-60882145D01*
X133433909Y-60818752D01*
X133435231Y-60755402D01*
X133436935Y-60691915D01*
X133439011Y-60628618D01*
X133441467Y-60565266D01*
X133444300Y-60501959D01*
X133447519Y-60438493D01*
X133451112Y-60375118D01*
X133455072Y-60311959D01*
X133459419Y-60248661D01*
X133464148Y-60185353D01*
X133469259Y-60122005D01*
X133474734Y-60058854D01*
X133480579Y-59995819D01*
X133486834Y-59932476D01*
X133493444Y-59869387D01*
X133500435Y-59806305D01*
X133507788Y-59743405D01*
X133515563Y-59680160D01*
X133523687Y-59617197D01*
X133532171Y-59554403D01*
X133541062Y-59491444D01*
X133550336Y-59428489D01*
X133559960Y-59365779D01*
X133569972Y-59303042D01*
X133580347Y-59240438D01*
X133591133Y-59177693D01*
X133602300Y-59114988D01*
X133613810Y-59052532D01*
X133625733Y-58989948D01*
X133638018Y-58927503D01*
X133650678Y-58865144D01*
X133663731Y-58802766D01*
X133677124Y-58740632D01*
X133690905Y-58678513D01*
X133705088Y-58616357D01*
X133719649Y-58554272D01*
X133734572Y-58492328D01*
X133749862Y-58430496D01*
X133765544Y-58368681D01*
X133781618Y-58306891D01*
X133798062Y-58245213D01*
X133814847Y-58183750D01*
X133832042Y-58122252D01*
X133849665Y-58060664D01*
X133867595Y-57999407D01*
X133885942Y-57938109D01*
X133904604Y-57877106D01*
X133923719Y-57815950D01*
X133943155Y-57755069D01*
X133962972Y-57694274D01*
X133983196Y-57633484D01*
X134003828Y-57572708D01*
X134024743Y-57512307D01*
X134046114Y-57451785D01*
X134067810Y-57391509D01*
X134089932Y-57331212D01*
X134112403Y-57271102D01*
X134135307Y-57210958D01*
X134158529Y-57151082D01*
X134182161Y-57091236D01*
X134198001Y-57051831D01*
X136348300Y-59202130D01*
X136403275Y-59239693D01*
X137064291Y-59900709D01*
X137429916Y-60145012D01*
X137861200Y-60230800D01*
X142456961Y-60230800D01*
X142145936Y-60541825D01*
X142145936Y-60766331D01*
X143100000Y-61720395D01*
X143114143Y-61706253D01*
X143293748Y-61885858D01*
X143279605Y-61900000D01*
X144233669Y-62854064D01*
X144458175Y-62854064D01*
X145017186Y-62295053D01*
X145113858Y-62061664D01*
X145113858Y-61809046D01*
X145060858Y-61681093D01*
X145208359Y-61681222D01*
X145788183Y-61441644D01*
X146232187Y-60998414D01*
X146472776Y-60419010D01*
X146473324Y-59791641D01*
X146233746Y-59211817D01*
X145790516Y-58767813D01*
X145211112Y-58527224D01*
X144912982Y-58526964D01*
X144692909Y-58306891D01*
X144327284Y-58062588D01*
X143896000Y-57976800D01*
X138328018Y-57976800D01*
X138009043Y-57657825D01*
X138058491Y-57691611D01*
X138209188Y-57724302D01*
X138360731Y-57695787D01*
X138489241Y-57610561D01*
X138493936Y-57605866D01*
X138523190Y-57625412D01*
X138604562Y-57679783D01*
X138604570Y-57679785D01*
X138604578Y-57679790D01*
X138704676Y-57699697D01*
X138798200Y-57718300D01*
X138798208Y-57718298D01*
X138798217Y-57718300D01*
X138905232Y-57697010D01*
X138991838Y-57679783D01*
X138991844Y-57679779D01*
X138991854Y-57679777D01*
X139080641Y-57620447D01*
X139155996Y-57570096D01*
X139381511Y-57344581D01*
X139424641Y-57387787D01*
X139674846Y-57491682D01*
X139945765Y-57491918D01*
X140196152Y-57388461D01*
X140387887Y-57197059D01*
X140491782Y-56946854D01*
X140492018Y-56675935D01*
X140388561Y-56425548D01*
X140205893Y-56242563D01*
X140229279Y-56219177D01*
X140229279Y-55994671D01*
X138744885Y-54510277D01*
X138730743Y-54524420D01*
X138551137Y-54344814D01*
X138565280Y-54330672D01*
X138551138Y-54316530D01*
X138730743Y-54136925D01*
X138744885Y-54151067D01*
X138759027Y-54136924D01*
X138938633Y-54316530D01*
X138924490Y-54330672D01*
X140408884Y-55815066D01*
X140633390Y-55815066D01*
X140874202Y-55574254D01*
X140970875Y-55340865D01*
X140970876Y-55088246D01*
X140874203Y-54854857D01*
X140873064Y-54853718D01*
X140886918Y-54863184D01*
X141037615Y-54895875D01*
X141189158Y-54867360D01*
X141317668Y-54782134D01*
X141322297Y-54777505D01*
X141432862Y-54851383D01*
X141626500Y-54889900D01*
X141820138Y-54851383D01*
X141893446Y-54802400D01*
X143045077Y-54802400D01*
X143115941Y-54873387D01*
X143366146Y-54977282D01*
X143637065Y-54977518D01*
X143846848Y-54890838D01*
X146142308Y-57186298D01*
X146260930Y-57267348D01*
X146411627Y-57300039D01*
X146563170Y-57271524D01*
X146691680Y-57186298D01*
X147823051Y-56054927D01*
X147904101Y-55936305D01*
X147936792Y-55785608D01*
X147908277Y-55634065D01*
X147823051Y-55505555D01*
X147610793Y-55293297D01*
X148518743Y-55293297D01*
X148743737Y-55837823D01*
X149159985Y-56254799D01*
X149704118Y-56480743D01*
X150293297Y-56481257D01*
X150837823Y-56256263D01*
X151254799Y-55840015D01*
X151480743Y-55295882D01*
X151481257Y-54706703D01*
X151256263Y-54162177D01*
X150840015Y-53745201D01*
X150295882Y-53519257D01*
X149706703Y-53518743D01*
X149162177Y-53743737D01*
X148745201Y-54159985D01*
X148519257Y-54704118D01*
X148518743Y-55293297D01*
X147610793Y-55293297D01*
X145418888Y-53101392D01*
X145300266Y-53020342D01*
X145149569Y-52987651D01*
X144998026Y-53016166D01*
X144869516Y-53101392D01*
X144069819Y-53901089D01*
X143888459Y-53719413D01*
X143638254Y-53615518D01*
X143367335Y-53615282D01*
X143116948Y-53718739D01*
X143045162Y-53790400D01*
X142135636Y-53790400D01*
X142110001Y-53654165D01*
X142024775Y-53525655D01*
X139804806Y-51305686D01*
X139845521Y-51288149D01*
X139904914Y-51262997D01*
X139964241Y-51238301D01*
X140023957Y-51213873D01*
X140083497Y-51189941D01*
X140143402Y-51166287D01*
X140203230Y-51143086D01*
X140263273Y-51120223D01*
X140323591Y-51097676D01*
X140383610Y-51075658D01*
X140444096Y-51053886D01*
X140504507Y-51032556D01*
X140564982Y-51011617D01*
X140625770Y-50990983D01*
X140686456Y-50970795D01*
X140747353Y-50950947D01*
X140808353Y-50931475D01*
X140869368Y-50912405D01*
X140930427Y-50893728D01*
X140991781Y-50875367D01*
X141052950Y-50857463D01*
X141114482Y-50839858D01*
X141175893Y-50822689D01*
X141237545Y-50805853D01*
X141299214Y-50789414D01*
X141360865Y-50773378D01*
X141422773Y-50757673D01*
X141484486Y-50742412D01*
X141546510Y-50727471D01*
X141608556Y-50712920D01*
X141670688Y-50698743D01*
X141732908Y-50684941D01*
X141795069Y-50671543D01*
X141857418Y-50658497D01*
X141919889Y-50645817D01*
X141982190Y-50633561D01*
X142044762Y-50621641D01*
X142107280Y-50610120D01*
X142169737Y-50598998D01*
X142232526Y-50588204D01*
X142295280Y-50577803D01*
X142357986Y-50567797D01*
X142420745Y-50558167D01*
X142483704Y-50548893D01*
X142546649Y-50540004D01*
X142609404Y-50531525D01*
X142672419Y-50523395D01*
X142735670Y-50515619D01*
X142798570Y-50508267D01*
X142861569Y-50501285D01*
X142924748Y-50494666D01*
X142987916Y-50488428D01*
X143051253Y-50482556D01*
X143114253Y-50477094D01*
X143177685Y-50471976D01*
X143240808Y-50467262D01*
X143304218Y-50462907D01*
X143367313Y-50458951D01*
X143430811Y-50455350D01*
X143494209Y-50452135D01*
X143557517Y-50449302D01*
X143620846Y-50446847D01*
X143684203Y-50444768D01*
X143747678Y-50443064D01*
X143811042Y-50441742D01*
X143874371Y-50440798D01*
X143937921Y-50440229D01*
X144001273Y-50440040D01*
X144064625Y-50440228D01*
X144064625Y-50440228D01*
G37*
X144064625Y-50440228D02*
X144128177Y-50440796D01*
X144191503Y-50441739D01*
X144254868Y-50443061D01*
X144318338Y-50444763D01*
X144381540Y-50446835D01*
X144445191Y-50449303D01*
X144508346Y-50452128D01*
X144571737Y-50455342D01*
X144635076Y-50458933D01*
X144698497Y-50462908D01*
X144761574Y-50467239D01*
X144825031Y-50471977D01*
X144888130Y-50477067D01*
X144951449Y-50482556D01*
X145014666Y-50488416D01*
X145077663Y-50494636D01*
X145140900Y-50501261D01*
X145203973Y-50508250D01*
X145266957Y-50515610D01*
X145330068Y-50523368D01*
X145393009Y-50531488D01*
X145456027Y-50540001D01*
X145518894Y-50548877D01*
X145581838Y-50558149D01*
X145644547Y-50567770D01*
X145707253Y-50577775D01*
X145770034Y-50588179D01*
X145832634Y-50598940D01*
X145895321Y-50610102D01*
X145957943Y-50621641D01*
X146020193Y-50633498D01*
X146082699Y-50645793D01*
X146145099Y-50658458D01*
X146207468Y-50671507D01*
X146269770Y-50684935D01*
X146331734Y-50698680D01*
X146394102Y-50712909D01*
X146456041Y-50727433D01*
X146517892Y-50742332D01*
X146579953Y-50757676D01*
X146641585Y-50773311D01*
X146703561Y-50789431D01*
X146765032Y-50805818D01*
X146826538Y-50822612D01*
X146888285Y-50839875D01*
X146949634Y-50857427D01*
X147010937Y-50875369D01*
X147072125Y-50893681D01*
X147133182Y-50912355D01*
X147194363Y-50931477D01*
X147255292Y-50950926D01*
X147316227Y-50970786D01*
X147376821Y-50990942D01*
X147437468Y-51011527D01*
X147498131Y-51032530D01*
X147558572Y-51053869D01*
X147618962Y-51075606D01*
X147679151Y-51097686D01*
X147739224Y-51120141D01*
X147799332Y-51143027D01*
X147859229Y-51166254D01*
X147919111Y-51189898D01*
X147978626Y-51213818D01*
X148038311Y-51238233D01*
X148097774Y-51262984D01*
X148157020Y-51288072D01*
X148216270Y-51313592D01*
X148275320Y-51339458D01*
X148334188Y-51365675D01*
X148393100Y-51392349D01*
X148451824Y-51419373D01*
X148510238Y-51446693D01*
X148568742Y-51474495D01*
X148626918Y-51502583D01*
X148685152Y-51531144D01*
X148743171Y-51560046D01*
X148801097Y-51589350D01*
X148858780Y-51618981D01*
X148916395Y-51649030D01*
X148973785Y-51679415D01*
X149031173Y-51710257D01*
X149088227Y-51741376D01*
X149145124Y-51772870D01*
X149202088Y-51804865D01*
X149258747Y-51837155D01*
X149315178Y-51869781D01*
X149371497Y-51902812D01*
X149427712Y-51936254D01*
X149483799Y-51970097D01*
X149539686Y-52004295D01*
X149595348Y-52038836D01*
X149650972Y-52073836D01*
X149706333Y-52109158D01*
X149761431Y-52144796D01*
X149816504Y-52180911D01*
X149871428Y-52217422D01*
X149925944Y-52254155D01*
X149980479Y-52291401D01*
X150034731Y-52328955D01*
X150088958Y-52366998D01*
X150142801Y-52405278D01*
X150196595Y-52444034D01*
X150250209Y-52483175D01*
X150303543Y-52522629D01*
X150356675Y-52562453D01*
X150409693Y-52602714D01*
X150462531Y-52643368D01*
X150515144Y-52684379D01*
X150567481Y-52725707D01*
X150619640Y-52767431D01*
X150671815Y-52809712D01*
X150723542Y-52852174D01*
X150775095Y-52895039D01*
X150826503Y-52938338D01*
X150877665Y-52981984D01*
X150928567Y-53025965D01*
X150979417Y-53070468D01*
X151029924Y-53115239D01*
X151080218Y-53160391D01*
X151130288Y-53205919D01*
X151180225Y-53251903D01*
X151229889Y-53298224D01*
X151279296Y-53344892D01*
X151328548Y-53392008D01*
X151377513Y-53439445D01*
X151426302Y-53487318D01*
X151474970Y-53535679D01*
X151504355Y-53565179D01*
X151533887Y-53595056D01*
X151563119Y-53624861D01*
X151592301Y-53654850D01*
X151621262Y-53684841D01*
X151650182Y-53715024D01*
X151678927Y-53745258D01*
X151707419Y-53775461D01*
X151735694Y-53805667D01*
X151764162Y-53836316D01*
X151792200Y-53866738D01*
X151820253Y-53897416D01*
X151848084Y-53928090D01*
X151875884Y-53958969D01*
X151903490Y-53989871D01*
X151930811Y-54020695D01*
X151958089Y-54051713D01*
X151985198Y-54082780D01*
X152012335Y-54114123D01*
X152039227Y-54145428D01*
X152065888Y-54176711D01*
X152092591Y-54208289D01*
X152118794Y-54239519D01*
X152145197Y-54271238D01*
X152171332Y-54302882D01*
X152197387Y-54334679D01*
X152223160Y-54366382D01*
X152248983Y-54398400D01*
X152274511Y-54430303D01*
X152299920Y-54462310D01*
X152325115Y-54494300D01*
X152350197Y-54526401D01*
X152375286Y-54558769D01*
X152400218Y-54591191D01*
X152425060Y-54623757D01*
X152449525Y-54656088D01*
X152473979Y-54688664D01*
X152498324Y-54721357D01*
X152522420Y-54753979D01*
X152546434Y-54786752D01*
X152570387Y-54819708D01*
X152594035Y-54852511D01*
X152617570Y-54885423D01*
X152640985Y-54918435D01*
X152664307Y-54951584D01*
X152687509Y-54984835D01*
X152710476Y-55018022D01*
X152733368Y-55051373D01*
X152756102Y-55084767D01*
X152778852Y-55118463D01*
X152801294Y-55151984D01*
X152823522Y-55185461D01*
X152845664Y-55219088D01*
X152867664Y-55252779D01*
X152889610Y-55286671D01*
X152911283Y-55320426D01*
X152933024Y-55354571D01*
X152954361Y-55388372D01*
X152975640Y-55422366D01*
X152996882Y-55456591D01*
X153017793Y-55490573D01*
X153038818Y-55525034D01*
X153059563Y-55559332D01*
X153080034Y-55593472D01*
X153100548Y-55627981D01*
X153120857Y-55662442D01*
X153141076Y-55697057D01*
X153161118Y-55731669D01*
X153181010Y-55766326D01*
X153200740Y-55801007D01*
X153220276Y-55835654D01*
X153239860Y-55870696D01*
X153259095Y-55905427D01*
X153278360Y-55940522D01*
X153297355Y-55975444D01*
X153316154Y-56010318D01*
X153335021Y-56045640D01*
X153353710Y-56080952D01*
X153372193Y-56116202D01*
X153390484Y-56151406D01*
X153408629Y-56186655D01*
X153426603Y-56221902D01*
X153444541Y-56257407D01*
X153462361Y-56293016D01*
X153479945Y-56328489D01*
X153497437Y-56364114D01*
X153514773Y-56399762D01*
X153532092Y-56435722D01*
X153549068Y-56471314D01*
X153566033Y-56507230D01*
X153582740Y-56542951D01*
X153599333Y-56578776D01*
X153615820Y-56614730D01*
X153632233Y-56650882D01*
X153648353Y-56686747D01*
X153664436Y-56722894D01*
X153680375Y-56759084D01*
X153696169Y-56795313D01*
X153711792Y-56831522D01*
X153727291Y-56867820D01*
X153742632Y-56904124D01*
X153757923Y-56940691D01*
X153772939Y-56976989D01*
X153787892Y-57013516D01*
X153802584Y-57049798D01*
X153817350Y-57086656D01*
X153831801Y-57123127D01*
X153846150Y-57159739D01*
X153860362Y-57196405D01*
X153874469Y-57233211D01*
X153888432Y-57270051D01*
X153902223Y-57306857D01*
X153915886Y-57343738D01*
X153929381Y-57380588D01*
X153942729Y-57417462D01*
X153956011Y-57454588D01*
X153969026Y-57491398D01*
X153982080Y-57528764D01*
X153994853Y-57565770D01*
X154007456Y-57602727D01*
X154019968Y-57639874D01*
X154032384Y-57677192D01*
X154044621Y-57714432D01*
X154056693Y-57751637D01*
X154068664Y-57789008D01*
X154080540Y-57826562D01*
X154092159Y-57863786D01*
X154103649Y-57901081D01*
X154115115Y-57938798D01*
X154126304Y-57976097D01*
X154137464Y-58013811D01*
X154148379Y-58051204D01*
X154159245Y-58088951D01*
X154169844Y-58126295D01*
X154180495Y-58164354D01*
X154190806Y-58201733D01*
X154201097Y-58239586D01*
X154211178Y-58277217D01*
X154221148Y-58314985D01*
X154231008Y-58352915D01*
X154240715Y-58390823D01*
X154250190Y-58428412D01*
X154259666Y-58466593D01*
X154268917Y-58504469D01*
X154278045Y-58542449D01*
X154287029Y-58580446D01*
X154295826Y-58618277D01*
X154304519Y-58656293D01*
X154313075Y-58694352D01*
X154321515Y-58732559D01*
X154329765Y-58770566D01*
X154337912Y-58808781D01*
X154345886Y-58846874D01*
X154353743Y-58885105D01*
X154361499Y-58923566D01*
X154369061Y-58961791D01*
X154376435Y-58999801D01*
X154383711Y-59038051D01*
X154390876Y-59076490D01*
X154397833Y-59114589D01*
X154404715Y-59153075D01*
X154411427Y-59191432D01*
X154417999Y-59229809D01*
X154424411Y-59268101D01*
X154430750Y-59306831D01*
X154436857Y-59345011D01*
X154442865Y-59383483D01*
X154448705Y-59421811D01*
X154454463Y-59460541D01*
X154460012Y-59498835D01*
X154465479Y-59537555D01*
X154470758Y-59575971D01*
X154475921Y-59614586D01*
X154480933Y-59653146D01*
X154485840Y-59692003D01*
X154490511Y-59730134D01*
X154495152Y-59769188D01*
X154499573Y-59807588D01*
X154503861Y-59846072D01*
X154508059Y-59885056D01*
X154512057Y-59923489D01*
X154515943Y-59962231D01*
X154519690Y-60001011D01*
X154523261Y-60039443D01*
X154526753Y-60078569D01*
X154530066Y-60117297D01*
X154533202Y-60155592D01*
X154536259Y-60194670D01*
X154539133Y-60233239D01*
X154541887Y-60272096D01*
X154544476Y-60310617D01*
X154546947Y-60349503D01*
X154549282Y-60388512D01*
X154551456Y-60427191D01*
X154553486Y-60465832D01*
X154555393Y-60504824D01*
X154557146Y-60543584D01*
X154558756Y-60582316D01*
X154560236Y-60621359D01*
X154561560Y-60659991D01*
X154562745Y-60698708D01*
X154563793Y-60737532D01*
X154564701Y-60776490D01*
X154565464Y-60815339D01*
X154566088Y-60854256D01*
X154566566Y-60892926D01*
X154566907Y-60932088D01*
X154567102Y-60970463D01*
X154567157Y-61009495D01*
X154567072Y-61048270D01*
X154566843Y-61087228D01*
X154566473Y-61126097D01*
X154565960Y-61165044D01*
X154565312Y-61203633D01*
X154564515Y-61242593D01*
X154563579Y-61281411D01*
X154562499Y-61320322D01*
X154561283Y-61359036D01*
X154559929Y-61397667D01*
X154558418Y-61436708D01*
X154556765Y-61475714D01*
X154554989Y-61514330D01*
X154553065Y-61553062D01*
X154550998Y-61591808D01*
X154548778Y-61630764D01*
X154546433Y-61669426D01*
X154543940Y-61708202D01*
X154541309Y-61746903D01*
X154538508Y-61785991D01*
X154535617Y-61824386D01*
X154532534Y-61863420D01*
X154529348Y-61901958D01*
X154526002Y-61940709D01*
X154522527Y-61979313D01*
X154518869Y-62018344D01*
X154515133Y-62056720D01*
X154511209Y-62095536D01*
X154507173Y-62134054D01*
X154502956Y-62172942D01*
X154498636Y-62211455D01*
X154494149Y-62250180D01*
X154489536Y-62288757D01*
X154484793Y-62327230D01*
X154479880Y-62365911D01*
X154474823Y-62404603D01*
X154469669Y-62442935D01*
X154464310Y-62481721D01*
X154458859Y-62520131D01*
X154453256Y-62558597D01*
X154447529Y-62596945D01*
X154441589Y-62635739D01*
X154435594Y-62673950D01*
X154432328Y-62694285D01*
X145686431Y-71440181D01*
X145666357Y-71443405D01*
X145627630Y-71449480D01*
X145589206Y-71455363D01*
X145550658Y-71461120D01*
X145512273Y-71466711D01*
X145473802Y-71472170D01*
X145434980Y-71477532D01*
X145396706Y-71482677D01*
X145358004Y-71487736D01*
X145319567Y-71492617D01*
X145280712Y-71497406D01*
X145242271Y-71502002D01*
X145203520Y-71506492D01*
X145165160Y-71510794D01*
X145126165Y-71515023D01*
X145087643Y-71519058D01*
X145048908Y-71522973D01*
X145010448Y-71526718D01*
X144971367Y-71530379D01*
X144932885Y-71533843D01*
X144894119Y-71537189D01*
X144855511Y-71540379D01*
X144816492Y-71543461D01*
X144777987Y-71546360D01*
X144739249Y-71549134D01*
X144700305Y-71551782D01*
X144661464Y-71554279D01*
X144622966Y-71556612D01*
X144583872Y-71558840D01*
X144545473Y-71560886D01*
X144506572Y-71562819D01*
X144467557Y-71564614D01*
X144428824Y-71566254D01*
X144389872Y-71567760D01*
X144351223Y-71569115D01*
X144312332Y-71570335D01*
X144273526Y-71571411D01*
X144234653Y-71572348D01*
X144195846Y-71573140D01*
X144157069Y-71573792D01*
X144118275Y-71574300D01*
X144079294Y-71574671D01*
X144040399Y-71574898D01*
X144001757Y-71574983D01*
X143962568Y-71574926D01*
X143924191Y-71574730D01*
X143885032Y-71574388D01*
X143846360Y-71573909D01*
X143807229Y-71573281D01*
X143768813Y-71572524D01*
X143729634Y-71571610D01*
X143691078Y-71570570D01*
X143652102Y-71569375D01*
X143613306Y-71568045D01*
X143574581Y-71566575D01*
X143535679Y-71564957D01*
X143496941Y-71563205D01*
X143458208Y-71561310D01*
X143419231Y-71559261D01*
X143380450Y-71557080D01*
X143341602Y-71554753D01*
X143302938Y-71552296D01*
X143264177Y-71549690D01*
X143225315Y-71546935D01*
X143186784Y-71544062D01*
X143147986Y-71541026D01*
X143109162Y-71537846D01*
X143070621Y-71534548D01*
X143031602Y-71531063D01*
X142993107Y-71527485D01*
X142954364Y-71523740D01*
X142915591Y-71519850D01*
X142876919Y-71515826D01*
X142838131Y-71511646D01*
X142799750Y-71507369D01*
X142761082Y-71502917D01*
X142722606Y-71498343D01*
X142683750Y-71493581D01*
X142645319Y-71488728D01*
X142606679Y-71483704D01*
X142568025Y-71478534D01*
X142529775Y-71473276D01*
X142491176Y-71467825D01*
X142452462Y-71462214D01*
X142414143Y-71456517D01*
X142375676Y-71450653D01*
X142337334Y-71444665D01*
X142298758Y-71438495D01*
X142260128Y-71432170D01*
X142222097Y-71425800D01*
X142183482Y-71419187D01*
X142145163Y-71412479D01*
X142106842Y-71405626D01*
X142068455Y-71398615D01*
X142030270Y-71391496D01*
X141992056Y-71384226D01*
X141953621Y-71376767D01*
X141915632Y-71369250D01*
X141877274Y-71361514D01*
X141838965Y-71353639D01*
X141800994Y-71345689D01*
X141762778Y-71337540D01*
X141724565Y-71329245D01*
X141686714Y-71320882D01*
X141648555Y-71312303D01*
X141610399Y-71303577D01*
X141572612Y-71294789D01*
X141534488Y-71285773D01*
X141496468Y-71276634D01*
X141458670Y-71267400D01*
X141420861Y-71258016D01*
X141382892Y-71248443D01*
X141344959Y-71238730D01*
X141307328Y-71228945D01*
X141269502Y-71218960D01*
X141231577Y-71208799D01*
X141194063Y-71198598D01*
X141156173Y-71188144D01*
X141118685Y-71177652D01*
X141081177Y-71167004D01*
X141043192Y-71156069D01*
X141005686Y-71145119D01*
X140968465Y-71134104D01*
X140930631Y-71122753D01*
X140893483Y-71111459D01*
X140855955Y-71099895D01*
X140818634Y-71088246D01*
X140781211Y-71076409D01*
X140743929Y-71064464D01*
X140706413Y-71052292D01*
X140669193Y-71040059D01*
X140632046Y-71027699D01*
X140594789Y-71015147D01*
X140557987Y-71002596D01*
X140520560Y-70989676D01*
X140483741Y-70976811D01*
X140446706Y-70963716D01*
X140409639Y-70950454D01*
X140372843Y-70937133D01*
X140335836Y-70923579D01*
X140298957Y-70909915D01*
X140262153Y-70896122D01*
X140225399Y-70882191D01*
X140188669Y-70868111D01*
X140152062Y-70853921D01*
X140115466Y-70839578D01*
X140078789Y-70825044D01*
X140042027Y-70810316D01*
X140005774Y-70795634D01*
X139969308Y-70780707D01*
X139932801Y-70765602D01*
X139896348Y-70750358D01*
X139859839Y-70734929D01*
X139823814Y-70719544D01*
X139787501Y-70703876D01*
X139751252Y-70688072D01*
X139715054Y-70672128D01*
X139679003Y-70656086D01*
X139642987Y-70639898D01*
X139607033Y-70623573D01*
X139571000Y-70607048D01*
X139535143Y-70590439D01*
X139499264Y-70573656D01*
X139463407Y-70556718D01*
X139427760Y-70539713D01*
X139391860Y-70522422D01*
X139356265Y-70505109D01*
X139320910Y-70487749D01*
X139285154Y-70470023D01*
X139249732Y-70452295D01*
X139214303Y-70434397D01*
X139178861Y-70416320D01*
X139143552Y-70398145D01*
X139108138Y-70379743D01*
X139073051Y-70361342D01*
X139037786Y-70342676D01*
X139002763Y-70323969D01*
X138967793Y-70305118D01*
X138932700Y-70286029D01*
X138897894Y-70266923D01*
X138862820Y-70247495D01*
X138827957Y-70228011D01*
X138793381Y-70208515D01*
X138758402Y-70188614D01*
X138723873Y-70168795D01*
X138689395Y-70148830D01*
X138654720Y-70128572D01*
X138620370Y-70108330D01*
X138585978Y-70087886D01*
X138551388Y-70067142D01*
X138517206Y-70046467D01*
X138483048Y-70025626D01*
X138448878Y-70004599D01*
X138414616Y-69983334D01*
X138380687Y-69962095D01*
X138346635Y-69940596D01*
X138312913Y-69919124D01*
X138278793Y-69897215D01*
X138245156Y-69875434D01*
X138211386Y-69853382D01*
X138177791Y-69831260D01*
X138144237Y-69808980D01*
X138110781Y-69786580D01*
X138077254Y-69763945D01*
X138043742Y-69741131D01*
X138010492Y-69718308D01*
X137977204Y-69695271D01*
X137943968Y-69672079D01*
X137911053Y-69648922D01*
X137877980Y-69625464D01*
X137844926Y-69601827D01*
X137811839Y-69577973D01*
X137779251Y-69554286D01*
X137746393Y-69530210D01*
X137713571Y-69505965D01*
X137681099Y-69481785D01*
X137648395Y-69457234D01*
X137615998Y-69432718D01*
X137583753Y-69408120D01*
X137551290Y-69383159D01*
X137519025Y-69358149D01*
X137486807Y-69332977D01*
X137454769Y-69307744D01*
X137422656Y-69282251D01*
X137390519Y-69256535D01*
X137358737Y-69230899D01*
X137326950Y-69205057D01*
X137295121Y-69178975D01*
X137263684Y-69153012D01*
X137232151Y-69126762D01*
X137200462Y-69100174D01*
X137169117Y-69073667D01*
X137137803Y-69046979D01*
X137106413Y-69020014D01*
X137075142Y-68992938D01*
X137044236Y-68965969D01*
X137013193Y-68938668D01*
X136982336Y-68911319D01*
X136951331Y-68883622D01*
X136920586Y-68855942D01*
X136889882Y-68828084D01*
X136859359Y-68800170D01*
X136828791Y-68772001D01*
X136798393Y-68743766D01*
X136767962Y-68715281D01*
X136737685Y-68686720D01*
X136707415Y-68657941D01*
X136677300Y-68629087D01*
X136647385Y-68600200D01*
X136617280Y-68570902D01*
X136587529Y-68541723D01*
X136557655Y-68512195D01*
X136528172Y-68482827D01*
X136479809Y-68434156D01*
X136431993Y-68385424D01*
X136384406Y-68336305D01*
X136337376Y-68287143D01*
X136290615Y-68237639D01*
X136244399Y-68188087D01*
X136198435Y-68138175D01*
X136152873Y-68088067D01*
X136107741Y-68037797D01*
X136062898Y-67987209D01*
X136018430Y-67936401D01*
X135974494Y-67885555D01*
X135930766Y-67834298D01*
X135887562Y-67783003D01*
X135844558Y-67731286D01*
X135802083Y-67679543D01*
X135759865Y-67627447D01*
X135718194Y-67575358D01*
X135676764Y-67522893D01*
X135635798Y-67470340D01*
X135595198Y-67417574D01*
X135554900Y-67364511D01*
X135515060Y-67311363D01*
X135501696Y-67293297D01*
X136518743Y-67293297D01*
X136743737Y-67837823D01*
X137159985Y-68254799D01*
X137704118Y-68480743D01*
X138293297Y-68481257D01*
X138837823Y-68256263D01*
X139254799Y-67840015D01*
X139480743Y-67295882D01*
X139481257Y-66706703D01*
X139256263Y-66162177D01*
X138840015Y-65745201D01*
X138295882Y-65519257D01*
X137706703Y-65518743D01*
X137162177Y-65743737D01*
X136745201Y-66159985D01*
X136519257Y-66704118D01*
X136518743Y-67293297D01*
X135501696Y-67293297D01*
X135475555Y-67257961D01*
X135436413Y-67204348D01*
X135397711Y-67150633D01*
X135359370Y-67096707D01*
X135321394Y-67042578D01*
X135283795Y-66988266D01*
X135246624Y-66933842D01*
X135209707Y-66879058D01*
X135173203Y-66824148D01*
X135137165Y-66769192D01*
X135101497Y-66714054D01*
X135066142Y-66658642D01*
X135031223Y-66603152D01*
X134996685Y-66547497D01*
X134962416Y-66491500D01*
X134928673Y-66435581D01*
X134895192Y-66379306D01*
X134862131Y-66322940D01*
X134829482Y-66266474D01*
X134797176Y-66209791D01*
X134765225Y-66152909D01*
X134733763Y-66096076D01*
X134702564Y-66038882D01*
X134671735Y-65981522D01*
X134641326Y-65924090D01*
X134611307Y-65866538D01*
X134581653Y-65808815D01*
X134552375Y-65750946D01*
X134523466Y-65692917D01*
X134494879Y-65634636D01*
X134466811Y-65576506D01*
X134439063Y-65518124D01*
X134411659Y-65459534D01*
X134384622Y-65400791D01*
X134357965Y-65341919D01*
X134331734Y-65283029D01*
X134305817Y-65223863D01*
X134280331Y-65164698D01*
X134255288Y-65105564D01*
X134230515Y-65046053D01*
X134206135Y-64986460D01*
X134182091Y-64926645D01*
X134158519Y-64866948D01*
X134135312Y-64807111D01*
X134112431Y-64747026D01*
X134089962Y-64686920D01*
X134067783Y-64626467D01*
X134046077Y-64566164D01*
X134024793Y-64505886D01*
X134003764Y-64445155D01*
X133983230Y-64384665D01*
X133962959Y-64323735D01*
X133943127Y-64262886D01*
X133923659Y-64201904D01*
X133904619Y-64140986D01*
X133885930Y-64079893D01*
X133867584Y-64018598D01*
X133849647Y-63957316D01*
X133832030Y-63895748D01*
X133814859Y-63834335D01*
X133798061Y-63772827D01*
X133781628Y-63711187D01*
X133765555Y-63649400D01*
X133749872Y-63587582D01*
X133734553Y-63525636D01*
X133719658Y-63463805D01*
X133705071Y-63401609D01*
X133690943Y-63339692D01*
X133677105Y-63277315D01*
X133663717Y-63215204D01*
X133650672Y-63152865D01*
X133637994Y-63090406D01*
X133625733Y-63028085D01*
X133613805Y-62965474D01*
X133602282Y-62902945D01*
X133591156Y-62840469D01*
X133580356Y-62777646D01*
X133569972Y-62714989D01*
X133559956Y-62652228D01*
X133550337Y-62589543D01*
X133541062Y-62526586D01*
X133532171Y-62463626D01*
X133523687Y-62400832D01*
X133515560Y-62337849D01*
X133507788Y-62274624D01*
X133500435Y-62211723D01*
X133493444Y-62148641D01*
X133492417Y-62138835D01*
X135987651Y-62138835D01*
X136016166Y-62290378D01*
X136101392Y-62418888D01*
X138505555Y-64823051D01*
X138624177Y-64904101D01*
X138774874Y-64936792D01*
X138926417Y-64908277D01*
X139054927Y-64823051D01*
X140186298Y-63691680D01*
X140267348Y-63573058D01*
X140300039Y-63422361D01*
X140271524Y-63270818D01*
X140186298Y-63142308D01*
X140042304Y-62998314D01*
X142181292Y-62998314D01*
X142181292Y-63222820D01*
X142775656Y-63817185D01*
X143009046Y-63913858D01*
X143261664Y-63913858D01*
X143495053Y-63817186D01*
X144054064Y-63258175D01*
X144054064Y-63033669D01*
X143100000Y-62079605D01*
X142181292Y-62998314D01*
X140042304Y-62998314D01*
X138782326Y-61738336D01*
X141086142Y-61738336D01*
X141086142Y-61990954D01*
X141182815Y-62224344D01*
X141777180Y-62818708D01*
X142001686Y-62818708D01*
X142920395Y-61900000D01*
X141966331Y-60945936D01*
X141741825Y-60945936D01*
X141182814Y-61504947D01*
X141086142Y-61738336D01*
X138782326Y-61738336D01*
X137782135Y-60738145D01*
X137663513Y-60657095D01*
X137512816Y-60624404D01*
X137361273Y-60652919D01*
X137232763Y-60738145D01*
X136101392Y-61869516D01*
X136020342Y-61988138D01*
X135987651Y-62138835D01*
X133492417Y-62138835D01*
X133486835Y-62085569D01*
X133480565Y-62022065D01*
X133474734Y-61959173D01*
X133469259Y-61896022D01*
X133464147Y-61832661D01*
X133459421Y-61769388D01*
X133455071Y-61706058D01*
X133451112Y-61642908D01*
X133447519Y-61579534D01*
X133444300Y-61516066D01*
X133441467Y-61452759D01*
X133439010Y-61389401D01*
X133436935Y-61326110D01*
X133435230Y-61262582D01*
X133433909Y-61199273D01*
X133432964Y-61135881D01*
X133432396Y-61072371D01*
X133432208Y-61009013D01*
X133432396Y-60945654D01*
X133432964Y-60882145D01*
X133433909Y-60818752D01*
X133435231Y-60755402D01*
X133436935Y-60691915D01*
X133439011Y-60628618D01*
X133441467Y-60565266D01*
X133444300Y-60501959D01*
X133447519Y-60438493D01*
X133451112Y-60375118D01*
X133455072Y-60311959D01*
X133459419Y-60248661D01*
X133464148Y-60185353D01*
X133469259Y-60122005D01*
X133474734Y-60058854D01*
X133480579Y-59995819D01*
X133486834Y-59932476D01*
X133493444Y-59869387D01*
X133500435Y-59806305D01*
X133507788Y-59743405D01*
X133515563Y-59680160D01*
X133523687Y-59617197D01*
X133532171Y-59554403D01*
X133541062Y-59491444D01*
X133550336Y-59428489D01*
X133559960Y-59365779D01*
X133569972Y-59303042D01*
X133580347Y-59240438D01*
X133591133Y-59177693D01*
X133602300Y-59114988D01*
X133613810Y-59052532D01*
X133625733Y-58989948D01*
X133638018Y-58927503D01*
X133650678Y-58865144D01*
X133663731Y-58802766D01*
X133677124Y-58740632D01*
X133690905Y-58678513D01*
X133705088Y-58616357D01*
X133719649Y-58554272D01*
X133734572Y-58492328D01*
X133749862Y-58430496D01*
X133765544Y-58368681D01*
X133781618Y-58306891D01*
X133798062Y-58245213D01*
X133814847Y-58183750D01*
X133832042Y-58122252D01*
X133849665Y-58060664D01*
X133867595Y-57999407D01*
X133885942Y-57938109D01*
X133904604Y-57877106D01*
X133923719Y-57815950D01*
X133943155Y-57755069D01*
X133962972Y-57694274D01*
X133983196Y-57633484D01*
X134003828Y-57572708D01*
X134024743Y-57512307D01*
X134046114Y-57451785D01*
X134067810Y-57391509D01*
X134089932Y-57331212D01*
X134112403Y-57271102D01*
X134135307Y-57210958D01*
X134158529Y-57151082D01*
X134182161Y-57091236D01*
X134198001Y-57051831D01*
X136348300Y-59202130D01*
X136403275Y-59239693D01*
X137064291Y-59900709D01*
X137429916Y-60145012D01*
X137861200Y-60230800D01*
X142456961Y-60230800D01*
X142145936Y-60541825D01*
X142145936Y-60766331D01*
X143100000Y-61720395D01*
X143114143Y-61706253D01*
X143293748Y-61885858D01*
X143279605Y-61900000D01*
X144233669Y-62854064D01*
X144458175Y-62854064D01*
X145017186Y-62295053D01*
X145113858Y-62061664D01*
X145113858Y-61809046D01*
X145060858Y-61681093D01*
X145208359Y-61681222D01*
X145788183Y-61441644D01*
X146232187Y-60998414D01*
X146472776Y-60419010D01*
X146473324Y-59791641D01*
X146233746Y-59211817D01*
X145790516Y-58767813D01*
X145211112Y-58527224D01*
X144912982Y-58526964D01*
X144692909Y-58306891D01*
X144327284Y-58062588D01*
X143896000Y-57976800D01*
X138328018Y-57976800D01*
X138009043Y-57657825D01*
X138058491Y-57691611D01*
X138209188Y-57724302D01*
X138360731Y-57695787D01*
X138489241Y-57610561D01*
X138493936Y-57605866D01*
X138523190Y-57625412D01*
X138604562Y-57679783D01*
X138604570Y-57679785D01*
X138604578Y-57679790D01*
X138704676Y-57699697D01*
X138798200Y-57718300D01*
X138798208Y-57718298D01*
X138798217Y-57718300D01*
X138905232Y-57697010D01*
X138991838Y-57679783D01*
X138991844Y-57679779D01*
X138991854Y-57679777D01*
X139080641Y-57620447D01*
X139155996Y-57570096D01*
X139381511Y-57344581D01*
X139424641Y-57387787D01*
X139674846Y-57491682D01*
X139945765Y-57491918D01*
X140196152Y-57388461D01*
X140387887Y-57197059D01*
X140491782Y-56946854D01*
X140492018Y-56675935D01*
X140388561Y-56425548D01*
X140205893Y-56242563D01*
X140229279Y-56219177D01*
X140229279Y-55994671D01*
X138744885Y-54510277D01*
X138730743Y-54524420D01*
X138551137Y-54344814D01*
X138565280Y-54330672D01*
X138551138Y-54316530D01*
X138730743Y-54136925D01*
X138744885Y-54151067D01*
X138759027Y-54136924D01*
X138938633Y-54316530D01*
X138924490Y-54330672D01*
X140408884Y-55815066D01*
X140633390Y-55815066D01*
X140874202Y-55574254D01*
X140970875Y-55340865D01*
X140970876Y-55088246D01*
X140874203Y-54854857D01*
X140873064Y-54853718D01*
X140886918Y-54863184D01*
X141037615Y-54895875D01*
X141189158Y-54867360D01*
X141317668Y-54782134D01*
X141322297Y-54777505D01*
X141432862Y-54851383D01*
X141626500Y-54889900D01*
X141820138Y-54851383D01*
X141893446Y-54802400D01*
X143045077Y-54802400D01*
X143115941Y-54873387D01*
X143366146Y-54977282D01*
X143637065Y-54977518D01*
X143846848Y-54890838D01*
X146142308Y-57186298D01*
X146260930Y-57267348D01*
X146411627Y-57300039D01*
X146563170Y-57271524D01*
X146691680Y-57186298D01*
X147823051Y-56054927D01*
X147904101Y-55936305D01*
X147936792Y-55785608D01*
X147908277Y-55634065D01*
X147823051Y-55505555D01*
X147610793Y-55293297D01*
X148518743Y-55293297D01*
X148743737Y-55837823D01*
X149159985Y-56254799D01*
X149704118Y-56480743D01*
X150293297Y-56481257D01*
X150837823Y-56256263D01*
X151254799Y-55840015D01*
X151480743Y-55295882D01*
X151481257Y-54706703D01*
X151256263Y-54162177D01*
X150840015Y-53745201D01*
X150295882Y-53519257D01*
X149706703Y-53518743D01*
X149162177Y-53743737D01*
X148745201Y-54159985D01*
X148519257Y-54704118D01*
X148518743Y-55293297D01*
X147610793Y-55293297D01*
X145418888Y-53101392D01*
X145300266Y-53020342D01*
X145149569Y-52987651D01*
X144998026Y-53016166D01*
X144869516Y-53101392D01*
X144069819Y-53901089D01*
X143888459Y-53719413D01*
X143638254Y-53615518D01*
X143367335Y-53615282D01*
X143116948Y-53718739D01*
X143045162Y-53790400D01*
X142135636Y-53790400D01*
X142110001Y-53654165D01*
X142024775Y-53525655D01*
X139804806Y-51305686D01*
X139845521Y-51288149D01*
X139904914Y-51262997D01*
X139964241Y-51238301D01*
X140023957Y-51213873D01*
X140083497Y-51189941D01*
X140143402Y-51166287D01*
X140203230Y-51143086D01*
X140263273Y-51120223D01*
X140323591Y-51097676D01*
X140383610Y-51075658D01*
X140444096Y-51053886D01*
X140504507Y-51032556D01*
X140564982Y-51011617D01*
X140625770Y-50990983D01*
X140686456Y-50970795D01*
X140747353Y-50950947D01*
X140808353Y-50931475D01*
X140869368Y-50912405D01*
X140930427Y-50893728D01*
X140991781Y-50875367D01*
X141052950Y-50857463D01*
X141114482Y-50839858D01*
X141175893Y-50822689D01*
X141237545Y-50805853D01*
X141299214Y-50789414D01*
X141360865Y-50773378D01*
X141422773Y-50757673D01*
X141484486Y-50742412D01*
X141546510Y-50727471D01*
X141608556Y-50712920D01*
X141670688Y-50698743D01*
X141732908Y-50684941D01*
X141795069Y-50671543D01*
X141857418Y-50658497D01*
X141919889Y-50645817D01*
X141982190Y-50633561D01*
X142044762Y-50621641D01*
X142107280Y-50610120D01*
X142169737Y-50598998D01*
X142232526Y-50588204D01*
X142295280Y-50577803D01*
X142357986Y-50567797D01*
X142420745Y-50558167D01*
X142483704Y-50548893D01*
X142546649Y-50540004D01*
X142609404Y-50531525D01*
X142672419Y-50523395D01*
X142735670Y-50515619D01*
X142798570Y-50508267D01*
X142861569Y-50501285D01*
X142924748Y-50494666D01*
X142987916Y-50488428D01*
X143051253Y-50482556D01*
X143114253Y-50477094D01*
X143177685Y-50471976D01*
X143240808Y-50467262D01*
X143304218Y-50462907D01*
X143367313Y-50458951D01*
X143430811Y-50455350D01*
X143494209Y-50452135D01*
X143557517Y-50449302D01*
X143620846Y-50446847D01*
X143684203Y-50444768D01*
X143747678Y-50443064D01*
X143811042Y-50441742D01*
X143874371Y-50440798D01*
X143937921Y-50440229D01*
X144001273Y-50440040D01*
X144064625Y-50440228D01*
M02*
