G04 #@! TF.FileFunction,Profile,NP*
%FSLAX46Y46*%
G04 Gerber Fmt 4.6, Leading zero omitted, Abs format (unit mm)*
G04 Created by KiCad (PCBNEW 4.0.4-stable) date 10/29/16 17:51:51*
%MOMM*%
%LPD*%
G01*
G04 APERTURE LIST*
%ADD10C,0.100000*%
G04 APERTURE END LIST*
D10*
X145853676Y-71849391D02*
X145893614Y-71842524D01*
X145813717Y-71856110D02*
X145853676Y-71849391D01*
X145773739Y-71862682D02*
X145813717Y-71856110D01*
X145733742Y-71869106D02*
X145773739Y-71862682D01*
X145693725Y-71875383D02*
X145733742Y-71869106D01*
X145653690Y-71881513D02*
X145693725Y-71875383D01*
X145613637Y-71887495D02*
X145653690Y-71881513D01*
X145573567Y-71893331D02*
X145613637Y-71887495D01*
X145533479Y-71899019D02*
X145573567Y-71893331D01*
X145493375Y-71904559D02*
X145533479Y-71899019D01*
X145453254Y-71909952D02*
X145493375Y-71904559D01*
X145413118Y-71915198D02*
X145453254Y-71909952D01*
X145372966Y-71920297D02*
X145413118Y-71915198D01*
X145332800Y-71925248D02*
X145372966Y-71920297D01*
X145292619Y-71930052D02*
X145332800Y-71925248D01*
X145252424Y-71934709D02*
X145292619Y-71930052D01*
X145212215Y-71939218D02*
X145252424Y-71934709D01*
X145171993Y-71943580D02*
X145212215Y-71939218D01*
X145131759Y-71947795D02*
X145171993Y-71943580D01*
X145091512Y-71951863D02*
X145131759Y-71947795D01*
X145051253Y-71955783D02*
X145091512Y-71951863D01*
X145010983Y-71959555D02*
X145051253Y-71955783D01*
X144970702Y-71963181D02*
X145010983Y-71959555D01*
X144930410Y-71966659D02*
X144970702Y-71963181D01*
X144890108Y-71969989D02*
X144930410Y-71966659D01*
X144849797Y-71973173D02*
X144890108Y-71969989D01*
X144809476Y-71976209D02*
X144849797Y-71973173D01*
X144769147Y-71979097D02*
X144809476Y-71976209D01*
X144728809Y-71981839D02*
X144769147Y-71979097D01*
X144688463Y-71984433D02*
X144728809Y-71981839D01*
X144648110Y-71986879D02*
X144688463Y-71984433D01*
X144607750Y-71989179D02*
X144648110Y-71986879D01*
X144567383Y-71991330D02*
X144607750Y-71989179D01*
X144527010Y-71993335D02*
X144567383Y-71991330D01*
X144486632Y-71995192D02*
X144527010Y-71993335D01*
X144446248Y-71996902D02*
X144486632Y-71995192D01*
X144405859Y-71998464D02*
X144446248Y-71996902D01*
X144365466Y-71999880D02*
X144405859Y-71998464D01*
X144325069Y-72001147D02*
X144365466Y-71999880D01*
X144284669Y-72002268D02*
X144325069Y-72001147D01*
X144244265Y-72003241D02*
X144284669Y-72002268D01*
X144203859Y-72004066D02*
X144244265Y-72003241D01*
X144163450Y-72004745D02*
X144203859Y-72004066D01*
X144123040Y-72005275D02*
X144163450Y-72004745D01*
X144082629Y-72005659D02*
X144123040Y-72005275D01*
X144042216Y-72005895D02*
X144082629Y-72005659D01*
X144001804Y-72005984D02*
X144042216Y-72005895D01*
X143961391Y-72005925D02*
X144001804Y-72005984D01*
X143920978Y-72005719D02*
X143961391Y-72005925D01*
X143880567Y-72005366D02*
X143920978Y-72005719D01*
X143840157Y-72004865D02*
X143880567Y-72005366D01*
X143799748Y-72004217D02*
X143840157Y-72004865D01*
X143759342Y-72003421D02*
X143799748Y-72004217D01*
X143718938Y-72002478D02*
X143759342Y-72003421D01*
X143678538Y-72001388D02*
X143718938Y-72002478D01*
X143638141Y-72000150D02*
X143678538Y-72001388D01*
X143597748Y-71998765D02*
X143638141Y-72000150D01*
X143557359Y-71997232D02*
X143597748Y-71998765D01*
X143516975Y-71995552D02*
X143557359Y-71997232D01*
X143476596Y-71993725D02*
X143516975Y-71995552D01*
X143436224Y-71991750D02*
X143476596Y-71993725D01*
X143395857Y-71989628D02*
X143436224Y-71991750D01*
X143355497Y-71987358D02*
X143395857Y-71989628D01*
X143315143Y-71984941D02*
X143355497Y-71987358D01*
X143274798Y-71982377D02*
X143315143Y-71984941D01*
X143234460Y-71979665D02*
X143274798Y-71982377D01*
X143194130Y-71976806D02*
X143234460Y-71979665D01*
X143153810Y-71973799D02*
X143194130Y-71976806D01*
X143113498Y-71970645D02*
X143153810Y-71973799D01*
X143073196Y-71967344D02*
X143113498Y-71970645D01*
X143032905Y-71963895D02*
X143073196Y-71967344D01*
X142992624Y-71960298D02*
X143032905Y-71963895D01*
X142952353Y-71956555D02*
X142992624Y-71960298D01*
X142912094Y-71952663D02*
X142952353Y-71956555D01*
X142871848Y-71948625D02*
X142912094Y-71952663D01*
X142831613Y-71944439D02*
X142871848Y-71948625D01*
X142791391Y-71940105D02*
X142831613Y-71944439D01*
X142751182Y-71935624D02*
X142791391Y-71940105D01*
X142710987Y-71930996D02*
X142751182Y-71935624D01*
X142670806Y-71926220D02*
X142710987Y-71930996D01*
X142630639Y-71921297D02*
X142670806Y-71926220D01*
X142590487Y-71916226D02*
X142630639Y-71921297D01*
X142550351Y-71911008D02*
X142590487Y-71916226D01*
X142510230Y-71905642D02*
X142550351Y-71911008D01*
X142470126Y-71900129D02*
X142510230Y-71905642D01*
X142430038Y-71894468D02*
X142470126Y-71900129D01*
X142389968Y-71888660D02*
X142430038Y-71894468D01*
X142349915Y-71882705D02*
X142389968Y-71888660D01*
X142309880Y-71876602D02*
X142349915Y-71882705D01*
X142269863Y-71870352D02*
X142309880Y-71876602D01*
X142229865Y-71863954D02*
X142269863Y-71870352D01*
X142189887Y-71857409D02*
X142229865Y-71863954D01*
X142149928Y-71850716D02*
X142189887Y-71857409D01*
X142109990Y-71843876D02*
X142149928Y-71850716D01*
X142070072Y-71836888D02*
X142109990Y-71843876D01*
X142030175Y-71829753D02*
X142070072Y-71836888D01*
X141990300Y-71822470D02*
X142030175Y-71829753D01*
X141950447Y-71815040D02*
X141990300Y-71822470D01*
X141910616Y-71807462D02*
X141950447Y-71815040D01*
X141870808Y-71799737D02*
X141910616Y-71807462D01*
X141831023Y-71791865D02*
X141870808Y-71799737D01*
X141791261Y-71783845D02*
X141831023Y-71791865D01*
X141751524Y-71775677D02*
X141791261Y-71783845D01*
X141711812Y-71767362D02*
X141751524Y-71775677D01*
X141672125Y-71758900D02*
X141711812Y-71767362D01*
X141632463Y-71750290D02*
X141672125Y-71758900D01*
X141592826Y-71741532D02*
X141632463Y-71750290D01*
X141553217Y-71732627D02*
X141592826Y-71741532D01*
X141513634Y-71723575D02*
X141553217Y-71732627D01*
X141474078Y-71714375D02*
X141513634Y-71723575D01*
X141434550Y-71705027D02*
X141474078Y-71714375D01*
X141395050Y-71695532D02*
X141434550Y-71705027D01*
X141355578Y-71685890D02*
X141395050Y-71695532D01*
X141316135Y-71676100D02*
X141355578Y-71685890D01*
X141276722Y-71666163D02*
X141316135Y-71676100D01*
X141237339Y-71656078D02*
X141276722Y-71666163D01*
X141197986Y-71645845D02*
X141237339Y-71656078D01*
X141158663Y-71635465D02*
X141197986Y-71645845D01*
X141119372Y-71624938D02*
X141158663Y-71635465D01*
X141080113Y-71614263D02*
X141119372Y-71624938D01*
X141040885Y-71603440D02*
X141080113Y-71614263D01*
X141001690Y-71592470D02*
X141040885Y-71603440D01*
X140962528Y-71581352D02*
X141001690Y-71592470D01*
X140923399Y-71570087D02*
X140962528Y-71581352D01*
X140884304Y-71558675D02*
X140923399Y-71570087D01*
X140845243Y-71547115D02*
X140884304Y-71558675D01*
X140806217Y-71535407D02*
X140845243Y-71547115D01*
X140767226Y-71523552D02*
X140806217Y-71535407D01*
X140728271Y-71511549D02*
X140767226Y-71523552D01*
X140689351Y-71499399D02*
X140728271Y-71511549D01*
X140650468Y-71487101D02*
X140689351Y-71499399D01*
X140611622Y-71474655D02*
X140650468Y-71487101D01*
X140572813Y-71462063D02*
X140611622Y-71474655D01*
X140534042Y-71449322D02*
X140572813Y-71462063D01*
X140495309Y-71436434D02*
X140534042Y-71449322D01*
X140456615Y-71423399D02*
X140495309Y-71436434D01*
X140417959Y-71410216D02*
X140456615Y-71423399D01*
X140379343Y-71396885D02*
X140417959Y-71410216D01*
X140340768Y-71383407D02*
X140379343Y-71396885D01*
X140302232Y-71369781D02*
X140340768Y-71383407D01*
X140263737Y-71356008D02*
X140302232Y-71369781D01*
X140225284Y-71342087D02*
X140263737Y-71356008D01*
X140186872Y-71328019D02*
X140225284Y-71342087D01*
X140148503Y-71313803D02*
X140186872Y-71328019D01*
X140110176Y-71299439D02*
X140148503Y-71313803D01*
X140071892Y-71284928D02*
X140110176Y-71299439D01*
X140033651Y-71270269D02*
X140071892Y-71284928D01*
X139995454Y-71255463D02*
X140033651Y-71270269D01*
X139957302Y-71240509D02*
X139995454Y-71255463D01*
X139919194Y-71225408D02*
X139957302Y-71240509D01*
X139881132Y-71210159D02*
X139919194Y-71225408D01*
X139843115Y-71194763D02*
X139881132Y-71210159D01*
X139805144Y-71179219D02*
X139843115Y-71194763D01*
X139767220Y-71163527D02*
X139805144Y-71179219D01*
X139729343Y-71147688D02*
X139767220Y-71163527D01*
X139691513Y-71131701D02*
X139729343Y-71147688D01*
X139653731Y-71115567D02*
X139691513Y-71131701D01*
X139615997Y-71099285D02*
X139653731Y-71115567D01*
X139578312Y-71082855D02*
X139615997Y-71099285D01*
X139540677Y-71066278D02*
X139578312Y-71082855D01*
X139503090Y-71049553D02*
X139540677Y-71066278D01*
X139465554Y-71032681D02*
X139503090Y-71049553D01*
X139428068Y-71015661D02*
X139465554Y-71032681D01*
X139390633Y-70998493D02*
X139428068Y-71015661D01*
X139353250Y-70981178D02*
X139390633Y-70998493D01*
X139315918Y-70963715D02*
X139353250Y-70981178D01*
X139278639Y-70946105D02*
X139315918Y-70963715D01*
X139241412Y-70928347D02*
X139278639Y-70946105D01*
X139204238Y-70910442D02*
X139241412Y-70928347D01*
X139167118Y-70892388D02*
X139204238Y-70910442D01*
X139130052Y-70874188D02*
X139167118Y-70892388D01*
X139093040Y-70855839D02*
X139130052Y-70874188D01*
X139056083Y-70837343D02*
X139093040Y-70855839D01*
X139019181Y-70818700D02*
X139056083Y-70837343D01*
X138982335Y-70799908D02*
X139019181Y-70818700D01*
X138945546Y-70780970D02*
X138982335Y-70799908D01*
X138908812Y-70761883D02*
X138945546Y-70780970D01*
X138872136Y-70742649D02*
X138908812Y-70761883D01*
X138835518Y-70723267D02*
X138872136Y-70742649D01*
X138798957Y-70703738D02*
X138835518Y-70723267D01*
X138762455Y-70684061D02*
X138798957Y-70703738D01*
X138726011Y-70664237D02*
X138762455Y-70684061D01*
X138689627Y-70644264D02*
X138726011Y-70664237D01*
X138653303Y-70624144D02*
X138689627Y-70644264D01*
X138617038Y-70603877D02*
X138653303Y-70624144D01*
X138580834Y-70583462D02*
X138617038Y-70603877D01*
X138544691Y-70562899D02*
X138580834Y-70583462D01*
X138508610Y-70542189D02*
X138544691Y-70562899D01*
X138472590Y-70521331D02*
X138508610Y-70542189D01*
X138436633Y-70500325D02*
X138472590Y-70521331D01*
X138400739Y-70479172D02*
X138436633Y-70500325D01*
X138364907Y-70457871D02*
X138400739Y-70479172D01*
X138329140Y-70436422D02*
X138364907Y-70457871D01*
X138293436Y-70414826D02*
X138329140Y-70436422D01*
X138257797Y-70393082D02*
X138293436Y-70414826D01*
X138222223Y-70371190D02*
X138257797Y-70393082D01*
X138186714Y-70349151D02*
X138222223Y-70371190D01*
X138151271Y-70326964D02*
X138186714Y-70349151D01*
X138115894Y-70304629D02*
X138151271Y-70326964D01*
X138080585Y-70282147D02*
X138115894Y-70304629D01*
X138045342Y-70259517D02*
X138080585Y-70282147D01*
X138010167Y-70236740D02*
X138045342Y-70259517D01*
X137975059Y-70213814D02*
X138010167Y-70236740D01*
X137940021Y-70190741D02*
X137975059Y-70213814D01*
X137905051Y-70167521D02*
X137940021Y-70190741D01*
X137870150Y-70144153D02*
X137905051Y-70167521D01*
X137835320Y-70120637D02*
X137870150Y-70144153D01*
X137800559Y-70096973D02*
X137835320Y-70120637D01*
X137765869Y-70073162D02*
X137800559Y-70096973D01*
X137731250Y-70049203D02*
X137765869Y-70073162D01*
X137696703Y-70025096D02*
X137731250Y-70049203D01*
X137662228Y-70000842D02*
X137696703Y-70025096D01*
X137627825Y-69976440D02*
X137662228Y-70000842D01*
X137593495Y-69951890D02*
X137627825Y-69976440D01*
X137559238Y-69927193D02*
X137593495Y-69951890D01*
X137525056Y-69902347D02*
X137559238Y-69927193D01*
X137490947Y-69877355D02*
X137525056Y-69902347D01*
X137456913Y-69852214D02*
X137490947Y-69877355D01*
X137422953Y-69826926D02*
X137456913Y-69852214D01*
X137389070Y-69801490D02*
X137422953Y-69826926D01*
X137355262Y-69775906D02*
X137389070Y-69801490D01*
X137321531Y-69750175D02*
X137355262Y-69775906D01*
X137287876Y-69724296D02*
X137321531Y-69750175D01*
X137254299Y-69698269D02*
X137287876Y-69724296D01*
X137220799Y-69672095D02*
X137254299Y-69698269D01*
X137187377Y-69645773D02*
X137220799Y-69672095D01*
X137154034Y-69619303D02*
X137187377Y-69645773D01*
X137120770Y-69592685D02*
X137154034Y-69619303D01*
X137087586Y-69565920D02*
X137120770Y-69592685D01*
X137054481Y-69539007D02*
X137087586Y-69565920D01*
X137021457Y-69511946D02*
X137054481Y-69539007D01*
X136988513Y-69484738D02*
X137021457Y-69511946D01*
X136955651Y-69457382D02*
X136988513Y-69484738D01*
X136922870Y-69429878D02*
X136955651Y-69457382D01*
X136890171Y-69402226D02*
X136922870Y-69429878D01*
X136857555Y-69374427D02*
X136890171Y-69402226D01*
X136825021Y-69346480D02*
X136857555Y-69374427D01*
X136792571Y-69318385D02*
X136825021Y-69346480D01*
X136760205Y-69290142D02*
X136792571Y-69318385D01*
X136727924Y-69261752D02*
X136760205Y-69290142D01*
X136695726Y-69233214D02*
X136727924Y-69261752D01*
X136663614Y-69204528D02*
X136695726Y-69233214D01*
X136631588Y-69175695D02*
X136663614Y-69204528D01*
X136599647Y-69146714D02*
X136631588Y-69175695D01*
X136567794Y-69117585D02*
X136599647Y-69146714D01*
X136536026Y-69088308D02*
X136567794Y-69117585D01*
X136504347Y-69058883D02*
X136536026Y-69088308D01*
X136472755Y-69029311D02*
X136504347Y-69058883D01*
X136441251Y-68999591D02*
X136472755Y-69029311D01*
X136409836Y-68969723D02*
X136441251Y-68999591D01*
X136378510Y-68939708D02*
X136409836Y-68969723D01*
X136347273Y-68909545D02*
X136378510Y-68939708D01*
X136316127Y-68879233D02*
X136347273Y-68909545D01*
X136285071Y-68848775D02*
X136316127Y-68879233D01*
X136254105Y-68818168D02*
X136285071Y-68848775D01*
X136223231Y-68787414D02*
X136254105Y-68818168D01*
X136173084Y-68736948D02*
X136223231Y-68787414D01*
X136123330Y-68686239D02*
X136173084Y-68736948D01*
X136073969Y-68635290D02*
X136123330Y-68686239D01*
X136025001Y-68584103D02*
X136073969Y-68635290D01*
X135976427Y-68532679D02*
X136025001Y-68584103D01*
X135928246Y-68481020D02*
X135976427Y-68532679D01*
X135880458Y-68429128D02*
X135928246Y-68481020D01*
X135833064Y-68377005D02*
X135880458Y-68429128D01*
X135786063Y-68324653D02*
X135833064Y-68377005D01*
X135739456Y-68272074D02*
X135786063Y-68324653D01*
X135693241Y-68219270D02*
X135739456Y-68272074D01*
X135647420Y-68166242D02*
X135693241Y-68219270D01*
X135601992Y-68112993D02*
X135647420Y-68166242D01*
X135556958Y-68059524D02*
X135601992Y-68112993D01*
X135512317Y-68005838D02*
X135556958Y-68059524D01*
X135468069Y-67951936D02*
X135512317Y-68005838D01*
X135424215Y-67897820D02*
X135468069Y-67951936D01*
X135380753Y-67843493D02*
X135424215Y-67897820D01*
X135337686Y-67788955D02*
X135380753Y-67843493D01*
X135295011Y-67734210D02*
X135337686Y-67788955D01*
X135252730Y-67679258D02*
X135295011Y-67734210D01*
X135210842Y-67624102D02*
X135252730Y-67679258D01*
X135169347Y-67568744D02*
X135210842Y-67624102D01*
X135128246Y-67513185D02*
X135169347Y-67568744D01*
X135087538Y-67457428D02*
X135128246Y-67513185D01*
X135047223Y-67401474D02*
X135087538Y-67457428D01*
X135007302Y-67345325D02*
X135047223Y-67401474D01*
X134967774Y-67288984D02*
X135007302Y-67345325D01*
X134928639Y-67232452D02*
X134967774Y-67288984D01*
X134889898Y-67175730D02*
X134928639Y-67232452D01*
X134851550Y-67118822D02*
X134889898Y-67175730D01*
X134813595Y-67061729D02*
X134851550Y-67118822D01*
X134776034Y-67004452D02*
X134813595Y-67061729D01*
X134738866Y-66946994D02*
X134776034Y-67004452D01*
X134702091Y-66889357D02*
X134738866Y-66946994D01*
X134665709Y-66831542D02*
X134702091Y-66889357D01*
X134629721Y-66773551D02*
X134665709Y-66831542D01*
X134594126Y-66715387D02*
X134629721Y-66773551D01*
X134558925Y-66657051D02*
X134594126Y-66715387D01*
X134524116Y-66598545D02*
X134558925Y-66657051D01*
X134489701Y-66539871D02*
X134524116Y-66598545D01*
X134455680Y-66481031D02*
X134489701Y-66539871D01*
X134422051Y-66422027D02*
X134455680Y-66481031D01*
X134388816Y-66362860D02*
X134422051Y-66422027D01*
X134355975Y-66303534D02*
X134388816Y-66362860D01*
X134323526Y-66244048D02*
X134355975Y-66303534D01*
X134291471Y-66184407D02*
X134323526Y-66244048D01*
X134259810Y-66124610D02*
X134291471Y-66184407D01*
X134228541Y-66064661D02*
X134259810Y-66124610D01*
X134197666Y-66004562D02*
X134228541Y-66064661D01*
X134167184Y-65944313D02*
X134197666Y-66004562D01*
X134137096Y-65883917D02*
X134167184Y-65944313D01*
X134107400Y-65823376D02*
X134137096Y-65883917D01*
X134078099Y-65762693D02*
X134107400Y-65823376D01*
X134049190Y-65701867D02*
X134078099Y-65762693D01*
X134020675Y-65640903D02*
X134049190Y-65701867D01*
X133992553Y-65579801D02*
X134020675Y-65640903D01*
X133964824Y-65518564D02*
X133992553Y-65579801D01*
X133937489Y-65457192D02*
X133964824Y-65518564D01*
X133910547Y-65395690D02*
X133937489Y-65457192D01*
X133883998Y-65334057D02*
X133910547Y-65395690D01*
X133857843Y-65272297D02*
X133883998Y-65334057D01*
X133832081Y-65210410D02*
X133857843Y-65272297D01*
X133806712Y-65148400D02*
X133832081Y-65210410D01*
X133781737Y-65086267D02*
X133806712Y-65148400D01*
X133757155Y-65024014D02*
X133781737Y-65086267D01*
X133732966Y-64961643D02*
X133757155Y-65024014D01*
X133709170Y-64899155D02*
X133732966Y-64961643D01*
X133685768Y-64836553D02*
X133709170Y-64899155D01*
X133662759Y-64773838D02*
X133685768Y-64836553D01*
X133640144Y-64711013D02*
X133662759Y-64773838D01*
X133617922Y-64648078D02*
X133640144Y-64711013D01*
X133596093Y-64585037D02*
X133617922Y-64648078D01*
X133574657Y-64521891D02*
X133596093Y-64585037D01*
X133553615Y-64458642D02*
X133574657Y-64521891D01*
X133532966Y-64395291D02*
X133553615Y-64458642D01*
X133512710Y-64331841D02*
X133532966Y-64395291D01*
X133492848Y-64268294D02*
X133512710Y-64331841D01*
X133473379Y-64204652D02*
X133492848Y-64268294D01*
X133454303Y-64140916D02*
X133473379Y-64204652D01*
X133435621Y-64077088D02*
X133454303Y-64140916D01*
X133417332Y-64013171D02*
X133435621Y-64077088D01*
X133399436Y-63949166D02*
X133417332Y-64013171D01*
X133381933Y-63885075D02*
X133399436Y-63949166D01*
X133364824Y-63820900D02*
X133381933Y-63885075D01*
X133348108Y-63756643D02*
X133364824Y-63820900D01*
X133331786Y-63692305D02*
X133348108Y-63756643D01*
X133315857Y-63627890D02*
X133331786Y-63692305D01*
X133300321Y-63563398D02*
X133315857Y-63627890D01*
X133285178Y-63498832D02*
X133300321Y-63563398D01*
X133270429Y-63434193D02*
X133285178Y-63498832D01*
X133256073Y-63369483D02*
X133270429Y-63434193D01*
X133242110Y-63304705D02*
X133256073Y-63369483D01*
X133228541Y-63239860D02*
X133242110Y-63304705D01*
X133215365Y-63174950D02*
X133228541Y-63239860D01*
X133202582Y-63109977D02*
X133215365Y-63174950D01*
X133190193Y-63044944D02*
X133202582Y-63109977D01*
X133178197Y-62979850D02*
X133190193Y-63044944D01*
X133166594Y-62914700D02*
X133178197Y-62979850D01*
X133155385Y-62849494D02*
X133166594Y-62914700D01*
X133144569Y-62784235D02*
X133155385Y-62849494D01*
X133134146Y-62718925D02*
X133144569Y-62784235D01*
X133124116Y-62653564D02*
X133134146Y-62718925D01*
X133114480Y-62588156D02*
X133124116Y-62653564D01*
X133105237Y-62522702D02*
X133114480Y-62588156D01*
X133096388Y-62457205D02*
X133105237Y-62522702D01*
X133087931Y-62391665D02*
X133096388Y-62457205D01*
X133079869Y-62326085D02*
X133087931Y-62391665D01*
X133072199Y-62260467D02*
X133079869Y-62326085D01*
X133064923Y-62194813D02*
X133072199Y-62260467D01*
X133058040Y-62129124D02*
X133064923Y-62194813D01*
X133051550Y-62063403D02*
X133058040Y-62129124D01*
X133045454Y-61997652D02*
X133051550Y-62063403D01*
X133039751Y-61931872D02*
X133045454Y-61997652D01*
X133034441Y-61866065D02*
X133039751Y-61931872D01*
X133029524Y-61800233D02*
X133034441Y-61866065D01*
X133025001Y-61734379D02*
X133029524Y-61800233D01*
X133020871Y-61668503D02*
X133025001Y-61734379D01*
X133017135Y-61602608D02*
X133020871Y-61668503D01*
X133013792Y-61536696D02*
X133017135Y-61602608D01*
X133010842Y-61470769D02*
X133013792Y-61536696D01*
X133008285Y-61404829D02*
X133010842Y-61470769D01*
X133006122Y-61338877D02*
X133008285Y-61404829D01*
X133004352Y-61272916D02*
X133006122Y-61338877D01*
X133002976Y-61206946D02*
X133004352Y-61272916D01*
X133001992Y-61140972D02*
X133002976Y-61206946D01*
X133001402Y-61074993D02*
X133001992Y-61140972D01*
X133001206Y-61009013D02*
X133001402Y-61074993D01*
X133001402Y-60943032D02*
X133001206Y-61009013D01*
X133001992Y-60877054D02*
X133001402Y-60943032D01*
X133002976Y-60811079D02*
X133001992Y-60877054D01*
X133004352Y-60745110D02*
X133002976Y-60811079D01*
X133006122Y-60679148D02*
X133004352Y-60745110D01*
X133008285Y-60613197D02*
X133006122Y-60679148D01*
X133010842Y-60547256D02*
X133008285Y-60613197D01*
X133013792Y-60481329D02*
X133010842Y-60547256D01*
X133017135Y-60415418D02*
X133013792Y-60481329D01*
X133020871Y-60349523D02*
X133017135Y-60415418D01*
X133025001Y-60283648D02*
X133020871Y-60349523D01*
X133029524Y-60217793D02*
X133025001Y-60283648D01*
X133034441Y-60151962D02*
X133029524Y-60217793D01*
X133039751Y-60086155D02*
X133034441Y-60151962D01*
X133045454Y-60020375D02*
X133039751Y-60086155D01*
X133051550Y-59954624D02*
X133045454Y-60020375D01*
X133058040Y-59888903D02*
X133051550Y-59954624D01*
X133064923Y-59823215D02*
X133058040Y-59888903D01*
X133072199Y-59757561D02*
X133064923Y-59823215D01*
X133079869Y-59691943D02*
X133072199Y-59757561D01*
X133087931Y-59626364D02*
X133079869Y-59691943D01*
X133096388Y-59560824D02*
X133087931Y-59626364D01*
X133105237Y-59495327D02*
X133096388Y-59560824D01*
X133114480Y-59429873D02*
X133105237Y-59495327D01*
X133124116Y-59364466D02*
X133114480Y-59429873D01*
X133134146Y-59299106D02*
X133124116Y-59364466D01*
X133144569Y-59233796D02*
X133134146Y-59299106D01*
X133155385Y-59168537D02*
X133144569Y-59233796D01*
X133166594Y-59103332D02*
X133155385Y-59168537D01*
X133178197Y-59038182D02*
X133166594Y-59103332D01*
X133190193Y-58973089D02*
X133178197Y-59038182D01*
X133202582Y-58908056D02*
X133190193Y-58973089D01*
X133215365Y-58843083D02*
X133202582Y-58908056D01*
X133228541Y-58778174D02*
X133215365Y-58843083D01*
X133242110Y-58713330D02*
X133228541Y-58778174D01*
X133256073Y-58648552D02*
X133242110Y-58713330D01*
X133270429Y-58583843D02*
X133256073Y-58648552D01*
X133285178Y-58519205D02*
X133270429Y-58583843D01*
X133300321Y-58454639D02*
X133285178Y-58519205D01*
X133315857Y-58390148D02*
X133300321Y-58454639D01*
X133331786Y-58325733D02*
X133315857Y-58390148D01*
X133348108Y-58261396D02*
X133331786Y-58325733D01*
X133364824Y-58197140D02*
X133348108Y-58261396D01*
X133381933Y-58132966D02*
X133364824Y-58197140D01*
X133399436Y-58068875D02*
X133381933Y-58132966D01*
X133417332Y-58004871D02*
X133399436Y-58068875D01*
X133435621Y-57940954D02*
X133417332Y-58004871D01*
X133454303Y-57877127D02*
X133435621Y-57940954D01*
X133473379Y-57813392D02*
X133454303Y-57877127D01*
X133492848Y-57749750D02*
X133473379Y-57813392D01*
X133512710Y-57686204D02*
X133492848Y-57749750D01*
X133532966Y-57622755D02*
X133512710Y-57686204D01*
X133553615Y-57559406D02*
X133532966Y-57622755D01*
X133574657Y-57496157D02*
X133553615Y-57559406D01*
X133596093Y-57433012D02*
X133574657Y-57496157D01*
X133617922Y-57369972D02*
X133596093Y-57433012D01*
X133640144Y-57307038D02*
X133617922Y-57369972D01*
X133662759Y-57244213D02*
X133640144Y-57307038D01*
X133685768Y-57181500D02*
X133662759Y-57244213D01*
X133709170Y-57118898D02*
X133685768Y-57181500D01*
X133732966Y-57056412D02*
X133709170Y-57118898D01*
X133757155Y-56994041D02*
X133732966Y-57056412D01*
X133781737Y-56931789D02*
X133757155Y-56994041D01*
X133806712Y-56869658D02*
X133781737Y-56931789D01*
X133832081Y-56807648D02*
X133806712Y-56869658D01*
X133857843Y-56745763D02*
X133832081Y-56807648D01*
X133883998Y-56684003D02*
X133857843Y-56745763D01*
X133910547Y-56622372D02*
X133883998Y-56684003D01*
X133937489Y-56560870D02*
X133910547Y-56622372D01*
X133964824Y-56499500D02*
X133937489Y-56560870D01*
X133992553Y-56438264D02*
X133964824Y-56499500D01*
X134020675Y-56377163D02*
X133992553Y-56438264D01*
X134049190Y-56316200D02*
X134020675Y-56377163D01*
X134078099Y-56255376D02*
X134049190Y-56316200D01*
X134107400Y-56194693D02*
X134078099Y-56255376D01*
X134137096Y-56134154D02*
X134107400Y-56194693D01*
X134167184Y-56073759D02*
X134137096Y-56134154D01*
X134197666Y-56013512D02*
X134167184Y-56073759D01*
X134228541Y-55953413D02*
X134197666Y-56013512D01*
X134259810Y-55893465D02*
X134228541Y-55953413D01*
X134291471Y-55833670D02*
X134259810Y-55893465D01*
X134323526Y-55774030D02*
X134291471Y-55833670D01*
X134355975Y-55714546D02*
X134323526Y-55774030D01*
X134388816Y-55655221D02*
X134355975Y-55714546D01*
X134422051Y-55596055D02*
X134388816Y-55655221D01*
X134455680Y-55537053D02*
X134422051Y-55596055D01*
X134489701Y-55478214D02*
X134455680Y-55537053D01*
X134524116Y-55419541D02*
X134489701Y-55478214D01*
X134558925Y-55361037D02*
X134524116Y-55419541D01*
X134594126Y-55302702D02*
X134558925Y-55361037D01*
X134629721Y-55244539D02*
X134594126Y-55302702D01*
X134665709Y-55186550D02*
X134629721Y-55244539D01*
X134702091Y-55128737D02*
X134665709Y-55186550D01*
X134738866Y-55071101D02*
X134702091Y-55128737D01*
X134776034Y-55013644D02*
X134738866Y-55071101D01*
X134813595Y-54956369D02*
X134776034Y-55013644D01*
X134851550Y-54899277D02*
X134813595Y-54956369D01*
X134889898Y-54842370D02*
X134851550Y-54899277D01*
X134928639Y-54785651D02*
X134889898Y-54842370D01*
X134967774Y-54729120D02*
X134928639Y-54785651D01*
X135007302Y-54672780D02*
X134967774Y-54729120D01*
X135047223Y-54616633D02*
X135007302Y-54672780D01*
X135087538Y-54560681D02*
X135047223Y-54616633D01*
X135128246Y-54504925D02*
X135087538Y-54560681D01*
X135169347Y-54449368D02*
X135128246Y-54504925D01*
X135210842Y-54394012D02*
X135169347Y-54449368D01*
X135252730Y-54338857D02*
X135210842Y-54394012D01*
X135295011Y-54283907D02*
X135252730Y-54338857D01*
X135337686Y-54229163D02*
X135295011Y-54283907D01*
X135380753Y-54174628D02*
X135337686Y-54229163D01*
X135424215Y-54120302D02*
X135380753Y-54174628D01*
X135468069Y-54066188D02*
X135424215Y-54120302D01*
X135512317Y-54012288D02*
X135468069Y-54066188D01*
X135556958Y-53958603D02*
X135512317Y-54012288D01*
X135601992Y-53905137D02*
X135556958Y-53958603D01*
X135647420Y-53851889D02*
X135601992Y-53905137D01*
X135693241Y-53798864D02*
X135647420Y-53851889D01*
X135739456Y-53746061D02*
X135693241Y-53798864D01*
X135786063Y-53693484D02*
X135739456Y-53746061D01*
X135833064Y-53641134D02*
X135786063Y-53693484D01*
X135880458Y-53589013D02*
X135833064Y-53641134D01*
X135928246Y-53537123D02*
X135880458Y-53589013D01*
X135976427Y-53485466D02*
X135928246Y-53537123D01*
X136025001Y-53434044D02*
X135976427Y-53485466D01*
X136073969Y-53382858D02*
X136025001Y-53434044D01*
X136123330Y-53331911D02*
X136073969Y-53382858D01*
X136173084Y-53281205D02*
X136123330Y-53331911D01*
X136223231Y-53230741D02*
X136173084Y-53281205D01*
X136273689Y-53180599D02*
X136223231Y-53230741D01*
X136324390Y-53130851D02*
X136273689Y-53180599D01*
X136375331Y-53081496D02*
X136324390Y-53130851D01*
X136426511Y-53032534D02*
X136375331Y-53081496D01*
X136477927Y-52983966D02*
X136426511Y-53032534D01*
X136529579Y-52935791D02*
X136477927Y-52983966D01*
X136581464Y-52888009D02*
X136529579Y-52935791D01*
X136633579Y-52840620D02*
X136581464Y-52888009D01*
X136685924Y-52793624D02*
X136633579Y-52840620D01*
X136738496Y-52747022D02*
X136685924Y-52793624D01*
X136791293Y-52700813D02*
X136738496Y-52747022D01*
X136844314Y-52654998D02*
X136791293Y-52700813D01*
X136897556Y-52609575D02*
X136844314Y-52654998D01*
X136951018Y-52564546D02*
X136897556Y-52609575D01*
X137004698Y-52519910D02*
X136951018Y-52564546D01*
X137058593Y-52475667D02*
X137004698Y-52519910D01*
X137112703Y-52431818D02*
X137058593Y-52475667D01*
X137167024Y-52388362D02*
X137112703Y-52431818D01*
X137221555Y-52345299D02*
X137167024Y-52388362D01*
X137276295Y-52302629D02*
X137221555Y-52345299D01*
X137331241Y-52260353D02*
X137276295Y-52302629D01*
X137386391Y-52218469D02*
X137331241Y-52260353D01*
X137441743Y-52176980D02*
X137386391Y-52218469D01*
X137497297Y-52135883D02*
X137441743Y-52176980D01*
X137553048Y-52095180D02*
X137497297Y-52135883D01*
X137608997Y-52054869D02*
X137553048Y-52095180D01*
X137665140Y-52014953D02*
X137608997Y-52054869D01*
X137721476Y-51975429D02*
X137665140Y-52014953D01*
X137778003Y-51936298D02*
X137721476Y-51975429D01*
X137834719Y-51897561D02*
X137778003Y-51936298D01*
X137891622Y-51859218D02*
X137834719Y-51897561D01*
X137948711Y-51821267D02*
X137891622Y-51859218D01*
X138005983Y-51783710D02*
X137948711Y-51821267D01*
X138063436Y-51746545D02*
X138005983Y-51783710D01*
X138121069Y-51709775D02*
X138063436Y-51746545D01*
X138178879Y-51673397D02*
X138121069Y-51709775D01*
X138236865Y-51637413D02*
X138178879Y-51673397D01*
X138295025Y-51601822D02*
X138236865Y-51637413D01*
X138353357Y-51566624D02*
X138295025Y-51601822D01*
X138411858Y-51531819D02*
X138353357Y-51566624D01*
X138470528Y-51497408D02*
X138411858Y-51531819D01*
X138529364Y-51463390D02*
X138470528Y-51497408D01*
X138588364Y-51429765D02*
X138529364Y-51463390D01*
X138647527Y-51396534D02*
X138588364Y-51429765D01*
X138706850Y-51363695D02*
X138647527Y-51396534D01*
X138766331Y-51331250D02*
X138706850Y-51363695D01*
X138825969Y-51299199D02*
X138766331Y-51331250D01*
X138885762Y-51267540D02*
X138825969Y-51299199D01*
X138945707Y-51236275D02*
X138885762Y-51267540D01*
X139005804Y-51205403D02*
X138945707Y-51236275D01*
X139066049Y-51174924D02*
X139005804Y-51205403D01*
X139126441Y-51144839D02*
X139066049Y-51174924D01*
X139186979Y-51115147D02*
X139126441Y-51144839D01*
X139247660Y-51085848D02*
X139186979Y-51115147D01*
X139308482Y-51056942D02*
X139247660Y-51085848D01*
X139369443Y-51028430D02*
X139308482Y-51056942D01*
X139430542Y-51000311D02*
X139369443Y-51028430D01*
X139491777Y-50972585D02*
X139430542Y-51000311D01*
X139553145Y-50945252D02*
X139491777Y-50972585D01*
X139614645Y-50918313D02*
X139553145Y-50945252D01*
X139676275Y-50891767D02*
X139614645Y-50918313D01*
X139738033Y-50865614D02*
X139676275Y-50891767D01*
X139799917Y-50839854D02*
X139738033Y-50865614D01*
X139861925Y-50814488D02*
X139799917Y-50839854D01*
X139924055Y-50789515D02*
X139861925Y-50814488D01*
X139986306Y-50764935D02*
X139924055Y-50789515D01*
X140048675Y-50740749D02*
X139986306Y-50764935D01*
X140111161Y-50716955D02*
X140048675Y-50740749D01*
X140173761Y-50693555D02*
X140111161Y-50716955D01*
X140236473Y-50670549D02*
X140173761Y-50693555D01*
X140299297Y-50647935D02*
X140236473Y-50670549D01*
X140362229Y-50625715D02*
X140299297Y-50647935D01*
X140425269Y-50603888D02*
X140362229Y-50625715D01*
X140488413Y-50582454D02*
X140425269Y-50603888D01*
X140551661Y-50561414D02*
X140488413Y-50582454D01*
X140615010Y-50540767D02*
X140551661Y-50561414D01*
X140678458Y-50520513D02*
X140615010Y-50540767D01*
X140742003Y-50500652D02*
X140678458Y-50520513D01*
X140805644Y-50481185D02*
X140742003Y-50500652D01*
X140869379Y-50462111D02*
X140805644Y-50481185D01*
X140933205Y-50443430D02*
X140869379Y-50462111D01*
X140997121Y-50425142D02*
X140933205Y-50443430D01*
X141061125Y-50407248D02*
X140997121Y-50425142D01*
X141125215Y-50389747D02*
X141061125Y-50407248D01*
X141189389Y-50372639D02*
X141125215Y-50389747D01*
X141253645Y-50355925D02*
X141189389Y-50372639D01*
X141317981Y-50339604D02*
X141253645Y-50355925D01*
X141382395Y-50323676D02*
X141317981Y-50339604D01*
X141446886Y-50308141D02*
X141382395Y-50323676D01*
X141511452Y-50292999D02*
X141446886Y-50308141D01*
X141576089Y-50278251D02*
X141511452Y-50292999D01*
X141640798Y-50263896D02*
X141576089Y-50278251D01*
X141705576Y-50249935D02*
X141640798Y-50263896D01*
X141770420Y-50236366D02*
X141705576Y-50249935D01*
X141835329Y-50223191D02*
X141770420Y-50236366D01*
X141900301Y-50210410D02*
X141835329Y-50223191D01*
X141965335Y-50198021D02*
X141900301Y-50210410D01*
X142030427Y-50186026D02*
X141965335Y-50198021D01*
X142095577Y-50174424D02*
X142030427Y-50186026D01*
X142160782Y-50163215D02*
X142095577Y-50174424D01*
X142226041Y-50152399D02*
X142160782Y-50163215D01*
X142291351Y-50141977D02*
X142226041Y-50152399D01*
X142356711Y-50131948D02*
X142291351Y-50141977D01*
X142422119Y-50122313D02*
X142356711Y-50131948D01*
X142487573Y-50113070D02*
X142422119Y-50122313D01*
X142553070Y-50104221D02*
X142487573Y-50113070D01*
X142618610Y-50095765D02*
X142553070Y-50104221D01*
X142684189Y-50087703D02*
X142618610Y-50095765D01*
X142749807Y-50080033D02*
X142684189Y-50087703D01*
X142815461Y-50072757D02*
X142749807Y-50080033D01*
X142881150Y-50065875D02*
X142815461Y-50072757D01*
X142946871Y-50059385D02*
X142881150Y-50065875D01*
X143012623Y-50053289D02*
X142946871Y-50059385D01*
X143078403Y-50047586D02*
X143012623Y-50053289D01*
X143144210Y-50042276D02*
X143078403Y-50047586D01*
X143210042Y-50037360D02*
X143144210Y-50042276D01*
X143275897Y-50032837D02*
X143210042Y-50037360D01*
X143341772Y-50028707D02*
X143275897Y-50032837D01*
X143407667Y-50024970D02*
X143341772Y-50028707D01*
X143473579Y-50021627D02*
X143407667Y-50024970D01*
X143539507Y-50018677D02*
X143473579Y-50021627D01*
X143605448Y-50016120D02*
X143539507Y-50018677D01*
X143671400Y-50013956D02*
X143605448Y-50016120D01*
X143737362Y-50012186D02*
X143671400Y-50013956D01*
X143803331Y-50010809D02*
X143737362Y-50012186D01*
X143869306Y-50009826D02*
X143803331Y-50010809D01*
X143935285Y-50009235D02*
X143869306Y-50009826D01*
X144001266Y-50009038D02*
X143935285Y-50009235D01*
X144067247Y-50009234D02*
X144001266Y-50009038D01*
X144133227Y-50009824D02*
X144067247Y-50009234D01*
X144199202Y-50010806D02*
X144133227Y-50009824D01*
X144265172Y-50012182D02*
X144199202Y-50010806D01*
X144331133Y-50013951D02*
X144265172Y-50012182D01*
X144397086Y-50016114D02*
X144331133Y-50013951D01*
X144463027Y-50018670D02*
X144397086Y-50016114D01*
X144528955Y-50021619D02*
X144463027Y-50018670D01*
X144594867Y-50024961D02*
X144528955Y-50021619D01*
X144660762Y-50028697D02*
X144594867Y-50024961D01*
X144726638Y-50032826D02*
X144660762Y-50028697D01*
X144792493Y-50037348D02*
X144726638Y-50032826D01*
X144858326Y-50042263D02*
X144792493Y-50037348D01*
X144924133Y-50047572D02*
X144858326Y-50042263D01*
X144989914Y-50053274D02*
X144924133Y-50047572D01*
X145055666Y-50059369D02*
X144989914Y-50053274D01*
X145121388Y-50065858D02*
X145055666Y-50059369D01*
X145187077Y-50072740D02*
X145121388Y-50065858D01*
X145252731Y-50080015D02*
X145187077Y-50072740D01*
X145318350Y-50087683D02*
X145252731Y-50080015D01*
X145383930Y-50095745D02*
X145318350Y-50087683D01*
X145449470Y-50104200D02*
X145383930Y-50095745D01*
X145514969Y-50113048D02*
X145449470Y-50104200D01*
X145580423Y-50122289D02*
X145514969Y-50113048D01*
X145645831Y-50131924D02*
X145580423Y-50122289D01*
X145711192Y-50141952D02*
X145645831Y-50131924D01*
X145776503Y-50152373D02*
X145711192Y-50141952D01*
X145841763Y-50163188D02*
X145776503Y-50152373D01*
X145906969Y-50174396D02*
X145841763Y-50163188D01*
X145972120Y-50185997D02*
X145906969Y-50174396D01*
X146037214Y-50197992D02*
X145972120Y-50185997D01*
X146102248Y-50210379D02*
X146037214Y-50197992D01*
X146167221Y-50223160D02*
X146102248Y-50210379D01*
X146232131Y-50236335D02*
X146167221Y-50223160D01*
X146296977Y-50249902D02*
X146232131Y-50236335D01*
X146361755Y-50263863D02*
X146296977Y-50249902D01*
X146426465Y-50278217D02*
X146361755Y-50263863D01*
X146491104Y-50292965D02*
X146426465Y-50278217D01*
X146555671Y-50308105D02*
X146491104Y-50292965D01*
X146620163Y-50323639D02*
X146555671Y-50308105D01*
X146684579Y-50339566D02*
X146620163Y-50323639D01*
X146748916Y-50355887D02*
X146684579Y-50339566D01*
X146813174Y-50372601D02*
X146748916Y-50355887D01*
X146877349Y-50389708D02*
X146813174Y-50372601D01*
X146941440Y-50407208D02*
X146877349Y-50389708D01*
X147005445Y-50425102D02*
X146941440Y-50407208D01*
X147069363Y-50443389D02*
X147005445Y-50425102D01*
X147133191Y-50462069D02*
X147069363Y-50443389D01*
X147196927Y-50481143D02*
X147133191Y-50462069D01*
X147260569Y-50500609D02*
X147196927Y-50481143D01*
X147324116Y-50520470D02*
X147260569Y-50500609D01*
X147387566Y-50540723D02*
X147324116Y-50520470D01*
X147450916Y-50561370D02*
X147387566Y-50540723D01*
X147514166Y-50582409D02*
X147450916Y-50561370D01*
X147577312Y-50603843D02*
X147514166Y-50582409D01*
X147640353Y-50625669D02*
X147577312Y-50603843D01*
X147703287Y-50647889D02*
X147640353Y-50625669D01*
X147766113Y-50670502D02*
X147703287Y-50647889D01*
X147828827Y-50693508D02*
X147766113Y-50670502D01*
X147891429Y-50716908D02*
X147828827Y-50693508D01*
X147953917Y-50740701D02*
X147891429Y-50716908D01*
X148016288Y-50764887D02*
X147953917Y-50740701D01*
X148078540Y-50789467D02*
X148016288Y-50764887D01*
X148140673Y-50814439D02*
X148078540Y-50789467D01*
X148202683Y-50839805D02*
X148140673Y-50814439D01*
X148264569Y-50865565D02*
X148202683Y-50839805D01*
X148326329Y-50891717D02*
X148264569Y-50865565D01*
X148387961Y-50918263D02*
X148326329Y-50891717D01*
X148449463Y-50945203D02*
X148387961Y-50918263D01*
X148510833Y-50972535D02*
X148449463Y-50945203D01*
X148572070Y-51000261D02*
X148510833Y-50972535D01*
X148633171Y-51028380D02*
X148572070Y-51000261D01*
X148694135Y-51056892D02*
X148633171Y-51028380D01*
X148754960Y-51085798D02*
X148694135Y-51056892D01*
X148815643Y-51115097D02*
X148754960Y-51085798D01*
X148876183Y-51144789D02*
X148815643Y-51115097D01*
X148936577Y-51174875D02*
X148876183Y-51144789D01*
X148996825Y-51205353D02*
X148936577Y-51174875D01*
X149056924Y-51236226D02*
X148996825Y-51205353D01*
X149116872Y-51267491D02*
X149056924Y-51236226D01*
X149176667Y-51299150D02*
X149116872Y-51267491D01*
X149236308Y-51331202D02*
X149176667Y-51299150D01*
X149295792Y-51363647D02*
X149236308Y-51331202D01*
X149355117Y-51396485D02*
X149295792Y-51363647D01*
X149414283Y-51429717D02*
X149355117Y-51396485D01*
X149473285Y-51463342D02*
X149414283Y-51429717D01*
X149532124Y-51497361D02*
X149473285Y-51463342D01*
X149590797Y-51531772D02*
X149532124Y-51497361D01*
X149649301Y-51566577D02*
X149590797Y-51531772D01*
X149707636Y-51601776D02*
X149649301Y-51566577D01*
X149765798Y-51637367D02*
X149707636Y-51601776D01*
X149823787Y-51673352D02*
X149765798Y-51637367D01*
X149881601Y-51709730D02*
X149823787Y-51673352D01*
X149939236Y-51746502D02*
X149881601Y-51709730D01*
X149996693Y-51783666D02*
X149939236Y-51746502D01*
X150053968Y-51821225D02*
X149996693Y-51783666D01*
X150111059Y-51859176D02*
X150053968Y-51821225D01*
X150167965Y-51897520D02*
X150111059Y-51859176D01*
X150224685Y-51936258D02*
X150167965Y-51897520D01*
X150281215Y-51975390D02*
X150224685Y-51936258D01*
X150337554Y-52014914D02*
X150281215Y-51975390D01*
X150393700Y-52054832D02*
X150337554Y-52014914D01*
X150449652Y-52095143D02*
X150393700Y-52054832D01*
X150505407Y-52135847D02*
X150449652Y-52095143D01*
X150560963Y-52176945D02*
X150505407Y-52135847D01*
X150616319Y-52218436D02*
X150560963Y-52176945D01*
X150671473Y-52260320D02*
X150616319Y-52218436D01*
X150726422Y-52302598D02*
X150671473Y-52260320D01*
X150781165Y-52345269D02*
X150726422Y-52302598D01*
X150835700Y-52388333D02*
X150781165Y-52345269D01*
X150890025Y-52431790D02*
X150835700Y-52388333D01*
X150944137Y-52475641D02*
X150890025Y-52431790D01*
X150998036Y-52519885D02*
X150944137Y-52475641D01*
X151051720Y-52564522D02*
X150998036Y-52519885D01*
X151105185Y-52609553D02*
X151051720Y-52564522D01*
X151158431Y-52654977D02*
X151105185Y-52609553D01*
X151211456Y-52700794D02*
X151158431Y-52654977D01*
X151264257Y-52747004D02*
X151211456Y-52700794D01*
X151316832Y-52793608D02*
X151264257Y-52747004D01*
X151369181Y-52840605D02*
X151316832Y-52793608D01*
X151421300Y-52887996D02*
X151369181Y-52840605D01*
X151473189Y-52935779D02*
X151421300Y-52887996D01*
X151524844Y-52983956D02*
X151473189Y-52935779D01*
X151576265Y-53032527D02*
X151524844Y-52983956D01*
X151627448Y-53081490D02*
X151576265Y-53032527D01*
X151678394Y-53130847D02*
X151627448Y-53081490D01*
X151729098Y-53180597D02*
X151678394Y-53130847D01*
X151779560Y-53230741D02*
X151729098Y-53180597D01*
X151810318Y-53261619D02*
X151779560Y-53230741D01*
X151840929Y-53292588D02*
X151810318Y-53261619D01*
X151871392Y-53323648D02*
X151840929Y-53292588D01*
X151901706Y-53354799D02*
X151871392Y-53323648D01*
X151931873Y-53386039D02*
X151901706Y-53354799D01*
X151961893Y-53417369D02*
X151931873Y-53386039D01*
X151991764Y-53448788D02*
X151961893Y-53417369D01*
X152021488Y-53480296D02*
X151991764Y-53448788D01*
X152051063Y-53511892D02*
X152021488Y-53480296D01*
X152080491Y-53543575D02*
X152051063Y-53511892D01*
X152109772Y-53575346D02*
X152080491Y-53543575D01*
X152138904Y-53607204D02*
X152109772Y-53575346D01*
X152167888Y-53639148D02*
X152138904Y-53607204D01*
X152196725Y-53671179D02*
X152167888Y-53639148D01*
X152225414Y-53703294D02*
X152196725Y-53671179D01*
X152253955Y-53735495D02*
X152225414Y-53703294D01*
X152282349Y-53767781D02*
X152253955Y-53735495D01*
X152310594Y-53800151D02*
X152282349Y-53767781D01*
X152338692Y-53832604D02*
X152310594Y-53800151D01*
X152366642Y-53865141D02*
X152338692Y-53832604D01*
X152394444Y-53897761D02*
X152366642Y-53865141D01*
X152422098Y-53930464D02*
X152394444Y-53897761D01*
X152449605Y-53963248D02*
X152422098Y-53930464D01*
X152476964Y-53996115D02*
X152449605Y-53963248D01*
X152504175Y-54029062D02*
X152476964Y-53996115D01*
X152531238Y-54062090D02*
X152504175Y-54029062D01*
X152558154Y-54095198D02*
X152531238Y-54062090D01*
X152584921Y-54128386D02*
X152558154Y-54095198D01*
X152611541Y-54161654D02*
X152584921Y-54128386D01*
X152638013Y-54195000D02*
X152611541Y-54161654D01*
X152664338Y-54228425D02*
X152638013Y-54195000D01*
X152690515Y-54261929D02*
X152664338Y-54228425D01*
X152716543Y-54295509D02*
X152690515Y-54261929D01*
X152742425Y-54329168D02*
X152716543Y-54295509D01*
X152768158Y-54362902D02*
X152742425Y-54329168D01*
X152793744Y-54396714D02*
X152768158Y-54362902D01*
X152819182Y-54430601D02*
X152793744Y-54396714D01*
X152844472Y-54464563D02*
X152819182Y-54430601D01*
X152869614Y-54498601D02*
X152844472Y-54464563D01*
X152894609Y-54532713D02*
X152869614Y-54498601D01*
X152919456Y-54566899D02*
X152894609Y-54532713D01*
X152944155Y-54601159D02*
X152919456Y-54566899D01*
X152968706Y-54635493D02*
X152944155Y-54601159D01*
X152993110Y-54669899D02*
X152968706Y-54635493D01*
X153017366Y-54704377D02*
X152993110Y-54669899D01*
X153041474Y-54738928D02*
X153017366Y-54704377D01*
X153065434Y-54773550D02*
X153041474Y-54738928D01*
X153089247Y-54808243D02*
X153065434Y-54773550D01*
X153112912Y-54843006D02*
X153089247Y-54808243D01*
X153136430Y-54877840D02*
X153112912Y-54843006D01*
X153159799Y-54912744D02*
X153136430Y-54877840D01*
X153183021Y-54947717D02*
X153159799Y-54912744D01*
X153206095Y-54982759D02*
X153183021Y-54947717D01*
X153229022Y-55017869D02*
X153206095Y-54982759D01*
X153251800Y-55053047D02*
X153229022Y-55017869D01*
X153274431Y-55088293D02*
X153251800Y-55053047D01*
X153296915Y-55123606D02*
X153274431Y-55088293D01*
X153319250Y-55158986D02*
X153296915Y-55123606D01*
X153341438Y-55194432D02*
X153319250Y-55158986D01*
X153363478Y-55229944D02*
X153341438Y-55194432D01*
X153385371Y-55265521D02*
X153363478Y-55229944D01*
X153407116Y-55301163D02*
X153385371Y-55265521D01*
X153428713Y-55336869D02*
X153407116Y-55301163D01*
X153450162Y-55372640D02*
X153428713Y-55336869D01*
X153471464Y-55408474D02*
X153450162Y-55372640D01*
X153492618Y-55444371D02*
X153471464Y-55408474D01*
X153513624Y-55480332D02*
X153492618Y-55444371D01*
X153534483Y-55516354D02*
X153513624Y-55480332D01*
X153555194Y-55552438D02*
X153534483Y-55516354D01*
X153575757Y-55588584D02*
X153555194Y-55552438D01*
X153596173Y-55624791D02*
X153575757Y-55588584D01*
X153616441Y-55661058D02*
X153596173Y-55624791D01*
X153636561Y-55697385D02*
X153616441Y-55661058D01*
X153656534Y-55733772D02*
X153636561Y-55697385D01*
X153676359Y-55770218D02*
X153656534Y-55733772D01*
X153696036Y-55806723D02*
X153676359Y-55770218D01*
X153715566Y-55843286D02*
X153696036Y-55806723D01*
X153734948Y-55879908D02*
X153715566Y-55843286D01*
X153754182Y-55916586D02*
X153734948Y-55879908D01*
X153773269Y-55953322D02*
X153754182Y-55916586D01*
X153792208Y-55990114D02*
X153773269Y-55953322D01*
X153810999Y-56026963D02*
X153792208Y-55990114D01*
X153829643Y-56063867D02*
X153810999Y-56026963D01*
X153848139Y-56100827D02*
X153829643Y-56063867D01*
X153866487Y-56137841D02*
X153848139Y-56100827D01*
X153884688Y-56174910D02*
X153866487Y-56137841D01*
X153902741Y-56212032D02*
X153884688Y-56174910D01*
X153920646Y-56249208D02*
X153902741Y-56212032D01*
X153938404Y-56286438D02*
X153920646Y-56249208D01*
X153956014Y-56323719D02*
X153938404Y-56286438D01*
X153973477Y-56361054D02*
X153956014Y-56323719D01*
X153990792Y-56398439D02*
X153973477Y-56361054D01*
X154007959Y-56435877D02*
X153990792Y-56398439D01*
X154024979Y-56473365D02*
X154007959Y-56435877D01*
X154041851Y-56510903D02*
X154024979Y-56473365D01*
X154058575Y-56548492D02*
X154041851Y-56510903D01*
X154075152Y-56586130D02*
X154058575Y-56548492D01*
X154091581Y-56623817D02*
X154075152Y-56586130D01*
X154107863Y-56661553D02*
X154091581Y-56623817D01*
X154123997Y-56699337D02*
X154107863Y-56661553D01*
X154139983Y-56737169D02*
X154123997Y-56699337D01*
X154155822Y-56775048D02*
X154139983Y-56737169D01*
X154171513Y-56812975D02*
X154155822Y-56775048D01*
X154187057Y-56850947D02*
X154171513Y-56812975D01*
X154202453Y-56888966D02*
X154187057Y-56850947D01*
X154217701Y-56927031D02*
X154202453Y-56888966D01*
X154232802Y-56965140D02*
X154217701Y-56927031D01*
X154247755Y-57003295D02*
X154232802Y-56965140D01*
X154262561Y-57041493D02*
X154247755Y-57003295D01*
X154277219Y-57079736D02*
X154262561Y-57041493D01*
X154291729Y-57118022D02*
X154277219Y-57079736D01*
X154306092Y-57156351D02*
X154291729Y-57118022D01*
X154320307Y-57194722D02*
X154306092Y-57156351D01*
X154334375Y-57233136D02*
X154320307Y-57194722D01*
X154348295Y-57271591D02*
X154334375Y-57233136D01*
X154362067Y-57310088D02*
X154348295Y-57271591D01*
X154375692Y-57348625D02*
X154362067Y-57310088D01*
X154389170Y-57387202D02*
X154375692Y-57348625D01*
X154402499Y-57425820D02*
X154389170Y-57387202D01*
X154415682Y-57464477D02*
X154402499Y-57425820D01*
X154428716Y-57503173D02*
X154415682Y-57464477D01*
X154441603Y-57541908D02*
X154428716Y-57503173D01*
X154454343Y-57580680D02*
X154441603Y-57541908D01*
X154466935Y-57619491D02*
X154454343Y-57580680D01*
X154479379Y-57658339D02*
X154466935Y-57619491D01*
X154491676Y-57697223D02*
X154479379Y-57658339D01*
X154503825Y-57736144D02*
X154491676Y-57697223D01*
X154515827Y-57775101D02*
X154503825Y-57736144D01*
X154527681Y-57814094D02*
X154515827Y-57775101D01*
X154539388Y-57853122D02*
X154527681Y-57814094D01*
X154550947Y-57892184D02*
X154539388Y-57853122D01*
X154562359Y-57931280D02*
X154550947Y-57892184D01*
X154573623Y-57970410D02*
X154562359Y-57931280D01*
X154584739Y-58009574D02*
X154573623Y-57970410D01*
X154595708Y-58048770D02*
X154584739Y-58009574D01*
X154606530Y-58087999D02*
X154595708Y-58048770D01*
X154617203Y-58127260D02*
X154606530Y-58087999D01*
X154627730Y-58166553D02*
X154617203Y-58127260D01*
X154638109Y-58205876D02*
X154627730Y-58166553D01*
X154648340Y-58245231D02*
X154638109Y-58205876D01*
X154658424Y-58284615D02*
X154648340Y-58245231D01*
X154668360Y-58324030D02*
X154658424Y-58284615D01*
X154678149Y-58363473D02*
X154668360Y-58324030D01*
X154687790Y-58402946D02*
X154678149Y-58363473D01*
X154697284Y-58442447D02*
X154687790Y-58402946D01*
X154706630Y-58481976D02*
X154697284Y-58442447D01*
X154715829Y-58521533D02*
X154706630Y-58481976D01*
X154724880Y-58561117D02*
X154715829Y-58521533D01*
X154733784Y-58600728D02*
X154724880Y-58561117D01*
X154742540Y-58640365D02*
X154733784Y-58600728D01*
X154751149Y-58680028D02*
X154742540Y-58640365D01*
X154759610Y-58719717D02*
X154751149Y-58680028D01*
X154767923Y-58759430D02*
X154759610Y-58719717D01*
X154776090Y-58799168D02*
X154767923Y-58759430D01*
X154784108Y-58838930D02*
X154776090Y-58799168D01*
X154791980Y-58878716D02*
X154784108Y-58838930D01*
X154799703Y-58918525D02*
X154791980Y-58878716D01*
X154807280Y-58958356D02*
X154799703Y-58918525D01*
X154814708Y-58998211D02*
X154807280Y-58958356D01*
X154821990Y-59038087D02*
X154814708Y-58998211D01*
X154829124Y-59077984D02*
X154821990Y-59038087D01*
X154836110Y-59117903D02*
X154829124Y-59077984D01*
X154842949Y-59157842D02*
X154836110Y-59117903D01*
X154849640Y-59197801D02*
X154842949Y-59157842D01*
X154856184Y-59237780D02*
X154849640Y-59197801D01*
X154862581Y-59277778D02*
X154856184Y-59237780D01*
X154868830Y-59317795D02*
X154862581Y-59277778D01*
X154874931Y-59357831D02*
X154868830Y-59317795D01*
X154880885Y-59397885D02*
X154874931Y-59357831D01*
X154886692Y-59437956D02*
X154880885Y-59397885D01*
X154892351Y-59478044D02*
X154886692Y-59437956D01*
X154897863Y-59518149D02*
X154892351Y-59478044D01*
X154903227Y-59558269D02*
X154897863Y-59518149D01*
X154908444Y-59598406D02*
X154903227Y-59558269D01*
X154913514Y-59638558D02*
X154908444Y-59598406D01*
X154918435Y-59678725D02*
X154913514Y-59638558D01*
X154923210Y-59718907D02*
X154918435Y-59678725D01*
X154927837Y-59759102D02*
X154923210Y-59718907D01*
X154932317Y-59799311D02*
X154927837Y-59759102D01*
X154936649Y-59839533D02*
X154932317Y-59799311D01*
X154940834Y-59879768D02*
X154936649Y-59839533D01*
X154944871Y-59920015D02*
X154940834Y-59879768D01*
X154948761Y-59960274D02*
X154944871Y-59920015D01*
X154952503Y-60000545D02*
X154948761Y-59960274D01*
X154956098Y-60040826D02*
X154952503Y-60000545D01*
X154959546Y-60081118D02*
X154956098Y-60040826D01*
X154962846Y-60121420D02*
X154959546Y-60081118D01*
X154965999Y-60161731D02*
X154962846Y-60121420D01*
X154969004Y-60202052D02*
X154965999Y-60161731D01*
X154971862Y-60242381D02*
X154969004Y-60202052D01*
X154974573Y-60282719D02*
X154971862Y-60242381D01*
X154977136Y-60323064D02*
X154974573Y-60282719D01*
X154979552Y-60363417D02*
X154977136Y-60323064D01*
X154981820Y-60403777D02*
X154979552Y-60363417D01*
X154983941Y-60444144D02*
X154981820Y-60403777D01*
X154985915Y-60484517D02*
X154983941Y-60444144D01*
X154987741Y-60524895D02*
X154985915Y-60484517D01*
X154989420Y-60565279D02*
X154987741Y-60524895D01*
X154990951Y-60605667D02*
X154989420Y-60565279D01*
X154992335Y-60646060D02*
X154990951Y-60605667D01*
X154993572Y-60686457D02*
X154992335Y-60646060D01*
X154994661Y-60726857D02*
X154993572Y-60686457D01*
X154995603Y-60767260D02*
X154994661Y-60726857D01*
X154996397Y-60807666D02*
X154995603Y-60767260D01*
X154997044Y-60848074D02*
X154996397Y-60807666D01*
X154997544Y-60888483D02*
X154997044Y-60848074D01*
X154997896Y-60928894D02*
X154997544Y-60888483D01*
X154998101Y-60969306D02*
X154997896Y-60928894D01*
X154998158Y-61009718D02*
X154998101Y-60969306D01*
X154998069Y-61050131D02*
X154998158Y-61009718D01*
X154997831Y-61090542D02*
X154998069Y-61050131D01*
X154997447Y-61130953D02*
X154997831Y-61090542D01*
X154996915Y-61171363D02*
X154997447Y-61130953D01*
X154996236Y-61211770D02*
X154996915Y-61171363D01*
X154995409Y-61252176D02*
X154996236Y-61211770D01*
X154994435Y-61292579D02*
X154995409Y-61252176D01*
X154993314Y-61332978D02*
X154994435Y-61292579D01*
X154992045Y-61373374D02*
X154993314Y-61332978D01*
X154990629Y-61413767D02*
X154992045Y-61373374D01*
X154989066Y-61454154D02*
X154990629Y-61413767D01*
X154987355Y-61494537D02*
X154989066Y-61454154D01*
X154985497Y-61534915D02*
X154987355Y-61494537D01*
X154983492Y-61575287D02*
X154985497Y-61534915D01*
X154981339Y-61615653D02*
X154983492Y-61575287D01*
X154979039Y-61656012D02*
X154981339Y-61615653D01*
X154976591Y-61696364D02*
X154979039Y-61656012D01*
X154973997Y-61736708D02*
X154976591Y-61696364D01*
X154971255Y-61777045D02*
X154973997Y-61736708D01*
X154968365Y-61817373D02*
X154971255Y-61777045D01*
X154965329Y-61857692D02*
X154968365Y-61817373D01*
X154962145Y-61898003D02*
X154965329Y-61857692D01*
X154958813Y-61938303D02*
X154962145Y-61898003D01*
X154955334Y-61978594D02*
X154958813Y-61938303D01*
X154951709Y-62018873D02*
X154955334Y-61978594D01*
X154947935Y-62059142D02*
X154951709Y-62018873D01*
X154944015Y-62099400D02*
X154947935Y-62059142D01*
X154939947Y-62139645D02*
X154944015Y-62099400D01*
X154935731Y-62179878D02*
X154939947Y-62139645D01*
X154931369Y-62220099D02*
X154935731Y-62179878D01*
X154926859Y-62260306D02*
X154931369Y-62220099D01*
X154922202Y-62300499D02*
X154926859Y-62260306D01*
X154917398Y-62340679D02*
X154922202Y-62300499D01*
X154912446Y-62380844D02*
X154917398Y-62340679D01*
X154907347Y-62420994D02*
X154912446Y-62380844D01*
X154902101Y-62461129D02*
X154907347Y-62420994D01*
X154896707Y-62501247D02*
X154902101Y-62461129D01*
X154891166Y-62541350D02*
X154896707Y-62501247D01*
X154885478Y-62581436D02*
X154891166Y-62541350D01*
X154879642Y-62621504D02*
X154885478Y-62581436D01*
X154873660Y-62661555D02*
X154879642Y-62621504D01*
X154867530Y-62701589D02*
X154873660Y-62661555D01*
X154861252Y-62741603D02*
X154867530Y-62701589D01*
X154854828Y-62781599D02*
X154861252Y-62741603D01*
X154848256Y-62821575D02*
X154854828Y-62781599D01*
X154841537Y-62861532D02*
X154848256Y-62821575D01*
X154834671Y-62901468D02*
X154841537Y-62861532D01*
X145893614Y-71842524D02*
X154834671Y-62901468D01*
M02*
