G04 #@! TF.FileFunction,Copper,L1,Top,Signal*
%FSLAX46Y46*%
G04 Gerber Fmt 4.6, Leading zero omitted, Abs format (unit mm)*
G04 Created by KiCad (PCBNEW 4.0.4-stable) date 10/29/16 17:51:51*
%MOMM*%
%LPD*%
G01*
G04 APERTURE LIST*
%ADD10C,0.100000*%
%ADD11R,1.000000X1.600000*%
%ADD12R,1.600000X1.000000*%
%ADD13C,1.900000*%
%ADD14C,0.600000*%
%ADD15C,0.250000*%
%ADD16C,0.254000*%
G04 APERTURE END LIST*
D10*
D11*
X139100000Y-58500000D03*
X135900000Y-58500000D03*
X139100000Y-63500000D03*
X135900000Y-63500000D03*
D12*
X141500000Y-52900000D03*
X141500000Y-56100000D03*
X146500000Y-52900000D03*
X146500000Y-56100000D03*
X146500000Y-69100000D03*
X146500000Y-65900000D03*
X141500000Y-69100000D03*
X141500000Y-65900000D03*
D11*
X148900000Y-63500000D03*
X152100000Y-63500000D03*
X148900000Y-58500000D03*
X152100000Y-58500000D03*
D10*
G36*
X144478858Y-61935355D02*
X143135355Y-63278858D01*
X141721142Y-61864645D01*
X143064645Y-60521142D01*
X144478858Y-61935355D01*
X144478858Y-61935355D01*
G37*
D13*
X144896051Y-60103949D03*
D14*
X144000000Y-70000000D03*
X149000000Y-61000000D03*
X139810900Y-56810800D03*
X143502200Y-54296400D03*
D15*
X146500000Y-69100000D02*
X144900000Y-69100000D01*
X144900000Y-69100000D02*
X144000000Y-70000000D01*
X148900000Y-63500000D02*
X148900000Y-61100000D01*
X148900000Y-61100000D02*
X149000000Y-61000000D01*
X136463900Y-56810800D02*
X135900000Y-57374700D01*
X139810900Y-56810800D02*
X136463900Y-56810800D01*
X135900000Y-58500000D02*
X135900000Y-57374700D01*
X141500000Y-59974700D02*
X139100000Y-62374700D01*
X141500000Y-56100000D02*
X141500000Y-59974700D01*
X139100000Y-63500000D02*
X139100000Y-62374700D01*
X148900000Y-57374700D02*
X147625300Y-56100000D01*
X152100000Y-57374700D02*
X148900000Y-57374700D01*
X146500000Y-56100000D02*
X147625300Y-56100000D01*
X139100000Y-64625300D02*
X135900000Y-64625300D01*
X140374700Y-65900000D02*
X139100000Y-64625300D01*
X141500000Y-65900000D02*
X140374700Y-65900000D01*
X135900000Y-63500000D02*
X135900000Y-64625300D01*
X152100000Y-57937300D02*
X152100000Y-57374700D01*
X152100000Y-57937300D02*
X152100000Y-58500000D01*
X143450600Y-66725300D02*
X142625300Y-65900000D01*
X147434800Y-66725300D02*
X143450600Y-66725300D01*
X151274700Y-62885400D02*
X147434800Y-66725300D01*
X151274700Y-60450600D02*
X151274700Y-62885400D01*
X152100000Y-59625300D02*
X151274700Y-60450600D01*
X152100000Y-58500000D02*
X152100000Y-59625300D01*
X141500000Y-65900000D02*
X142625300Y-65900000D01*
X143571100Y-54296400D02*
X145374700Y-56100000D01*
X143502200Y-54296400D02*
X143571100Y-54296400D01*
X146500000Y-56100000D02*
X145374700Y-56100000D01*
X143980300Y-52900000D02*
X146500000Y-52900000D01*
X142829700Y-54050600D02*
X143980300Y-52900000D01*
X142829700Y-54649300D02*
X142829700Y-54050600D01*
X146500000Y-58319600D02*
X142829700Y-54649300D01*
X146500000Y-64052600D02*
X146500000Y-58319600D01*
X145374700Y-65177900D02*
X146500000Y-64052600D01*
X145374700Y-65900000D02*
X145374700Y-65177900D01*
X146500000Y-65900000D02*
X145374700Y-65900000D01*
X143450600Y-68274700D02*
X142625300Y-69100000D01*
X148450600Y-68274700D02*
X143450600Y-68274700D01*
X152100000Y-64625300D02*
X148450600Y-68274700D01*
X152100000Y-63500000D02*
X152100000Y-64625300D01*
X141500000Y-69100000D02*
X142625300Y-69100000D01*
D16*
G36*
X144064625Y-50440228D02*
X144128177Y-50440796D01*
X144191503Y-50441739D01*
X144254868Y-50443061D01*
X144318338Y-50444763D01*
X144381540Y-50446835D01*
X144445191Y-50449303D01*
X144508346Y-50452128D01*
X144571737Y-50455342D01*
X144635076Y-50458933D01*
X144698497Y-50462908D01*
X144761574Y-50467239D01*
X144825031Y-50471977D01*
X144888130Y-50477067D01*
X144951449Y-50482556D01*
X145014666Y-50488416D01*
X145077663Y-50494636D01*
X145140900Y-50501261D01*
X145203973Y-50508250D01*
X145266957Y-50515610D01*
X145330068Y-50523368D01*
X145393009Y-50531488D01*
X145456027Y-50540001D01*
X145518894Y-50548877D01*
X145581838Y-50558149D01*
X145644547Y-50567770D01*
X145707253Y-50577775D01*
X145770034Y-50588179D01*
X145832634Y-50598940D01*
X145895321Y-50610102D01*
X145957943Y-50621641D01*
X146020193Y-50633498D01*
X146082699Y-50645793D01*
X146145099Y-50658458D01*
X146207468Y-50671507D01*
X146269770Y-50684935D01*
X146331734Y-50698680D01*
X146394102Y-50712909D01*
X146456041Y-50727433D01*
X146517892Y-50742332D01*
X146579953Y-50757676D01*
X146641585Y-50773311D01*
X146703561Y-50789431D01*
X146765032Y-50805818D01*
X146826538Y-50822612D01*
X146888285Y-50839875D01*
X146949634Y-50857427D01*
X147010937Y-50875369D01*
X147072125Y-50893681D01*
X147133182Y-50912355D01*
X147194363Y-50931477D01*
X147255292Y-50950926D01*
X147316227Y-50970786D01*
X147376821Y-50990942D01*
X147437468Y-51011527D01*
X147498131Y-51032530D01*
X147558572Y-51053869D01*
X147618962Y-51075606D01*
X147679151Y-51097686D01*
X147739224Y-51120141D01*
X147799332Y-51143027D01*
X147859229Y-51166254D01*
X147919111Y-51189898D01*
X147978626Y-51213818D01*
X148038311Y-51238233D01*
X148097774Y-51262984D01*
X148157020Y-51288072D01*
X148216270Y-51313592D01*
X148275320Y-51339458D01*
X148334188Y-51365675D01*
X148393100Y-51392349D01*
X148451824Y-51419373D01*
X148510238Y-51446693D01*
X148568742Y-51474495D01*
X148626918Y-51502583D01*
X148685152Y-51531144D01*
X148743171Y-51560046D01*
X148801097Y-51589350D01*
X148858780Y-51618981D01*
X148916395Y-51649030D01*
X148973785Y-51679415D01*
X149031173Y-51710257D01*
X149088227Y-51741376D01*
X149145124Y-51772870D01*
X149202088Y-51804865D01*
X149258747Y-51837155D01*
X149315178Y-51869781D01*
X149371497Y-51902812D01*
X149427712Y-51936254D01*
X149483799Y-51970097D01*
X149539686Y-52004295D01*
X149595348Y-52038836D01*
X149650972Y-52073836D01*
X149706333Y-52109158D01*
X149761431Y-52144796D01*
X149816504Y-52180911D01*
X149871428Y-52217422D01*
X149925944Y-52254155D01*
X149980479Y-52291401D01*
X150034731Y-52328955D01*
X150088958Y-52366998D01*
X150142801Y-52405278D01*
X150196595Y-52444034D01*
X150250209Y-52483175D01*
X150303543Y-52522629D01*
X150356675Y-52562453D01*
X150409693Y-52602714D01*
X150462531Y-52643368D01*
X150515144Y-52684379D01*
X150567481Y-52725707D01*
X150619640Y-52767431D01*
X150671815Y-52809712D01*
X150723542Y-52852174D01*
X150775095Y-52895039D01*
X150826503Y-52938338D01*
X150877665Y-52981984D01*
X150928567Y-53025965D01*
X150979417Y-53070468D01*
X151029924Y-53115239D01*
X151080218Y-53160391D01*
X151130288Y-53205919D01*
X151180225Y-53251903D01*
X151229889Y-53298224D01*
X151279296Y-53344892D01*
X151328548Y-53392008D01*
X151377513Y-53439445D01*
X151426302Y-53487318D01*
X151474970Y-53535679D01*
X151504355Y-53565179D01*
X151533887Y-53595056D01*
X151563119Y-53624861D01*
X151592301Y-53654850D01*
X151621262Y-53684841D01*
X151650182Y-53715024D01*
X151678927Y-53745258D01*
X151707419Y-53775461D01*
X151735694Y-53805667D01*
X151764162Y-53836316D01*
X151792200Y-53866738D01*
X151820253Y-53897416D01*
X151848084Y-53928090D01*
X151875884Y-53958969D01*
X151903490Y-53989871D01*
X151930811Y-54020695D01*
X151958089Y-54051713D01*
X151985198Y-54082780D01*
X152012335Y-54114123D01*
X152039227Y-54145428D01*
X152065888Y-54176711D01*
X152092591Y-54208289D01*
X152118794Y-54239519D01*
X152145197Y-54271238D01*
X152171332Y-54302882D01*
X152197387Y-54334679D01*
X152223160Y-54366382D01*
X152248983Y-54398400D01*
X152274511Y-54430303D01*
X152299920Y-54462310D01*
X152325115Y-54494300D01*
X152350197Y-54526401D01*
X152375286Y-54558769D01*
X152400218Y-54591191D01*
X152425060Y-54623757D01*
X152449525Y-54656088D01*
X152473979Y-54688664D01*
X152498324Y-54721357D01*
X152522420Y-54753979D01*
X152546434Y-54786752D01*
X152570387Y-54819708D01*
X152594035Y-54852511D01*
X152617570Y-54885423D01*
X152640985Y-54918435D01*
X152664307Y-54951584D01*
X152687509Y-54984835D01*
X152710476Y-55018022D01*
X152733368Y-55051373D01*
X152756102Y-55084767D01*
X152778852Y-55118463D01*
X152801294Y-55151984D01*
X152823522Y-55185461D01*
X152845664Y-55219088D01*
X152867664Y-55252779D01*
X152889610Y-55286671D01*
X152911283Y-55320426D01*
X152933024Y-55354571D01*
X152954361Y-55388372D01*
X152975640Y-55422366D01*
X152996882Y-55456591D01*
X153017793Y-55490573D01*
X153038818Y-55525034D01*
X153059563Y-55559332D01*
X153080034Y-55593472D01*
X153100548Y-55627981D01*
X153120857Y-55662442D01*
X153141076Y-55697057D01*
X153161118Y-55731669D01*
X153181010Y-55766326D01*
X153200740Y-55801007D01*
X153220276Y-55835654D01*
X153239860Y-55870696D01*
X153259095Y-55905427D01*
X153278360Y-55940522D01*
X153297355Y-55975444D01*
X153316154Y-56010318D01*
X153335021Y-56045640D01*
X153353710Y-56080952D01*
X153372193Y-56116202D01*
X153390484Y-56151406D01*
X153408629Y-56186655D01*
X153426603Y-56221902D01*
X153444541Y-56257407D01*
X153462361Y-56293016D01*
X153479945Y-56328489D01*
X153497437Y-56364114D01*
X153514773Y-56399762D01*
X153532092Y-56435722D01*
X153549068Y-56471314D01*
X153566033Y-56507230D01*
X153582740Y-56542951D01*
X153599333Y-56578776D01*
X153615820Y-56614730D01*
X153632233Y-56650882D01*
X153648353Y-56686747D01*
X153664436Y-56722894D01*
X153680375Y-56759084D01*
X153696169Y-56795313D01*
X153711792Y-56831522D01*
X153727291Y-56867820D01*
X153742632Y-56904124D01*
X153757923Y-56940691D01*
X153772939Y-56976989D01*
X153787892Y-57013516D01*
X153802584Y-57049798D01*
X153817350Y-57086656D01*
X153831801Y-57123127D01*
X153846150Y-57159739D01*
X153860362Y-57196405D01*
X153874469Y-57233211D01*
X153888432Y-57270051D01*
X153902223Y-57306857D01*
X153915886Y-57343738D01*
X153929381Y-57380588D01*
X153942729Y-57417462D01*
X153956011Y-57454588D01*
X153969026Y-57491398D01*
X153982080Y-57528764D01*
X153994853Y-57565770D01*
X154007456Y-57602727D01*
X154019968Y-57639874D01*
X154032384Y-57677192D01*
X154044621Y-57714432D01*
X154056693Y-57751637D01*
X154068664Y-57789008D01*
X154080540Y-57826562D01*
X154092159Y-57863786D01*
X154103649Y-57901081D01*
X154115115Y-57938798D01*
X154126304Y-57976097D01*
X154137464Y-58013811D01*
X154148379Y-58051204D01*
X154159245Y-58088951D01*
X154169844Y-58126295D01*
X154180495Y-58164354D01*
X154190806Y-58201733D01*
X154201097Y-58239586D01*
X154211178Y-58277217D01*
X154221148Y-58314985D01*
X154231008Y-58352915D01*
X154240715Y-58390823D01*
X154250190Y-58428412D01*
X154259666Y-58466593D01*
X154268917Y-58504469D01*
X154278045Y-58542449D01*
X154287029Y-58580446D01*
X154295826Y-58618277D01*
X154304519Y-58656293D01*
X154313075Y-58694352D01*
X154321515Y-58732559D01*
X154329765Y-58770566D01*
X154337912Y-58808781D01*
X154345886Y-58846874D01*
X154353743Y-58885105D01*
X154361499Y-58923566D01*
X154369061Y-58961791D01*
X154376435Y-58999801D01*
X154383711Y-59038051D01*
X154390876Y-59076490D01*
X154397833Y-59114589D01*
X154404715Y-59153075D01*
X154411427Y-59191432D01*
X154417999Y-59229809D01*
X154424411Y-59268101D01*
X154430750Y-59306831D01*
X154436857Y-59345011D01*
X154442865Y-59383483D01*
X154448705Y-59421811D01*
X154454463Y-59460541D01*
X154460012Y-59498835D01*
X154465479Y-59537555D01*
X154470758Y-59575971D01*
X154475921Y-59614586D01*
X154480933Y-59653146D01*
X154485840Y-59692003D01*
X154490511Y-59730134D01*
X154495152Y-59769188D01*
X154499573Y-59807588D01*
X154503861Y-59846072D01*
X154508059Y-59885056D01*
X154512057Y-59923489D01*
X154515943Y-59962231D01*
X154519690Y-60001011D01*
X154523261Y-60039443D01*
X154526753Y-60078569D01*
X154530066Y-60117297D01*
X154533202Y-60155592D01*
X154536259Y-60194670D01*
X154539133Y-60233239D01*
X154541887Y-60272096D01*
X154544476Y-60310617D01*
X154546947Y-60349503D01*
X154549282Y-60388512D01*
X154551456Y-60427191D01*
X154553486Y-60465832D01*
X154555393Y-60504824D01*
X154557146Y-60543584D01*
X154558756Y-60582316D01*
X154560236Y-60621359D01*
X154561560Y-60659991D01*
X154562745Y-60698708D01*
X154563793Y-60737532D01*
X154564701Y-60776490D01*
X154565464Y-60815339D01*
X154566088Y-60854256D01*
X154566566Y-60892926D01*
X154566907Y-60932088D01*
X154567102Y-60970463D01*
X154567157Y-61009495D01*
X154567072Y-61048270D01*
X154566843Y-61087228D01*
X154566473Y-61126097D01*
X154565960Y-61165044D01*
X154565312Y-61203633D01*
X154564515Y-61242593D01*
X154563579Y-61281411D01*
X154562499Y-61320322D01*
X154561283Y-61359036D01*
X154559929Y-61397667D01*
X154558418Y-61436708D01*
X154556765Y-61475714D01*
X154554989Y-61514330D01*
X154553065Y-61553062D01*
X154550998Y-61591808D01*
X154548778Y-61630764D01*
X154546433Y-61669426D01*
X154543940Y-61708202D01*
X154541309Y-61746903D01*
X154538508Y-61785991D01*
X154535617Y-61824386D01*
X154532534Y-61863420D01*
X154529348Y-61901958D01*
X154526002Y-61940709D01*
X154522527Y-61979313D01*
X154518869Y-62018344D01*
X154515133Y-62056720D01*
X154511209Y-62095536D01*
X154507173Y-62134054D01*
X154502956Y-62172942D01*
X154498636Y-62211455D01*
X154494149Y-62250180D01*
X154489536Y-62288757D01*
X154484793Y-62327230D01*
X154479880Y-62365911D01*
X154474823Y-62404603D01*
X154469669Y-62442935D01*
X154464310Y-62481721D01*
X154458859Y-62520131D01*
X154453256Y-62558597D01*
X154447529Y-62596945D01*
X154441589Y-62635739D01*
X154435594Y-62673950D01*
X154432328Y-62694285D01*
X152988464Y-64138149D01*
X152988464Y-62700000D01*
X152961897Y-62558810D01*
X152878454Y-62429135D01*
X152751134Y-62342141D01*
X152600000Y-62311536D01*
X151780700Y-62311536D01*
X151780700Y-60660192D01*
X152457796Y-59983096D01*
X152567483Y-59818938D01*
X152593436Y-59688464D01*
X152600000Y-59688464D01*
X152741190Y-59661897D01*
X152870865Y-59578454D01*
X152957859Y-59451134D01*
X152988464Y-59300000D01*
X152988464Y-57700000D01*
X152961897Y-57558810D01*
X152878454Y-57429135D01*
X152751134Y-57342141D01*
X152600000Y-57311536D01*
X152593436Y-57311536D01*
X152567483Y-57181062D01*
X152457796Y-57016904D01*
X152293638Y-56907217D01*
X152100000Y-56868700D01*
X149109592Y-56868700D01*
X147983096Y-55742204D01*
X147818938Y-55632517D01*
X147688464Y-55606564D01*
X147688464Y-55600000D01*
X147661897Y-55458810D01*
X147578454Y-55329135D01*
X147526004Y-55293297D01*
X148518743Y-55293297D01*
X148743737Y-55837823D01*
X149159985Y-56254799D01*
X149704118Y-56480743D01*
X150293297Y-56481257D01*
X150837823Y-56256263D01*
X151254799Y-55840015D01*
X151480743Y-55295882D01*
X151481257Y-54706703D01*
X151256263Y-54162177D01*
X150840015Y-53745201D01*
X150295882Y-53519257D01*
X149706703Y-53518743D01*
X149162177Y-53743737D01*
X148745201Y-54159985D01*
X148519257Y-54704118D01*
X148518743Y-55293297D01*
X147526004Y-55293297D01*
X147451134Y-55242141D01*
X147300000Y-55211536D01*
X145700000Y-55211536D01*
X145558810Y-55238103D01*
X145429135Y-55321546D01*
X145381522Y-55391230D01*
X144183291Y-54192999D01*
X144183318Y-54161535D01*
X144079861Y-53911148D01*
X143888459Y-53719413D01*
X143879994Y-53715898D01*
X144189892Y-53406000D01*
X145312665Y-53406000D01*
X145338103Y-53541190D01*
X145421546Y-53670865D01*
X145548866Y-53757859D01*
X145700000Y-53788464D01*
X147300000Y-53788464D01*
X147441190Y-53761897D01*
X147570865Y-53678454D01*
X147657859Y-53551134D01*
X147688464Y-53400000D01*
X147688464Y-52400000D01*
X147661897Y-52258810D01*
X147578454Y-52129135D01*
X147451134Y-52042141D01*
X147300000Y-52011536D01*
X145700000Y-52011536D01*
X145558810Y-52038103D01*
X145429135Y-52121546D01*
X145342141Y-52248866D01*
X145312751Y-52394000D01*
X143980300Y-52394000D01*
X143786662Y-52432517D01*
X143622504Y-52542204D01*
X142935000Y-53229708D01*
X142935000Y-53185750D01*
X142776250Y-53027000D01*
X141627000Y-53027000D01*
X141627000Y-53876250D01*
X141785750Y-54035000D01*
X142326803Y-54035000D01*
X142323700Y-54050600D01*
X142323700Y-54649300D01*
X142362217Y-54842938D01*
X142471904Y-55007096D01*
X145994000Y-58529192D01*
X145994000Y-58971652D01*
X145790516Y-58767813D01*
X145211112Y-58527224D01*
X144583743Y-58526676D01*
X144003919Y-58766254D01*
X143559915Y-59209484D01*
X143319326Y-59788888D01*
X143319195Y-59939261D01*
X143190954Y-59886142D01*
X142938336Y-59886142D01*
X142704947Y-59982814D01*
X142145936Y-60541825D01*
X142145936Y-60766331D01*
X143100000Y-61720395D01*
X143114143Y-61706253D01*
X143293748Y-61885858D01*
X143279605Y-61900000D01*
X144233669Y-62854064D01*
X144458175Y-62854064D01*
X145017186Y-62295053D01*
X145113858Y-62061664D01*
X145113858Y-61809046D01*
X145060858Y-61681093D01*
X145208359Y-61681222D01*
X145788183Y-61441644D01*
X145994000Y-61236186D01*
X145994000Y-63843008D01*
X145016904Y-64820104D01*
X144907217Y-64984262D01*
X144868700Y-65177900D01*
X144868700Y-65900000D01*
X144907217Y-66093638D01*
X144991182Y-66219300D01*
X143660192Y-66219300D01*
X142983096Y-65542204D01*
X142818938Y-65432517D01*
X142688464Y-65406564D01*
X142688464Y-65400000D01*
X142661897Y-65258810D01*
X142578454Y-65129135D01*
X142451134Y-65042141D01*
X142300000Y-65011536D01*
X140700000Y-65011536D01*
X140558810Y-65038103D01*
X140429135Y-65121546D01*
X140381522Y-65191230D01*
X139808729Y-64618437D01*
X139870865Y-64578454D01*
X139957859Y-64451134D01*
X139988464Y-64300000D01*
X139988464Y-62998314D01*
X142181292Y-62998314D01*
X142181292Y-63222820D01*
X142775656Y-63817185D01*
X143009046Y-63913858D01*
X143261664Y-63913858D01*
X143495053Y-63817186D01*
X144054064Y-63258175D01*
X144054064Y-63033669D01*
X143100000Y-62079605D01*
X142181292Y-62998314D01*
X139988464Y-62998314D01*
X139988464Y-62700000D01*
X139961897Y-62558810D01*
X139878454Y-62429135D01*
X139808770Y-62381522D01*
X140451956Y-61738336D01*
X141086142Y-61738336D01*
X141086142Y-61990954D01*
X141182815Y-62224344D01*
X141777180Y-62818708D01*
X142001686Y-62818708D01*
X142920395Y-61900000D01*
X141966331Y-60945936D01*
X141741825Y-60945936D01*
X141182814Y-61504947D01*
X141086142Y-61738336D01*
X140451956Y-61738336D01*
X141857796Y-60332496D01*
X141870018Y-60314204D01*
X141967483Y-60168338D01*
X142006000Y-59974700D01*
X142006000Y-56988464D01*
X142300000Y-56988464D01*
X142441190Y-56961897D01*
X142570865Y-56878454D01*
X142657859Y-56751134D01*
X142688464Y-56600000D01*
X142688464Y-55600000D01*
X142661897Y-55458810D01*
X142578454Y-55329135D01*
X142451134Y-55242141D01*
X142300000Y-55211536D01*
X140700000Y-55211536D01*
X140558810Y-55238103D01*
X140429135Y-55321546D01*
X140342141Y-55448866D01*
X140311536Y-55600000D01*
X140311536Y-56348389D01*
X140197159Y-56233813D01*
X139946954Y-56129918D01*
X139676035Y-56129682D01*
X139425648Y-56233139D01*
X139353862Y-56304800D01*
X136463900Y-56304800D01*
X136270262Y-56343317D01*
X136106104Y-56453004D01*
X135542204Y-57016904D01*
X135432517Y-57181062D01*
X135406564Y-57311536D01*
X135400000Y-57311536D01*
X135258810Y-57338103D01*
X135129135Y-57421546D01*
X135042141Y-57548866D01*
X135011536Y-57700000D01*
X135011536Y-59300000D01*
X135038103Y-59441190D01*
X135121546Y-59570865D01*
X135248866Y-59657859D01*
X135400000Y-59688464D01*
X136400000Y-59688464D01*
X136541190Y-59661897D01*
X136670865Y-59578454D01*
X136757859Y-59451134D01*
X136788464Y-59300000D01*
X136788464Y-58785750D01*
X137965000Y-58785750D01*
X137965000Y-59426309D01*
X138061673Y-59659698D01*
X138240301Y-59838327D01*
X138473690Y-59935000D01*
X138814250Y-59935000D01*
X138973000Y-59776250D01*
X138973000Y-58627000D01*
X139227000Y-58627000D01*
X139227000Y-59776250D01*
X139385750Y-59935000D01*
X139726310Y-59935000D01*
X139959699Y-59838327D01*
X140138327Y-59659698D01*
X140235000Y-59426309D01*
X140235000Y-58785750D01*
X140076250Y-58627000D01*
X139227000Y-58627000D01*
X138973000Y-58627000D01*
X138123750Y-58627000D01*
X137965000Y-58785750D01*
X136788464Y-58785750D01*
X136788464Y-57700000D01*
X136761897Y-57558810D01*
X136678454Y-57429135D01*
X136608770Y-57381522D01*
X136673492Y-57316800D01*
X138085175Y-57316800D01*
X138061673Y-57340302D01*
X137965000Y-57573691D01*
X137965000Y-58214250D01*
X138123750Y-58373000D01*
X138973000Y-58373000D01*
X138973000Y-58353000D01*
X139227000Y-58353000D01*
X139227000Y-58373000D01*
X140076250Y-58373000D01*
X140235000Y-58214250D01*
X140235000Y-57573691D01*
X140163810Y-57401824D01*
X140196152Y-57388461D01*
X140387887Y-57197059D01*
X140491782Y-56946854D01*
X140491806Y-56918872D01*
X140548866Y-56957859D01*
X140700000Y-56988464D01*
X140994000Y-56988464D01*
X140994000Y-59765108D01*
X138742204Y-62016904D01*
X138632517Y-62181062D01*
X138606564Y-62311536D01*
X138600000Y-62311536D01*
X138458810Y-62338103D01*
X138329135Y-62421546D01*
X138242141Y-62548866D01*
X138211536Y-62700000D01*
X138211536Y-64119300D01*
X136788464Y-64119300D01*
X136788464Y-62700000D01*
X136761897Y-62558810D01*
X136678454Y-62429135D01*
X136551134Y-62342141D01*
X136400000Y-62311536D01*
X135400000Y-62311536D01*
X135258810Y-62338103D01*
X135129135Y-62421546D01*
X135042141Y-62548866D01*
X135011536Y-62700000D01*
X135011536Y-64300000D01*
X135038103Y-64441190D01*
X135121546Y-64570865D01*
X135248866Y-64657859D01*
X135400000Y-64688464D01*
X135406564Y-64688464D01*
X135432517Y-64818938D01*
X135542204Y-64983096D01*
X135706362Y-65092783D01*
X135900000Y-65131300D01*
X138890408Y-65131300D01*
X140016904Y-66257796D01*
X140181062Y-66367483D01*
X140311536Y-66393436D01*
X140311536Y-66400000D01*
X140338103Y-66541190D01*
X140421546Y-66670865D01*
X140548866Y-66757859D01*
X140700000Y-66788464D01*
X142300000Y-66788464D01*
X142441190Y-66761897D01*
X142570865Y-66678454D01*
X142618478Y-66608770D01*
X143092804Y-67083096D01*
X143256962Y-67192783D01*
X143450600Y-67231300D01*
X147434800Y-67231300D01*
X147628438Y-67192783D01*
X147792596Y-67083096D01*
X151211536Y-63664156D01*
X151211536Y-64300000D01*
X151238103Y-64441190D01*
X151321546Y-64570865D01*
X151391230Y-64618478D01*
X148241008Y-67768700D01*
X143450600Y-67768700D01*
X143256962Y-67807217D01*
X143092804Y-67916904D01*
X142618437Y-68391271D01*
X142578454Y-68329135D01*
X142451134Y-68242141D01*
X142300000Y-68211536D01*
X140700000Y-68211536D01*
X140558810Y-68238103D01*
X140429135Y-68321546D01*
X140342141Y-68448866D01*
X140311536Y-68600000D01*
X140311536Y-69600000D01*
X140338103Y-69741190D01*
X140421546Y-69870865D01*
X140548866Y-69957859D01*
X140700000Y-69988464D01*
X142300000Y-69988464D01*
X142441190Y-69961897D01*
X142570865Y-69878454D01*
X142657859Y-69751134D01*
X142688464Y-69600000D01*
X142688464Y-69593436D01*
X142818938Y-69567483D01*
X142983096Y-69457796D01*
X143055142Y-69385750D01*
X145065000Y-69385750D01*
X145065000Y-69726310D01*
X145161673Y-69959699D01*
X145340302Y-70138327D01*
X145573691Y-70235000D01*
X146214250Y-70235000D01*
X146373000Y-70076250D01*
X146373000Y-69227000D01*
X145223750Y-69227000D01*
X145065000Y-69385750D01*
X143055142Y-69385750D01*
X143660192Y-68780700D01*
X145065000Y-68780700D01*
X145065000Y-68814250D01*
X145223750Y-68973000D01*
X146373000Y-68973000D01*
X146373000Y-68953000D01*
X146627000Y-68953000D01*
X146627000Y-68973000D01*
X147776250Y-68973000D01*
X147935000Y-68814250D01*
X147935000Y-68780700D01*
X148345912Y-68780700D01*
X147837931Y-69288681D01*
X147776250Y-69227000D01*
X146627000Y-69227000D01*
X146627000Y-70076250D01*
X146785750Y-70235000D01*
X146891612Y-70235000D01*
X145686431Y-71440181D01*
X145666357Y-71443405D01*
X145627630Y-71449480D01*
X145589206Y-71455363D01*
X145550658Y-71461120D01*
X145512273Y-71466711D01*
X145473802Y-71472170D01*
X145434980Y-71477532D01*
X145396706Y-71482677D01*
X145358004Y-71487736D01*
X145319567Y-71492617D01*
X145280712Y-71497406D01*
X145242271Y-71502002D01*
X145203520Y-71506492D01*
X145165160Y-71510794D01*
X145126165Y-71515023D01*
X145087643Y-71519058D01*
X145048908Y-71522973D01*
X145010448Y-71526718D01*
X144971367Y-71530379D01*
X144932885Y-71533843D01*
X144894119Y-71537189D01*
X144855511Y-71540379D01*
X144816492Y-71543461D01*
X144777987Y-71546360D01*
X144739249Y-71549134D01*
X144700305Y-71551782D01*
X144661464Y-71554279D01*
X144622966Y-71556612D01*
X144583872Y-71558840D01*
X144545473Y-71560886D01*
X144506572Y-71562819D01*
X144467557Y-71564614D01*
X144428824Y-71566254D01*
X144389872Y-71567760D01*
X144351223Y-71569115D01*
X144312332Y-71570335D01*
X144273526Y-71571411D01*
X144234653Y-71572348D01*
X144195846Y-71573140D01*
X144157069Y-71573792D01*
X144118275Y-71574300D01*
X144079294Y-71574671D01*
X144040399Y-71574898D01*
X144001757Y-71574983D01*
X143962568Y-71574926D01*
X143924191Y-71574730D01*
X143885032Y-71574388D01*
X143846360Y-71573909D01*
X143807229Y-71573281D01*
X143768813Y-71572524D01*
X143729634Y-71571610D01*
X143691078Y-71570570D01*
X143652102Y-71569375D01*
X143613306Y-71568045D01*
X143574581Y-71566575D01*
X143535679Y-71564957D01*
X143496941Y-71563205D01*
X143458208Y-71561310D01*
X143419231Y-71559261D01*
X143380450Y-71557080D01*
X143341602Y-71554753D01*
X143302938Y-71552296D01*
X143264177Y-71549690D01*
X143225315Y-71546935D01*
X143186784Y-71544062D01*
X143147986Y-71541026D01*
X143109162Y-71537846D01*
X143070621Y-71534548D01*
X143031602Y-71531063D01*
X142993107Y-71527485D01*
X142954364Y-71523740D01*
X142915591Y-71519850D01*
X142876919Y-71515826D01*
X142838131Y-71511646D01*
X142799750Y-71507369D01*
X142761082Y-71502917D01*
X142722606Y-71498343D01*
X142683750Y-71493581D01*
X142645319Y-71488728D01*
X142606679Y-71483704D01*
X142568025Y-71478534D01*
X142529775Y-71473276D01*
X142491176Y-71467825D01*
X142452462Y-71462214D01*
X142414143Y-71456517D01*
X142375676Y-71450653D01*
X142337334Y-71444665D01*
X142298758Y-71438495D01*
X142260128Y-71432170D01*
X142222097Y-71425800D01*
X142183482Y-71419187D01*
X142145163Y-71412479D01*
X142106842Y-71405626D01*
X142068455Y-71398615D01*
X142030270Y-71391496D01*
X141992056Y-71384226D01*
X141953621Y-71376767D01*
X141915632Y-71369250D01*
X141877274Y-71361514D01*
X141838965Y-71353639D01*
X141800994Y-71345689D01*
X141762778Y-71337540D01*
X141724565Y-71329245D01*
X141686714Y-71320882D01*
X141648555Y-71312303D01*
X141610399Y-71303577D01*
X141572612Y-71294789D01*
X141534488Y-71285773D01*
X141496468Y-71276634D01*
X141458670Y-71267400D01*
X141420861Y-71258016D01*
X141382892Y-71248443D01*
X141344959Y-71238730D01*
X141307328Y-71228945D01*
X141269502Y-71218960D01*
X141231577Y-71208799D01*
X141194063Y-71198598D01*
X141156173Y-71188144D01*
X141118685Y-71177652D01*
X141081177Y-71167004D01*
X141043192Y-71156069D01*
X141005686Y-71145119D01*
X140968465Y-71134104D01*
X140930631Y-71122753D01*
X140893483Y-71111459D01*
X140855955Y-71099895D01*
X140818634Y-71088246D01*
X140781211Y-71076409D01*
X140743929Y-71064464D01*
X140706413Y-71052292D01*
X140669193Y-71040059D01*
X140632046Y-71027699D01*
X140594789Y-71015147D01*
X140557987Y-71002596D01*
X140520560Y-70989676D01*
X140483741Y-70976811D01*
X140446706Y-70963716D01*
X140409639Y-70950454D01*
X140372843Y-70937133D01*
X140335836Y-70923579D01*
X140298957Y-70909915D01*
X140262153Y-70896122D01*
X140225399Y-70882191D01*
X140188669Y-70868111D01*
X140152062Y-70853921D01*
X140115466Y-70839578D01*
X140078789Y-70825044D01*
X140042027Y-70810316D01*
X140005774Y-70795634D01*
X139969308Y-70780707D01*
X139932801Y-70765602D01*
X139896348Y-70750358D01*
X139859839Y-70734929D01*
X139823814Y-70719544D01*
X139787501Y-70703876D01*
X139751252Y-70688072D01*
X139715054Y-70672128D01*
X139679003Y-70656086D01*
X139642987Y-70639898D01*
X139607033Y-70623573D01*
X139571000Y-70607048D01*
X139535143Y-70590439D01*
X139499264Y-70573656D01*
X139463407Y-70556718D01*
X139427760Y-70539713D01*
X139391860Y-70522422D01*
X139356265Y-70505109D01*
X139320910Y-70487749D01*
X139285154Y-70470023D01*
X139249732Y-70452295D01*
X139214303Y-70434397D01*
X139178861Y-70416320D01*
X139143552Y-70398145D01*
X139108138Y-70379743D01*
X139073051Y-70361342D01*
X139037786Y-70342676D01*
X139002763Y-70323969D01*
X138967793Y-70305118D01*
X138932700Y-70286029D01*
X138897894Y-70266923D01*
X138862820Y-70247495D01*
X138827957Y-70228011D01*
X138793381Y-70208515D01*
X138758402Y-70188614D01*
X138723873Y-70168795D01*
X138689395Y-70148830D01*
X138654720Y-70128572D01*
X138620370Y-70108330D01*
X138585978Y-70087886D01*
X138551388Y-70067142D01*
X138517206Y-70046467D01*
X138483048Y-70025626D01*
X138448878Y-70004599D01*
X138414616Y-69983334D01*
X138380687Y-69962095D01*
X138346635Y-69940596D01*
X138312913Y-69919124D01*
X138278793Y-69897215D01*
X138245156Y-69875434D01*
X138211386Y-69853382D01*
X138177791Y-69831260D01*
X138144237Y-69808980D01*
X138110781Y-69786580D01*
X138077254Y-69763945D01*
X138043742Y-69741131D01*
X138010492Y-69718308D01*
X137977204Y-69695271D01*
X137943968Y-69672079D01*
X137911053Y-69648922D01*
X137877980Y-69625464D01*
X137844926Y-69601827D01*
X137811839Y-69577973D01*
X137779251Y-69554286D01*
X137746393Y-69530210D01*
X137713571Y-69505965D01*
X137681099Y-69481785D01*
X137648395Y-69457234D01*
X137615998Y-69432718D01*
X137583753Y-69408120D01*
X137551290Y-69383159D01*
X137519025Y-69358149D01*
X137486807Y-69332977D01*
X137454769Y-69307744D01*
X137422656Y-69282251D01*
X137390519Y-69256535D01*
X137358737Y-69230899D01*
X137326950Y-69205057D01*
X137295121Y-69178975D01*
X137263684Y-69153012D01*
X137232151Y-69126762D01*
X137200462Y-69100174D01*
X137169117Y-69073667D01*
X137137803Y-69046979D01*
X137106413Y-69020014D01*
X137075142Y-68992938D01*
X137044236Y-68965969D01*
X137013193Y-68938668D01*
X136982336Y-68911319D01*
X136951331Y-68883622D01*
X136920586Y-68855942D01*
X136889882Y-68828084D01*
X136859359Y-68800170D01*
X136828791Y-68772001D01*
X136798393Y-68743766D01*
X136767962Y-68715281D01*
X136737685Y-68686720D01*
X136707415Y-68657941D01*
X136677300Y-68629087D01*
X136647385Y-68600200D01*
X136617280Y-68570902D01*
X136587529Y-68541723D01*
X136557655Y-68512195D01*
X136528172Y-68482827D01*
X136479809Y-68434156D01*
X136431993Y-68385424D01*
X136384406Y-68336305D01*
X136337376Y-68287143D01*
X136290615Y-68237639D01*
X136244399Y-68188087D01*
X136198435Y-68138175D01*
X136152873Y-68088067D01*
X136107741Y-68037797D01*
X136062898Y-67987209D01*
X136018430Y-67936401D01*
X135974494Y-67885555D01*
X135930766Y-67834298D01*
X135887562Y-67783003D01*
X135844558Y-67731286D01*
X135802083Y-67679543D01*
X135759865Y-67627447D01*
X135718194Y-67575358D01*
X135676764Y-67522893D01*
X135635798Y-67470340D01*
X135595198Y-67417574D01*
X135554900Y-67364511D01*
X135515060Y-67311363D01*
X135501696Y-67293297D01*
X136518743Y-67293297D01*
X136743737Y-67837823D01*
X137159985Y-68254799D01*
X137704118Y-68480743D01*
X138293297Y-68481257D01*
X138837823Y-68256263D01*
X139254799Y-67840015D01*
X139480743Y-67295882D01*
X139481257Y-66706703D01*
X139256263Y-66162177D01*
X138840015Y-65745201D01*
X138295882Y-65519257D01*
X137706703Y-65518743D01*
X137162177Y-65743737D01*
X136745201Y-66159985D01*
X136519257Y-66704118D01*
X136518743Y-67293297D01*
X135501696Y-67293297D01*
X135475555Y-67257961D01*
X135436413Y-67204348D01*
X135397711Y-67150633D01*
X135359370Y-67096707D01*
X135321394Y-67042578D01*
X135283795Y-66988266D01*
X135246624Y-66933842D01*
X135209707Y-66879058D01*
X135173203Y-66824148D01*
X135137165Y-66769192D01*
X135101497Y-66714054D01*
X135066142Y-66658642D01*
X135031223Y-66603152D01*
X134996685Y-66547497D01*
X134962416Y-66491500D01*
X134928673Y-66435581D01*
X134895192Y-66379306D01*
X134862131Y-66322940D01*
X134829482Y-66266474D01*
X134797176Y-66209791D01*
X134765225Y-66152909D01*
X134733763Y-66096076D01*
X134702564Y-66038882D01*
X134671735Y-65981522D01*
X134641326Y-65924090D01*
X134611307Y-65866538D01*
X134581653Y-65808815D01*
X134552375Y-65750946D01*
X134523466Y-65692917D01*
X134494879Y-65634636D01*
X134466811Y-65576506D01*
X134439063Y-65518124D01*
X134411659Y-65459534D01*
X134384622Y-65400791D01*
X134357965Y-65341919D01*
X134331734Y-65283029D01*
X134305817Y-65223863D01*
X134280331Y-65164698D01*
X134255288Y-65105564D01*
X134230515Y-65046053D01*
X134206135Y-64986460D01*
X134182091Y-64926645D01*
X134158519Y-64866948D01*
X134135312Y-64807111D01*
X134112431Y-64747026D01*
X134089962Y-64686920D01*
X134067783Y-64626467D01*
X134046077Y-64566164D01*
X134024793Y-64505886D01*
X134003764Y-64445155D01*
X133983230Y-64384665D01*
X133962959Y-64323735D01*
X133943127Y-64262886D01*
X133923659Y-64201904D01*
X133904619Y-64140986D01*
X133885930Y-64079893D01*
X133867584Y-64018598D01*
X133849647Y-63957316D01*
X133832030Y-63895748D01*
X133814859Y-63834335D01*
X133798061Y-63772827D01*
X133781628Y-63711187D01*
X133765555Y-63649400D01*
X133749872Y-63587582D01*
X133734553Y-63525636D01*
X133719658Y-63463805D01*
X133705071Y-63401609D01*
X133690943Y-63339692D01*
X133677105Y-63277315D01*
X133663717Y-63215204D01*
X133650672Y-63152865D01*
X133637994Y-63090406D01*
X133625733Y-63028085D01*
X133613805Y-62965474D01*
X133602282Y-62902945D01*
X133591156Y-62840469D01*
X133580356Y-62777646D01*
X133569972Y-62714989D01*
X133559956Y-62652228D01*
X133550337Y-62589543D01*
X133541062Y-62526586D01*
X133532171Y-62463626D01*
X133523687Y-62400832D01*
X133515560Y-62337849D01*
X133507788Y-62274624D01*
X133500435Y-62211723D01*
X133493444Y-62148641D01*
X133486835Y-62085569D01*
X133480565Y-62022065D01*
X133474734Y-61959173D01*
X133469259Y-61896022D01*
X133464147Y-61832661D01*
X133459421Y-61769388D01*
X133455071Y-61706058D01*
X133451112Y-61642908D01*
X133447519Y-61579534D01*
X133444300Y-61516066D01*
X133441467Y-61452759D01*
X133439010Y-61389401D01*
X133436935Y-61326110D01*
X133435230Y-61262582D01*
X133433909Y-61199273D01*
X133432964Y-61135881D01*
X133432396Y-61072371D01*
X133432208Y-61009013D01*
X133432396Y-60945654D01*
X133432964Y-60882145D01*
X133433909Y-60818752D01*
X133435231Y-60755402D01*
X133436935Y-60691915D01*
X133439011Y-60628618D01*
X133441467Y-60565266D01*
X133444300Y-60501959D01*
X133447519Y-60438493D01*
X133451112Y-60375118D01*
X133455072Y-60311959D01*
X133459419Y-60248661D01*
X133464148Y-60185353D01*
X133469259Y-60122005D01*
X133474734Y-60058854D01*
X133480579Y-59995819D01*
X133486834Y-59932476D01*
X133493444Y-59869387D01*
X133500435Y-59806305D01*
X133507788Y-59743405D01*
X133515563Y-59680160D01*
X133523687Y-59617197D01*
X133532171Y-59554403D01*
X133541062Y-59491444D01*
X133550336Y-59428489D01*
X133559960Y-59365779D01*
X133569972Y-59303042D01*
X133580347Y-59240438D01*
X133591133Y-59177693D01*
X133602300Y-59114988D01*
X133613810Y-59052532D01*
X133625733Y-58989948D01*
X133638018Y-58927503D01*
X133650678Y-58865144D01*
X133663731Y-58802766D01*
X133677124Y-58740632D01*
X133690905Y-58678513D01*
X133705088Y-58616357D01*
X133719649Y-58554272D01*
X133734572Y-58492328D01*
X133749862Y-58430496D01*
X133765544Y-58368681D01*
X133781617Y-58306895D01*
X133798062Y-58245213D01*
X133814847Y-58183750D01*
X133832042Y-58122252D01*
X133849665Y-58060664D01*
X133867595Y-57999407D01*
X133885942Y-57938109D01*
X133904604Y-57877106D01*
X133923719Y-57815950D01*
X133943155Y-57755069D01*
X133962972Y-57694274D01*
X133983196Y-57633484D01*
X134003828Y-57572708D01*
X134024743Y-57512307D01*
X134046114Y-57451785D01*
X134067810Y-57391509D01*
X134089932Y-57331212D01*
X134112403Y-57271102D01*
X134135307Y-57210958D01*
X134158529Y-57151082D01*
X134182161Y-57091236D01*
X134206111Y-57031655D01*
X134230453Y-56972155D01*
X134255293Y-56912484D01*
X134280346Y-56853326D01*
X134305817Y-56794199D01*
X134331720Y-56735065D01*
X134358014Y-56676033D01*
X134384646Y-56617223D01*
X134411656Y-56558538D01*
X134439064Y-56499941D01*
X134466822Y-56441540D01*
X134494912Y-56383364D01*
X134523491Y-56325102D01*
X134552401Y-56267073D01*
X134581621Y-56209321D01*
X134611270Y-56151609D01*
X134641350Y-56093940D01*
X134671771Y-56036487D01*
X134702519Y-55979279D01*
X134733668Y-55922177D01*
X134765290Y-55865054D01*
X134797161Y-55808318D01*
X134829458Y-55751652D01*
X134862157Y-55695099D01*
X134895243Y-55638693D01*
X134928653Y-55582541D01*
X134962455Y-55526525D01*
X134996619Y-55470700D01*
X135031173Y-55415021D01*
X135066202Y-55359358D01*
X135101422Y-55304158D01*
X135137163Y-55248907D01*
X135173268Y-55193853D01*
X135209703Y-55139047D01*
X135246680Y-55084174D01*
X135283722Y-55029943D01*
X135321390Y-54975532D01*
X135359356Y-54921418D01*
X135397629Y-54867588D01*
X135436473Y-54813677D01*
X135475608Y-54760078D01*
X135514996Y-54706836D01*
X135554933Y-54653558D01*
X135595093Y-54600678D01*
X135635758Y-54547828D01*
X135676779Y-54495206D01*
X135718107Y-54442872D01*
X135759905Y-54390626D01*
X135802011Y-54338668D01*
X135844588Y-54286804D01*
X135887485Y-54235216D01*
X135930775Y-54183820D01*
X135974396Y-54132691D01*
X136018370Y-54081802D01*
X136062919Y-54030903D01*
X136107663Y-53980427D01*
X136152793Y-53930160D01*
X136198494Y-53879902D01*
X136244387Y-53830070D01*
X136290682Y-53780434D01*
X136337354Y-53731027D01*
X136384480Y-53681766D01*
X136431984Y-53632735D01*
X136479791Y-53584015D01*
X136527998Y-53535503D01*
X136576489Y-53487315D01*
X136625295Y-53439427D01*
X136674157Y-53392085D01*
X136723492Y-53344889D01*
X136772875Y-53298241D01*
X136822515Y-53251942D01*
X136872555Y-53205860D01*
X136894670Y-53185750D01*
X140065000Y-53185750D01*
X140065000Y-53526310D01*
X140161673Y-53759699D01*
X140340302Y-53938327D01*
X140573691Y-54035000D01*
X141214250Y-54035000D01*
X141373000Y-53876250D01*
X141373000Y-53027000D01*
X140223750Y-53027000D01*
X140065000Y-53185750D01*
X136894670Y-53185750D01*
X136922587Y-53160366D01*
X136972873Y-53115219D01*
X137023411Y-53070420D01*
X137074151Y-53026012D01*
X137125043Y-52982036D01*
X137176255Y-52938345D01*
X137227590Y-52895108D01*
X137279133Y-52852248D01*
X137331013Y-52809658D01*
X137383014Y-52767519D01*
X137435166Y-52725797D01*
X137487624Y-52684371D01*
X137540202Y-52643387D01*
X137592919Y-52602826D01*
X137646031Y-52562489D01*
X137699120Y-52522697D01*
X137752465Y-52483233D01*
X137806152Y-52444037D01*
X137859803Y-52405382D01*
X137913856Y-52366951D01*
X137967915Y-52329025D01*
X138022287Y-52291387D01*
X138048197Y-52273690D01*
X140065000Y-52273690D01*
X140065000Y-52614250D01*
X140223750Y-52773000D01*
X141373000Y-52773000D01*
X141373000Y-51923750D01*
X141627000Y-51923750D01*
X141627000Y-52773000D01*
X142776250Y-52773000D01*
X142935000Y-52614250D01*
X142935000Y-52273690D01*
X142838327Y-52040301D01*
X142659698Y-51861673D01*
X142426309Y-51765000D01*
X141785750Y-51765000D01*
X141627000Y-51923750D01*
X141373000Y-51923750D01*
X141214250Y-51765000D01*
X140573691Y-51765000D01*
X140340302Y-51861673D01*
X140161673Y-52040301D01*
X140065000Y-52273690D01*
X138048197Y-52273690D01*
X138076681Y-52254236D01*
X138131300Y-52217432D01*
X138186177Y-52180952D01*
X138241214Y-52144860D01*
X138296446Y-52109132D01*
X138351719Y-52073867D01*
X138407261Y-52038917D01*
X138463076Y-52004280D01*
X138518897Y-51970121D01*
X138574798Y-51936390D01*
X138631060Y-51902916D01*
X138687404Y-51869869D01*
X138743944Y-51837180D01*
X138800653Y-51804860D01*
X138857478Y-51772943D01*
X138914390Y-51741438D01*
X138971565Y-51710251D01*
X139028851Y-51679464D01*
X139086181Y-51649109D01*
X139143812Y-51619051D01*
X139201465Y-51589434D01*
X139259472Y-51560087D01*
X139317419Y-51531220D01*
X139375523Y-51502721D01*
X139433837Y-51474565D01*
X139492203Y-51446826D01*
X139550795Y-51419422D01*
X139609584Y-51392366D01*
X139668342Y-51365761D01*
X139727278Y-51339512D01*
X139786453Y-51313591D01*
X139845521Y-51288149D01*
X139904914Y-51262997D01*
X139964241Y-51238301D01*
X140023957Y-51213873D01*
X140083497Y-51189941D01*
X140143402Y-51166287D01*
X140203230Y-51143086D01*
X140263273Y-51120223D01*
X140323591Y-51097676D01*
X140383610Y-51075658D01*
X140444096Y-51053886D01*
X140504507Y-51032556D01*
X140564982Y-51011617D01*
X140625770Y-50990983D01*
X140686456Y-50970795D01*
X140747353Y-50950947D01*
X140808353Y-50931475D01*
X140869368Y-50912405D01*
X140930427Y-50893728D01*
X140991781Y-50875367D01*
X141052950Y-50857463D01*
X141114482Y-50839858D01*
X141175893Y-50822689D01*
X141237545Y-50805853D01*
X141299214Y-50789414D01*
X141360865Y-50773378D01*
X141422773Y-50757673D01*
X141484486Y-50742412D01*
X141546510Y-50727471D01*
X141608556Y-50712920D01*
X141670688Y-50698743D01*
X141732908Y-50684941D01*
X141795069Y-50671543D01*
X141857418Y-50658497D01*
X141919889Y-50645817D01*
X141982190Y-50633561D01*
X142044762Y-50621641D01*
X142107280Y-50610120D01*
X142169737Y-50598998D01*
X142232526Y-50588204D01*
X142295280Y-50577803D01*
X142357986Y-50567797D01*
X142420745Y-50558167D01*
X142483704Y-50548893D01*
X142546649Y-50540004D01*
X142609404Y-50531525D01*
X142672419Y-50523395D01*
X142735670Y-50515619D01*
X142798570Y-50508267D01*
X142861569Y-50501285D01*
X142924748Y-50494666D01*
X142987916Y-50488428D01*
X143051253Y-50482556D01*
X143114253Y-50477094D01*
X143177685Y-50471976D01*
X143240808Y-50467262D01*
X143304218Y-50462907D01*
X143367313Y-50458951D01*
X143430811Y-50455350D01*
X143494209Y-50452135D01*
X143557517Y-50449302D01*
X143620846Y-50446847D01*
X143684203Y-50444768D01*
X143747678Y-50443064D01*
X143811042Y-50441742D01*
X143874371Y-50440798D01*
X143937921Y-50440229D01*
X144001273Y-50440040D01*
X144064625Y-50440228D01*
X144064625Y-50440228D01*
G37*
X144064625Y-50440228D02*
X144128177Y-50440796D01*
X144191503Y-50441739D01*
X144254868Y-50443061D01*
X144318338Y-50444763D01*
X144381540Y-50446835D01*
X144445191Y-50449303D01*
X144508346Y-50452128D01*
X144571737Y-50455342D01*
X144635076Y-50458933D01*
X144698497Y-50462908D01*
X144761574Y-50467239D01*
X144825031Y-50471977D01*
X144888130Y-50477067D01*
X144951449Y-50482556D01*
X145014666Y-50488416D01*
X145077663Y-50494636D01*
X145140900Y-50501261D01*
X145203973Y-50508250D01*
X145266957Y-50515610D01*
X145330068Y-50523368D01*
X145393009Y-50531488D01*
X145456027Y-50540001D01*
X145518894Y-50548877D01*
X145581838Y-50558149D01*
X145644547Y-50567770D01*
X145707253Y-50577775D01*
X145770034Y-50588179D01*
X145832634Y-50598940D01*
X145895321Y-50610102D01*
X145957943Y-50621641D01*
X146020193Y-50633498D01*
X146082699Y-50645793D01*
X146145099Y-50658458D01*
X146207468Y-50671507D01*
X146269770Y-50684935D01*
X146331734Y-50698680D01*
X146394102Y-50712909D01*
X146456041Y-50727433D01*
X146517892Y-50742332D01*
X146579953Y-50757676D01*
X146641585Y-50773311D01*
X146703561Y-50789431D01*
X146765032Y-50805818D01*
X146826538Y-50822612D01*
X146888285Y-50839875D01*
X146949634Y-50857427D01*
X147010937Y-50875369D01*
X147072125Y-50893681D01*
X147133182Y-50912355D01*
X147194363Y-50931477D01*
X147255292Y-50950926D01*
X147316227Y-50970786D01*
X147376821Y-50990942D01*
X147437468Y-51011527D01*
X147498131Y-51032530D01*
X147558572Y-51053869D01*
X147618962Y-51075606D01*
X147679151Y-51097686D01*
X147739224Y-51120141D01*
X147799332Y-51143027D01*
X147859229Y-51166254D01*
X147919111Y-51189898D01*
X147978626Y-51213818D01*
X148038311Y-51238233D01*
X148097774Y-51262984D01*
X148157020Y-51288072D01*
X148216270Y-51313592D01*
X148275320Y-51339458D01*
X148334188Y-51365675D01*
X148393100Y-51392349D01*
X148451824Y-51419373D01*
X148510238Y-51446693D01*
X148568742Y-51474495D01*
X148626918Y-51502583D01*
X148685152Y-51531144D01*
X148743171Y-51560046D01*
X148801097Y-51589350D01*
X148858780Y-51618981D01*
X148916395Y-51649030D01*
X148973785Y-51679415D01*
X149031173Y-51710257D01*
X149088227Y-51741376D01*
X149145124Y-51772870D01*
X149202088Y-51804865D01*
X149258747Y-51837155D01*
X149315178Y-51869781D01*
X149371497Y-51902812D01*
X149427712Y-51936254D01*
X149483799Y-51970097D01*
X149539686Y-52004295D01*
X149595348Y-52038836D01*
X149650972Y-52073836D01*
X149706333Y-52109158D01*
X149761431Y-52144796D01*
X149816504Y-52180911D01*
X149871428Y-52217422D01*
X149925944Y-52254155D01*
X149980479Y-52291401D01*
X150034731Y-52328955D01*
X150088958Y-52366998D01*
X150142801Y-52405278D01*
X150196595Y-52444034D01*
X150250209Y-52483175D01*
X150303543Y-52522629D01*
X150356675Y-52562453D01*
X150409693Y-52602714D01*
X150462531Y-52643368D01*
X150515144Y-52684379D01*
X150567481Y-52725707D01*
X150619640Y-52767431D01*
X150671815Y-52809712D01*
X150723542Y-52852174D01*
X150775095Y-52895039D01*
X150826503Y-52938338D01*
X150877665Y-52981984D01*
X150928567Y-53025965D01*
X150979417Y-53070468D01*
X151029924Y-53115239D01*
X151080218Y-53160391D01*
X151130288Y-53205919D01*
X151180225Y-53251903D01*
X151229889Y-53298224D01*
X151279296Y-53344892D01*
X151328548Y-53392008D01*
X151377513Y-53439445D01*
X151426302Y-53487318D01*
X151474970Y-53535679D01*
X151504355Y-53565179D01*
X151533887Y-53595056D01*
X151563119Y-53624861D01*
X151592301Y-53654850D01*
X151621262Y-53684841D01*
X151650182Y-53715024D01*
X151678927Y-53745258D01*
X151707419Y-53775461D01*
X151735694Y-53805667D01*
X151764162Y-53836316D01*
X151792200Y-53866738D01*
X151820253Y-53897416D01*
X151848084Y-53928090D01*
X151875884Y-53958969D01*
X151903490Y-53989871D01*
X151930811Y-54020695D01*
X151958089Y-54051713D01*
X151985198Y-54082780D01*
X152012335Y-54114123D01*
X152039227Y-54145428D01*
X152065888Y-54176711D01*
X152092591Y-54208289D01*
X152118794Y-54239519D01*
X152145197Y-54271238D01*
X152171332Y-54302882D01*
X152197387Y-54334679D01*
X152223160Y-54366382D01*
X152248983Y-54398400D01*
X152274511Y-54430303D01*
X152299920Y-54462310D01*
X152325115Y-54494300D01*
X152350197Y-54526401D01*
X152375286Y-54558769D01*
X152400218Y-54591191D01*
X152425060Y-54623757D01*
X152449525Y-54656088D01*
X152473979Y-54688664D01*
X152498324Y-54721357D01*
X152522420Y-54753979D01*
X152546434Y-54786752D01*
X152570387Y-54819708D01*
X152594035Y-54852511D01*
X152617570Y-54885423D01*
X152640985Y-54918435D01*
X152664307Y-54951584D01*
X152687509Y-54984835D01*
X152710476Y-55018022D01*
X152733368Y-55051373D01*
X152756102Y-55084767D01*
X152778852Y-55118463D01*
X152801294Y-55151984D01*
X152823522Y-55185461D01*
X152845664Y-55219088D01*
X152867664Y-55252779D01*
X152889610Y-55286671D01*
X152911283Y-55320426D01*
X152933024Y-55354571D01*
X152954361Y-55388372D01*
X152975640Y-55422366D01*
X152996882Y-55456591D01*
X153017793Y-55490573D01*
X153038818Y-55525034D01*
X153059563Y-55559332D01*
X153080034Y-55593472D01*
X153100548Y-55627981D01*
X153120857Y-55662442D01*
X153141076Y-55697057D01*
X153161118Y-55731669D01*
X153181010Y-55766326D01*
X153200740Y-55801007D01*
X153220276Y-55835654D01*
X153239860Y-55870696D01*
X153259095Y-55905427D01*
X153278360Y-55940522D01*
X153297355Y-55975444D01*
X153316154Y-56010318D01*
X153335021Y-56045640D01*
X153353710Y-56080952D01*
X153372193Y-56116202D01*
X153390484Y-56151406D01*
X153408629Y-56186655D01*
X153426603Y-56221902D01*
X153444541Y-56257407D01*
X153462361Y-56293016D01*
X153479945Y-56328489D01*
X153497437Y-56364114D01*
X153514773Y-56399762D01*
X153532092Y-56435722D01*
X153549068Y-56471314D01*
X153566033Y-56507230D01*
X153582740Y-56542951D01*
X153599333Y-56578776D01*
X153615820Y-56614730D01*
X153632233Y-56650882D01*
X153648353Y-56686747D01*
X153664436Y-56722894D01*
X153680375Y-56759084D01*
X153696169Y-56795313D01*
X153711792Y-56831522D01*
X153727291Y-56867820D01*
X153742632Y-56904124D01*
X153757923Y-56940691D01*
X153772939Y-56976989D01*
X153787892Y-57013516D01*
X153802584Y-57049798D01*
X153817350Y-57086656D01*
X153831801Y-57123127D01*
X153846150Y-57159739D01*
X153860362Y-57196405D01*
X153874469Y-57233211D01*
X153888432Y-57270051D01*
X153902223Y-57306857D01*
X153915886Y-57343738D01*
X153929381Y-57380588D01*
X153942729Y-57417462D01*
X153956011Y-57454588D01*
X153969026Y-57491398D01*
X153982080Y-57528764D01*
X153994853Y-57565770D01*
X154007456Y-57602727D01*
X154019968Y-57639874D01*
X154032384Y-57677192D01*
X154044621Y-57714432D01*
X154056693Y-57751637D01*
X154068664Y-57789008D01*
X154080540Y-57826562D01*
X154092159Y-57863786D01*
X154103649Y-57901081D01*
X154115115Y-57938798D01*
X154126304Y-57976097D01*
X154137464Y-58013811D01*
X154148379Y-58051204D01*
X154159245Y-58088951D01*
X154169844Y-58126295D01*
X154180495Y-58164354D01*
X154190806Y-58201733D01*
X154201097Y-58239586D01*
X154211178Y-58277217D01*
X154221148Y-58314985D01*
X154231008Y-58352915D01*
X154240715Y-58390823D01*
X154250190Y-58428412D01*
X154259666Y-58466593D01*
X154268917Y-58504469D01*
X154278045Y-58542449D01*
X154287029Y-58580446D01*
X154295826Y-58618277D01*
X154304519Y-58656293D01*
X154313075Y-58694352D01*
X154321515Y-58732559D01*
X154329765Y-58770566D01*
X154337912Y-58808781D01*
X154345886Y-58846874D01*
X154353743Y-58885105D01*
X154361499Y-58923566D01*
X154369061Y-58961791D01*
X154376435Y-58999801D01*
X154383711Y-59038051D01*
X154390876Y-59076490D01*
X154397833Y-59114589D01*
X154404715Y-59153075D01*
X154411427Y-59191432D01*
X154417999Y-59229809D01*
X154424411Y-59268101D01*
X154430750Y-59306831D01*
X154436857Y-59345011D01*
X154442865Y-59383483D01*
X154448705Y-59421811D01*
X154454463Y-59460541D01*
X154460012Y-59498835D01*
X154465479Y-59537555D01*
X154470758Y-59575971D01*
X154475921Y-59614586D01*
X154480933Y-59653146D01*
X154485840Y-59692003D01*
X154490511Y-59730134D01*
X154495152Y-59769188D01*
X154499573Y-59807588D01*
X154503861Y-59846072D01*
X154508059Y-59885056D01*
X154512057Y-59923489D01*
X154515943Y-59962231D01*
X154519690Y-60001011D01*
X154523261Y-60039443D01*
X154526753Y-60078569D01*
X154530066Y-60117297D01*
X154533202Y-60155592D01*
X154536259Y-60194670D01*
X154539133Y-60233239D01*
X154541887Y-60272096D01*
X154544476Y-60310617D01*
X154546947Y-60349503D01*
X154549282Y-60388512D01*
X154551456Y-60427191D01*
X154553486Y-60465832D01*
X154555393Y-60504824D01*
X154557146Y-60543584D01*
X154558756Y-60582316D01*
X154560236Y-60621359D01*
X154561560Y-60659991D01*
X154562745Y-60698708D01*
X154563793Y-60737532D01*
X154564701Y-60776490D01*
X154565464Y-60815339D01*
X154566088Y-60854256D01*
X154566566Y-60892926D01*
X154566907Y-60932088D01*
X154567102Y-60970463D01*
X154567157Y-61009495D01*
X154567072Y-61048270D01*
X154566843Y-61087228D01*
X154566473Y-61126097D01*
X154565960Y-61165044D01*
X154565312Y-61203633D01*
X154564515Y-61242593D01*
X154563579Y-61281411D01*
X154562499Y-61320322D01*
X154561283Y-61359036D01*
X154559929Y-61397667D01*
X154558418Y-61436708D01*
X154556765Y-61475714D01*
X154554989Y-61514330D01*
X154553065Y-61553062D01*
X154550998Y-61591808D01*
X154548778Y-61630764D01*
X154546433Y-61669426D01*
X154543940Y-61708202D01*
X154541309Y-61746903D01*
X154538508Y-61785991D01*
X154535617Y-61824386D01*
X154532534Y-61863420D01*
X154529348Y-61901958D01*
X154526002Y-61940709D01*
X154522527Y-61979313D01*
X154518869Y-62018344D01*
X154515133Y-62056720D01*
X154511209Y-62095536D01*
X154507173Y-62134054D01*
X154502956Y-62172942D01*
X154498636Y-62211455D01*
X154494149Y-62250180D01*
X154489536Y-62288757D01*
X154484793Y-62327230D01*
X154479880Y-62365911D01*
X154474823Y-62404603D01*
X154469669Y-62442935D01*
X154464310Y-62481721D01*
X154458859Y-62520131D01*
X154453256Y-62558597D01*
X154447529Y-62596945D01*
X154441589Y-62635739D01*
X154435594Y-62673950D01*
X154432328Y-62694285D01*
X152988464Y-64138149D01*
X152988464Y-62700000D01*
X152961897Y-62558810D01*
X152878454Y-62429135D01*
X152751134Y-62342141D01*
X152600000Y-62311536D01*
X151780700Y-62311536D01*
X151780700Y-60660192D01*
X152457796Y-59983096D01*
X152567483Y-59818938D01*
X152593436Y-59688464D01*
X152600000Y-59688464D01*
X152741190Y-59661897D01*
X152870865Y-59578454D01*
X152957859Y-59451134D01*
X152988464Y-59300000D01*
X152988464Y-57700000D01*
X152961897Y-57558810D01*
X152878454Y-57429135D01*
X152751134Y-57342141D01*
X152600000Y-57311536D01*
X152593436Y-57311536D01*
X152567483Y-57181062D01*
X152457796Y-57016904D01*
X152293638Y-56907217D01*
X152100000Y-56868700D01*
X149109592Y-56868700D01*
X147983096Y-55742204D01*
X147818938Y-55632517D01*
X147688464Y-55606564D01*
X147688464Y-55600000D01*
X147661897Y-55458810D01*
X147578454Y-55329135D01*
X147526004Y-55293297D01*
X148518743Y-55293297D01*
X148743737Y-55837823D01*
X149159985Y-56254799D01*
X149704118Y-56480743D01*
X150293297Y-56481257D01*
X150837823Y-56256263D01*
X151254799Y-55840015D01*
X151480743Y-55295882D01*
X151481257Y-54706703D01*
X151256263Y-54162177D01*
X150840015Y-53745201D01*
X150295882Y-53519257D01*
X149706703Y-53518743D01*
X149162177Y-53743737D01*
X148745201Y-54159985D01*
X148519257Y-54704118D01*
X148518743Y-55293297D01*
X147526004Y-55293297D01*
X147451134Y-55242141D01*
X147300000Y-55211536D01*
X145700000Y-55211536D01*
X145558810Y-55238103D01*
X145429135Y-55321546D01*
X145381522Y-55391230D01*
X144183291Y-54192999D01*
X144183318Y-54161535D01*
X144079861Y-53911148D01*
X143888459Y-53719413D01*
X143879994Y-53715898D01*
X144189892Y-53406000D01*
X145312665Y-53406000D01*
X145338103Y-53541190D01*
X145421546Y-53670865D01*
X145548866Y-53757859D01*
X145700000Y-53788464D01*
X147300000Y-53788464D01*
X147441190Y-53761897D01*
X147570865Y-53678454D01*
X147657859Y-53551134D01*
X147688464Y-53400000D01*
X147688464Y-52400000D01*
X147661897Y-52258810D01*
X147578454Y-52129135D01*
X147451134Y-52042141D01*
X147300000Y-52011536D01*
X145700000Y-52011536D01*
X145558810Y-52038103D01*
X145429135Y-52121546D01*
X145342141Y-52248866D01*
X145312751Y-52394000D01*
X143980300Y-52394000D01*
X143786662Y-52432517D01*
X143622504Y-52542204D01*
X142935000Y-53229708D01*
X142935000Y-53185750D01*
X142776250Y-53027000D01*
X141627000Y-53027000D01*
X141627000Y-53876250D01*
X141785750Y-54035000D01*
X142326803Y-54035000D01*
X142323700Y-54050600D01*
X142323700Y-54649300D01*
X142362217Y-54842938D01*
X142471904Y-55007096D01*
X145994000Y-58529192D01*
X145994000Y-58971652D01*
X145790516Y-58767813D01*
X145211112Y-58527224D01*
X144583743Y-58526676D01*
X144003919Y-58766254D01*
X143559915Y-59209484D01*
X143319326Y-59788888D01*
X143319195Y-59939261D01*
X143190954Y-59886142D01*
X142938336Y-59886142D01*
X142704947Y-59982814D01*
X142145936Y-60541825D01*
X142145936Y-60766331D01*
X143100000Y-61720395D01*
X143114143Y-61706253D01*
X143293748Y-61885858D01*
X143279605Y-61900000D01*
X144233669Y-62854064D01*
X144458175Y-62854064D01*
X145017186Y-62295053D01*
X145113858Y-62061664D01*
X145113858Y-61809046D01*
X145060858Y-61681093D01*
X145208359Y-61681222D01*
X145788183Y-61441644D01*
X145994000Y-61236186D01*
X145994000Y-63843008D01*
X145016904Y-64820104D01*
X144907217Y-64984262D01*
X144868700Y-65177900D01*
X144868700Y-65900000D01*
X144907217Y-66093638D01*
X144991182Y-66219300D01*
X143660192Y-66219300D01*
X142983096Y-65542204D01*
X142818938Y-65432517D01*
X142688464Y-65406564D01*
X142688464Y-65400000D01*
X142661897Y-65258810D01*
X142578454Y-65129135D01*
X142451134Y-65042141D01*
X142300000Y-65011536D01*
X140700000Y-65011536D01*
X140558810Y-65038103D01*
X140429135Y-65121546D01*
X140381522Y-65191230D01*
X139808729Y-64618437D01*
X139870865Y-64578454D01*
X139957859Y-64451134D01*
X139988464Y-64300000D01*
X139988464Y-62998314D01*
X142181292Y-62998314D01*
X142181292Y-63222820D01*
X142775656Y-63817185D01*
X143009046Y-63913858D01*
X143261664Y-63913858D01*
X143495053Y-63817186D01*
X144054064Y-63258175D01*
X144054064Y-63033669D01*
X143100000Y-62079605D01*
X142181292Y-62998314D01*
X139988464Y-62998314D01*
X139988464Y-62700000D01*
X139961897Y-62558810D01*
X139878454Y-62429135D01*
X139808770Y-62381522D01*
X140451956Y-61738336D01*
X141086142Y-61738336D01*
X141086142Y-61990954D01*
X141182815Y-62224344D01*
X141777180Y-62818708D01*
X142001686Y-62818708D01*
X142920395Y-61900000D01*
X141966331Y-60945936D01*
X141741825Y-60945936D01*
X141182814Y-61504947D01*
X141086142Y-61738336D01*
X140451956Y-61738336D01*
X141857796Y-60332496D01*
X141870018Y-60314204D01*
X141967483Y-60168338D01*
X142006000Y-59974700D01*
X142006000Y-56988464D01*
X142300000Y-56988464D01*
X142441190Y-56961897D01*
X142570865Y-56878454D01*
X142657859Y-56751134D01*
X142688464Y-56600000D01*
X142688464Y-55600000D01*
X142661897Y-55458810D01*
X142578454Y-55329135D01*
X142451134Y-55242141D01*
X142300000Y-55211536D01*
X140700000Y-55211536D01*
X140558810Y-55238103D01*
X140429135Y-55321546D01*
X140342141Y-55448866D01*
X140311536Y-55600000D01*
X140311536Y-56348389D01*
X140197159Y-56233813D01*
X139946954Y-56129918D01*
X139676035Y-56129682D01*
X139425648Y-56233139D01*
X139353862Y-56304800D01*
X136463900Y-56304800D01*
X136270262Y-56343317D01*
X136106104Y-56453004D01*
X135542204Y-57016904D01*
X135432517Y-57181062D01*
X135406564Y-57311536D01*
X135400000Y-57311536D01*
X135258810Y-57338103D01*
X135129135Y-57421546D01*
X135042141Y-57548866D01*
X135011536Y-57700000D01*
X135011536Y-59300000D01*
X135038103Y-59441190D01*
X135121546Y-59570865D01*
X135248866Y-59657859D01*
X135400000Y-59688464D01*
X136400000Y-59688464D01*
X136541190Y-59661897D01*
X136670865Y-59578454D01*
X136757859Y-59451134D01*
X136788464Y-59300000D01*
X136788464Y-58785750D01*
X137965000Y-58785750D01*
X137965000Y-59426309D01*
X138061673Y-59659698D01*
X138240301Y-59838327D01*
X138473690Y-59935000D01*
X138814250Y-59935000D01*
X138973000Y-59776250D01*
X138973000Y-58627000D01*
X139227000Y-58627000D01*
X139227000Y-59776250D01*
X139385750Y-59935000D01*
X139726310Y-59935000D01*
X139959699Y-59838327D01*
X140138327Y-59659698D01*
X140235000Y-59426309D01*
X140235000Y-58785750D01*
X140076250Y-58627000D01*
X139227000Y-58627000D01*
X138973000Y-58627000D01*
X138123750Y-58627000D01*
X137965000Y-58785750D01*
X136788464Y-58785750D01*
X136788464Y-57700000D01*
X136761897Y-57558810D01*
X136678454Y-57429135D01*
X136608770Y-57381522D01*
X136673492Y-57316800D01*
X138085175Y-57316800D01*
X138061673Y-57340302D01*
X137965000Y-57573691D01*
X137965000Y-58214250D01*
X138123750Y-58373000D01*
X138973000Y-58373000D01*
X138973000Y-58353000D01*
X139227000Y-58353000D01*
X139227000Y-58373000D01*
X140076250Y-58373000D01*
X140235000Y-58214250D01*
X140235000Y-57573691D01*
X140163810Y-57401824D01*
X140196152Y-57388461D01*
X140387887Y-57197059D01*
X140491782Y-56946854D01*
X140491806Y-56918872D01*
X140548866Y-56957859D01*
X140700000Y-56988464D01*
X140994000Y-56988464D01*
X140994000Y-59765108D01*
X138742204Y-62016904D01*
X138632517Y-62181062D01*
X138606564Y-62311536D01*
X138600000Y-62311536D01*
X138458810Y-62338103D01*
X138329135Y-62421546D01*
X138242141Y-62548866D01*
X138211536Y-62700000D01*
X138211536Y-64119300D01*
X136788464Y-64119300D01*
X136788464Y-62700000D01*
X136761897Y-62558810D01*
X136678454Y-62429135D01*
X136551134Y-62342141D01*
X136400000Y-62311536D01*
X135400000Y-62311536D01*
X135258810Y-62338103D01*
X135129135Y-62421546D01*
X135042141Y-62548866D01*
X135011536Y-62700000D01*
X135011536Y-64300000D01*
X135038103Y-64441190D01*
X135121546Y-64570865D01*
X135248866Y-64657859D01*
X135400000Y-64688464D01*
X135406564Y-64688464D01*
X135432517Y-64818938D01*
X135542204Y-64983096D01*
X135706362Y-65092783D01*
X135900000Y-65131300D01*
X138890408Y-65131300D01*
X140016904Y-66257796D01*
X140181062Y-66367483D01*
X140311536Y-66393436D01*
X140311536Y-66400000D01*
X140338103Y-66541190D01*
X140421546Y-66670865D01*
X140548866Y-66757859D01*
X140700000Y-66788464D01*
X142300000Y-66788464D01*
X142441190Y-66761897D01*
X142570865Y-66678454D01*
X142618478Y-66608770D01*
X143092804Y-67083096D01*
X143256962Y-67192783D01*
X143450600Y-67231300D01*
X147434800Y-67231300D01*
X147628438Y-67192783D01*
X147792596Y-67083096D01*
X151211536Y-63664156D01*
X151211536Y-64300000D01*
X151238103Y-64441190D01*
X151321546Y-64570865D01*
X151391230Y-64618478D01*
X148241008Y-67768700D01*
X143450600Y-67768700D01*
X143256962Y-67807217D01*
X143092804Y-67916904D01*
X142618437Y-68391271D01*
X142578454Y-68329135D01*
X142451134Y-68242141D01*
X142300000Y-68211536D01*
X140700000Y-68211536D01*
X140558810Y-68238103D01*
X140429135Y-68321546D01*
X140342141Y-68448866D01*
X140311536Y-68600000D01*
X140311536Y-69600000D01*
X140338103Y-69741190D01*
X140421546Y-69870865D01*
X140548866Y-69957859D01*
X140700000Y-69988464D01*
X142300000Y-69988464D01*
X142441190Y-69961897D01*
X142570865Y-69878454D01*
X142657859Y-69751134D01*
X142688464Y-69600000D01*
X142688464Y-69593436D01*
X142818938Y-69567483D01*
X142983096Y-69457796D01*
X143055142Y-69385750D01*
X145065000Y-69385750D01*
X145065000Y-69726310D01*
X145161673Y-69959699D01*
X145340302Y-70138327D01*
X145573691Y-70235000D01*
X146214250Y-70235000D01*
X146373000Y-70076250D01*
X146373000Y-69227000D01*
X145223750Y-69227000D01*
X145065000Y-69385750D01*
X143055142Y-69385750D01*
X143660192Y-68780700D01*
X145065000Y-68780700D01*
X145065000Y-68814250D01*
X145223750Y-68973000D01*
X146373000Y-68973000D01*
X146373000Y-68953000D01*
X146627000Y-68953000D01*
X146627000Y-68973000D01*
X147776250Y-68973000D01*
X147935000Y-68814250D01*
X147935000Y-68780700D01*
X148345912Y-68780700D01*
X147837931Y-69288681D01*
X147776250Y-69227000D01*
X146627000Y-69227000D01*
X146627000Y-70076250D01*
X146785750Y-70235000D01*
X146891612Y-70235000D01*
X145686431Y-71440181D01*
X145666357Y-71443405D01*
X145627630Y-71449480D01*
X145589206Y-71455363D01*
X145550658Y-71461120D01*
X145512273Y-71466711D01*
X145473802Y-71472170D01*
X145434980Y-71477532D01*
X145396706Y-71482677D01*
X145358004Y-71487736D01*
X145319567Y-71492617D01*
X145280712Y-71497406D01*
X145242271Y-71502002D01*
X145203520Y-71506492D01*
X145165160Y-71510794D01*
X145126165Y-71515023D01*
X145087643Y-71519058D01*
X145048908Y-71522973D01*
X145010448Y-71526718D01*
X144971367Y-71530379D01*
X144932885Y-71533843D01*
X144894119Y-71537189D01*
X144855511Y-71540379D01*
X144816492Y-71543461D01*
X144777987Y-71546360D01*
X144739249Y-71549134D01*
X144700305Y-71551782D01*
X144661464Y-71554279D01*
X144622966Y-71556612D01*
X144583872Y-71558840D01*
X144545473Y-71560886D01*
X144506572Y-71562819D01*
X144467557Y-71564614D01*
X144428824Y-71566254D01*
X144389872Y-71567760D01*
X144351223Y-71569115D01*
X144312332Y-71570335D01*
X144273526Y-71571411D01*
X144234653Y-71572348D01*
X144195846Y-71573140D01*
X144157069Y-71573792D01*
X144118275Y-71574300D01*
X144079294Y-71574671D01*
X144040399Y-71574898D01*
X144001757Y-71574983D01*
X143962568Y-71574926D01*
X143924191Y-71574730D01*
X143885032Y-71574388D01*
X143846360Y-71573909D01*
X143807229Y-71573281D01*
X143768813Y-71572524D01*
X143729634Y-71571610D01*
X143691078Y-71570570D01*
X143652102Y-71569375D01*
X143613306Y-71568045D01*
X143574581Y-71566575D01*
X143535679Y-71564957D01*
X143496941Y-71563205D01*
X143458208Y-71561310D01*
X143419231Y-71559261D01*
X143380450Y-71557080D01*
X143341602Y-71554753D01*
X143302938Y-71552296D01*
X143264177Y-71549690D01*
X143225315Y-71546935D01*
X143186784Y-71544062D01*
X143147986Y-71541026D01*
X143109162Y-71537846D01*
X143070621Y-71534548D01*
X143031602Y-71531063D01*
X142993107Y-71527485D01*
X142954364Y-71523740D01*
X142915591Y-71519850D01*
X142876919Y-71515826D01*
X142838131Y-71511646D01*
X142799750Y-71507369D01*
X142761082Y-71502917D01*
X142722606Y-71498343D01*
X142683750Y-71493581D01*
X142645319Y-71488728D01*
X142606679Y-71483704D01*
X142568025Y-71478534D01*
X142529775Y-71473276D01*
X142491176Y-71467825D01*
X142452462Y-71462214D01*
X142414143Y-71456517D01*
X142375676Y-71450653D01*
X142337334Y-71444665D01*
X142298758Y-71438495D01*
X142260128Y-71432170D01*
X142222097Y-71425800D01*
X142183482Y-71419187D01*
X142145163Y-71412479D01*
X142106842Y-71405626D01*
X142068455Y-71398615D01*
X142030270Y-71391496D01*
X141992056Y-71384226D01*
X141953621Y-71376767D01*
X141915632Y-71369250D01*
X141877274Y-71361514D01*
X141838965Y-71353639D01*
X141800994Y-71345689D01*
X141762778Y-71337540D01*
X141724565Y-71329245D01*
X141686714Y-71320882D01*
X141648555Y-71312303D01*
X141610399Y-71303577D01*
X141572612Y-71294789D01*
X141534488Y-71285773D01*
X141496468Y-71276634D01*
X141458670Y-71267400D01*
X141420861Y-71258016D01*
X141382892Y-71248443D01*
X141344959Y-71238730D01*
X141307328Y-71228945D01*
X141269502Y-71218960D01*
X141231577Y-71208799D01*
X141194063Y-71198598D01*
X141156173Y-71188144D01*
X141118685Y-71177652D01*
X141081177Y-71167004D01*
X141043192Y-71156069D01*
X141005686Y-71145119D01*
X140968465Y-71134104D01*
X140930631Y-71122753D01*
X140893483Y-71111459D01*
X140855955Y-71099895D01*
X140818634Y-71088246D01*
X140781211Y-71076409D01*
X140743929Y-71064464D01*
X140706413Y-71052292D01*
X140669193Y-71040059D01*
X140632046Y-71027699D01*
X140594789Y-71015147D01*
X140557987Y-71002596D01*
X140520560Y-70989676D01*
X140483741Y-70976811D01*
X140446706Y-70963716D01*
X140409639Y-70950454D01*
X140372843Y-70937133D01*
X140335836Y-70923579D01*
X140298957Y-70909915D01*
X140262153Y-70896122D01*
X140225399Y-70882191D01*
X140188669Y-70868111D01*
X140152062Y-70853921D01*
X140115466Y-70839578D01*
X140078789Y-70825044D01*
X140042027Y-70810316D01*
X140005774Y-70795634D01*
X139969308Y-70780707D01*
X139932801Y-70765602D01*
X139896348Y-70750358D01*
X139859839Y-70734929D01*
X139823814Y-70719544D01*
X139787501Y-70703876D01*
X139751252Y-70688072D01*
X139715054Y-70672128D01*
X139679003Y-70656086D01*
X139642987Y-70639898D01*
X139607033Y-70623573D01*
X139571000Y-70607048D01*
X139535143Y-70590439D01*
X139499264Y-70573656D01*
X139463407Y-70556718D01*
X139427760Y-70539713D01*
X139391860Y-70522422D01*
X139356265Y-70505109D01*
X139320910Y-70487749D01*
X139285154Y-70470023D01*
X139249732Y-70452295D01*
X139214303Y-70434397D01*
X139178861Y-70416320D01*
X139143552Y-70398145D01*
X139108138Y-70379743D01*
X139073051Y-70361342D01*
X139037786Y-70342676D01*
X139002763Y-70323969D01*
X138967793Y-70305118D01*
X138932700Y-70286029D01*
X138897894Y-70266923D01*
X138862820Y-70247495D01*
X138827957Y-70228011D01*
X138793381Y-70208515D01*
X138758402Y-70188614D01*
X138723873Y-70168795D01*
X138689395Y-70148830D01*
X138654720Y-70128572D01*
X138620370Y-70108330D01*
X138585978Y-70087886D01*
X138551388Y-70067142D01*
X138517206Y-70046467D01*
X138483048Y-70025626D01*
X138448878Y-70004599D01*
X138414616Y-69983334D01*
X138380687Y-69962095D01*
X138346635Y-69940596D01*
X138312913Y-69919124D01*
X138278793Y-69897215D01*
X138245156Y-69875434D01*
X138211386Y-69853382D01*
X138177791Y-69831260D01*
X138144237Y-69808980D01*
X138110781Y-69786580D01*
X138077254Y-69763945D01*
X138043742Y-69741131D01*
X138010492Y-69718308D01*
X137977204Y-69695271D01*
X137943968Y-69672079D01*
X137911053Y-69648922D01*
X137877980Y-69625464D01*
X137844926Y-69601827D01*
X137811839Y-69577973D01*
X137779251Y-69554286D01*
X137746393Y-69530210D01*
X137713571Y-69505965D01*
X137681099Y-69481785D01*
X137648395Y-69457234D01*
X137615998Y-69432718D01*
X137583753Y-69408120D01*
X137551290Y-69383159D01*
X137519025Y-69358149D01*
X137486807Y-69332977D01*
X137454769Y-69307744D01*
X137422656Y-69282251D01*
X137390519Y-69256535D01*
X137358737Y-69230899D01*
X137326950Y-69205057D01*
X137295121Y-69178975D01*
X137263684Y-69153012D01*
X137232151Y-69126762D01*
X137200462Y-69100174D01*
X137169117Y-69073667D01*
X137137803Y-69046979D01*
X137106413Y-69020014D01*
X137075142Y-68992938D01*
X137044236Y-68965969D01*
X137013193Y-68938668D01*
X136982336Y-68911319D01*
X136951331Y-68883622D01*
X136920586Y-68855942D01*
X136889882Y-68828084D01*
X136859359Y-68800170D01*
X136828791Y-68772001D01*
X136798393Y-68743766D01*
X136767962Y-68715281D01*
X136737685Y-68686720D01*
X136707415Y-68657941D01*
X136677300Y-68629087D01*
X136647385Y-68600200D01*
X136617280Y-68570902D01*
X136587529Y-68541723D01*
X136557655Y-68512195D01*
X136528172Y-68482827D01*
X136479809Y-68434156D01*
X136431993Y-68385424D01*
X136384406Y-68336305D01*
X136337376Y-68287143D01*
X136290615Y-68237639D01*
X136244399Y-68188087D01*
X136198435Y-68138175D01*
X136152873Y-68088067D01*
X136107741Y-68037797D01*
X136062898Y-67987209D01*
X136018430Y-67936401D01*
X135974494Y-67885555D01*
X135930766Y-67834298D01*
X135887562Y-67783003D01*
X135844558Y-67731286D01*
X135802083Y-67679543D01*
X135759865Y-67627447D01*
X135718194Y-67575358D01*
X135676764Y-67522893D01*
X135635798Y-67470340D01*
X135595198Y-67417574D01*
X135554900Y-67364511D01*
X135515060Y-67311363D01*
X135501696Y-67293297D01*
X136518743Y-67293297D01*
X136743737Y-67837823D01*
X137159985Y-68254799D01*
X137704118Y-68480743D01*
X138293297Y-68481257D01*
X138837823Y-68256263D01*
X139254799Y-67840015D01*
X139480743Y-67295882D01*
X139481257Y-66706703D01*
X139256263Y-66162177D01*
X138840015Y-65745201D01*
X138295882Y-65519257D01*
X137706703Y-65518743D01*
X137162177Y-65743737D01*
X136745201Y-66159985D01*
X136519257Y-66704118D01*
X136518743Y-67293297D01*
X135501696Y-67293297D01*
X135475555Y-67257961D01*
X135436413Y-67204348D01*
X135397711Y-67150633D01*
X135359370Y-67096707D01*
X135321394Y-67042578D01*
X135283795Y-66988266D01*
X135246624Y-66933842D01*
X135209707Y-66879058D01*
X135173203Y-66824148D01*
X135137165Y-66769192D01*
X135101497Y-66714054D01*
X135066142Y-66658642D01*
X135031223Y-66603152D01*
X134996685Y-66547497D01*
X134962416Y-66491500D01*
X134928673Y-66435581D01*
X134895192Y-66379306D01*
X134862131Y-66322940D01*
X134829482Y-66266474D01*
X134797176Y-66209791D01*
X134765225Y-66152909D01*
X134733763Y-66096076D01*
X134702564Y-66038882D01*
X134671735Y-65981522D01*
X134641326Y-65924090D01*
X134611307Y-65866538D01*
X134581653Y-65808815D01*
X134552375Y-65750946D01*
X134523466Y-65692917D01*
X134494879Y-65634636D01*
X134466811Y-65576506D01*
X134439063Y-65518124D01*
X134411659Y-65459534D01*
X134384622Y-65400791D01*
X134357965Y-65341919D01*
X134331734Y-65283029D01*
X134305817Y-65223863D01*
X134280331Y-65164698D01*
X134255288Y-65105564D01*
X134230515Y-65046053D01*
X134206135Y-64986460D01*
X134182091Y-64926645D01*
X134158519Y-64866948D01*
X134135312Y-64807111D01*
X134112431Y-64747026D01*
X134089962Y-64686920D01*
X134067783Y-64626467D01*
X134046077Y-64566164D01*
X134024793Y-64505886D01*
X134003764Y-64445155D01*
X133983230Y-64384665D01*
X133962959Y-64323735D01*
X133943127Y-64262886D01*
X133923659Y-64201904D01*
X133904619Y-64140986D01*
X133885930Y-64079893D01*
X133867584Y-64018598D01*
X133849647Y-63957316D01*
X133832030Y-63895748D01*
X133814859Y-63834335D01*
X133798061Y-63772827D01*
X133781628Y-63711187D01*
X133765555Y-63649400D01*
X133749872Y-63587582D01*
X133734553Y-63525636D01*
X133719658Y-63463805D01*
X133705071Y-63401609D01*
X133690943Y-63339692D01*
X133677105Y-63277315D01*
X133663717Y-63215204D01*
X133650672Y-63152865D01*
X133637994Y-63090406D01*
X133625733Y-63028085D01*
X133613805Y-62965474D01*
X133602282Y-62902945D01*
X133591156Y-62840469D01*
X133580356Y-62777646D01*
X133569972Y-62714989D01*
X133559956Y-62652228D01*
X133550337Y-62589543D01*
X133541062Y-62526586D01*
X133532171Y-62463626D01*
X133523687Y-62400832D01*
X133515560Y-62337849D01*
X133507788Y-62274624D01*
X133500435Y-62211723D01*
X133493444Y-62148641D01*
X133486835Y-62085569D01*
X133480565Y-62022065D01*
X133474734Y-61959173D01*
X133469259Y-61896022D01*
X133464147Y-61832661D01*
X133459421Y-61769388D01*
X133455071Y-61706058D01*
X133451112Y-61642908D01*
X133447519Y-61579534D01*
X133444300Y-61516066D01*
X133441467Y-61452759D01*
X133439010Y-61389401D01*
X133436935Y-61326110D01*
X133435230Y-61262582D01*
X133433909Y-61199273D01*
X133432964Y-61135881D01*
X133432396Y-61072371D01*
X133432208Y-61009013D01*
X133432396Y-60945654D01*
X133432964Y-60882145D01*
X133433909Y-60818752D01*
X133435231Y-60755402D01*
X133436935Y-60691915D01*
X133439011Y-60628618D01*
X133441467Y-60565266D01*
X133444300Y-60501959D01*
X133447519Y-60438493D01*
X133451112Y-60375118D01*
X133455072Y-60311959D01*
X133459419Y-60248661D01*
X133464148Y-60185353D01*
X133469259Y-60122005D01*
X133474734Y-60058854D01*
X133480579Y-59995819D01*
X133486834Y-59932476D01*
X133493444Y-59869387D01*
X133500435Y-59806305D01*
X133507788Y-59743405D01*
X133515563Y-59680160D01*
X133523687Y-59617197D01*
X133532171Y-59554403D01*
X133541062Y-59491444D01*
X133550336Y-59428489D01*
X133559960Y-59365779D01*
X133569972Y-59303042D01*
X133580347Y-59240438D01*
X133591133Y-59177693D01*
X133602300Y-59114988D01*
X133613810Y-59052532D01*
X133625733Y-58989948D01*
X133638018Y-58927503D01*
X133650678Y-58865144D01*
X133663731Y-58802766D01*
X133677124Y-58740632D01*
X133690905Y-58678513D01*
X133705088Y-58616357D01*
X133719649Y-58554272D01*
X133734572Y-58492328D01*
X133749862Y-58430496D01*
X133765544Y-58368681D01*
X133781617Y-58306895D01*
X133798062Y-58245213D01*
X133814847Y-58183750D01*
X133832042Y-58122252D01*
X133849665Y-58060664D01*
X133867595Y-57999407D01*
X133885942Y-57938109D01*
X133904604Y-57877106D01*
X133923719Y-57815950D01*
X133943155Y-57755069D01*
X133962972Y-57694274D01*
X133983196Y-57633484D01*
X134003828Y-57572708D01*
X134024743Y-57512307D01*
X134046114Y-57451785D01*
X134067810Y-57391509D01*
X134089932Y-57331212D01*
X134112403Y-57271102D01*
X134135307Y-57210958D01*
X134158529Y-57151082D01*
X134182161Y-57091236D01*
X134206111Y-57031655D01*
X134230453Y-56972155D01*
X134255293Y-56912484D01*
X134280346Y-56853326D01*
X134305817Y-56794199D01*
X134331720Y-56735065D01*
X134358014Y-56676033D01*
X134384646Y-56617223D01*
X134411656Y-56558538D01*
X134439064Y-56499941D01*
X134466822Y-56441540D01*
X134494912Y-56383364D01*
X134523491Y-56325102D01*
X134552401Y-56267073D01*
X134581621Y-56209321D01*
X134611270Y-56151609D01*
X134641350Y-56093940D01*
X134671771Y-56036487D01*
X134702519Y-55979279D01*
X134733668Y-55922177D01*
X134765290Y-55865054D01*
X134797161Y-55808318D01*
X134829458Y-55751652D01*
X134862157Y-55695099D01*
X134895243Y-55638693D01*
X134928653Y-55582541D01*
X134962455Y-55526525D01*
X134996619Y-55470700D01*
X135031173Y-55415021D01*
X135066202Y-55359358D01*
X135101422Y-55304158D01*
X135137163Y-55248907D01*
X135173268Y-55193853D01*
X135209703Y-55139047D01*
X135246680Y-55084174D01*
X135283722Y-55029943D01*
X135321390Y-54975532D01*
X135359356Y-54921418D01*
X135397629Y-54867588D01*
X135436473Y-54813677D01*
X135475608Y-54760078D01*
X135514996Y-54706836D01*
X135554933Y-54653558D01*
X135595093Y-54600678D01*
X135635758Y-54547828D01*
X135676779Y-54495206D01*
X135718107Y-54442872D01*
X135759905Y-54390626D01*
X135802011Y-54338668D01*
X135844588Y-54286804D01*
X135887485Y-54235216D01*
X135930775Y-54183820D01*
X135974396Y-54132691D01*
X136018370Y-54081802D01*
X136062919Y-54030903D01*
X136107663Y-53980427D01*
X136152793Y-53930160D01*
X136198494Y-53879902D01*
X136244387Y-53830070D01*
X136290682Y-53780434D01*
X136337354Y-53731027D01*
X136384480Y-53681766D01*
X136431984Y-53632735D01*
X136479791Y-53584015D01*
X136527998Y-53535503D01*
X136576489Y-53487315D01*
X136625295Y-53439427D01*
X136674157Y-53392085D01*
X136723492Y-53344889D01*
X136772875Y-53298241D01*
X136822515Y-53251942D01*
X136872555Y-53205860D01*
X136894670Y-53185750D01*
X140065000Y-53185750D01*
X140065000Y-53526310D01*
X140161673Y-53759699D01*
X140340302Y-53938327D01*
X140573691Y-54035000D01*
X141214250Y-54035000D01*
X141373000Y-53876250D01*
X141373000Y-53027000D01*
X140223750Y-53027000D01*
X140065000Y-53185750D01*
X136894670Y-53185750D01*
X136922587Y-53160366D01*
X136972873Y-53115219D01*
X137023411Y-53070420D01*
X137074151Y-53026012D01*
X137125043Y-52982036D01*
X137176255Y-52938345D01*
X137227590Y-52895108D01*
X137279133Y-52852248D01*
X137331013Y-52809658D01*
X137383014Y-52767519D01*
X137435166Y-52725797D01*
X137487624Y-52684371D01*
X137540202Y-52643387D01*
X137592919Y-52602826D01*
X137646031Y-52562489D01*
X137699120Y-52522697D01*
X137752465Y-52483233D01*
X137806152Y-52444037D01*
X137859803Y-52405382D01*
X137913856Y-52366951D01*
X137967915Y-52329025D01*
X138022287Y-52291387D01*
X138048197Y-52273690D01*
X140065000Y-52273690D01*
X140065000Y-52614250D01*
X140223750Y-52773000D01*
X141373000Y-52773000D01*
X141373000Y-51923750D01*
X141627000Y-51923750D01*
X141627000Y-52773000D01*
X142776250Y-52773000D01*
X142935000Y-52614250D01*
X142935000Y-52273690D01*
X142838327Y-52040301D01*
X142659698Y-51861673D01*
X142426309Y-51765000D01*
X141785750Y-51765000D01*
X141627000Y-51923750D01*
X141373000Y-51923750D01*
X141214250Y-51765000D01*
X140573691Y-51765000D01*
X140340302Y-51861673D01*
X140161673Y-52040301D01*
X140065000Y-52273690D01*
X138048197Y-52273690D01*
X138076681Y-52254236D01*
X138131300Y-52217432D01*
X138186177Y-52180952D01*
X138241214Y-52144860D01*
X138296446Y-52109132D01*
X138351719Y-52073867D01*
X138407261Y-52038917D01*
X138463076Y-52004280D01*
X138518897Y-51970121D01*
X138574798Y-51936390D01*
X138631060Y-51902916D01*
X138687404Y-51869869D01*
X138743944Y-51837180D01*
X138800653Y-51804860D01*
X138857478Y-51772943D01*
X138914390Y-51741438D01*
X138971565Y-51710251D01*
X139028851Y-51679464D01*
X139086181Y-51649109D01*
X139143812Y-51619051D01*
X139201465Y-51589434D01*
X139259472Y-51560087D01*
X139317419Y-51531220D01*
X139375523Y-51502721D01*
X139433837Y-51474565D01*
X139492203Y-51446826D01*
X139550795Y-51419422D01*
X139609584Y-51392366D01*
X139668342Y-51365761D01*
X139727278Y-51339512D01*
X139786453Y-51313591D01*
X139845521Y-51288149D01*
X139904914Y-51262997D01*
X139964241Y-51238301D01*
X140023957Y-51213873D01*
X140083497Y-51189941D01*
X140143402Y-51166287D01*
X140203230Y-51143086D01*
X140263273Y-51120223D01*
X140323591Y-51097676D01*
X140383610Y-51075658D01*
X140444096Y-51053886D01*
X140504507Y-51032556D01*
X140564982Y-51011617D01*
X140625770Y-50990983D01*
X140686456Y-50970795D01*
X140747353Y-50950947D01*
X140808353Y-50931475D01*
X140869368Y-50912405D01*
X140930427Y-50893728D01*
X140991781Y-50875367D01*
X141052950Y-50857463D01*
X141114482Y-50839858D01*
X141175893Y-50822689D01*
X141237545Y-50805853D01*
X141299214Y-50789414D01*
X141360865Y-50773378D01*
X141422773Y-50757673D01*
X141484486Y-50742412D01*
X141546510Y-50727471D01*
X141608556Y-50712920D01*
X141670688Y-50698743D01*
X141732908Y-50684941D01*
X141795069Y-50671543D01*
X141857418Y-50658497D01*
X141919889Y-50645817D01*
X141982190Y-50633561D01*
X142044762Y-50621641D01*
X142107280Y-50610120D01*
X142169737Y-50598998D01*
X142232526Y-50588204D01*
X142295280Y-50577803D01*
X142357986Y-50567797D01*
X142420745Y-50558167D01*
X142483704Y-50548893D01*
X142546649Y-50540004D01*
X142609404Y-50531525D01*
X142672419Y-50523395D01*
X142735670Y-50515619D01*
X142798570Y-50508267D01*
X142861569Y-50501285D01*
X142924748Y-50494666D01*
X142987916Y-50488428D01*
X143051253Y-50482556D01*
X143114253Y-50477094D01*
X143177685Y-50471976D01*
X143240808Y-50467262D01*
X143304218Y-50462907D01*
X143367313Y-50458951D01*
X143430811Y-50455350D01*
X143494209Y-50452135D01*
X143557517Y-50449302D01*
X143620846Y-50446847D01*
X143684203Y-50444768D01*
X143747678Y-50443064D01*
X143811042Y-50441742D01*
X143874371Y-50440798D01*
X143937921Y-50440229D01*
X144001273Y-50440040D01*
X144064625Y-50440228D01*
G36*
X148191271Y-57381563D02*
X148129135Y-57421546D01*
X148042141Y-57548866D01*
X148011536Y-57700000D01*
X148011536Y-59300000D01*
X148038103Y-59441190D01*
X148121546Y-59570865D01*
X148248866Y-59657859D01*
X148400000Y-59688464D01*
X149400000Y-59688464D01*
X149541190Y-59661897D01*
X149670865Y-59578454D01*
X149757859Y-59451134D01*
X149788464Y-59300000D01*
X149788464Y-57880700D01*
X151211536Y-57880700D01*
X151211536Y-59300000D01*
X151238103Y-59441190D01*
X151321546Y-59570865D01*
X151391230Y-59618478D01*
X150916904Y-60092804D01*
X150807217Y-60256962D01*
X150768700Y-60450600D01*
X150768700Y-62675808D01*
X150035000Y-63409508D01*
X150035000Y-63372998D01*
X149876252Y-63372998D01*
X150035000Y-63214250D01*
X150035000Y-62573691D01*
X149938327Y-62340302D01*
X149759699Y-62161673D01*
X149526310Y-62065000D01*
X149185750Y-62065000D01*
X149027000Y-62223750D01*
X149027000Y-63373000D01*
X149047000Y-63373000D01*
X149047000Y-63627000D01*
X149027000Y-63627000D01*
X149027000Y-63647000D01*
X148773000Y-63647000D01*
X148773000Y-63627000D01*
X147923750Y-63627000D01*
X147765000Y-63785750D01*
X147765000Y-64426309D01*
X147861673Y-64659698D01*
X148040301Y-64838327D01*
X148273690Y-64935000D01*
X148509508Y-64935000D01*
X147688464Y-65756044D01*
X147688464Y-65400000D01*
X147661897Y-65258810D01*
X147578454Y-65129135D01*
X147451134Y-65042141D01*
X147300000Y-65011536D01*
X146256656Y-65011536D01*
X146857796Y-64410396D01*
X146876266Y-64382753D01*
X146967483Y-64246238D01*
X147006000Y-64052600D01*
X147006000Y-62573691D01*
X147765000Y-62573691D01*
X147765000Y-63214250D01*
X147923750Y-63373000D01*
X148773000Y-63373000D01*
X148773000Y-62223750D01*
X148614250Y-62065000D01*
X148273690Y-62065000D01*
X148040301Y-62161673D01*
X147861673Y-62340302D01*
X147765000Y-62573691D01*
X147006000Y-62573691D01*
X147006000Y-58319600D01*
X146967483Y-58125962D01*
X146857796Y-57961804D01*
X145884456Y-56988464D01*
X147300000Y-56988464D01*
X147441190Y-56961897D01*
X147570865Y-56878454D01*
X147618478Y-56808770D01*
X148191271Y-57381563D01*
X148191271Y-57381563D01*
G37*
X148191271Y-57381563D02*
X148129135Y-57421546D01*
X148042141Y-57548866D01*
X148011536Y-57700000D01*
X148011536Y-59300000D01*
X148038103Y-59441190D01*
X148121546Y-59570865D01*
X148248866Y-59657859D01*
X148400000Y-59688464D01*
X149400000Y-59688464D01*
X149541190Y-59661897D01*
X149670865Y-59578454D01*
X149757859Y-59451134D01*
X149788464Y-59300000D01*
X149788464Y-57880700D01*
X151211536Y-57880700D01*
X151211536Y-59300000D01*
X151238103Y-59441190D01*
X151321546Y-59570865D01*
X151391230Y-59618478D01*
X150916904Y-60092804D01*
X150807217Y-60256962D01*
X150768700Y-60450600D01*
X150768700Y-62675808D01*
X150035000Y-63409508D01*
X150035000Y-63372998D01*
X149876252Y-63372998D01*
X150035000Y-63214250D01*
X150035000Y-62573691D01*
X149938327Y-62340302D01*
X149759699Y-62161673D01*
X149526310Y-62065000D01*
X149185750Y-62065000D01*
X149027000Y-62223750D01*
X149027000Y-63373000D01*
X149047000Y-63373000D01*
X149047000Y-63627000D01*
X149027000Y-63627000D01*
X149027000Y-63647000D01*
X148773000Y-63647000D01*
X148773000Y-63627000D01*
X147923750Y-63627000D01*
X147765000Y-63785750D01*
X147765000Y-64426309D01*
X147861673Y-64659698D01*
X148040301Y-64838327D01*
X148273690Y-64935000D01*
X148509508Y-64935000D01*
X147688464Y-65756044D01*
X147688464Y-65400000D01*
X147661897Y-65258810D01*
X147578454Y-65129135D01*
X147451134Y-65042141D01*
X147300000Y-65011536D01*
X146256656Y-65011536D01*
X146857796Y-64410396D01*
X146876266Y-64382753D01*
X146967483Y-64246238D01*
X147006000Y-64052600D01*
X147006000Y-62573691D01*
X147765000Y-62573691D01*
X147765000Y-63214250D01*
X147923750Y-63373000D01*
X148773000Y-63373000D01*
X148773000Y-62223750D01*
X148614250Y-62065000D01*
X148273690Y-62065000D01*
X148040301Y-62161673D01*
X147861673Y-62340302D01*
X147765000Y-62573691D01*
X147006000Y-62573691D01*
X147006000Y-58319600D01*
X146967483Y-58125962D01*
X146857796Y-57961804D01*
X145884456Y-56988464D01*
X147300000Y-56988464D01*
X147441190Y-56961897D01*
X147570865Y-56878454D01*
X147618478Y-56808770D01*
X148191271Y-57381563D01*
M02*
