G04 #@! TF.FileFunction,Legend,Top*
%FSLAX46Y46*%
G04 Gerber Fmt 4.6, Leading zero omitted, Abs format (unit mm)*
G04 Created by KiCad (PCBNEW 4.0.4-stable) date 10/29/16 17:51:51*
%MOMM*%
%LPD*%
G01*
G04 APERTURE LIST*
%ADD10C,0.100000*%
%ADD11C,0.150000*%
G04 APERTURE END LIST*
D10*
D11*
X134900000Y-64500000D02*
X134900000Y-57500000D01*
X140100000Y-64500000D02*
X140100000Y-57500000D01*
X140100000Y-57500000D02*
X139100000Y-57500000D01*
X147500000Y-57100000D02*
X140500000Y-57100000D01*
X147500000Y-51900000D02*
X140500000Y-51900000D01*
X140500000Y-51900000D02*
X140500000Y-52900000D01*
X140500000Y-64900000D02*
X147500000Y-64900000D01*
X140500000Y-70100000D02*
X147500000Y-70100000D01*
X147500000Y-70100000D02*
X147500000Y-69100000D01*
X153100000Y-57500000D02*
X153100000Y-64500000D01*
X147900000Y-57500000D02*
X147900000Y-64500000D01*
X147900000Y-64500000D02*
X148900000Y-64500000D01*
X143319215Y-63837326D02*
G75*
G03X141169598Y-61709081I678811J2835352D01*
G01*
X143290919Y-63830402D02*
X141169598Y-61709081D01*
X146515962Y-61001974D02*
G75*
G03X146515962Y-61001974I-2517936J0D01*
G01*
X134452381Y-61738095D02*
X133452381Y-61738095D01*
X133452381Y-61500000D01*
X133500000Y-61357142D01*
X133595238Y-61261904D01*
X133690476Y-61214285D01*
X133880952Y-61166666D01*
X134023810Y-61166666D01*
X134214286Y-61214285D01*
X134309524Y-61261904D01*
X134404762Y-61357142D01*
X134452381Y-61500000D01*
X134452381Y-61738095D01*
X134452381Y-60214285D02*
X134452381Y-60785714D01*
X134452381Y-60500000D02*
X133452381Y-60500000D01*
X133595238Y-60595238D01*
X133690476Y-60690476D01*
X133738095Y-60785714D01*
X143261905Y-51452381D02*
X143261905Y-50452381D01*
X143500000Y-50452381D01*
X143642858Y-50500000D01*
X143738096Y-50595238D01*
X143785715Y-50690476D01*
X143833334Y-50880952D01*
X143833334Y-51023810D01*
X143785715Y-51214286D01*
X143738096Y-51309524D01*
X143642858Y-51404762D01*
X143500000Y-51452381D01*
X143261905Y-51452381D01*
X144214286Y-50547619D02*
X144261905Y-50500000D01*
X144357143Y-50452381D01*
X144595239Y-50452381D01*
X144690477Y-50500000D01*
X144738096Y-50547619D01*
X144785715Y-50642857D01*
X144785715Y-50738095D01*
X144738096Y-50880952D01*
X144166667Y-51452381D01*
X144785715Y-51452381D01*
X143261905Y-71452381D02*
X143261905Y-70452381D01*
X143500000Y-70452381D01*
X143642858Y-70500000D01*
X143738096Y-70595238D01*
X143785715Y-70690476D01*
X143833334Y-70880952D01*
X143833334Y-71023810D01*
X143785715Y-71214286D01*
X143738096Y-71309524D01*
X143642858Y-71404762D01*
X143500000Y-71452381D01*
X143261905Y-71452381D01*
X144166667Y-70452381D02*
X144785715Y-70452381D01*
X144452381Y-70833333D01*
X144595239Y-70833333D01*
X144690477Y-70880952D01*
X144738096Y-70928571D01*
X144785715Y-71023810D01*
X144785715Y-71261905D01*
X144738096Y-71357143D01*
X144690477Y-71404762D01*
X144595239Y-71452381D01*
X144309524Y-71452381D01*
X144214286Y-71404762D01*
X144166667Y-71357143D01*
X154452381Y-61738095D02*
X153452381Y-61738095D01*
X153452381Y-61500000D01*
X153500000Y-61357142D01*
X153595238Y-61261904D01*
X153690476Y-61214285D01*
X153880952Y-61166666D01*
X154023810Y-61166666D01*
X154214286Y-61214285D01*
X154309524Y-61261904D01*
X154404762Y-61357142D01*
X154452381Y-61500000D01*
X154452381Y-61738095D01*
X153785714Y-60309523D02*
X154452381Y-60309523D01*
X153404762Y-60547619D02*
X154119048Y-60785714D01*
X154119048Y-60166666D01*
X146849283Y-64537845D02*
X146142176Y-63830738D01*
X146310535Y-63662379D01*
X146445222Y-63595035D01*
X146579909Y-63595035D01*
X146680924Y-63628707D01*
X146849283Y-63729722D01*
X146950299Y-63830738D01*
X147051314Y-63999096D01*
X147084985Y-64100112D01*
X147084985Y-64234798D01*
X147017641Y-64369486D01*
X146849283Y-64537845D01*
X147186001Y-62786913D02*
X146849283Y-63123631D01*
X147152328Y-63494020D01*
X147152328Y-63426677D01*
X147186000Y-63325661D01*
X147354359Y-63157302D01*
X147455374Y-63123630D01*
X147522718Y-63123630D01*
X147623734Y-63157303D01*
X147792092Y-63325661D01*
X147825764Y-63426677D01*
X147825764Y-63494020D01*
X147792092Y-63595035D01*
X147623733Y-63763394D01*
X147522718Y-63797066D01*
X147455374Y-63797066D01*
M02*
