%TF.GenerationSoftware,KiCad,Pcbnew,(5.0.2)-1*%
%TF.CreationDate,2019-03-24T20:38:46+01:00*%
%TF.ProjectId,TaggerMainboard,54616767-6572-44d6-9169-6e626f617264,rev?*%
%TF.SameCoordinates,Original*%
%TF.FileFunction,Soldermask,Bot*%
%TF.FilePolarity,Negative*%
%FSLAX46Y46*%
G04 Gerber Fmt 4.6, Leading zero omitted, Abs format (unit mm)*
G04 Created by KiCad (PCBNEW (5.0.2)-1) date 24.03.2019 20:38:46*
%MOMM*%
%LPD*%
G01*
G04 APERTURE LIST*
%ADD10C,0.150000*%
G04 APERTURE END LIST*
D10*
G36*
X155335734Y-91893232D02*
X155545202Y-91979996D01*
X155733723Y-92105962D01*
X155894038Y-92266277D01*
X156020004Y-92454798D01*
X156106768Y-92664266D01*
X156151000Y-92886635D01*
X156151000Y-93113365D01*
X156106768Y-93335734D01*
X156020004Y-93545202D01*
X155894038Y-93733723D01*
X155733723Y-93894038D01*
X155545202Y-94020004D01*
X155335734Y-94106768D01*
X155113365Y-94151000D01*
X154886635Y-94151000D01*
X154664266Y-94106768D01*
X154454798Y-94020004D01*
X154266277Y-93894038D01*
X154105962Y-93733723D01*
X153979996Y-93545202D01*
X153893232Y-93335734D01*
X153849000Y-93113365D01*
X153849000Y-92886635D01*
X153893232Y-92664266D01*
X153979996Y-92454798D01*
X154105962Y-92266277D01*
X154266277Y-92105962D01*
X154454798Y-91979996D01*
X154664266Y-91893232D01*
X154886635Y-91849000D01*
X155113365Y-91849000D01*
X155335734Y-91893232D01*
X155335734Y-91893232D01*
G37*
G36*
X59335734Y-91893232D02*
X59545202Y-91979996D01*
X59733723Y-92105962D01*
X59894038Y-92266277D01*
X60020004Y-92454798D01*
X60106768Y-92664266D01*
X60151000Y-92886635D01*
X60151000Y-93113365D01*
X60106768Y-93335734D01*
X60020004Y-93545202D01*
X59894038Y-93733723D01*
X59733723Y-93894038D01*
X59545202Y-94020004D01*
X59335734Y-94106768D01*
X59113365Y-94151000D01*
X58886635Y-94151000D01*
X58664266Y-94106768D01*
X58454798Y-94020004D01*
X58266277Y-93894038D01*
X58105962Y-93733723D01*
X57979996Y-93545202D01*
X57893232Y-93335734D01*
X57849000Y-93113365D01*
X57849000Y-92886635D01*
X57893232Y-92664266D01*
X57979996Y-92454798D01*
X58105962Y-92266277D01*
X58266277Y-92105962D01*
X58454798Y-91979996D01*
X58664266Y-91893232D01*
X58886635Y-91849000D01*
X59113365Y-91849000D01*
X59335734Y-91893232D01*
X59335734Y-91893232D01*
G37*
G36*
X78512421Y-92009143D02*
X78644557Y-92049227D01*
X78644559Y-92049228D01*
X78766339Y-92114320D01*
X78873080Y-92201920D01*
X78960680Y-92308661D01*
X79007974Y-92397143D01*
X79025773Y-92430443D01*
X79065857Y-92562579D01*
X79076000Y-92665568D01*
X79076000Y-93334432D01*
X79065857Y-93437421D01*
X79025773Y-93569556D01*
X79025772Y-93569559D01*
X78960680Y-93691339D01*
X78897691Y-93768090D01*
X78873078Y-93798082D01*
X78780427Y-93874117D01*
X78766338Y-93885680D01*
X78750697Y-93894040D01*
X78644556Y-93950773D01*
X78512420Y-93990857D01*
X78375000Y-94004391D01*
X78237579Y-93990857D01*
X78105443Y-93950773D01*
X78105441Y-93950772D01*
X77983661Y-93885680D01*
X77906910Y-93822691D01*
X77876918Y-93798078D01*
X77789321Y-93691339D01*
X77789320Y-93691337D01*
X77724228Y-93569558D01*
X77724227Y-93569556D01*
X77684143Y-93437420D01*
X77674000Y-93334431D01*
X77674000Y-92665568D01*
X77684143Y-92562579D01*
X77724226Y-92430443D01*
X77754527Y-92373756D01*
X77789321Y-92308661D01*
X77876921Y-92201920D01*
X77983662Y-92114320D01*
X78105442Y-92049228D01*
X78105444Y-92049227D01*
X78237580Y-92009143D01*
X78375000Y-91995609D01*
X78512421Y-92009143D01*
X78512421Y-92009143D01*
G37*
G36*
X85762421Y-92009143D02*
X85894557Y-92049227D01*
X85894559Y-92049228D01*
X86016339Y-92114320D01*
X86123080Y-92201920D01*
X86210680Y-92308661D01*
X86257974Y-92397143D01*
X86275773Y-92430443D01*
X86315857Y-92562579D01*
X86326000Y-92665568D01*
X86326000Y-93334432D01*
X86315857Y-93437421D01*
X86275773Y-93569556D01*
X86275772Y-93569559D01*
X86210680Y-93691339D01*
X86147691Y-93768090D01*
X86123078Y-93798082D01*
X86030427Y-93874117D01*
X86016338Y-93885680D01*
X86000697Y-93894040D01*
X85894556Y-93950773D01*
X85762420Y-93990857D01*
X85625000Y-94004391D01*
X85487579Y-93990857D01*
X85355443Y-93950773D01*
X85355441Y-93950772D01*
X85233661Y-93885680D01*
X85156910Y-93822691D01*
X85126918Y-93798078D01*
X85039321Y-93691339D01*
X85039320Y-93691337D01*
X84974228Y-93569558D01*
X84974227Y-93569556D01*
X84934143Y-93437420D01*
X84924000Y-93334431D01*
X84924000Y-92665568D01*
X84934143Y-92562579D01*
X84974226Y-92430443D01*
X85004527Y-92373756D01*
X85039321Y-92308661D01*
X85126921Y-92201920D01*
X85233662Y-92114320D01*
X85355442Y-92049228D01*
X85355444Y-92049227D01*
X85487580Y-92009143D01*
X85625000Y-91995609D01*
X85762421Y-92009143D01*
X85762421Y-92009143D01*
G37*
G36*
X89827142Y-91378242D02*
X89941583Y-91425646D01*
X89948479Y-91428502D01*
X89975102Y-91439530D01*
X90042130Y-91484317D01*
X90108257Y-91528501D01*
X90221499Y-91641743D01*
X90265683Y-91707870D01*
X90310470Y-91774898D01*
X90371758Y-91922858D01*
X90403000Y-92079925D01*
X90403000Y-92240075D01*
X90371758Y-92397142D01*
X90310470Y-92545102D01*
X90221498Y-92678258D01*
X90108258Y-92791498D01*
X89975102Y-92880470D01*
X89827142Y-92941758D01*
X89670075Y-92973000D01*
X89509925Y-92973000D01*
X89352858Y-92941758D01*
X89204898Y-92880470D01*
X89071742Y-92791498D01*
X88958502Y-92678258D01*
X88869530Y-92545102D01*
X88808242Y-92397142D01*
X88777000Y-92240075D01*
X88777000Y-92079925D01*
X88808242Y-91922858D01*
X88869530Y-91774898D01*
X88914317Y-91707870D01*
X88958501Y-91641743D01*
X89071743Y-91528501D01*
X89137870Y-91484317D01*
X89204898Y-91439530D01*
X89231522Y-91428502D01*
X89238417Y-91425646D01*
X89352858Y-91378242D01*
X89509925Y-91347000D01*
X89670075Y-91347000D01*
X89827142Y-91378242D01*
X89827142Y-91378242D01*
G37*
G36*
X61887142Y-91378242D02*
X62001583Y-91425646D01*
X62008479Y-91428502D01*
X62035102Y-91439530D01*
X62102130Y-91484317D01*
X62168257Y-91528501D01*
X62281499Y-91641743D01*
X62325683Y-91707870D01*
X62370470Y-91774898D01*
X62431758Y-91922858D01*
X62463000Y-92079925D01*
X62463000Y-92240075D01*
X62431758Y-92397142D01*
X62370470Y-92545102D01*
X62281498Y-92678258D01*
X62168258Y-92791498D01*
X62035102Y-92880470D01*
X61887142Y-92941758D01*
X61730075Y-92973000D01*
X61569925Y-92973000D01*
X61412858Y-92941758D01*
X61264898Y-92880470D01*
X61131742Y-92791498D01*
X61018502Y-92678258D01*
X60929530Y-92545102D01*
X60868242Y-92397142D01*
X60837000Y-92240075D01*
X60837000Y-92079925D01*
X60868242Y-91922858D01*
X60929530Y-91774898D01*
X60974317Y-91707870D01*
X61018501Y-91641743D01*
X61131743Y-91528501D01*
X61197870Y-91484317D01*
X61264898Y-91439530D01*
X61291522Y-91428502D01*
X61298417Y-91425646D01*
X61412858Y-91378242D01*
X61569925Y-91347000D01*
X61730075Y-91347000D01*
X61887142Y-91378242D01*
X61887142Y-91378242D01*
G37*
G36*
X64427142Y-91378242D02*
X64541583Y-91425646D01*
X64548479Y-91428502D01*
X64575102Y-91439530D01*
X64642130Y-91484317D01*
X64708257Y-91528501D01*
X64821499Y-91641743D01*
X64865683Y-91707870D01*
X64910470Y-91774898D01*
X64971758Y-91922858D01*
X65003000Y-92079925D01*
X65003000Y-92240075D01*
X64971758Y-92397142D01*
X64910470Y-92545102D01*
X64821498Y-92678258D01*
X64708258Y-92791498D01*
X64575102Y-92880470D01*
X64427142Y-92941758D01*
X64270075Y-92973000D01*
X64109925Y-92973000D01*
X63952858Y-92941758D01*
X63804898Y-92880470D01*
X63671742Y-92791498D01*
X63558502Y-92678258D01*
X63469530Y-92545102D01*
X63408242Y-92397142D01*
X63377000Y-92240075D01*
X63377000Y-92079925D01*
X63408242Y-91922858D01*
X63469530Y-91774898D01*
X63514317Y-91707870D01*
X63558501Y-91641743D01*
X63671743Y-91528501D01*
X63737870Y-91484317D01*
X63804898Y-91439530D01*
X63831522Y-91428502D01*
X63838417Y-91425646D01*
X63952858Y-91378242D01*
X64109925Y-91347000D01*
X64270075Y-91347000D01*
X64427142Y-91378242D01*
X64427142Y-91378242D01*
G37*
G36*
X92367142Y-91378242D02*
X92481583Y-91425646D01*
X92488479Y-91428502D01*
X92515102Y-91439530D01*
X92582130Y-91484317D01*
X92648257Y-91528501D01*
X92761499Y-91641743D01*
X92805683Y-91707870D01*
X92850470Y-91774898D01*
X92911758Y-91922858D01*
X92943000Y-92079925D01*
X92943000Y-92240075D01*
X92911758Y-92397142D01*
X92850470Y-92545102D01*
X92761498Y-92678258D01*
X92648258Y-92791498D01*
X92515102Y-92880470D01*
X92367142Y-92941758D01*
X92210075Y-92973000D01*
X92049925Y-92973000D01*
X91892858Y-92941758D01*
X91744898Y-92880470D01*
X91611742Y-92791498D01*
X91498502Y-92678258D01*
X91409530Y-92545102D01*
X91348242Y-92397142D01*
X91317000Y-92240075D01*
X91317000Y-92079925D01*
X91348242Y-91922858D01*
X91409530Y-91774898D01*
X91454317Y-91707870D01*
X91498501Y-91641743D01*
X91611743Y-91528501D01*
X91677870Y-91484317D01*
X91744898Y-91439530D01*
X91771522Y-91428502D01*
X91778417Y-91425646D01*
X91892858Y-91378242D01*
X92049925Y-91347000D01*
X92210075Y-91347000D01*
X92367142Y-91378242D01*
X92367142Y-91378242D01*
G37*
G36*
X100687142Y-91278242D02*
X100835102Y-91339530D01*
X100968258Y-91428502D01*
X101081498Y-91541742D01*
X101170470Y-91674898D01*
X101231758Y-91822858D01*
X101263000Y-91979925D01*
X101263000Y-92140075D01*
X101231758Y-92297142D01*
X101190336Y-92397142D01*
X101170471Y-92445100D01*
X101091975Y-92562579D01*
X101081498Y-92578258D01*
X100968258Y-92691498D01*
X100835102Y-92780470D01*
X100835101Y-92780471D01*
X100835100Y-92780471D01*
X100808476Y-92791499D01*
X100687142Y-92841758D01*
X100530075Y-92873000D01*
X100369925Y-92873000D01*
X100212858Y-92841758D01*
X100091524Y-92791499D01*
X100064900Y-92780471D01*
X100064899Y-92780471D01*
X100064898Y-92780470D01*
X99931742Y-92691498D01*
X99818502Y-92578258D01*
X99808026Y-92562579D01*
X99729529Y-92445100D01*
X99709664Y-92397142D01*
X99668242Y-92297142D01*
X99637000Y-92140075D01*
X99637000Y-91979925D01*
X99668242Y-91822858D01*
X99729530Y-91674898D01*
X99818502Y-91541742D01*
X99931742Y-91428502D01*
X100064898Y-91339530D01*
X100212858Y-91278242D01*
X100369925Y-91247000D01*
X100530075Y-91247000D01*
X100687142Y-91278242D01*
X100687142Y-91278242D01*
G37*
G36*
X126087142Y-91278242D02*
X126235102Y-91339530D01*
X126368258Y-91428502D01*
X126481498Y-91541742D01*
X126570470Y-91674898D01*
X126631758Y-91822858D01*
X126663000Y-91979925D01*
X126663000Y-92140075D01*
X126631758Y-92297142D01*
X126590336Y-92397142D01*
X126570471Y-92445100D01*
X126491975Y-92562579D01*
X126481498Y-92578258D01*
X126368258Y-92691498D01*
X126235102Y-92780470D01*
X126235101Y-92780471D01*
X126235100Y-92780471D01*
X126208476Y-92791499D01*
X126087142Y-92841758D01*
X125930075Y-92873000D01*
X125769925Y-92873000D01*
X125612858Y-92841758D01*
X125491524Y-92791499D01*
X125464900Y-92780471D01*
X125464899Y-92780471D01*
X125464898Y-92780470D01*
X125331742Y-92691498D01*
X125218502Y-92578258D01*
X125208026Y-92562579D01*
X125129529Y-92445100D01*
X125109664Y-92397142D01*
X125068242Y-92297142D01*
X125037000Y-92140075D01*
X125037000Y-91979925D01*
X125068242Y-91822858D01*
X125129530Y-91674898D01*
X125218502Y-91541742D01*
X125331742Y-91428502D01*
X125464898Y-91339530D01*
X125612858Y-91278242D01*
X125769925Y-91247000D01*
X125930075Y-91247000D01*
X126087142Y-91278242D01*
X126087142Y-91278242D01*
G37*
G36*
X123547142Y-91278242D02*
X123695102Y-91339530D01*
X123828258Y-91428502D01*
X123941498Y-91541742D01*
X124030470Y-91674898D01*
X124091758Y-91822858D01*
X124123000Y-91979925D01*
X124123000Y-92140075D01*
X124091758Y-92297142D01*
X124050336Y-92397142D01*
X124030471Y-92445100D01*
X123951975Y-92562579D01*
X123941498Y-92578258D01*
X123828258Y-92691498D01*
X123695102Y-92780470D01*
X123695101Y-92780471D01*
X123695100Y-92780471D01*
X123668476Y-92791499D01*
X123547142Y-92841758D01*
X123390075Y-92873000D01*
X123229925Y-92873000D01*
X123072858Y-92841758D01*
X122951524Y-92791499D01*
X122924900Y-92780471D01*
X122924899Y-92780471D01*
X122924898Y-92780470D01*
X122791742Y-92691498D01*
X122678502Y-92578258D01*
X122668026Y-92562579D01*
X122589529Y-92445100D01*
X122569664Y-92397142D01*
X122528242Y-92297142D01*
X122497000Y-92140075D01*
X122497000Y-91979925D01*
X122528242Y-91822858D01*
X122589530Y-91674898D01*
X122678502Y-91541742D01*
X122791742Y-91428502D01*
X122924898Y-91339530D01*
X123072858Y-91278242D01*
X123229925Y-91247000D01*
X123390075Y-91247000D01*
X123547142Y-91278242D01*
X123547142Y-91278242D01*
G37*
G36*
X98147142Y-91278242D02*
X98295102Y-91339530D01*
X98428258Y-91428502D01*
X98541498Y-91541742D01*
X98630470Y-91674898D01*
X98691758Y-91822858D01*
X98723000Y-91979925D01*
X98723000Y-92140075D01*
X98691758Y-92297142D01*
X98650336Y-92397142D01*
X98630471Y-92445100D01*
X98551975Y-92562579D01*
X98541498Y-92578258D01*
X98428258Y-92691498D01*
X98295102Y-92780470D01*
X98295101Y-92780471D01*
X98295100Y-92780471D01*
X98268476Y-92791499D01*
X98147142Y-92841758D01*
X97990075Y-92873000D01*
X97829925Y-92873000D01*
X97672858Y-92841758D01*
X97551524Y-92791499D01*
X97524900Y-92780471D01*
X97524899Y-92780471D01*
X97524898Y-92780470D01*
X97391742Y-92691498D01*
X97278502Y-92578258D01*
X97268026Y-92562579D01*
X97189529Y-92445100D01*
X97169664Y-92397142D01*
X97128242Y-92297142D01*
X97097000Y-92140075D01*
X97097000Y-91979925D01*
X97128242Y-91822858D01*
X97189530Y-91674898D01*
X97278502Y-91541742D01*
X97391742Y-91428502D01*
X97524898Y-91339530D01*
X97672858Y-91278242D01*
X97829925Y-91247000D01*
X97990075Y-91247000D01*
X98147142Y-91278242D01*
X98147142Y-91278242D01*
G37*
G36*
X95607142Y-91278242D02*
X95755102Y-91339530D01*
X95888258Y-91428502D01*
X96001498Y-91541742D01*
X96090470Y-91674898D01*
X96151758Y-91822858D01*
X96183000Y-91979925D01*
X96183000Y-92140075D01*
X96151758Y-92297142D01*
X96110336Y-92397142D01*
X96090471Y-92445100D01*
X96011975Y-92562579D01*
X96001498Y-92578258D01*
X95888258Y-92691498D01*
X95755102Y-92780470D01*
X95755101Y-92780471D01*
X95755100Y-92780471D01*
X95728476Y-92791499D01*
X95607142Y-92841758D01*
X95450075Y-92873000D01*
X95289925Y-92873000D01*
X95132858Y-92841758D01*
X95011524Y-92791499D01*
X94984900Y-92780471D01*
X94984899Y-92780471D01*
X94984898Y-92780470D01*
X94851742Y-92691498D01*
X94738502Y-92578258D01*
X94728026Y-92562579D01*
X94649529Y-92445100D01*
X94629664Y-92397142D01*
X94588242Y-92297142D01*
X94557000Y-92140075D01*
X94557000Y-91979925D01*
X94588242Y-91822858D01*
X94649530Y-91674898D01*
X94738502Y-91541742D01*
X94851742Y-91428502D01*
X94984898Y-91339530D01*
X95132858Y-91278242D01*
X95289925Y-91247000D01*
X95450075Y-91247000D01*
X95607142Y-91278242D01*
X95607142Y-91278242D01*
G37*
G36*
X84629472Y-89675938D02*
X84757049Y-89728782D01*
X84871865Y-89805500D01*
X84969500Y-89903135D01*
X85046218Y-90017951D01*
X85099062Y-90145528D01*
X85126000Y-90280956D01*
X85126000Y-90419044D01*
X85099062Y-90554472D01*
X85046218Y-90682049D01*
X84969500Y-90796865D01*
X84871865Y-90894500D01*
X84757049Y-90971218D01*
X84629472Y-91024062D01*
X84494044Y-91051000D01*
X84355956Y-91051000D01*
X84220528Y-91024062D01*
X84092951Y-90971218D01*
X83978135Y-90894500D01*
X83880500Y-90796865D01*
X83803782Y-90682049D01*
X83750938Y-90554472D01*
X83724000Y-90419044D01*
X83724000Y-90280956D01*
X83750938Y-90145528D01*
X83803782Y-90017951D01*
X83880500Y-89903135D01*
X83978135Y-89805500D01*
X84092951Y-89728782D01*
X84220528Y-89675938D01*
X84355956Y-89649000D01*
X84494044Y-89649000D01*
X84629472Y-89675938D01*
X84629472Y-89675938D01*
G37*
G36*
X79779472Y-89675938D02*
X79907049Y-89728782D01*
X80021865Y-89805500D01*
X80119500Y-89903135D01*
X80196218Y-90017951D01*
X80249062Y-90145528D01*
X80276000Y-90280956D01*
X80276000Y-90419044D01*
X80249062Y-90554472D01*
X80196218Y-90682049D01*
X80119500Y-90796865D01*
X80021865Y-90894500D01*
X79907049Y-90971218D01*
X79779472Y-91024062D01*
X79644044Y-91051000D01*
X79505956Y-91051000D01*
X79370528Y-91024062D01*
X79242951Y-90971218D01*
X79128135Y-90894500D01*
X79030500Y-90796865D01*
X78953782Y-90682049D01*
X78900938Y-90554472D01*
X78874000Y-90419044D01*
X78874000Y-90280956D01*
X78900938Y-90145528D01*
X78953782Y-90017951D01*
X79030500Y-89903135D01*
X79128135Y-89805500D01*
X79242951Y-89728782D01*
X79370528Y-89675938D01*
X79505956Y-89649000D01*
X79644044Y-89649000D01*
X79779472Y-89675938D01*
X79779472Y-89675938D01*
G37*
G36*
X140610442Y-88685518D02*
X140676627Y-88692037D01*
X140789853Y-88726384D01*
X140846467Y-88743557D01*
X140985087Y-88817652D01*
X141002991Y-88827222D01*
X141038729Y-88856552D01*
X141140186Y-88939814D01*
X141214567Y-89030449D01*
X141252778Y-89077009D01*
X141252779Y-89077011D01*
X141336443Y-89233533D01*
X141336443Y-89233534D01*
X141387963Y-89403373D01*
X141405359Y-89580000D01*
X141387963Y-89756627D01*
X141353616Y-89869853D01*
X141336443Y-89926467D01*
X141262348Y-90065087D01*
X141252778Y-90082991D01*
X141223448Y-90118729D01*
X141140186Y-90220186D01*
X141038729Y-90303448D01*
X141002991Y-90332778D01*
X141002989Y-90332779D01*
X140846467Y-90416443D01*
X140837892Y-90419044D01*
X140676627Y-90467963D01*
X140610442Y-90474482D01*
X140544260Y-90481000D01*
X140455740Y-90481000D01*
X140389558Y-90474482D01*
X140323373Y-90467963D01*
X140162108Y-90419044D01*
X140153533Y-90416443D01*
X139997011Y-90332779D01*
X139997009Y-90332778D01*
X139961271Y-90303448D01*
X139859814Y-90220186D01*
X139776552Y-90118729D01*
X139747222Y-90082991D01*
X139737652Y-90065087D01*
X139663557Y-89926467D01*
X139646384Y-89869853D01*
X139612037Y-89756627D01*
X139594641Y-89580000D01*
X139612037Y-89403373D01*
X139663557Y-89233534D01*
X139663557Y-89233533D01*
X139747221Y-89077011D01*
X139747222Y-89077009D01*
X139785433Y-89030449D01*
X139859814Y-88939814D01*
X139961271Y-88856552D01*
X139997009Y-88827222D01*
X140014913Y-88817652D01*
X140153533Y-88743557D01*
X140210147Y-88726384D01*
X140323373Y-88692037D01*
X140389558Y-88685518D01*
X140455740Y-88679000D01*
X140544260Y-88679000D01*
X140610442Y-88685518D01*
X140610442Y-88685518D01*
G37*
G36*
X143150442Y-88685518D02*
X143216627Y-88692037D01*
X143329853Y-88726384D01*
X143386467Y-88743557D01*
X143525087Y-88817652D01*
X143542991Y-88827222D01*
X143578729Y-88856552D01*
X143680186Y-88939814D01*
X143754567Y-89030449D01*
X143792778Y-89077009D01*
X143792779Y-89077011D01*
X143876443Y-89233533D01*
X143876443Y-89233534D01*
X143927963Y-89403373D01*
X143945359Y-89580000D01*
X143927963Y-89756627D01*
X143893616Y-89869853D01*
X143876443Y-89926467D01*
X143802348Y-90065087D01*
X143792778Y-90082991D01*
X143763448Y-90118729D01*
X143680186Y-90220186D01*
X143578729Y-90303448D01*
X143542991Y-90332778D01*
X143542989Y-90332779D01*
X143386467Y-90416443D01*
X143377892Y-90419044D01*
X143216627Y-90467963D01*
X143150442Y-90474482D01*
X143084260Y-90481000D01*
X142995740Y-90481000D01*
X142929558Y-90474482D01*
X142863373Y-90467963D01*
X142702108Y-90419044D01*
X142693533Y-90416443D01*
X142537011Y-90332779D01*
X142537009Y-90332778D01*
X142501271Y-90303448D01*
X142399814Y-90220186D01*
X142316552Y-90118729D01*
X142287222Y-90082991D01*
X142277652Y-90065087D01*
X142203557Y-89926467D01*
X142186384Y-89869853D01*
X142152037Y-89756627D01*
X142134641Y-89580000D01*
X142152037Y-89403373D01*
X142203557Y-89233534D01*
X142203557Y-89233533D01*
X142287221Y-89077011D01*
X142287222Y-89077009D01*
X142325433Y-89030449D01*
X142399814Y-88939814D01*
X142501271Y-88856552D01*
X142537009Y-88827222D01*
X142554913Y-88817652D01*
X142693533Y-88743557D01*
X142750147Y-88726384D01*
X142863373Y-88692037D01*
X142929558Y-88685518D01*
X142995740Y-88679000D01*
X143084260Y-88679000D01*
X143150442Y-88685518D01*
X143150442Y-88685518D01*
G37*
G36*
X152266242Y-87853404D02*
X152303339Y-87864657D01*
X152337520Y-87882927D01*
X152367482Y-87907518D01*
X152392073Y-87937480D01*
X152410343Y-87971661D01*
X152421596Y-88008758D01*
X152426000Y-88053473D01*
X152426000Y-88946527D01*
X152421596Y-88991242D01*
X152410343Y-89028339D01*
X152392073Y-89062520D01*
X152367482Y-89092482D01*
X152337520Y-89117073D01*
X152303339Y-89135343D01*
X152266242Y-89146596D01*
X152221527Y-89151000D01*
X150778473Y-89151000D01*
X150733758Y-89146596D01*
X150696661Y-89135343D01*
X150662480Y-89117073D01*
X150632518Y-89092482D01*
X150607927Y-89062520D01*
X150589657Y-89028339D01*
X150578404Y-88991242D01*
X150574000Y-88946527D01*
X150574000Y-88053473D01*
X150578404Y-88008758D01*
X150589657Y-87971661D01*
X150607927Y-87937480D01*
X150632518Y-87907518D01*
X150662480Y-87882927D01*
X150696661Y-87864657D01*
X150733758Y-87853404D01*
X150778473Y-87849000D01*
X152221527Y-87849000D01*
X152266242Y-87853404D01*
X152266242Y-87853404D01*
G37*
G36*
X131766242Y-87853404D02*
X131803339Y-87864657D01*
X131837520Y-87882927D01*
X131867482Y-87907518D01*
X131892073Y-87937480D01*
X131910343Y-87971661D01*
X131921596Y-88008758D01*
X131926000Y-88053473D01*
X131926000Y-88946527D01*
X131921596Y-88991242D01*
X131910343Y-89028339D01*
X131892073Y-89062520D01*
X131867482Y-89092482D01*
X131837520Y-89117073D01*
X131803339Y-89135343D01*
X131766242Y-89146596D01*
X131721527Y-89151000D01*
X130278473Y-89151000D01*
X130233758Y-89146596D01*
X130196661Y-89135343D01*
X130162480Y-89117073D01*
X130132518Y-89092482D01*
X130107927Y-89062520D01*
X130089657Y-89028339D01*
X130078404Y-88991242D01*
X130074000Y-88946527D01*
X130074000Y-88053473D01*
X130078404Y-88008758D01*
X130089657Y-87971661D01*
X130107927Y-87937480D01*
X130132518Y-87907518D01*
X130162480Y-87882927D01*
X130196661Y-87864657D01*
X130233758Y-87853404D01*
X130278473Y-87849000D01*
X131721527Y-87849000D01*
X131766242Y-87853404D01*
X131766242Y-87853404D01*
G37*
G36*
X143150442Y-86145518D02*
X143216627Y-86152037D01*
X143329853Y-86186384D01*
X143386467Y-86203557D01*
X143472731Y-86249667D01*
X143542991Y-86287222D01*
X143578729Y-86316552D01*
X143680186Y-86399814D01*
X143762405Y-86500000D01*
X143792778Y-86537009D01*
X143792779Y-86537011D01*
X143876443Y-86693533D01*
X143876443Y-86693534D01*
X143927963Y-86863373D01*
X143945359Y-87040000D01*
X143927963Y-87216627D01*
X143893616Y-87329853D01*
X143876443Y-87386467D01*
X143802348Y-87525087D01*
X143792778Y-87542991D01*
X143763448Y-87578729D01*
X143680186Y-87680186D01*
X143578729Y-87763448D01*
X143542991Y-87792778D01*
X143542989Y-87792779D01*
X143386467Y-87876443D01*
X143329853Y-87893616D01*
X143216627Y-87927963D01*
X143150442Y-87934482D01*
X143084260Y-87941000D01*
X142995740Y-87941000D01*
X142929558Y-87934482D01*
X142863373Y-87927963D01*
X142750147Y-87893616D01*
X142693533Y-87876443D01*
X142537011Y-87792779D01*
X142537009Y-87792778D01*
X142501271Y-87763448D01*
X142399814Y-87680186D01*
X142316552Y-87578729D01*
X142287222Y-87542991D01*
X142277652Y-87525087D01*
X142203557Y-87386467D01*
X142186384Y-87329853D01*
X142152037Y-87216627D01*
X142134641Y-87040000D01*
X142152037Y-86863373D01*
X142203557Y-86693534D01*
X142203557Y-86693533D01*
X142287221Y-86537011D01*
X142287222Y-86537009D01*
X142317595Y-86500000D01*
X142399814Y-86399814D01*
X142501271Y-86316552D01*
X142537009Y-86287222D01*
X142607269Y-86249667D01*
X142693533Y-86203557D01*
X142750147Y-86186384D01*
X142863373Y-86152037D01*
X142929558Y-86145518D01*
X142995740Y-86139000D01*
X143084260Y-86139000D01*
X143150442Y-86145518D01*
X143150442Y-86145518D01*
G37*
G36*
X140610442Y-86145518D02*
X140676627Y-86152037D01*
X140789853Y-86186384D01*
X140846467Y-86203557D01*
X140932731Y-86249667D01*
X141002991Y-86287222D01*
X141038729Y-86316552D01*
X141140186Y-86399814D01*
X141222405Y-86500000D01*
X141252778Y-86537009D01*
X141252779Y-86537011D01*
X141336443Y-86693533D01*
X141336443Y-86693534D01*
X141387963Y-86863373D01*
X141405359Y-87040000D01*
X141387963Y-87216627D01*
X141353616Y-87329853D01*
X141336443Y-87386467D01*
X141262348Y-87525087D01*
X141252778Y-87542991D01*
X141223448Y-87578729D01*
X141140186Y-87680186D01*
X141038729Y-87763448D01*
X141002991Y-87792778D01*
X141002989Y-87792779D01*
X140846467Y-87876443D01*
X140789853Y-87893616D01*
X140676627Y-87927963D01*
X140610442Y-87934482D01*
X140544260Y-87941000D01*
X140455740Y-87941000D01*
X140389558Y-87934482D01*
X140323373Y-87927963D01*
X140210147Y-87893616D01*
X140153533Y-87876443D01*
X139997011Y-87792779D01*
X139997009Y-87792778D01*
X139961271Y-87763448D01*
X139859814Y-87680186D01*
X139776552Y-87578729D01*
X139747222Y-87542991D01*
X139737652Y-87525087D01*
X139663557Y-87386467D01*
X139646384Y-87329853D01*
X139612037Y-87216627D01*
X139594641Y-87040000D01*
X139612037Y-86863373D01*
X139663557Y-86693534D01*
X139663557Y-86693533D01*
X139747221Y-86537011D01*
X139747222Y-86537009D01*
X139777595Y-86500000D01*
X139859814Y-86399814D01*
X139961271Y-86316552D01*
X139997009Y-86287222D01*
X140067269Y-86249667D01*
X140153533Y-86203557D01*
X140210147Y-86186384D01*
X140323373Y-86152037D01*
X140389558Y-86145518D01*
X140455740Y-86139000D01*
X140544260Y-86139000D01*
X140610442Y-86145518D01*
X140610442Y-86145518D01*
G37*
G36*
X131338855Y-85852140D02*
X131402618Y-85858420D01*
X131484427Y-85883237D01*
X131525333Y-85895645D01*
X131625491Y-85949181D01*
X131638426Y-85956095D01*
X131737553Y-86037447D01*
X131818905Y-86136574D01*
X131818906Y-86136576D01*
X131879355Y-86249667D01*
X131879355Y-86249668D01*
X131916580Y-86372382D01*
X131929149Y-86500000D01*
X131916580Y-86627618D01*
X131891763Y-86709427D01*
X131879355Y-86750333D01*
X131825819Y-86850491D01*
X131818905Y-86863426D01*
X131737553Y-86962553D01*
X131638426Y-87043905D01*
X131638424Y-87043906D01*
X131525333Y-87104355D01*
X131484427Y-87116763D01*
X131402618Y-87141580D01*
X131338855Y-87147860D01*
X131306974Y-87151000D01*
X130693026Y-87151000D01*
X130661145Y-87147860D01*
X130597382Y-87141580D01*
X130515573Y-87116763D01*
X130474667Y-87104355D01*
X130361576Y-87043906D01*
X130361574Y-87043905D01*
X130262447Y-86962553D01*
X130181095Y-86863426D01*
X130174181Y-86850491D01*
X130120645Y-86750333D01*
X130108237Y-86709427D01*
X130083420Y-86627618D01*
X130070851Y-86500000D01*
X130083420Y-86372382D01*
X130120645Y-86249668D01*
X130120645Y-86249667D01*
X130181094Y-86136576D01*
X130181095Y-86136574D01*
X130262447Y-86037447D01*
X130361574Y-85956095D01*
X130374509Y-85949181D01*
X130474667Y-85895645D01*
X130515573Y-85883237D01*
X130597382Y-85858420D01*
X130661145Y-85852140D01*
X130693026Y-85849000D01*
X131306974Y-85849000D01*
X131338855Y-85852140D01*
X131338855Y-85852140D01*
G37*
G36*
X151838855Y-85852140D02*
X151902618Y-85858420D01*
X151984427Y-85883237D01*
X152025333Y-85895645D01*
X152125491Y-85949181D01*
X152138426Y-85956095D01*
X152237553Y-86037447D01*
X152318905Y-86136574D01*
X152318906Y-86136576D01*
X152379355Y-86249667D01*
X152379355Y-86249668D01*
X152416580Y-86372382D01*
X152429149Y-86500000D01*
X152416580Y-86627618D01*
X152391763Y-86709427D01*
X152379355Y-86750333D01*
X152325819Y-86850491D01*
X152318905Y-86863426D01*
X152237553Y-86962553D01*
X152138426Y-87043905D01*
X152138424Y-87043906D01*
X152025333Y-87104355D01*
X151984427Y-87116763D01*
X151902618Y-87141580D01*
X151838855Y-87147860D01*
X151806974Y-87151000D01*
X151193026Y-87151000D01*
X151161145Y-87147860D01*
X151097382Y-87141580D01*
X151015573Y-87116763D01*
X150974667Y-87104355D01*
X150861576Y-87043906D01*
X150861574Y-87043905D01*
X150762447Y-86962553D01*
X150681095Y-86863426D01*
X150674181Y-86850491D01*
X150620645Y-86750333D01*
X150608237Y-86709427D01*
X150583420Y-86627618D01*
X150570851Y-86500000D01*
X150583420Y-86372382D01*
X150620645Y-86249668D01*
X150620645Y-86249667D01*
X150681094Y-86136576D01*
X150681095Y-86136574D01*
X150762447Y-86037447D01*
X150861574Y-85956095D01*
X150874509Y-85949181D01*
X150974667Y-85895645D01*
X151015573Y-85883237D01*
X151097382Y-85858420D01*
X151161145Y-85852140D01*
X151193026Y-85849000D01*
X151806974Y-85849000D01*
X151838855Y-85852140D01*
X151838855Y-85852140D01*
G37*
G36*
X141401000Y-85401000D02*
X139599000Y-85401000D01*
X139599000Y-83599000D01*
X141401000Y-83599000D01*
X141401000Y-85401000D01*
X141401000Y-85401000D01*
G37*
G36*
X143150442Y-83605518D02*
X143216627Y-83612037D01*
X143329853Y-83646384D01*
X143386467Y-83663557D01*
X143525087Y-83737652D01*
X143542991Y-83747222D01*
X143578729Y-83776552D01*
X143680186Y-83859814D01*
X143759200Y-83956094D01*
X143792778Y-83997009D01*
X143792779Y-83997011D01*
X143876443Y-84153533D01*
X143876443Y-84153534D01*
X143927963Y-84323373D01*
X143945359Y-84500000D01*
X143927963Y-84676627D01*
X143893616Y-84789853D01*
X143876443Y-84846467D01*
X143867379Y-84863424D01*
X143792778Y-85002991D01*
X143763448Y-85038729D01*
X143680186Y-85140186D01*
X143578729Y-85223448D01*
X143542991Y-85252778D01*
X143542989Y-85252779D01*
X143386467Y-85336443D01*
X143329853Y-85353616D01*
X143216627Y-85387963D01*
X143150443Y-85394481D01*
X143084260Y-85401000D01*
X142995740Y-85401000D01*
X142929557Y-85394481D01*
X142863373Y-85387963D01*
X142750147Y-85353616D01*
X142693533Y-85336443D01*
X142537011Y-85252779D01*
X142537009Y-85252778D01*
X142501271Y-85223448D01*
X142399814Y-85140186D01*
X142316552Y-85038729D01*
X142287222Y-85002991D01*
X142212621Y-84863424D01*
X142203557Y-84846467D01*
X142186384Y-84789853D01*
X142152037Y-84676627D01*
X142134641Y-84500000D01*
X142152037Y-84323373D01*
X142203557Y-84153534D01*
X142203557Y-84153533D01*
X142287221Y-83997011D01*
X142287222Y-83997009D01*
X142320800Y-83956094D01*
X142399814Y-83859814D01*
X142501271Y-83776552D01*
X142537009Y-83747222D01*
X142554913Y-83737652D01*
X142693533Y-83663557D01*
X142750147Y-83646384D01*
X142863373Y-83612037D01*
X142929558Y-83605518D01*
X142995740Y-83599000D01*
X143084260Y-83599000D01*
X143150442Y-83605518D01*
X143150442Y-83605518D01*
G37*
G36*
X151838855Y-83852140D02*
X151902618Y-83858420D01*
X151984427Y-83883237D01*
X152025333Y-83895645D01*
X152125491Y-83949181D01*
X152138426Y-83956095D01*
X152237553Y-84037447D01*
X152318905Y-84136574D01*
X152318906Y-84136576D01*
X152379355Y-84249667D01*
X152379355Y-84249668D01*
X152416580Y-84372382D01*
X152429149Y-84500000D01*
X152416580Y-84627618D01*
X152401714Y-84676625D01*
X152379355Y-84750333D01*
X152327970Y-84846466D01*
X152318905Y-84863426D01*
X152237553Y-84962553D01*
X152138426Y-85043905D01*
X152138424Y-85043906D01*
X152025333Y-85104355D01*
X151984427Y-85116763D01*
X151902618Y-85141580D01*
X151838855Y-85147860D01*
X151806974Y-85151000D01*
X151193026Y-85151000D01*
X151161145Y-85147860D01*
X151097382Y-85141580D01*
X151015573Y-85116763D01*
X150974667Y-85104355D01*
X150861576Y-85043906D01*
X150861574Y-85043905D01*
X150762447Y-84962553D01*
X150681095Y-84863426D01*
X150672030Y-84846466D01*
X150620645Y-84750333D01*
X150598286Y-84676625D01*
X150583420Y-84627618D01*
X150570851Y-84500000D01*
X150583420Y-84372382D01*
X150620645Y-84249668D01*
X150620645Y-84249667D01*
X150681094Y-84136576D01*
X150681095Y-84136574D01*
X150762447Y-84037447D01*
X150861574Y-83956095D01*
X150874509Y-83949181D01*
X150974667Y-83895645D01*
X151015573Y-83883237D01*
X151097382Y-83858420D01*
X151161145Y-83852140D01*
X151193026Y-83849000D01*
X151806974Y-83849000D01*
X151838855Y-83852140D01*
X151838855Y-83852140D01*
G37*
G36*
X151838855Y-81852140D02*
X151902618Y-81858420D01*
X151984427Y-81883237D01*
X152025333Y-81895645D01*
X152125491Y-81949181D01*
X152138426Y-81956095D01*
X152237553Y-82037447D01*
X152318905Y-82136574D01*
X152318906Y-82136576D01*
X152379355Y-82249667D01*
X152379355Y-82249668D01*
X152416580Y-82372382D01*
X152429149Y-82500000D01*
X152416580Y-82627618D01*
X152391763Y-82709427D01*
X152379355Y-82750333D01*
X152325819Y-82850491D01*
X152318905Y-82863426D01*
X152237553Y-82962553D01*
X152138426Y-83043905D01*
X152138424Y-83043906D01*
X152025333Y-83104355D01*
X151984427Y-83116763D01*
X151902618Y-83141580D01*
X151838855Y-83147860D01*
X151806974Y-83151000D01*
X151193026Y-83151000D01*
X151161145Y-83147860D01*
X151097382Y-83141580D01*
X151015573Y-83116763D01*
X150974667Y-83104355D01*
X150861576Y-83043906D01*
X150861574Y-83043905D01*
X150762447Y-82962553D01*
X150681095Y-82863426D01*
X150674181Y-82850491D01*
X150620645Y-82750333D01*
X150608237Y-82709427D01*
X150583420Y-82627618D01*
X150570851Y-82500000D01*
X150583420Y-82372382D01*
X150620645Y-82249668D01*
X150620645Y-82249667D01*
X150681094Y-82136576D01*
X150681095Y-82136574D01*
X150762447Y-82037447D01*
X150861574Y-81956095D01*
X150874509Y-81949181D01*
X150974667Y-81895645D01*
X151015573Y-81883237D01*
X151097382Y-81858420D01*
X151161145Y-81852140D01*
X151193026Y-81849000D01*
X151806974Y-81849000D01*
X151838855Y-81852140D01*
X151838855Y-81852140D01*
G37*
G36*
X151838855Y-79852140D02*
X151902618Y-79858420D01*
X151984427Y-79883237D01*
X152025333Y-79895645D01*
X152125491Y-79949181D01*
X152138426Y-79956095D01*
X152237553Y-80037447D01*
X152318905Y-80136574D01*
X152318906Y-80136576D01*
X152379355Y-80249667D01*
X152379355Y-80249668D01*
X152416580Y-80372382D01*
X152429149Y-80500000D01*
X152416580Y-80627618D01*
X152391763Y-80709427D01*
X152379355Y-80750333D01*
X152325819Y-80850491D01*
X152318905Y-80863426D01*
X152237553Y-80962553D01*
X152138426Y-81043905D01*
X152138424Y-81043906D01*
X152025333Y-81104355D01*
X151984427Y-81116763D01*
X151902618Y-81141580D01*
X151838855Y-81147860D01*
X151806974Y-81151000D01*
X151193026Y-81151000D01*
X151161145Y-81147860D01*
X151097382Y-81141580D01*
X151015573Y-81116763D01*
X150974667Y-81104355D01*
X150861576Y-81043906D01*
X150861574Y-81043905D01*
X150762447Y-80962553D01*
X150681095Y-80863426D01*
X150674181Y-80850491D01*
X150620645Y-80750333D01*
X150608237Y-80709427D01*
X150583420Y-80627618D01*
X150570851Y-80500000D01*
X150583420Y-80372382D01*
X150620645Y-80249668D01*
X150620645Y-80249667D01*
X150681094Y-80136576D01*
X150681095Y-80136574D01*
X150762447Y-80037447D01*
X150861574Y-79956095D01*
X150874509Y-79949181D01*
X150974667Y-79895645D01*
X151015573Y-79883237D01*
X151097382Y-79858420D01*
X151161145Y-79852140D01*
X151193026Y-79849000D01*
X151806974Y-79849000D01*
X151838855Y-79852140D01*
X151838855Y-79852140D01*
G37*
G36*
X145766242Y-76353404D02*
X145803339Y-76364657D01*
X145837520Y-76382927D01*
X145867482Y-76407518D01*
X145892073Y-76437480D01*
X145910343Y-76471661D01*
X145921596Y-76508758D01*
X145926000Y-76553473D01*
X145926000Y-77446527D01*
X145921596Y-77491242D01*
X145910343Y-77528339D01*
X145892073Y-77562520D01*
X145867482Y-77592482D01*
X145837520Y-77617073D01*
X145803339Y-77635343D01*
X145766242Y-77646596D01*
X145721527Y-77651000D01*
X144278473Y-77651000D01*
X144233758Y-77646596D01*
X144196661Y-77635343D01*
X144162480Y-77617073D01*
X144132518Y-77592482D01*
X144107927Y-77562520D01*
X144089657Y-77528339D01*
X144078404Y-77491242D01*
X144074000Y-77446527D01*
X144074000Y-76553473D01*
X144078404Y-76508758D01*
X144089657Y-76471661D01*
X144107927Y-76437480D01*
X144132518Y-76407518D01*
X144162480Y-76382927D01*
X144196661Y-76364657D01*
X144233758Y-76353404D01*
X144278473Y-76349000D01*
X145721527Y-76349000D01*
X145766242Y-76353404D01*
X145766242Y-76353404D01*
G37*
G36*
X131766242Y-75353404D02*
X131803339Y-75364657D01*
X131837520Y-75382927D01*
X131867482Y-75407518D01*
X131892073Y-75437480D01*
X131910343Y-75471661D01*
X131921596Y-75508758D01*
X131926000Y-75553473D01*
X131926000Y-76446527D01*
X131921596Y-76491242D01*
X131910343Y-76528339D01*
X131892073Y-76562520D01*
X131867482Y-76592482D01*
X131837520Y-76617073D01*
X131803339Y-76635343D01*
X131766242Y-76646596D01*
X131721527Y-76651000D01*
X130278473Y-76651000D01*
X130233758Y-76646596D01*
X130196661Y-76635343D01*
X130162480Y-76617073D01*
X130132518Y-76592482D01*
X130107927Y-76562520D01*
X130089657Y-76528339D01*
X130078404Y-76491242D01*
X130074000Y-76446527D01*
X130074000Y-75553473D01*
X130078404Y-75508758D01*
X130089657Y-75471661D01*
X130107927Y-75437480D01*
X130132518Y-75407518D01*
X130162480Y-75382927D01*
X130196661Y-75364657D01*
X130233758Y-75353404D01*
X130278473Y-75349000D01*
X131721527Y-75349000D01*
X131766242Y-75353404D01*
X131766242Y-75353404D01*
G37*
G36*
X152266242Y-74353404D02*
X152303339Y-74364657D01*
X152337520Y-74382927D01*
X152367482Y-74407518D01*
X152392073Y-74437480D01*
X152410343Y-74471661D01*
X152421596Y-74508758D01*
X152426000Y-74553473D01*
X152426000Y-75446527D01*
X152421596Y-75491242D01*
X152410343Y-75528339D01*
X152392073Y-75562520D01*
X152367482Y-75592482D01*
X152337520Y-75617073D01*
X152303339Y-75635343D01*
X152266242Y-75646596D01*
X152221527Y-75651000D01*
X150778473Y-75651000D01*
X150733758Y-75646596D01*
X150696661Y-75635343D01*
X150662480Y-75617073D01*
X150632518Y-75592482D01*
X150607927Y-75562520D01*
X150589657Y-75528339D01*
X150578404Y-75491242D01*
X150574000Y-75446527D01*
X150574000Y-74553473D01*
X150578404Y-74508758D01*
X150589657Y-74471661D01*
X150607927Y-74437480D01*
X150632518Y-74407518D01*
X150662480Y-74382927D01*
X150696661Y-74364657D01*
X150733758Y-74353404D01*
X150778473Y-74349000D01*
X152221527Y-74349000D01*
X152266242Y-74353404D01*
X152266242Y-74353404D01*
G37*
G36*
X145338855Y-74352140D02*
X145402618Y-74358420D01*
X145484427Y-74383237D01*
X145525333Y-74395645D01*
X145603600Y-74437480D01*
X145638426Y-74456095D01*
X145737553Y-74537447D01*
X145818905Y-74636574D01*
X145818906Y-74636576D01*
X145879355Y-74749667D01*
X145879355Y-74749668D01*
X145916580Y-74872382D01*
X145929149Y-75000000D01*
X145916580Y-75127618D01*
X145891763Y-75209427D01*
X145879355Y-75250333D01*
X145826616Y-75349000D01*
X145818905Y-75363426D01*
X145737553Y-75462553D01*
X145638426Y-75543905D01*
X145638424Y-75543906D01*
X145525333Y-75604355D01*
X145484427Y-75616763D01*
X145402618Y-75641580D01*
X145338855Y-75647860D01*
X145306974Y-75651000D01*
X144693026Y-75651000D01*
X144661145Y-75647860D01*
X144597382Y-75641580D01*
X144515573Y-75616763D01*
X144474667Y-75604355D01*
X144361576Y-75543906D01*
X144361574Y-75543905D01*
X144262447Y-75462553D01*
X144181095Y-75363426D01*
X144173384Y-75349000D01*
X144120645Y-75250333D01*
X144108237Y-75209427D01*
X144083420Y-75127618D01*
X144070851Y-75000000D01*
X144083420Y-74872382D01*
X144120645Y-74749668D01*
X144120645Y-74749667D01*
X144181094Y-74636576D01*
X144181095Y-74636574D01*
X144262447Y-74537447D01*
X144361574Y-74456095D01*
X144396400Y-74437480D01*
X144474667Y-74395645D01*
X144515573Y-74383237D01*
X144597382Y-74358420D01*
X144661145Y-74352140D01*
X144693026Y-74349000D01*
X145306974Y-74349000D01*
X145338855Y-74352140D01*
X145338855Y-74352140D01*
G37*
G36*
X131338855Y-73352140D02*
X131402618Y-73358420D01*
X131484427Y-73383237D01*
X131525333Y-73395645D01*
X131625491Y-73449181D01*
X131638426Y-73456095D01*
X131737553Y-73537447D01*
X131818905Y-73636574D01*
X131818906Y-73636576D01*
X131879355Y-73749667D01*
X131879355Y-73749668D01*
X131916580Y-73872382D01*
X131929149Y-74000000D01*
X131916580Y-74127618D01*
X131891763Y-74209427D01*
X131879355Y-74250333D01*
X131826616Y-74349000D01*
X131818905Y-74363426D01*
X131737553Y-74462553D01*
X131638426Y-74543905D01*
X131638424Y-74543906D01*
X131525333Y-74604355D01*
X131484427Y-74616763D01*
X131402618Y-74641580D01*
X131338855Y-74647860D01*
X131306974Y-74651000D01*
X130693026Y-74651000D01*
X130661145Y-74647860D01*
X130597382Y-74641580D01*
X130515573Y-74616763D01*
X130474667Y-74604355D01*
X130361576Y-74543906D01*
X130361574Y-74543905D01*
X130262447Y-74462553D01*
X130181095Y-74363426D01*
X130173384Y-74349000D01*
X130120645Y-74250333D01*
X130108237Y-74209427D01*
X130083420Y-74127618D01*
X130070851Y-74000000D01*
X130083420Y-73872382D01*
X130120645Y-73749668D01*
X130120645Y-73749667D01*
X130181094Y-73636576D01*
X130181095Y-73636574D01*
X130262447Y-73537447D01*
X130361574Y-73456095D01*
X130374509Y-73449181D01*
X130474667Y-73395645D01*
X130515573Y-73383237D01*
X130597382Y-73358420D01*
X130661145Y-73352140D01*
X130693026Y-73349000D01*
X131306974Y-73349000D01*
X131338855Y-73352140D01*
X131338855Y-73352140D01*
G37*
G36*
X151838855Y-72352140D02*
X151902618Y-72358420D01*
X151984427Y-72383237D01*
X152025333Y-72395645D01*
X152125491Y-72449181D01*
X152138426Y-72456095D01*
X152237553Y-72537447D01*
X152318905Y-72636574D01*
X152318906Y-72636576D01*
X152379355Y-72749667D01*
X152379355Y-72749668D01*
X152416580Y-72872382D01*
X152429149Y-73000000D01*
X152416580Y-73127618D01*
X152391763Y-73209427D01*
X152379355Y-73250333D01*
X152326616Y-73349000D01*
X152318905Y-73363426D01*
X152237553Y-73462553D01*
X152138426Y-73543905D01*
X152138424Y-73543906D01*
X152025333Y-73604355D01*
X151984427Y-73616763D01*
X151902618Y-73641580D01*
X151838855Y-73647860D01*
X151806974Y-73651000D01*
X151193026Y-73651000D01*
X151161145Y-73647860D01*
X151097382Y-73641580D01*
X151015573Y-73616763D01*
X150974667Y-73604355D01*
X150861576Y-73543906D01*
X150861574Y-73543905D01*
X150762447Y-73462553D01*
X150681095Y-73363426D01*
X150673384Y-73349000D01*
X150620645Y-73250333D01*
X150608237Y-73209427D01*
X150583420Y-73127618D01*
X150570851Y-73000000D01*
X150583420Y-72872382D01*
X150620645Y-72749668D01*
X150620645Y-72749667D01*
X150681094Y-72636576D01*
X150681095Y-72636574D01*
X150762447Y-72537447D01*
X150861574Y-72456095D01*
X150874509Y-72449181D01*
X150974667Y-72395645D01*
X151015573Y-72383237D01*
X151097382Y-72358420D01*
X151161145Y-72352140D01*
X151193026Y-72349000D01*
X151806974Y-72349000D01*
X151838855Y-72352140D01*
X151838855Y-72352140D01*
G37*
G36*
X131338855Y-71352140D02*
X131402618Y-71358420D01*
X131484427Y-71383237D01*
X131525333Y-71395645D01*
X131625491Y-71449181D01*
X131638426Y-71456095D01*
X131737553Y-71537447D01*
X131818905Y-71636574D01*
X131818906Y-71636576D01*
X131879355Y-71749667D01*
X131879355Y-71749668D01*
X131916580Y-71872382D01*
X131929149Y-72000000D01*
X131916580Y-72127618D01*
X131891763Y-72209427D01*
X131879355Y-72250333D01*
X131826616Y-72349000D01*
X131818905Y-72363426D01*
X131737553Y-72462553D01*
X131638426Y-72543905D01*
X131638424Y-72543906D01*
X131525333Y-72604355D01*
X131484427Y-72616763D01*
X131402618Y-72641580D01*
X131338855Y-72647860D01*
X131306974Y-72651000D01*
X130693026Y-72651000D01*
X130661145Y-72647860D01*
X130597382Y-72641580D01*
X130515573Y-72616763D01*
X130474667Y-72604355D01*
X130361576Y-72543906D01*
X130361574Y-72543905D01*
X130262447Y-72462553D01*
X130181095Y-72363426D01*
X130173384Y-72349000D01*
X130120645Y-72250333D01*
X130108237Y-72209427D01*
X130083420Y-72127618D01*
X130070851Y-72000000D01*
X130083420Y-71872382D01*
X130120645Y-71749668D01*
X130120645Y-71749667D01*
X130181094Y-71636576D01*
X130181095Y-71636574D01*
X130262447Y-71537447D01*
X130361574Y-71456095D01*
X130374509Y-71449181D01*
X130474667Y-71395645D01*
X130515573Y-71383237D01*
X130597382Y-71358420D01*
X130661145Y-71352140D01*
X130693026Y-71349000D01*
X131306974Y-71349000D01*
X131338855Y-71352140D01*
X131338855Y-71352140D01*
G37*
G36*
X151838855Y-70352140D02*
X151902618Y-70358420D01*
X151984427Y-70383237D01*
X152025333Y-70395645D01*
X152125491Y-70449181D01*
X152138426Y-70456095D01*
X152237553Y-70537447D01*
X152318905Y-70636574D01*
X152318906Y-70636576D01*
X152379355Y-70749667D01*
X152379355Y-70749668D01*
X152416580Y-70872382D01*
X152429149Y-71000000D01*
X152416580Y-71127618D01*
X152391763Y-71209427D01*
X152379355Y-71250333D01*
X152326616Y-71349000D01*
X152318905Y-71363426D01*
X152237553Y-71462553D01*
X152138426Y-71543905D01*
X152138424Y-71543906D01*
X152025333Y-71604355D01*
X151984427Y-71616763D01*
X151902618Y-71641580D01*
X151838855Y-71647860D01*
X151806974Y-71651000D01*
X151193026Y-71651000D01*
X151161145Y-71647860D01*
X151097382Y-71641580D01*
X151015573Y-71616763D01*
X150974667Y-71604355D01*
X150861576Y-71543906D01*
X150861574Y-71543905D01*
X150762447Y-71462553D01*
X150681095Y-71363426D01*
X150673384Y-71349000D01*
X150620645Y-71250333D01*
X150608237Y-71209427D01*
X150583420Y-71127618D01*
X150570851Y-71000000D01*
X150583420Y-70872382D01*
X150620645Y-70749668D01*
X150620645Y-70749667D01*
X150681094Y-70636576D01*
X150681095Y-70636574D01*
X150762447Y-70537447D01*
X150861574Y-70456095D01*
X150874509Y-70449181D01*
X150974667Y-70395645D01*
X151015573Y-70383237D01*
X151097382Y-70358420D01*
X151161145Y-70352140D01*
X151193026Y-70349000D01*
X151806974Y-70349000D01*
X151838855Y-70352140D01*
X151838855Y-70352140D01*
G37*
G36*
X63117142Y-69218242D02*
X63265102Y-69279530D01*
X63332130Y-69324317D01*
X63398257Y-69368501D01*
X63511499Y-69481743D01*
X63600471Y-69614900D01*
X63611522Y-69641580D01*
X63661758Y-69762858D01*
X63693000Y-69919925D01*
X63693000Y-70080075D01*
X63661758Y-70237142D01*
X63656294Y-70250332D01*
X63600471Y-70385100D01*
X63511499Y-70518257D01*
X63398257Y-70631499D01*
X63369071Y-70651000D01*
X63265102Y-70720470D01*
X63117142Y-70781758D01*
X62960075Y-70813000D01*
X62799925Y-70813000D01*
X62642858Y-70781758D01*
X62494898Y-70720470D01*
X62390929Y-70651000D01*
X62361743Y-70631499D01*
X62248501Y-70518257D01*
X62159529Y-70385100D01*
X62103706Y-70250332D01*
X62098242Y-70237142D01*
X62067000Y-70080075D01*
X62067000Y-69919925D01*
X62098242Y-69762858D01*
X62148478Y-69641580D01*
X62159529Y-69614900D01*
X62248501Y-69481743D01*
X62361743Y-69368501D01*
X62427870Y-69324317D01*
X62494898Y-69279530D01*
X62642858Y-69218242D01*
X62799925Y-69187000D01*
X62960075Y-69187000D01*
X63117142Y-69218242D01*
X63117142Y-69218242D01*
G37*
G36*
X80897142Y-69218242D02*
X81045102Y-69279530D01*
X81112130Y-69324317D01*
X81178257Y-69368501D01*
X81291499Y-69481743D01*
X81380471Y-69614900D01*
X81391522Y-69641580D01*
X81441758Y-69762858D01*
X81473000Y-69919925D01*
X81473000Y-70080075D01*
X81441758Y-70237142D01*
X81436294Y-70250332D01*
X81380471Y-70385100D01*
X81291499Y-70518257D01*
X81178257Y-70631499D01*
X81149071Y-70651000D01*
X81045102Y-70720470D01*
X80897142Y-70781758D01*
X80740075Y-70813000D01*
X80579925Y-70813000D01*
X80422858Y-70781758D01*
X80274898Y-70720470D01*
X80170929Y-70651000D01*
X80141743Y-70631499D01*
X80028501Y-70518257D01*
X79939529Y-70385100D01*
X79883706Y-70250332D01*
X79878242Y-70237142D01*
X79847000Y-70080075D01*
X79847000Y-69919925D01*
X79878242Y-69762858D01*
X79928478Y-69641580D01*
X79939529Y-69614900D01*
X80028501Y-69481743D01*
X80141743Y-69368501D01*
X80207870Y-69324317D01*
X80274898Y-69279530D01*
X80422858Y-69218242D01*
X80579925Y-69187000D01*
X80740075Y-69187000D01*
X80897142Y-69218242D01*
X80897142Y-69218242D01*
G37*
G36*
X78357142Y-69218242D02*
X78505102Y-69279530D01*
X78572130Y-69324317D01*
X78638257Y-69368501D01*
X78751499Y-69481743D01*
X78840471Y-69614900D01*
X78851522Y-69641580D01*
X78901758Y-69762858D01*
X78933000Y-69919925D01*
X78933000Y-70080075D01*
X78901758Y-70237142D01*
X78896294Y-70250332D01*
X78840471Y-70385100D01*
X78751499Y-70518257D01*
X78638257Y-70631499D01*
X78609071Y-70651000D01*
X78505102Y-70720470D01*
X78357142Y-70781758D01*
X78200075Y-70813000D01*
X78039925Y-70813000D01*
X77882858Y-70781758D01*
X77734898Y-70720470D01*
X77630929Y-70651000D01*
X77601743Y-70631499D01*
X77488501Y-70518257D01*
X77399529Y-70385100D01*
X77343706Y-70250332D01*
X77338242Y-70237142D01*
X77307000Y-70080075D01*
X77307000Y-69919925D01*
X77338242Y-69762858D01*
X77388478Y-69641580D01*
X77399529Y-69614900D01*
X77488501Y-69481743D01*
X77601743Y-69368501D01*
X77667870Y-69324317D01*
X77734898Y-69279530D01*
X77882858Y-69218242D01*
X78039925Y-69187000D01*
X78200075Y-69187000D01*
X78357142Y-69218242D01*
X78357142Y-69218242D01*
G37*
G36*
X75817142Y-69218242D02*
X75965102Y-69279530D01*
X76032130Y-69324317D01*
X76098257Y-69368501D01*
X76211499Y-69481743D01*
X76300471Y-69614900D01*
X76311522Y-69641580D01*
X76361758Y-69762858D01*
X76393000Y-69919925D01*
X76393000Y-70080075D01*
X76361758Y-70237142D01*
X76356294Y-70250332D01*
X76300471Y-70385100D01*
X76211499Y-70518257D01*
X76098257Y-70631499D01*
X76069071Y-70651000D01*
X75965102Y-70720470D01*
X75817142Y-70781758D01*
X75660075Y-70813000D01*
X75499925Y-70813000D01*
X75342858Y-70781758D01*
X75194898Y-70720470D01*
X75090929Y-70651000D01*
X75061743Y-70631499D01*
X74948501Y-70518257D01*
X74859529Y-70385100D01*
X74803706Y-70250332D01*
X74798242Y-70237142D01*
X74767000Y-70080075D01*
X74767000Y-69919925D01*
X74798242Y-69762858D01*
X74848478Y-69641580D01*
X74859529Y-69614900D01*
X74948501Y-69481743D01*
X75061743Y-69368501D01*
X75127870Y-69324317D01*
X75194898Y-69279530D01*
X75342858Y-69218242D01*
X75499925Y-69187000D01*
X75660075Y-69187000D01*
X75817142Y-69218242D01*
X75817142Y-69218242D01*
G37*
G36*
X73277142Y-69218242D02*
X73425102Y-69279530D01*
X73492130Y-69324317D01*
X73558257Y-69368501D01*
X73671499Y-69481743D01*
X73760471Y-69614900D01*
X73771522Y-69641580D01*
X73821758Y-69762858D01*
X73853000Y-69919925D01*
X73853000Y-70080075D01*
X73821758Y-70237142D01*
X73816294Y-70250332D01*
X73760471Y-70385100D01*
X73671499Y-70518257D01*
X73558257Y-70631499D01*
X73529071Y-70651000D01*
X73425102Y-70720470D01*
X73277142Y-70781758D01*
X73120075Y-70813000D01*
X72959925Y-70813000D01*
X72802858Y-70781758D01*
X72654898Y-70720470D01*
X72550929Y-70651000D01*
X72521743Y-70631499D01*
X72408501Y-70518257D01*
X72319529Y-70385100D01*
X72263706Y-70250332D01*
X72258242Y-70237142D01*
X72227000Y-70080075D01*
X72227000Y-69919925D01*
X72258242Y-69762858D01*
X72308478Y-69641580D01*
X72319529Y-69614900D01*
X72408501Y-69481743D01*
X72521743Y-69368501D01*
X72587870Y-69324317D01*
X72654898Y-69279530D01*
X72802858Y-69218242D01*
X72959925Y-69187000D01*
X73120075Y-69187000D01*
X73277142Y-69218242D01*
X73277142Y-69218242D01*
G37*
G36*
X70737142Y-69218242D02*
X70885102Y-69279530D01*
X70952130Y-69324317D01*
X71018257Y-69368501D01*
X71131499Y-69481743D01*
X71220471Y-69614900D01*
X71231522Y-69641580D01*
X71281758Y-69762858D01*
X71313000Y-69919925D01*
X71313000Y-70080075D01*
X71281758Y-70237142D01*
X71276294Y-70250332D01*
X71220471Y-70385100D01*
X71131499Y-70518257D01*
X71018257Y-70631499D01*
X70989071Y-70651000D01*
X70885102Y-70720470D01*
X70737142Y-70781758D01*
X70580075Y-70813000D01*
X70419925Y-70813000D01*
X70262858Y-70781758D01*
X70114898Y-70720470D01*
X70010929Y-70651000D01*
X69981743Y-70631499D01*
X69868501Y-70518257D01*
X69779529Y-70385100D01*
X69723706Y-70250332D01*
X69718242Y-70237142D01*
X69687000Y-70080075D01*
X69687000Y-69919925D01*
X69718242Y-69762858D01*
X69768478Y-69641580D01*
X69779529Y-69614900D01*
X69868501Y-69481743D01*
X69981743Y-69368501D01*
X70047870Y-69324317D01*
X70114898Y-69279530D01*
X70262858Y-69218242D01*
X70419925Y-69187000D01*
X70580075Y-69187000D01*
X70737142Y-69218242D01*
X70737142Y-69218242D01*
G37*
G36*
X68197142Y-69218242D02*
X68345102Y-69279530D01*
X68412130Y-69324317D01*
X68478257Y-69368501D01*
X68591499Y-69481743D01*
X68680471Y-69614900D01*
X68691522Y-69641580D01*
X68741758Y-69762858D01*
X68773000Y-69919925D01*
X68773000Y-70080075D01*
X68741758Y-70237142D01*
X68736294Y-70250332D01*
X68680471Y-70385100D01*
X68591499Y-70518257D01*
X68478257Y-70631499D01*
X68449071Y-70651000D01*
X68345102Y-70720470D01*
X68197142Y-70781758D01*
X68040075Y-70813000D01*
X67879925Y-70813000D01*
X67722858Y-70781758D01*
X67574898Y-70720470D01*
X67470929Y-70651000D01*
X67441743Y-70631499D01*
X67328501Y-70518257D01*
X67239529Y-70385100D01*
X67183706Y-70250332D01*
X67178242Y-70237142D01*
X67147000Y-70080075D01*
X67147000Y-69919925D01*
X67178242Y-69762858D01*
X67228478Y-69641580D01*
X67239529Y-69614900D01*
X67328501Y-69481743D01*
X67441743Y-69368501D01*
X67507870Y-69324317D01*
X67574898Y-69279530D01*
X67722858Y-69218242D01*
X67879925Y-69187000D01*
X68040075Y-69187000D01*
X68197142Y-69218242D01*
X68197142Y-69218242D01*
G37*
G36*
X65657142Y-69218242D02*
X65805102Y-69279530D01*
X65872130Y-69324317D01*
X65938257Y-69368501D01*
X66051499Y-69481743D01*
X66140471Y-69614900D01*
X66151522Y-69641580D01*
X66201758Y-69762858D01*
X66233000Y-69919925D01*
X66233000Y-70080075D01*
X66201758Y-70237142D01*
X66196294Y-70250332D01*
X66140471Y-70385100D01*
X66051499Y-70518257D01*
X65938257Y-70631499D01*
X65909071Y-70651000D01*
X65805102Y-70720470D01*
X65657142Y-70781758D01*
X65500075Y-70813000D01*
X65339925Y-70813000D01*
X65182858Y-70781758D01*
X65034898Y-70720470D01*
X64930929Y-70651000D01*
X64901743Y-70631499D01*
X64788501Y-70518257D01*
X64699529Y-70385100D01*
X64643706Y-70250332D01*
X64638242Y-70237142D01*
X64607000Y-70080075D01*
X64607000Y-69919925D01*
X64638242Y-69762858D01*
X64688478Y-69641580D01*
X64699529Y-69614900D01*
X64788501Y-69481743D01*
X64901743Y-69368501D01*
X64967870Y-69324317D01*
X65034898Y-69279530D01*
X65182858Y-69218242D01*
X65339925Y-69187000D01*
X65500075Y-69187000D01*
X65657142Y-69218242D01*
X65657142Y-69218242D01*
G37*
G36*
X131338855Y-69352140D02*
X131402618Y-69358420D01*
X131484427Y-69383237D01*
X131525333Y-69395645D01*
X131625491Y-69449181D01*
X131638426Y-69456095D01*
X131737553Y-69537447D01*
X131818905Y-69636574D01*
X131818906Y-69636576D01*
X131879355Y-69749667D01*
X131879355Y-69749668D01*
X131916580Y-69872382D01*
X131929149Y-70000000D01*
X131916580Y-70127618D01*
X131891763Y-70209427D01*
X131879355Y-70250333D01*
X131826616Y-70349000D01*
X131818905Y-70363426D01*
X131737553Y-70462553D01*
X131638426Y-70543905D01*
X131638424Y-70543906D01*
X131525333Y-70604355D01*
X131484427Y-70616763D01*
X131402618Y-70641580D01*
X131338855Y-70647860D01*
X131306974Y-70651000D01*
X130693026Y-70651000D01*
X130661145Y-70647860D01*
X130597382Y-70641580D01*
X130515573Y-70616763D01*
X130474667Y-70604355D01*
X130361576Y-70543906D01*
X130361574Y-70543905D01*
X130262447Y-70462553D01*
X130181095Y-70363426D01*
X130173384Y-70349000D01*
X130120645Y-70250333D01*
X130108237Y-70209427D01*
X130083420Y-70127618D01*
X130070851Y-70000000D01*
X130083420Y-69872382D01*
X130120645Y-69749668D01*
X130120645Y-69749667D01*
X130181094Y-69636576D01*
X130181095Y-69636574D01*
X130262447Y-69537447D01*
X130361574Y-69456095D01*
X130374509Y-69449181D01*
X130474667Y-69395645D01*
X130515573Y-69383237D01*
X130597382Y-69358420D01*
X130661145Y-69352140D01*
X130693026Y-69349000D01*
X131306974Y-69349000D01*
X131338855Y-69352140D01*
X131338855Y-69352140D01*
G37*
G36*
X151838855Y-68352140D02*
X151902618Y-68358420D01*
X151984427Y-68383237D01*
X152025333Y-68395645D01*
X152125491Y-68449181D01*
X152138426Y-68456095D01*
X152237553Y-68537447D01*
X152318905Y-68636574D01*
X152318906Y-68636576D01*
X152379355Y-68749667D01*
X152379355Y-68749668D01*
X152416580Y-68872382D01*
X152429149Y-69000000D01*
X152416580Y-69127618D01*
X152391763Y-69209427D01*
X152379355Y-69250333D01*
X152326616Y-69349000D01*
X152318905Y-69363426D01*
X152237553Y-69462553D01*
X152138426Y-69543905D01*
X152138424Y-69543906D01*
X152025333Y-69604355D01*
X151990570Y-69614900D01*
X151902618Y-69641580D01*
X151838855Y-69647860D01*
X151806974Y-69651000D01*
X151193026Y-69651000D01*
X151161145Y-69647860D01*
X151097382Y-69641580D01*
X151009430Y-69614900D01*
X150974667Y-69604355D01*
X150861576Y-69543906D01*
X150861574Y-69543905D01*
X150762447Y-69462553D01*
X150681095Y-69363426D01*
X150673384Y-69349000D01*
X150620645Y-69250333D01*
X150608237Y-69209427D01*
X150583420Y-69127618D01*
X150570851Y-69000000D01*
X150583420Y-68872382D01*
X150620645Y-68749668D01*
X150620645Y-68749667D01*
X150681094Y-68636576D01*
X150681095Y-68636574D01*
X150762447Y-68537447D01*
X150861574Y-68456095D01*
X150874509Y-68449181D01*
X150974667Y-68395645D01*
X151015573Y-68383237D01*
X151097382Y-68358420D01*
X151161145Y-68352140D01*
X151193026Y-68349000D01*
X151806974Y-68349000D01*
X151838855Y-68352140D01*
X151838855Y-68352140D01*
G37*
G36*
X145766242Y-67853404D02*
X145803339Y-67864657D01*
X145837520Y-67882927D01*
X145867482Y-67907518D01*
X145892073Y-67937480D01*
X145910343Y-67971661D01*
X145921596Y-68008758D01*
X145926000Y-68053473D01*
X145926000Y-68946527D01*
X145921596Y-68991242D01*
X145910343Y-69028339D01*
X145892073Y-69062520D01*
X145867482Y-69092482D01*
X145837520Y-69117073D01*
X145803339Y-69135343D01*
X145766242Y-69146596D01*
X145721527Y-69151000D01*
X144278473Y-69151000D01*
X144233758Y-69146596D01*
X144196661Y-69135343D01*
X144162480Y-69117073D01*
X144132518Y-69092482D01*
X144107927Y-69062520D01*
X144089657Y-69028339D01*
X144078404Y-68991242D01*
X144074000Y-68946527D01*
X144074000Y-68053473D01*
X144078404Y-68008758D01*
X144089657Y-67971661D01*
X144107927Y-67937480D01*
X144132518Y-67907518D01*
X144162480Y-67882927D01*
X144196661Y-67864657D01*
X144233758Y-67853404D01*
X144278473Y-67849000D01*
X145721527Y-67849000D01*
X145766242Y-67853404D01*
X145766242Y-67853404D01*
G37*
G36*
X151838855Y-66352140D02*
X151902618Y-66358420D01*
X151984427Y-66383237D01*
X152025333Y-66395645D01*
X152094599Y-66432669D01*
X152138426Y-66456095D01*
X152237553Y-66537447D01*
X152318905Y-66636574D01*
X152318906Y-66636576D01*
X152379355Y-66749667D01*
X152379557Y-66750333D01*
X152416580Y-66872382D01*
X152429149Y-67000000D01*
X152416580Y-67127618D01*
X152409487Y-67151000D01*
X152379355Y-67250333D01*
X152325819Y-67350491D01*
X152318905Y-67363426D01*
X152237553Y-67462553D01*
X152138426Y-67543905D01*
X152138424Y-67543906D01*
X152025333Y-67604355D01*
X151984427Y-67616763D01*
X151902618Y-67641580D01*
X151838855Y-67647860D01*
X151806974Y-67651000D01*
X151193026Y-67651000D01*
X151161145Y-67647860D01*
X151097382Y-67641580D01*
X151015573Y-67616763D01*
X150974667Y-67604355D01*
X150861576Y-67543906D01*
X150861574Y-67543905D01*
X150762447Y-67462553D01*
X150681095Y-67363426D01*
X150674181Y-67350491D01*
X150620645Y-67250333D01*
X150590513Y-67151000D01*
X150583420Y-67127618D01*
X150570851Y-67000000D01*
X150583420Y-66872382D01*
X150620443Y-66750333D01*
X150620645Y-66749667D01*
X150681094Y-66636576D01*
X150681095Y-66636574D01*
X150762447Y-66537447D01*
X150861574Y-66456095D01*
X150905401Y-66432669D01*
X150974667Y-66395645D01*
X151015573Y-66383237D01*
X151097382Y-66358420D01*
X151161145Y-66352140D01*
X151193026Y-66349000D01*
X151806974Y-66349000D01*
X151838855Y-66352140D01*
X151838855Y-66352140D01*
G37*
G36*
X145338855Y-65852140D02*
X145402618Y-65858420D01*
X145484427Y-65883237D01*
X145525333Y-65895645D01*
X145625491Y-65949181D01*
X145638426Y-65956095D01*
X145737553Y-66037447D01*
X145818905Y-66136574D01*
X145818906Y-66136576D01*
X145879355Y-66249667D01*
X145879355Y-66249668D01*
X145916580Y-66372382D01*
X145929149Y-66500000D01*
X145916580Y-66627618D01*
X145911068Y-66645788D01*
X145879355Y-66750333D01*
X145825819Y-66850491D01*
X145818905Y-66863426D01*
X145737553Y-66962553D01*
X145638426Y-67043905D01*
X145638424Y-67043906D01*
X145525333Y-67104355D01*
X145484427Y-67116763D01*
X145402618Y-67141580D01*
X145338855Y-67147860D01*
X145306974Y-67151000D01*
X144693026Y-67151000D01*
X144661145Y-67147860D01*
X144597382Y-67141580D01*
X144515573Y-67116763D01*
X144474667Y-67104355D01*
X144361576Y-67043906D01*
X144361574Y-67043905D01*
X144262447Y-66962553D01*
X144181095Y-66863426D01*
X144174181Y-66850491D01*
X144120645Y-66750333D01*
X144088932Y-66645788D01*
X144083420Y-66627618D01*
X144070851Y-66500000D01*
X144083420Y-66372382D01*
X144120645Y-66249668D01*
X144120645Y-66249667D01*
X144181094Y-66136576D01*
X144181095Y-66136574D01*
X144262447Y-66037447D01*
X144361574Y-65956095D01*
X144374509Y-65949181D01*
X144474667Y-65895645D01*
X144515573Y-65883237D01*
X144597382Y-65858420D01*
X144661145Y-65852140D01*
X144693026Y-65849000D01*
X145306974Y-65849000D01*
X145338855Y-65852140D01*
X145338855Y-65852140D01*
G37*
G36*
X138766242Y-65353404D02*
X138803339Y-65364657D01*
X138837520Y-65382927D01*
X138867482Y-65407518D01*
X138892073Y-65437480D01*
X138910343Y-65471661D01*
X138921596Y-65508758D01*
X138926000Y-65553473D01*
X138926000Y-66446527D01*
X138921596Y-66491242D01*
X138910343Y-66528339D01*
X138892073Y-66562520D01*
X138867482Y-66592482D01*
X138837520Y-66617073D01*
X138803339Y-66635343D01*
X138766242Y-66646596D01*
X138721527Y-66651000D01*
X137278473Y-66651000D01*
X137233758Y-66646596D01*
X137196661Y-66635343D01*
X137162480Y-66617073D01*
X137132518Y-66592482D01*
X137107927Y-66562520D01*
X137089657Y-66528339D01*
X137078404Y-66491242D01*
X137074000Y-66446527D01*
X137074000Y-65553473D01*
X137078404Y-65508758D01*
X137089657Y-65471661D01*
X137107927Y-65437480D01*
X137132518Y-65407518D01*
X137162480Y-65382927D01*
X137196661Y-65364657D01*
X137233758Y-65353404D01*
X137278473Y-65349000D01*
X138721527Y-65349000D01*
X138766242Y-65353404D01*
X138766242Y-65353404D01*
G37*
G36*
X151838855Y-64352140D02*
X151902618Y-64358420D01*
X151984427Y-64383237D01*
X152025333Y-64395645D01*
X152094599Y-64432669D01*
X152138426Y-64456095D01*
X152237553Y-64537447D01*
X152318905Y-64636574D01*
X152318906Y-64636576D01*
X152379355Y-64749667D01*
X152379355Y-64749668D01*
X152416580Y-64872382D01*
X152429149Y-65000000D01*
X152416580Y-65127618D01*
X152391763Y-65209427D01*
X152379355Y-65250333D01*
X152326616Y-65349000D01*
X152318905Y-65363426D01*
X152237553Y-65462553D01*
X152138426Y-65543905D01*
X152138424Y-65543906D01*
X152025333Y-65604355D01*
X151984427Y-65616763D01*
X151902618Y-65641580D01*
X151838855Y-65647860D01*
X151806974Y-65651000D01*
X151193026Y-65651000D01*
X151161145Y-65647860D01*
X151097382Y-65641580D01*
X151015573Y-65616763D01*
X150974667Y-65604355D01*
X150861576Y-65543906D01*
X150861574Y-65543905D01*
X150762447Y-65462553D01*
X150681095Y-65363426D01*
X150673384Y-65349000D01*
X150620645Y-65250333D01*
X150608237Y-65209427D01*
X150583420Y-65127618D01*
X150570851Y-65000000D01*
X150583420Y-64872382D01*
X150620645Y-64749668D01*
X150620645Y-64749667D01*
X150681094Y-64636576D01*
X150681095Y-64636574D01*
X150762447Y-64537447D01*
X150861574Y-64456095D01*
X150905401Y-64432669D01*
X150974667Y-64395645D01*
X151015573Y-64383237D01*
X151097382Y-64358420D01*
X151161145Y-64352140D01*
X151193026Y-64349000D01*
X151806974Y-64349000D01*
X151838855Y-64352140D01*
X151838855Y-64352140D01*
G37*
G36*
X131766242Y-63353404D02*
X131803339Y-63364657D01*
X131837520Y-63382927D01*
X131867482Y-63407518D01*
X131892073Y-63437480D01*
X131910343Y-63471661D01*
X131921596Y-63508758D01*
X131926000Y-63553473D01*
X131926000Y-64446527D01*
X131921596Y-64491242D01*
X131910343Y-64528339D01*
X131892073Y-64562520D01*
X131867482Y-64592482D01*
X131837520Y-64617073D01*
X131803339Y-64635343D01*
X131766242Y-64646596D01*
X131721527Y-64651000D01*
X130278473Y-64651000D01*
X130233758Y-64646596D01*
X130196661Y-64635343D01*
X130162480Y-64617073D01*
X130132518Y-64592482D01*
X130107927Y-64562520D01*
X130089657Y-64528339D01*
X130078404Y-64491242D01*
X130074000Y-64446527D01*
X130074000Y-63553473D01*
X130078404Y-63508758D01*
X130089657Y-63471661D01*
X130107927Y-63437480D01*
X130132518Y-63407518D01*
X130162480Y-63382927D01*
X130196661Y-63364657D01*
X130233758Y-63353404D01*
X130278473Y-63349000D01*
X131721527Y-63349000D01*
X131766242Y-63353404D01*
X131766242Y-63353404D01*
G37*
G36*
X138338855Y-63352140D02*
X138402618Y-63358420D01*
X138484427Y-63383237D01*
X138525333Y-63395645D01*
X138603600Y-63437480D01*
X138638426Y-63456095D01*
X138737553Y-63537447D01*
X138818905Y-63636574D01*
X138818906Y-63636576D01*
X138879355Y-63749667D01*
X138879355Y-63749668D01*
X138916580Y-63872382D01*
X138929149Y-64000000D01*
X138916580Y-64127618D01*
X138891763Y-64209427D01*
X138879355Y-64250333D01*
X138826616Y-64349000D01*
X138818905Y-64363426D01*
X138737553Y-64462553D01*
X138638426Y-64543905D01*
X138638424Y-64543906D01*
X138525333Y-64604355D01*
X138484427Y-64616763D01*
X138402618Y-64641580D01*
X138338855Y-64647860D01*
X138306974Y-64651000D01*
X137693026Y-64651000D01*
X137661145Y-64647860D01*
X137597382Y-64641580D01*
X137515573Y-64616763D01*
X137474667Y-64604355D01*
X137361576Y-64543906D01*
X137361574Y-64543905D01*
X137262447Y-64462553D01*
X137181095Y-64363426D01*
X137173384Y-64349000D01*
X137120645Y-64250333D01*
X137108237Y-64209427D01*
X137083420Y-64127618D01*
X137070851Y-64000000D01*
X137083420Y-63872382D01*
X137120645Y-63749668D01*
X137120645Y-63749667D01*
X137181094Y-63636576D01*
X137181095Y-63636574D01*
X137262447Y-63537447D01*
X137361574Y-63456095D01*
X137396400Y-63437480D01*
X137474667Y-63395645D01*
X137515573Y-63383237D01*
X137597382Y-63358420D01*
X137661145Y-63352140D01*
X137693026Y-63349000D01*
X138306974Y-63349000D01*
X138338855Y-63352140D01*
X138338855Y-63352140D01*
G37*
G36*
X151838855Y-62352140D02*
X151902618Y-62358420D01*
X151984427Y-62383237D01*
X152025333Y-62395645D01*
X152125491Y-62449181D01*
X152138426Y-62456095D01*
X152237553Y-62537447D01*
X152318905Y-62636574D01*
X152318906Y-62636576D01*
X152379355Y-62749667D01*
X152379355Y-62749668D01*
X152416580Y-62872382D01*
X152429149Y-63000000D01*
X152416580Y-63127618D01*
X152391763Y-63209427D01*
X152379355Y-63250333D01*
X152326616Y-63349000D01*
X152318905Y-63363426D01*
X152237553Y-63462553D01*
X152138426Y-63543905D01*
X152138424Y-63543906D01*
X152025333Y-63604355D01*
X151984427Y-63616763D01*
X151902618Y-63641580D01*
X151838855Y-63647860D01*
X151806974Y-63651000D01*
X151193026Y-63651000D01*
X151161145Y-63647860D01*
X151097382Y-63641580D01*
X151015573Y-63616763D01*
X150974667Y-63604355D01*
X150861576Y-63543906D01*
X150861574Y-63543905D01*
X150762447Y-63462553D01*
X150681095Y-63363426D01*
X150673384Y-63349000D01*
X150620645Y-63250333D01*
X150608237Y-63209427D01*
X150583420Y-63127618D01*
X150570851Y-63000000D01*
X150583420Y-62872382D01*
X150620645Y-62749668D01*
X150620645Y-62749667D01*
X150681094Y-62636576D01*
X150681095Y-62636574D01*
X150762447Y-62537447D01*
X150861574Y-62456095D01*
X150874509Y-62449181D01*
X150974667Y-62395645D01*
X151015573Y-62383237D01*
X151097382Y-62358420D01*
X151161145Y-62352140D01*
X151193026Y-62349000D01*
X151806974Y-62349000D01*
X151838855Y-62352140D01*
X151838855Y-62352140D01*
G37*
G36*
X131338855Y-61352140D02*
X131402618Y-61358420D01*
X131484427Y-61383237D01*
X131525333Y-61395645D01*
X131625491Y-61449181D01*
X131638426Y-61456095D01*
X131737553Y-61537447D01*
X131818905Y-61636574D01*
X131818906Y-61636576D01*
X131879355Y-61749667D01*
X131879355Y-61749668D01*
X131916580Y-61872382D01*
X131929149Y-62000000D01*
X131916580Y-62127618D01*
X131891763Y-62209427D01*
X131879355Y-62250333D01*
X131826616Y-62349000D01*
X131818905Y-62363426D01*
X131737553Y-62462553D01*
X131638426Y-62543905D01*
X131638424Y-62543906D01*
X131525333Y-62604355D01*
X131484427Y-62616763D01*
X131402618Y-62641580D01*
X131338855Y-62647860D01*
X131306974Y-62651000D01*
X130693026Y-62651000D01*
X130661145Y-62647860D01*
X130597382Y-62641580D01*
X130515573Y-62616763D01*
X130474667Y-62604355D01*
X130361576Y-62543906D01*
X130361574Y-62543905D01*
X130262447Y-62462553D01*
X130181095Y-62363426D01*
X130173384Y-62349000D01*
X130120645Y-62250333D01*
X130108237Y-62209427D01*
X130083420Y-62127618D01*
X130070851Y-62000000D01*
X130083420Y-61872382D01*
X130120645Y-61749668D01*
X130120645Y-61749667D01*
X130181094Y-61636576D01*
X130181095Y-61636574D01*
X130262447Y-61537447D01*
X130361574Y-61456095D01*
X130374509Y-61449181D01*
X130474667Y-61395645D01*
X130515573Y-61383237D01*
X130597382Y-61358420D01*
X130661145Y-61352140D01*
X130693026Y-61349000D01*
X131306974Y-61349000D01*
X131338855Y-61352140D01*
X131338855Y-61352140D01*
G37*
G36*
X151838855Y-60352140D02*
X151902618Y-60358420D01*
X151984427Y-60383237D01*
X152025333Y-60395645D01*
X152094599Y-60432669D01*
X152138426Y-60456095D01*
X152237553Y-60537447D01*
X152318905Y-60636574D01*
X152318906Y-60636576D01*
X152379355Y-60749667D01*
X152379355Y-60749668D01*
X152416580Y-60872382D01*
X152429149Y-61000000D01*
X152416580Y-61127618D01*
X152391763Y-61209427D01*
X152379355Y-61250333D01*
X152326616Y-61349000D01*
X152318905Y-61363426D01*
X152237553Y-61462553D01*
X152138426Y-61543905D01*
X152138424Y-61543906D01*
X152025333Y-61604355D01*
X151984427Y-61616763D01*
X151902618Y-61641580D01*
X151838855Y-61647860D01*
X151806974Y-61651000D01*
X151193026Y-61651000D01*
X151161145Y-61647860D01*
X151097382Y-61641580D01*
X151015573Y-61616763D01*
X150974667Y-61604355D01*
X150861576Y-61543906D01*
X150861574Y-61543905D01*
X150762447Y-61462553D01*
X150681095Y-61363426D01*
X150673384Y-61349000D01*
X150620645Y-61250333D01*
X150608237Y-61209427D01*
X150583420Y-61127618D01*
X150570851Y-61000000D01*
X150583420Y-60872382D01*
X150620645Y-60749668D01*
X150620645Y-60749667D01*
X150681094Y-60636576D01*
X150681095Y-60636574D01*
X150762447Y-60537447D01*
X150861574Y-60456095D01*
X150905401Y-60432669D01*
X150974667Y-60395645D01*
X151015573Y-60383237D01*
X151097382Y-60358420D01*
X151161145Y-60352140D01*
X151193026Y-60349000D01*
X151806974Y-60349000D01*
X151838855Y-60352140D01*
X151838855Y-60352140D01*
G37*
G36*
X145766242Y-59353404D02*
X145803339Y-59364657D01*
X145837520Y-59382927D01*
X145867482Y-59407518D01*
X145892073Y-59437480D01*
X145910343Y-59471661D01*
X145921596Y-59508758D01*
X145926000Y-59553473D01*
X145926000Y-60446527D01*
X145921596Y-60491242D01*
X145910343Y-60528339D01*
X145892073Y-60562520D01*
X145867482Y-60592482D01*
X145837520Y-60617073D01*
X145803339Y-60635343D01*
X145766242Y-60646596D01*
X145721527Y-60651000D01*
X144278473Y-60651000D01*
X144233758Y-60646596D01*
X144196661Y-60635343D01*
X144162480Y-60617073D01*
X144132518Y-60592482D01*
X144107927Y-60562520D01*
X144089657Y-60528339D01*
X144078404Y-60491242D01*
X144074000Y-60446527D01*
X144074000Y-59553473D01*
X144078404Y-59508758D01*
X144089657Y-59471661D01*
X144107927Y-59437480D01*
X144132518Y-59407518D01*
X144162480Y-59382927D01*
X144196661Y-59364657D01*
X144233758Y-59353404D01*
X144278473Y-59349000D01*
X145721527Y-59349000D01*
X145766242Y-59353404D01*
X145766242Y-59353404D01*
G37*
G36*
X131338855Y-59352140D02*
X131402618Y-59358420D01*
X131484427Y-59383237D01*
X131525333Y-59395645D01*
X131603600Y-59437480D01*
X131638426Y-59456095D01*
X131737553Y-59537447D01*
X131818905Y-59636574D01*
X131818906Y-59636576D01*
X131879355Y-59749667D01*
X131879355Y-59749668D01*
X131916580Y-59872382D01*
X131929149Y-60000000D01*
X131916580Y-60127618D01*
X131891763Y-60209427D01*
X131879355Y-60250333D01*
X131826616Y-60349000D01*
X131818905Y-60363426D01*
X131737553Y-60462553D01*
X131638426Y-60543905D01*
X131638424Y-60543906D01*
X131525333Y-60604355D01*
X131484427Y-60616763D01*
X131402618Y-60641580D01*
X131338855Y-60647860D01*
X131306974Y-60651000D01*
X130693026Y-60651000D01*
X130661145Y-60647860D01*
X130597382Y-60641580D01*
X130515573Y-60616763D01*
X130474667Y-60604355D01*
X130361576Y-60543906D01*
X130361574Y-60543905D01*
X130262447Y-60462553D01*
X130181095Y-60363426D01*
X130173384Y-60349000D01*
X130120645Y-60250333D01*
X130108237Y-60209427D01*
X130083420Y-60127618D01*
X130070851Y-60000000D01*
X130083420Y-59872382D01*
X130120645Y-59749668D01*
X130120645Y-59749667D01*
X130181094Y-59636576D01*
X130181095Y-59636574D01*
X130262447Y-59537447D01*
X130361574Y-59456095D01*
X130396400Y-59437480D01*
X130474667Y-59395645D01*
X130515573Y-59383237D01*
X130597382Y-59358420D01*
X130661145Y-59352140D01*
X130693026Y-59349000D01*
X131306974Y-59349000D01*
X131338855Y-59352140D01*
X131338855Y-59352140D01*
G37*
G36*
X145338855Y-57352140D02*
X145402618Y-57358420D01*
X145484427Y-57383237D01*
X145525333Y-57395645D01*
X145625491Y-57449181D01*
X145638426Y-57456095D01*
X145737553Y-57537447D01*
X145818905Y-57636574D01*
X145818906Y-57636576D01*
X145879355Y-57749667D01*
X145879355Y-57749668D01*
X145916580Y-57872382D01*
X145929149Y-58000000D01*
X145916580Y-58127618D01*
X145891763Y-58209427D01*
X145879355Y-58250333D01*
X145825819Y-58350491D01*
X145818905Y-58363426D01*
X145737553Y-58462553D01*
X145638426Y-58543905D01*
X145638424Y-58543906D01*
X145525333Y-58604355D01*
X145484427Y-58616763D01*
X145402618Y-58641580D01*
X145338855Y-58647860D01*
X145306974Y-58651000D01*
X144693026Y-58651000D01*
X144661145Y-58647860D01*
X144597382Y-58641580D01*
X144515573Y-58616763D01*
X144474667Y-58604355D01*
X144361576Y-58543906D01*
X144361574Y-58543905D01*
X144262447Y-58462553D01*
X144181095Y-58363426D01*
X144174181Y-58350491D01*
X144120645Y-58250333D01*
X144108237Y-58209427D01*
X144083420Y-58127618D01*
X144070851Y-58000000D01*
X144083420Y-57872382D01*
X144120645Y-57749668D01*
X144120645Y-57749667D01*
X144181094Y-57636576D01*
X144181095Y-57636574D01*
X144262447Y-57537447D01*
X144361574Y-57456095D01*
X144374509Y-57449181D01*
X144474667Y-57395645D01*
X144515573Y-57383237D01*
X144597382Y-57358420D01*
X144661145Y-57352140D01*
X144693026Y-57349000D01*
X145306974Y-57349000D01*
X145338855Y-57352140D01*
X145338855Y-57352140D01*
G37*
G36*
X152266242Y-54853404D02*
X152303339Y-54864657D01*
X152337520Y-54882927D01*
X152367482Y-54907518D01*
X152392073Y-54937480D01*
X152410343Y-54971661D01*
X152421596Y-55008758D01*
X152426000Y-55053473D01*
X152426000Y-55946527D01*
X152421596Y-55991242D01*
X152410343Y-56028339D01*
X152392073Y-56062520D01*
X152367482Y-56092482D01*
X152337520Y-56117073D01*
X152303339Y-56135343D01*
X152266242Y-56146596D01*
X152221527Y-56151000D01*
X150778473Y-56151000D01*
X150733758Y-56146596D01*
X150696661Y-56135343D01*
X150662480Y-56117073D01*
X150632518Y-56092482D01*
X150607927Y-56062520D01*
X150589657Y-56028339D01*
X150578404Y-55991242D01*
X150574000Y-55946527D01*
X150574000Y-55053473D01*
X150578404Y-55008758D01*
X150589657Y-54971661D01*
X150607927Y-54937480D01*
X150632518Y-54907518D01*
X150662480Y-54882927D01*
X150696661Y-54864657D01*
X150733758Y-54853404D01*
X150778473Y-54849000D01*
X152221527Y-54849000D01*
X152266242Y-54853404D01*
X152266242Y-54853404D01*
G37*
G36*
X138766242Y-54853404D02*
X138803339Y-54864657D01*
X138837520Y-54882927D01*
X138867482Y-54907518D01*
X138892073Y-54937480D01*
X138910343Y-54971661D01*
X138921596Y-55008758D01*
X138926000Y-55053473D01*
X138926000Y-55946527D01*
X138921596Y-55991242D01*
X138910343Y-56028339D01*
X138892073Y-56062520D01*
X138867482Y-56092482D01*
X138837520Y-56117073D01*
X138803339Y-56135343D01*
X138766242Y-56146596D01*
X138721527Y-56151000D01*
X137278473Y-56151000D01*
X137233758Y-56146596D01*
X137196661Y-56135343D01*
X137162480Y-56117073D01*
X137132518Y-56092482D01*
X137107927Y-56062520D01*
X137089657Y-56028339D01*
X137078404Y-55991242D01*
X137074000Y-55946527D01*
X137074000Y-55053473D01*
X137078404Y-55008758D01*
X137089657Y-54971661D01*
X137107927Y-54937480D01*
X137132518Y-54907518D01*
X137162480Y-54882927D01*
X137196661Y-54864657D01*
X137233758Y-54853404D01*
X137278473Y-54849000D01*
X138721527Y-54849000D01*
X138766242Y-54853404D01*
X138766242Y-54853404D01*
G37*
G36*
X151838855Y-52852140D02*
X151902618Y-52858420D01*
X151984427Y-52883237D01*
X152025333Y-52895645D01*
X152103600Y-52937480D01*
X152138426Y-52956095D01*
X152237553Y-53037447D01*
X152318905Y-53136574D01*
X152318906Y-53136576D01*
X152379355Y-53249667D01*
X152379355Y-53249668D01*
X152416580Y-53372382D01*
X152429149Y-53500000D01*
X152416580Y-53627618D01*
X152391763Y-53709427D01*
X152379355Y-53750333D01*
X152345858Y-53813000D01*
X152318905Y-53863426D01*
X152237553Y-53962553D01*
X152138426Y-54043905D01*
X152138424Y-54043906D01*
X152025333Y-54104355D01*
X151984427Y-54116763D01*
X151902618Y-54141580D01*
X151838855Y-54147860D01*
X151806974Y-54151000D01*
X151193026Y-54151000D01*
X151161145Y-54147860D01*
X151097382Y-54141580D01*
X151015573Y-54116763D01*
X150974667Y-54104355D01*
X150861576Y-54043906D01*
X150861574Y-54043905D01*
X150762447Y-53962553D01*
X150681095Y-53863426D01*
X150654142Y-53813000D01*
X150620645Y-53750333D01*
X150608237Y-53709427D01*
X150583420Y-53627618D01*
X150570851Y-53500000D01*
X150583420Y-53372382D01*
X150620645Y-53249668D01*
X150620645Y-53249667D01*
X150681094Y-53136576D01*
X150681095Y-53136574D01*
X150762447Y-53037447D01*
X150861574Y-52956095D01*
X150896400Y-52937480D01*
X150974667Y-52895645D01*
X151015573Y-52883237D01*
X151097382Y-52858420D01*
X151161145Y-52852140D01*
X151193026Y-52849000D01*
X151806974Y-52849000D01*
X151838855Y-52852140D01*
X151838855Y-52852140D01*
G37*
G36*
X138338855Y-52852140D02*
X138402618Y-52858420D01*
X138484427Y-52883237D01*
X138525333Y-52895645D01*
X138603600Y-52937480D01*
X138638426Y-52956095D01*
X138737553Y-53037447D01*
X138818905Y-53136574D01*
X138818906Y-53136576D01*
X138879355Y-53249667D01*
X138879355Y-53249668D01*
X138916580Y-53372382D01*
X138929149Y-53500000D01*
X138916580Y-53627618D01*
X138891763Y-53709427D01*
X138879355Y-53750333D01*
X138845858Y-53813000D01*
X138818905Y-53863426D01*
X138737553Y-53962553D01*
X138638426Y-54043905D01*
X138638424Y-54043906D01*
X138525333Y-54104355D01*
X138484427Y-54116763D01*
X138402618Y-54141580D01*
X138338855Y-54147860D01*
X138306974Y-54151000D01*
X137693026Y-54151000D01*
X137661145Y-54147860D01*
X137597382Y-54141580D01*
X137515573Y-54116763D01*
X137474667Y-54104355D01*
X137361576Y-54043906D01*
X137361574Y-54043905D01*
X137262447Y-53962553D01*
X137181095Y-53863426D01*
X137154142Y-53813000D01*
X137120645Y-53750333D01*
X137108237Y-53709427D01*
X137083420Y-53627618D01*
X137070851Y-53500000D01*
X137083420Y-53372382D01*
X137120645Y-53249668D01*
X137120645Y-53249667D01*
X137181094Y-53136576D01*
X137181095Y-53136574D01*
X137262447Y-53037447D01*
X137361574Y-52956095D01*
X137396400Y-52937480D01*
X137474667Y-52895645D01*
X137515573Y-52883237D01*
X137597382Y-52858420D01*
X137661145Y-52852140D01*
X137693026Y-52849000D01*
X138306974Y-52849000D01*
X138338855Y-52852140D01*
X138338855Y-52852140D01*
G37*
G36*
X131766242Y-52853404D02*
X131803339Y-52864657D01*
X131837520Y-52882927D01*
X131867482Y-52907518D01*
X131892073Y-52937480D01*
X131910343Y-52971661D01*
X131921596Y-53008758D01*
X131926000Y-53053473D01*
X131926000Y-53946527D01*
X131921596Y-53991242D01*
X131910343Y-54028339D01*
X131892073Y-54062520D01*
X131867482Y-54092482D01*
X131837520Y-54117073D01*
X131803339Y-54135343D01*
X131766242Y-54146596D01*
X131721527Y-54151000D01*
X130278473Y-54151000D01*
X130233758Y-54146596D01*
X130196661Y-54135343D01*
X130162480Y-54117073D01*
X130132518Y-54092482D01*
X130107927Y-54062520D01*
X130089657Y-54028339D01*
X130078404Y-53991242D01*
X130074000Y-53946527D01*
X130074000Y-53053473D01*
X130078404Y-53008758D01*
X130089657Y-52971661D01*
X130107927Y-52937480D01*
X130132518Y-52907518D01*
X130162480Y-52882927D01*
X130196661Y-52864657D01*
X130233758Y-52853404D01*
X130278473Y-52849000D01*
X131721527Y-52849000D01*
X131766242Y-52853404D01*
X131766242Y-52853404D01*
G37*
G36*
X75817142Y-52218242D02*
X75965102Y-52279530D01*
X76098258Y-52368502D01*
X76211498Y-52481742D01*
X76300470Y-52614898D01*
X76361758Y-52762858D01*
X76393000Y-52919925D01*
X76393000Y-53080075D01*
X76361758Y-53237142D01*
X76300470Y-53385102D01*
X76211498Y-53518258D01*
X76098258Y-53631498D01*
X75965102Y-53720470D01*
X75817142Y-53781758D01*
X75660075Y-53813000D01*
X75499925Y-53813000D01*
X75342858Y-53781758D01*
X75194898Y-53720470D01*
X75061742Y-53631498D01*
X74948502Y-53518258D01*
X74859530Y-53385102D01*
X74798242Y-53237142D01*
X74767000Y-53080075D01*
X74767000Y-52919925D01*
X74798242Y-52762858D01*
X74859530Y-52614898D01*
X74948502Y-52481742D01*
X75061742Y-52368502D01*
X75194898Y-52279530D01*
X75342858Y-52218242D01*
X75499925Y-52187000D01*
X75660075Y-52187000D01*
X75817142Y-52218242D01*
X75817142Y-52218242D01*
G37*
G36*
X80897142Y-52218242D02*
X81045102Y-52279530D01*
X81178258Y-52368502D01*
X81291498Y-52481742D01*
X81380470Y-52614898D01*
X81441758Y-52762858D01*
X81473000Y-52919925D01*
X81473000Y-53080075D01*
X81441758Y-53237142D01*
X81380470Y-53385102D01*
X81291498Y-53518258D01*
X81178258Y-53631498D01*
X81045102Y-53720470D01*
X80897142Y-53781758D01*
X80740075Y-53813000D01*
X80579925Y-53813000D01*
X80422858Y-53781758D01*
X80274898Y-53720470D01*
X80141742Y-53631498D01*
X80028502Y-53518258D01*
X79939530Y-53385102D01*
X79878242Y-53237142D01*
X79847000Y-53080075D01*
X79847000Y-52919925D01*
X79878242Y-52762858D01*
X79939530Y-52614898D01*
X80028502Y-52481742D01*
X80141742Y-52368502D01*
X80274898Y-52279530D01*
X80422858Y-52218242D01*
X80579925Y-52187000D01*
X80740075Y-52187000D01*
X80897142Y-52218242D01*
X80897142Y-52218242D01*
G37*
G36*
X78357142Y-52218242D02*
X78505102Y-52279530D01*
X78638258Y-52368502D01*
X78751498Y-52481742D01*
X78840470Y-52614898D01*
X78901758Y-52762858D01*
X78933000Y-52919925D01*
X78933000Y-53080075D01*
X78901758Y-53237142D01*
X78840470Y-53385102D01*
X78751498Y-53518258D01*
X78638258Y-53631498D01*
X78505102Y-53720470D01*
X78357142Y-53781758D01*
X78200075Y-53813000D01*
X78039925Y-53813000D01*
X77882858Y-53781758D01*
X77734898Y-53720470D01*
X77601742Y-53631498D01*
X77488502Y-53518258D01*
X77399530Y-53385102D01*
X77338242Y-53237142D01*
X77307000Y-53080075D01*
X77307000Y-52919925D01*
X77338242Y-52762858D01*
X77399530Y-52614898D01*
X77488502Y-52481742D01*
X77601742Y-52368502D01*
X77734898Y-52279530D01*
X77882858Y-52218242D01*
X78039925Y-52187000D01*
X78200075Y-52187000D01*
X78357142Y-52218242D01*
X78357142Y-52218242D01*
G37*
G36*
X70737142Y-52218242D02*
X70885102Y-52279530D01*
X71018258Y-52368502D01*
X71131498Y-52481742D01*
X71220470Y-52614898D01*
X71281758Y-52762858D01*
X71313000Y-52919925D01*
X71313000Y-53080075D01*
X71281758Y-53237142D01*
X71220470Y-53385102D01*
X71131498Y-53518258D01*
X71018258Y-53631498D01*
X70885102Y-53720470D01*
X70737142Y-53781758D01*
X70580075Y-53813000D01*
X70419925Y-53813000D01*
X70262858Y-53781758D01*
X70114898Y-53720470D01*
X69981742Y-53631498D01*
X69868502Y-53518258D01*
X69779530Y-53385102D01*
X69718242Y-53237142D01*
X69687000Y-53080075D01*
X69687000Y-52919925D01*
X69718242Y-52762858D01*
X69779530Y-52614898D01*
X69868502Y-52481742D01*
X69981742Y-52368502D01*
X70114898Y-52279530D01*
X70262858Y-52218242D01*
X70419925Y-52187000D01*
X70580075Y-52187000D01*
X70737142Y-52218242D01*
X70737142Y-52218242D01*
G37*
G36*
X65657142Y-52218242D02*
X65805102Y-52279530D01*
X65938258Y-52368502D01*
X66051498Y-52481742D01*
X66140470Y-52614898D01*
X66201758Y-52762858D01*
X66233000Y-52919925D01*
X66233000Y-53080075D01*
X66201758Y-53237142D01*
X66140470Y-53385102D01*
X66051498Y-53518258D01*
X65938258Y-53631498D01*
X65805102Y-53720470D01*
X65657142Y-53781758D01*
X65500075Y-53813000D01*
X65339925Y-53813000D01*
X65182858Y-53781758D01*
X65034898Y-53720470D01*
X64901742Y-53631498D01*
X64788502Y-53518258D01*
X64699530Y-53385102D01*
X64638242Y-53237142D01*
X64607000Y-53080075D01*
X64607000Y-52919925D01*
X64638242Y-52762858D01*
X64699530Y-52614898D01*
X64788502Y-52481742D01*
X64901742Y-52368502D01*
X65034898Y-52279530D01*
X65182858Y-52218242D01*
X65339925Y-52187000D01*
X65500075Y-52187000D01*
X65657142Y-52218242D01*
X65657142Y-52218242D01*
G37*
G36*
X63117142Y-52218242D02*
X63265102Y-52279530D01*
X63398258Y-52368502D01*
X63511498Y-52481742D01*
X63600470Y-52614898D01*
X63661758Y-52762858D01*
X63693000Y-52919925D01*
X63693000Y-53080075D01*
X63661758Y-53237142D01*
X63600470Y-53385102D01*
X63511498Y-53518258D01*
X63398258Y-53631498D01*
X63265102Y-53720470D01*
X63117142Y-53781758D01*
X62960075Y-53813000D01*
X62799925Y-53813000D01*
X62642858Y-53781758D01*
X62494898Y-53720470D01*
X62361742Y-53631498D01*
X62248502Y-53518258D01*
X62159530Y-53385102D01*
X62098242Y-53237142D01*
X62067000Y-53080075D01*
X62067000Y-52919925D01*
X62098242Y-52762858D01*
X62159530Y-52614898D01*
X62248502Y-52481742D01*
X62361742Y-52368502D01*
X62494898Y-52279530D01*
X62642858Y-52218242D01*
X62799925Y-52187000D01*
X62960075Y-52187000D01*
X63117142Y-52218242D01*
X63117142Y-52218242D01*
G37*
G36*
X73277142Y-52218242D02*
X73425102Y-52279530D01*
X73558258Y-52368502D01*
X73671498Y-52481742D01*
X73760470Y-52614898D01*
X73821758Y-52762858D01*
X73853000Y-52919925D01*
X73853000Y-53080075D01*
X73821758Y-53237142D01*
X73760470Y-53385102D01*
X73671498Y-53518258D01*
X73558258Y-53631498D01*
X73425102Y-53720470D01*
X73277142Y-53781758D01*
X73120075Y-53813000D01*
X72959925Y-53813000D01*
X72802858Y-53781758D01*
X72654898Y-53720470D01*
X72521742Y-53631498D01*
X72408502Y-53518258D01*
X72319530Y-53385102D01*
X72258242Y-53237142D01*
X72227000Y-53080075D01*
X72227000Y-52919925D01*
X72258242Y-52762858D01*
X72319530Y-52614898D01*
X72408502Y-52481742D01*
X72521742Y-52368502D01*
X72654898Y-52279530D01*
X72802858Y-52218242D01*
X72959925Y-52187000D01*
X73120075Y-52187000D01*
X73277142Y-52218242D01*
X73277142Y-52218242D01*
G37*
G36*
X68197142Y-52218242D02*
X68345102Y-52279530D01*
X68478258Y-52368502D01*
X68591498Y-52481742D01*
X68680470Y-52614898D01*
X68741758Y-52762858D01*
X68773000Y-52919925D01*
X68773000Y-53080075D01*
X68741758Y-53237142D01*
X68680470Y-53385102D01*
X68591498Y-53518258D01*
X68478258Y-53631498D01*
X68345102Y-53720470D01*
X68197142Y-53781758D01*
X68040075Y-53813000D01*
X67879925Y-53813000D01*
X67722858Y-53781758D01*
X67574898Y-53720470D01*
X67441742Y-53631498D01*
X67328502Y-53518258D01*
X67239530Y-53385102D01*
X67178242Y-53237142D01*
X67147000Y-53080075D01*
X67147000Y-52919925D01*
X67178242Y-52762858D01*
X67239530Y-52614898D01*
X67328502Y-52481742D01*
X67441742Y-52368502D01*
X67574898Y-52279530D01*
X67722858Y-52218242D01*
X67879925Y-52187000D01*
X68040075Y-52187000D01*
X68197142Y-52218242D01*
X68197142Y-52218242D01*
G37*
G36*
X131338855Y-50852140D02*
X131402618Y-50858420D01*
X131484427Y-50883237D01*
X131525333Y-50895645D01*
X131603600Y-50937480D01*
X131638426Y-50956095D01*
X131737553Y-51037447D01*
X131818905Y-51136574D01*
X131818906Y-51136576D01*
X131879355Y-51249667D01*
X131879355Y-51249668D01*
X131916580Y-51372382D01*
X131929149Y-51500000D01*
X131916580Y-51627618D01*
X131891763Y-51709427D01*
X131879355Y-51750333D01*
X131825819Y-51850491D01*
X131818905Y-51863426D01*
X131737553Y-51962553D01*
X131638426Y-52043905D01*
X131638424Y-52043906D01*
X131525333Y-52104355D01*
X131484427Y-52116763D01*
X131402618Y-52141580D01*
X131338855Y-52147860D01*
X131306974Y-52151000D01*
X130693026Y-52151000D01*
X130661145Y-52147860D01*
X130597382Y-52141580D01*
X130515573Y-52116763D01*
X130474667Y-52104355D01*
X130361576Y-52043906D01*
X130361574Y-52043905D01*
X130262447Y-51962553D01*
X130181095Y-51863426D01*
X130174181Y-51850491D01*
X130120645Y-51750333D01*
X130108237Y-51709427D01*
X130083420Y-51627618D01*
X130070851Y-51500000D01*
X130083420Y-51372382D01*
X130120645Y-51249668D01*
X130120645Y-51249667D01*
X130181094Y-51136576D01*
X130181095Y-51136574D01*
X130262447Y-51037447D01*
X130361574Y-50956095D01*
X130396400Y-50937480D01*
X130474667Y-50895645D01*
X130515573Y-50883237D01*
X130597382Y-50858420D01*
X130661145Y-50852140D01*
X130693026Y-50849000D01*
X131306974Y-50849000D01*
X131338855Y-50852140D01*
X131338855Y-50852140D01*
G37*
G36*
X138338855Y-50852140D02*
X138402618Y-50858420D01*
X138484427Y-50883237D01*
X138525333Y-50895645D01*
X138603600Y-50937480D01*
X138638426Y-50956095D01*
X138737553Y-51037447D01*
X138818905Y-51136574D01*
X138818906Y-51136576D01*
X138879355Y-51249667D01*
X138879355Y-51249668D01*
X138916580Y-51372382D01*
X138929149Y-51500000D01*
X138916580Y-51627618D01*
X138891763Y-51709427D01*
X138879355Y-51750333D01*
X138825819Y-51850491D01*
X138818905Y-51863426D01*
X138737553Y-51962553D01*
X138638426Y-52043905D01*
X138638424Y-52043906D01*
X138525333Y-52104355D01*
X138484427Y-52116763D01*
X138402618Y-52141580D01*
X138338855Y-52147860D01*
X138306974Y-52151000D01*
X137693026Y-52151000D01*
X137661145Y-52147860D01*
X137597382Y-52141580D01*
X137515573Y-52116763D01*
X137474667Y-52104355D01*
X137361576Y-52043906D01*
X137361574Y-52043905D01*
X137262447Y-51962553D01*
X137181095Y-51863426D01*
X137174181Y-51850491D01*
X137120645Y-51750333D01*
X137108237Y-51709427D01*
X137083420Y-51627618D01*
X137070851Y-51500000D01*
X137083420Y-51372382D01*
X137120645Y-51249668D01*
X137120645Y-51249667D01*
X137181094Y-51136576D01*
X137181095Y-51136574D01*
X137262447Y-51037447D01*
X137361574Y-50956095D01*
X137396400Y-50937480D01*
X137474667Y-50895645D01*
X137515573Y-50883237D01*
X137597382Y-50858420D01*
X137661145Y-50852140D01*
X137693026Y-50849000D01*
X138306974Y-50849000D01*
X138338855Y-50852140D01*
X138338855Y-50852140D01*
G37*
G36*
X145766242Y-50853404D02*
X145803339Y-50864657D01*
X145837520Y-50882927D01*
X145867482Y-50907518D01*
X145892073Y-50937480D01*
X145910343Y-50971661D01*
X145921596Y-51008758D01*
X145926000Y-51053473D01*
X145926000Y-51946527D01*
X145921596Y-51991242D01*
X145910343Y-52028339D01*
X145892073Y-52062520D01*
X145867482Y-52092482D01*
X145837520Y-52117073D01*
X145803339Y-52135343D01*
X145766242Y-52146596D01*
X145721527Y-52151000D01*
X144278473Y-52151000D01*
X144233758Y-52146596D01*
X144196661Y-52135343D01*
X144162480Y-52117073D01*
X144132518Y-52092482D01*
X144107927Y-52062520D01*
X144089657Y-52028339D01*
X144078404Y-51991242D01*
X144074000Y-51946527D01*
X144074000Y-51053473D01*
X144078404Y-51008758D01*
X144089657Y-50971661D01*
X144107927Y-50937480D01*
X144132518Y-50907518D01*
X144162480Y-50882927D01*
X144196661Y-50864657D01*
X144233758Y-50853404D01*
X144278473Y-50849000D01*
X145721527Y-50849000D01*
X145766242Y-50853404D01*
X145766242Y-50853404D01*
G37*
G36*
X151838855Y-50852140D02*
X151902618Y-50858420D01*
X151984427Y-50883237D01*
X152025333Y-50895645D01*
X152103600Y-50937480D01*
X152138426Y-50956095D01*
X152237553Y-51037447D01*
X152318905Y-51136574D01*
X152318906Y-51136576D01*
X152379355Y-51249667D01*
X152379355Y-51249668D01*
X152416580Y-51372382D01*
X152429149Y-51500000D01*
X152416580Y-51627618D01*
X152391763Y-51709427D01*
X152379355Y-51750333D01*
X152325819Y-51850491D01*
X152318905Y-51863426D01*
X152237553Y-51962553D01*
X152138426Y-52043905D01*
X152138424Y-52043906D01*
X152025333Y-52104355D01*
X151984427Y-52116763D01*
X151902618Y-52141580D01*
X151838855Y-52147860D01*
X151806974Y-52151000D01*
X151193026Y-52151000D01*
X151161145Y-52147860D01*
X151097382Y-52141580D01*
X151015573Y-52116763D01*
X150974667Y-52104355D01*
X150861576Y-52043906D01*
X150861574Y-52043905D01*
X150762447Y-51962553D01*
X150681095Y-51863426D01*
X150674181Y-51850491D01*
X150620645Y-51750333D01*
X150608237Y-51709427D01*
X150583420Y-51627618D01*
X150570851Y-51500000D01*
X150583420Y-51372382D01*
X150620645Y-51249668D01*
X150620645Y-51249667D01*
X150681094Y-51136576D01*
X150681095Y-51136574D01*
X150762447Y-51037447D01*
X150861574Y-50956095D01*
X150896400Y-50937480D01*
X150974667Y-50895645D01*
X151015573Y-50883237D01*
X151097382Y-50858420D01*
X151161145Y-50852140D01*
X151193026Y-50849000D01*
X151806974Y-50849000D01*
X151838855Y-50852140D01*
X151838855Y-50852140D01*
G37*
G36*
X151838855Y-48852140D02*
X151902618Y-48858420D01*
X151984427Y-48883237D01*
X152025333Y-48895645D01*
X152125491Y-48949181D01*
X152138426Y-48956095D01*
X152237553Y-49037447D01*
X152318905Y-49136574D01*
X152318906Y-49136576D01*
X152379355Y-49249667D01*
X152379355Y-49249668D01*
X152416580Y-49372382D01*
X152429149Y-49500000D01*
X152416580Y-49627618D01*
X152391763Y-49709427D01*
X152379355Y-49750333D01*
X152325819Y-49850491D01*
X152318905Y-49863426D01*
X152237553Y-49962553D01*
X152138426Y-50043905D01*
X152138424Y-50043906D01*
X152025333Y-50104355D01*
X151984427Y-50116763D01*
X151902618Y-50141580D01*
X151838855Y-50147860D01*
X151806974Y-50151000D01*
X151193026Y-50151000D01*
X151161145Y-50147860D01*
X151097382Y-50141580D01*
X151015573Y-50116763D01*
X150974667Y-50104355D01*
X150861576Y-50043906D01*
X150861574Y-50043905D01*
X150762447Y-49962553D01*
X150681095Y-49863426D01*
X150674181Y-49850491D01*
X150620645Y-49750333D01*
X150608237Y-49709427D01*
X150583420Y-49627618D01*
X150570851Y-49500000D01*
X150583420Y-49372382D01*
X150620645Y-49249668D01*
X150620645Y-49249667D01*
X150681094Y-49136576D01*
X150681095Y-49136574D01*
X150762447Y-49037447D01*
X150861574Y-48956095D01*
X150874509Y-48949181D01*
X150974667Y-48895645D01*
X151015573Y-48883237D01*
X151097382Y-48858420D01*
X151161145Y-48852140D01*
X151193026Y-48849000D01*
X151806974Y-48849000D01*
X151838855Y-48852140D01*
X151838855Y-48852140D01*
G37*
G36*
X145338855Y-48852140D02*
X145402618Y-48858420D01*
X145484427Y-48883237D01*
X145525333Y-48895645D01*
X145625491Y-48949181D01*
X145638426Y-48956095D01*
X145737553Y-49037447D01*
X145818905Y-49136574D01*
X145818906Y-49136576D01*
X145879355Y-49249667D01*
X145879355Y-49249668D01*
X145916580Y-49372382D01*
X145929149Y-49500000D01*
X145916580Y-49627618D01*
X145891763Y-49709427D01*
X145879355Y-49750333D01*
X145825819Y-49850491D01*
X145818905Y-49863426D01*
X145737553Y-49962553D01*
X145638426Y-50043905D01*
X145638424Y-50043906D01*
X145525333Y-50104355D01*
X145484427Y-50116763D01*
X145402618Y-50141580D01*
X145338855Y-50147860D01*
X145306974Y-50151000D01*
X144693026Y-50151000D01*
X144661145Y-50147860D01*
X144597382Y-50141580D01*
X144515573Y-50116763D01*
X144474667Y-50104355D01*
X144361576Y-50043906D01*
X144361574Y-50043905D01*
X144262447Y-49962553D01*
X144181095Y-49863426D01*
X144174181Y-49850491D01*
X144120645Y-49750333D01*
X144108237Y-49709427D01*
X144083420Y-49627618D01*
X144070851Y-49500000D01*
X144083420Y-49372382D01*
X144120645Y-49249668D01*
X144120645Y-49249667D01*
X144181094Y-49136576D01*
X144181095Y-49136574D01*
X144262447Y-49037447D01*
X144361574Y-48956095D01*
X144374509Y-48949181D01*
X144474667Y-48895645D01*
X144515573Y-48883237D01*
X144597382Y-48858420D01*
X144661145Y-48852140D01*
X144693026Y-48849000D01*
X145306974Y-48849000D01*
X145338855Y-48852140D01*
X145338855Y-48852140D01*
G37*
G36*
X131338855Y-48852140D02*
X131402618Y-48858420D01*
X131484427Y-48883237D01*
X131525333Y-48895645D01*
X131625491Y-48949181D01*
X131638426Y-48956095D01*
X131737553Y-49037447D01*
X131818905Y-49136574D01*
X131818906Y-49136576D01*
X131879355Y-49249667D01*
X131879355Y-49249668D01*
X131916580Y-49372382D01*
X131929149Y-49500000D01*
X131916580Y-49627618D01*
X131891763Y-49709427D01*
X131879355Y-49750333D01*
X131825819Y-49850491D01*
X131818905Y-49863426D01*
X131737553Y-49962553D01*
X131638426Y-50043905D01*
X131638424Y-50043906D01*
X131525333Y-50104355D01*
X131484427Y-50116763D01*
X131402618Y-50141580D01*
X131338855Y-50147860D01*
X131306974Y-50151000D01*
X130693026Y-50151000D01*
X130661145Y-50147860D01*
X130597382Y-50141580D01*
X130515573Y-50116763D01*
X130474667Y-50104355D01*
X130361576Y-50043906D01*
X130361574Y-50043905D01*
X130262447Y-49962553D01*
X130181095Y-49863426D01*
X130174181Y-49850491D01*
X130120645Y-49750333D01*
X130108237Y-49709427D01*
X130083420Y-49627618D01*
X130070851Y-49500000D01*
X130083420Y-49372382D01*
X130120645Y-49249668D01*
X130120645Y-49249667D01*
X130181094Y-49136576D01*
X130181095Y-49136574D01*
X130262447Y-49037447D01*
X130361574Y-48956095D01*
X130374509Y-48949181D01*
X130474667Y-48895645D01*
X130515573Y-48883237D01*
X130597382Y-48858420D01*
X130661145Y-48852140D01*
X130693026Y-48849000D01*
X131306974Y-48849000D01*
X131338855Y-48852140D01*
X131338855Y-48852140D01*
G37*
G36*
X138338855Y-48852140D02*
X138402618Y-48858420D01*
X138484427Y-48883237D01*
X138525333Y-48895645D01*
X138625491Y-48949181D01*
X138638426Y-48956095D01*
X138737553Y-49037447D01*
X138818905Y-49136574D01*
X138818906Y-49136576D01*
X138879355Y-49249667D01*
X138879355Y-49249668D01*
X138916580Y-49372382D01*
X138929149Y-49500000D01*
X138916580Y-49627618D01*
X138891763Y-49709427D01*
X138879355Y-49750333D01*
X138825819Y-49850491D01*
X138818905Y-49863426D01*
X138737553Y-49962553D01*
X138638426Y-50043905D01*
X138638424Y-50043906D01*
X138525333Y-50104355D01*
X138484427Y-50116763D01*
X138402618Y-50141580D01*
X138338855Y-50147860D01*
X138306974Y-50151000D01*
X137693026Y-50151000D01*
X137661145Y-50147860D01*
X137597382Y-50141580D01*
X137515573Y-50116763D01*
X137474667Y-50104355D01*
X137361576Y-50043906D01*
X137361574Y-50043905D01*
X137262447Y-49962553D01*
X137181095Y-49863426D01*
X137174181Y-49850491D01*
X137120645Y-49750333D01*
X137108237Y-49709427D01*
X137083420Y-49627618D01*
X137070851Y-49500000D01*
X137083420Y-49372382D01*
X137120645Y-49249668D01*
X137120645Y-49249667D01*
X137181094Y-49136576D01*
X137181095Y-49136574D01*
X137262447Y-49037447D01*
X137361574Y-48956095D01*
X137374509Y-48949181D01*
X137474667Y-48895645D01*
X137515573Y-48883237D01*
X137597382Y-48858420D01*
X137661145Y-48852140D01*
X137693026Y-48849000D01*
X138306974Y-48849000D01*
X138338855Y-48852140D01*
X138338855Y-48852140D01*
G37*
G36*
X61887142Y-45658242D02*
X62001583Y-45705646D01*
X62008479Y-45708502D01*
X62035102Y-45719530D01*
X62056343Y-45733723D01*
X62168257Y-45808501D01*
X62281499Y-45921743D01*
X62325683Y-45987870D01*
X62370470Y-46054898D01*
X62431758Y-46202858D01*
X62463000Y-46359925D01*
X62463000Y-46520075D01*
X62431758Y-46677142D01*
X62370470Y-46825102D01*
X62281498Y-46958258D01*
X62168258Y-47071498D01*
X62035102Y-47160470D01*
X61887142Y-47221758D01*
X61730075Y-47253000D01*
X61569925Y-47253000D01*
X61412858Y-47221758D01*
X61264898Y-47160470D01*
X61131742Y-47071498D01*
X61018502Y-46958258D01*
X60929530Y-46825102D01*
X60868242Y-46677142D01*
X60837000Y-46520075D01*
X60837000Y-46359925D01*
X60868242Y-46202858D01*
X60929530Y-46054898D01*
X60974317Y-45987870D01*
X61018501Y-45921743D01*
X61131743Y-45808501D01*
X61243657Y-45733723D01*
X61264898Y-45719530D01*
X61291522Y-45708502D01*
X61298417Y-45705646D01*
X61412858Y-45658242D01*
X61569925Y-45627000D01*
X61730075Y-45627000D01*
X61887142Y-45658242D01*
X61887142Y-45658242D01*
G37*
G36*
X66967142Y-45658242D02*
X67081583Y-45705646D01*
X67088479Y-45708502D01*
X67115102Y-45719530D01*
X67136343Y-45733723D01*
X67248257Y-45808501D01*
X67361499Y-45921743D01*
X67405683Y-45987870D01*
X67450470Y-46054898D01*
X67511758Y-46202858D01*
X67543000Y-46359925D01*
X67543000Y-46520075D01*
X67511758Y-46677142D01*
X67450470Y-46825102D01*
X67361498Y-46958258D01*
X67248258Y-47071498D01*
X67115102Y-47160470D01*
X66967142Y-47221758D01*
X66810075Y-47253000D01*
X66649925Y-47253000D01*
X66492858Y-47221758D01*
X66344898Y-47160470D01*
X66211742Y-47071498D01*
X66098502Y-46958258D01*
X66009530Y-46825102D01*
X65948242Y-46677142D01*
X65917000Y-46520075D01*
X65917000Y-46359925D01*
X65948242Y-46202858D01*
X66009530Y-46054898D01*
X66054317Y-45987870D01*
X66098501Y-45921743D01*
X66211743Y-45808501D01*
X66323657Y-45733723D01*
X66344898Y-45719530D01*
X66371522Y-45708502D01*
X66378417Y-45705646D01*
X66492858Y-45658242D01*
X66649925Y-45627000D01*
X66810075Y-45627000D01*
X66967142Y-45658242D01*
X66967142Y-45658242D01*
G37*
G36*
X64427142Y-45658242D02*
X64541583Y-45705646D01*
X64548479Y-45708502D01*
X64575102Y-45719530D01*
X64596343Y-45733723D01*
X64708257Y-45808501D01*
X64821499Y-45921743D01*
X64865683Y-45987870D01*
X64910470Y-46054898D01*
X64971758Y-46202858D01*
X65003000Y-46359925D01*
X65003000Y-46520075D01*
X64971758Y-46677142D01*
X64910470Y-46825102D01*
X64821498Y-46958258D01*
X64708258Y-47071498D01*
X64575102Y-47160470D01*
X64427142Y-47221758D01*
X64270075Y-47253000D01*
X64109925Y-47253000D01*
X63952858Y-47221758D01*
X63804898Y-47160470D01*
X63671742Y-47071498D01*
X63558502Y-46958258D01*
X63469530Y-46825102D01*
X63408242Y-46677142D01*
X63377000Y-46520075D01*
X63377000Y-46359925D01*
X63408242Y-46202858D01*
X63469530Y-46054898D01*
X63514317Y-45987870D01*
X63558501Y-45921743D01*
X63671743Y-45808501D01*
X63783657Y-45733723D01*
X63804898Y-45719530D01*
X63831522Y-45708502D01*
X63838417Y-45705646D01*
X63952858Y-45658242D01*
X64109925Y-45627000D01*
X64270075Y-45627000D01*
X64427142Y-45658242D01*
X64427142Y-45658242D01*
G37*
G36*
X92367142Y-45658242D02*
X92481583Y-45705646D01*
X92488479Y-45708502D01*
X92515102Y-45719530D01*
X92536343Y-45733723D01*
X92648257Y-45808501D01*
X92761499Y-45921743D01*
X92805683Y-45987870D01*
X92850470Y-46054898D01*
X92911758Y-46202858D01*
X92943000Y-46359925D01*
X92943000Y-46520075D01*
X92911758Y-46677142D01*
X92850470Y-46825102D01*
X92761498Y-46958258D01*
X92648258Y-47071498D01*
X92515102Y-47160470D01*
X92367142Y-47221758D01*
X92210075Y-47253000D01*
X92049925Y-47253000D01*
X91892858Y-47221758D01*
X91744898Y-47160470D01*
X91611742Y-47071498D01*
X91498502Y-46958258D01*
X91409530Y-46825102D01*
X91348242Y-46677142D01*
X91317000Y-46520075D01*
X91317000Y-46359925D01*
X91348242Y-46202858D01*
X91409530Y-46054898D01*
X91454317Y-45987870D01*
X91498501Y-45921743D01*
X91611743Y-45808501D01*
X91723657Y-45733723D01*
X91744898Y-45719530D01*
X91771522Y-45708502D01*
X91778417Y-45705646D01*
X91892858Y-45658242D01*
X92049925Y-45627000D01*
X92210075Y-45627000D01*
X92367142Y-45658242D01*
X92367142Y-45658242D01*
G37*
G36*
X89827142Y-45658242D02*
X89941583Y-45705646D01*
X89948479Y-45708502D01*
X89975102Y-45719530D01*
X89996343Y-45733723D01*
X90108257Y-45808501D01*
X90221499Y-45921743D01*
X90265683Y-45987870D01*
X90310470Y-46054898D01*
X90371758Y-46202858D01*
X90403000Y-46359925D01*
X90403000Y-46520075D01*
X90371758Y-46677142D01*
X90310470Y-46825102D01*
X90221498Y-46958258D01*
X90108258Y-47071498D01*
X89975102Y-47160470D01*
X89827142Y-47221758D01*
X89670075Y-47253000D01*
X89509925Y-47253000D01*
X89352858Y-47221758D01*
X89204898Y-47160470D01*
X89071742Y-47071498D01*
X88958502Y-46958258D01*
X88869530Y-46825102D01*
X88808242Y-46677142D01*
X88777000Y-46520075D01*
X88777000Y-46359925D01*
X88808242Y-46202858D01*
X88869530Y-46054898D01*
X88914317Y-45987870D01*
X88958501Y-45921743D01*
X89071743Y-45808501D01*
X89183657Y-45733723D01*
X89204898Y-45719530D01*
X89231522Y-45708502D01*
X89238417Y-45705646D01*
X89352858Y-45658242D01*
X89509925Y-45627000D01*
X89670075Y-45627000D01*
X89827142Y-45658242D01*
X89827142Y-45658242D01*
G37*
G36*
X126087142Y-45558242D02*
X126235102Y-45619530D01*
X126368258Y-45708502D01*
X126481498Y-45821742D01*
X126570470Y-45954898D01*
X126631758Y-46102858D01*
X126663000Y-46259925D01*
X126663000Y-46420075D01*
X126631758Y-46577142D01*
X126590336Y-46677142D01*
X126570471Y-46725100D01*
X126503654Y-46825100D01*
X126481498Y-46858258D01*
X126368258Y-46971498D01*
X126235102Y-47060470D01*
X126235101Y-47060471D01*
X126235100Y-47060471D01*
X126208476Y-47071499D01*
X126087142Y-47121758D01*
X125930075Y-47153000D01*
X125769925Y-47153000D01*
X125612858Y-47121758D01*
X125491524Y-47071499D01*
X125464900Y-47060471D01*
X125464899Y-47060471D01*
X125464898Y-47060470D01*
X125331742Y-46971498D01*
X125218502Y-46858258D01*
X125196347Y-46825100D01*
X125129529Y-46725100D01*
X125109664Y-46677142D01*
X125068242Y-46577142D01*
X125037000Y-46420075D01*
X125037000Y-46259925D01*
X125068242Y-46102858D01*
X125129530Y-45954898D01*
X125218502Y-45821742D01*
X125331742Y-45708502D01*
X125464898Y-45619530D01*
X125612858Y-45558242D01*
X125769925Y-45527000D01*
X125930075Y-45527000D01*
X126087142Y-45558242D01*
X126087142Y-45558242D01*
G37*
G36*
X123547142Y-45558242D02*
X123695102Y-45619530D01*
X123828258Y-45708502D01*
X123941498Y-45821742D01*
X124030470Y-45954898D01*
X124091758Y-46102858D01*
X124123000Y-46259925D01*
X124123000Y-46420075D01*
X124091758Y-46577142D01*
X124050336Y-46677142D01*
X124030471Y-46725100D01*
X123963654Y-46825100D01*
X123941498Y-46858258D01*
X123828258Y-46971498D01*
X123695102Y-47060470D01*
X123695101Y-47060471D01*
X123695100Y-47060471D01*
X123668476Y-47071499D01*
X123547142Y-47121758D01*
X123390075Y-47153000D01*
X123229925Y-47153000D01*
X123072858Y-47121758D01*
X122951524Y-47071499D01*
X122924900Y-47060471D01*
X122924899Y-47060471D01*
X122924898Y-47060470D01*
X122791742Y-46971498D01*
X122678502Y-46858258D01*
X122656347Y-46825100D01*
X122589529Y-46725100D01*
X122569664Y-46677142D01*
X122528242Y-46577142D01*
X122497000Y-46420075D01*
X122497000Y-46259925D01*
X122528242Y-46102858D01*
X122589530Y-45954898D01*
X122678502Y-45821742D01*
X122791742Y-45708502D01*
X122924898Y-45619530D01*
X123072858Y-45558242D01*
X123229925Y-45527000D01*
X123390075Y-45527000D01*
X123547142Y-45558242D01*
X123547142Y-45558242D01*
G37*
G36*
X100687142Y-45558242D02*
X100835102Y-45619530D01*
X100968258Y-45708502D01*
X101081498Y-45821742D01*
X101170470Y-45954898D01*
X101231758Y-46102858D01*
X101263000Y-46259925D01*
X101263000Y-46420075D01*
X101231758Y-46577142D01*
X101190336Y-46677142D01*
X101170471Y-46725100D01*
X101103654Y-46825100D01*
X101081498Y-46858258D01*
X100968258Y-46971498D01*
X100835102Y-47060470D01*
X100835101Y-47060471D01*
X100835100Y-47060471D01*
X100808476Y-47071499D01*
X100687142Y-47121758D01*
X100530075Y-47153000D01*
X100369925Y-47153000D01*
X100212858Y-47121758D01*
X100091524Y-47071499D01*
X100064900Y-47060471D01*
X100064899Y-47060471D01*
X100064898Y-47060470D01*
X99931742Y-46971498D01*
X99818502Y-46858258D01*
X99796347Y-46825100D01*
X99729529Y-46725100D01*
X99709664Y-46677142D01*
X99668242Y-46577142D01*
X99637000Y-46420075D01*
X99637000Y-46259925D01*
X99668242Y-46102858D01*
X99729530Y-45954898D01*
X99818502Y-45821742D01*
X99931742Y-45708502D01*
X100064898Y-45619530D01*
X100212858Y-45558242D01*
X100369925Y-45527000D01*
X100530075Y-45527000D01*
X100687142Y-45558242D01*
X100687142Y-45558242D01*
G37*
G36*
X98147142Y-45558242D02*
X98295102Y-45619530D01*
X98428258Y-45708502D01*
X98541498Y-45821742D01*
X98630470Y-45954898D01*
X98691758Y-46102858D01*
X98723000Y-46259925D01*
X98723000Y-46420075D01*
X98691758Y-46577142D01*
X98650336Y-46677142D01*
X98630471Y-46725100D01*
X98563654Y-46825100D01*
X98541498Y-46858258D01*
X98428258Y-46971498D01*
X98295102Y-47060470D01*
X98295101Y-47060471D01*
X98295100Y-47060471D01*
X98268476Y-47071499D01*
X98147142Y-47121758D01*
X97990075Y-47153000D01*
X97829925Y-47153000D01*
X97672858Y-47121758D01*
X97551524Y-47071499D01*
X97524900Y-47060471D01*
X97524899Y-47060471D01*
X97524898Y-47060470D01*
X97391742Y-46971498D01*
X97278502Y-46858258D01*
X97256347Y-46825100D01*
X97189529Y-46725100D01*
X97169664Y-46677142D01*
X97128242Y-46577142D01*
X97097000Y-46420075D01*
X97097000Y-46259925D01*
X97128242Y-46102858D01*
X97189530Y-45954898D01*
X97278502Y-45821742D01*
X97391742Y-45708502D01*
X97524898Y-45619530D01*
X97672858Y-45558242D01*
X97829925Y-45527000D01*
X97990075Y-45527000D01*
X98147142Y-45558242D01*
X98147142Y-45558242D01*
G37*
G36*
X95607142Y-45558242D02*
X95755102Y-45619530D01*
X95888258Y-45708502D01*
X96001498Y-45821742D01*
X96090470Y-45954898D01*
X96151758Y-46102858D01*
X96183000Y-46259925D01*
X96183000Y-46420075D01*
X96151758Y-46577142D01*
X96110336Y-46677142D01*
X96090471Y-46725100D01*
X96023654Y-46825100D01*
X96001498Y-46858258D01*
X95888258Y-46971498D01*
X95755102Y-47060470D01*
X95755101Y-47060471D01*
X95755100Y-47060471D01*
X95728476Y-47071499D01*
X95607142Y-47121758D01*
X95450075Y-47153000D01*
X95289925Y-47153000D01*
X95132858Y-47121758D01*
X95011524Y-47071499D01*
X94984900Y-47060471D01*
X94984899Y-47060471D01*
X94984898Y-47060470D01*
X94851742Y-46971498D01*
X94738502Y-46858258D01*
X94716347Y-46825100D01*
X94649529Y-46725100D01*
X94629664Y-46677142D01*
X94588242Y-46577142D01*
X94557000Y-46420075D01*
X94557000Y-46259925D01*
X94588242Y-46102858D01*
X94649530Y-45954898D01*
X94738502Y-45821742D01*
X94851742Y-45708502D01*
X94984898Y-45619530D01*
X95132858Y-45558242D01*
X95289925Y-45527000D01*
X95450075Y-45527000D01*
X95607142Y-45558242D01*
X95607142Y-45558242D01*
G37*
G36*
X155335734Y-43893232D02*
X155545202Y-43979996D01*
X155733723Y-44105962D01*
X155894038Y-44266277D01*
X156020004Y-44454798D01*
X156106768Y-44664266D01*
X156151000Y-44886635D01*
X156151000Y-45113365D01*
X156106768Y-45335734D01*
X156020004Y-45545202D01*
X155894038Y-45733723D01*
X155733723Y-45894038D01*
X155545202Y-46020004D01*
X155335734Y-46106768D01*
X155113365Y-46151000D01*
X154886635Y-46151000D01*
X154664266Y-46106768D01*
X154454798Y-46020004D01*
X154266277Y-45894038D01*
X154105962Y-45733723D01*
X153979996Y-45545202D01*
X153893232Y-45335734D01*
X153849000Y-45113365D01*
X153849000Y-44886635D01*
X153893232Y-44664266D01*
X153979996Y-44454798D01*
X154105962Y-44266277D01*
X154266277Y-44105962D01*
X154454798Y-43979996D01*
X154664266Y-43893232D01*
X154886635Y-43849000D01*
X155113365Y-43849000D01*
X155335734Y-43893232D01*
X155335734Y-43893232D01*
G37*
G36*
X59335734Y-43893232D02*
X59545202Y-43979996D01*
X59733723Y-44105962D01*
X59894038Y-44266277D01*
X60020004Y-44454798D01*
X60106768Y-44664266D01*
X60151000Y-44886635D01*
X60151000Y-45113365D01*
X60106768Y-45335734D01*
X60020004Y-45545202D01*
X59894038Y-45733723D01*
X59733723Y-45894038D01*
X59545202Y-46020004D01*
X59335734Y-46106768D01*
X59113365Y-46151000D01*
X58886635Y-46151000D01*
X58664266Y-46106768D01*
X58454798Y-46020004D01*
X58266277Y-45894038D01*
X58105962Y-45733723D01*
X57979996Y-45545202D01*
X57893232Y-45335734D01*
X57849000Y-45113365D01*
X57849000Y-44886635D01*
X57893232Y-44664266D01*
X57979996Y-44454798D01*
X58105962Y-44266277D01*
X58266277Y-44105962D01*
X58454798Y-43979996D01*
X58664266Y-43893232D01*
X58886635Y-43849000D01*
X59113365Y-43849000D01*
X59335734Y-43893232D01*
X59335734Y-43893232D01*
G37*
M02*
