M48
;DRILL file {KiCad (5.0.2)-1} date 24.03.2019 20:38:48
;FORMAT={-:-/ absolute / inch / decimal}
FMAT,2
INCH,TZ
T1C0.0118
T2C0.0276
T3C0.0295
T4C0.0300
T5C0.0394
%
G90
G05
T1
X2.3031Y-2.9921
X2.3228Y-2.8543
X2.3819Y-3.0709
X2.4016Y-2.6969
X2.5984Y-2.8543
X2.6181Y-2.6969
X2.6575Y-2.8543
X2.6772Y-3.4449
X2.7362Y-3.0709
X2.7362Y-3.248
X2.7953Y-3.4449
X2.8705Y-1.9094
X2.874Y-3.1693
X2.874Y-3.248
X2.8937Y-2.5787
X2.9134Y-3.3268
X2.9528Y-3.3268
X3.0118Y-2.4803
X3.0246Y-3.3635
X3.0315Y-3.0709
X3.0315Y-3.2874
X3.1693Y-3.0709
X3.1693Y-3.3661
X3.189Y-2.9528
X3.189Y-3.2062
X3.2283Y-2.1457
X3.2323Y-2.5551
X3.2932Y-2.4339
X3.3071Y-1.9488
X3.3071Y-2.3228
X3.3071Y-2.5197
X3.3071Y-2.5787
X3.3071Y-2.9724
X3.3465Y-2.4764
X3.3465Y-2.5787
X3.3661Y-2.0079
X3.3819Y-3.248
X3.3858Y-3.4449
X3.3898Y-2.9724
X3.4094Y-3.4055
X3.4252Y-2.6772
X3.4622Y-3.7032
X3.4646Y-2.1063
X3.4843Y-1.9291
X3.4843Y-3.2087
X3.4843Y-3.5236
X3.4882Y-2.6772
X3.5092Y-2.3034
X3.5236Y-2.0276
X3.5236Y-2.1457
X3.5236Y-2.185
X3.5236Y-2.2165
X3.5236Y-2.3425
X3.5236Y-2.4016
X3.5236Y-2.4606
X3.5236Y-2.4921
X3.5433Y-1.9921
X3.5827Y-2.3031
X3.5866Y-3.563
X3.6368Y-3.22
X3.6417Y-2.7953
X3.6457Y-2.3031
X3.6614Y-3.4449
X3.6693Y-3.2756
X3.6772Y-2.9075
X3.6803Y-3.5834
X3.6811Y-2.6181
X3.7109Y-2.6282
X3.7205Y-2.5591
X3.7205Y-2.5982
X3.7402Y-2.5197
X3.7795Y-2.5
X3.7795Y-3.0315
X3.7992Y-2.2835
X3.8494Y-2.7451
X3.9171Y-2.0026
X3.9173Y-2.6181
X3.9173Y-3.2677
X3.9488Y-2.6181
X3.9567Y-3.1811
X3.9567Y-3.5236
X3.9764Y-3.7244
X3.9961Y-2.7717
X3.9961Y-2.8346
X4.0147Y-2.552
X4.0157Y-2.3031
X4.0157Y-2.3425
X4.0157Y-2.5197
X4.0217Y-2.4867
X4.0354Y-2.2441
X4.0354Y-2.4016
X4.0453Y-2.4578
X4.0551Y-2.0472
X4.0748Y-2.7362
X4.0786Y-2.9528
X4.0945Y-2.0079
X4.0945Y-2.6772
X4.1142Y-2.7953
X4.1142Y-3.3661
X4.1403Y-2.746
X4.1437Y-2.4016
X4.1496Y-2.2205
X4.1496Y-2.2677
X4.1535Y-2.4409
X4.1535Y-2.4724
X4.1535Y-3.0315
X4.1535Y-3.6575
X4.1732Y-2.185
X4.1732Y-3.563
X4.1744Y-2.5185
X4.2126Y-2.2441
X4.3221Y-2.269
X4.3701Y-1.9685
X4.376Y-2.7096
X4.3898Y-2.9921
X4.3898Y-3.0512
X4.4094Y-2.7096
X4.5079Y-1.7913
X4.5866Y-2.8937
X4.626Y-1.8898
X4.626Y-1.9291
X4.626Y-1.9685
X4.685Y-2.8937
X4.6911Y-2.3661
X4.7441Y-2.3425
X4.7441Y-2.4606
X4.7835Y-2.4409
X4.8228Y-3.2323
X4.8261Y-2.0975
X4.8425Y-2.4409
X4.8425Y-2.6378
X4.8898Y-2.5787
X4.9439Y-2.5505
X4.9739Y-2.5
X4.9911Y-2.5895
X4.9976Y-2.3401
X5.0039Y-2.2047
X5.0787Y-2.5
X5.1575Y-3.5827
X5.2362Y-1.7717
X5.3937Y-2.8346
X5.4724Y-3.6378
X5.5118Y-2.0512
X5.5315Y-2.0039
X5.5512Y-2.9528
X5.8268Y-2.2047
X5.8858Y-3.248
X5.8858Y-3.3465
X6.1024Y-2.9528
T2
X3.1329Y-3.5571
X3.3238Y-3.5571
T3
X5.7087Y-2.6181
X5.7087Y-2.6969
X5.1575Y-3.4055
X5.1575Y-3.4843
X5.7087Y-2.9528
X5.7087Y-3.0315
X5.9646Y-1.9488
X5.9646Y-2.0276
X5.9646Y-2.1063
X5.9646Y-2.185
X5.9646Y-2.4016
X5.9646Y-2.4803
X5.9646Y-2.5591
X5.9646Y-2.6378
X5.9646Y-2.7165
X5.9646Y-2.7953
X5.9646Y-2.874
X5.9646Y-2.9528
X5.4331Y-2.5197
X5.4331Y-2.5984
X5.1575Y-2.7559
X5.1575Y-2.8346
X5.1575Y-2.9134
X5.1575Y-2.9921
X5.1575Y-1.9488
X5.1575Y-2.0276
X5.1575Y-2.1063
X5.9646Y-3.1693
X5.9646Y-3.248
X5.9646Y-3.3268
X5.9646Y-3.4055
X5.9646Y-3.4843
X5.7087Y-2.2835
X5.7087Y-2.3622
X5.1575Y-2.3622
X5.1575Y-2.4409
X5.1575Y-2.5197
X5.7087Y-1.9488
X5.7087Y-2.0276
X5.4331Y-1.9488
X5.4331Y-2.0276
X5.4331Y-2.1063
X5.4331Y-2.185
T4
X2.4272Y-1.8283
X2.4272Y-3.6283
X2.5272Y-1.8283
X2.5272Y-3.6283
X2.6272Y-1.8283
X3.5272Y-1.8283
X3.5272Y-3.6283
X3.6272Y-1.8283
X3.6272Y-3.6283
X2.4756Y-2.0866
X2.4756Y-2.7559
X2.5756Y-2.0866
X2.5756Y-2.7559
X2.6756Y-2.0866
X2.6756Y-2.7559
X2.7756Y-2.0866
X2.7756Y-2.7559
X2.8756Y-2.0866
X2.8756Y-2.7559
X2.9756Y-2.0866
X2.9756Y-2.7559
X3.0756Y-2.0866
X3.0756Y-2.7559
X3.1756Y-2.0866
X3.1756Y-2.7559
X3.7547Y-1.8244
X3.7547Y-3.6244
X3.8547Y-1.8244
X3.8547Y-3.6244
X3.9547Y-1.8244
X3.9547Y-3.6244
X4.8547Y-1.8244
X4.8547Y-3.6244
X4.9547Y-1.8244
X4.9547Y-3.6244
T5
X5.5315Y-3.3268
X5.5315Y-3.4268
X5.5315Y-3.5268
X5.6315Y-3.3268
X5.6315Y-3.4268
X5.6315Y-3.5268
T2
X3.0856Y-3.6496G85X3.0856Y-3.6732
G05
X3.3711Y-3.6496G85X3.3711Y-3.6732
G05
T0
M30
